<svg xmlns="http://www.w3.org/2000/svg" viewBox="0 0 825.71 226.84"><g id="圖層_2" data-name="圖層 2"><g id="圖層_1-2" data-name="圖層 1"><path d="M652,214.33c42-36.23,58.68-61.75,58.68-84.2,0-15.48-7.82-27.56-25.34-27.56-10.72,0-20.41,6.64-27.56,15.48l-6.29-6c9.35-10.38,19.9-17.86,34.87-17.86,21.6,0,34.36,14.12,34.36,35.55,0,26-20.07,52.05-53.07,82.84,6.8-.51,14-1,20.41-1H726.7v8.85H652Z"/><path d="M748.65,206.51l5.44-7c7.15,7.49,16.33,14.63,32.49,14.63,15.65,0,28.92-13.1,28.92-33.17,0-19.73-11.06-31.81-28.41-31.81-9,0-15,3.06-21.94,7.83l-6.47-3.92,4.26-56.64h56.64v8.67h-47.8l-3.57,41.68a38.25,38.25,0,0,1,20.75-6c20.42,0,36.75,12.24,36.75,39.8,0,26.88-19.06,42-38.79,42C767.7,222.67,756.64,214.33,748.65,206.51Z"/><path d="M6.21,66.66h9.9V31.08H8.49V28.74A24.66,24.66,0,0,0,16.83,26h2.82V66.66h9.12v3.06H6.21Z"/><path d="M38.49,67.56c14.82-12.78,20.7-21.78,20.7-29.7,0-5.46-2.76-9.71-8.94-9.71-3.78,0-7.2,2.33-9.72,5.45l-2.22-2.1c3.3-3.65,7-6.3,12.3-6.3,7.62,0,12.12,5,12.12,12.54C62.73,46.92,55.65,56.1,44,67c2.4-.18,4.92-.36,7.2-.36H64.83v3.12H38.49Z"/><path d="M75.92,220.71c42-36.23,58.69-61.75,58.69-84.2,0-15.48-7.83-27.56-25.35-27.56-10.71,0-20.41,6.64-27.55,15.48l-6.3-6c9.36-10.38,19.9-17.86,34.87-17.86,21.61,0,34.36,14.12,34.36,35.55,0,26-20.07,52.05-53.07,82.84,6.81-.51,14-1,20.41-1H150.6v8.85H75.92Z"/><path d="M175.43,220.71c42-36.23,58.69-61.75,58.69-84.2,0-15.48-7.82-27.56-25.35-27.56-10.71,0-20.41,6.64-27.55,15.48l-6.3-6c9.36-10.38,19.91-17.86,34.88-17.86,21.6,0,34.36,14.12,34.36,35.55,0,26-20.08,52.05-53.08,82.84,6.81-.51,13.95-1,20.42-1h38.61v8.85H175.43Z"/><line x1="149.11" y1="0.57" x2="0.74" y2="193.45"/><rect x="-46.75" y="96.07" width="243.34" height="1.87" transform="translate(-47.65 97.22) rotate(-52.42)"/><line x1="274.01" y1="221.92" x2="616.17" y2="221.92"/><rect x="274.01" y="220.81" width="342.16" height="2.23"/></g></g></svg>