<svg xmlns="http://www.w3.org/2000/svg" viewBox="0 0 742.2 754.34"><defs><style>.cls-1{fill:#e50012;}.cls-2{fill:#fff;}</style></defs><g id="圖層_2" data-name="圖層 2"><g id="圖層_1-2" data-name="圖層 1"><polygon class="cls-1" points="317.95 544.99 205.31 437.57 532.59 0 742.2 199.89 317.95 544.99"/><path class="cls-2" d="M554.46,82.29a7.48,7.48,0,0,0-2-7.89,6.28,6.28,0,0,0-9.27.2c-2.63,2.74-1.59,5.48-.24,9.17a49,49,0,0,1,2.52,7.51,7.72,7.72,0,0,1-2,7.49c-4.1,4.26-10.71,4-15.07-.16a10,10,0,0,1-3.36-8.3,11.72,11.72,0,0,1,1-4.35l2.11.7a12.18,12.18,0,0,0-1,3.75,8.43,8.43,0,0,0,2.69,6.72,8.23,8.23,0,0,0,11.78,0c1.31-1.37,2.16-3.32,1.35-6.36-.33-1.11-1.08-3.29-2.2-6.32-1.35-3.62-2-5.51-1.44-7.79a7.53,7.53,0,0,1,2-3.66,8.59,8.59,0,0,1,12.6-.09,9.39,9.39,0,0,1,2.71,9.51Z"/><path class="cls-2" d="M557.79,102.74,546.21,114.8l-1.68-1.61L568.9,87.82l4.93,4.7c4.16,4,5.25,9.38,1.08,13.72s-9.44,3.81-13.83-.37Zm1.47-1.52,3.36,3.2c3.32,3.17,7.43,3.37,10.5.18s2.79-7.18-.91-10.71l-3.09-3Z"/><path class="cls-2" d="M581.85,132.82,571,122.48l-11.4,5.09-1.83-1.74,35.83-15.91-14.53,36.22-1.83-1.75Zm.86-2.1,6.77-16.57-16.4,7.39Z"/><path class="cls-2" d="M596,162.31l3.26-19.85-.76-.73-11.51,12-1.68-1.6,24.37-25.37,3.67,3.49c1.94,1.86,3.55,3.69,4.14,6.43a8.73,8.73,0,0,1-2.59,8c-2.42,2.51-6,4-10.2,2.09a13.67,13.67,0,0,1-3.6-2.49l-3.19,19.92Zm4-22.1,2.45,2.33c3.62,3.46,7.63,3.63,10.77.36,2.45-2.55,2.46-5.08,2-6.56a12.52,12.52,0,0,0-3.16-4.48l-2.1-2Z"/><path class="cls-2" d="M620.08,159.51l23.49-.48,2.22,2.11-24,.38.35,25.69-2.3-2.19-.36-23.52h-1.31l-11,11.45-1.68-1.61L629.87,146l1.68,1.6Z"/><path class="cls-2" d="M654.45,169.4l-22.9,23.86,7.1,6.77-1.46,1.52-8.78-8.37,24.36-25.38Z"/><path class="cls-2" d="M657.76,200.4l5.59-22.51,1.91,1.82-5,19.81,19.79-5.69,1.91,1.82L659.44,202,649,212.84l-1.68-1.6Z"/><polygon class="cls-2" points="564.66 194.03 565.22 192.36 654.9 222 654.35 223.67 564.66 194.03"/><polygon class="cls-2" points="550.71 180.92 516.94 92.63 518.59 92 552.36 180.29 550.71 180.92"/><path class="cls-2" d="M456.86,160.85l-24.37,25.37-1.68-1.6,24.37-25.38Z"/><path class="cls-2" d="M439.36,192.78l24.37-25.38,5,4.81a17.7,17.7,0,0,1,6,12.49A18.43,18.43,0,0,1,457.19,203a17.79,17.79,0,0,1-12.79-5.42Zm3.14.08,3.32,3.16c6.72,6.41,15.73,6.25,22.05-.33s6.08-15.63-.6-22L464,170.53Z"/><path class="cls-2" d="M498.07,203.07l-10.53-10-8.84,9.21L489,212.06l-1.46,1.52-10.31-9.83-11.15,11.61,10.54,10-1.46,1.52L463,215.28l24.37-25.38,12.22,11.65Z"/><path class="cls-2" d="M480.67,232.17l24.62-25.64,0,42.68,21.16-22,1.67,1.6-25,26,0-42.68-20.78,21.65Z"/><path class="cls-2" d="M538.89,242,516,265.84l-1.68-1.6,22.91-23.85-6.61-6.3,1.47-1.52L547,246.77l-1.46,1.52Z"/><path class="cls-2" d="M552.61,252.16l-24.37,25.37-1.68-1.6,24.37-25.38Z"/><path class="cls-2" d="M563.4,265.36l-22.91,23.86-1.68-1.61,22.91-23.85-6.61-6.3,1.47-1.52,14.88,14.2L570,271.66Z"/><path class="cls-2" d="M567.32,294l5.6-22.51,1.9,1.82-5,19.81,19.8-5.68,1.9,1.82L569,295.63l-10.41,10.84-1.68-1.6Z"/><polygon class="cls-2" points="559.48 321.92 422.62 191.4 423.84 190.13 560.7 320.65 559.48 321.92"/><polygon class="cls-2" points="455.79 157.4 456.34 155.74 546.4 185.4 545.85 187.07 455.79 157.4"/><polygon class="cls-2" points="592.11 287.4 558.52 199.34 560.16 198.72 593.75 286.77 592.11 287.4"/><polygon class="cls-2" points="687.46 189.12 550.59 58.6 551.81 57.34 688.67 187.85 687.46 189.12"/><path class="cls-2" d="M423.67,236a6.12,6.12,0,0,0-1.64-6.45,5.13,5.13,0,0,0-7.57.17c-2.15,2.23-1.31,4.47-.2,7.49a41.4,41.4,0,0,1,2.06,6.13,6.31,6.31,0,0,1-1.64,6.12c-3.34,3.48-8.75,3.27-12.31-.12a8.18,8.18,0,0,1-2.74-6.79,9.35,9.35,0,0,1,.83-3.55l1.73.57a9.63,9.63,0,0,0-.79,3.06,6.86,6.86,0,0,0,2.2,5.49,6.71,6.71,0,0,0,9.62,0,5,5,0,0,0,1.1-5.19c-.26-.91-.88-2.69-1.79-5.17-1.1-3-1.6-4.5-1.18-6.36a6.21,6.21,0,0,1,1.61-3,7,7,0,0,1,10.29-.07,7.67,7.67,0,0,1,2.22,7.77Z"/><path class="cls-2" d="M426.39,252.72l-9.46,9.86-1.38-1.31,19.91-20.73,4,3.83c3.4,3.25,4.29,7.67.89,11.21s-7.72,3.12-11.31-.3Zm1.19-1.24,2.75,2.62c2.71,2.59,6.07,2.76,8.58.15s2.28-5.87-.74-8.75l-2.53-2.41Z"/><path class="cls-2" d="M446.05,277.31l-8.86-8.45L427.87,273l-1.49-1.43,29.27-13-11.87,29.59-1.5-1.43Zm.69-1.72,5.54-13.54-13.4,6Z"/><path class="cls-2" d="M457.63,301.4l2.67-16.22-.63-.59-9.4,9.79-1.37-1.31,19.91-20.74,3,2.86a10.09,10.09,0,0,1,3.39,5.25,7.16,7.16,0,0,1-2.12,6.5,6.93,6.93,0,0,1-8.33,1.7,11.06,11.06,0,0,1-2.95-2l-2.6,16.28Zm3.24-18.06,2,1.91c3,2.82,6.24,3,8.8.29,2-2.08,2-4.15,1.63-5.36a10.38,10.38,0,0,0-2.59-3.66L469,274.89Z"/><path class="cls-2" d="M477.28,299.11l19.2-.39,1.81,1.73-19.6.3.28,21L477.1,320l-.3-19.22h-1.07l-9,9.35-1.37-1.3L485.28,288l1.37,1.31Z"/><path class="cls-2" d="M505.37,307.2l-18.72,19.49,5.8,5.53-1.19,1.25-7.18-6.85L504,305.89Z"/><path class="cls-2" d="M508.07,332.52l4.57-18.39,1.56,1.49-4.07,16.19,16.17-4.65,1.56,1.49-18.42,5.18-8.51,8.86-1.37-1.31Z"/><polygon class="cls-2" points="432 327.32 432.45 325.96 505.73 350.17 505.28 351.54 432 327.32"/><polygon class="cls-2" points="420.6 316.61 393 244.47 394.35 243.96 421.94 316.1 420.6 316.61"/><path class="cls-2" d="M343.91,300.21,324,320.94l-1.37-1.31,19.91-20.73Z"/><path class="cls-2" d="M329.62,326.3l19.91-20.74,4.12,3.93a14.45,14.45,0,0,1,4.89,10.21,15.06,15.06,0,0,1-14.36,14.95,14.54,14.54,0,0,1-10.44-4.43Zm2.56.06L334.9,329c5.49,5.24,12.84,5.11,18-.27s5-12.77-.49-18l-2.72-2.58Z"/><path class="cls-2" d="M377.59,334.71,369,326.5,361.76,334l8.42,8L369,343.3l-8.42-8-9.11,9.49,8.61,8.21-1.19,1.24-10-9.52,19.91-20.74,10,9.52Z"/><path class="cls-2" d="M363.37,358.48l20.12-21,0,34.88,17.28-18,1.37,1.3L381.7,377l0-34.88-17,17.69Z"/><path class="cls-2" d="M410.94,366.51,392.22,386l-1.37-1.31,18.72-19.49-5.4-5.15,1.19-1.24,12.17,11.6-1.2,1.24Z"/><path class="cls-2" d="M422.15,374.81l-19.91,20.74-1.38-1.31,19.92-20.74Z"/><path class="cls-2" d="M431,385.61,412.25,405.1l-1.37-1.31,18.71-19.49-5.39-5.15,1.19-1.24,12.17,11.6-1.2,1.24Z"/><path class="cls-2" d="M434.17,409l4.57-18.39,1.56,1.49-4.07,16.18,16.17-4.64,1.56,1.48-18.42,5.19L427,419.2l-1.38-1.31Z"/><polygon class="cls-2" points="427.77 431.81 315.94 325.17 316.93 324.13 428.76 430.78 427.77 431.81"/><polygon class="cls-2" points="343.04 297.39 343.49 296.03 417.08 320.27 416.63 321.63 343.04 297.39"/><polygon class="cls-2" points="454.42 403.61 426.98 331.66 428.32 331.15 455.77 403.1 454.42 403.61"/><polygon class="cls-2" points="532.33 323.31 420.5 216.66 421.5 215.63 533.33 322.27 532.33 323.31"/><path class="cls-2" d="M315.68,366.82a4.69,4.69,0,0,0-1.26-4.94,3.93,3.93,0,0,0-5.8.13c-1.65,1.71-1,3.42-.15,5.74a30.53,30.53,0,0,1,1.57,4.7,4.82,4.82,0,0,1-1.25,4.69,6.62,6.62,0,0,1-9.43-.1,6.28,6.28,0,0,1-2.11-5.2,7.17,7.17,0,0,1,.65-2.72l1.32.44a7.71,7.71,0,0,0-.61,2.34,5.29,5.29,0,0,0,1.69,4.21,5.14,5.14,0,0,0,7.37,0,3.86,3.86,0,0,0,.85-4c-.21-.7-.68-2.06-1.38-4-.84-2.27-1.22-3.45-.9-4.88a4.77,4.77,0,0,1,1.23-2.29,5.39,5.39,0,0,1,7.89-.05,5.88,5.88,0,0,1,1.7,5.95Z"/><path class="cls-2" d="M317.76,379.62l-7.25,7.55-1.05-1,15.26-15.89,3.08,2.94c2.61,2.49,3.29,5.88.68,8.59s-5.91,2.39-8.66-.23Zm.92-.95,2.1,2c2.08,2,4.66,2.11,6.58.11s1.75-4.49-.57-6.71l-1.94-1.84Z"/><path class="cls-2" d="M332.83,398.46,326,392l-7.14,3.18-1.15-1.09,22.44-10-9.1,22.68L330,405.71Zm.53-1.32,4.24-10.37-10.26,4.63Z"/><path class="cls-2" d="M341.71,416.92l2-12.43-.48-.45-7.21,7.5-1.05-1,15.26-15.89,2.3,2.19a7.78,7.78,0,0,1,2.59,4,5.47,5.47,0,0,1-1.62,5,5.33,5.33,0,0,1-6.39,1.31,8.47,8.47,0,0,1-2.25-1.56l-2,12.47Zm2.48-13.84,1.53,1.46c2.27,2.17,4.77,2.28,6.74.23a4.09,4.09,0,0,0,1.24-4.11,7.78,7.78,0,0,0-2-2.8l-1.31-1.25Z"/><path class="cls-2" d="M356.76,415.17l14.71-.3,1.39,1.32-15,.24.22,16.08-1.44-1.36-.23-14.74h-.82l-6.88,7.17-1.06-1,15.26-15.88,1.05,1Z"/><path class="cls-2" d="M378.29,421.37,363.94,436.3l4.45,4.24-.91,1-5.5-5.25,15.25-15.89Z"/><path class="cls-2" d="M380.36,440.77l3.5-14.09,1.19,1.14-3.12,12.4,12.4-3.56,1.19,1.14-14.11,4-6.52,6.78-1.05-1Z"/><polygon class="cls-2" points="322.06 436.79 322.41 435.74 378.57 454.3 378.22 455.34 322.06 436.79"/><polygon class="cls-2" points="313.33 428.58 292.18 373.29 293.21 372.9 314.36 428.19 313.33 428.58"/><path class="cls-2" d="M254.56,416,239.3,431.9l-1.05-1L253.51,415Z"/><path class="cls-2" d="M243.61,436l15.25-15.89,3.16,3a11.12,11.12,0,0,1,3.75,7.82,11.54,11.54,0,0,1-11,11.46,11.13,11.13,0,0,1-8-3.39Zm2,.05,2.08,2c4.21,4,9.85,3.92,13.8-.21s3.81-9.78-.37-13.77l-2.08-2Z"/><path class="cls-2" d="M280.37,442.45l-6.6-6.29-5.53,5.76,6.45,6.16-.91.95-6.46-6.16-7,7.27,6.6,6.29-.91.95-7.65-7.29,15.26-15.89,7.65,7.29Z"/><path class="cls-2" d="M269.47,460.67l15.42-16.06,0,26.73,13.25-13.8,1.05,1-15.65,16.3,0-26.72-13,13.55Z"/><path class="cls-2" d="M305.92,466.82l-14.34,14.93-1.05-1,14.34-14.94-4.13-3.94.91-.95,9.32,8.89-.91.95Z"/><path class="cls-2" d="M314.51,473.18l-15.25,15.89-1.06-1,15.26-15.89Z"/><path class="cls-2" d="M321.27,481.45l-14.34,14.94-1.05-1,14.34-14.93-4.14-3.94.92-1,9.32,8.89-.91,1Z"/><path class="cls-2" d="M323.73,499.4l3.5-14.09,1.2,1.14-3.12,12.4,12.39-3.56,1.2,1.14-14.12,4-6.52,6.78-1.05-1Z"/><polygon class="cls-2" points="318.82 516.86 233.12 435.14 233.89 434.34 319.58 516.07 318.82 516.86"/><polygon class="cls-2" points="253.89 413.85 254.24 412.81 310.63 431.38 310.29 432.43 253.89 413.85"/><polygon class="cls-2" points="339.25 495.25 318.21 440.11 319.25 439.72 340.28 494.86 339.25 495.25"/><polygon class="cls-2" points="398.95 433.71 313.25 351.99 314.01 351.19 399.71 432.92 398.95 433.71"/><ellipse class="cls-1" cx="141.78" cy="612.54" rx="142.03" ry="141.54" transform="translate(-399.36 292.42) rotate(-46.36)"/><path class="cls-2" d="M96.19,501.14l23.06-6.74.41,1.4-.28.46q-5,8-3.29,13.79a13.38,13.38,0,0,0,1.24,2.67l-9.46,2.76q-1.4-6,6-15.82l-10.42,3-4.87,6.65Z"/><path class="cls-2" d="M150.25,501.75l.23,8.2-27.19.79q2.7-4.49,9.61-7.46l2.83-1.22q5-2.15,4.93-4.32-.07-2.4-4.69-2.27-4.87.13-4.79,3.49a3.44,3.44,0,0,0,1.42,2.44,8.79,8.79,0,0,1-2.23.36,10.74,10.74,0,0,1-4.93-.81,2.84,2.84,0,0,1-1.93-2.47q-.06-2.26,3.8-3.91a26.52,26.52,0,0,1,9.61-1.82,26.19,26.19,0,0,1,9.65,1.26q3.93,1.42,4,3.69a2.71,2.71,0,0,1-1.46,2.36,32.55,32.55,0,0,1-6,2.55l-3.47,1.2c-3.52,1.22-6.39,2.34-8.63,3.33l13.84-.4Z"/><path class="cls-2" d="M171.17,496.73a18.59,18.59,0,0,1,9.07,5.28q3.56,3.84,2.64,7.32t-6,4.89a21.61,21.61,0,0,1-20.15-5.2q-3.63-3.67-2.74-7,.95-3.59,6.17-5.17A19.73,19.73,0,0,1,171.17,496.73Zm-1,3q-5-1.32-6.58,4.71-1.44,5.44,3.43,6.73t6.23-4.29Q174.83,501,170.19,499.74Z"/><path class="cls-2" d="M194,505.68a4.21,4.21,0,0,1,2.22,2.55,4.38,4.38,0,0,1-.28,3.41,4.17,4.17,0,0,1-2.54,2.16,4.35,4.35,0,0,1-3.37-.28,4.18,4.18,0,0,1-2.16-2.53,4.41,4.41,0,0,1,2.79-5.55A4.14,4.14,0,0,1,194,505.68Zm-.92,1.87a2.25,2.25,0,0,0-1.78-.13,2.2,2.2,0,0,0-1.35,1.14,2.24,2.24,0,0,0-.12,1.76,2.18,2.18,0,0,0,1.13,1.33,2.33,2.33,0,0,0,1.81.16,2.15,2.15,0,0,0,1.35-1.13,2.35,2.35,0,0,0-1-3.13Z"/><path class="cls-2" d="M219.53,537.29c-1,1.13-1.71,1.49-2.79,1.12a7.87,7.87,0,0,1-2.4-1.49,27.3,27.3,0,0,0,3.6,5.53,17.67,17.67,0,0,0-3.93.91,21,21,0,0,1-3.34-7.72L207.75,539l-3-2.65,3-3.39a20.67,20.67,0,0,1-8.55-2.32,16.07,16.07,0,0,0,.32-3.87c3.7,2.26,7.7,3.49,10.83,3.21l1-1.19-3.1-2.72-2.81,3.21-3-2.61,4.87-5.56,6.08,5.33.54-.62-7.24-6.34,2.08-2.39,1,.84a23.35,23.35,0,0,0-.17-3,14.36,14.36,0,0,0,6.19-1.54l1.82,2.89-.68.31,3.81,3.35-1.72,2a11.65,11.65,0,0,0,4.76-1.51l2,2.88-.76.4,5,4.4-1.82,2.08-2.89-2.53a10.18,10.18,0,0,1,.23,1.8l-2.7,0,3,2.6-2.09,2.39L217,528.44l-.54.62,5.84,5.11Zm-5.61-19.64a22.43,22.43,0,0,1-3.63.73l3.42,3a22.57,22.57,0,0,0-.25-2.94h1.34ZM213,533a13,13,0,0,0,.81,2.73,16.75,16.75,0,0,0,.71-2.37c.49.52,1.34,1.24,1.55,1.42s.38.23.56,0l.68-.77-2.95-2.59Zm3-9.55.83-.95,1.81,1.59c-.14-.77-.33-1.61-.47-2.15a5.14,5.14,0,0,0,.56,0l-2.08-1.83a12.1,12.1,0,0,1,.15,1.93l-2.32.08Zm6,1.34a17.12,17.12,0,0,1-2.31.5l-.7.81,3.19,2.8a19.21,19.21,0,0,0-.4-3l1.47,0Z"/><path class="cls-2" d="M245.66,553.54a17.54,17.54,0,0,1-7.45.17,16.32,16.32,0,0,0,1.31,4.44,16.5,16.5,0,0,0-3.51,1.54c-.11-.29-.2-.61-.29-.91L228.3,564l-1.93-2.78,1.06-.75-2.52-3.61-1.15.8L221.91,555l7.46-5.22c-.32-.24-.63-.46-.94-.72a20.1,20.1,0,0,0,1.41-1.79L224.45,551l-3.77-5.41-1.32.92-1.56-2.24L233.93,533l5.33,7.66-3.85,2.7a16.65,16.65,0,0,0,7.81-.06l1,3.07c-.61.15-1.24.27-1.86.37l2.69,3.87.45.46Zm-22.4-9.73.53.76,3.85-2.7-.52-.76Zm2.27,3.26,3.86-2.7-.5-.71L225,546.35Zm4.54,11.53,1.72-1.21-2.52-3.62L227.55,555Zm2.83-21.54-3.59,2.51.53.75,3.58-2.5Zm2.27,3.26-.5-.71-3.58,2.5.5.72Zm-4.08,6a21.56,21.56,0,0,0,4.06,2.73,14.17,14.17,0,0,1,.66-2.22,15,15,0,0,1-2.25-.42,24.47,24.47,0,0,0,1.05-2.56Zm4,10.18a18.74,18.74,0,0,1-.38-3.82,22.34,22.34,0,0,1-3.47-1.71Zm3.81-8.95a10.44,10.44,0,0,0-.73,2.67,13.16,13.16,0,0,0,2.89.45Z"/><path class="cls-2" d="M250,572.12a29.11,29.11,0,0,1-3.41-.24l.69,1.77,2.38-.93,1.31,3.4-2.38.92,1.92,5-6.95,2.71c-1.38.53-2.26.65-3.09,0a6.17,6.17,0,0,1-1.71-2.86,11.56,11.56,0,0,0,2.68-2c.16.49.4,1.11.48,1.33s.19.26.4.17l3.81-1.48-.63-1.62-10.07,3.91-1.31-3.4,10.06-3.91-.56-1.46-7.14,2.78-1.25-3.23,6-2.35a16.16,16.16,0,0,1-1.93-.9,17.05,17.05,0,0,0,1.74-2.71l-10,3.88-1.27-3.3,11.56-4.5c-.62-.19-1.23-.42-1.81-.64a24.21,24.21,0,0,0,2.94-3.23A26.09,26.09,0,0,0,253.12,561l.24,3.68c-.87,0-1.77,0-2.67-.07l1.47,3.81a29.6,29.6,0,0,0,3.9-.47l.68,3.61c-1.08.18-2.15.31-3.21.4l3.22,8.32-3.14,1.22Zm-8-5.49a17.07,17.07,0,0,0,6.59,1.81l-1.06-2.75,2.78-1.08c-.84-.06-1.68-.12-2.52-.23Z"/><path class="cls-2" d="M254.41,608.93l-1.45.13c-7.19.7-10.13.82-11.22.21a3,3,0,0,1-1.53-1.92,15.18,15.18,0,0,1-.54-3,8.8,8.8,0,0,0,2.14-.74l-.76-6-1.55.2-.43-3.38,8.89-1.15,1.31,10.28-6.18.79c0,.23.06.44.08.62a.84.84,0,0,0,.48.76c.53.32,2.41.28,7.09-.17L249,592.2c-3.65,0-7.6-.44-10.53-2a13.8,13.8,0,0,0,2-3.28c4.23,2.28,10,1.73,14,1.21l6.31-.81,2.36,18.54-7.72,1-1.9-14.91c-.41.06-.84.08-1.3.12ZM246,600.45l-.44-3.46-1.62.21.44,3.46Zm12.25-9.1-1.59.2,1.42,11.17,1.59-.21Z"/><path class="cls-2" d="M258.57,629.32,253,652.72l-1.42-.35-.26-.47q-4.49-8.29-10.31-9.69A13.75,13.75,0,0,0,238,642l2.31-9.59q5.85,1.74,10.74,13l2.54-10.57-3.35-7.53Z"/><path class="cls-2" d="M231.2,676.09,224,672.24l12.79-24.06q2.56,4.58,1.71,12.06l-.34,3.06c-.41,3.6,0,5.74,1.3,6.42s2.85-.23,4.3-3q2.29-4.32-.65-5.9a3.43,3.43,0,0,0-2.83,0,9.56,9.56,0,0,1,.79-2.12,10.9,10.9,0,0,1,3.15-3.89,2.82,2.82,0,0,1,3.1-.45c1.33.7,1.83,2.45,1.51,5.23a26.73,26.73,0,0,1-3.19,9.27,26.36,26.36,0,0,1-5.87,7.77q-3.18,2.71-5.18,1.65a2.69,2.69,0,0,1-1.32-2.43,31.83,31.83,0,0,1,.77-6.51l.68-3.61q1-5.5,1.38-9.15l-6.51,12.24Z"/><path class="cls-2" d="M225.19,696.75A18.59,18.59,0,0,1,216.1,702c-3.4.8-5.95.35-7.66-1.33s-2.09-4.2-1.24-7.65a21.64,21.64,0,0,1,14.51-14.95c3.33-.89,5.81-.52,7.47,1.12s2.23,4.36,1.42,7.92A19.89,19.89,0,0,1,225.19,696.75Zm-2.13-2.34c2.42-2.46,2.14-5.14-.81-8q-4-3.95-7.55-.35t.63,7.54Q219.7,697.84,223.06,694.41Z"/><path class="cls-2" d="M206,712.21a4.2,4.2,0,0,1-3.32.66,4.32,4.32,0,0,1-2.81-1.94,4.15,4.15,0,0,1-.61-3.27,4.32,4.32,0,0,1,1.92-2.8,4.38,4.38,0,0,1,6,1.24,4.33,4.33,0,0,1,.66,3.32A4.22,4.22,0,0,1,206,712.21Zm-1.16-1.73a2.25,2.25,0,0,0,1-1.49,2.21,2.21,0,0,0-.32-1.74,2.24,2.24,0,0,0-1.46-1,2.17,2.17,0,0,0-1.72.32,2.37,2.37,0,0,0-1,1.49,2.18,2.18,0,0,0,.31,1.74,2.28,2.28,0,0,0,1.49,1A2.24,2.24,0,0,0,204.88,710.48Z"/><path class="cls-2" d="M166,718.8c-.5-1.42-.45-2.22.39-3a7.72,7.72,0,0,1,2.48-1.36,27.29,27.29,0,0,0-6.58.41,17.48,17.48,0,0,0,1.15-3.86,20.84,20.84,0,0,1,8.36.88l-1.46-4.17,3.8-1.33,1.48,4.25a20.68,20.68,0,0,1,6.24-6.3,15.57,15.57,0,0,0,3.2,2.18c-3.79,2.11-6.83,5-8.13,7.86l.52,1.49,3.89-1.36-1.4-4,3.74-1.31,2.44,7-7.64,2.67.27.78,9.08-3.19,1,3-1.21.42a23,23,0,0,0,2.69,1.33,14.17,14.17,0,0,0-1.7,6.15l-3.42.17.06-.76-4.78,1.68-.86-2.46a11.91,11.91,0,0,0-1,4.88l-3.47.3c0-.28,0-.58,0-.85l-6.31,2.21-.91-2.61,3.63-1.27a10.78,10.78,0,0,1-1.68-.68l1.35-2.34-3.72,1.3-1.05-3,8.46-3-.27-.78-7.32,2.57Zm7-3.55a13,13,0,0,0-2.77-.63,18.4,18.4,0,0,0,1.71,1.78c-.7.17-1.73.56-2,.65s-.39.21-.3.48l.34,1,3.7-1.3Zm2.67,11.92a17.45,17.45,0,0,1,.71-2.25l-.35-1-4,1.4a20,20,0,0,0,2.84,1.15l-.76,1.26Zm4.15-4.59.42,1.18-2.28.8c.74.25,1.56.51,2.1.64-.1.18-.18.34-.26.5l2.61-.91a12.16,12.16,0,0,1-1.75-.82l1.07-2.06Zm6,1a21.38,21.38,0,0,1,1.15-3.52l-4.3,1.5a21.64,21.64,0,0,0,2.68,1.23l-.65,1.18Z"/><path class="cls-2" d="M139,733.6a17.51,17.51,0,0,1,3.52-6.58,16.56,16.56,0,0,0-4.5-1,16.54,16.54,0,0,0,.39-3.81c.31.05.63.12.94.19l-.85-9,3.36-.32.13,1.29,4.38-.41-.13-1.4,3.21-.31.85,9.06c.38-.17.72-.33,1.09-.47a19.44,19.44,0,0,0,.87,2.1l-.62-6.54,6.55-.62-.15-1.61,2.73-.26,1.85,19.6-9.28.89-.44-4.69a16.73,16.73,0,0,0-3.8,6.84l-3.17-.62a18.08,18.08,0,0,1,.6-1.8l-4.69.44-.63.17ZM141.58,723a19.92,19.92,0,0,1,3.51,1.54,23.61,23.61,0,0,1,3.19-2.18Zm.72-5.41.2,2.09,4.38-.42-.2-2.09Zm5.18,13.12a11,11,0,0,0-2-1.95A13.31,13.31,0,0,0,143.7,731Zm4.93-6.23a21.17,21.17,0,0,0-4.36,2.19,14.75,14.75,0,0,1,1.59,1.67,16.36,16.36,0,0,1,1.48-1.76,22.26,22.26,0,0,0,1.7,2.18Zm2.14-5.19.44,4.69.87-.09-.45-4.68Zm1.1,11.71.87-.08-.41-4.35-.87.08Zm2.85-12.08-.92.09.44,4.68.92-.09Zm1.11,11.7-.42-4.35-.91.09.41,4.35Z"/><path class="cls-2" d="M120.82,728.26a27.54,27.54,0,0,1,1.88-2.85l-1.87-.27-.37,2.53-3.6-.53.37-2.53-5.24-.76,1.07-7.39c.21-1.47.54-2.3,1.5-2.71a6.21,6.21,0,0,1,3.32-.08,12.06,12.06,0,0,0,.43,3.32c-.5-.1-1.16-.2-1.39-.23s-.31,0-.35.26l-.58,4.05,1.72.25,1.55-10.71,3.6.52-1.55,10.71,1.54.23,1.1-7.6,3.42.5-.93,6.43a15.67,15.67,0,0,1,1.73-1.24,17,17,0,0,0,1.5,2.85l1.54-10.63,3.5.51-1.78,12.3c.48-.45,1-.87,1.45-1.26a26.08,26.08,0,0,0,1.36,4.15,26.49,26.49,0,0,0-6.83,8.39l-3.31-1.59c.42-.77.87-1.56,1.37-2.31l-4-.59a31.2,31.2,0,0,0-1.51,3.64L118,734.44c.39-1,.79-2,1.24-3l-8.81-1.29.48-3.34Zm8.71-4.29a17,17,0,0,0-4.81,4.86l2.91.43-.43,3c.47-.71.93-1.42,1.44-2.1Z"/><path class="cls-2" d="M86.52,714.13s.4-.93.59-1.33c2.92-6.62,4.26-9.26,5.33-9.9a2.9,2.9,0,0,1,2.42-.4,15,15,0,0,1,2.91,1,8.2,8.2,0,0,0-.41,2.24L103,708l.58-1.45,3.16,1.27-3.36,8.33-9.6-3.87,2.34-5.79-.57-.23a.84.84,0,0,0-.9,0c-.54.31-1.43,2-3.34,6.27l12.45,5c1.76-3.21,4.11-6.43,6.93-8.21a13.88,13.88,0,0,0,1.9,3.3c-4.06,2.58-6.44,7.94-8,11.69l-2.38,5.9-17.31-7,2.92-7.24,13.92,5.61c.15-.38.33-.77.53-1.19ZM100,726l.6-1.5-10.42-4.2-.61,1.49ZM98,710.89l3.23,1.3.61-1.51-3.23-1.3Z"/><path class="cls-2" d="M68.39,709.06,50.51,693l1-1.09H52q9.43,0,13.43-4.5a13.38,13.38,0,0,0,1.6-2.47l7.34,6.59q-4.32,4.34-16.58,3.27l8.08,7.25,8.2.63Z"/><path class="cls-2" d="M40.37,662.65l6.84-4.52,15,22.73q-5.24.06-11.39-4.25l-2.52-1.76c-3-2.08-5.05-2.71-6.25-1.92s-1.17,2.62.53,5.19,3.62,3.47,5.48,2.24a3.45,3.45,0,0,0,1.33-2.5,9.13,9.13,0,0,1,1.48,1.71,10.75,10.75,0,0,1,1.9,4.63,2.86,2.86,0,0,1-1.08,2.94q-1.89,1.25-5.32-1.17a26.72,26.72,0,0,1-6.6-7.23,26.27,26.27,0,0,1-4-8.88c-.57-2.72-.23-4.51,1-5.34a2.66,2.66,0,0,1,2.76,0,32.23,32.23,0,0,1,5.33,3.78l2.84,2.32q4.34,3.52,7.37,5.59l-7.62-11.57Z"/><path class="cls-2" d="M25.11,647.53A18.63,18.63,0,0,1,24.82,637q1.38-5,4.83-6.11t7.3,2.55a21.61,21.61,0,0,1,6.18,19.9c-.8,3.34-2.32,5.36-4.55,6s-4.89-.12-7.62-2.52A19.78,19.78,0,0,1,25.11,647.53Zm3.07-.76q1.5,5,7.45,3.12,5.38-1.65,3.91-6.48t-6.91-3Q26.76,642.17,28.18,646.77Z"/><path class="cls-2" d="M20.72,623.32a4.28,4.28,0,0,1,1-3.24,4.34,4.34,0,0,1,3.05-1.54,4.12,4.12,0,0,1,3.16,1,4.34,4.34,0,0,1,1.53,3,4.38,4.38,0,0,1-4,4.7,4.29,4.29,0,0,1-3.22-1A4.24,4.24,0,0,1,20.72,623.32Zm2.08-.19a2.26,2.26,0,0,0,.82,1.58,2.18,2.18,0,0,0,1.67.55,2.27,2.27,0,0,0,1.56-.82,2.21,2.21,0,0,0,.55-1.67,2.4,2.4,0,0,0-.81-1.62,2.15,2.15,0,0,0-1.67-.56,2.37,2.37,0,0,0-2.12,2.54Z"/><path class="cls-2" d="M34.23,584.93c1.49.25,2.17.67,2.42,1.78a7.74,7.74,0,0,1,0,2.84,27.79,27.79,0,0,0,2.82-6,17.46,17.46,0,0,0,2.83,2.87,21,21,0,0,1-4.81,6.91l4.36.74-.67,4-4.43-.75a20.9,20.9,0,0,1,2.5,8.52,16,16,0,0,0-3.45,1.76c0-4.35-1.08-8.4-3-10.93l-1.56-.27-.68,4.08,4.2.71-.66,3.92-7.27-1.23,1.34-8-.81-.14-1.6,9.52-3.12-.53.21-1.26a24.44,24.44,0,0,0-2.46,1.72,14.2,14.2,0,0,0-4.56-4.46l1.5-3.08.63.42.84-5,2.57.43a11.66,11.66,0,0,0-3.78-3.26L19,587l.73.43,1.11-6.6,2.72.46L23,585.11A11.2,11.2,0,0,1,24.37,584l1.4,2.32.65-3.9,3.13.52-1.49,8.86.8.14,1.29-7.67ZM20.48,600.05A21.5,21.5,0,0,1,23,602.76l.76-4.51A24.73,24.73,0,0,0,21.39,600l-.71-1.14Zm3.79-4.83L23,595l.39-2.38c-.58.53-1.19,1.13-1.57,1.53l-.31-.46-.46,2.73a11.58,11.58,0,0,1,1.56-1.14l1.28,1.93Zm-2-5.86a17.25,17.25,0,0,1,1.63,1.71l1.06.18.7-4.2A19.18,19.18,0,0,0,23.27,589l-.75-1.27ZM34,592.77a13.33,13.33,0,0,0,1.88-2.13,15.44,15.44,0,0,0-2.38.64,20.73,20.73,0,0,0,.39-2.07c.06-.3,0-.44-.27-.49l-1-.17-.65,3.87Z"/><path class="cls-2" d="M34.25,554.14a17.45,17.45,0,0,1,4.07,6.25,16.43,16.43,0,0,0,3.07-3.46,16.64,16.64,0,0,0,3.16,2.16c-.2.26-.41.5-.63.74l8.31,3.57-1.34,3.12L49.7,566,48,570.06l1.29.56-1.27,3L39.63,570c0,.4-.06.79-.12,1.18a17.84,17.84,0,0,0-2.26-.24l6,2.59-2.6,6.06,1.48.64-1.08,2.52L23,575l3.68-8.59L31,568.26a16.5,16.5,0,0,0-4.16-6.63l2.07-2.49c.44.44.88.91,1.29,1.39l1.86-4.34.16-.63ZM27,573.72l4,1.72.36-.85-4-1.72Zm1.56-3.66-.34.8,4,1.72.34-.8Zm7.27.27a20.78,20.78,0,0,0,.18-4.89,14.1,14.1,0,0,1-2.23.6,16,16,0,0,1,.83,2.15,20.31,20.31,0,0,0-2.72.45ZM32.76,563a11,11,0,0,0,2.65-.79,13.54,13.54,0,0,0-1.15-2.7Zm5,15.35.36-.85-4.32-1.85-.36.85Zm1.56-3.65-4.31-1.86-.35.8L39,575.5Zm3-13.2a20.07,20.07,0,0,1-3,2.36,23.36,23.36,0,0,1,.38,3.85Zm4.39,3.23-1.92-.82L43.08,568l1.92.83Z"/><path class="cls-2" d="M47.71,540.7a29.2,29.2,0,0,1,1.58,3l1.14-1.52-2-1.54,2.19-2.91,2,1.54,3.19-4.24,6,4.49c1.18.89,1.75,1.58,1.64,2.62a6.09,6.09,0,0,1-1.52,3,11.91,11.91,0,0,0-3.11-1.22c.33-.39.73-.93.87-1.11s.12-.29-.06-.43l-3.27-2.46-1,1.39,8.63,6.51-2.19,2.91-8.62-6.51-1,1.25,6.12,4.62-2.08,2.77L51,548.94a15.53,15.53,0,0,1,.26,2.12A16.72,16.72,0,0,0,48,551l8.56,6.46-2.13,2.83-9.91-7.47c.16.63.29,1.27.41,1.88a24.89,24.89,0,0,0-4.29-.8,26.07,26.07,0,0,0-4.06-10l3-2.15c.47.74.94,1.51,1.36,2.31l2.45-3.26A27.93,27.93,0,0,0,41,537.71l2.71-2.49c.71.83,1.4,1.66,2,2.53l5.36-7.14,2.69,2Zm-.45,9.73a16.86,16.86,0,0,0-1.93-6.57l-1.78,2.36-2.38-1.8c.4.74.79,1.49,1.14,2.27Z"/><path class="cls-2" d="M76.61,517.42l.88,1.16c4.39,5.75,6.05,8.19,6.1,9.43a3,3,0,0,1-.82,2.32,15.52,15.52,0,0,1-2.29,2.07A8.11,8.11,0,0,0,78.72,531L74,534.79,75,536l-2.64,2.16-5.66-6.95,8-6.55,3.93,4.83.48-.39a.84.84,0,0,0,.39-.82c0-.62-1-2.19-3.87-5.93l-10.4,8.5c2,3.08,3.63,6.69,3.83,10a13.43,13.43,0,0,0-3.8.08c-.31-4.8-3.84-9.47-6.39-12.59l-4-4.94L69.36,511.6l4.92,6-11.63,9.5c.26.32.51.68.78,1.05ZM59.7,523.48l1,1.25,8.71-7.12-1-1.24Zm14.18,5.6-2.7,2.21,1,1.27,2.69-2.21Z"/><path class="cls-2" d="M53.74,602l45.94-2.18.13,2.8-.74.73q-12.85,12.74-12.35,24.22a26.44,26.44,0,0,0,1.1,5.53L69,634q.1-11.73,18.3-26.8l-20.76,1-12,10.21Z"/><path class="cls-2" d="M162.84,613.79l.69,15.71-52,2.47q5-8.7,18.17-14.64l5.38-2.44q9.47-4.27,9.29-8.45-.21-4.61-9-4.19-9.34.45-9.07,6.85.1,2.45,2.79,4.64a17,17,0,0,1-4.25.78,20.58,20.58,0,0,1-9.47-1.39c-2.42-1.1-3.68-2.66-3.76-4.67q-.19-4.34,7.15-7.63T137.05,597q11-.53,18.51,2.06t7.75,6.94q.12,2.64-2.72,4.57t-11.45,5.09l-6.6,2.43q-10,3.71-16.41,6.7l26.47-1.26Z"/><path class="cls-2" d="M205.73,593.68a35.25,35.25,0,0,1,19.59,4.44q8.7,4.95,9,11.86.3,6.75-8.22,12.39a41.28,41.28,0,0,1-39.79,2.09q-8.72-4.62-9-11.31-.31-7.08,8.33-13A37.94,37.94,0,0,1,205.73,593.68Zm-.07,6.07q-9.89.46-9.35,12.4.47,10.79,10.11,10.33,9.42-.45,8.94-11.43Q214.83,599.31,205.66,599.75Z"/><path class="cls-2" d="M115.4,544.51l45.94-2.19.13,2.8-.74.73q-12.85,12.74-12.35,24.22a26.44,26.44,0,0,0,1.1,5.53l-18.84.9q.11-11.73,18.3-26.81l-20.75,1-12.06,10.21Z"/><path class="cls-2" d="M142.14,650.07a35.4,35.4,0,0,1,19.59,4.44q8.7,4.95,9,11.86.3,6.75-8.22,12.39a38.34,38.34,0,0,1-19.75,6.18,38.22,38.22,0,0,1-20-4.08q-8.72-4.62-9-11.32-.31-7.08,8.33-13A38,38,0,0,1,142.14,650.07Zm-.07,6.07q-9.87.47-9.35,12.4.48,10.79,10.11,10.33,9.42-.45,8.94-11.43Q151.26,655.71,142.07,656.14Z"/><path class="cls-2" d="M226.43,580.19a6.07,6.07,0,0,1,4.62,1.65,6.28,6.28,0,0,1,2,4.51,6,6,0,0,1-1.67,4.52,6.29,6.29,0,0,1-4.47,2.06,6.35,6.35,0,0,1-6.55-6,6.23,6.23,0,0,1,1.65-4.62A6.11,6.11,0,0,1,226.43,580.19Zm.16,3a3.26,3.26,0,0,0-2.34,1.11,3.27,3.27,0,0,0,.19,4.7,3.16,3.16,0,0,0,2.37.89,3.45,3.45,0,0,0,2.4-1.09,3.16,3.16,0,0,0,.91-2.39,3.42,3.42,0,0,0-3.53-3.22Z"/><path class="cls-2" d="M168.67,639.19a6.07,6.07,0,0,1,4.61,1.65,6.27,6.27,0,0,1,2,4.51,6,6,0,0,1-1.68,4.52,6.27,6.27,0,0,1-4.46,2.06,6,6,0,0,1-4.51-1.66,6.13,6.13,0,0,1-2-4.37,6.29,6.29,0,0,1,1.66-4.63A6.13,6.13,0,0,1,168.67,639.19Zm.15,3a3.25,3.25,0,0,0-2.33,1.11,3.27,3.27,0,0,0,.19,4.7,3.16,3.16,0,0,0,2.37.89,3.41,3.41,0,0,0,2.39-1.09,3.11,3.11,0,0,0,.91-2.39,3.42,3.42,0,0,0-3.53-3.22Z"/></g></g></svg>