<svg xmlns="http://www.w3.org/2000/svg" viewBox="0 0 332.44 43.84"><defs><style>.cls-1{fill:#fff;}</style></defs><g id="圖層_2" data-name="圖層 2"><g id="完稿"><path class="cls-1" d="M34.67,33.24a11.36,11.36,0,0,1-4.15,4.38,10.76,10.76,0,0,1-5.72,1.61H0v-.76l.15-.08A2.92,2.92,0,0,0,1.69,37a3.52,3.52,0,0,0,.54-1.92v-30a3.9,3.9,0,0,0-.54-2A2.94,2.94,0,0,0,.15,1.77L0,1.69V.92H24.88a7.42,7.42,0,0,1,7.6,7.68,6.64,6.64,0,0,1-1.77,4.53,10.91,10.91,0,0,1-3.22,2.46,10.07,10.07,0,0,1,3.91,1.84,11.74,11.74,0,0,1,3.5,4.26,12.32,12.32,0,0,1,1.26,5.49A12.59,12.59,0,0,1,34.67,33.24ZM6,14.43H22.34a6.36,6.36,0,0,0,4.46-1.69,5.33,5.33,0,0,0,1.84-4.06A5.52,5.52,0,0,0,27,4.61,6.46,6.46,0,0,0,22.27,3H6Zm0,2.31V37H21.88a10.94,10.94,0,0,0,5.61-1.35A9.24,9.24,0,0,0,31,32.09a11.45,11.45,0,0,0,1.15-5.22,10.14,10.14,0,0,0-9.83-10.13Z"/><path class="cls-1" d="M54,38.47v.76H45.84v-.76l.15-.08a3.33,3.33,0,0,0,2.07-3.3v-30A3.23,3.23,0,0,0,46,1.77l-.15-.08V.92H54v.77l-.15.08a3.24,3.24,0,0,0-2,3.3v30a3.34,3.34,0,0,0,2,3.3Z"/><path class="cls-1" d="M64,43.84h-.3V42.38l.61-.08a.32.32,0,0,1,.23-.07l.15-.08a9.55,9.55,0,0,0,1.54-.54,8.61,8.61,0,0,0,3.57-2.88,10.2,10.2,0,0,0,1.65-4.41l.08-.62c.1-.76.18-1.5.23-2.22a9.08,9.08,0,0,0,.07-1.23c.06-.72.08-1.46.08-2.23V5a3.23,3.23,0,0,0-2-3.3l-.23-.08V.84h8.21v.77l-.23.08A3.17,3.17,0,0,0,75.7,4.3a3.75,3.75,0,0,0-.08.69V25.57a55.51,55.51,0,0,1-.38,7.37,15.67,15.67,0,0,1-1.69,5.76,5.93,5.93,0,0,1-.54.76,9.38,9.38,0,0,1-3.3,3A11.77,11.77,0,0,1,64,43.84Z"/><path class="cls-1" d="M119,37.39a21.66,21.66,0,0,1-11,2.69,22.2,22.2,0,0,1-11.21-2.69,17.19,17.19,0,0,1-7-7.22,21.23,21.23,0,0,1-2.38-10A21.8,21.8,0,0,1,89.79,10a17.58,17.58,0,0,1,7-7.29A21.83,21.83,0,0,1,108,0a21.84,21.84,0,0,1,11.18,2.73,17.38,17.38,0,0,1,7,7.25,21.43,21.43,0,0,1,2.38,10.14,21.1,21.1,0,0,1-2.38,10A18.16,18.16,0,0,1,119,37.39ZM116.93,4.3A17.49,17.49,0,0,0,99,4.3a15.61,15.61,0,0,0-5.6,6.6,21.71,21.71,0,0,0-1.92,9.22,21.69,21.69,0,0,0,1.92,9.21A15.49,15.49,0,0,0,99,35.82a17.74,17.74,0,0,0,17.89,0,15.56,15.56,0,0,0,5.6-6.49,21.69,21.69,0,0,0,1.92-9.21,21.71,21.71,0,0,0-1.92-9.22A15.68,15.68,0,0,0,116.93,4.3Z"/><path class="cls-1" d="M165,37.39a18.09,18.09,0,0,1-8.6,1.84h-.54a19.32,19.32,0,0,1-8.9-2.15,12.34,12.34,0,0,1-5.68-6,15.89,15.89,0,0,1-.85-5.75V5.07a3.23,3.23,0,0,0-2.07-3.3l-.15-.08V.92h8.13v.77l-.15.08a3.24,3.24,0,0,0-2,3.3V25.64a15.55,15.55,0,0,0,.31,3.61,9.76,9.76,0,0,0,4.92,6,16.39,16.39,0,0,0,8.82,1.61c3.38-.2,5.92-1.1,7.61-2.68a11,11,0,0,0,3.37-6.76,24.4,24.4,0,0,0,.08-3.69V5.07a3,3,0,0,0-.77-1.92,4.9,4.9,0,0,0-1.76-1.38l-.23-.08V.92h7.83v.77l-.16.08a4.76,4.76,0,0,0-1.84,1.38,3,3,0,0,0-.77,1.92V24.65a16.88,16.88,0,0,1-1.72,7.71A11,11,0,0,1,165,37.39Z"/><path class="cls-1" d="M208.83,39.23h-8.14v-.76l.16-.08a3.33,3.33,0,0,0,2.07-3.3V3.22H188.18a2.62,2.62,0,0,0-1.35.39,4.6,4.6,0,0,0-1.15,1,4.89,4.89,0,0,0-.8,1.26L184.8,6H184l.46-5.07H225L225.49,6h-.77l-.07-.16A4.89,4.89,0,0,0,223.26,4a3,3,0,0,0-1.91-.77H206.68V35.09a3.34,3.34,0,0,0,2,3.3l.15.08Z"/><path class="cls-1" d="M243.3,38.47v.76h-8.14v-.76l.16-.08a3.33,3.33,0,0,0,2.07-3.3v-30a3.23,3.23,0,0,0-2.07-3.3l-.16-.08V.92h8.14v.77l-.15.08a3.24,3.24,0,0,0-2,3.3v30a3.34,3.34,0,0,0,2,3.3Z"/><path class="cls-1" d="M285,34.17l-.46,5.06H253v-.76l.15-.08a3.33,3.33,0,0,0,2.07-3.3v-30a3.23,3.23,0,0,0-2.07-3.3L253,1.69V.92h31.55L285,6h-.77l-.07-.16A5,5,0,0,0,282.77,4a3,3,0,0,0-1.92-.77H259v11.9h10.91a3,3,0,0,0,1.92-.76,5.07,5.07,0,0,0,1.38-1.77l.08-.23h.69v7.83h-.69l-.08-.15a4.89,4.89,0,0,0-1.38-1.84,3,3,0,0,0-1.92-.77H259V36.85h21.89a3,3,0,0,0,1.92-.76,5.26,5.26,0,0,0,1.38-1.77l.07-.15Z"/><path class="cls-1" d="M302.73,39.23h-8.14v-.76l.15-.08a3.33,3.33,0,0,0,2.08-3.3v-30a3.23,3.23,0,0,0-2.08-3.3l-.15-.08V.92h19.73a12.89,12.89,0,0,1,6.45,1.69,12.2,12.2,0,0,1,4.68,4.61,12.29,12.29,0,0,1,1.69,6.29,12,12,0,0,1-1.69,6.3,12.26,12.26,0,0,1-4.68,4.61,13,13,0,0,1-6.45,1.68l-4.84.08c1.44,1.33,2.49,2.28,3.15,2.84l.85.69c1.38,1.18,2.45,2.06,3.22,2.65s1.77,1.28,3,2.07a13.76,13.76,0,0,0,3.68,1.73,13.6,13.6,0,0,0,3.84.54,12.55,12.55,0,0,0,4.15-.85l1.07-.46-.69.93a7.53,7.53,0,0,1-.85.84,10.31,10.31,0,0,1-2.22,1.23,8.87,8.87,0,0,1-3.69.77,12.08,12.08,0,0,1-4.26-.85,21.27,21.27,0,0,1-4-2,34.12,34.12,0,0,1-4.14-3.18c-1.59-1.38-2.82-2.5-3.69-3.34s-2.1-2.06-3.69-3.65q-3.23-3.37-4.6-4.61V35.09a3.33,3.33,0,0,0,2,3.3l.16.08ZM300.58,3.3V18.12q2.46,2.14,6.22,5.6l4.37-.07a21.48,21.48,0,0,0,2.69-.16,12.23,12.23,0,0,0,3.84-1.15,9.87,9.87,0,0,0,4.07-3.68,10.19,10.19,0,0,0,1.3-4.84v-.61a10.12,10.12,0,0,0-1.3-4.84,9.34,9.34,0,0,0-4.07-3.61,14.42,14.42,0,0,0-3.84-1.23,4.44,4.44,0,0,0-.84-.08,1.14,1.14,0,0,0-.46-.07,5.38,5.38,0,0,0-.85-.08Z"/></g></g></svg>