<svg id="圖層_1" data-name="圖層 1" xmlns="http://www.w3.org/2000/svg" viewBox="0 0 467.06 150.18"><defs><style>.cls-1{fill:#fff;}</style></defs><path class="cls-1" d="M184.88,152.8c0-.13-.07-.26-.35-.33L180,150.38c.14,14.94-4.12,17.42-22.16,23.49l.28.85c15.8-3.92,24.19-6.27,25-20.49l1.46-1C184.81,153.06,184.88,152.93,184.88,152.8Zm144.3-34.28c.42,1.69.7,2,1.82,2s2.3-1.37,2.3-3.13c0-2.54-5.38-5.48-8.87-6.79l-.49.72C327,113.76,328.62,116.17,329.18,118.52Zm-180.67,45c.79,0,1.48-.86,1.47-2.29a4.28,4.28,0,0,0-.12-1.09c-.38-1.63-2.89-3.85-6.93-6.05l-.32.54a12,12,0,0,1,4.56,7.56A1.44,1.44,0,0,0,148.51,163.56Zm51.33,6.26c-2-1.56-7.13-3.91-15.66-6.58l-.34.91c7.4,3.52,12.37,7,13.76,9.07.63.91,1.47,1.76,2.1,1.76.84,0,1.4-1.11,1.4-2.35A3.55,3.55,0,0,0,199.84,169.82Zm150.8-42,.84.39c3-3.91,5.1-5.22,7.89-5.67.49-.07.77-.13.77-.33s-.16-.33-.53-.6c-.1-.07-.63-.64-2.63-.64H312.69v1.44h40.39ZM202.49,139c-1.19-.46-1.61-1.31-1.54-5L200,134c.14,6.19.07,6.65-3.14,6.65-2.24,0-2.17-.52-2.17-2v-6.72h6.74c.7,0,1-.07,1-.33a1.53,1.53,0,0,0-.56-.85l-.18-.19h-9.59v-6.2H199c.69,0,1-.06,1-.33s-.28-.52-.7-.91l-.13-.13h-7v-6.2c1.47-1,1.68-1.17,1.68-1.37s-.28-.32-.77-.52l-4.05-1.3a63.49,63.49,0,0,1,.27,6.46v2.93h-4.33c.49-.91,1-1.83,1.47-2.8.42-.79.7-.92,1.67-1.24.35-.13.49-.2.49-.33s-.14-.26-.42-.39l-3.49-1.5a41.35,41.35,0,0,1-3.84,11.15l.83.39c1-1.5,1.82-2.73,2.52-3.91h5.1v6.2h-2.61c-1.6,0-3.35-.13-5.1-.26l2,2.35a10.93,10.93,0,0,1,2.87-.59c-.56,6.13-2.24,8.61-9.3,13.11l.49.52c8.53-3.91,10.55-6.39,11.53-13.76h2.85v7.7c0,2.34.77,3.06,5.52,3.06,3.49,0,4.26-.32,5.31-2.09.28-.45,1-.78,1-1S203,139.16,202.49,139Zm17.8,21.36a104,104,0,0,0,17-16.24v18.59c0,2.87-.07,5-.21,7.7v1c0,.91.07,1.3.49,1.3.07,0,3-1.11,3-2.22V140c5.1-6.65,10.48-14.68,12.51-19h30.54c.49,0,.7-.07.7-.2s-.14-.32-.56-.72l-.57-.55-57.51,0c-2.31,0-3.77-.06-5.17-.19l1.75,2c.84-.33,2.16-.39,5-.39h21c-5.32,12.59-18.32,28.5-28.52,38.68Zm-57.07-32.25c.63,0,.9-.13.9-.39s-.21-.53-.62-1l-.16-.16c.69-.91,1.23-1.65,1.69-2.32h5.81v6.26h-4.07c-1.61,0-3.35-.13-5.1-.26l2,2.35a9.66,9.66,0,0,1,3.84-.72c-.05,1.76-.21,9.38-5.65,12.29l.48.65c5.94-3.82,6.71-3.87,7.69-12.94h3.29v5.93c0,1.77-.35,2.29-2,3.4l2,1.89a1,1,0,0,0,.63.32c.21,0,.42-.19.63-.65.49-1,1.75-2.54,7.27-7.5l-.56-.65-5.24,3.46v-6.2h4.21c.49,0,.77-.07.77-.26s-.21-.39-.56-.79l-.32-.32H173.7v-6.26h6.22c.42,0,.7-.07.7-.27s-.21-.45-.56-.84l-.26-.29-6.1,0v-6.14a10.91,10.91,0,0,0,1.61-1.37c0-.19-.21-.26-.63-.45l-4.05-1.7c.13,2.41.21,4.5.21,7.31v2.35h-4.9c.49-.79,1.05-1.63,1.68-2.74a1.86,1.86,0,0,1,1.54-1.05c.35-.13.56-.19.56-.32s-.21-.27-.56-.46l-3-1.57a61.11,61.11,0,0,1-4,9.82l-10.66.1c1.05-2,2-3.78,2.86-5.41a3.15,3.15,0,0,1,2.52-2c.7-.2,1-.4,1-.59s-.21-.39-.7-.65l-4.4-2.55c-5.17,12.33-9.37,21.33-14.82,30.27l.91.52a153.94,153.94,0,0,0,11.81-18.13Zm140.24,1.33c1.47,0,4.68-1.11,5.24-7l.14-1.44a34,34,0,0,0,0-3.78h-1.19c-.56,4.63-2.58,7.17-5,8.61a2.6,2.6,0,0,0-1.61,2.09C301,128.83,302.41,129.41,303.46,129.41Zm-135.63,34c0,.65.07,1,.49,1a3.4,3.4,0,0,0,1.26-.39c1.33-.52,1.39-.71,1.39-1.17-.06-1-.06-1.89-.06-3.13V147.38h0v-1.94l-3.15-2.17a35.81,35.81,0,0,1,.21,3.92v10.5C168,158.6,167.83,162.65,167.83,163.37Zm-2.94-2.4a53.05,53.05,0,0,1-7,2.91c1.76-2.38,4-5.84,4.68-6.61a2.42,2.42,0,0,1,1.64-.92c.2,0,.31-.09.31-.17s-.09-.14-.26-.25l-3.13-1.8c-1.16,2.37-3.11,7.1-4.63,10.19-.64.19-1.26.37-1.87.53-.06-1-.06-1.91-.06-3.16v-2.85h0v-8.06h9.3c.7,0,1-.07,1-.33s-.21-.52-.7-1l-.13-.13h-9.52V138.77h8.32c.77,0,1.12-.06,1.12-.32s-.28-.59-.84-1.11H151.33c-1.61,0-3.36-.13-5.1-.26l2,2.41a14.72,14.72,0,0,1,3.29-.65v10.5h-3.76c-1.6,0-3.35-.13-5.1-.26l2,2.42a15.11,15.11,0,0,1,4.68-.72h2.22v4.8h0v4.06c0,1-.15,5.2-.15,6v0a45.25,45.25,0,0,1-9.37,1c.67,3.88,1.4,4.64,1.4,4.64a1.1,1.1,0,0,0,1.86-.55c.32-1.18.71-1.18.71-1.18a58.06,58.06,0,0,0,19.3-7.26Zm30.87-13.52c.42-.26.63-.46.63-.72s-.21-.46-.63-.78l-22,.06v1.37h18v11.48c0,.66-.07,3.59-.07,4.18s.07.78.42.78c.14,0,2.79-.65,2.79-1.5v-.19a40.07,40.07,0,0,1-.21-4.7V148Zm78.21,22c-.21-2.94-.35-6.2-.35-9.53V143.59l.95-1.14c.68-.63.88-1.76-1.09-1.76H244v1.43h26.33v29.1c0,.78.14,1.11.49,1.11a4.45,4.45,0,0,0,1.47-.66c1.4-.78,1.68-1.11,1.68-1.89Zm-30-3.14h22.65V164.9H244Zm95.12-20.8c3.5-1.7,5.95-2.94,7.76-4,2.8-1.5,4.62-2,5.94-2,1,0,1.05,0,1.05-.19s-.14-.33-.42-.59l-3.63-3.13a159.9,159.9,0,0,1-16.5,11.28,20.79,20.79,0,0,0-8.94-10.37c1.95-1.43,3.91-3,5.8-4.63h20.41c.49,0,.7-.06.7-.19a.94.94,0,0,0-.35-.53l-.68-.68-6.8,0H314.08c-1.61,0-3.35-.14-5.1-.27l2,2.42a15.06,15.06,0,0,1,4.68-.72h9.85c-6.29,6-15.58,11.35-26.07,15.85l.42.85a79.46,79.46,0,0,0,23.56-11.41c1,.91,1.82,1.76,2.65,2.6-5.31,6.46-15.37,13.83-26.63,19.51l.56.91c10.91-4.24,18.87-9.46,28.17-17.74a17.2,17.2,0,0,1,2.45,4.56c-5.25,6.46-16.29,15.2-30.62,21.53l.49.92a83.34,83.34,0,0,0,31-18.6,44,44,0,0,1,.42,6.59c0,6.72-.28,9.85-5.25,9.85a27.21,27.21,0,0,1-7.41-1.37l-.21,1c5.46,2,6.64,2.87,7.27,5a.59.59,0,0,0,.56.53c.21,0,7.76-2.22,8.18-9.92.07-1.37.14-2.8.14-4.11a32.72,32.72,0,0,0-1.4-10.31l4.06-1.95c3.77,9.52,10.06,14.87,17.33,19.31a.54.54,0,0,0,.42.13c.14,0,.28-.13.42-.26,1.05-1.64,2.79-2.42,6.92-2.48V162A28.46,28.46,0,0,1,339.1,145.53Z" transform="translate(-16.86 -24.8)"/><path class="cls-1" d="M65.56,71.51a15.94,15.94,0,0,1-5.82,6.15,15.18,15.18,0,0,1-8,2.26H16.86V78.84l.22-.11a4,4,0,0,0,2.15-1.94A4.86,4.86,0,0,0,20,74.1V31.92a5.38,5.38,0,0,0-.76-2.8,4.13,4.13,0,0,0-2.15-1.84l-.22-.11V26.09h35A10.44,10.44,0,0,1,62.49,36.88,9.38,9.38,0,0,1,60,43.25a15.57,15.57,0,0,1-4.53,3.45A14.21,14.21,0,0,1,61,49.29a16.66,16.66,0,0,1,4.91,6A17.31,17.31,0,0,1,67.66,63,17.63,17.63,0,0,1,65.56,71.51ZM25.27,45.08h23a9,9,0,0,0,6.26-2.37A7.49,7.49,0,0,0,57.09,37a7.75,7.75,0,0,0-2.26-5.72Q52.57,29,48.14,29H25.27Zm0,3.24V76.79H47.6a15.4,15.4,0,0,0,7.88-1.89,13,13,0,0,0,5-5,16.17,16.17,0,0,0,1.62-7.34,14,14,0,0,0-6.8-12.13,13.9,13.9,0,0,0-7-2.1Z" transform="translate(-16.86 -24.8)"/><path class="cls-1" d="M92.69,78.84v1.08H81.26V78.84l.21-.11a4.65,4.65,0,0,0,2.91-4.63V31.92a4.54,4.54,0,0,0-2.91-4.64l-.21-.11V26.09H92.69v1.08l-.22.11a4.55,4.55,0,0,0-2.8,4.64V74.1a4.66,4.66,0,0,0,2.8,4.63Z" transform="translate(-16.86 -24.8)"/><path class="cls-1" d="M106.71,86.39h-.43v-2l.86-.1a.41.41,0,0,1,.33-.11l.21-.11a15.54,15.54,0,0,0,2.16-.76,12.18,12.18,0,0,0,5-4,14.21,14.21,0,0,0,2.32-6.2l.11-.87c.15-1.07.25-2.12.33-3.12a12.81,12.81,0,0,0,.1-1.73c.07-1,.11-2,.11-3.13V31.81a4.56,4.56,0,0,0-2.8-4.64l-.33-.1V26h11.54v1.08l-.32.1a4.47,4.47,0,0,0-2.7,3.67,5.15,5.15,0,0,0-.1,1V60.72a78.67,78.67,0,0,1-.54,10.36,21.74,21.74,0,0,1-2.38,8.09,8.69,8.69,0,0,1-.75,1.07,13.11,13.11,0,0,1-4.64,4.21A16.6,16.6,0,0,1,106.71,86.39Z" transform="translate(-16.86 -24.8)"/><path class="cls-1" d="M184.11,77.33a30.4,30.4,0,0,1-15.48,3.78,31.07,31.07,0,0,1-15.75-3.78,24.14,24.14,0,0,1-9.82-10.14,29.88,29.88,0,0,1-3.34-14.13A30.53,30.53,0,0,1,143,38.88a24.75,24.75,0,0,1,9.87-10.25,34.07,34.07,0,0,1,31.39,0,24.52,24.52,0,0,1,9.81,10.19,30.16,30.16,0,0,1,3.35,14.24,29.65,29.65,0,0,1-3.35,14A25.53,25.53,0,0,1,184.11,77.33Zm-3-46.49a22.48,22.48,0,0,0-33,9.28,30.4,30.4,0,0,0-2.7,12.94,30.45,30.45,0,0,0,2.7,13A21.78,21.78,0,0,0,156,75.12a24.94,24.94,0,0,0,25.14,0A21.78,21.78,0,0,0,189,66a30.45,30.45,0,0,0,2.7-13A30.4,30.4,0,0,0,189,40.12,22,22,0,0,0,181.14,30.84Z" transform="translate(-16.86 -24.8)"/><path class="cls-1" d="M248.66,77.33a25.38,25.38,0,0,1-12.08,2.59h-.75a27.18,27.18,0,0,1-12.52-3,17.37,17.37,0,0,1-8-8.41,22.68,22.68,0,0,1-1.18-8.09V31.92a4.55,4.55,0,0,0-2.92-4.64l-.21-.11V26.09h11.43v1.08l-.21.11a4.55,4.55,0,0,0-2.81,4.64V60.83a21.41,21.41,0,0,0,.43,5.07,13.71,13.71,0,0,0,6.9,8.41,23.23,23.23,0,0,0,12.41,2.27q7.13-.43,10.68-3.78a15.41,15.41,0,0,0,4.75-9.49,36.82,36.82,0,0,0,.1-5.18V31.92a4.2,4.2,0,0,0-1.08-2.7,7.05,7.05,0,0,0-2.48-1.94l-.32-.11V26.09h11v1.08l-.21.11A6.84,6.84,0,0,0,259,29.22a4.2,4.2,0,0,0-1.08,2.7V59.43a23.68,23.68,0,0,1-2.43,10.84A15.53,15.53,0,0,1,248.66,77.33Z" transform="translate(-16.86 -24.8)"/><path class="cls-1" d="M310.25,79.92H298.82V78.84l.22-.11A4.65,4.65,0,0,0,302,74.1V29.33H281.24a3.67,3.67,0,0,0-1.89.54,6.55,6.55,0,0,0-1.62,1.35A7.06,7.06,0,0,0,276.6,33l-.11.21h-1.08l.65-7.12H333l.65,7.12h-1.08l-.1-.21a6.86,6.86,0,0,0-2-2.59,4.15,4.15,0,0,0-2.69-1.08H307.23V74.1A4.66,4.66,0,0,0,310,78.73l.21.11Z" transform="translate(-16.86 -24.8)"/><path class="cls-1" d="M358.69,78.84v1.08H347.25V78.84l.22-.11a4.65,4.65,0,0,0,2.91-4.63V31.92a4.54,4.54,0,0,0-2.91-4.64l-.22-.11V26.09h11.44v1.08l-.22.11a4.55,4.55,0,0,0-2.8,4.64V74.1a4.66,4.66,0,0,0,2.8,4.63Z" transform="translate(-16.86 -24.8)"/><path class="cls-1" d="M417.26,72.8l-.65,7.12H372.28V78.84l.21-.11a4.65,4.65,0,0,0,2.91-4.63V31.92a4.54,4.54,0,0,0-2.91-4.64l-.21-.11V26.09h44.33l.65,7.12h-1.08l-.11-.21a6.84,6.84,0,0,0-1.94-2.59,4.16,4.16,0,0,0-2.7-1.08H380.69V46.05H396A4.15,4.15,0,0,0,398.7,45a7.08,7.08,0,0,0,1.95-2.48l.1-.32h1v11h-1l-.1-.22a7,7,0,0,0-1.95-2.59A4.19,4.19,0,0,0,396,49.29H380.69V76.58h30.74a4.16,4.16,0,0,0,2.7-1.08A7.14,7.14,0,0,0,416.07,73l.11-.22Z" transform="translate(-16.86 -24.8)"/><path class="cls-1" d="M442.17,79.92H430.74V78.84l.22-.11a4.65,4.65,0,0,0,2.91-4.63V31.92A4.54,4.54,0,0,0,431,27.28l-.22-.11V26.09h27.72a18.14,18.14,0,0,1,9.06,2.38,17.19,17.19,0,0,1,6.58,6.47,17.37,17.37,0,0,1,2.38,8.84,17,17,0,0,1-2.38,8.85,17.19,17.19,0,0,1-6.58,6.47,18.14,18.14,0,0,1-9.06,2.38l-6.79.1q3,2.81,4.42,4l1.18,1q2.93,2.49,4.54,3.73c1.07.82,2.48,1.79,4.2,2.91a20.17,20.17,0,0,0,5.18,2.43,19.28,19.28,0,0,0,5.39.75,17.6,17.6,0,0,0,5.83-1.19l1.51-.64-1,1.29A9.48,9.48,0,0,1,481.76,77a14.74,14.74,0,0,1-3.13,1.72,12.34,12.34,0,0,1-5.17,1.08,17.15,17.15,0,0,1-6-1.18,30.72,30.72,0,0,1-5.66-2.75A49.83,49.83,0,0,1,456,71.4c-2.23-1.94-4-3.51-5.18-4.69s-2.95-2.9-5.17-5.13q-4.53-4.74-6.48-6.47v19A4.66,4.66,0,0,0,442,78.73l.21.11Zm-3-50.48V50.26q3.45,3,8.74,7.87L454,58a33.1,33.1,0,0,0,3.77-.21,17.59,17.59,0,0,0,5.4-1.62A13.88,13.88,0,0,0,468.93,51a14.38,14.38,0,0,0,1.83-6.79v-.87a14.38,14.38,0,0,0-1.83-6.79,13.2,13.2,0,0,0-5.72-5.07,19.78,19.78,0,0,0-5.4-1.73,6.15,6.15,0,0,0-1.18-.11,1.58,1.58,0,0,0-.65-.1,7.52,7.52,0,0,0-1.19-.11Z" transform="translate(-16.86 -24.8)"/></svg>