<svg xmlns="http://www.w3.org/2000/svg" xmlns:xlink="http://www.w3.org/1999/xlink" viewBox="0 0 1046.57 94.27"><defs><style>.cls-1{isolation:isolate;}.cls-2{fill:#a08a4c;}.cls-3{fill:#c2a16c;}.cls-15,.cls-4{fill:#fff;}.cls-13,.cls-4,.cls-5,.cls-6{fill-rule:evenodd;}.cls-5{fill:#d93833;}.cls-6{fill:#bc261a;}.cls-7{fill:url(#linear-gradient);}.cls-8{fill:url(#linear-gradient-2);}.cls-9{fill:url(#linear-gradient-3);}.cls-10{fill:url(#linear-gradient-4);}.cls-11{fill:url(#linear-gradient-5);}.cls-12{fill:url(#linear-gradient-6);}.cls-13{fill:#c02d28;}.cls-14{fill:#d32e25;}.cls-16{fill:url(#linear-gradient-7);}.cls-17,.cls-24,.cls-27{mix-blend-mode:multiply;}.cls-17{fill:url(#linear-gradient-8);}.cls-18{fill:url(#linear-gradient-9);}.cls-19{fill:url(#linear-gradient-10);}.cls-20{fill:url(#linear-gradient-11);}.cls-21{fill:url(#linear-gradient-12);}.cls-22{fill:url(#linear-gradient-13);}.cls-23{fill:url(#linear-gradient-14);}.cls-24{fill:url(#linear-gradient-15);}.cls-25{fill:url(#linear-gradient-16);}.cls-26{fill:url(#linear-gradient-17);}.cls-27{fill:url(#linear-gradient-18);}.cls-28{fill:url(#linear-gradient-19);}</style><linearGradient id="linear-gradient" x1="2911.28" y1="-1650.7" x2="2862.38" y2="-1605.72" gradientTransform="translate(-1175.56 2813.47) rotate(-26.88)" gradientUnits="userSpaceOnUse"><stop offset="0" stop-color="#fff"/><stop offset="1" stop-color="#da3731"/></linearGradient><linearGradient id="linear-gradient-2" x1="2955.13" y1="-1668.15" x2="2909.28" y2="-1625.97" xlink:href="#linear-gradient"/><linearGradient id="linear-gradient-3" x1="2941.82" y1="-1682.61" x2="2895.97" y2="-1640.43" xlink:href="#linear-gradient"/><linearGradient id="linear-gradient-4" x1="2935.02" y1="-1690" x2="2889.18" y2="-1647.82" xlink:href="#linear-gradient"/><linearGradient id="linear-gradient-5" x1="2949.87" y1="-1673.86" x2="2904.02" y2="-1631.69" xlink:href="#linear-gradient"/><linearGradient id="linear-gradient-6" x1="2929.67" y1="-1695.82" x2="2883.82" y2="-1653.64" xlink:href="#linear-gradient"/><linearGradient id="linear-gradient-7" x1="422.62" y1="8.91" x2="454.96" y2="8.91" gradientUnits="userSpaceOnUse"><stop offset="0.1" stop-color="#a28a3e"/><stop offset="0.16" stop-color="#d6cba9"/><stop offset="0.21" stop-color="#ad9753"/><stop offset="0.25" stop-color="#d1c59e"/><stop offset="0.3" stop-color="#987e28"/><stop offset="0.7" stop-color="#987e28"/><stop offset="0.75" stop-color="#e0d8bf"/><stop offset="0.8" stop-color="#987e28"/><stop offset="0.86" stop-color="#d6cba9"/><stop offset="0.92" stop-color="#987e28"/><stop offset="1" stop-color="#b7a469"/></linearGradient><linearGradient id="linear-gradient-8" x1="422.62" y1="8.91" x2="454.96" y2="8.91" gradientUnits="userSpaceOnUse"><stop offset="0" stop-color="#fff"/><stop offset="0.1" stop-color="#bab9bb"/><stop offset="0.2" stop-color="#fff"/><stop offset="0.3" stop-color="#8c8b8d"/><stop offset="0.7" stop-color="#5f5d60"/><stop offset="0.85" stop-color="#fff"/><stop offset="0.92" stop-color="#5f5d60"/><stop offset="1" stop-color="#fff"/></linearGradient><linearGradient id="linear-gradient-9" x1="450.83" y1="90.58" x2="418.4" y2="1.5" gradientUnits="userSpaceOnUse"><stop offset="0.1" stop-color="#987e28"/><stop offset="0.13" stop-color="#ac9752"/><stop offset="0.18" stop-color="#c3b382"/><stop offset="0.2" stop-color="#ccbe94"/><stop offset="0.21" stop-color="#c8b98b"/><stop offset="0.24" stop-color="#bcaa73"/><stop offset="0.27" stop-color="#a9934b"/><stop offset="0.29" stop-color="#987e28"/><stop offset="0.4" stop-color="#987e28"/><stop offset="0.45" stop-color="#b29e5e"/><stop offset="0.52" stop-color="#e0d8bf"/><stop offset="0.52" stop-color="#ded6bc"/><stop offset="0.54" stop-color="#ccbf94"/><stop offset="0.56" stop-color="#c0b07c"/><stop offset="0.57" stop-color="#bcab73"/><stop offset="0.65" stop-color="#987e28"/><stop offset="0.77" stop-color="#a28a3e"/><stop offset="0.82" stop-color="#987e28"/><stop offset="0.91" stop-color="#c6b889"/><stop offset="0.97" stop-color="#987e28"/></linearGradient><linearGradient id="linear-gradient-10" x1="449.07" y1="85.86" x2="428.43" y2="29.16" gradientUnits="userSpaceOnUse"><stop offset="0" stop-color="#26333e"/><stop offset="0.01" stop-color="#4c5760"/><stop offset="0.07" stop-color="#000f1c"/><stop offset="0.17" stop-color="#000f1c"/><stop offset="0.2" stop-color="#0d1b28"/><stop offset="0.22" stop-color="#192733"/><stop offset="0.23" stop-color="#333f4a"/><stop offset="0.25" stop-color="#59636c"/><stop offset="0.28" stop-color="#2d3944"/><stop offset="0.28" stop-color="#192733"/><stop offset="0.3" stop-color="#101e2b"/><stop offset="0.3" stop-color="#0d1b28"/><stop offset="0.33" stop-color="#000f1c"/><stop offset="0.44" stop-color="#000f1c"/><stop offset="0.57" stop-color="#000f1c"/><stop offset="0.67" stop-color="#333f4a"/><stop offset="0.68" stop-color="#3c4752"/><stop offset="0.69" stop-color="#545e67"/><stop offset="0.7" stop-color="#737b82"/><stop offset="0.73" stop-color="#39454f"/><stop offset="0.75" stop-color="#303d47"/><stop offset="0.78" stop-color="#182631"/><stop offset="0.8" stop-color="#000f1c"/><stop offset="0.82" stop-color="#000f1c"/><stop offset="0.94" stop-color="#000f1c"/><stop offset="0.99" stop-color="#4c5760"/><stop offset="1" stop-color="#192733"/></linearGradient><linearGradient id="linear-gradient-11" x1="419.36" y1="80.62" x2="458.14" y2="34.4" gradientUnits="userSpaceOnUse"><stop offset="0" stop-color="#fff" stop-opacity="0.5"/><stop offset="0.08" stop-color="#000f1c" stop-opacity="0"/><stop offset="0.92" stop-color="#000f1c" stop-opacity="0"/><stop offset="0.94" stop-color="#404b55" stop-opacity="0.19"/><stop offset="0.97" stop-color="#a6acb0" stop-opacity="0.49"/><stop offset="0.99" stop-color="#e6e8e9" stop-opacity="0.68"/><stop offset="1" stop-color="#fff" stop-opacity="0.75"/></linearGradient><linearGradient id="linear-gradient-12" x1="438.93" y1="69.27" x2="431.1" y2="47.75" gradientUnits="userSpaceOnUse"><stop offset="0" stop-color="#333f4a"/><stop offset="0.28" stop-color="#2d3944"/><stop offset="0.35" stop-color="#404b55"/><stop offset="0.4" stop-color="#666f77"/><stop offset="0.45" stop-color="#333f4a"/><stop offset="0.49" stop-color="#26333e"/><stop offset="0.7" stop-color="#333f4a"/><stop offset="0.83" stop-color="#404b55"/><stop offset="0.92" stop-color="#535d66"/><stop offset="1" stop-color="#737b82"/></linearGradient><linearGradient id="linear-gradient-13" x1="2517.57" y1="10089.01" x2="2503.64" y2="10094.07" gradientTransform="translate(10527.89 -2452.45) rotate(90)" gradientUnits="userSpaceOnUse"><stop offset="0.07" stop-color="#000f1c"/><stop offset="0.21" stop-color="#192733"/><stop offset="0.31" stop-color="#0d1b28"/><stop offset="0.39" stop-color="#4c5760"/><stop offset="0.43" stop-color="#26333e"/><stop offset="0.5" stop-color="#000f1c"/><stop offset="0.75" stop-color="#000f1c"/><stop offset="0.9" stop-color="#192733"/></linearGradient><linearGradient id="linear-gradient-14" x1="435.67" y1="63.82" x2="435.67" y2="51.21" gradientUnits="userSpaceOnUse"><stop offset="0" stop-color="#404b55"/><stop offset="0.06" stop-color="#000f1c"/><stop offset="0.1" stop-color="#000f1c"/><stop offset="0.21" stop-color="#8c9399"/><stop offset="0.3" stop-color="#000f1c"/><stop offset="0.4" stop-color="#000f1c"/><stop offset="0.55" stop-color="#4c5760"/><stop offset="0.65" stop-color="#000f1c"/><stop offset="0.75" stop-color="#000f1c"/><stop offset="0.9" stop-color="#8c9399"/><stop offset="0.96" stop-color="#333f4a"/></linearGradient><linearGradient id="linear-gradient-15" x1="450.83" y1="90.58" x2="418.4" y2="1.5" gradientUnits="userSpaceOnUse"><stop offset="0" stop-color="#1a171b"/><stop offset="0.05" stop-color="#4b494c" stop-opacity="0.79"/><stop offset="0.12" stop-color="#d6d5d6" stop-opacity="0.18"/><stop offset="0.14" stop-color="#fff" stop-opacity="0"/><stop offset="0.66" stop-color="#fff" stop-opacity="0"/><stop offset="0.67" stop-color="#e8e8e8" stop-opacity="0.13"/><stop offset="0.69" stop-color="#979698" stop-opacity="0.6"/><stop offset="0.71" stop-color="#656466" stop-opacity="0.89"/><stop offset="0.72" stop-color="#535154"/><stop offset="0.73" stop-color="#5c5a5d"/><stop offset="0.75" stop-color="#747275"/><stop offset="0.77" stop-color="#9b9a9b"/><stop offset="0.78" stop-color="#afaeaf"/><stop offset="0.85" stop-color="#fff" stop-opacity="0"/></linearGradient><linearGradient id="linear-gradient-16" x1="417.34" y1="36.07" x2="460.24" y2="78.96" gradientUnits="userSpaceOnUse"><stop offset="0" stop-color="#d6cba9"/><stop offset="0.4" stop-color="#b7a469"/></linearGradient><linearGradient id="linear-gradient-17" x1="442.49" y1="11.22" x2="437.07" y2="-3.67" gradientUnits="userSpaceOnUse"><stop offset="0" stop-color="#bcab73"/><stop offset="0.06" stop-color="#b29e5e"/><stop offset="0.19" stop-color="#bcab73"/><stop offset="0.42" stop-color="#c6b889"/><stop offset="0.5" stop-color="#d7cdad"/><stop offset="0.55" stop-color="#e0d8bf"/><stop offset="0.59" stop-color="#d7cdad"/><stop offset="0.65" stop-color="#c6b889"/><stop offset="0.94" stop-color="#b29e5e"/><stop offset="1" stop-color="#bcab73"/></linearGradient><linearGradient id="linear-gradient-18" x1="441.19" y1="7.26" x2="437.68" y2="-2.38" gradientUnits="userSpaceOnUse"><stop offset="0" stop-color="#fafafa"/><stop offset="0.15" stop-color="#bab9bb"/><stop offset="0.32" stop-color="#5f5d60"/><stop offset="0.33" stop-color="#5a585b"/><stop offset="0.38" stop-color="#484649"/><stop offset="0.39" stop-color="#5a585b"/><stop offset="0.42" stop-color="#89888a"/><stop offset="0.43" stop-color="#a3a2a4"/><stop offset="0.62" stop-color="#c6c5c6"/><stop offset="1" stop-color="#fdfdfd"/></linearGradient><linearGradient id="linear-gradient-19" x1="447.3" y1="80.9" x2="430.28" y2="34.13" gradientUnits="userSpaceOnUse"><stop offset="0" stop-color="#999fa4"/><stop offset="0.03" stop-color="#000f1c"/><stop offset="0.09" stop-color="#192733"/><stop offset="0.11" stop-color="#80878e"/><stop offset="0.15" stop-color="#000f1c"/><stop offset="0.22" stop-color="#000f1c"/><stop offset="0.25" stop-color="#333f4a"/><stop offset="0.33" stop-color="#404b55"/><stop offset="0.42" stop-color="#0d1b28"/><stop offset="0.5" stop-color="#333f4a"/><stop offset="0.61" stop-color="#80878e"/><stop offset="0.75" stop-color="#80878e"/><stop offset="0.82" stop-color="#0d1b28"/><stop offset="0.88" stop-color="#0d1b28"/><stop offset="0.92" stop-color="#4c5760"/><stop offset="0.95" stop-color="#192733"/><stop offset="0.99" stop-color="#000f1c"/><stop offset="1" stop-color="#80878e"/></linearGradient></defs><g class="cls-1"><g id="圖層_2" data-name="圖層 2"><g id="完稿"><path class="cls-2" d="M168.2,23V36.42c6.1-4.74,13.64-5.16,20.23-5.06,32.43.48,52.34,14,52.34,14V23Z"/><path class="cls-2" d="M237.8,53.59s-19.21-5.8-34.39-.63c-4.23,1.44-9.29,4.83-8.16,8.19,0,0-5.41-.46-7.49-2.31a4,4,0,0,1,.23-6.28c3.88-3.05,7.46-4.12,17.12-4.68s17.12-.38,32.37,2.43c0,0-22.54-6-40.1-3.71-17,2.25-13.56,9.82-13.56,9.82s-5.91-.09-6.31-4.19,3.81-7.3,10.48-8.75,29.5-2.65,49.65,4.5c0,0-24.41-9.16-45.61-7.35-16.18,1.38-17.84,7.81-17.52,10.26a4.68,4.68,0,0,1-4.15-5.08c.32-4.09,3.42-7.31,13.89-8.67s35,.16,53.95,9c0,0-19.51-12.32-50.82-11.16-7.38.28-16.78,1.69-19.18,8.75V65.56c0,7.47,7,27.37,28.1,27.37,0,0,3.41-27.22,4-30.34C201.06,58.7,210.48,49.14,237.8,53.59Z"/><path class="cls-2" d="M212.24,67.72,198.46,92.93h42.31V67.19A104.43,104.43,0,0,1,212.24,67.72Z"/><path class="cls-3" d="M116.5,51.47c-6.42.35-8.11-1.43-20.41-7.67S60.27,30.7,37.28,34.9c0,0,7.65,2.41,11,7.92s4.34,9.88,7.3,12.33a6.68,6.68,0,0,0,7.56.94c2.34-1.42,3.22-4.44.56-9.08-1.7-2.94-5.17-4.45-9.09-4.28,0,0,3.56-4.09,8.46-2.94s8.11,4,9.54,8.56c0,0,10.16.89,11.49,7.84s-.89,11-7.57,13.19c0,0,7.93,3.65,16.31-5.47,0,0,1.51,6.89-7,13.13,0,0,30.89-13.54,36.21-28.51C122.05,48.53,119.61,51.29,116.5,51.47Z"/><path class="cls-3" d="M45.75,66.79c-1.7-3.74-1-9.44-.72-12.29s-1-9.36-3.38-12.75S34,35.87,34,35.87C20.35,39,8,48.44,4.58,51.47s-5.71,7-4,9.89,6.77,3,10.69,2.55,3.92,0,6.51,1.19S26.94,70.54,32,72.59c18,7.28,31.19,8.5,31.19,8.5C52.34,77.93,47.44,70.54,45.75,66.79Z"/><path class="cls-3" d="M326.28,23.06a34.58,34.58,0,1,0,34.58,34.57A34.58,34.58,0,0,0,326.28,23.06Zm10.41,50.69H315.2L308.55,53.3l17.39-12.63,17.4,12.63Z"/><path class="cls-4" d="M970.14,17.47h76.43v76.8H970.14Z"/><path class="cls-5" d="M1017.51,35.91V46.78h10.87V35.91ZM1003.4,36V75.93h10.9V36ZM988.69,50.1V75.9h10.9V50.1Zm-1.11-8.68A6.41,6.41,0,1,0,994,35a6.43,6.43,0,0,0-6.39,6.4Zm30,8.64V61h10.9V50.06ZM973.91,21H1043V90.42H973.91Z"/><polygon class="cls-6" points="897 92.76 919.56 92.76 919.56 21.64 863.02 21.64 863.02 77.69 877.34 37.09 897 92.76"/><path class="cls-6" d="M877.52,60.81c-2,0-3.21,1.64-4.24,3.57-1.36,2.53-4.62,9.71-5.12,15.57-.4,4.72.51,7.5,3,9.2a11,11,0,0,0,6.36,1.58c1,0,4.83-.14,6.91-2.2a10.13,10.13,0,0,0,2.38-8.93c-.67-3.81-2.09-10.18-5.39-15.53C880.21,62.11,879.18,60.81,877.52,60.81Z"/><path class="cls-7" d="M687.07,75.8a1.92,1.92,0,0,1,.54.48c1.1,1.53-.5,4.57-3.58,6.8a10.83,10.83,0,0,1-4.94,2.11,2.76,2.76,0,0,1-2.63-.82,2,2,0,0,1-.34-1.34l0,0A60.36,60.36,0,0,1,670,85.71l-1.67.81a3,3,0,0,0,.32.65A7,7,0,0,0,672,89.49a36.68,36.68,0,0,0,7.53-3.36,56.07,56.07,0,0,0,14.3-12.4,8,8,0,0,0-.93-3.93A43.5,43.5,0,0,1,687.07,75.8ZM635.26,38.91a4.16,4.16,0,0,1,.15-2.37,8.55,8.55,0,0,1,.88-1.81,34.72,34.72,0,0,0-3.73,5.33,13,13,0,0,0-1.2,2.29l-.07.15h0a7.48,7.48,0,0,0-.37,1.27q.64-.88,1.41-1.8A39.08,39.08,0,0,1,635.26,38.91ZM696.49,49.5a13.48,13.48,0,0,0-3.09-2.25l-.24-.12A25.81,25.81,0,0,1,689.42,54a10.45,10.45,0,0,1,1.63.65,10.22,10.22,0,0,1,4,3.79l0,0a16.38,16.38,0,0,0,2.5-7.42c0-.17-.07-.35-.11-.52C697.14,50.17,696.82,49.83,696.49,49.5ZM676.26,71.24a30.23,30.23,0,0,0-3,2.51,20.07,20.07,0,0,0-3.95,5.1l1-.46c.89-.41,1.78-.84,2.68-1.3.51-.25,1-.52,1.51-.79A65.07,65.07,0,0,0,688,66.9a13.19,13.19,0,0,0-5.66.93A24.61,24.61,0,0,0,676.26,71.24Zm-40.52,3.89a13.63,13.63,0,0,1-1.88-.91,8.32,8.32,0,0,0,0,1.23,1.49,1.49,0,0,0,0,.21v.07s0,.08,0,.11a.59.59,0,0,0,0,.14c0,.29.11.57.18.85a8.47,8.47,0,0,0,.49,1.3l.08.15A8,8,0,0,0,637,81l0,0a13.18,13.18,0,0,0,5.27,2.35,13.46,13.46,0,0,1-1.48-4.9c0-.24,0-.47-.06-.71,0-.46,0-.92,0-1.39A20.66,20.66,0,0,1,635.74,75.13ZM648.48,78a19,19,0,0,0-.55,5.92,42.16,42.16,0,0,0,8.65-.95,15.53,15.53,0,0,1,1.23-8.13l.15-.34a52.3,52.3,0,0,1-9,1.84C648.76,77,648.61,77.5,648.48,78Zm.28-1.64.17,0v0ZM637.05,49.77a60,60,0,0,1,7.44-8.58,16.12,16.12,0,0,1-5.55.28,6,6,0,0,1-2.12-.68,56.59,56.59,0,0,0-5,6.83,4.64,4.64,0,0,0,.5.49A8.39,8.39,0,0,0,637.05,49.77Zm25.71-27A3.86,3.86,0,0,1,664.62,24a3,3,0,0,1,.31.48,3.09,3.09,0,0,1,.27.81,4.9,4.9,0,0,1-.54,2.9,34.8,34.8,0,0,1,9-2.12,3.51,3.51,0,0,0-.24-.61,4.61,4.61,0,0,0-2.28-2.08,4.4,4.4,0,0,0-.5-.21c-.29-.07-.57-.13-.86-.18A33.46,33.46,0,0,0,666,22.5c-.62-.06-1.24-.09-1.86-.11-1,0-2.07,0-3.11,0a8.73,8.73,0,0,1,1.59.33ZM630.47,65.4A25.74,25.74,0,0,1,632.42,58a8.72,8.72,0,0,1-1.23-.58,6.71,6.71,0,0,1-2.78-2.78l0-.05-.09-.2a3.85,3.85,0,0,1-.19-.47c0,.4-.07.81-.1,1.21,0,.24,0,.47,0,.71a34.63,34.63,0,0,0,.37,7,7.22,7.22,0,0,0,.57.93A8.33,8.33,0,0,0,630.47,65.4Zm58-27.4c0,.45,0,.9-.09,1.36a12.42,12.42,0,0,0,.3-1.28,9.07,9.07,0,0,0-.23-4.48c-.07-.21-.15-.42-.23-.63l-.9-.88c-.3-.29-.61-.57-.92-.85-.21-.09-.41-.17-.62-.24a16.37,16.37,0,0,0-3.73-.84,7.26,7.26,0,0,1,0,1.54,13.84,13.84,0,0,1-2.09,5.47,21.25,21.25,0,0,1,6,.16A15.89,15.89,0,0,1,688.44,38ZM650.5,43.49A65.09,65.09,0,0,0,645,49a52.05,52.05,0,0,0,11.64-4.32c.52-.26,1-.53,1.51-.8,6.65-3.61,11.76-8.07,14.15-12q.3-.48.54-1a41,41,0,0,0-6.27,2.12,56.08,56.08,0,0,0-10.79,6.17A64.07,64.07,0,0,0,650.5,43.49ZM647.81,57.9c-1.26.3-2.49.55-3.67.74l-1.34.19a30.2,30.2,0,0,1-4.84.23,37.58,37.58,0,0,0-3.37,8.38c.38.12.77.22,1.17.31q.84.18,1.74.3a28.11,28.11,0,0,0,4.76.21A41.64,41.64,0,0,1,647.81,57.9Zm19,3a61.78,61.78,0,0,0,14-10.08,38,38,0,0,0,4.45-5.17q-.9,0-1.83.18c-6.45.91-13.49,4.64-19.42,9.48-1,.8-2,1.64-2.88,2.5a48.58,48.58,0,0,0-7.23,8.45,67.15,67.15,0,0,0,11.42-4.57C665.77,61.42,666.27,61.16,666.77,60.89ZM651.86,31.47c3-1.8,4.93-3.93,4.81-5.29a1,1,0,0,0-.12-.42.9.9,0,0,0-.25-.33,58.27,58.27,0,0,0-5.7,3.26l-.12.06h0a63.39,63.39,0,0,0-7.24,5.52,15.61,15.61,0,0,0,7.11-2C650.88,32,651.38,31.76,651.86,31.47Z"/><path class="cls-8" d="M679.57,86.13A36.68,36.68,0,0,1,672,89.49c-5.53,1.7-9.76,1.28-11.57.29a5,5,0,0,1-.66-.44,6.7,6.7,0,0,1-.87-.83,35.69,35.69,0,0,1-9.1.09c.22.28.44.54.68.79a11.83,11.83,0,0,0,1.62,1.45,35,35,0,0,0,26.77-2.06c.53-.27,1.06-.55,1.57-.84a34.91,34.91,0,0,0,13.38-13.67c0-.18,0-.36,0-.54A56.07,56.07,0,0,1,679.57,86.13Z"/><path class="cls-9" d="M689.15,34l-1-1c.08.21.16.42.23.63a9.07,9.07,0,0,1,.23,4.48,12.42,12.42,0,0,1-.3,1.28,14.71,14.71,0,0,1-.77,2.12q-.35.78-.78,1.59a27.57,27.57,0,0,1-1.61,2.57,38,38,0,0,1-4.45,5.17,61.78,61.78,0,0,1-14,10.08c-.5.27-1,.53-1.52.79a67.15,67.15,0,0,1-11.42,4.57,47.56,47.56,0,0,1-11.57,2,28.11,28.11,0,0,1-4.76-.21q-.9-.12-1.74-.3c-.4-.09-.79-.19-1.17-.31a11.87,11.87,0,0,1-4.12-2,8.33,8.33,0,0,1-1.56-1.64,7.22,7.22,0,0,1-.57-.93c.12.77.26,1.54.44,2.31A34.59,34.59,0,0,0,631.06,72c.14.16.29.31.44.46a11.06,11.06,0,0,0,2.3,1.77l.06,0a13.63,13.63,0,0,0,1.88.91,20.66,20.66,0,0,0,5,1.25,34.28,34.28,0,0,0,8,0l.18-.05v0a52.3,52.3,0,0,0,9-1.84c.49-.14,1-.3,1.49-.46a68,68,0,0,0,10-4.12c.51-.26,1-.52,1.52-.79,8-4.31,14.44-9.74,18.45-15.18a25.81,25.81,0,0,0,3.74-6.86c.15-.44.28-.87.39-1.3.05-.17.09-.34.13-.51.05-.56.09-1.11.1-1.65a18.81,18.81,0,0,0-.07-2c-.06-.59-.14-1.15-.25-1.7A34.75,34.75,0,0,0,689.15,34Z"/><path class="cls-10" d="M681.36,27.78c-.07-.13-.14-.26-.22-.38q-.95-.57-1.92-1.08a36.07,36.07,0,0,0-7.71-2.91h-.42a4.61,4.61,0,0,1,2.28,2.08,3.51,3.51,0,0,1,.24.61,4.39,4.39,0,0,1,.19,1,7.42,7.42,0,0,1-.95,3.87q-.24.48-.54,1c-2.39,3.94-7.5,8.4-14.15,12-.49.27-1,.54-1.51.8A52.05,52.05,0,0,1,645,49a26.66,26.66,0,0,1-8,.74h0a8.39,8.39,0,0,1-4.76-1.66,4.64,4.64,0,0,1-.5-.49,4.08,4.08,0,0,1-.52-.78,4.68,4.68,0,0,1-.33-3.08,7.48,7.48,0,0,1,.37-1.27h0c-.31.66-.6,1.33-.87,2A35.42,35.42,0,0,0,628.11,54a3.85,3.85,0,0,0,.19.47l.09.2,0,.05a6.71,6.71,0,0,0,2.78,2.78,8.72,8.72,0,0,0,1.23.58,16.67,16.67,0,0,0,5.54,1,30.2,30.2,0,0,0,4.84-.23l1.34-.19c1.18-.19,2.41-.44,3.67-.74a61.73,61.73,0,0,0,13-4.91l1.51-.79a56.93,56.93,0,0,0,12.93-9.35c.32-.33.64-.65.94-1a29,29,0,0,0,3.66-4.71A13.84,13.84,0,0,0,682,31.7a7.26,7.26,0,0,0,0-1.54,6.22,6.22,0,0,0-.64-2.34A.05.05,0,0,0,681.36,27.78Z"/><path class="cls-11" d="M676.12,83c.5-.25,1-.51,1.48-.78a55.8,55.8,0,0,0,9.47-6.45,43.5,43.5,0,0,0,5.87-6,28.21,28.21,0,0,0,5-9,35.31,35.31,0,0,0-.43-9.72,16.38,16.38,0,0,1-2.5,7.42l0,0-.09.25A38.46,38.46,0,0,1,688,66.9a65.07,65.07,0,0,1-13.44,9.4c-.49.27-1,.54-1.51.79-.9.46-1.79.89-2.68,1.3l-1,.46A64.79,64.79,0,0,1,656.58,83a42.16,42.16,0,0,1-8.65.95,25.26,25.26,0,0,1-5.64-.58A13.18,13.18,0,0,1,637,81l0,0,.06.07a34.75,34.75,0,0,0,5.27,4.74c.73.53,1.48,1,2.25,1.52a24,24,0,0,0,2.4.74,27.77,27.77,0,0,0,2.88.53,35.69,35.69,0,0,0,9.1-.09,49.57,49.57,0,0,0,9.33-2.19c.58-.19,1.16-.4,1.74-.61h0a59.39,59.39,0,0,0,6.08-2.66Z"/><path class="cls-12" d="M641.77,30.86a15.16,15.16,0,0,1,2.35-3,35.07,35.07,0,0,0-7.83,6.83,8.55,8.55,0,0,0-.88,1.81,4.16,4.16,0,0,0-.15,2.37,3,3,0,0,0,.21.54,2.72,2.72,0,0,0,.49.69,3.35,3.35,0,0,0,.86.65,6,6,0,0,0,2.12.68,16.12,16.12,0,0,0,5.55-.28,34.79,34.79,0,0,0,8.79-3.14c.51-.26,1-.53,1.51-.8,4.72-2.66,8.27-5.92,9.73-8.74l.14-.29a4.9,4.9,0,0,0,.54-2.9,3.09,3.09,0,0,0-.27-.81,3,3,0,0,0-.31-.48,3.86,3.86,0,0,0-1.86-1.23l-.14-.05a8.73,8.73,0,0,0-1.59-.33,37.62,37.62,0,0,0-3.95.46c-9.37,2.29-13.56,5.85-15.31,8a2.68,2.68,0,0,0-.36,2.52c-.27-.6,0-1.41.67-2.31a16.83,16.83,0,0,1,5.54-4.19c.52-.26,1-.5,1.55-.72a14.55,14.55,0,0,1,5.1-1.26,2.87,2.87,0,0,1,2,.53.9.9,0,0,1,.25.33,1,1,0,0,1,.12.42c.12,1.36-1.82,3.49-4.81,5.29-.48.29-1,.56-1.5.83a15.61,15.61,0,0,1-7.11,2,3,3,0,0,1-1.37-.37,1.41,1.41,0,0,1-.18-.14,1.13,1.13,0,0,1-.28-.34.43.43,0,0,0,0,0"/><path class="cls-13" d="M584.25,54.8A36.75,36.75,0,1,1,547.5,18.05,36.78,36.78,0,0,1,584.25,54.8Z"/><path class="cls-4" d="M561.06,32.05,542.83,50.28l9.19,9,9-9c1.46,1.31,2.91,2.92,4.52,4.52C558.87,61.65,547.49,73,547.49,73L529.27,54.8l27.27-27.27-9-9.19L511,54.8,547.5,91.11,583.81,54.8Z"/><rect class="cls-14" x="742.9" y="20.62" width="71.17" height="71.17"/><path class="cls-15" d="M772,53.87V52A5,5,0,0,1,777,47h.71a5,5,0,0,1,5,4.95v1.89H787V52a9.33,9.33,0,0,0-9.31-9.31H777A9.33,9.33,0,0,0,767.65,52v1.89Z"/><path class="cls-15" d="M782.62,58v2.38a5,5,0,0,1-5,4.95H777a5,5,0,0,1-5-4.95V58h-4.36v2.38A9.33,9.33,0,0,0,777,69.66h.71A9.33,9.33,0,0,0,787,60.35V58Z"/><polygon points="767.65 42.67 748.56 42.67 748.56 46.33 755.92 46.33 755.92 69.66 760.15 69.66 760.15 46.33 767.65 46.33 767.65 42.67"/><path d="M790.43,43.12H801c4.32,0,7.73,2.41,7.73,7.2s-2.4,8.5-8.15,8.5h-6.26V69.25h-3.84Zm3.84,12.25h5.9c3.15,0,4.74-1.27,4.74-4.62,0-2.84-1.54-4.15-4.42-4.15h-6.22Z"/><path class="cls-16" d="M453.22,1a14.44,14.44,0,0,1-28.86,0h-1.74A16.18,16.18,0,0,0,455,1Z"/><path class="cls-17" d="M453.22,1a14.44,14.44,0,0,1-28.86,0h-1.74A16.18,16.18,0,0,0,455,1Z"/><path class="cls-18" d="M444,22.72V15.4A16.23,16.23,0,0,0,455.05,0H444.69a5.9,5.9,0,1,1-11.8,0H422.53a16.23,16.23,0,0,0,11.05,15.4v7.32a35.18,35.18,0,1,0,10.42,0Zm-5.21,59.62a24.89,24.89,0,0,1-24.27-19.68h8.85a16.24,16.24,0,0,0,15.42,11.12V63.42a5.91,5.91,0,0,1,0-11.81V41.26a16.22,16.22,0,0,0-15.42,11.11h-8.85a24.82,24.82,0,1,1,24.27,30Z"/><path class="cls-19" d="M438.75,27.34a30.17,30.17,0,1,0,30.17,30.17A30.16,30.16,0,0,0,438.75,27.34Zm0,55a24.89,24.89,0,0,1-24.27-19.68h8.85a16.24,16.24,0,0,0,15.42,11.12V63.42a5.91,5.91,0,0,1,0-11.81V41.26a16.22,16.22,0,0,0-15.42,11.11h-8.85a24.82,24.82,0,1,1,24.27,30Z"/><path class="cls-20" d="M438.75,27.34a30.17,30.17,0,1,0,30.17,30.17A30.16,30.16,0,0,0,438.75,27.34Zm0,55a24.89,24.89,0,0,1-24.27-19.68h8.85a16.24,16.24,0,0,0,15.42,11.12V63.42a5.91,5.91,0,0,1,0-11.81V41.26a16.22,16.22,0,0,0-15.42,11.11h-8.85a24.82,24.82,0,1,1,24.27,30Z"/><path class="cls-21" d="M438.79,69.32a11.81,11.81,0,0,1,0-23.61v4.17a7.64,7.64,0,1,0,0,15.27Z"/><path class="cls-22" d="M432.89,57.52a5.91,5.91,0,0,1,5.9-5.91V49.88a7.64,7.64,0,1,0,0,15.27V63.42A5.9,5.9,0,0,1,432.89,57.52Z"/><path class="cls-23" d="M438.79,63.36a5.85,5.85,0,0,1,0-11.69v-.46a6.31,6.31,0,0,0,0,12.61Z"/><path class="cls-24" d="M444,22.72V15.4A16.23,16.23,0,0,0,455.05,0H444.69a5.9,5.9,0,1,1-11.8,0H422.53a16.23,16.23,0,0,0,11.05,15.4v7.32a35.18,35.18,0,1,0,10.42,0Zm-5.21,59.62a24.89,24.89,0,0,1-24.27-19.68h8.85a16.24,16.24,0,0,0,15.42,11.12V63.42a5.91,5.91,0,0,1,0-11.81V41.26a16.22,16.22,0,0,0-15.42,11.11h-8.85a24.82,24.82,0,1,1,24.27,30Z"/><g id="Ring_außen" data-name="Ring außen"><path class="cls-25" d="M438.79,27.37a30.15,30.15,0,1,1-30.14,30.14,30.14,30.14,0,0,1,30.14-30.14m0-.2a30.35,30.35,0,1,0,30.34,30.34,30.37,30.37,0,0,0-30.34-30.34Z"/></g><path class="cls-26" d="M450.59,0A11.8,11.8,0,1,1,427,0h4.16a7.64,7.64,0,1,0,15.28,0Z"/><path class="cls-27" d="M438.79,5.9a5.9,5.9,0,0,1-5.9-5.9h-1.74a7.64,7.64,0,1,0,15.28,0h-1.74A5.9,5.9,0,0,1,438.79,5.9Z"/><path class="cls-28" d="M438.79,32.63a24.89,24.89,0,0,0-24.34,19.74h.68a24.22,24.22,0,1,1,0,10.29h-.68a24.88,24.88,0,1,0,24.34-30Z"/></g></g></g></svg>