<svg xmlns="http://www.w3.org/2000/svg" xmlns:xlink="http://www.w3.org/1999/xlink" viewBox="0 0 535.83 225.27"><defs><style>.cls-1{isolation:isolate;}.cls-13,.cls-2{fill:#fff;}.cls-11,.cls-2,.cls-3,.cls-4{fill-rule:evenodd;}.cls-3{fill:#d93833;}.cls-4{fill:#bc261a;}.cls-5{fill:url(#linear-gradient);}.cls-6{fill:url(#linear-gradient-2);}.cls-7{fill:url(#linear-gradient-3);}.cls-8{fill:url(#linear-gradient-4);}.cls-9{fill:url(#linear-gradient-5);}.cls-10{fill:url(#linear-gradient-6);}.cls-11{fill:#c02d28;}.cls-12{fill:#d32e25;}.cls-14{fill:#a08a4c;}.cls-15{fill:#c2a16c;}.cls-16{fill:url(#linear-gradient-7);}.cls-17,.cls-24,.cls-27{mix-blend-mode:multiply;}.cls-17{fill:url(#linear-gradient-8);}.cls-18{fill:url(#linear-gradient-9);}.cls-19{fill:url(#linear-gradient-10);}.cls-20{fill:url(#linear-gradient-11);}.cls-21{fill:url(#linear-gradient-12);}.cls-22{fill:url(#linear-gradient-13);}.cls-23{fill:url(#linear-gradient-14);}.cls-24{fill:url(#linear-gradient-15);}.cls-25{fill:url(#linear-gradient-16);}.cls-26{fill:url(#linear-gradient-17);}.cls-27{fill:url(#linear-gradient-18);}.cls-28{fill:url(#linear-gradient-19);}</style><linearGradient id="linear-gradient" x1="2408.19" y1="-1786.17" x2="2359.3" y2="-1741.18" gradientTransform="translate(-1176.31 2837.86) rotate(-26.88)" gradientUnits="userSpaceOnUse"><stop offset="0" stop-color="#fff"/><stop offset="1" stop-color="#da3731"/></linearGradient><linearGradient id="linear-gradient-2" x1="2452.05" y1="-1803.62" x2="2406.2" y2="-1761.44" xlink:href="#linear-gradient"/><linearGradient id="linear-gradient-3" x1="2438.73" y1="-1818.08" x2="2392.89" y2="-1775.9" xlink:href="#linear-gradient"/><linearGradient id="linear-gradient-4" x1="2431.94" y1="-1825.46" x2="2386.09" y2="-1783.28" xlink:href="#linear-gradient"/><linearGradient id="linear-gradient-5" x1="2446.78" y1="-1809.33" x2="2400.94" y2="-1767.15" xlink:href="#linear-gradient"/><linearGradient id="linear-gradient-6" x1="2426.58" y1="-1831.28" x2="2380.74" y2="-1789.11" xlink:href="#linear-gradient"/><linearGradient id="linear-gradient-7" x1="452.14" y1="8.91" x2="484.47" y2="8.91" gradientUnits="userSpaceOnUse"><stop offset="0.1" stop-color="#a28a3e"/><stop offset="0.16" stop-color="#d6cba9"/><stop offset="0.21" stop-color="#ad9753"/><stop offset="0.25" stop-color="#d1c59e"/><stop offset="0.3" stop-color="#987e28"/><stop offset="0.7" stop-color="#987e28"/><stop offset="0.75" stop-color="#e0d8bf"/><stop offset="0.8" stop-color="#987e28"/><stop offset="0.86" stop-color="#d6cba9"/><stop offset="0.92" stop-color="#987e28"/><stop offset="1" stop-color="#b7a469"/></linearGradient><linearGradient id="linear-gradient-8" x1="452.14" y1="8.91" x2="484.47" y2="8.91" gradientUnits="userSpaceOnUse"><stop offset="0" stop-color="#fff"/><stop offset="0.1" stop-color="#bab9bb"/><stop offset="0.2" stop-color="#fff"/><stop offset="0.3" stop-color="#8c8b8d"/><stop offset="0.7" stop-color="#5f5d60"/><stop offset="0.85" stop-color="#fff"/><stop offset="0.92" stop-color="#5f5d60"/><stop offset="1" stop-color="#fff"/></linearGradient><linearGradient id="linear-gradient-9" x1="480.34" y1="90.58" x2="447.92" y2="1.5" gradientUnits="userSpaceOnUse"><stop offset="0.1" stop-color="#987e28"/><stop offset="0.13" stop-color="#ac9752"/><stop offset="0.18" stop-color="#c3b382"/><stop offset="0.2" stop-color="#ccbe94"/><stop offset="0.21" stop-color="#c8b98b"/><stop offset="0.24" stop-color="#bcaa73"/><stop offset="0.27" stop-color="#a9934b"/><stop offset="0.29" stop-color="#987e28"/><stop offset="0.4" stop-color="#987e28"/><stop offset="0.45" stop-color="#b29e5e"/><stop offset="0.52" stop-color="#e0d8bf"/><stop offset="0.52" stop-color="#ded6bc"/><stop offset="0.54" stop-color="#ccbf94"/><stop offset="0.56" stop-color="#c0b07c"/><stop offset="0.57" stop-color="#bcab73"/><stop offset="0.65" stop-color="#987e28"/><stop offset="0.77" stop-color="#a28a3e"/><stop offset="0.82" stop-color="#987e28"/><stop offset="0.91" stop-color="#c6b889"/><stop offset="0.97" stop-color="#987e28"/></linearGradient><linearGradient id="linear-gradient-10" x1="478.59" y1="85.86" x2="457.95" y2="29.16" gradientUnits="userSpaceOnUse"><stop offset="0" stop-color="#26333e"/><stop offset="0.01" stop-color="#4c5760"/><stop offset="0.07" stop-color="#000f1c"/><stop offset="0.17" stop-color="#000f1c"/><stop offset="0.2" stop-color="#0d1b28"/><stop offset="0.22" stop-color="#192733"/><stop offset="0.23" stop-color="#333f4a"/><stop offset="0.25" stop-color="#59636c"/><stop offset="0.28" stop-color="#2d3944"/><stop offset="0.28" stop-color="#192733"/><stop offset="0.3" stop-color="#101e2b"/><stop offset="0.3" stop-color="#0d1b28"/><stop offset="0.33" stop-color="#000f1c"/><stop offset="0.44" stop-color="#000f1c"/><stop offset="0.57" stop-color="#000f1c"/><stop offset="0.67" stop-color="#333f4a"/><stop offset="0.68" stop-color="#3c4752"/><stop offset="0.69" stop-color="#545e67"/><stop offset="0.7" stop-color="#737b82"/><stop offset="0.73" stop-color="#39454f"/><stop offset="0.75" stop-color="#303d47"/><stop offset="0.78" stop-color="#182631"/><stop offset="0.8" stop-color="#000f1c"/><stop offset="0.82" stop-color="#000f1c"/><stop offset="0.94" stop-color="#000f1c"/><stop offset="0.99" stop-color="#4c5760"/><stop offset="1" stop-color="#192733"/></linearGradient><linearGradient id="linear-gradient-11" x1="448.88" y1="80.62" x2="487.66" y2="34.4" gradientUnits="userSpaceOnUse"><stop offset="0" stop-color="#fff" stop-opacity="0.5"/><stop offset="0.08" stop-color="#000f1c" stop-opacity="0"/><stop offset="0.92" stop-color="#000f1c" stop-opacity="0"/><stop offset="0.94" stop-color="#404b55" stop-opacity="0.19"/><stop offset="0.97" stop-color="#a6acb0" stop-opacity="0.49"/><stop offset="0.99" stop-color="#e6e8e9" stop-opacity="0.68"/><stop offset="1" stop-color="#fff" stop-opacity="0.75"/></linearGradient><linearGradient id="linear-gradient-12" x1="468.45" y1="69.27" x2="460.62" y2="47.75" gradientUnits="userSpaceOnUse"><stop offset="0" stop-color="#333f4a"/><stop offset="0.28" stop-color="#2d3944"/><stop offset="0.35" stop-color="#404b55"/><stop offset="0.4" stop-color="#666f77"/><stop offset="0.45" stop-color="#333f4a"/><stop offset="0.49" stop-color="#26333e"/><stop offset="0.7" stop-color="#333f4a"/><stop offset="0.83" stop-color="#404b55"/><stop offset="0.92" stop-color="#535d66"/><stop offset="1" stop-color="#737b82"/></linearGradient><linearGradient id="linear-gradient-13" x1="2554.47" y1="10123.92" x2="2540.55" y2="10128.99" gradientTransform="translate(10592.32 -2489.35) rotate(90)" gradientUnits="userSpaceOnUse"><stop offset="0.07" stop-color="#000f1c"/><stop offset="0.21" stop-color="#192733"/><stop offset="0.31" stop-color="#0d1b28"/><stop offset="0.39" stop-color="#4c5760"/><stop offset="0.43" stop-color="#26333e"/><stop offset="0.5" stop-color="#000f1c"/><stop offset="0.75" stop-color="#000f1c"/><stop offset="0.9" stop-color="#192733"/></linearGradient><linearGradient id="linear-gradient-14" x1="465.18" y1="63.82" x2="465.18" y2="51.21" gradientUnits="userSpaceOnUse"><stop offset="0" stop-color="#404b55"/><stop offset="0.06" stop-color="#000f1c"/><stop offset="0.1" stop-color="#000f1c"/><stop offset="0.21" stop-color="#8c9399"/><stop offset="0.3" stop-color="#000f1c"/><stop offset="0.4" stop-color="#000f1c"/><stop offset="0.55" stop-color="#4c5760"/><stop offset="0.65" stop-color="#000f1c"/><stop offset="0.75" stop-color="#000f1c"/><stop offset="0.9" stop-color="#8c9399"/><stop offset="0.96" stop-color="#333f4a"/></linearGradient><linearGradient id="linear-gradient-15" x1="480.34" y1="90.58" x2="447.92" y2="1.5" gradientUnits="userSpaceOnUse"><stop offset="0" stop-color="#1a171b"/><stop offset="0.05" stop-color="#4b494c" stop-opacity="0.79"/><stop offset="0.12" stop-color="#d6d5d6" stop-opacity="0.18"/><stop offset="0.14" stop-color="#fff" stop-opacity="0"/><stop offset="0.66" stop-color="#fff" stop-opacity="0"/><stop offset="0.67" stop-color="#e8e8e8" stop-opacity="0.13"/><stop offset="0.69" stop-color="#979698" stop-opacity="0.6"/><stop offset="0.71" stop-color="#656466" stop-opacity="0.89"/><stop offset="0.72" stop-color="#535154"/><stop offset="0.73" stop-color="#5c5a5d"/><stop offset="0.75" stop-color="#747275"/><stop offset="0.77" stop-color="#9b9a9b"/><stop offset="0.78" stop-color="#afaeaf"/><stop offset="0.85" stop-color="#fff" stop-opacity="0"/></linearGradient><linearGradient id="linear-gradient-16" x1="446.86" y1="36.07" x2="489.75" y2="78.96" gradientUnits="userSpaceOnUse"><stop offset="0" stop-color="#d6cba9"/><stop offset="0.4" stop-color="#b7a469"/></linearGradient><linearGradient id="linear-gradient-17" x1="472.01" y1="11.22" x2="466.59" y2="-3.67" gradientUnits="userSpaceOnUse"><stop offset="0" stop-color="#bcab73"/><stop offset="0.06" stop-color="#b29e5e"/><stop offset="0.19" stop-color="#bcab73"/><stop offset="0.42" stop-color="#c6b889"/><stop offset="0.5" stop-color="#d7cdad"/><stop offset="0.55" stop-color="#e0d8bf"/><stop offset="0.59" stop-color="#d7cdad"/><stop offset="0.65" stop-color="#c6b889"/><stop offset="0.94" stop-color="#b29e5e"/><stop offset="1" stop-color="#bcab73"/></linearGradient><linearGradient id="linear-gradient-18" x1="470.7" y1="7.26" x2="467.2" y2="-2.38" gradientUnits="userSpaceOnUse"><stop offset="0" stop-color="#fafafa"/><stop offset="0.15" stop-color="#bab9bb"/><stop offset="0.32" stop-color="#5f5d60"/><stop offset="0.33" stop-color="#5a585b"/><stop offset="0.38" stop-color="#484649"/><stop offset="0.39" stop-color="#5a585b"/><stop offset="0.42" stop-color="#89888a"/><stop offset="0.43" stop-color="#a3a2a4"/><stop offset="0.62" stop-color="#c6c5c6"/><stop offset="1" stop-color="#fdfdfd"/></linearGradient><linearGradient id="linear-gradient-19" x1="476.82" y1="80.9" x2="459.8" y2="34.13" gradientUnits="userSpaceOnUse"><stop offset="0" stop-color="#999fa4"/><stop offset="0.03" stop-color="#000f1c"/><stop offset="0.09" stop-color="#192733"/><stop offset="0.11" stop-color="#80878e"/><stop offset="0.15" stop-color="#000f1c"/><stop offset="0.22" stop-color="#000f1c"/><stop offset="0.25" stop-color="#333f4a"/><stop offset="0.33" stop-color="#404b55"/><stop offset="0.42" stop-color="#0d1b28"/><stop offset="0.5" stop-color="#333f4a"/><stop offset="0.61" stop-color="#80878e"/><stop offset="0.75" stop-color="#80878e"/><stop offset="0.82" stop-color="#0d1b28"/><stop offset="0.88" stop-color="#0d1b28"/><stop offset="0.92" stop-color="#4c5760"/><stop offset="0.95" stop-color="#192733"/><stop offset="0.99" stop-color="#000f1c"/><stop offset="1" stop-color="#80878e"/></linearGradient></defs><g class="cls-1"><g id="圖層_2" data-name="圖層 2"><g id="完稿"><path class="cls-2" d="M459.4,148.47h76.43v76.8H459.4Z"/><path class="cls-3" d="M506.77,166.91v10.87h10.86V166.91Zm-14.12.11v39.91h10.9V167ZM477.94,181.1v25.8h10.91V181.1Zm-1.1-8.68a6.41,6.41,0,1,0,6.39-6.39,6.42,6.42,0,0,0-6.39,6.39Zm30,8.65V192h10.9v-10.9ZM463.16,152h69.09v69.41H463.16Z"/><polygon class="cls-4" points="386.26 223.76 408.82 223.76 408.82 152.64 352.28 152.64 352.28 208.69 366.6 168.09 386.26 223.76"/><path class="cls-4" d="M366.77,191.81c-2,0-3.2,1.65-4.24,3.57-1.35,2.53-4.62,9.71-5.11,15.58-.4,4.71.51,7.49,3,9.19a11,11,0,0,0,6.36,1.58c1,0,4.84-.14,6.91-2.2a10.09,10.09,0,0,0,2.38-8.93c-.66-3.81-2.08-10.18-5.39-15.53C369.46,193.11,368.43,191.81,366.77,191.81Z"/><path class="cls-5" d="M176.32,206.8a1.7,1.7,0,0,1,.54.49c1.11,1.52-.5,4.56-3.58,6.79a10.78,10.78,0,0,1-4.94,2.11,2.76,2.76,0,0,1-2.63-.82,2,2,0,0,1-.34-1.34l0,0a59.24,59.24,0,0,1-6.07,2.66l-1.68.81a3.94,3.94,0,0,0,.32.65,7,7,0,0,0,3.38,2.32,35.92,35.92,0,0,0,7.53-3.36,55.74,55.74,0,0,0,14.3-12.4,8.07,8.07,0,0,0-.92-3.93A44.17,44.17,0,0,1,176.32,206.8Zm-51.8-36.89a4,4,0,0,1,.15-2.36,8.55,8.55,0,0,1,.87-1.82,36,36,0,0,0-3.73,5.33,13.34,13.34,0,0,0-1.2,2.29,1,1,0,0,1-.07.15h0a8.09,8.09,0,0,0-.37,1.26c.43-.59.91-1.19,1.42-1.8A37.22,37.22,0,0,1,124.52,169.91Zm61.22,10.6a13.18,13.18,0,0,0-3.08-2.26l-.24-.12a26.19,26.19,0,0,1-3.75,6.87,9.22,9.22,0,0,1,1.63.64,10.09,10.09,0,0,1,4,3.79l0,0a16.15,16.15,0,0,0,2.5-7.42c0-.17-.07-.35-.1-.52A11.9,11.9,0,0,0,185.74,180.51Zm-20.23,21.73a30.23,30.23,0,0,0-3,2.51,19.86,19.86,0,0,0-3.94,5.11l1-.47c.89-.41,1.79-.84,2.68-1.29l1.52-.79a65.67,65.67,0,0,0,13.43-9.41,13.32,13.32,0,0,0-5.65.93A24.66,24.66,0,0,0,165.51,202.24ZM125,206.13a14.7,14.7,0,0,1-1.87-.9,8.25,8.25,0,0,0,0,1.22l0,.21v.08a.45.45,0,0,0,0,.11s0,.09,0,.13a8,8,0,0,0,.19.85,7.55,7.55,0,0,0,.49,1.3l.07.16a8.23,8.23,0,0,0,2.25,2.71l0,0a13.24,13.24,0,0,0,5.27,2.35,13.45,13.45,0,0,1-1.47-4.9c0-.24,0-.47-.07-.71,0-.46,0-.92,0-1.39A20.78,20.78,0,0,1,125,206.13ZM137.74,209a19,19,0,0,0-.55,5.93,42.83,42.83,0,0,0,8.64-1,15.5,15.5,0,0,1,1.24-8.12c0-.12.09-.23.14-.35a52.11,52.11,0,0,1-9,1.84C138,208,137.86,208.5,137.74,209Zm.27-1.64.17,0v0Zm-11.7-26.63a58.69,58.69,0,0,1,7.44-8.57,16.69,16.69,0,0,1-5.56.28,6.22,6.22,0,0,1-2.12-.69,56.48,56.48,0,0,0-5,6.83,3.78,3.78,0,0,0,.49.49A8.45,8.45,0,0,0,126.31,180.77Zm25.7-27a3.93,3.93,0,0,1,1.86,1.23,3.08,3.08,0,0,1,.32.48,2.75,2.75,0,0,1,.26.81,4.88,4.88,0,0,1-.53,2.9,34.8,34.8,0,0,1,9-2.12,4.54,4.54,0,0,0-.24-.61,4.68,4.68,0,0,0-2.29-2.08c-.16-.07-.33-.15-.5-.21s-.57-.13-.86-.18a33.13,33.13,0,0,0-3.73-.52c-.61-.06-1.23-.09-1.86-.11-1,0-2.06,0-3.1,0a8.13,8.13,0,0,1,1.59.32Zm-32.28,42.6a26.12,26.12,0,0,1,1.94-7.37,8.72,8.72,0,0,1-1.23-.58,6.71,6.71,0,0,1-2.78-2.78.08.08,0,0,0,0,0l-.09-.21c-.07-.15-.13-.31-.19-.46,0,.4-.07.8-.1,1.2,0,.24,0,.47,0,.71a35.38,35.38,0,0,0,.37,7,7.22,7.22,0,0,0,.57.93A8.39,8.39,0,0,0,119.73,196.4Zm58-27.4c0,.45,0,.9-.08,1.36a12.17,12.17,0,0,0,.29-1.27,9.1,9.1,0,0,0-.22-4.49,6.62,6.62,0,0,0-.24-.62c-.29-.31-.59-.6-.89-.89s-.61-.57-.93-.85A6.62,6.62,0,0,0,175,162a16.67,16.67,0,0,0-3.73-.84,8,8,0,0,1,0,1.54,13.82,13.82,0,0,1-2.1,5.47,21.34,21.34,0,0,1,6,.16A15.5,15.5,0,0,1,177.69,169Zm-37.93,5.49a63.64,63.64,0,0,0-5.49,5.54,52.42,52.42,0,0,0,11.64-4.32c.51-.26,1-.53,1.51-.8,6.64-3.61,11.75-8.07,14.15-12q.3-.48.54-1a43.42,43.42,0,0,0-6.28,2.12A56.69,56.69,0,0,0,145,170.23,62.33,62.33,0,0,0,139.76,174.49Zm-2.7,14.41c-1.26.3-2.48.55-3.67.74l-1.34.19a30.2,30.2,0,0,1-4.84.23,37.94,37.94,0,0,0-3.37,8.39c.38.11.77.21,1.18.3.56.12,1.14.22,1.74.31a29.1,29.1,0,0,0,4.75.2A41.64,41.64,0,0,1,137.06,188.9Zm19,3a62,62,0,0,0,14-10.08,38.74,38.74,0,0,0,4.45-5.17q-.91,0-1.83.18c-6.46.92-13.49,4.64-19.43,9.48-1,.8-1.95,1.64-2.87,2.5a48.67,48.67,0,0,0-7.24,8.45,67.24,67.24,0,0,0,11.43-4.57C155,192.42,155.53,192.16,156,191.89Zm-14.92-29.42c3-1.8,4.94-3.93,4.82-5.29a1.2,1.2,0,0,0-.12-.42,1.15,1.15,0,0,0-.25-.33,57.25,57.25,0,0,0-5.71,3.26l-.12.06h0a63.58,63.58,0,0,0-7.23,5.52,15.64,15.64,0,0,0,7.11-2C140.14,163,140.64,162.76,141.11,162.47Z"/><path class="cls-6" d="M168.82,217.13a35.92,35.92,0,0,1-7.53,3.36c-5.53,1.7-9.75,1.28-11.57.29a5.74,5.74,0,0,1-.65-.44,6.75,6.75,0,0,1-.88-.83,35.69,35.69,0,0,1-9.1.09c.22.28.45.55.68.79a11.32,11.32,0,0,0,1.63,1.45,35,35,0,0,0,26.76-2.05c.54-.28,1.06-.56,1.58-.85a35,35,0,0,0,13.38-13.67v-.54A55.74,55.74,0,0,1,168.82,217.13Z"/><path class="cls-7" d="M178.4,165c-.31-.35-.63-.7-1-1a6.62,6.62,0,0,1,.24.62,9.1,9.1,0,0,1,.22,4.49,12.17,12.17,0,0,1-.29,1.27,17.57,17.57,0,0,1-.77,2.12c-.23.53-.49,1.05-.78,1.59-.47.84-1,1.7-1.61,2.57a38.74,38.74,0,0,1-4.45,5.17,62,62,0,0,1-14,10.08c-.5.27-1,.53-1.52.79a67.24,67.24,0,0,1-11.43,4.57,47.08,47.08,0,0,1-11.57,2,29.1,29.1,0,0,1-4.75-.2c-.6-.09-1.18-.19-1.74-.31-.41-.09-.8-.19-1.18-.3a12,12,0,0,1-4.11-2,8.39,8.39,0,0,1-1.57-1.64,7.22,7.22,0,0,1-.57-.93c.12.77.27,1.54.44,2.31a35.3,35.3,0,0,0,2.29,6.82c.14.16.28.31.43.46a11.61,11.61,0,0,0,2.3,1.77l.07,0a14.7,14.7,0,0,0,1.87.9,20.78,20.78,0,0,0,5,1.25,34.28,34.28,0,0,0,8,0l.18-.05v0a52.11,52.11,0,0,0,9-1.84c.5-.14,1-.29,1.5-.46a67.33,67.33,0,0,0,10-4.12l1.51-.79c8-4.3,14.44-9.74,18.45-15.17a26.19,26.19,0,0,0,3.75-6.87c.15-.44.28-.87.39-1.3l.12-.51c.06-.56.09-1.11.1-1.65a16.49,16.49,0,0,0-.07-2,13.38,13.38,0,0,0-.25-1.7A34.46,34.46,0,0,0,178.4,165Z"/><path class="cls-8" d="M170.61,158.78a2.88,2.88,0,0,0-.22-.38c-.63-.38-1.27-.74-1.92-1.07a35.49,35.49,0,0,0-7.7-2.92h-.43a4.68,4.68,0,0,1,2.29,2.08,4.54,4.54,0,0,1,.24.61,3.87,3.87,0,0,1,.18,1,7.48,7.48,0,0,1-.94,3.87q-.24.48-.54,1c-2.4,3.94-7.51,8.4-14.15,12-.5.27-1,.54-1.51.8A52.42,52.42,0,0,1,134.27,180a26.66,26.66,0,0,1-8,.74h0a8.45,8.45,0,0,1-4.77-1.66,3.78,3.78,0,0,1-.49-.49,4.12,4.12,0,0,1-.53-.78,4.75,4.75,0,0,1-.33-3.08,8.09,8.09,0,0,1,.37-1.26h0c-.31.66-.6,1.33-.86,2a35.25,35.25,0,0,0-2.32,9.45c.06.15.12.31.19.46l.09.21a.08.08,0,0,1,0,0,6.71,6.71,0,0,0,2.78,2.78,8.72,8.72,0,0,0,1.23.58,16.47,16.47,0,0,0,5.54,1,30.2,30.2,0,0,0,4.84-.23l1.34-.19c1.19-.19,2.41-.44,3.67-.74a61.53,61.53,0,0,0,13-4.91c.52-.26,1-.52,1.52-.79a56.63,56.63,0,0,0,12.92-9.35c.33-.32.64-.65,1-1a29,29,0,0,0,3.65-4.71,13.82,13.82,0,0,0,2.1-5.47,8,8,0,0,0,0-1.54,6.21,6.21,0,0,0-.63-2.34Z"/><path class="cls-9" d="M165.37,214c.5-.25,1-.51,1.48-.78a55,55,0,0,0,9.47-6.45,44.17,44.17,0,0,0,5.88-6,28.37,28.37,0,0,0,5-9,34.93,34.93,0,0,0-.43-9.72,16.15,16.15,0,0,1-2.5,7.42l0,0-.09.25a38.46,38.46,0,0,1-6.92,8.22,65.67,65.67,0,0,1-13.43,9.41l-1.52.79c-.89.45-1.79.88-2.68,1.29l-1,.47A65.27,65.27,0,0,1,145.83,214a42.83,42.83,0,0,1-8.64,1,25.86,25.86,0,0,1-5.65-.59,13.24,13.24,0,0,1-5.27-2.35l0,0,.06.07a34.7,34.7,0,0,0,5.27,4.74c.73.54,1.49,1,2.26,1.52a23.25,23.25,0,0,0,2.4.74,27.09,27.09,0,0,0,2.87.53,35.69,35.69,0,0,0,9.1-.09,50.31,50.31,0,0,0,9.33-2.18c.58-.2,1.16-.4,1.75-.62h0a59.24,59.24,0,0,0,6.07-2.66Z"/><path class="cls-10" d="M131,161.87a15.27,15.27,0,0,1,2.36-3,35.34,35.34,0,0,0-7.84,6.83,8.55,8.55,0,0,0-.87,1.82,4,4,0,0,0-.15,2.36,2.7,2.7,0,0,0,.2.54,3.33,3.33,0,0,0,.49.69,3.54,3.54,0,0,0,.86.65,6.22,6.22,0,0,0,2.12.69,16.69,16.69,0,0,0,5.56-.28,35.17,35.17,0,0,0,8.78-3.15c.52-.26,1-.53,1.51-.8,4.73-2.66,8.27-5.92,9.73-8.74l.15-.29a4.88,4.88,0,0,0,.53-2.9,2.75,2.75,0,0,0-.26-.81,3.08,3.08,0,0,0-.32-.48A3.93,3.93,0,0,0,152,153.8l-.13-.05a8.13,8.13,0,0,0-1.59-.32,33.36,33.36,0,0,0-4,.46c-9.37,2.28-13.56,5.84-15.31,8a2.66,2.66,0,0,0-.36,2.51c-.27-.6,0-1.41.68-2.3a16.54,16.54,0,0,1,5.53-4.2c.52-.26,1-.5,1.55-.71a14.7,14.7,0,0,1,5.1-1.27,3,3,0,0,1,2,.53,1.15,1.15,0,0,1,.25.33,1.2,1.2,0,0,1,.12.42c.12,1.36-1.83,3.49-4.82,5.29-.47.29-1,.57-1.49.83a15.64,15.64,0,0,1-7.11,2,3.06,3.06,0,0,1-1.38-.37l-.18-.14a1.1,1.1,0,0,1-.27-.34s0,0,0-.05"/><path class="cls-11" d="M73.5,185.8a36.75,36.75,0,1,1-36.75-36.75A36.78,36.78,0,0,1,73.5,185.8Z"/><path class="cls-2" d="M50.31,163.05,32.08,181.28l9.19,9,9-9c1.46,1.31,2.92,2.92,4.52,4.52C48.12,192.66,36.75,204,36.75,204L18.52,185.8l27.27-27.27-9-9.19L.29,185.8l36.46,36.31L73.06,185.8Z"/><rect class="cls-12" x="232.15" y="151.62" width="71.17" height="71.17"/><path class="cls-13" d="M261.27,184.87V183a5,5,0,0,1,4.94-4.95h.71a5,5,0,0,1,4.95,4.95v1.89h4.36V183a9.32,9.32,0,0,0-9.31-9.31h-.71a9.32,9.32,0,0,0-9.3,9.31v1.89Z"/><path class="cls-13" d="M271.87,189v2.38a5,5,0,0,1-4.95,5h-.71a5,5,0,0,1-4.94-5V189h-4.36v2.38a9.32,9.32,0,0,0,9.3,9.31h.71a9.32,9.32,0,0,0,9.31-9.31V189Z"/><polygon points="256.91 173.67 237.82 173.67 237.82 177.33 245.18 177.33 245.18 200.66 249.41 200.66 249.41 177.33 256.91 177.33 256.91 173.67"/><path d="M279.69,174.12h10.52c4.31,0,7.72,2.41,7.72,7.2s-2.4,8.5-8.15,8.5h-6.25v10.43h-3.84Zm3.84,12.25h5.89c3.16,0,4.74-1.27,4.74-4.62,0-2.84-1.54-4.15-4.41-4.15h-6.22Z"/><path class="cls-14" d="M197.71,23V36.42c6.1-4.74,13.65-5.16,20.23-5.06,32.44.48,52.35,14,52.35,14V23Z"/><path class="cls-14" d="M267.32,53.59s-19.21-5.8-34.39-.63c-4.24,1.44-9.29,4.83-8.16,8.19,0,0-5.41-.46-7.5-2.31a4.06,4.06,0,0,1,.23-6.28c3.88-3.05,7.47-4.12,17.13-4.68s17.11-.38,32.37,2.43c0,0-22.55-6-40.11-3.71-17,2.25-13.55,9.82-13.55,9.82s-5.91-.09-6.31-4.19,3.81-7.3,10.47-8.75S247,40.83,267.16,48c0,0-24.41-9.16-45.61-7.35C205.37,42,203.7,48.44,204,50.89a4.68,4.68,0,0,1-4.14-5.08c.32-4.09,3.42-7.31,13.89-8.67s35,.16,54,9c0,0-19.51-12.32-50.82-11.16-7.39.28-16.78,1.69-19.19,8.75V65.56c0,7.47,7,27.37,28.1,27.37,0,0,3.41-27.22,4-30.34C230.58,58.7,240,49.14,267.32,53.59Z"/><path class="cls-14" d="M241.76,67.72,228,92.93h42.31V67.19A104.43,104.43,0,0,1,241.76,67.72Z"/><path class="cls-15" d="M146,51.47c-6.42.35-8.11-1.43-20.41-7.67S89.79,30.7,66.8,34.9c0,0,7.65,2.41,11,7.92s4.33,9.88,7.3,12.33a6.68,6.68,0,0,0,7.56.94c2.34-1.42,3.22-4.44.55-9.08-1.69-2.94-5.17-4.45-9.09-4.28,0,0,3.57-4.09,8.47-2.94s8.11,4,9.53,8.56c0,0,10.16.89,11.5,7.84s-.89,11-7.58,13.19c0,0,7.94,3.65,16.31-5.47,0,0,1.52,6.89-7,13.13,0,0,30.89-13.54,36.21-28.51C151.57,48.53,149.13,51.29,146,51.47Z"/><path class="cls-15" d="M75.26,66.79c-1.69-3.74-1-9.44-.71-12.29s-1-9.36-3.39-12.75-7.66-5.88-7.66-5.88c-13.63,3.12-26,12.57-29.41,15.6s-5.7,7-4,9.89,6.78,3,10.7,2.55,3.92,0,6.5,1.19,9.18,5.44,14.26,7.49c18,7.28,31.19,8.5,31.19,8.5C81.86,77.93,77,70.54,75.26,66.79Z"/><path class="cls-15" d="M355.79,23.06a34.58,34.58,0,1,0,34.58,34.57A34.57,34.57,0,0,0,355.79,23.06Zm10.42,50.69h-21.5L338.07,53.3l17.39-12.63L372.85,53.3Z"/><path class="cls-16" d="M482.73,1a14.43,14.43,0,0,1-28.85,0h-1.74a16.46,16.46,0,0,0,16.17,15.74A16.44,16.44,0,0,0,484.47,1Z"/><path class="cls-17" d="M482.73,1a14.43,14.43,0,0,1-28.85,0h-1.74a16.46,16.46,0,0,0,16.17,15.74A16.44,16.44,0,0,0,484.47,1Z"/><path class="cls-18" d="M473.51,22.72V15.4A16.23,16.23,0,0,0,484.57,0H474.21a5.9,5.9,0,0,1-11.8,0H452.05A16.23,16.23,0,0,0,463.1,15.4v7.32a35.19,35.19,0,1,0,10.41,0Zm-5.2,59.62A24.91,24.91,0,0,1,444,62.66h8.86A16.23,16.23,0,0,0,468.3,73.78V63.42a5.91,5.91,0,0,1,0-11.81V41.26a16.21,16.21,0,0,0-15.41,11.11H444a24.82,24.82,0,1,1,24.28,30Z"/><path class="cls-19" d="M468.27,27.34a30.17,30.17,0,1,0,30.16,30.17A30.17,30.17,0,0,0,468.27,27.34Zm0,55A24.91,24.91,0,0,1,444,62.66h8.86A16.23,16.23,0,0,0,468.3,73.78V63.42a5.91,5.91,0,0,1,0-11.81V41.26a16.21,16.21,0,0,0-15.41,11.11H444a24.82,24.82,0,1,1,24.28,30Z"/><path class="cls-20" d="M468.27,27.34a30.17,30.17,0,1,0,30.16,30.17A30.17,30.17,0,0,0,468.27,27.34Zm0,55A24.91,24.91,0,0,1,444,62.66h8.86A16.23,16.23,0,0,0,468.3,73.78V63.42a5.91,5.91,0,0,1,0-11.81V41.26a16.21,16.21,0,0,0-15.41,11.11H444a24.82,24.82,0,1,1,24.28,30Z"/><path class="cls-21" d="M468.31,69.32a11.81,11.81,0,1,1,0-23.61v4.17a7.64,7.64,0,1,0,0,15.27Z"/><path class="cls-22" d="M462.41,57.52a5.91,5.91,0,0,1,5.9-5.91V49.88a7.64,7.64,0,1,0,0,15.27V63.42A5.9,5.9,0,0,1,462.41,57.52Z"/><path class="cls-23" d="M468.31,63.36a5.85,5.85,0,0,1,0-11.69v-.46a6.31,6.31,0,0,0,0,12.61Z"/><path class="cls-24" d="M473.51,22.72V15.4A16.23,16.23,0,0,0,484.57,0H474.21a5.9,5.9,0,0,1-11.8,0H452.05A16.23,16.23,0,0,0,463.1,15.4v7.32a35.19,35.19,0,1,0,10.41,0Zm-5.2,59.62A24.91,24.91,0,0,1,444,62.66h8.86A16.23,16.23,0,0,0,468.3,73.78V63.42a5.91,5.91,0,0,1,0-11.81V41.26a16.21,16.21,0,0,0-15.41,11.11H444a24.82,24.82,0,1,1,24.28,30Z"/><g id="Ring_außen" data-name="Ring außen"><path class="cls-25" d="M468.31,27.37a30.15,30.15,0,1,1-30.15,30.14,30.14,30.14,0,0,1,30.15-30.14m0-.2a30.35,30.35,0,1,0,30.34,30.34,30.38,30.38,0,0,0-30.34-30.34Z"/></g><path class="cls-26" d="M480.11,0a11.8,11.8,0,0,1-11.8,11.8A11.8,11.8,0,0,1,456.5,0h4.17A7.64,7.64,0,0,0,476,0Z"/><path class="cls-27" d="M468.31,5.9a5.9,5.9,0,0,1-5.9-5.9h-1.74A7.64,7.64,0,0,0,476,0h-1.74A5.9,5.9,0,0,1,468.31,5.9Z"/><path class="cls-28" d="M468.31,32.63A24.9,24.9,0,0,0,444,52.37h.69a24.22,24.22,0,1,1,0,10.29H444a24.88,24.88,0,1,0,24.35-30Z"/></g></g></g></svg>