<svg xmlns="http://www.w3.org/2000/svg" viewBox="0 0 90 90"><defs><style>.cls-1{fill:#fff;}.cls-2{fill:none;}</style></defs><g id="圖層_2" data-name="圖層 2"><g id="圖層_2-2" data-name="圖層 2"><path class="cls-1" d="M66.41,62.86C62,79.76,49.1,88,45,89.76c-4.09-1.78-16.95-10-21.41-26.9a45.14,45.14,0,0,0,42.82,0Z"/><path class="cls-1" d="M68,49.12C67.24,22.8,48.33,13.18,48.33,13.18V3.43A2.92,2.92,0,0,0,45.46.24h-.92a2.92,2.92,0,0,0-2.87,3.19v9.75S22.77,22.8,22.05,49.12a50.31,50.31,0,0,0,.49,8.59,41.16,41.16,0,0,0,44.92,0A50.31,50.31,0,0,0,68,49.12Zm-30,.71a1.95,1.95,0,1,1-3.89,0V43.34a1.95,1.95,0,0,1,3.89,0Zm18.06,0a1.95,1.95,0,1,1-3.89,0V43.34a1.95,1.95,0,0,1,3.89,0Z"/><rect class="cls-2" width="90" height="90"/></g></g></svg>