<svg xmlns="http://www.w3.org/2000/svg" viewBox="0 0 90 90"><defs><style>.cls-1{fill:#fff;}.cls-2{fill:none;}</style></defs><g id="圖層_2" data-name="圖層 2"><g id="圖層_2-2" data-name="圖層 2"><path class="cls-1" d="M81.39,5.93a13.51,13.51,0,0,0-19.13,0L81.39,25.05A13.52,13.52,0,0,0,81.39,5.93Zm-72.77,0a13.51,13.51,0,0,0,0,19.12L27.73,5.93A13.49,13.49,0,0,0,8.62,5.93ZM78.14,44.67a32.95,32.95,0,1,0-54.91,24.5L14.11,83.88,20.8,88l8.88-14.31a32.89,32.89,0,0,0,31,0L69.59,88l6.69-4.15L67.16,69.17A32.83,32.83,0,0,0,78.14,44.67ZM62.29,38.38,47.39,48a4,4,0,0,1-5-.59L30.19,34.53A3.94,3.94,0,1,1,35.9,29.1l10,10.49L58,31.75a3.94,3.94,0,0,1,4.26,6.63Z"/><rect class="cls-2" width="90" height="90"/></g></g></svg>