<svg xmlns="http://www.w3.org/2000/svg" viewBox="0 0 90 90"><defs><style>.cls-1{fill:#fff;}.cls-2{fill:none;}</style></defs><g id="圖層_2" data-name="圖層 2"><g id="圖層_2-2" data-name="圖層 2"><path class="cls-1" d="M45,60a30.24,30.24,0,0,0-19.76,7.31C30.56,81,41.33,87.84,45,89.43c3.67-1.59,14.44-8.42,19.76-22.1A30.24,30.24,0,0,0,45,60Z"/><path class="cls-1" d="M48.3,13.42V3.74A2.9,2.9,0,0,0,45.46.57h-.92A2.9,2.9,0,0,0,41.7,3.74v9.68S22.93,23,22.22,49.08a47.3,47.3,0,0,0,2.11,15.65,33.05,33.05,0,0,1,41.34,0,47.3,47.3,0,0,0,2.11-15.65C67.07,23,48.3,13.42,48.3,13.42ZM29,58.13a2.66,2.66,0,0,1-2.67-2.67c0-1.47,1.9-5.67,2.67-5.67s2.66,4.2,2.66,5.67A2.66,2.66,0,0,1,29,58.13ZM39.58,47.05a1,1,0,0,1-.12,1.39,1,1,0,0,1-.63.23,1,1,0,0,1-.76-.35l-3.92-4.67-3.92,4.67a1,1,0,0,1-.75.35,1,1,0,0,1-.63-.23,1,1,0,0,1-.12-1.39l4.14-4.93L28.73,37.2a1,1,0,1,1,1.5-1.27l3.92,4.67,3.92-4.67a1,1,0,0,1,1.51,1.27l-4.14,4.92Zm21.69,0a1,1,0,0,1-.12,1.39,1,1,0,0,1-.63.23,1,1,0,0,1-.75-.35l-3.92-4.67-3.92,4.67a1,1,0,0,1-.76.35,1,1,0,0,1-.63-.23,1,1,0,0,1-.12-1.39l4.14-4.93L50.42,37.2a1,1,0,1,1,1.51-1.27l3.92,4.67,3.92-4.67a1,1,0,1,1,1.5,1.27l-4.14,4.92Z"/><rect class="cls-2" width="90" height="90"/></g></g></svg>