<svg xmlns="http://www.w3.org/2000/svg" viewBox="0 0 90 90"><defs><style>.cls-1{fill:#fff;}.cls-2{fill:none;}</style></defs><g id="圖層_2" data-name="圖層 2"><g id="圖層_2-2" data-name="圖層 2"><path class="cls-1" d="M79.58,52.86C79.58,69.07,64.09,82.2,45,82.2S10.42,69.07,10.42,52.86c0-11.42,7.71-21.31,19-26.15L18.67,7.8H71.33L60.62,26.71C71.86,31.55,79.58,41.43,79.58,52.86ZM43.07,63a6.42,6.42,0,0,1-3.79-2.43,9.43,9.43,0,0,1-1.17-5.07H32.84a16.71,16.71,0,0,0,1.42,7.16,9.94,9.94,0,0,0,8,5.17l.86.11v5.52h4.19V67.9l.5-.1Q57,66,57.05,57.2a9,9,0,0,0-5-8.42,38.65,38.65,0,0,0-4.79-2.17v-11q3.9,1,4.1,5.93h5.27q-.06-6-4.16-8.89a10.79,10.79,0,0,0-5.21-1.88V26.43H43.19v4.3a1.18,1.18,0,0,0-.31.05q-9.19,2-9.2,10.17a8.86,8.86,0,0,0,2.7,6.72,18.15,18.15,0,0,0,5.48,3c.4.17.81.32,1.21.46Zm0-17.36a.53.53,0,0,1-.25-.15c-2.4-1.08-3.6-2.66-3.6-4.76a4.76,4.76,0,0,1,3-4.81,4.86,4.86,0,0,1,.86-.3Zm4.19,6.59a2.17,2.17,0,0,1,.45.25q2.79,1.52,3.38,3a6.32,6.32,0,0,1-1.59,6.63,3.74,3.74,0,0,1-1.85.91h-.39Z"/><rect class="cls-2" width="90" height="90"/></g></g></svg>