<svg xmlns="http://www.w3.org/2000/svg" viewBox="0 0 540.22 164.64"><defs><style>.cls-1{fill:#ccc;}</style></defs><g id="圖層_2" data-name="圖層 2"><g id="圖層_2-2" data-name="圖層 2"><path class="cls-1" d="M19.35,77a10.47,10.47,0,0,0-3.22.51v5.72a80,80,0,0,0,1.48,16.26H0A84.49,84.49,0,0,0,1.48,83.19V70.72A84.49,84.49,0,0,0,0,54.46H17.61a72.64,72.64,0,0,0-1.48,15.23V72.2H19.8c5.27,0,8.16-3.34,8.16-9.64a14.85,14.85,0,0,0-2.38-8.1H42.1A17,17,0,0,1,44,62.88C44,72.33,38.7,74.26,26,74.26H22.18V75H23c8.23,0,9.64,6.69,15.75,6.69,4.24,0,6.17-1.67,7.65-5l.12,19c-1.09,2.51-4.56,4.63-7.77,4.63C21.28,100.35,31.37,77,19.35,77Z"/><path class="cls-1" d="M52,83.19V70.72a85,85,0,0,0-1.41-16.26H68.2a80,80,0,0,0-1.48,16.26V83.19A80,80,0,0,0,68.2,99.45H50.59A85,85,0,0,0,52,83.19Z"/><path class="cls-1" d="M76.49,83.19V70.72A84.56,84.56,0,0,0,75,54.46L91,54.59l15.87,23.59h.9V70.53a95.15,95.15,0,0,0-1.41-16.07h17.61a80,80,0,0,0-1.48,16.26V99.45H108.63L92.11,74.71h-1v7.45a101.35,101.35,0,0,0,1.48,17.29H75A84.56,84.56,0,0,0,76.49,83.19Z"/><path class="cls-1" d="M132.23,83.19V70.72a90.47,90.47,0,0,0-1.48-16.26H152.6c14.08,0,23.72,7.58,23.72,22.5s-9.64,22.49-23.72,22.49H130.75A90.47,90.47,0,0,0,132.23,83.19Zm21,1.8a7.61,7.61,0,0,0,7.84-8,7.65,7.65,0,0,0-7.84-8h-6.43V85Z"/><path class="cls-1" d="M179.47,79.85H194.9V88H179.47Z"/><path class="cls-1" d="M201.71,83.19V70.72a83.7,83.7,0,0,0-1.48-16.26h17.62a79.25,79.25,0,0,0-1.48,16.26v2.89h14V70.72A85,85,0,0,0,229,54.46h17.61a80,80,0,0,0-1.48,16.26V83.19a80,80,0,0,0,1.48,16.26H229a85,85,0,0,0,1.41-16.26V80h-14v3.15a79.25,79.25,0,0,0,1.48,16.26H200.23A83.7,83.7,0,0,0,201.71,83.19Z"/><path class="cls-1" d="M254.81,83.19V70.72a89.57,89.57,0,0,0-1.48-16.26h37.8l2.18,16.39c-1.6-1.42-4.5-1.93-10.8-1.93H269.4v5.27h10.35c3,0,5.91-.06,7.91-.26v6.63a66.91,66.91,0,0,0-7.91-.39H269.4v4.88h11.31c10.16,0,12.92-1.28,14.53-2.37l-2.31,16.77h-39.6A89.57,89.57,0,0,0,254.81,83.19Z"/><path class="cls-1" d="M301.74,83.19l4.43-12.47a79.45,79.45,0,0,0,2.64-16.26H335a84.62,84.62,0,0,0,2.64,16.26l4.43,12.47a117.72,117.72,0,0,0,5.79,16.26H330.28a56.32,56.32,0,0,0-1.55-9.7l-.51-1.35H315.56l-.45,1.41a46.05,46.05,0,0,0-1.55,9.64H295.89A115.37,115.37,0,0,0,301.74,83.19Zm25-1.22L324,75a45.5,45.5,0,0,1-1.74-7.77h-.83A52.86,52.86,0,0,1,319.8,75l-2.7,7Z"/><path class="cls-1" d="M368.78,80.23a11.22,11.22,0,0,0-2.76.33v2.63a85.36,85.36,0,0,0,1.47,16.26H349.88a84.49,84.49,0,0,0,1.48-16.26V70.72a84.49,84.49,0,0,0-1.48-16.26H377.2c9.84,0,17.55,3.85,17.55,11.5,0,7.85-7.52,11.77-17.16,11.77H377v.38h.13c5.53,0,6.87,5.21,11.57,5.21s7.26-3,8.67-6.56l.2,19.29c-1.22,2.37-4.63,4.37-7.91,4.37C374.37,100.42,380.22,80.23,368.78,80.23Zm5.53-4.5c3.34,0,5.53-1.28,5.53-3.72,0-2.25-2.19-3.67-5.21-3.67H366v7.39Z"/><path class="cls-1" d="M413.59,83.19v-14h-6a16,16,0,0,0-8.68,2.12l2.44-16.9h38.7l2.44,16.9a17.74,17.74,0,0,0-8.68-2.12h-5.59v14a84.49,84.49,0,0,0,1.48,16.26H412.11A84.49,84.49,0,0,0,413.59,83.19Z"/><path class="cls-1" d="M448.68,83.19V70.72a89.57,89.57,0,0,0-1.48-16.26H485l2.19,16.39c-1.61-1.42-4.5-1.93-10.8-1.93H463.27v5.27h10.35c3,0,5.92-.06,7.91-.26v6.63a66.79,66.79,0,0,0-7.91-.39H463.27v4.88h11.32c10.15,0,12.92-1.28,14.52-2.37L486.8,99.45H447.2A89.57,89.57,0,0,0,448.68,83.19Z"/><path class="cls-1" d="M496.12,83.19V70.72a89.57,89.57,0,0,0-1.48-16.26H516.5c14.08,0,23.72,7.58,23.72,22.5s-9.64,22.49-23.72,22.49H494.64A89.57,89.57,0,0,0,496.12,83.19Zm21,1.8A7.6,7.6,0,0,0,525,77a7.64,7.64,0,0,0-7.84-8h-6.43V85Z"/><path class="cls-1" d="M154.92,141.24c0-16.07,13.56-23.4,26.61-23.4,6.49,0,12.6,1.16,16.2,2.76l-.13,15.62c-2.83-2.18-8.1-4-13.24-4-8.17,0-14.34,3.28-14.34,9.13,0,6.3,6.88,8.87,14.53,8.87a25,25,0,0,0,15.88-5.34v16.84a57.56,57.56,0,0,1-19,2.9C168.35,164.64,154.92,157.44,154.92,141.24Z"/><path class="cls-1" d="M203.39,141.24c0-15.49,10.86-23.4,24.23-23.4s24.1,7.91,24.1,23.4-10.79,23.4-24.1,23.4S203.39,156.79,203.39,141.24Zm33.1,0c0-7.72-3.92-11.89-8.87-11.89s-8.93,4.17-8.93,11.89,3.92,11.95,8.93,11.95S236.49,149,236.49,141.24Z"/><path class="cls-1" d="M255.65,141.24c0-16.07,13.56-23.4,26.61-23.4,6.49,0,12.6,1.16,16.2,2.76l-.13,15.62c-2.83-2.18-8.1-4-13.24-4-8.17,0-14.34,3.28-14.34,9.13,0,6.3,6.88,8.87,14.53,8.87a25,25,0,0,0,15.88-5.34v16.84a57.58,57.58,0,0,1-19,2.9C269.08,164.64,255.65,157.44,255.65,141.24Z"/><path class="cls-1" d="M304.12,141.24c0-15.49,10.86-23.4,24.23-23.4s24.1,7.91,24.1,23.4-10.8,23.4-24.1,23.4S304.12,156.79,304.12,141.24Zm33.1,0c0-7.72-3.92-11.89-8.87-11.89s-8.94,4.17-8.94,11.89,3.92,11.95,8.94,11.95S337.22,149,337.22,141.24Z"/><path class="cls-1" d="M356.05,147.47,360.49,135a78.58,78.58,0,0,0,2.63-16.26h26.23A84.62,84.62,0,0,0,392,135l4.43,12.47a116.59,116.59,0,0,0,5.79,16.27H384.59a55.16,55.16,0,0,0-1.54-9.71l-.51-1.35H369.87l-.45,1.41a45.92,45.92,0,0,0-1.54,9.65H350.2A113.51,113.51,0,0,0,356.05,147.47Zm25-1.22-2.7-7a45.08,45.08,0,0,1-1.74-7.77h-.83a52.86,52.86,0,0,1-1.67,7.77l-2.7,7Z"/><path class="cls-1" d="M231.15,15.66v1.77H205V15.66h6a10.59,10.59,0,0,0-1.53-2.56l1.94-.56a10.94,10.94,0,0,1,1.77,2.74l-1.24.38h11a25.47,25.47,0,0,0,1.65-3.09l2.15.47c-.48.91-1,1.83-1.51,2.62Zm-.74-3.12H205.86V10.83h11v-2H208.4V7.15h8.47v-2H206.66V3.5h5.71A12.3,12.3,0,0,0,210.69.88L212.6.21a10.3,10.3,0,0,1,1.86,2.65l-1.59.64h8.57A24.39,24.39,0,0,0,223.2.21l2.24.53c-.56.94-1.15,2-1.74,2.76h5.8V5.18H219.08v2h8.63V8.8h-8.63v2h11.33ZM209,19.13h18.19V27H225v-.91H211.19v1H209Zm2.15,1.77v3.44H225V20.9Z"/><path class="cls-1" d="M259.15,17.37a56.33,56.33,0,0,1-6.51,4.24A22.27,22.27,0,0,0,260.71,25a8,8,0,0,0-1.38,1.92c-6.74-1.65-11.72-5.54-14.49-11.25h-4.53v8.6l7.12-1.8a10.06,10.06,0,0,0,.21,2c-8,2.09-9.1,2.39-9.77,2.8a7.12,7.12,0,0,0-1.18-1.74A3.09,3.09,0,0,0,238.07,23V3h8.69A21.6,21.6,0,0,0,245.84.5L248,0a20.83,20.83,0,0,1,1.15,3h7.92v12.6h-10A17,17,0,0,0,251,20.37,46.79,46.79,0,0,0,257.35,16ZM240.31,5V8.39h14.57V5Zm0,8.69h14.57v-3.5H240.31Z"/><path class="cls-1" d="M290,4.5h-3.62V24c0,1.59-.38,2.36-1.5,2.68s-3.21.41-6.09.41a11.08,11.08,0,0,0-.94-2.32c2.35.11,4.77.08,5.44.06s.86-.24.86-.86V4.5H264V2.33H290ZM269.07,19.72v2.36H267V8.8h12V19.72Zm0-8.8v6.71h7.69V10.92Z"/><path class="cls-1" d="M319.45,4.5h-3.62V24c0,1.59-.39,2.36-1.51,2.68s-3.2.41-6.09.41a11.08,11.08,0,0,0-.94-2.32c2.35.11,4.77.08,5.44.06s.86-.24.86-.86V4.5h-20.2V2.33h26.06ZM298.52,19.72v2.36H296.4V8.8h12V19.72Zm0-8.8v6.71h7.68V10.92Z"/><path class="cls-1" d="M348.71,24.05v2.06H322.87V24.05h14.89A42.74,42.74,0,0,0,341,17.16l2.38.59c-1,2.06-2.2,4.45-3.32,6.3ZM348,3.8H323.51v-2H348Zm-3,12.66H326.19V6.89H345Zm-14.45,7.12a33.63,33.63,0,0,0-2.24-5.92l2-.53a32.78,32.78,0,0,1,2.33,5.8ZM342.65,9H328.4v5.44h14.25Z"/></g></g></svg>