<svg xmlns="http://www.w3.org/2000/svg" viewBox="0 0 43.94 42"><defs><style>.cls-1{fill:#fff;}.cls-2{fill:none;stroke:#e50012;stroke-miterlimit:10;stroke-width:2px;}.cls-3{fill:#e50012;}</style></defs><g id="圖層_2" data-name="圖層 2"><g id="圖層_1-2" data-name="圖層 1"><path class="cls-1" d="M28.12,42A11,11,0,0,1,22,40.1,10.95,10.95,0,0,1,4.86,31a10.75,10.75,0,0,1,.4-2.94A11,11,0,0,1,11,7.78h.51a11,11,0,0,1,21,0H33a11,11,0,0,1,5.7,20.32A10.76,10.76,0,0,1,39.09,31,11,11,0,0,1,28.12,42Z"/><path class="cls-2" d="M41.4,18.74A8.42,8.42,0,0,0,33,10.33a8.28,8.28,0,0,0-2.6.41,8.41,8.41,0,0,0-16.82,0,8.28,8.28,0,0,0-2.6-.41A8.42,8.42,0,0,0,8.55,26.81,8.3,8.3,0,0,0,7.4,31,8.41,8.41,0,0,0,22,36.77a8.41,8.41,0,0,0,13.42-10A8.44,8.44,0,0,0,41.4,18.74Z"/><path class="cls-3" d="M24,31H20.31V18.39a13,13,0,0,1-4.74,2.53v-3a10.63,10.63,0,0,0,3.12-1.62A6.12,6.12,0,0,0,21,13.49h3Z"/></g></g></svg>