<svg xmlns="http://www.w3.org/2000/svg" viewBox="0 0 801.66 794.31"><defs><style>.cls-1{fill:none;stroke:#fff;stroke-miterlimit:10;stroke-width:2px;opacity:0.5;}.cls-2,.cls-3,.cls-4,.cls-5{fill:#fff;}.cls-3{opacity:0.6;}.cls-4{opacity:0.4;}.cls-5{opacity:0.3;}.cls-6{fill:#e50012;}</style></defs><g id="圖層_2" data-name="圖層 2"><g id="圖層_1-2" data-name="圖層 1"><polygon class="cls-1" points="609.79 26.95 609.79 80.22 188.45 80.22 188.45 1 1 1 1 793.31 800.66 793.31 800.66 99.33 760.71 26.95 609.79 26.95"/><path class="cls-2" d="M131.16,736h5.14c4.06,0,6.76,1.35,6.76,5.28s-2.7,5.58-6.63,5.58h-3V754h-2.29Zm5,9c3.17,0,4.67-1.16,4.67-3.74s-1.6-3.44-4.77-3.44h-2.58V745Z"/><path class="cls-2" d="M165.65,753.07a27.81,27.81,0,0,0,4.08-.27c.08.51.2,1.35.3,1.74a23.63,23.63,0,0,1-4.4.22H154.81c-3.76,0-5.58-1.18-5.58-4.76V736.23h-1v-1.65h20.6v1.65H151v13.89c0,2.09,1,3,3.59,3ZM153,744.93h6.39v6.29H153Zm1.52,5h3.27v-3.64h-3.27Zm10.25-6.64h-9.12v-5.43h9.12ZM163,739.13h-5.6v2.8H163Zm4.67,12.09H161v-6.29h6.61Zm-1.62-5h-3.42v3.64H166Z"/><path class="cls-2" d="M187.21,735c0,4.35.57,13.62,10.21,19.35a8.54,8.54,0,0,0-1.48,1.52,21.2,21.2,0,0,1-9.76-13.69c-1.82,6.37-4.91,10.84-9.81,13.72a11.69,11.69,0,0,0-1.64-1.45c5.43-2.83,8.45-7.77,10-14.66l1.08.18c-.17-1.13-.27-2.22-.32-3.15h-6V735Z"/><path class="cls-2" d="M222.25,736v19.17H220.3v-2H205.85v2.09H204V736Zm-1.95,15.36V737.83H205.85v13.54Z"/><path class="cls-2" d="M597.57,758.06a8.11,8.11,0,0,1-3,.49c-3.81,0-6.26-1.82-7.44-4.28-4.5-.51-7.58-4-7.58-9.34,0-5.77,3.59-9.27,8.71-9.27s8.72,3.5,8.72,9.27c0,5.21-3,8.68-7.37,9.27.91,1.62,2.92,2.46,5.28,2.46a6.75,6.75,0,0,0,2.19-.35Zm-2.9-13.13c0-4.5-2.58-7.27-6.39-7.27s-6.4,2.77-6.4,7.27,2.56,7.52,6.4,7.52S594.67,749.55,594.67,744.93Z"/><path class="cls-2" d="M621,753.07a27.92,27.92,0,0,0,4.08-.27c.07.51.19,1.35.29,1.74a23.57,23.57,0,0,1-4.4.22H610.11c-3.76,0-5.58-1.18-5.58-4.76V736.23h-1v-1.65h20.6v1.65h-17.8v13.89c0,2.09,1,3,3.59,3Zm-12.69-8.14h6.39v6.29h-6.39Zm1.53,5h3.27v-3.64h-3.27ZM620,743.26h-9.12v-5.43H620Zm-1.8-4.13h-5.6v2.8h5.6Zm4.67,12.09H616.3v-6.29h6.61Zm-1.62-5h-3.42v3.64h3.42Z"/><path class="cls-2" d="M642.51,735c0,4.35.56,13.62,10.2,19.35a8.54,8.54,0,0,0-1.48,1.52,21.18,21.18,0,0,1-9.75-13.69c-1.82,6.37-4.92,10.84-9.81,13.72A12.39,12.39,0,0,0,630,754.4c5.43-2.83,8.46-7.77,10-14.66l1.08.18c-.17-1.13-.27-2.22-.32-3.15h-6V735Z"/><path class="cls-2" d="M677.54,736v19.17H675.6v-2H661.14v2.09H659.3V736Zm-1.94,15.36V737.83H661.14v13.54Z"/><rect class="cls-3" x="0.66" y="639.35" width="154.33" height="53.95"/><rect class="cls-3" x="356.78" y="639.35" width="84.68" height="53.95"/><rect class="cls-4" x="188.45" y="130.07" width="421.34" height="450.02"/><rect class="cls-4" x="49.83" y="620.92" width="105.16" height="18.44"/><rect class="cls-4" x="49.83" y="489.95" width="105.16" height="37.56"/><rect class="cls-4" x="49.83" y="345.86" width="105.16" height="37.56"/><rect class="cls-4" x="49.83" y="291.91" width="105.16" height="37.56"/><rect class="cls-4" x="49.83" y="237.96" width="105.16" height="37.56"/><rect class="cls-4" x="49.83" y="184.01" width="105.16" height="37.9"/><rect class="cls-4" x="49.83" y="130.07" width="105.16" height="37.56"/><rect class="cls-4" x="49.83" y="61.78" width="105.16" height="37.56"/><rect class="cls-4" x="49.83" y="7.83" width="105.16" height="37.56"/><rect class="cls-4" x="49.83" y="418.93" width="34.83" height="52.58"/><rect class="cls-4" x="102.41" y="418.93" width="52.58" height="52.58"/><rect class="cls-4" x="49.83" y="543.89" width="105.16" height="54.63"/><rect class="cls-4" x="642.57" y="130.07" width="118.14" height="450.02"/><path class="cls-2" d="M355.56,340.33h-9.29v-1.5h9.29Zm11.67,5.55a15.54,15.54,0,0,1-4.37,7.08,16.84,16.84,0,0,0,5.8,2.46,7.76,7.76,0,0,0-1.13,1.65,17.46,17.46,0,0,1-6.1-2.93,19.56,19.56,0,0,1-6.09,3,6.3,6.3,0,0,0-.84-1.52h-5.6v1.15h-1.6v-8.26h7.25v6.93A17.64,17.64,0,0,0,360,353a16.77,16.77,0,0,1-3.66-5.43l1.06-.37h-2.14v-1.72h10.47l.32-.07Zm-12.68-3.83v1.45h-7.23v-1.45Zm-7.23,3.19h7.26v1.45h-7.26Zm5.61,4.8h-4v4h4Zm-2.16-11.48a22.62,22.62,0,0,0-1.85-3.3l1.43-.71a21.25,21.25,0,0,1,1.89,3.17Zm8.6-.27a7.05,7.05,0,0,1-3.57,6.53,8.76,8.76,0,0,0-1.18-1.32,5.51,5.51,0,0,0,3.05-5.26v-2.71h7.48v5.71c0,.68,0,.91.39.91H367a4.77,4.77,0,0,0,1.08-.13c0,.47.1,1.16.12,1.58a4.25,4.25,0,0,1-1.2.12h-1.6c-1.6,0-1.94-.69-1.94-2.53v-3.94h-4.08Zm-1.4,8.87a13.64,13.64,0,0,0,3.46,4.69,13.18,13.18,0,0,0,3.47-4.69Z"/><path class="cls-2" d="M379.55,335.14c-.54,1.67-1.18,3.42-1.89,5v16.89h-1.77V343.62A26.24,26.24,0,0,1,374,346.5a13.11,13.11,0,0,0-1-1.87,29.48,29.48,0,0,0,4.92-10Zm5.24,7.79a15,15,0,0,1-1.43,1.92h10.75v10.4c0,.81-.15,1.2-.72,1.5a6.57,6.57,0,0,1-2.46.27,5.5,5.5,0,0,0-.54-1.48,14.66,14.66,0,0,0,1.67,0c.25,0,.3-.07.3-.32V353.4h-3.83v3.13h-1.68V353.4h-4.22a9.16,9.16,0,0,1-1.63,3.81,6.1,6.1,0,0,0-1.45-1.1c1.48-1.94,1.63-4.53,1.63-6.57v-2.6a22.51,22.51,0,0,1-2.12,1.47A12.08,12.08,0,0,0,378,347a14.74,14.74,0,0,0,4.84-4h-3.56v-1.69h4.4v-2.39H380v-1.67h3.71v-2.41h1.74v2.41h4.11v-2.41h1.77v2.41h3.32v1.67h-3.32v2.39h4v1.69Zm2.06,9.07v-2.14H383a20.26,20.26,0,0,1-.13,2.14Zm-3.9-3.54h3.9V346.4H383Zm2.45-7.22h4.11v-2.39H385.4Zm7,5.16h-3.83v2.06h3.83Zm0,5.6v-2.14h-3.83V352Z"/><path class="cls-2" d="M420.85,354.63c0,1.18-.32,1.72-1.1,2a16,16,0,0,1-4.58.3,6.89,6.89,0,0,0-.61-1.77c1.72.07,3.39.05,3.83.05s.67-.17.67-.64v-5h-6.61v7.25h-1.82v-7.25h-6.15a14.1,14.1,0,0,1-3.07,7.62A6,6,0,0,0,400,356c2.7-3,2.95-7.37,2.95-10.79v-8.85h17.89Zm-10.22-6.76v-4.08h-5.88v1.45c0,.81,0,1.72-.1,2.63Zm-5.88-9.73v3.93h5.88v-3.93Zm14.31,0h-6.61v3.93h6.61Zm0,9.73v-4.08h-6.61v4.08Z"/><path class="cls-2" d="M428.28,346.42H437v10.47h-1.8v-1.1H430v1.33h-1.74Zm1.74,1.77V354h5.14v-5.83Zm15.2-4.35H431.84V335.7h13.38Zm-1.85-6.39h-9.76v4.65h9.76Zm5.41,9v10.52H447v-1.15h-5.58v1.33h-1.77v-10.7ZM447,354v-5.83h-5.58V354Z"/><path class="cls-2" d="M365.34,396.94c-.24-.66-.78-1.82-1.3-2.85v12.17h-1.6v-11.7a26.62,26.62,0,0,1-2.31,6.44,13,13,0,0,0-.78-1.77,31.45,31.45,0,0,0,2.95-9h-2.46v-1.73h2.6v-4.71H364v4.71H366v1.73H364v1.59c.54.86,1.87,3.15,2.19,3.74Zm15.05,1.82a13.85,13.85,0,0,1-3,3.93,3.49,3.49,0,0,0,2.56,1.77c.52.05.84-.88,1-2.65a5.39,5.39,0,0,0,1.23.93c-.46,2.68-1.23,3.59-2.21,3.52a4.94,4.94,0,0,1-3.88-2.51,19.92,19.92,0,0,1-4.31,2.39,6,6,0,0,0-1-1.16,17.44,17.44,0,0,0,4.57-2.56,24.29,24.29,0,0,1-1.42-4.49h-4v.36a5.62,5.62,0,0,1,0,.57,38.29,38.29,0,0,1,3.39,2.92l-1.13,1.11c-.57-.59-1.53-1.5-2.49-2.31a9.52,9.52,0,0,1-3.61,5.73,5,5,0,0,0-1.2-1.11,8.26,8.26,0,0,0,3.49-6.93v-.34H366.5v-1.48h7.18A95.65,95.65,0,0,1,372.62,384h1.57a85.87,85.87,0,0,0,1.08,12.44h3.52a18,18,0,0,0-2.19-1.57l.94-.86a16.4,16.4,0,0,1,2.55,1.77l-.64.66h2v1.48h-5.92a20,20,0,0,0,1.06,3.36,11.3,11.3,0,0,0,2.18-3.09Zm-8.7-3.69c-.08-.29-.18-.64-.27-1-3.52.54-4.09.64-4.43.84a7.34,7.34,0,0,0-.42-1.38c.35-.07.76-.49,1.26-1.11.24-.29.88-1.15,1.57-2.21a10.66,10.66,0,0,0-2.63.52,8,8,0,0,0-.42-1.35c.3-.08.59-.4.91-.91a20.71,20.71,0,0,0,2.07-4.23l1.37.44a24.38,24.38,0,0,1-2.46,4.45l1.95-.2c.29-.54.59-1.08.83-1.64l1.33.51a33,33,0,0,1-3.69,5.44l2.39-.32c-.18-.54-.37-1.06-.57-1.55l1.16-.32a24,24,0,0,1,1.25,3.64Zm8.87-.41a10.12,10.12,0,0,0-.32-1.11c-3.56.57-4.15.69-4.45.86-.1-.29-.32-1.06-.49-1.43.39-.07.76-.49,1.23-1.08a20.86,20.86,0,0,0,1.47-2.19,8.75,8.75,0,0,0-2.48.5,8.68,8.68,0,0,0-.47-1.38c.3,0,.57-.34.86-.81a18.41,18.41,0,0,0,1.77-3.86l1.38.42a24.59,24.59,0,0,1-2.14,4l1.8-.2a16.79,16.79,0,0,0,.86-1.69l1.4.51a34.71,34.71,0,0,1-3.59,5.51l2.46-.35-.59-1.47,1.1-.32a27.59,27.59,0,0,1,1.38,3.64Z"/><path class="cls-2" d="M393.15,396.45c-.27-.61-.89-1.79-1.43-2.78v12.56H390V395.57a27.33,27.33,0,0,1-2.61,6.17,9.54,9.54,0,0,0-.93-1.68,28.17,28.17,0,0,0,3.54-9.19v-.15h-2.86V389H390v-5.18h1.69V389h2.17v1.72h-2.17v.74c.54.76,2.09,3.07,2.46,3.66Zm6.19,7.2v-6.49H397.5c-.12,2.9-.66,5.83-2.78,8.24a5.17,5.17,0,0,0-1.2-1,11.12,11.12,0,0,0,2.55-7.28H394.6v-1.62h1.5v-4.2h1.42v4.2h1.82v-4.2h1.48v4.2h1.35v1.62h-1.35v6.49Zm9.39-11.35a28,28,0,0,1-3.29,8.57c.54,2.29,1.18,3.64,1.77,3.64.37,0,.59-1.15.69-3.66a3.83,3.83,0,0,0,1.3.89c-.25,3.34-.76,4.45-2.16,4.45-1.13,0-2.07-1.33-2.78-3.54a19.14,19.14,0,0,1-3.47,3.44,10.2,10.2,0,0,0-1.3-1,15.6,15.6,0,0,0,4.23-4.3,66.22,66.22,0,0,1-1.33-10.64h-7.64v-1.67h7.54c-.07-1.5-.1-3-.12-4.6h1.7c0,1.57,0,3.12.07,4.6h4.89v1.67H404a76.32,76.32,0,0,0,.93,8.5,27.11,27.11,0,0,0,2.21-6.53Zm-1.79-4.48a11.44,11.44,0,0,0-2.21-2.75l1.18-.71a11.88,11.88,0,0,1,2.28,2.68Z"/><path class="cls-2" d="M418,390.7v1.45c0,4.18-.37,10.15-2.87,14.16a6.59,6.59,0,0,0-1.6-.94c2.46-3.86,2.65-9.29,2.65-13.22V385h18.27v5.71Zm0-4.11v2.51h14.63v-2.51ZM434.62,400a30.58,30.58,0,0,1-3.91,2.48,13.63,13.63,0,0,0,5.48,2.31,5.84,5.84,0,0,0-1.13,1.53,13,13,0,0,1-9.14-7.4h-3.39v5l5.28-1.18a6.74,6.74,0,0,0-.07,1.53c-6.15,1.5-6.94,1.72-7.4,2a5,5,0,0,0-.72-1.55,2.09,2.09,0,0,0,1.18-1.87v-4h-2.65v-1.6h4.33v-2.58h-3.67v-1.57h3.67v-2.22h1.72v2.22h4.89v-2.22h1.72v2.22h4.13v1.57h-4.13v2.58h5.11v1.6h-8.31a10.14,10.14,0,0,0,2,2.6,36.28,36.28,0,0,0,3.66-2.45Zm-10.42-2.68h4.89v-2.58H424.2Z"/><path class="cls-2" d="M698.33,335.78v21.38h-1.8V356H679.67v1.13h-1.75V335.78Zm-1.8,18.61V337.45H679.67v16.94Zm-8.33-3.74c-2.56.49-5.16,1-7.18,1.38l-.24-1.38c1.86-.29,4.59-.79,7.35-1.28Zm6.1-7.15a19.23,19.23,0,0,1-2.73,6c.51,1.3,1.18,2.14,2,2.26.34.1.59-1,.76-2.53a5,5,0,0,0,1.18.81c-.32,2.68-1.16,3.66-2.43,3.17a3.93,3.93,0,0,1-2.56-2.38,15.49,15.49,0,0,1-3.24,2.82,10.59,10.59,0,0,0-1.09-1.15,13.21,13.21,0,0,0,3.72-3.22,35,35,0,0,1-1.36-7.25H681v-1.38h7.4c-.07-.86-.15-1.72-.2-2.61h1.58c.05.89.1,1.75.14,2.61h5.36v1.38h-5.23a34.8,34.8,0,0,0,.91,5.65,17.24,17.24,0,0,0,1.82-4.52Zm-7,.1v4.76h-5.43V343.6ZM686,344.75h-2.83v2.46H686Zm7.81-4.35a10,10,0,0,0-2.63-1.72l.86-.91a10.66,10.66,0,0,1,2.66,1.67Z"/><path class="cls-2" d="M711.68,336.24c-.69,2-1.58,4.43-2.36,6.4a7.94,7.94,0,0,1,2.14,5.31,3.53,3.53,0,0,1-.94,2.85,2.59,2.59,0,0,1-1.23.46,8.72,8.72,0,0,1-1.62,0,3.64,3.64,0,0,0-.44-1.55,13.89,13.89,0,0,0,1.4,0,1.26,1.26,0,0,0,.71-.25,2.09,2.09,0,0,0,.52-1.7,7.46,7.46,0,0,0-2.12-5c.69-1.77,1.38-3.88,1.87-5.53h-3.14V357h-1.6V335.66h5.41l.27-.1Zm3.12,6.67a11.72,11.72,0,0,0,.93-1.4,15.27,15.27,0,0,0-2.18-2,15.65,15.65,0,0,1-1.75,2.06,10.83,10.83,0,0,0-1.2-.93,13.93,13.93,0,0,0,3.83-6l1.43.32c-.18.54-.37,1-.59,1.55h2.58l.27-.05,1,.34a17.61,17.61,0,0,1-3.62,7.6h7.11a22,22,0,0,1-3.47-7.08l1-.27V336h4.62l.3-.07,1,.62a18.85,18.85,0,0,1-3.27,5.6,11.81,11.81,0,0,0,3.71,3.79,5.76,5.76,0,0,0-1.08,1.27,12.42,12.42,0,0,1-2.77-2.63V346h-7.6V344.9a13,13,0,0,1-2.61,2.21,5.49,5.49,0,0,0-1-1.13,12.46,12.46,0,0,0,3.27-3c-1.25.22-2.38.39-3.52.59l-.22-1.28c1.09-.1,2.29-.25,3.76-.42Zm1.28,8.62a31,31,0,0,1-3.42,4.53,10.65,10.65,0,0,0-1.47-1,22.25,22.25,0,0,0,3.26-4.11Zm3.68-1.76v7.32H718v-7.32h-5.38v-1.53h12.49v1.53Zm-5.16-11.93c-.12.22-.27.45-.39.64a26.85,26.85,0,0,1,2.16,1.82,18,18,0,0,0,1-2.46Zm6-.54a19.45,19.45,0,0,0,1.45,3.49,16.94,16.94,0,0,0,2-3.49Zm2.34,13.52c1.22,1.3,2.8,3.1,3.58,4.16l-1.37.93c-.79-1.08-2.34-3-3.54-4.3Z"/><path class="cls-2" d="M676.05,384.45a6.26,6.26,0,0,1-.46.59A27.27,27.27,0,0,0,686,390.62a9,9,0,0,0-1.23,1.55,30,30,0,0,1-6.69-3.24V390h-6.83V388.9a27.56,27.56,0,0,1-6.67,3.27,7,7,0,0,0-1.18-1.52c4.33-1.3,8.73-3.84,10.94-7Zm-.61,18.37a10.18,10.18,0,0,0,0,1.55c-6.45,1.22-7.31,1.42-7.87,1.72a5.16,5.16,0,0,0-.84-1.38,2,2,0,0,0,.94-1.79V391h13.86v7.6H669.44v5.21Zm-6-10.4v1.77h10.25v-1.77Zm10.25,4.82v-1.75H669.44v1.75Zm-2-8.56a21.52,21.52,0,0,1-3.17-2.48,21.2,21.2,0,0,1-3,2.48Zm6.41,10.62a33.72,33.72,0,0,1-4.62,3c1.62,1,3.15,1.91,4.2,2.68l-1.3,1.23a77.68,77.68,0,0,0-9.19-5.63l1.2-1.06c1.11.59,2.36,1.23,3.59,1.94a35.91,35.91,0,0,0,4.75-3.17Z"/><path class="cls-2" d="M691.47,395.59h8.68v10.47h-1.8V405h-5.13v1.32h-1.75Zm1.75,1.77v5.83h5.13v-5.83ZM708.41,393H695v-8.14h13.38Zm-1.85-6.39H696.8v4.64h9.76Zm5.41,9v10.52h-1.79V405H704.6v1.32h-1.77V395.59Zm-1.79,7.6v-5.83H704.6v5.83Z"/><path class="cls-2" d="M721.76,390.7v1.45c0,4.18-.37,10.15-2.88,14.16a6.24,6.24,0,0,0-1.6-.94c2.46-3.86,2.66-9.29,2.66-13.22V385H738.2v5.71Zm0-4.11v2.51h14.62v-2.51ZM738.37,400a29.8,29.8,0,0,1-3.9,2.48,13.57,13.57,0,0,0,5.48,2.31,5.62,5.62,0,0,0-1.13,1.53,13,13,0,0,1-9.15-7.4h-3.39v5l5.28-1.18a6.74,6.74,0,0,0-.07,1.53c-6.14,1.5-6.93,1.72-7.4,2a5,5,0,0,0-.71-1.55,2.11,2.11,0,0,0,1.18-1.87v-4H721.9v-1.6h4.33v-2.58h-3.66v-1.57h3.66v-2.22H728v2.22h4.89v-2.22h1.72v2.22h4.13v1.57h-4.13v2.58h5.12v1.6h-8.31a9.88,9.88,0,0,0,2,2.6,36.49,36.49,0,0,0,3.67-2.45ZM728,397.31h4.89v-2.58H728Z"/><rect class="cls-5" x="642.23" y="61.44" width="34.14" height="34.14"/><rect class="cls-5" x="570.87" y="80.21" width="38.92" height="15.71"/><rect class="cls-5" x="355.76" y="80.21" width="38.92" height="15.71"/><rect class="cls-5" x="188.45" y="80.21" width="74.43" height="15.71"/><rect class="cls-5" x="284.74" y="80.21" width="53.95" height="15.71"/><rect class="cls-5" x="428.14" y="80.21" width="73.07" height="15.71"/><circle class="cls-2" cx="70.63" cy="655.32" r="4.12"/><path class="cls-2" d="M75.27,661.18H66c-2,0-3.39,2.79-2.47,5.16l5.23,13.5a2,2,0,0,0,3.76,0l5.23-13.5C78.66,664,77.32,661.18,75.27,661.18Z"/><circle class="cls-2" cx="90.57" cy="655.32" r="4.12" transform="translate(-46.23 8.07) rotate(-4.07)"/><path class="cls-2" d="M84.75,681.22H96.39c2.06,0,3.4-2.55,2.48-4.72l-6.14-14.27a2,2,0,0,0-1.89-1.36H90.4a2,2,0,0,0-1.88,1.35L82.28,676.5C81.36,678.67,82.7,681.22,84.75,681.22Z"/><rect class="cls-3" x="646.33" y="639.35" width="154.33" height="53.95"/><circle class="cls-2" cx="716.3" cy="655.32" r="4.12"/><path class="cls-2" d="M720.93,661.18h-9.27c-2,0-3.39,2.79-2.47,5.16l5.23,13.5a2,2,0,0,0,3.76,0l5.23-13.5C724.33,664,723,661.18,720.93,661.18Z"/><circle class="cls-2" cx="736.24" cy="655.32" r="4.12" transform="translate(-44.6 53.84) rotate(-4.07)"/><path class="cls-2" d="M730.42,681.22h11.64c2.06,0,3.39-2.55,2.48-4.72l-6.15-14.27a2,2,0,0,0-1.89-1.36h-.43a2,2,0,0,0-1.88,1.35L728,676.5C727,678.67,728.36,681.22,730.42,681.22Z"/><rect class="cls-3" x="188.45" y="639.35" width="52.71" height="53.95"/><circle class="cls-2" cx="204.24" cy="656.44" r="4.12"/><path class="cls-2" d="M208.88,662.3h-9.27c-2.06,0-3.39,2.79-2.47,5.16l5.23,13.5a2,2,0,0,0,3.75,0l5.23-13.5C212.27,665.09,210.94,662.3,208.88,662.3Z"/><circle class="cls-2" cx="224.19" cy="656.44" r="4.12" transform="translate(-45.97 17.54) rotate(-4.07)"/><path class="cls-2" d="M218.37,682.34H230c2.05,0,3.39-2.56,2.47-4.73l-6.14-14.26a2,2,0,0,0-1.89-1.36H224a2,2,0,0,0-1.89,1.35l-6.24,14.27C215,679.78,216.31,682.34,218.37,682.34Z"/><rect class="cls-3" x="300.08" y="639.35" width="52.13" height="53.95"/><ellipse class="cls-2" cx="320.25" cy="660.14" rx="3" ry="2.91"/><path class="cls-2" d="M323.62,664.28h-6.74c-1.5,0-2.47,2-1.8,3.65l3.8,9.55a1.45,1.45,0,0,0,2.74,0l3.8-9.55C326.09,666.25,325.12,664.28,323.62,664.28Z"/><ellipse class="cls-2" cx="332.29" cy="660.14" rx="3" ry="2.91"/><path class="cls-2" d="M335.67,664.28h-6.75c-1.49,0-2.47,2-1.8,3.65l3.81,9.55a1.44,1.44,0,0,0,2.73,0l3.81-9.55C338.13,666.25,337.16,664.28,335.67,664.28Z"/><polygon class="cls-2" points="343.15 682.84 309.14 682.84 309.14 652.47 311.53 652.47 311.53 680.63 340.77 680.63 340.77 652.47 343.15 652.47 343.15 682.84"/><polygon class="cls-2" points="316.41 654.97 314.81 653.41 320.39 647.99 325.69 653.15 324.09 654.71 320.39 651.11 316.41 654.97"/><polygon class="cls-2" points="332.16 654.8 326.85 649.65 328.46 648.09 332.16 651.68 336.13 647.82 337.74 649.38 332.16 654.8"/><rect class="cls-3" x="557.66" y="639.35" width="52.13" height="53.95"/><circle class="cls-2" cx="573.16" cy="656.44" r="4.12"/><path class="cls-2" d="M577.8,662.3h-9.27c-2.06,0-3.4,2.79-2.48,5.16l5.23,13.5a2,2,0,0,0,3.76,0l5.23-13.5C581.19,665.09,579.85,662.3,577.8,662.3Z"/><circle class="cls-2" cx="593.1" cy="656.44" r="4.12" transform="translate(-45.04 43.7) rotate(-4.07)"/><path class="cls-2" d="M587.28,682.34h11.65c2.05,0,3.39-2.56,2.47-4.73l-6.14-14.26a2,2,0,0,0-1.89-1.36h-.43a2,2,0,0,0-1.89,1.35l-6.24,14.27C583.89,679.78,585.23,682.34,587.28,682.34Z"/><rect class="cls-3" x="446.03" y="639.35" width="52.71" height="53.95"/><ellipse class="cls-2" cx="466.49" cy="660.14" rx="3" ry="2.91"/><path class="cls-2" d="M469.86,664.28h-6.74c-1.5,0-2.47,2-1.8,3.65l3.81,9.55a1.44,1.44,0,0,0,2.73,0l3.8-9.55C472.33,666.25,471.36,664.28,469.86,664.28Z"/><ellipse class="cls-2" cx="478.54" cy="660.14" rx="3" ry="2.91"/><path class="cls-2" d="M481.91,664.28h-6.75c-1.49,0-2.46,2-1.8,3.65l3.81,9.55a1.44,1.44,0,0,0,2.73,0l3.81-9.55C484.38,666.25,483.4,664.28,481.91,664.28Z"/><polygon class="cls-2" points="489.39 682.84 455.38 682.84 455.38 652.47 457.77 652.47 457.77 680.63 487.01 680.63 487.01 652.47 489.39 652.47 489.39 682.84"/><polygon class="cls-2" points="462.66 654.97 461.05 653.41 466.63 647.99 471.93 653.15 470.33 654.71 466.63 651.11 462.66 654.97"/><polygon class="cls-2" points="478.4 654.8 473.1 649.65 474.7 648.09 478.4 651.68 482.37 647.82 483.98 649.38 478.4 654.8"/><path class="cls-2" d="M412.41,653.93l-10.63,10.63c.11-2-1.12-3.95-2.85-3.95h-9.57c-2.12,0-3.5,2.88-2.55,5.33l3.79,9.8L388,678.31h-6.11v4h7.78L414.08,658h5.66v-4Z"/><circle class="cls-2" cx="394.14" cy="654.57" r="4.25" transform="translate(-290.71 993.38) rotate(-85.27)"/><polygon class="cls-2" points="408.79 671.85 412.63 671.85 405.35 679.13 408.19 681.98 415.48 674.7 415.48 678.53 419.5 678.53 419.5 667.82 408.79 667.82 408.79 671.85"/><rect class="cls-3" x="244.41" y="639.35" width="52.42" height="53.95"/><circle class="cls-2" cx="270.62" cy="656.83" r="4.51" transform="translate(-45.88 20.84) rotate(-4.07)"/><rect class="cls-2" x="267.33" y="663.23" width="6.75" height="19.1" rx="1"/><rect class="cls-3" x="501.99" y="639.35" width="52.42" height="53.95"/><rect class="cls-2" x="524.6" y="652.32" width="7.19" height="30.01" rx="1"/><rect class="cls-2" x="524.6" y="652.94" width="7.19" height="28.78" rx="1" transform="translate(-139.13 1195.53) rotate(-90)"/><rect class="cls-6" x="68.04" y="184.01" width="17.87" height="19.3"/><polygon class="cls-2" points="179.72 715.63 165.82 715.63 172.77 704.87 179.72 715.63"/><polygon class="cls-2" points="179.72 693.44 165.82 693.44 172.77 682.68 179.72 693.44"/><polygon class="cls-2" points="179.72 671.25 165.82 671.25 172.77 660.48 179.72 671.25"/></g></g></svg>