<svg xmlns="http://www.w3.org/2000/svg" viewBox="0 0 43.94 42"><defs><style>.cls-1{fill:#fff;}.cls-2{fill:none;stroke:#e50012;stroke-miterlimit:10;stroke-width:2px;}.cls-3{fill:#e50012;}</style></defs><g id="圖層_2" data-name="圖層 2"><g id="圖層_1-2" data-name="圖層 1"><path class="cls-1" d="M28.12,42A11,11,0,0,1,22,40.1,10.95,10.95,0,0,1,4.86,31a10.75,10.75,0,0,1,.4-2.94A11,11,0,0,1,11,7.78h.51a11,11,0,0,1,21,0H33a11,11,0,0,1,5.7,20.32A10.76,10.76,0,0,1,39.09,31,11,11,0,0,1,28.12,42Z"/><path class="cls-2" d="M41.4,18.74A8.42,8.42,0,0,0,33,10.33a8.28,8.28,0,0,0-2.6.41,8.41,8.41,0,0,0-16.82,0,8.28,8.28,0,0,0-2.6-.41A8.42,8.42,0,0,0,8.55,26.81,8.3,8.3,0,0,0,7.4,31,8.41,8.41,0,0,0,22,36.77a8.41,8.41,0,0,0,13.42-10A8.44,8.44,0,0,0,41.4,18.74Z"/><path class="cls-3" d="M16.16,26.05l3.55-.39a2.93,2.93,0,0,0,.92,1.88,2.6,2.6,0,0,0,1.8.66,2.56,2.56,0,0,0,1.91-.79,2.85,2.85,0,0,0,.78-2.11,2.65,2.65,0,0,0-.75-2,2.47,2.47,0,0,0-1.81-.74,6.76,6.76,0,0,0-1.68.25l.4-2.72a3.43,3.43,0,0,0,2.27-.59,2,2,0,0,0,.79-1.65,1.79,1.79,0,0,0-.58-1.4,2.17,2.17,0,0,0-1.53-.53,2.31,2.31,0,0,0-1.6.6,2.6,2.6,0,0,0-.81,1.73l-3.38-.52a6.31,6.31,0,0,1,1.06-2.52,4.75,4.75,0,0,1,2-1.49,7.25,7.25,0,0,1,2.86-.54,6,6,0,0,1,4.33,1.57A3.9,3.9,0,0,1,28,17.66q0,2.28-2.76,3.65a4.52,4.52,0,0,1,2.63,1.44,3.91,3.91,0,0,1,1,2.69A5,5,0,0,1,27,29.35,6.74,6.74,0,0,1,22.46,31a6.68,6.68,0,0,1-4.31-1.36A5.18,5.18,0,0,1,16.16,26.05Z"/></g></g></svg>