<?xml version="1.0" encoding="utf-8"?>
<!-- Generator: Adobe Illustrator 24.2.3, SVG Export Plug-In . SVG Version: 6.00 Build 0)  -->
<svg version="1.1" id="圖層_1" xmlns="http://www.w3.org/2000/svg" xmlns:xlink="http://www.w3.org/1999/xlink" x="0px" y="0px"
	 viewBox="0 0 16 16" style="enable-background:new 0 0 16 16;" xml:space="preserve">
<style type="text/css">
	.st0{fill:#CC462E;}
	.st1{fill:#FFFFFF;}
</style>
<g>
	<rect class="st0" width="16" height="16"/>
	<path class="st1" d="M10.4,4.1c-0.7-1.4-2-1.4-2.3-1.4c-1.4,0-2.2,1-2.2,2.2c0,1.3,0.9,1.7,2,2.2c1.1,0.6,1.7,0.8,2.3,1.2
		c0.5,0.3,1.2,1,1.2,2.2c0,1.9-1.6,3.4-3.6,3.4c-1.5,0-2.3-0.7-2.7-1.2c-0.5-0.5-0.6-1-0.7-1.3l0.7-0.3c0.2,0.5,0.5,0.9,0.6,1.1
		c0.5,0.7,1.4,1,2.2,1c1.6,0,2.8-1.1,2.8-2.7c0-0.6-0.2-1.3-1.1-1.8c-0.3-0.2-1-0.5-2-1C6.5,7.2,5.9,6.9,5.5,6.2
		C5.3,5.8,5.1,5.4,5.1,4.9c0-1.3,0.9-2.9,3-2.9c1.2,0,2.2,0.6,2.8,1.7L10.4,4.1z"/>
</g>
</svg>
