<svg xmlns="http://www.w3.org/2000/svg" viewBox="0 0 367.79 286.62"><defs><style>.cls-1{fill:#c79f62;}</style></defs><g id="圖層_2" data-name="圖層 2"><g id="完稿"><path class="cls-1" d="M350.41,74.83c-6,0-11.1,6.23-22.34,6.23C254.31,81.06,185.91,43.81,185.91,0h-4c0,43.81-68.4,81.06-142.15,81.06-11.24,0-16.32-6.23-22.35-6.23C11.9,74.83,8,78.4,8,82.94s3.93,8.12,9.4,8.12c6,0,11.11-6.23,22.35-6.23,73.75,0,142.15,37.25,142.15,81.06h4c0-43.81,68.4-81.06,142.16-81.06,11.24,0,16.32,6.23,22.34,6.23,5.48,0,9.41-3.57,9.41-8.12S355.89,74.83,350.41,74.83Z"/><path class="cls-1" d="M352.37,267a63.37,63.37,0,0,1-12.27-17.74,86.63,86.63,0,0,1-6.58-21.05,144,144,0,0,1-2.22-22.31h-3.86a144,144,0,0,1-2.22,22.31,87.07,87.07,0,0,1-6.58,21.05A63.4,63.4,0,0,1,306.36,267a64.62,64.62,0,0,1-15.11,11.28.58.58,0,0,0-.29.62l1.45,7.14a.44.44,0,0,0,.06.16h0a.59.59,0,0,0,.8.23,73.4,73.4,0,0,0,18.26-14.57,69.85,69.85,0,0,0,12.62-20.19,86.17,86.17,0,0,0,4.65-15.25.58.58,0,0,1,1.13,0,87,87,0,0,0,4.66,15.25,69.85,69.85,0,0,0,12.62,20.19,73,73,0,0,0,18.26,14.57.58.58,0,0,0,.79-.23h0a1,1,0,0,0,.05-.16l1.45-7.14a.56.56,0,0,0-.29-.62A65,65,0,0,1,352.37,267Z"/><path class="cls-1" d="M105.47,266.5a56.49,56.49,0,0,1-2,6.38,30.47,30.47,0,0,1-2.63,5.34.57.57,0,0,0,.13.77l2.2,1.66a.56.56,0,0,0,.8-.1,34.77,34.77,0,0,0,3.56-5.88,60.54,60.54,0,0,0,2.76-6.7,93.91,93.91,0,0,0,3.55-13.31.58.58,0,0,0-.49-.68l-4.88-.69a.57.57,0,0,0-.65.51A89.7,89.7,0,0,1,105.47,266.5Z"/><path class="cls-1" d="M129.5,253.86l1.75,16.25a.58.58,0,0,0,.68.51l4.82-.84a.57.57,0,0,0,.46-.7l-3.84-15.89a.58.58,0,0,0-.66-.44l-2.74.48A.57.57,0,0,0,129.5,253.86Z"/><path class="cls-1" d="M167.06,278V213.41a.57.57,0,0,1,.58-.58c5.46,0,10.91.19,16.36.53a.58.58,0,0,0,.62-.58v-2.86a.57.57,0,0,0-.62-.57c-7,.43-14,.53-21,.55-6.8,0-13.59-.12-20.39-.52a.58.58,0,0,0-.6.69l.56,2.76a.59.59,0,0,0,.6.47c5.05-.29,10.11-.42,15.16-.47a.57.57,0,0,1,.58.58V278a.57.57,0,0,1-.58.58q-3.8,0-7.59-.13c-3.73-.08-7.45-.24-11.18-.47a.58.58,0,0,0-.6.69l.7,3.45a.57.57,0,0,0,.6.46q5.24-.31,10.48-.44c4.08-.11,8.17-.14,12.26-.15s8.18,0,12.27.15q5.82.13,11.64.5a.58.58,0,0,0,.62-.57v-3.54a.58.58,0,0,0-.62-.58q-5.82.38-11.64.5-3.81.1-7.6.13A.57.57,0,0,1,167.06,278Z"/><path class="cls-1" d="M133.72,243.47l.62,2a.59.59,0,0,0,.78.36l3.89-1.56a.57.57,0,0,0,.31-.79l-5.49-11.25a.59.59,0,0,0-.74-.29l-2.19.88a.56.56,0,0,0-.33.71l1.69,5.36a.38.38,0,0,1-.28.49c-1.89.37-3.76.76-5.63,1.15-3,.62-6,1.23-9,1.81l-2.59.49a.38.38,0,0,1-.33-.64h0a93.77,93.77,0,0,0,7.05-7.88c2.2-2.74,4.29-5.58,6.23-8.53a69.29,69.29,0,0,0,5-8.86.58.58,0,0,0-.31-.78l-4.57-1.86a.57.57,0,0,0-.76.32A65.46,65.46,0,0,1,123,222.8q-2.15,3.69-4.61,7.22a.38.38,0,0,1-.55.07L110.68,224a.38.38,0,0,1,0-.54c.8-.91,1.56-1.84,2.3-2.78q1.92-2.46,3.64-5.05a69.25,69.25,0,0,0,5.86-10.45.59.59,0,0,0-.33-.78l-4.61-1.71a.59.59,0,0,0-.76.36,64,64,0,0,1-4.44,10c-.93,1.72-1.92,3.42-3,5.06-.67,1.05-1.37,2.08-2.1,3.07l0,0L105,223.54a.6.6,0,0,0,0,.8l9.45,10.53a.38.38,0,0,1,0,.49c-1,1.27-2.07,2.52-3.16,3.73A50.77,50.77,0,0,1,106,244.2a.41.41,0,0,1-.19.08c-1.72.23-3.43.43-5.12.57a.58.58,0,0,0-.52.7l1,4.79a.6.6,0,0,0,.66.47c2.61-.4,5.16-.9,7.68-1.45s5.15-1.19,7.7-1.84a.38.38,0,0,1,.47.36V286a.58.58,0,0,0,.58.58h6.33a.58.58,0,0,0,.58-.58V245.7a.4.4,0,0,1,.28-.37l2-.53c2-.54,3.93-1.08,5.89-1.59A.37.37,0,0,1,133.72,243.47Z"/><path class="cls-1" d="M35.21,230a51.07,51.07,0,0,1-5.86,4.67,46.19,46.19,0,0,1-6,3.51.57.57,0,0,0-.28.74l1.05,2.54a.58.58,0,0,0,.75.31,51,51,0,0,0,6.84-3.35,55.13,55.13,0,0,0,6.74-4.63,44.81,44.81,0,0,0,6-5.77,28,28,0,0,0,4.21-6.42l.37.08v13.75a.57.57,0,0,0,.57.58h5.66a.58.58,0,0,0,.58-.58V221.69l.37-.08A28,28,0,0,0,60.45,228a44.15,44.15,0,0,0,6,5.77,56,56,0,0,0,6.75,4.63A50.26,50.26,0,0,0,80,241.78a.57.57,0,0,0,.75-.31l1-2.54a.57.57,0,0,0-.28-.74,46.86,46.86,0,0,1-6-3.51A51.84,51.84,0,0,1,69.72,230a38.78,38.78,0,0,1-4.92-5.45A25.71,25.71,0,0,1,63.12,222a.58.58,0,0,1,.51-.87l3,.06,6.85.16c2.08.08,4.16.14,6.24.24a.59.59,0,0,0,.61-.58v-2.87a.58.58,0,0,0-.61-.58c-2.08.1-4.16.15-6.24.23l-6.85.16c-3.4.08-6.81.12-10.22.15a.58.58,0,0,1-.58-.58v-7.09a.57.57,0,0,1,.5-.57c1.6-.22,3.19-.45,4.79-.7,3-.48,6-1,9.11-1.71a.59.59,0,0,0,.44-.68l-.85-4.15a.58.58,0,0,0-.72-.45c-2.85.82-5.86,1.5-8.86,2.12-3.31.69-6.64,1.3-10,1.86-6,1-12,1.86-18.1,2.48a.57.57,0,0,0-.51.69l.48,2.35a.57.57,0,0,0,.6.46c5.23-.28,10.44-.73,15.64-1.3a.58.58,0,0,1,.65.57v6.15a.58.58,0,0,1-.58.58c-3.07,0-6.13,0-9.19-.06l-6.84-.1c-1.87-.06-3.74-.09-5.61-.16a.58.58,0,0,0-.59.7l.48,2.34a.57.57,0,0,0,.58.47c1.71-.06,3.43-.1,5.14-.15l6.84-.1,2.05,0a.57.57,0,0,1,.51.86,23.23,23.23,0,0,1-1.73,2.66A39.33,39.33,0,0,1,35.21,230Z"/><path class="cls-1" d="M19.55,215.87,8.36,204.48a.57.57,0,0,0-.78,0l-2.16,1.78a.59.59,0,0,0-.11.78l9.07,13.14a.59.59,0,0,0,.85.12l4.28-3.54A.58.58,0,0,0,19.55,215.87Z"/><path class="cls-1" d="M36.13,278.53l-1.34,0H33.57c-.39,0-.77-.05-1.16-.07h0l-1.14-.14A15,15,0,0,1,26.88,277a13.32,13.32,0,0,1-3.61-2.74,19.6,19.6,0,0,1-4.22-7.69s0,0,0-.07a66.11,66.11,0,0,1-.85-9.16c-.1-3.11,0-6.23,0-9.34l.1-4.67.17-4.67c.13-2.91.29-5.81.55-8.71a.59.59,0,0,0-.58-.64H1.86a.58.58,0,0,0-.57.7l.59,2.93a.59.59,0,0,0,.57.46h8.22a.58.58,0,0,1,.58.54c.1,1.58.18,3.15.25,4.72l.17,4.67.1,4.67c0,3.11.1,6.23,0,9.34,0,1.43-.12,2.86-.24,4.28a.15.15,0,0,1,0,.07,29.15,29.15,0,0,1-2.18,7A26.51,26.51,0,0,1,.25,279.46a.59.59,0,0,0-.17.78l1.4,2.35a.58.58,0,0,0,.79.21,30.83,30.83,0,0,0,11.39-12c.27-.5.52-1,.76-1.51a.58.58,0,0,1,1.07.06,23,23,0,0,0,4.41,7.93,18.26,18.26,0,0,0,4.75,3.84,19.93,19.93,0,0,0,5.73,2c.49.09,1,.16,1.48.23s1,.11,1.48.13l1.45.06,1.34,0,5.34.1,42.17.75a.59.59,0,0,0,.59-.58v-5.58a.58.58,0,0,0-.59-.58l-42.17.74Z"/><path class="cls-1" d="M72,258.09a16.59,16.59,0,0,1-1.26,5.55,8.69,8.69,0,0,1-3.36,3.93,12.82,12.82,0,0,1-4.4,1.6.58.58,0,0,0-.46.68l.56,2.76a.58.58,0,0,0,.63.46,16.84,16.84,0,0,0,5.82-1.63,13.39,13.39,0,0,0,5.66-5.52,21.57,21.57,0,0,0,2.33-7.15,49.36,49.36,0,0,0,.55-6.86h0v-1.57a.58.58,0,0,0-.58-.58H63.57A.58.58,0,0,1,63,249l1.76-5.28a.57.57,0,0,1,.58-.39c1,.06,2,.12,3,.2a.58.58,0,0,0,.62-.58v-2.83a.57.57,0,0,0-.62-.58c-5.46.43-10.93.53-16.39.55-5.29,0-10.58-.12-15.87-.51a.57.57,0,0,0-.61.69L36,243a.59.59,0,0,0,.61.46c1.76-.12,3.53-.22,5.29-.29a.59.59,0,0,1,.6.63,27,27,0,0,1-1.27,6,38.23,38.23,0,0,1-3.16,7.05,44.59,44.59,0,0,1-4.48,6.46,40.58,40.58,0,0,1-5.14,5.18.58.58,0,0,0-.1.79l1.64,2.2a.57.57,0,0,0,.8.12,43.71,43.71,0,0,0,6.1-5.34,49.26,49.26,0,0,0,5.43-6.77,44,44,0,0,0,4.13-7.76,31.61,31.61,0,0,0,2.17-8.18.58.58,0,0,1,.57-.51l2.74,0c2.2,0,4.4,0,6.6.08a.59.59,0,0,1,.56.68l-2.36,13.54a.57.57,0,0,0,.42.66l2.13.54a.57.57,0,0,0,.69-.38l1.29-3.86a.58.58,0,0,1,.55-.39h9.68a.58.58,0,0,1,.58.56C72.1,255.67,72.09,256.89,72,258.09Z"/><path class="cls-1" d="M256.32,258.5c5.32.06,10.64.2,16,.53a.58.58,0,0,0,.62-.58V255.6a.59.59,0,0,0-.62-.58c-5.32.34-10.64.48-16,.53a.58.58,0,0,1-.58-.58V242.64a.58.58,0,0,0-.58-.58h-7a.58.58,0,0,0-.58.58V255a.58.58,0,0,1-.59.58c-5.17-.05-10.35-.18-15.53-.5a.57.57,0,0,0-.6.69l.56,2.78a.59.59,0,0,0,.61.46c5-.29,10-.42,15-.47a.57.57,0,0,1,.59.58V279a.58.58,0,0,1-.58.58c-7.23,0-14.45-.18-21.67-.52a.58.58,0,0,0-.6.69l.57,2.8a.57.57,0,0,0,.6.46c8.59-.39,17.18-.5,25.77-.52,9,0,18,.12,26.93.57a.58.58,0,0,0,.61-.58v-2.87a.59.59,0,0,0-.61-.58c-7.42.37-14.84.5-22.26.55a.58.58,0,0,1-.58-.58V259.08A.58.58,0,0,1,256.32,258.5Z"/><path class="cls-1" d="M227.6,234.88l.57,2.8a.57.57,0,0,0,.6.46c7.63-.39,15.25-.5,22.88-.51,8,0,15.91.12,23.87.56a.58.58,0,0,0,.61-.58v-2.86a.58.58,0,0,0-.61-.58c-6.4.35-12.8.49-19.2.54a.58.58,0,0,1-.58-.58V218.06a.57.57,0,0,1,.58-.58c5.43.05,10.85.19,16.27.53a.58.58,0,0,0,.62-.58v-2.86a.58.58,0,0,0-.62-.57c-5.42.34-10.84.47-16.27.53a.58.58,0,0,1-.58-.58V202.69a.58.58,0,0,0-.58-.58h-7a.58.58,0,0,0-.58.58v11.25a.57.57,0,0,1-.59.58c-5.24-.05-10.49-.18-15.73-.49a.57.57,0,0,0-.6.69l.56,2.77a.57.57,0,0,0,.6.46c5.06-.29,10.12-.42,15.17-.47a.58.58,0,0,1,.59.58v16.07a.58.58,0,0,1-.59.58c-6.25-.05-12.51-.18-18.77-.52A.58.58,0,0,0,227.6,234.88Z"/><path class="cls-1" d="M218,202.11h-6.53a.58.58,0,0,0-.57.53,143.65,143.65,0,0,1-5,26,147.34,147.34,0,0,1-10.09,26.07.57.57,0,0,0,.24.76l2.39,1.34a.58.58,0,0,0,.78-.21,142.33,142.33,0,0,0,8-15.7.58.58,0,0,1,1.11.23V286a.58.58,0,0,0,.58.58h7a.57.57,0,0,0,.57-.58V229.45a.57.57,0,0,0-.57-.58h-3.18a.58.58,0,0,1-.54-.77q2-5.82,3.55-11.79c1.14-4.44,2.1-8.95,2.8-13.53A.59.59,0,0,0,218,202.11Z"/></g></g></svg>