<svg xmlns="http://www.w3.org/2000/svg" viewBox="0 0 279.86 131.95"><defs><style>.cls-1{fill:#c79f62;}</style></defs><g id="圖層_2" data-name="圖層 2"><g id="完稿"><path class="cls-1" d="M272.38,59.52c-4.79,0-8.83,4.95-17.77,4.95C195.94,64.47,141.54,34.85,141.54,0h-3.22c0,34.85-54.4,64.47-113.06,64.47-8.94,0-13-4.95-17.78-4.95C3.13,59.52,0,62.36,0,66s3.13,6.46,7.48,6.46c4.8,0,8.84-5,17.78-5,58.66,0,113.06,29.63,113.06,64.48h3.22c0-34.85,54.4-64.48,113.07-64.48,8.94,0,13,5,17.77,5,4.36,0,7.48-2.84,7.48-6.46S276.74,59.52,272.38,59.52Z"/></g></g></svg>