<svg xmlns="http://www.w3.org/2000/svg" viewBox="0 0 307.37 239.54"><defs><style>.cls-1{fill:#fff;}</style></defs><g id="圖層_2" data-name="圖層 2"><g id="完稿"><path class="cls-1" d="M292.85,62.54c-5,0-9.28,5.2-18.67,5.2C212.54,67.74,155.37,36.61,155.37,0H152c0,36.61-57.17,67.74-118.81,67.74-9.39,0-13.63-5.2-18.67-5.2-4.58,0-7.86,3-7.86,6.78s3.28,6.78,7.86,6.78c5,0,9.28-5.2,18.67-5.2C94.83,70.9,152,102,152,138.64h3.37c0-36.62,57.17-67.74,118.81-67.74,9.39,0,13.64,5.2,18.67,5.2,4.58,0,7.86-3,7.86-6.78S297.43,62.54,292.85,62.54Z"/><path class="cls-1" d="M294.49,223.1a52.87,52.87,0,0,1-10.26-14.83,72.41,72.41,0,0,1-5.49-17.59A120.5,120.5,0,0,1,276.88,172h-3.23a120.5,120.5,0,0,1-1.86,18.64,72.41,72.41,0,0,1-5.49,17.59A52.87,52.87,0,0,1,256,223.1a54.35,54.35,0,0,1-12.63,9.43.48.48,0,0,0-.24.52l1.21,6a.29.29,0,0,0,.05.13h0a.49.49,0,0,0,.67.2,61.48,61.48,0,0,0,15.26-12.18A58.33,58.33,0,0,0,270.9,210.3a71.65,71.65,0,0,0,3.89-12.74.48.48,0,0,1,.95,0,71.65,71.65,0,0,0,3.89,12.74,58.33,58.33,0,0,0,10.54,16.87,61.48,61.48,0,0,0,15.26,12.18.49.49,0,0,0,.67-.2h0a.29.29,0,0,0,0-.13l1.21-6a.48.48,0,0,0-.24-.52A54.35,54.35,0,0,1,294.49,223.1Z"/><path class="cls-1" d="M88.14,222.72a50.28,50.28,0,0,1-1.7,5.34,26.46,26.46,0,0,1-2.21,4.46.47.47,0,0,0,.11.64l1.84,1.39a.48.48,0,0,0,.67-.09,28.28,28.28,0,0,0,3-4.91,49.26,49.26,0,0,0,2.31-5.6,78.54,78.54,0,0,0,3-11.12.49.49,0,0,0-.41-.57l-4.08-.58a.49.49,0,0,0-.55.43A72.19,72.19,0,0,1,88.14,222.72Z"/><path class="cls-1" d="M108.23,212.16l1.46,13.58a.49.49,0,0,0,.57.43l4-.7a.48.48,0,0,0,.38-.59l-3.21-13.28a.47.47,0,0,0-.55-.36l-2.29.39A.48.48,0,0,0,108.23,212.16Z"/><path class="cls-1" d="M139.62,232.32v-54a.48.48,0,0,1,.49-.48c4.55,0,9.11.16,13.67.44a.48.48,0,0,0,.51-.48v-2.39a.48.48,0,0,0-.51-.48c-5.86.36-11.72.45-17.58.46-5.68,0-11.36-.1-17-.43a.47.47,0,0,0-.5.58l.47,2.3a.48.48,0,0,0,.5.39c4.22-.24,8.44-.35,12.66-.39a.48.48,0,0,1,.49.48v54a.47.47,0,0,1-.48.48c-2.12,0-4.23,0-6.35-.1-3.11-.07-6.22-.21-9.34-.4a.49.49,0,0,0-.5.58l.58,2.88a.5.5,0,0,0,.51.39q4.36-.27,8.75-.37c3.42-.09,6.83-.12,10.25-.13s6.83,0,10.25.13c3.25.07,6.49.21,9.74.42a.48.48,0,0,0,.51-.48v-3a.48.48,0,0,0-.51-.48c-3.25.21-6.49.35-9.74.42-2.11.06-4.23.09-6.34.1A.48.48,0,0,1,139.62,232.32Z"/><path class="cls-1" d="M111.76,203.47l.52,1.64a.49.49,0,0,0,.64.31l3.26-1.3a.5.5,0,0,0,.26-.67l-4.6-9.4a.48.48,0,0,0-.61-.24l-1.83.73a.48.48,0,0,0-.28.6l1.42,4.48a.32.32,0,0,1-.24.4l-4.7,1c-2.51.52-5,1-7.5,1.52l-2.17.41a.31.31,0,0,1-.27-.53h0a79.66,79.66,0,0,0,5.89-6.59q2.76-3.43,5.21-7.13a59.72,59.72,0,0,0,4.22-7.4.49.49,0,0,0-.26-.66L106.9,179a.49.49,0,0,0-.64.27,53.5,53.5,0,0,1-3.45,6.9q-1.8,3.07-3.86,6a.31.31,0,0,1-.46.06l-6-5.07a.32.32,0,0,1,0-.45c.67-.76,1.31-1.54,1.93-2.33,1.07-1.36,2.08-2.77,3-4.21a58.31,58.31,0,0,0,4.89-8.74.49.49,0,0,0-.27-.65l-3.86-1.43a.48.48,0,0,0-.62.3,54.21,54.21,0,0,1-3.72,8.36q-1.15,2.16-2.48,4.23c-.56.87-1.15,1.74-1.76,2.56l0,0-1.85,1.91a.49.49,0,0,0,0,.67l7.9,8.8a.32.32,0,0,1,0,.41c-.86,1.06-1.74,2.11-2.65,3.11a41.23,41.23,0,0,1-4.41,4.27.29.29,0,0,1-.16.07c-1.43.2-2.86.36-4.27.48a.49.49,0,0,0-.44.59l.81,4a.49.49,0,0,0,.55.39c2.18-.33,4.31-.75,6.42-1.21s4.3-1,6.43-1.54a.32.32,0,0,1,.4.3v31.89a.48.48,0,0,0,.48.49h5.29a.49.49,0,0,0,.49-.49V205.34a.31.31,0,0,1,.23-.3l1.66-.45c1.64-.45,3.28-.9,4.92-1.33A.32.32,0,0,1,111.76,203.47Z"/><path class="cls-1" d="M29.42,192.23a44,44,0,0,1-4.89,3.9,37.54,37.54,0,0,1-5,2.93.48.48,0,0,0-.24.62l.88,2.12a.48.48,0,0,0,.62.27,41.55,41.55,0,0,0,5.72-2.81,46.57,46.57,0,0,0,5.64-3.87,37.9,37.9,0,0,0,5-4.81,23.48,23.48,0,0,0,3.52-5.38l.31.07v11.49a.48.48,0,0,0,.48.49h4.73a.48.48,0,0,0,.48-.49V185.27l.31-.07a23.15,23.15,0,0,0,3.52,5.38,37.9,37.9,0,0,0,5,4.81,46.57,46.57,0,0,0,5.64,3.87,41.55,41.55,0,0,0,5.72,2.81.48.48,0,0,0,.62-.27l.88-2.12a.48.48,0,0,0-.24-.62,37.54,37.54,0,0,1-5-2.93,43.1,43.1,0,0,1-4.89-3.9,33.07,33.07,0,0,1-4.11-4.55,22.17,22.17,0,0,1-1.41-2.16.49.49,0,0,1,.43-.72l2.54,0,5.72.14c1.74.06,3.48.11,5.22.19a.48.48,0,0,0,.5-.48v-2.4a.49.49,0,0,0-.5-.49c-1.74.08-3.48.13-5.22.2l-5.72.13c-2.85.07-5.69.1-8.54.12a.48.48,0,0,1-.49-.48v-5.92a.48.48,0,0,1,.42-.48c1.33-.18,2.67-.38,4-.58,2.53-.4,5-.84,7.62-1.43a.49.49,0,0,0,.36-.57l-.7-3.47a.49.49,0,0,0-.61-.37c-2.38.68-4.9,1.25-7.4,1.77-2.76.57-5.55,1.08-8.34,1.55-5,.83-10.08,1.55-15.13,2.07a.49.49,0,0,0-.43.58l.4,2a.49.49,0,0,0,.5.39c4.38-.24,8.73-.62,13.08-1.09a.48.48,0,0,1,.54.48v5.14a.49.49,0,0,1-.49.48c-2.56,0-5.11,0-7.67,0l-5.72-.08L22.43,182a.48.48,0,0,0-.49.58l.4,2a.49.49,0,0,0,.49.39l4.29-.13,5.72-.08,1.71,0a.48.48,0,0,1,.43.72,23.56,23.56,0,0,1-1.45,2.23A33.73,33.73,0,0,1,29.42,192.23Z"/><path class="cls-1" d="M16.34,180.41,7,170.89a.49.49,0,0,0-.66,0l-1.8,1.49a.48.48,0,0,0-.09.64L12,184a.49.49,0,0,0,.71.1l3.57-3A.48.48,0,0,0,16.34,180.41Z"/><path class="cls-1" d="M30.19,232.78l-1.11,0h-1c-.33,0-.65,0-1,0h0l-.95-.11a12.91,12.91,0,0,1-3.64-1.16,11.33,11.33,0,0,1-3-2.29,16.51,16.51,0,0,1-3.53-6.43s0,0,0-.06A56.52,56.52,0,0,1,15.2,215c-.08-2.61,0-5.21,0-7.81l.09-3.9.14-3.91c.11-2.42.24-4.85.46-7.28a.49.49,0,0,0-.48-.53H1.55a.48.48,0,0,0-.47.58l.49,2.45a.49.49,0,0,0,.48.39H8.92a.49.49,0,0,1,.48.45c.08,1.32.15,2.63.21,3.94l.14,3.91.09,3.9c0,2.6.08,5.2,0,7.81,0,1.19-.1,2.38-.19,3.58a.09.09,0,0,0,0,0,24.22,24.22,0,0,1-1.82,5.83,22.24,22.24,0,0,1-7.6,9.07.49.49,0,0,0-.14.65l1.17,2a.49.49,0,0,0,.66.17,25.91,25.91,0,0,0,9.52-10c.22-.42.43-.83.63-1.26a.49.49,0,0,1,.9.05,19,19,0,0,0,3.68,6.62,15.06,15.06,0,0,0,4,3.21,16.45,16.45,0,0,0,4.79,1.71c.41.07.82.14,1.24.19l1.23.12,1.22,0,1.11,0,4.47.08,35.24.62a.48.48,0,0,0,.49-.48v-4.66a.49.49,0,0,0-.49-.49l-35.24.63Z"/><path class="cls-1" d="M60.17,215.7a13.6,13.6,0,0,1-1.05,4.63,7.27,7.27,0,0,1-2.81,3.29A10.68,10.68,0,0,1,52.63,225a.49.49,0,0,0-.38.57l.47,2.31a.49.49,0,0,0,.52.39,14.09,14.09,0,0,0,4.87-1.37,11.24,11.24,0,0,0,4.73-4.61,18.31,18.31,0,0,0,2-6,43.75,43.75,0,0,0,.46-5.73h0v-1.31a.48.48,0,0,0-.48-.49H53.12a.47.47,0,0,1-.45-.63l1.47-4.41a.49.49,0,0,1,.49-.33c.82,0,1.64.1,2.47.17a.49.49,0,0,0,.52-.49v-2.36a.49.49,0,0,0-.52-.49c-4.57.36-9.13.44-13.7.46s-8.84-.1-13.26-.43a.49.49,0,0,0-.51.58l.46,2.28a.49.49,0,0,0,.51.39q2.2-.15,4.41-.24a.49.49,0,0,1,.51.52,22.81,22.81,0,0,1-1.06,5,32.58,32.58,0,0,1-2.64,5.89A37.39,37.39,0,0,1,28.07,220a32.58,32.58,0,0,1-4.3,4.33.48.48,0,0,0-.07.66l1.36,1.84a.49.49,0,0,0,.68.11,37.37,37.37,0,0,0,5.09-4.47,41.39,41.39,0,0,0,4.54-5.66,36.24,36.24,0,0,0,3.45-6.49,26.55,26.55,0,0,0,1.82-6.83.47.47,0,0,1,.47-.42l2.29,0c1.84,0,3.68,0,5.51.07a.48.48,0,0,1,.47.56l-2,11.32a.47.47,0,0,0,.36.55l1.78.45a.48.48,0,0,0,.57-.32l1.08-3.22a.48.48,0,0,1,.46-.33h8.08a.49.49,0,0,1,.49.47A28.53,28.53,0,0,1,60.17,215.7Z"/><path class="cls-1" d="M214.22,216c4.44.05,8.89.16,13.33.44a.48.48,0,0,0,.52-.48v-2.38a.5.5,0,0,0-.52-.49c-4.44.28-8.89.4-13.33.44a.48.48,0,0,1-.49-.48V202.78a.48.48,0,0,0-.49-.48h-5.86a.48.48,0,0,0-.49.48v10.31a.48.48,0,0,1-.49.48c-4.32,0-8.65-.15-13-.42a.49.49,0,0,0-.51.58l.47,2.32a.48.48,0,0,0,.51.39c4.17-.24,8.33-.35,12.5-.4a.49.49,0,0,1,.49.49v16.65a.48.48,0,0,1-.48.48c-6,0-12.07-.14-18.11-.43a.48.48,0,0,0-.5.58l.48,2.34a.48.48,0,0,0,.49.38c7.18-.33,14.36-.42,21.54-.43,7.5,0,15,.1,22.51.47a.49.49,0,0,0,.51-.48v-2.4a.48.48,0,0,0-.51-.48c-6.2.3-12.4.41-18.61.45a.48.48,0,0,1-.48-.48V216.53A.49.49,0,0,1,214.22,216Z"/><path class="cls-1" d="M190.22,196.3l.47,2.34a.5.5,0,0,0,.5.39c6.37-.34,12.75-.42,19.12-.44,6.65,0,13.3.1,19.95.47a.48.48,0,0,0,.51-.48v-2.39a.49.49,0,0,0-.51-.49c-5.35.3-10.7.41-16,.45a.48.48,0,0,1-.49-.48V182.24a.49.49,0,0,1,.49-.49c4.53.05,9.06.16,13.6.45a.49.49,0,0,0,.51-.49v-2.38a.49.49,0,0,0-.51-.49c-4.54.29-9.07.4-13.6.45a.49.49,0,0,1-.49-.49v-9.4a.49.49,0,0,0-.49-.49h-5.86a.49.49,0,0,0-.49.49v9.4a.49.49,0,0,1-.49.49c-4.38,0-8.76-.16-13.15-.42a.49.49,0,0,0-.5.58l.47,2.31a.49.49,0,0,0,.5.39c4.23-.24,8.46-.35,12.68-.39a.48.48,0,0,1,.49.48v13.43a.48.48,0,0,1-.48.48c-5.23,0-10.46-.15-15.69-.43A.48.48,0,0,0,190.22,196.3Z"/><path class="cls-1" d="M182.16,168.91H176.7a.48.48,0,0,0-.48.44A120.31,120.31,0,0,1,172,191.1a123.27,123.27,0,0,1-8.43,21.78.49.49,0,0,0,.19.65l2,1.11a.48.48,0,0,0,.65-.17,117.54,117.54,0,0,0,6.71-13.13.49.49,0,0,1,.93.2v37.51a.49.49,0,0,0,.48.49h5.87a.48.48,0,0,0,.48-.49V191.76a.48.48,0,0,0-.48-.49h-2.65a.48.48,0,0,1-.46-.64q1.66-4.86,3-9.86a111.47,111.47,0,0,0,2.34-11.3A.5.5,0,0,0,182.16,168.91Z"/></g></g></svg>