<?xml version="1.0" encoding="UTF-8"?><svg id="_圖層_2" xmlns="http://www.w3.org/2000/svg" viewBox="0 0 646.84 80.86"><defs><style>.cls-1{fill:#fff;}</style></defs><g id="_01"><g><g><g><path class="cls-1" d="M0,70.36V9.14L50.87,62.36V9.77h4v62.13L4,18.67v51.68H0Z"/><path class="cls-1" d="M130.79,40.2c0,17.44-13.72,31.16-31.43,31.16s-31.43-13.72-31.43-31.16,13.71-31.25,31.43-31.25,31.43,13.81,31.43,31.25Zm-4.18,0c0-15.53-11.63-27.61-27.25-27.61s-27.25,12.08-27.25,27.61,11.63,27.52,27.25,27.52,27.25-12.08,27.25-27.52Z"/><path class="cls-1" d="M203.44,40.2c0,17.44-13.72,31.16-31.43,31.16s-31.43-13.72-31.43-31.16,13.71-31.25,31.43-31.25,31.43,13.81,31.43,31.25Zm-4.18,0c0-15.53-11.63-27.61-27.25-27.61s-27.25,12.08-27.25,27.61,11.63,27.52,27.25,27.52,27.25-12.08,27.25-27.52Z"/><path class="cls-1" d="M216.5,70.36V9.77h11.99c5.36,0,14.72,.82,22.35,8.45,6.45,6.45,8.72,15.26,8.72,21.89s-2.27,15.35-8.72,21.8c-7.63,7.63-16.98,8.45-22.35,8.45h-11.99Zm4-3.63h7.9c15.99,0,26.98-10.9,26.98-26.61s-11.08-26.71-26.98-26.71h-7.9v53.32Z"/><path class="cls-1" d="M276.62,9.77v56.95h16.89v3.63h-20.89V9.77h4Z"/><path class="cls-1" d="M332.03,13.4h-25.07v21.98h24.52v3.63h-24.52v27.7h25.07v3.63h-29.07V9.77h29.07v3.63Z"/><path class="cls-1" d="M372.71,20.04c-3.72-7.27-10.26-7.45-11.9-7.45-7.18,0-11.26,5.18-11.26,11.26,0,6.54,4.54,8.72,10.63,11.72,5.99,2.91,8.99,4.18,12.08,6.36,2.63,1.82,6.45,5,6.45,11.72,0,10.17-8.54,17.71-18.89,17.71-7.81,0-11.81-3.72-14.08-6.36-2.36-2.72-3.36-5.09-3.91-6.63l3.45-1.64c.82,2.36,2.36,4.72,3.27,5.81,2.72,3.45,7.18,5.18,11.36,5.18,8.18,0,14.62-6,14.62-13.99,0-3.27-1.27-6.72-5.9-9.54-1.73-1-5.27-2.82-10.26-5.27-5.99-2.91-8.99-4.54-11.08-7.99-1.36-2.27-1.91-4.54-1.91-6.9,0-6.99,4.72-15.08,15.53-15.08,6.09,0,11.63,2.91,14.72,8.63l-2.91,2.45Z"/></g><g><path class="cls-1" d="M549.3,9.77v56.95h16.89v3.63h-20.89V9.77h4Z"/><path class="cls-1" d="M604.71,13.4h-25.07v21.98h24.52v3.63h-24.52v27.7h25.07v3.63h-29.07V9.77h29.07v3.63Z"/><path class="cls-1" d="M646.84,13.4h-25.07v21.98h24.52v3.63h-24.52v27.7h25.07v3.63h-29.07V9.77h29.07v3.63Z"/></g></g><path class="cls-1" d="M480.99,16.3h-12.24v1.74h17.27c1.11,0,1.98-.99,1.98-2.04,0-1.35-1.29-3.11-5.15-3.11,1.36,1.72,1.08,3.42-1.86,3.42Zm-11.98,4.25c0,7.46,14.43,17.96,20.33,17.96s4.56-7.64,9.12-7.64c-11.89,0-24.89-4.38-29.44-10.32Zm-38.23,21.14c8.06,0,22.56-8.73,22.56-20.2h-9.23c0,8.35-7.59,16.95-14.25,16.95-2.3,0-3.12-2.43-1.15-4.74-2.39,0-5.99,7.99,2.07,7.99Zm26.51-36.2v27.35c0,1.42-.11,6.08,3.69,6.08,2.14,0,5.21-1.12,8.61-10.64-3.59,3.14-4.81,1.1-4.81-1.52V15.54c0-5.43,2.81-7.47,4.81-8.51-11.19,0-12.3-1.55-12.3-1.55Zm4.72,73.66c-14.16,0-26.57-7.65-33.32-19.04h25.77v-1.74h-28.67c6.62,13.31,20.36,22.48,36.21,22.48,13.73,0,25.87-6.88,33.18-17.38h-2.1c-7.06,9.5-18.37,15.67-31.09,15.67Zm0-79.15c-22.29,0-40.43,18.14-40.43,40.43,0,3.91,.57,7.68,1.61,11.26h1.78c-1.08-3.56-1.67-7.34-1.67-11.26,0-21.35,17.37-38.72,38.72-38.72s38.72,17.37,38.72,38.72c0,4.5-.78,8.82-2.2,12.84h1.8c1.36-4.04,2.1-8.35,2.1-12.84,0-22.29-18.14-40.43-40.43-40.43Zm-27.37,18.03h18.7v-1.74h-18.7v1.74Zm61.98,38.31c-2.78,0-4.56-1.84-5.34-3.76,0,1.54-3.91,5.79-8.3,5.79h-11.89v1.74h25.52c1.04,0,1.88-.84,1.88-1.91,0-1.01-.84-1.85-1.88-1.85Zm-54.25,9.91c1.52,4.56,6.87,9.12,14.47,9.12,6.08,0,9.7-3.04,9.7-9.4v-14.29c0-4.23-2.97-6.47-9.91-6.47,0,0,2.31,1.74,2.31,5.11v15.65c0,7.83-11.58,6.58-16.57,.29Zm-1.66-23.14h26.52c16.03,0,12.99,6.5,.83,8.57,9.83,0,19.94-3.36,19.94-7.16,0-1.59-1.79-2.32-3.42-2.81-1.74-.51-6.03-1.28-6.83-3.21-.47,1.58-4.65,2.88-10.53,2.88h-26.52v1.74Z"/></g></g></svg>