<?xml version="1.0" encoding="UTF-8"?><svg id="_圖層_2" xmlns="http://www.w3.org/2000/svg" viewBox="0 0 708.32 182.64"><defs><style>.cls-1{fill:#fff;}</style></defs><g id="_02"><path class="cls-1" d="m0,97.02l4.79-5.23,16.66,15.26.4-.44-1.05-32.3,6.68-7.29.74,34.93,38.95-.87-6.98,7.62-35.73.31-.4.44,19.27,17.66-4.79,5.23L0,97.02Z"/><path class="cls-1" d="m45.34,52.8l18.36,26.26c.93,1.33,2.08,2.59,3.44,3.76,1.36,1.18,2.89,2.08,4.59,2.69,1.69.62,3.49.83,5.4.64,1.91-.19,3.87-.99,5.89-2.4,2.02-1.41,3.44-2.98,4.28-4.7.83-1.72,1.25-3.49,1.25-5.29,0-1.8-.32-3.55-.96-5.23-.64-1.69-1.42-3.19-2.35-4.53l-18.36-26.26,5.81-4.06,18.99,27.17c1.75,2.5,2.91,5.07,3.49,7.7.58,2.63.64,5.21.19,7.75-.45,2.54-1.4,4.91-2.85,7.13-1.45,2.22-3.35,4.14-5.69,5.78-2.34,1.64-4.8,2.75-7.38,3.36-2.58.6-5.14.68-7.68.23-2.54-.45-4.94-1.4-7.21-2.84-2.27-1.44-4.28-3.42-6.03-5.92l-18.99-27.17,5.81-4.06Z"/><path class="cls-1" d="m93.93,22.22l8.77-3.1,41.46,30.93.14-.05-14.31-40.52,6.68-2.36,17.41,49.29-8.49,3-41.74-30.83-.14.05,14.31,40.52-6.68,2.36-17.41-49.29Z"/><path class="cls-1" d="m207.99,23.6l.99,25.75c-1.25.84-2.67,1.58-4.27,2.23-1.6.65-3.27,1.22-5,1.71-1.73.48-3.49.86-5.28,1.13-1.79.27-3.47.43-5.04.49-4.43.17-8.4-.42-11.93-1.76-3.52-1.34-6.53-3.22-9.01-5.64-2.48-2.42-4.41-5.26-5.8-8.53-1.38-3.27-2.14-6.75-2.29-10.44-.15-3.88.39-7.53,1.61-10.92,1.22-3.4,2.98-6.37,5.27-8.92,2.29-2.55,5.08-4.59,8.37-6.12,3.29-1.53,6.93-2.37,10.91-2.53,4.82-.19,8.78.27,11.87,1.35,3.1,1.09,5.72,2.65,7.86,4.68l-4.81,5.58c-2.24-1.98-4.59-3.33-7.03-4.05-2.44-.72-4.99-1.03-7.65-.93-3,.12-5.69.77-8.05,1.97-2.37,1.2-4.38,2.77-6.03,4.7-1.65,1.94-2.89,4.19-3.73,6.76-.84,2.57-1.2,5.28-1.09,8.13.11,2.95.74,5.67,1.87,8.17,1.13,2.49,2.64,4.64,4.53,6.44,1.89,1.8,4.09,3.18,6.59,4.14,2.5.96,5.2,1.39,8.1,1.28,2.51-.1,4.87-.42,7.09-.97,2.22-.55,4.1-1.3,5.64-2.25l-.56-14.53-11.58.45-.25-6.64,18.67-.72Z"/><path class="cls-1" d="m258.48,10.65l30.29,12.72-2.57,6.13-23.76-9.98-6.35,15.11,22.12,9.29-2.57,6.13-22.12-9.29-8.75,20.83-6.54-2.74,20.24-48.2Z"/><path class="cls-1" d="m312.12,38.83l-20.31,24.79c-1.03,1.26-1.93,2.7-2.69,4.33-.77,1.63-1.21,3.35-1.35,5.14-.14,1.8.15,3.59.85,5.37.7,1.78,2,3.46,3.91,5.02,1.9,1.56,3.8,2.51,5.69,2.84,1.89.34,3.7.26,5.43-.23,1.74-.49,3.33-1.27,4.78-2.34,1.45-1.07,2.69-2.23,3.72-3.49l20.31-24.79,5.48,4.49-21.01,25.65c-1.93,2.36-4.09,4.18-6.46,5.44-2.38,1.27-4.84,2.03-7.41,2.28-2.56.25-5.11-.02-7.64-.81-2.53-.8-4.9-2.1-7.1-3.91-2.21-1.81-3.95-3.87-5.23-6.2-1.28-2.32-2.05-4.76-2.3-7.33-.26-2.56,0-5.13.78-7.71.78-2.58,2.13-5.05,4.06-7.41l21.01-25.64,5.48,4.49Z"/><path class="cls-1" d="m363.78,87.99l6.79,6.36-8.35,51.05.11.1,29.37-31.37,5.17,4.84-35.73,38.16-6.58-6.16,8.13-51.25-.11-.1-29.37,31.37-5.17-4.84,35.73-38.16Z"/><path class="cls-1" d="m411.3,181.24c-3.89-.87-7.32-2.35-10.28-4.45-2.96-2.1-5.34-4.61-7.13-7.53-1.79-2.92-2.99-6.16-3.58-9.73-.59-3.56-.46-7.24.38-11.04.85-3.79,2.3-7.18,4.35-10.15,2.05-2.97,4.51-5.4,7.38-7.28,2.87-1.88,6.08-3.14,9.66-3.78,3.57-.64,7.3-.53,11.2.34,3.89.87,7.32,2.35,10.28,4.45,2.96,2.1,5.34,4.61,7.13,7.53,1.79,2.92,2.99,6.16,3.58,9.73.59,3.56.46,7.24-.38,11.04-.85,3.8-2.3,7.18-4.35,10.15-2.05,2.97-4.51,5.4-7.38,7.28-2.87,1.88-6.09,3.14-9.66,3.78-3.57.64-7.3.53-11.2-.34Zm1.45-6.49c2.93.65,5.69.7,8.29.15,2.59-.56,4.94-1.56,7.03-3.01,2.09-1.45,3.87-3.31,5.33-5.58,1.46-2.27,2.51-4.8,3.13-7.58.62-2.79.75-5.52.39-8.2-.36-2.68-1.18-5.12-2.45-7.32-1.27-2.2-2.97-4.1-5.08-5.71-2.11-1.61-4.63-2.74-7.56-3.39-2.93-.65-5.69-.7-8.29-.15-2.6.56-4.94,1.56-7.03,3.01-2.09,1.45-3.87,3.31-5.33,5.58-1.47,2.27-2.51,4.8-3.13,7.58-.62,2.79-.75,5.52-.39,8.2.36,2.68,1.18,5.12,2.45,7.32,1.27,2.2,2.97,4.1,5.08,5.71,2.11,1.61,4.63,2.74,7.56,3.39Z"/><path class="cls-1" d="m484,182.47c-3.97.4-7.69.08-11.16-.98-3.47-1.06-6.52-2.69-9.14-4.9-2.62-2.21-4.78-4.91-6.46-8.1-1.69-3.19-2.73-6.72-3.12-10.59-.39-3.87-.09-7.54.92-11,1.01-3.47,2.57-6.54,4.7-9.24,2.13-2.69,4.78-4.9,7.97-6.64,3.19-1.73,6.76-2.8,10.73-3.21,3.97-.4,7.68-.08,11.16.98,3.47,1.06,6.52,2.69,9.14,4.9,2.62,2.21,4.78,4.91,6.46,8.1,1.69,3.19,2.73,6.72,3.12,10.59.39,3.87.09,7.54-.92,11-1.01,3.47-2.58,6.55-4.7,9.24-2.13,2.69-4.78,4.9-7.97,6.64-3.19,1.73-6.77,2.8-10.73,3.21Zm-.67-6.61c2.99-.3,5.62-1.13,7.91-2.48,2.29-1.35,4.19-3.04,5.72-5.07,1.52-2.03,2.62-4.36,3.3-6.98.67-2.62.87-5.34.58-8.19-.29-2.84-1.03-5.47-2.21-7.9-1.19-2.43-2.73-4.48-4.64-6.17-1.9-1.69-4.11-2.96-6.62-3.82-2.51-.86-5.26-1.13-8.25-.83-2.99.3-5.62,1.13-7.91,2.48-2.29,1.35-4.19,3.04-5.72,5.07-1.53,2.04-2.62,4.36-3.3,6.98-.67,2.62-.87,5.35-.58,8.19.29,2.84,1.03,5.47,2.21,7.9,1.19,2.43,2.73,4.48,4.64,6.17,1.9,1.69,4.11,2.96,6.62,3.82,2.51.86,5.26,1.13,8.25.83Z"/><path class="cls-1" d="m510.81,125.05l17.24-5.95c3.49-1.2,6.69-1.86,9.59-1.98,2.9-.11,5.55.16,7.94.82,2.39.66,4.52,1.63,6.39,2.91,1.87,1.28,3.5,2.7,4.87,4.26,1.37,1.56,2.53,3.19,3.48,4.89.95,1.7,1.69,3.32,2.22,4.86,1.09,3.16,1.56,6.42,1.42,9.78-.14,3.36-.96,6.58-2.44,9.67-1.49,3.09-3.67,5.91-6.57,8.47-2.89,2.56-6.55,4.6-10.97,6.13l-16.12,5.56-17.04-49.42Zm21.58,40.82l8.45-2.91c2.84-.98,5.39-2.29,7.66-3.93,2.27-1.64,4.09-3.56,5.47-5.75,1.38-2.19,2.23-4.63,2.55-7.32.32-2.69-.05-5.57-1.11-8.64-.54-1.58-1.44-3.34-2.68-5.28-1.24-1.94-2.9-3.62-4.98-5.04-2.08-1.42-4.6-2.36-7.57-2.82-2.97-.46-6.46,0-10.46,1.38l-10.05,3.47,12.71,36.85Z"/><path class="cls-1" d="m559.58,106.11l6.06-3.68,23.67,39.01,20.51-12.45,3.45,5.68-26.57,16.13-27.12-44.69Z"/><path class="cls-1" d="m589.97,86.75l25.88-21.64,4.26,5.1-20.45,17.1,9.99,11.95,19.03-15.91,4.26,5.1-19.03,15.91,10.75,12.86,21.47-17.95,4.26,5.1-26.9,22.5-33.53-40.1Z"/><path class="cls-1" d="m653.66,85.74c2.27.42,4.42.24,6.47-.55,2.04-.79,3.8-1.94,5.28-3.46.83-.85,1.53-1.84,2.13-2.98.59-1.14.98-2.33,1.16-3.56.18-1.24.1-2.46-.23-3.68-.33-1.21-1-2.32-2.02-3.32-1.44-1.41-2.99-2.02-4.64-1.85-1.65.18-3.39.69-5.23,1.55-1.83.86-3.77,1.86-5.81,3-2.04,1.14-4.15,1.97-6.31,2.5-2.17.53-4.41.56-6.73.08-2.32-.48-4.7-1.9-7.13-4.27-1.09-1.07-2.02-2.44-2.79-4.12-.77-1.68-1.16-3.53-1.19-5.55-.02-2.02.4-4.16,1.28-6.44.88-2.27,2.42-4.54,4.62-6.79,1.99-2.04,4.18-3.72,6.57-5.04,2.39-1.32,5.13-1.84,8.23-1.56l-.27,7.78c-1.6-.33-3.27-.2-5.01.37-1.73.58-3.32,1.61-4.77,3.09-1.37,1.41-2.33,2.76-2.87,4.06-.54,1.29-.8,2.51-.76,3.64.03,1.13.27,2.14.72,3.02.45.88.95,1.6,1.51,2.15,1.58,1.55,3.25,2.28,4.99,2.18,1.74-.09,3.54-.56,5.39-1.4,1.85-.84,3.77-1.86,5.76-3.05,1.99-1.19,4.02-2.09,6.1-2.71,2.08-.62,4.21-.76,6.39-.42,2.18.34,4.4,1.61,6.65,3.81,1.8,1.75,3.08,3.68,3.86,5.77.77,2.1,1.09,4.21.94,6.33-.15,2.12-.73,4.24-1.75,6.34-1.02,2.1-2.4,4.05-4.16,5.85-2.34,2.4-4.98,4.26-7.92,5.58-2.94,1.32-5.91,1.76-8.91,1.31l.48-7.68Z"/><path class="cls-1" d="m697.56,31.55l-4.59,5.4-28.33-24.13,4.6-5.4,28.33,24.13Zm2.73,13.19c-1.01-.86-1.57-1.97-1.68-3.32s.27-2.54,1.13-3.55c.86-1.01,1.97-1.57,3.32-1.68,1.35-.11,2.54.27,3.55,1.13,1.01.86,1.57,1.97,1.68,3.32.11,1.35-.27,2.54-1.13,3.55-.86,1.01-1.97,1.57-3.32,1.68-1.35.11-2.54-.27-3.55-1.13Z"/></g></svg>