<?xml version="1.0" encoding="UTF-8"?><svg id="_圖層_2" xmlns="http://www.w3.org/2000/svg" viewBox="0 0 152.39 112.9"><defs><style>.cls-1{fill:#fff;}.cls-2{fill:none;stroke:#fff;stroke-miterlimit:10;stroke-width:.27px;}</style></defs><g id="_02"><g><g><g><path class="cls-1" d="M27.43,111.83v-9.23l7.67,8.03v-7.93h.6v9.37l-7.67-8.03v7.79h-.6Z"/><path class="cls-1" d="M47.15,107.28c0,2.63-2.07,4.7-4.74,4.7s-4.74-2.07-4.74-4.7,2.07-4.71,4.74-4.71,4.74,2.08,4.74,4.71Zm-.63,0c0-2.34-1.75-4.16-4.11-4.16s-4.11,1.82-4.11,4.16,1.75,4.15,4.11,4.15,4.11-1.82,4.11-4.15Z"/><path class="cls-1" d="M58.11,107.28c0,2.63-2.07,4.7-4.74,4.7s-4.74-2.07-4.74-4.7,2.07-4.71,4.74-4.71,4.74,2.08,4.74,4.71Zm-.63,0c0-2.34-1.75-4.16-4.11-4.16s-4.11,1.82-4.11,4.16,1.75,4.15,4.11,4.15,4.11-1.82,4.11-4.15Z"/><path class="cls-1" d="M60.08,111.83v-9.14h1.81c.81,0,2.22,.12,3.37,1.27,.97,.97,1.32,2.3,1.32,3.3s-.34,2.31-1.32,3.29c-1.15,1.15-2.56,1.27-3.37,1.27h-1.81Zm.6-.55h1.19c2.41,0,4.07-1.64,4.07-4.01s-1.67-4.03-4.07-4.03h-1.19v8.04Z"/><path class="cls-1" d="M69.14,102.7v8.59h2.55v.55h-3.15v-9.14h.6Z"/><path class="cls-1" d="M77.49,103.24h-3.78v3.31h3.7v.55h-3.7v4.18h3.78v.55h-4.38v-9.14h4.38v.55Z"/><path class="cls-1" d="M83.63,104.24c-.56-1.1-1.55-1.12-1.79-1.12-1.08,0-1.7,.78-1.7,1.7,0,.99,.69,1.31,1.6,1.77,.9,.44,1.36,.63,1.82,.96,.4,.27,.97,.75,.97,1.77,0,1.53-1.29,2.67-2.85,2.67-1.18,0-1.78-.56-2.12-.96-.36-.41-.51-.77-.59-1l.52-.25c.12,.36,.36,.71,.49,.88,.41,.52,1.08,.78,1.71,.78,1.23,0,2.2-.9,2.2-2.11,0-.49-.19-1.01-.89-1.44-.26-.15-.79-.42-1.55-.79-.9-.44-1.36-.68-1.67-1.21-.21-.34-.29-.68-.29-1.04,0-1.05,.71-2.27,2.34-2.27,.92,0,1.75,.44,2.22,1.3l-.44,.37Z"/></g><g><path class="cls-1" d="M110.26,102.7v8.59h2.55v.55h-3.15v-9.14h.6Z"/><path class="cls-1" d="M118.61,103.24h-3.78v3.31h3.7v.55h-3.7v4.18h3.78v.55h-4.38v-9.14h4.38v.55Z"/><path class="cls-1" d="M124.96,103.24h-3.78v3.31h3.7v.55h-3.7v4.18h3.78v.55h-4.38v-9.14h4.38v.55Z"/></g><path class="cls-1" d="M99.96,103.17h-1.85v.26h2.6c.17,0,.3-.15,.3-.31,0-.2-.19-.47-.78-.47,.21,.26,.16,.52-.28,.52Zm-1.81,.64c0,1.13,2.18,2.71,3.07,2.71s.69-1.15,1.37-1.15c-1.79,0-3.75-.66-4.44-1.56Zm-5.76,3.19c1.21,0,3.4-1.32,3.4-3.05h-1.39c0,1.26-1.14,2.56-2.15,2.56-.35,0-.47-.37-.17-.71-.36,0-.9,1.21,.31,1.21Zm4-5.46v4.12c0,.21-.02,.92,.56,.92,.32,0,.79-.17,1.3-1.6-.54,.47-.72,.17-.72-.23v-1.69c0-.82,.42-1.13,.72-1.28-1.69,0-1.85-.23-1.85-.23Zm.71,11.11c-2.14,0-4.01-1.15-5.02-2.87h3.89v-.26h-4.32c1,2.01,3.07,3.39,5.46,3.39,2.07,0,3.9-1.04,5-2.62h-.32c-1.06,1.43-2.77,2.36-4.69,2.36Zm0-11.93c-3.36,0-6.1,2.73-6.1,6.1,0,.59,.09,1.16,.24,1.7h.27c-.16-.54-.25-1.11-.25-1.7,0-3.22,2.62-5.84,5.84-5.84s5.84,2.62,5.84,5.84c0,.68-.12,1.33-.33,1.94h.27c.2-.61,.32-1.26,.32-1.94,0-3.36-2.73-6.1-6.1-6.1Zm-4.13,2.72h2.82v-.26h-2.82v.26Zm9.35,5.78c-.42,0-.69-.28-.8-.57,0,.23-.59,.87-1.25,.87h-1.79v.26h3.85c.16,0,.28-.13,.28-.29,0-.15-.13-.28-.28-.28Zm-8.18,1.49c.23,.69,1.04,1.37,2.18,1.37,.92,0,1.46-.46,1.46-1.42v-2.15c0-.64-.45-.98-1.49-.98,0,0,.35,.26,.35,.77v2.36c0,1.18-1.75,.99-2.5,.04Zm-.25-3.49h4c2.42,0,1.96,.98,.13,1.29,1.48,0,3.01-.51,3.01-1.08,0-.24-.27-.35-.52-.42-.26-.08-.91-.19-1.03-.48-.07,.24-.7,.43-1.59,.43h-4v.26Z"/></g><g><g><rect class="cls-1" x="136.52" y="60.62" width="12.72" height=".76"/><path class="cls-1" d="M146.44,60.62c1.91,0,3.61-1.85,3.61-2.52,.18,.66,.36,1.64,1.52,1.64,.45,0,.82,.37,.82,.81,0,.47-.37,.83-.82,.83h-5.13v-.76Z"/><rect class="cls-1" x="141.18" y="83.14" width="9.43" height=".76"/><rect class="cls-1" x="141.81" y="70.2" width="5.29" height=".76"/><rect class="cls-1" x="141.81" y="76.05" width="5.29" height=".76"/><path class="cls-1" d="M123.3,64.05s1.11-.38,3.06,.52c-.99,0-.99,.8-.99,1.46v2.74c0,2.29-1.4,3.87-3.39,3.87,.66-.66,1.32-1.32,1.32-3.74v-4.86Z"/><path class="cls-1" d="M132.23,64.05s1.12-.38,3.06,.52c-.99,0-.99,.8-.99,1.46v1.91c0,2.29-1.08,3.87-3.39,3.87,.66-.66,1.32-1.32,1.32-3.74v-4.03Z"/><g><rect class="cls-1" x="122.64" y="61.94" width="12.36" height=".76"/><path class="cls-1" d="M132.81,62.7h2.19c.48,0,.86-.41,.86-.87,0-.59-.56-1.26-2.24-1.26,.59,.75,.47,1.37-.81,1.37v.76Z"/></g><rect class="cls-1" x="129.45" y="77.94" width="4.25" height=".53"/><path class="cls-1" d="M127.27,74.96c.33,.55,.93,.83,1.65,.99,.7,.16,1.16,.51,1.16,1.32,0,1.72-3.48,7.27-8.1,7.27,3.31-1.32,5.29-6.28,5.29-9.59Z"/><path class="cls-1" d="M130.48,77.94h3.23c1,0,1.58,.47,1.58,1.2,0,2.65-3.83,9.38-13.31,9.38,5.96-1.21,9.83-6.61,10.49-8.6,.21-.63,.05-1.45-1.99-1.45v-.53Z"/><path class="cls-1" d="M123.96,78.6c2.65,3.97,6.3,7.77,12.56,7.77h15.87c-2.65,.66-1.32,2.15-3.97,2.15h-11.9c-6.61,0-11.9-5.29-12.56-9.92Z"/><path class="cls-1" d="M126.93,58.04s.17,1.06,4.14,1.06c-1.23,.36-1.32,1.02-1.32,3.38v7.52c0,4.66-3.81,5.95-7.77,5.95,2.65-.66,4.96-1.21,4.96-5.95v-11.96Z"/><path class="cls-1" d="M129.25,72.65c1.69,0,6.04,.26,6.04,1.98,0,.85-.75,1.32-1.41,1.32-1.7,0-1.98-2.51-4.63-3.31Z"/><path class="cls-1" d="M136.52,65.94s4.63-4.56,11.15-4.56c-1.69,0-8.04,2.46-8.04,5.18v15.32c0,.72,1.19,.72,1.51,0-.66,2.04-1.32,3.36-2.65,3.36-.65,0-1.3-.42-1.3-1.35v-16.25c0-.52,0-1.7-.68-1.7Z"/><path class="cls-1" d="M144.9,64.99c-.88,0-1.45,1.02-1.45,1.68v16.7h-2.27v-15.38c0-.63-.47-.66-.47-.66,.66-1.98,1.76-2.87,4.41-2.87h2.65c2.69,0,3.97,2.21,3.97,3.53v15.9c0,.69-.66,1.35-1.32,1.35-1.1,0-1.32-1.35-3.96-1.35l1.1-.76c1.37,0,1.75-.94,1.75-2.75v-13.72c0-.66-.87-1.68-1.76-1.68h-2.64Z"/><rect class="cls-1" x="145.47" y="64.67" width="2.27" height="18.7"/></g><g><path class="cls-1" d="M16.93,58.76s2.85-.38,4.79,.52c-.53,.27-1.53,.74-1.53,3.85v11.35c0,10.06-9.07,14.03-15.56,14.03,2.93-1.06,12.3-1.98,12.3-15.21v-14.55Z"/><path class="cls-1" d="M5.21,64.82s2.85-.38,4.79,.52c-.53,.27-1.53,.74-1.53,3.85v6.86c0,2.29-1.19,3.87-5.16,3.87,.66-.66,1.9-1.32,1.9-3.74v-11.37Z"/><rect class="cls-1" x=".66" y="63.38" width="10.73" height=".76"/><path class="cls-1" d="M30.42,82.57c0,3.65-2.96,5.95-5.61,5.95-3.31,0-6.96-1.98-7.62-3.97,3.44,3.44,9.97,2.65,9.97-1.98v-11.9c0-7.94-11.95-5.29-16.58-1.32,5.29-6.61,19.84-7.94,19.84,0v13.23Z"/><path class="cls-1" d="M.66,80.47c1.98,2.37,9.91,.12,13.89-3.75-2.65,5.19-7.94,7.33-11.24,7.33-1.98,0-3.31-.16-3.31-1.57,0-.73,.25-1.46,.66-2.01Z"/><path class="cls-1" d="M7.8,63.38c1.91,0,3.61-1.96,3.61-2.63,.34,.84,1.11,1.64,2.32,1.64,.45,0,.82,.44,.82,.88,0,.47-.37,.88-.82,.88H7.8v-.76Z"/></g><g><rect class="cls-1" x="41.29" y="65.25" width="22.94" height=".76"/><path class="cls-1" d="M62.04,66h2.19c.48,0,.86-.52,.86-.98,0-.59-.56-1.26-2.24-1.26,.59,.75,.47,1.49-.81,1.49v.76Z"/><path class="cls-1" d="M55.26,63.14c0-2.36,1.03-3.25,1.9-3.71-4.87,0-6.04-.67-6.04-.67,0,26.45-5.21,26.88-12.48,29.76,6.48,0,16.62-1.32,16.62-25.38Z"/><path class="cls-1" d="M55.18,77.28c1.98,2.59,6.61,8.43,13.89,8.43-1.98,.83-2.07,2.81-4.05,2.81-3.97,0-9.84-6.65-9.84-11.24Z"/><rect class="cls-1" x="39.31" y="74.12" width="25.93" height=".76"/><path class="cls-1" d="M61.64,74.12c1.91,0,3.61-1.96,3.61-2.63,.34,.84,1.11,1.64,2.32,1.64,.45,0,.82,.44,.82,.88,0,.47-.37,.88-.82,.88h-5.93v-.76Z"/></g><g><path class="cls-1" d="M90.36,76.88s.49,1.06,4.63,1.06c-2.65,1.46-4.88,3.97-15.21,3.97,3.31-.66,7.94-1.52,10.58-5.02Z"/><path class="cls-1" d="M105.57,78.21s2.65,.4,3.31,1.72c-1.32,.66-5.29,3.31-9.92,3.31,1.94-.72,6.09-3.31,6.61-5.03Z"/><path class="cls-1" d="M88.79,83.23v2.65c0,1.32,4.84,0,7.52-1.32,0,0-3.94,3.97-11.59,3.97,.85-.66,1.01-1.96,1.01-3.31v-3.91s1.9,.61,4.38,.61c-.52,0-1.32,.61-1.32,1.32Z"/><g><rect class="cls-1" x="83.75" y="62.03" width="12.55" height=".76"/><path class="cls-1" d="M94.1,62.79h2.19c.48,0,.86-.41,.86-.87,0-.59-.56-1.26-2.24-1.26,.59,.75,.47,1.37-.81,1.37v.76Z"/></g><g><rect class="cls-1" x="79.78" y="65.28" width="18.86" height=".76"/><path class="cls-1" d="M96.45,66.04h2.19c.48,0,.86-.41,.86-.87,0-.59-.56-1.26-2.24-1.26,.59,.75,.47,1.37-.81,1.37v.76Z"/></g><path class="cls-1" d="M94.33,79.38c4.63,5.18,9.92,6.5,15.87,6.5-1.98,.5-1.98,2.65-3.97,2.65-3.97,0-11.9-5.29-11.9-9.14Z"/><rect class="cls-1" x="79.78" y="76.39" width="27.27" height=".76"/><path class="cls-1" d="M103.45,76.39c1.91,0,3.61-1.85,3.61-2.52,.34,.84,1.11,1.64,2.32,1.64,.45,0,.82,.37,.82,.81,0,.47-.37,.83-.82,.83h-5.93v-.76Z"/><path class="cls-1" d="M100.03,59.57s.25,.55,3.69,.55c-.72,.37-1.21,1.11-1.21,3.05v6.54c0,2.04-1.21,2.67-2.42,2.67h-.66s.61-.61,.61-1.84v-10.97Z"/><path class="cls-1" d="M107.79,70.78c0,1.3-.23,3.19-2.44,3.19-1.55,0-2.76-.67-3.93-.85,3.76,0,3.89-.78,3.89-2.23v-12.13s1.11,.82,3.74,.82c-.44,.23-1.26,.66-1.26,1.75v9.45Z"/><path class="cls-1" d="M82.43,58.82s-.25,1,3.64,1c-.62,.25-1.1,.86-1.25,1.47-.62,2.52-1.74,3.49-4.22,3.49,1.82-1.88,1.82-3.31,1.82-5.95Z"/><path class="cls-1" d="M88.43,58.89s2.14-.32,3.74,.43c-.44,.23-1.26,.61-1.26,3.18v8.81c0,2.04-.64,2.67-1.85,2.67h-1.24s.61-.61,.61-1.84v-13.24Z"/><path class="cls-1" d="M81.76,66.69s-.32,.55,3.69,.55c-.72,.37-1.21,1.11-1.21,3.05v1c0,2.04-1.27,2.67-2.48,2.67h-.61s.61-.61,.61-1.84v-5.43Z"/><path class="cls-1" d="M97.58,71.61c0-2.76-3.25-4.25-5.89-4.25-2.31,0-5.01,.61-6.22,2.36,.95-.57,3.63-1.17,5.45-1.17,2.65,0,4.18,.8,4.18,2.55,0,.48-.75,.8-1.6,.8,1.68,.56,1.66,2.06,2.95,2.06,1.03,0,1.13-.74,1.13-1.65v-.7Z"/><path class="cls-1" d="M91.13,73.54c2.51-.69,5.85,.51,5.85,2.1,0,.78-.28,1.51-1.32,1.51-1.19,0-1.67-.89-1.98-1.75-.25-.68-1.56-1.86-2.54-1.86Z"/></g></g><g><g><path class="cls-1" d="M119.84,31.47c0-.43,.5-.94,1.19-.94h1.7c-.66,0-1.43,.44-1.43,.94v3.11c0,1.55-1.25,1.8-2.74,1.8,.9-.18,1.29-.45,1.29-1.29v-3.61Z"/><rect class="cls-1" x="118.14" y="43.21" width="4.6" height=".51"/><path class="cls-1" d="M124.98,33c0-1.05-1.79-1.55-3.29-1.55-2.24,0-2.98,.44-3.4,.77,1.34-.45,5.23-.58,5.23,.79v.24c0,.5-.35,.51-1.05,.51h-4.18v.51h4.18c.9,0,.73,.32,1.47,.32,.85,0,1.03-.45,1.03-1.45v-.13Z"/><path class="cls-1" d="M116.16,31.51s.81-.26,2.13,.35c-.52,0-.67,.36-.67,.67v.56c0,.45,0,.67,.45,.67-.25,.44-.7,.83-1.15,.83s-.76-.23-.76-.68v-2.4Z"/><path class="cls-1" d="M124.98,38.37c0-1.05-1.34-1.55-2.69-1.55-1.79,0-4.22,.7-4.67,1.15,1.36-.86,5.9-1.15,5.9,.2v4.38c0,.5-.78,.67-1.83,.67v.51c1.05,0,1.2,.32,1.94,.32,.85,0,1.34-.45,1.34-1.45v-4.21Z"/><path class="cls-1" d="M116.16,36.88s.81-.26,2.13,.35c-.67,0-.67,.54-.67,.99v4.32c0,.45,.06,.67,.52,.67-.1,.33-.32,.83-1.22,.83-.45,0-.76-.45-.76-.9v-6.27Z"/><g><rect class="cls-1" x="104.39" y="33.18" width="7.62" height=".51"/><path class="cls-1" d="M110.52,33.69h1.48c.33,0,.58-.28,.58-.59,0-.4-.38-.86-1.52-.86,.4,.51,.32,.93-.55,.93v.51Z"/></g><rect class="cls-1" x="115.58" y="29.75" width="8.82" height=".51"/><path class="cls-1" d="M122.91,30.26h1.48c.33,0,.58-.29,.58-.6,0-.4-.38-.99-1.52-.99,.4,.51,.32,1.08-.55,1.08v.51Z"/><path class="cls-1" d="M109.25,48.91c-.9,0-1.79,0-1.79-1.51V28.28s.33,.72,3.62,.72c-.83,.25-1.72,.69-1.72,2.29v16.73c0,.74,1.17,.9,1.17,.9h-1.28Z"/><path class="cls-1" d="M109.76,35.44c1.49,0,2.44,2.26,2.44,3.58,0,.49-.2,.94-.77,.94s-.68-.45-.68-.94c0-.9-.39-2.69-.98-3.58Z"/><path class="cls-1" d="M120.95,44.36c.26-.13,.82-.19,1.34-.19,1.21,0,2.69,.66,2.69,1.6,0,.45-.21,.69-.66,.69-.9,0-.68-2.03-3.36-2.11Z"/><path class="cls-1" d="M116.47,46.47c1.34-.43,1.81-1.59,2.24-2.55,.45,0,.89,.18,1.34,.52-.43,.9-1.34,2.03-3.58,2.03Z"/><path class="cls-1" d="M109.37,33.69s-.96,8.45-4.98,10.78c1.84-2.48,3.08-7.2,3.08-10.78h1.91Z"/><path class="cls-1" d="M112.98,29.4s.42,.35,3.24,.35v.51c-.96,0-1.34,.5-1.34,1.75v14.2c0,.69,.75,.9,1.2,.46-.49,1.33-.81,2.24-1.89,2.24-1.38,0-1.21-1.68-1.21-2.06V29.4Z"/><path class="cls-1" d="M120.72,47.5c1.29,0,2.13-.8,2.13-1.25,.13,.31,.85,.65,1.57,.65,.31,0,.55,.25,.55,.55,0,.32-.25,.56-.55,.56h-3.7v-.51Z"/><rect class="cls-1" x="116.02" y="47.5" width="6.82" height=".51"/><rect class="cls-1" x="117.59" y="39.31" width="4.12" height=".51"/><path class="cls-1" d="M121,39.82h1.48c.33,0,.58-.29,.58-.6,0-.4-.38-.92-1.52-.92,.4,.51,.32,1.01-.55,1.01v.51Z"/><rect class="cls-1" x="116.16" y="35.86" width="7.45" height=".51"/><path class="cls-1" d="M122.91,36.38h1.48c.33,0,.58-.29,.58-.6,0-.4-.38-.92-1.52-.92,.4,.51,.32,1.01-.55,1.01v.51Z"/><rect class="cls-1" x="117.59" y="41.19" width="4.12" height=".51"/><path class="cls-1" d="M121,41.7h1.48c.33,0,.58-.29,.58-.6,0-.4-.38-.92-1.52-.92,.4,.51,.32,1.01-.55,1.01v.51Z"/></g><g><path class="cls-1" d="M84.27,39.06c-3.13,1.38-13.88,1.34-15.67,.9,5.82,0,10.89-.83,12.98-1.79,.9,.9,2.69,.9,2.69,.9Z"/><path class="cls-1" d="M77.47,46.29c0,1.07-.36,2.62-2.56,2.62-1.28,0-3.61-.15-4.51-.45,3.09,0,4.87-.45,4.87-2.08v-6.06s1.08,.67,3.24,.67c-.36,.19-1.04,.54-1.04,1.44v3.86Z"/><rect class="cls-1" x="74.53" y="37.49" width="3.62" height=".36"/><path class="cls-1" d="M81.14,35.63c0-1.05-1.34-1.55-2.69-1.55-.9,0-2.87,.43-3.92,.95,1.8-.33,4.4-.45,4.4,.6v1.19c0,.5-.65,.67-1.34,.67v.36c.9,0,1.31,.32,2.05,.32,.85,0,1.49-.45,1.49-1.45v-1.08Z"/><path class="cls-1" d="M78.51,30.73c-.44,.44-1.39,.9-2.14,.9-.6,0-1.1-.23-1.1-.68v-1.69c0-.43,.5-.94,1.19-.94h2.06c-.66,0-1.04,.44-1.04,.94v1.05c0,.45,.58,.42,1.04,.42Z"/><path class="cls-1" d="M71.29,34.14s1.93-.26,3.24,.35c-.89,.09-1.04,.54-1.04,.99v1.59c0,.45,.58,.42,1.04,.42-.44,.44-1,.68-1.75,.68-1.05,0-1.49-.23-1.49-.68v-3.35Z"/><path class="cls-1" d="M81.76,36.49c.39,.71,.91,1.04,2.03,1.04,1.04,0,1.83-.93,1.83-1.68v-1.28c0-3.65-10.66-3.92-15.38-.49,2.4-1.47,13.17-2.63,13.17,.95v.42c0,.61-.89,1.33-1.65,1.04Z"/><path class="cls-1" d="M69.02,35.48c0,.77,1.4,.64,1.92,.13-.56,1.52-1.38,2.11-2.34,2.11-1.54,0-1.78-1.87-1.78-2.29v-3.8c1.44,.59,2.61-.63,5.17-.63-.48,0-2.97,.55-2.97,2.22v2.26Z"/><path class="cls-1" d="M69.5,28.77c.9-.45,2.32-.05,3.13,.37,1,.52,1.79,1.4,1.79,2.03,0,.45-.45,.69-.9,.69-1.34,0-1.34-3.1-4.03-3.1Z"/><path class="cls-1" d="M78.51,31.42c1.77-.5,2.93-2.34,3.53-3.14,.45,0,1.34,.49,1.79,.94-.9,.9-3.08,2.2-5.32,2.2Z"/><rect class="cls-1" x="66.82" y="44.96" width="16.66" height=".51"/><path class="cls-1" d="M81.04,44.96c1.29,0,2.44-1.33,2.44-1.78,.23,.57,.75,1.11,1.57,1.11,.31,0,.55,.29,.55,.59,0,.32-.25,.59-.55,.59h-4.02v-.51Z"/><rect class="cls-1" x="67.71" y="42.3" width="14.75" height=".51"/><path class="cls-1" d="M81.76,42.81h1.48c.33,0,.58-.29,.58-.6,0-.4-.38-.92-1.52-.92,.4,.51,.32,1.01-.55,1.01v.51Z"/></g><g><path class="cls-1" d="M35.53,31.58c0,3.38-4.27,6.58-6.65,6.58s-1.32-2.35-.61-2.35c-.58,.68-.34,1.4,.34,1.4,1.96,0,4.65-3.17,4.65-5.63h2.27Z"/><path class="cls-1" d="M35.91,28.32s.33,.46,3.62,.46c-.59,.31-1.42,.91-1.42,2.51v3.3c0,.77,.36,1.37,1.42,.45-1,2.8-1.9,3.13-2.54,3.13-1.12,0-1.09-1.37-1.09-1.79v-8.06Z"/><rect class="cls-1" x="31.02" y="38.89" width="8.95" height=".51"/><path class="cls-1" d="M38.83,38.89c1.73,0,2.96-.38,3.1-.85,.24,.57,1,.7,1.51,.85,.48,.14,1.01,.36,1.01,.83,0,1.12-2.47,2.21-5.37,2.21,3.58-.61,4.48-2.52-.25-2.52v-.51Z"/><path class="cls-1" d="M38.63,46.14c0,1.87-1.07,2.77-2.86,2.77-2.24,0-3.81-1.34-4.26-2.69,1.47,1.85,4.88,2.22,4.88-.08v-4.61c0-.99-.68-1.51-.68-1.51,2.04,0,2.92,.66,2.92,1.91v4.21Z"/><path class="cls-1" d="M39.98,31.94c1.34,1.75,4.55,3.04,8.06,3.04-1.34,0-1,1.84-2.74,1.84s-5.32-2.69-5.32-4.88Z"/><rect class="cls-1" x="27.44" y="43.9" width="18.47" height=".51"/><path class="cls-1" d="M43.48,43.9c1.29,0,2.44-1.25,2.44-1.71,.23,.57,.75,1.11,1.57,1.11,.31,0,.55,.25,.55,.54,0,.32-.25,.56-.55,.56h-4.02v-.51Z"/><rect class="cls-1" x="29.23" y="31.5" width="14.75" height=".51"/><path class="cls-1" d="M43.28,32.02h1.48c.33,0,.58-.29,.58-.6,0-.4-.38-.92-1.52-.92,.4,.51,.32,1.01-.55,1.01v.51Z"/></g></g><g><path class="cls-2" d="M33.49,20.61l.06-1.34c.57,.04,1.19-.11,1.59-.41,.44-.33,.52-.66,.32-.93-.22-.29-.56-.17-1.13-.03l-.84,.21c-.68,.19-1.5,.13-2.04-.59-.64-.84-.4-2.07,.66-2.88,.57-.44,1.35-.68,2.11-.58l-.03,1.2c-.51,0-.92,.1-1.31,.4-.37,.28-.48,.59-.28,.85,.21,.28,.6,.15,1.18-.01l.81-.23c.8-.22,1.48-.09,2.02,.61,.63,.83,.49,2.08-.71,3-.65,.49-1.52,.78-2.4,.7Z"/><path class="cls-2" d="M39.63,9.79l1.31-.74,3.06,5.44-1.31,.73-3.06-5.44Z"/><path class="cls-2" d="M47.35,5.9l1.42-.55,2.52,2.23,1.07,1.07,.04-.02c-.31-.59-.75-1.38-1.02-2.08l-.74-1.93,1.33-.51,2.25,5.83-1.42,.55-2.52-2.25-1.06-1.05h-.04c.31,.64,.74,1.39,1.01,2.1l.74,1.93-1.33,.51-2.25-5.83Z"/><path class="cls-2" d="M59.31,5.24c-.42-2.03,.7-3.48,2.25-3.8,.8-.17,1.51,.07,2.02,.41l-.57,1.09c-.37-.21-.73-.34-1.17-.25-.79,.16-1.29,1-1.04,2.19,.25,1.21,.96,1.81,1.82,1.63,.49-.1,.83-.43,1.05-.8l.96,.76c-.39,.71-1.01,1.15-1.81,1.32-1.55,.32-3.09-.47-3.51-2.54Z"/><path class="cls-2" d="M70.18,.34l3.95-.2,.06,1.25-2.45,.13,.06,1.16,2.08-.11,.06,1.26-2.08,.1,.07,1.32,2.54-.13,.06,1.26-4.04,.21-.32-6.24Z"/><path class="cls-2" d="M87.13,6.5c1.76-1.07,3.05-1.87,3.22-2.71,.12-.57-.13-.92-.62-1.03-.42-.09-.8,.14-1.16,.38l-.63-.95c.73-.51,1.35-.71,2.22-.52,1.18,.24,1.85,1.17,1.61,2.34-.2,.99-1.35,1.86-2.47,2.62,.31,.02,.74,.07,1.02,.13l1.12,.23-.25,1.23-4.24-.88,.17-.84Z"/><path class="cls-2" d="M97.59,6.86c.72-1.95,1.93-2.63,3.17-2.17,1.24,.46,1.7,1.77,.98,3.71-.72,1.95-1.94,2.68-3.18,2.22-1.24-.46-1.69-1.81-.97-3.76Zm2.82,1.05c.57-1.54,.36-1.98-.06-2.13-.42-.15-.87,.03-1.45,1.58-.57,1.54-.37,2.03,.05,2.18,.42,.15,.88-.08,1.45-1.62Z"/><path class="cls-2" d="M107.17,10.92c1.01-1.82,2.3-2.31,3.46-1.66,1.15,.64,1.41,2,.4,3.81-1.01,1.81-2.33,2.35-3.48,1.71-1.16-.64-1.4-2.04-.38-3.86Zm2.63,1.46c.8-1.44,.66-1.9,.27-2.12-.39-.22-.87-.1-1.67,1.34-.8,1.44-.67,1.95-.29,2.16,.39,.22,.88,.05,1.68-1.39Z"/><path class="cls-2" d="M119.28,16.64l-2.12-1.64,.76-.99,3.38,2.61-.56,.73c-2.14,.46-2.97,1.23-4.5,3.04l-1.19-.92c1.31-1.5,2.36-2.28,4.23-2.84Z"/></g></g></g></svg>