<?xml version="1.0" encoding="UTF-8"?><svg id="_圖層_2" xmlns="http://www.w3.org/2000/svg" viewBox="0 0 396.43 293.7"><defs><style>.cls-1{fill:#bf0023;}.cls-2{fill:#251e1c;}.cls-3{fill:none;stroke:#bf0023;stroke-miterlimit:10;stroke-width:.7px;}</style></defs><g id="_01"><g><g><g><path class="cls-1" d="M71.36,290.91v-24.01l19.95,20.88v-20.63h1.57v24.37l-19.95-20.88v20.27h-1.57Z"/><path class="cls-1" d="M122.66,279.08c0,6.84-5.38,12.22-12.33,12.22s-12.33-5.38-12.33-12.22,5.38-12.26,12.33-12.26,12.33,5.42,12.33,12.26Zm-1.64,0c0-6.09-4.56-10.83-10.69-10.83s-10.69,4.74-10.69,10.83,4.56,10.8,10.69,10.8,10.69-4.74,10.69-10.8Z"/><path class="cls-1" d="M151.15,279.08c0,6.84-5.38,12.22-12.33,12.22s-12.33-5.38-12.33-12.22,5.38-12.26,12.33-12.26,12.33,5.42,12.33,12.26Zm-1.64,0c0-6.09-4.56-10.83-10.69-10.83s-10.69,4.74-10.69,10.83,4.56,10.8,10.69,10.8,10.69-4.74,10.69-10.8Z"/><path class="cls-1" d="M156.28,290.91v-23.76h4.7c2.1,0,5.77,.32,8.76,3.31,2.53,2.53,3.42,5.99,3.42,8.59s-.89,6.02-3.42,8.55c-2.99,2.99-6.66,3.31-8.76,3.31h-4.7Zm1.57-1.43h3.1c6.27,0,10.58-4.28,10.58-10.44s-4.35-10.47-10.58-10.47h-3.1v20.91Z"/><path class="cls-1" d="M179.86,267.15v22.34h6.63v1.43h-8.19v-23.76h1.57Z"/><path class="cls-1" d="M201.59,268.57h-9.83v8.62h9.62v1.43h-9.62v10.87h9.83v1.43h-11.4v-23.76h11.4v1.43Z"/><path class="cls-1" d="M217.55,271.17c-1.46-2.85-4.03-2.92-4.67-2.92-2.82,0-4.42,2.03-4.42,4.42,0,2.57,1.78,3.42,4.17,4.6,2.35,1.14,3.53,1.64,4.74,2.49,1.03,.71,2.53,1.96,2.53,4.6,0,3.99-3.35,6.95-7.41,6.95-3.06,0-4.63-1.46-5.52-2.49-.93-1.07-1.32-2-1.53-2.6l1.35-.64c.32,.93,.93,1.85,1.28,2.28,1.07,1.35,2.82,2.03,4.45,2.03,3.21,0,5.74-2.35,5.74-5.49,0-1.28-.5-2.64-2.32-3.74-.68-.39-2.07-1.1-4.03-2.07-2.35-1.14-3.53-1.78-4.35-3.14-.53-.89-.75-1.78-.75-2.71,0-2.74,1.85-5.91,6.09-5.91,2.39,0,4.56,1.14,5.77,3.38l-1.14,.96Z"/></g><g><path class="cls-1" d="M286.81,267.15v22.34h6.63v1.43h-8.19v-23.76h1.57Z"/><path class="cls-1" d="M308.54,268.57h-9.83v8.62h9.62v1.43h-9.62v10.87h9.83v1.43h-11.4v-23.76h11.4v1.43Z"/><path class="cls-1" d="M325.07,268.57h-9.83v8.62h9.62v1.43h-9.62v10.87h9.83v1.43h-11.4v-23.76h11.4v1.43Z"/></g><path class="cls-1" d="M260.02,268.38h-4.8v.68h6.78c.43,0,.78-.39,.78-.8,0-.53-.51-1.22-2.02-1.22,.53,.67,.42,1.34-.73,1.34Zm-4.7,1.67c0,2.93,5.66,7.04,7.97,7.04s1.79-3,3.58-3c-4.66,0-9.76-1.72-11.55-4.05Zm-15,8.29c3.16,0,8.85-3.42,8.85-7.92h-3.62c0,3.27-2.98,6.65-5.59,6.65-.9,0-1.22-.95-.45-1.86-.94,0-2.35,3.14,.81,3.14Zm10.4-14.2v10.73c0,.56-.04,2.38,1.45,2.38,.84,0,2.04-.44,3.38-4.17-1.41,1.23-1.89,.43-1.89-.6v-4.4c0-2.13,1.1-2.93,1.89-3.34-4.39,0-4.82-.61-4.82-.61Zm1.85,28.89c-5.56,0-10.42-3-13.07-7.47h10.11v-.68h-11.24c2.6,5.22,7.99,8.82,14.2,8.82,5.38,0,10.15-2.7,13.02-6.82h-.82c-2.77,3.73-7.2,6.15-12.19,6.15Zm0-31.04c-8.74,0-15.86,7.11-15.86,15.86,0,1.53,.22,3.01,.63,4.41h.7c-.43-1.4-.66-2.88-.66-4.41,0-8.37,6.81-15.19,15.19-15.19s15.19,6.81,15.19,15.19c0,1.77-.31,3.46-.86,5.04h.71c.53-1.58,.82-3.28,.82-5.04,0-8.74-7.11-15.86-15.86-15.86Zm-10.74,7.07h7.33v-.68h-7.33v.68Zm24.31,15.03c-1.09,0-1.79-.72-2.09-1.48,0,.6-1.53,2.27-3.25,2.27h-4.66v.68h10.01c.41,0,.74-.33,.74-.75,0-.4-.33-.73-.74-.73Zm-21.28,3.89c.6,1.79,2.7,3.58,5.68,3.58,2.38,0,3.81-1.19,3.81-3.69v-5.6c0-1.66-1.16-2.54-3.89-2.54,0,0,.91,.68,.91,2v6.14c0,3.07-4.54,2.58-6.5,.11Zm-.65-9.08h10.4c6.29,0,5.09,2.55,.33,3.36,3.86,0,7.82-1.32,7.82-2.81,0-.62-.7-.91-1.34-1.1-.68-.2-2.36-.5-2.68-1.26-.19,.62-1.83,1.13-4.13,1.13h-10.4v.68Z"/></g><g><g><rect class="cls-2" x="355.14" y="157.7" width="33.08" height="1.97"/><path class="cls-2" d="M380.95,157.7c4.97,0,9.39-4.81,9.39-6.56,.47,1.72,.93,4.26,3.96,4.26,1.18,0,2.13,.95,2.13,2.09,0,1.21-.95,2.17-2.13,2.17h-13.35v-1.97Z"/><rect class="cls-2" x="367.27" y="216.27" width="24.52" height="1.97"/><rect class="cls-2" x="368.91" y="182.61" width="13.76" height="1.97"/><rect class="cls-2" x="368.91" y="197.83" width="13.76" height="1.97"/><path class="cls-2" d="M320.74,166.63s2.9-1,7.95,1.36c-2.58,0-2.58,2.08-2.58,3.8v7.13c0,5.96-3.65,10.07-8.81,10.07,1.72-1.72,3.44-3.44,3.44-9.73v-12.64Z"/><path class="cls-2" d="M343.97,166.63s2.91-1,7.96,1.36c-2.58,0-2.58,2.08-2.58,3.8v4.98c0,5.96-2.8,10.07-8.82,10.07,1.72-1.72,3.44-3.44,3.44-9.73v-10.48Z"/><g><rect class="cls-2" x="319.02" y="161.14" width="32.16" height="1.97"/><path class="cls-2" d="M345.48,163.11h5.7c1.26,0,2.24-1.06,2.24-2.25,0-1.53-1.46-3.29-5.83-3.29,1.54,1.95,1.22,3.57-2.11,3.57v1.97Z"/></g><rect class="cls-2" x="336.75" y="202.75" width="11.04" height="1.38"/><path class="cls-2" d="M331.06,195c.86,1.42,2.42,2.16,4.3,2.59,1.81,.41,3.02,1.33,3.02,3.44,0,4.47-9.04,18.92-21.08,18.92,8.6-3.44,13.76-16.35,13.76-24.95Z"/><path class="cls-2" d="M339.41,202.75h8.41c2.61,0,4.11,1.21,4.11,3.13,0,6.89-9.98,24.4-34.62,24.4,15.51-3.14,25.58-17.2,27.29-22.36,.54-1.63,.13-3.78-5.18-3.78v-1.38Z"/><path class="cls-2" d="M322.46,204.47c6.88,10.32,16.38,20.2,32.68,20.2h41.29c-6.88,1.72-3.44,5.6-10.32,5.6h-30.96c-17.2,0-30.96-13.76-32.68-25.8Z"/><path class="cls-2" d="M330.2,150.99s.44,2.75,10.76,2.75c-3.2,.94-3.44,2.65-3.44,8.8v19.57c0,12.12-9.9,15.48-20.22,15.48,6.88-1.72,12.9-3.14,12.9-15.48v-31.12Z"/><path class="cls-2" d="M336.22,188.99c4.4,0,15.7,.69,15.7,5.16,0,2.21-1.94,3.44-3.66,3.44-4.42,0-5.16-6.54-12.04-8.6Z"/><path class="cls-2" d="M355.14,171.54s12.04-11.87,29.01-11.87c-4.41,0-20.91,6.39-20.91,13.48v39.85c0,1.87,3.1,1.87,3.94,0-1.72,5.31-3.44,8.75-6.88,8.75-1.68,0-3.39-1.09-3.39-3.5v-42.27c0-1.36-.02-4.43-1.77-4.43Z"/><path class="cls-2" d="M376.93,169.06c-2.29,0-3.77,2.65-3.77,4.37v43.44h-5.9v-40c0-1.64-1.23-1.72-1.23-1.72,1.72-5.16,4.59-7.46,11.47-7.46h6.88c6.99,0,10.32,5.74,10.32,9.18v41.37c0,1.78-1.72,3.5-3.44,3.5-2.86,0-3.44-3.5-10.31-3.5l2.86-1.97c3.57,0,4.56-2.44,4.56-7.14v-35.7c0-1.72-2.26-4.37-4.57-4.37h-6.87Z"/><rect class="cls-2" x="378.41" y="168.22" width="5.9" height="48.64"/></g><g><path class="cls-2" d="M44.03,152.86s7.4-1,12.46,1.36c-1.38,.71-3.98,1.92-3.98,10.03v29.53c0,26.17-23.6,36.49-40.47,36.49,7.63-2.75,31.99-5.16,31.99-39.56v-37.84Z"/><path class="cls-2" d="M13.54,168.61s7.4-1,12.46,1.36c-1.38,.71-3.98,1.92-3.98,10.03v17.84c0,5.96-3.1,10.07-13.42,10.07,1.72-1.72,4.94-3.44,4.94-9.73v-29.57Z"/><rect class="cls-2" x="1.72" y="164.88" width="27.92" height="1.97"/><path class="cls-2" d="M79.13,214.79c0,9.49-7.7,15.48-14.58,15.48-8.6,0-18.1-5.16-19.82-10.32,8.94,8.94,25.93,6.88,25.93-5.16v-30.96c0-20.64-31.09-13.76-43.13-3.44,13.76-17.2,51.61-20.64,51.61,0v34.4Z"/><path class="cls-2" d="M1.72,209.33c5.16,6.15,25.78,.3,36.12-9.75-6.88,13.49-20.64,19.06-29.24,19.06-5.16,0-8.6-.41-8.6-4.08,0-1.91,.65-3.79,1.72-5.23Z"/><path class="cls-2" d="M20.28,164.88c4.97,0,9.39-5.11,9.39-6.85,.88,2.18,2.89,4.26,6.04,4.26,1.18,0,2.13,1.14,2.13,2.28,0,1.21-.95,2.28-2.13,2.28h-15.43v-1.97Z"/></g><g><rect class="cls-2" x="107.41" y="169.72" width="59.69" height="1.97"/><path class="cls-2" d="M161.4,171.69h5.7c1.26,0,2.24-1.36,2.24-2.55,0-1.53-1.46-3.29-5.83-3.29,1.54,1.95,1.22,3.87-2.11,3.87v1.97Z"/><path class="cls-2" d="M143.75,164.25c0-6.14,2.68-8.46,4.94-9.64-12.67,0-15.7-1.75-15.7-1.75,0,68.81-13.54,69.93-32.46,77.41,16.87,0,43.23-3.44,43.23-66.02Z"/><path class="cls-2" d="M143.53,201.03c5.16,6.73,17.2,21.92,36.12,21.92-5.16,2.16-5.37,7.32-10.53,7.32-10.32,0-25.59-17.3-25.59-29.24Z"/><rect class="cls-2" x="102.25" y="192.82" width="67.46" height="1.97"/><path class="cls-2" d="M160.34,192.82c4.97,0,9.39-5.11,9.39-6.85,.88,2.18,2.89,4.26,6.04,4.26,1.18,0,2.13,1.14,2.13,2.28,0,1.21-.95,2.28-2.13,2.28h-15.43v-1.97Z"/></g><g><path class="cls-2" d="M235.06,200s1.29,2.75,12.04,2.75c-6.88,3.79-12.68,10.32-39.56,10.32,8.6-1.72,20.64-3.96,27.52-13.07Z"/><path class="cls-2" d="M274.62,203.44s6.88,1.03,8.6,4.47c-3.44,1.72-13.76,8.61-25.8,8.61,5.05-1.87,15.84-8.61,17.2-13.08Z"/><path class="cls-2" d="M230.98,216.51v6.88c0,3.44,12.58,0,19.56-3.44,0,0-10.24,10.32-30.16,10.32,2.21-1.72,2.64-5.1,2.64-8.6v-10.18s4.94,1.58,11.4,1.58c-1.35-.02-3.44,1.59-3.44,3.44Z"/><g><rect class="cls-2" x="217.86" y="161.37" width="32.64" height="1.97"/><path class="cls-2" d="M244.8,163.34h5.7c1.26,0,2.24-1.06,2.24-2.25,0-1.53-1.46-3.29-5.83-3.29,1.54,1.95,1.22,3.57-2.11,3.57v1.97Z"/></g><g><rect class="cls-2" x="207.53" y="169.82" width="49.07" height="1.97"/><path class="cls-2" d="M250.9,171.79h5.7c1.26,0,2.24-1.06,2.24-2.25,0-1.53-1.46-3.29-5.83-3.29,1.54,1.95,1.22,3.57-2.11,3.57v1.97Z"/></g><path class="cls-2" d="M245.38,206.49c12.04,13.46,25.8,16.9,41.29,16.9-5.16,1.3-5.16,6.88-10.32,6.88-10.32,0-30.96-13.76-30.96-23.78Z"/><rect class="cls-2" x="207.53" y="198.72" width="70.93" height="1.97"/><path class="cls-2" d="M269.1,198.72c4.97,0,9.39-4.81,9.39-6.56,.88,2.18,2.89,4.26,6.04,4.26,1.18,0,2.13,.95,2.13,2.09,0,1.21-.95,2.17-2.13,2.17h-15.43v-1.97Z"/><path class="cls-2" d="M260.21,154.95s.65,1.44,9.61,1.44c-1.86,.97-3.15,2.88-3.15,7.94v17.01c0,5.3-3.15,6.94-6.31,6.94h-1.73s1.58-1.58,1.58-4.79v-28.55Z"/><path class="cls-2" d="M280.39,184.13c0,3.38-.6,8.3-6.36,8.3-4.04,0-7.18-1.74-10.21-2.22,9.78,0,10.11-2.03,10.11-5.8v-31.55s2.89,2.13,9.74,2.13c-1.14,.59-3.28,1.71-3.28,4.55v24.59Z"/><path class="cls-2" d="M214.42,153.02s-.65,2.59,9.48,2.59c-1.62,.65-2.85,2.25-3.24,3.82-1.62,6.55-4.52,9.07-10.97,9.07,4.73-4.89,4.73-8.6,4.73-15.48Z"/><path class="cls-2" d="M230.03,153.19s5.57-.82,9.74,1.12c-1.14,.59-3.28,1.58-3.28,8.26v22.91c0,5.31-1.65,6.94-4.81,6.94h-3.23s1.58-1.58,1.58-4.79v-34.45Z"/><path class="cls-2" d="M212.7,173.48s-.83,1.44,9.61,1.44c-1.86,.97-3.15,2.88-3.15,7.94v2.6c0,5.3-3.31,6.94-6.46,6.94h-1.58s1.58-1.58,1.58-4.79v-14.14Z"/><path class="cls-2" d="M253.83,186.28c0-7.18-8.45-11.05-15.33-11.05-6,0-13.04,1.58-16.19,6.15,2.47-1.49,9.45-3.05,14.18-3.05,6.9,0,10.88,2.07,10.88,6.62,0,1.24-1.95,2.09-4.15,2.09,4.36,1.44,4.33,5.36,7.69,5.36,2.68,0,2.93-1.93,2.93-4.3v-1.82Z"/><path class="cls-2" d="M237.05,191.3c6.52-1.78,15.21,1.33,15.21,5.46,0,2.02-.72,3.92-3.44,3.92-3.11,0-4.35-2.32-5.16-4.55-.64-1.77-4.05-4.83-6.61-4.83Z"/></g></g><g><g><path class="cls-1" d="M311.74,81.87c0-1.12,1.29-2.43,3.08-2.43h4.42c-1.71,0-3.71,1.15-3.71,2.43v8.08c0,4.03-3.24,4.68-7.14,4.68,2.33-.47,3.34-1.18,3.34-3.36v-9.4Z"/><rect class="cls-1" x="307.31" y="112.4" width="11.97" height="1.33"/><path class="cls-1" d="M325.1,85.85c0-2.73-4.66-4.04-8.55-4.04-5.82,0-7.75,1.14-8.84,1.99,3.49-1.16,13.6-1.51,13.6,2.04v.63c0,1.31-.92,1.33-2.73,1.33h-10.87v1.33h10.87c2.35,0,1.89,.83,3.83,.83,2.21,0,2.69-1.16,2.69-3.78v-.34Z"/><path class="cls-1" d="M302.18,81.96s2.12-.67,5.54,.92c-1.34,0-1.74,.95-1.74,1.75v1.45c0,1.16-.02,1.73,1.16,1.73-.66,1.15-1.82,2.16-2.99,2.16s-1.97-.6-1.97-1.76v-6.25Z"/><path class="cls-1" d="M325.1,99.82c0-2.73-3.49-4.04-6.99-4.04-4.66,0-10.98,1.82-12.15,2.98,3.53-2.24,15.34-2.98,15.34,.51v11.38c0,1.31-2.03,1.73-4.76,1.73v1.33c2.73,0,3.12,.83,5.06,.83,2.21,0,3.49-1.16,3.49-3.78v-10.95Z"/><path class="cls-1" d="M302.18,95.93s2.12-.67,5.54,.92c-1.74,0-1.74,1.41-1.74,2.57v11.24c0,1.16,.16,1.73,1.34,1.73-.25,.86-.84,2.16-3.17,2.16-1.16,0-1.97-1.16-1.97-2.33v-16.3Z"/><g><rect class="cls-1" x="271.54" y="86.31" width="19.82" height="1.33"/><path class="cls-1" d="M287.51,87.64h3.86c.85,0,1.52-.72,1.52-1.53,0-1.04-.99-2.23-3.95-2.23,1.04,1.32,.82,2.42-1.43,2.42v1.33Z"/></g><rect class="cls-1" x="300.65" y="77.39" width="22.94" height="1.33"/><path class="cls-1" d="M319.73,78.72h3.86c.85,0,1.52-.76,1.52-1.57,0-1.04-.99-2.59-3.95-2.59,1.04,1.32,.82,2.82-1.43,2.82v1.33Z"/><path class="cls-1" d="M284.2,127.23c-2.33,0-4.66,0-4.66-3.92v-49.75s.85,1.86,9.42,1.86c-2.16,.64-4.47,1.79-4.47,5.95v43.52c0,1.92,3.04,2.33,3.04,2.33h-3.34Z"/><path class="cls-1" d="M285.51,92.19c3.88,0,6.35,5.87,6.35,9.32,0,1.27-.53,2.43-2.01,2.43-1.48,0-1.78-1.16-1.78-2.43,0-2.33-1.02-6.99-2.56-9.32Z"/><path class="cls-1" d="M314.64,115.4c.68-.34,2.14-.49,3.48-.49,3.15,0,6.99,1.7,6.99,4.17,0,1.16-.56,1.8-1.72,1.8-2.33,0-1.77-5.29-8.74-5.48Z"/><path class="cls-1" d="M302.98,120.88c3.49-1.11,4.72-4.12,5.84-6.64,1.16,0,2.31,.48,3.48,1.35-1.12,2.33-3.49,5.29-9.31,5.29Z"/><path class="cls-1" d="M284.5,87.64s-2.5,21.99-12.96,28.04c4.8-6.45,8-18.72,8-28.04h4.96Z"/><path class="cls-1" d="M293.9,76.47s1.09,.92,8.43,.92v1.33c-2.5,0-3.48,1.29-3.48,4.55v36.95c0,1.81,1.95,2.35,3.11,1.18-1.27,3.45-2.1,5.82-4.92,5.82-3.6,0-3.15-4.37-3.15-5.35v-45.41Z"/><path class="cls-1" d="M314.04,123.57c3.36,0,5.53-2.08,5.53-3.26,.35,.81,2.22,1.7,4.09,1.7,.8,0,1.44,.65,1.44,1.42,0,.82-.65,1.47-1.44,1.47h-9.62v-1.33Z"/><rect class="cls-1" x="301.81" y="123.57" width="17.74" height="1.33"/><rect class="cls-1" x="305.89" y="102.25" width="10.71" height="1.33"/><path class="cls-1" d="M314.77,103.58h3.86c.85,0,1.52-.76,1.52-1.57,0-1.04-.99-2.39-3.95-2.39,1.04,1.32,.82,2.62-1.43,2.62v1.33Z"/><rect class="cls-1" x="302.18" y="93.29" width="19.38" height="1.33"/><path class="cls-1" d="M319.73,94.62h3.86c.85,0,1.52-.76,1.52-1.57,0-1.04-.99-2.39-3.95-2.39,1.04,1.32,.82,2.62-1.43,2.62v1.33Z"/><rect class="cls-1" x="305.89" y="107.14" width="10.71" height="1.33"/><path class="cls-1" d="M314.77,108.47h3.86c.85,0,1.52-.76,1.52-1.57,0-1.04-.99-2.39-3.95-2.39,1.04,1.32,.82,2.62-1.43,2.62v1.33Z"/></g><g><path class="cls-1" d="M219.22,101.61c-8.15,3.58-36.1,3.49-40.75,2.33,15.14,0,28.33-2.15,33.77-4.66,2.33,2.33,6.99,2.33,6.99,2.33Z"/><path class="cls-1" d="M201.53,120.41c0,2.77-.93,6.81-6.67,6.81-3.32,0-9.4-.39-11.73-1.16,8.04,0,12.66-1.16,12.66-5.42v-15.76s2.81,1.75,8.43,1.75c-.93,.48-2.69,1.41-2.69,3.74v10.04Z"/><rect class="cls-1" x="193.89" y="97.52" width="9.42" height=".93"/><path class="cls-1" d="M211.07,92.7c0-2.73-3.49-4.04-6.99-4.04-2.33,0-7.47,1.11-10.2,2.47,4.67-.87,11.45-1.16,11.45,1.56v3.09c0,1.31-1.68,1.73-3.49,1.73v.93c2.35,0,3.4,.83,5.34,.83,2.21,0,3.88-1.16,3.88-3.78v-2.8Z"/><path class="cls-1" d="M204.22,79.93c-1.15,1.15-3.63,2.33-5.56,2.33-1.56,0-2.87-.6-2.87-1.76v-4.4c0-1.12,1.29-2.43,3.08-2.43h5.35c-1.71,0-2.69,1.15-2.69,2.43v2.73c0,1.16,1.51,1.1,2.69,1.1Z"/><path class="cls-1" d="M185.46,88.8s5.01-.67,8.43,.92c-2.31,.24-2.69,1.41-2.69,2.57v4.12c0,1.16,1.51,1.1,2.69,1.1-1.15,1.15-2.61,1.76-4.55,1.76-2.72,0-3.88-.6-3.88-1.76v-8.72Z"/><path class="cls-1" d="M212.69,94.92c1.01,1.85,2.36,2.71,5.27,2.71,2.7,0,4.75-2.42,4.75-4.37v-3.33c0-9.49-27.74-10.21-40.01-1.28,6.24-3.82,34.27-6.83,34.27,2.48v1.09c0,1.59-2.32,3.46-4.28,2.71Z"/><path class="cls-1" d="M179.55,92.29c0,2.01,3.64,1.68,4.98,.33-1.46,3.95-3.59,5.49-6.09,5.49-4,0-4.63-4.86-4.63-5.95v-9.89c3.74,1.52,6.79-1.63,13.45-1.63-1.24,0-7.71,1.42-7.71,5.77v5.87Z"/><path class="cls-1" d="M180.8,74.83c2.33-1.16,6.05-.12,8.15,.97,2.6,1.35,4.66,3.65,4.66,5.29,0,1.16-1.16,1.79-2.33,1.79-3.49,0-3.49-8.06-10.48-8.06Z"/><path class="cls-1" d="M204.22,81.73c4.61-1.31,7.63-6.08,9.18-8.17,1.16,0,3.49,1.27,4.66,2.43-2.33,2.33-8.02,5.73-13.84,5.73Z"/><rect class="cls-1" x="173.81" y="116.96" width="43.33" height="1.33"/><path class="cls-1" d="M210.81,116.96c3.36,0,6.36-3.46,6.36-4.64,.59,1.48,1.96,2.88,4.09,2.88,.8,0,1.44,.77,1.44,1.54,0,.82-.65,1.55-1.44,1.55h-10.45v-1.33Z"/><rect class="cls-1" x="176.14" y="110.04" width="38.37" height="1.33"/><path class="cls-1" d="M212.68,111.37h3.86c.85,0,1.52-.76,1.52-1.57,0-1.04-.99-2.39-3.95-2.39,1.04,1.32,.82,2.62-1.43,2.62v1.33Z"/></g><g><path class="cls-1" d="M92.43,82.15c0,8.79-11.12,17.13-17.29,17.13s-3.42-6.12-1.59-6.12c-1.51,1.77-.88,3.63,.88,3.63,5.1,0,12.09-8.24,12.09-14.64h5.91Z"/><path class="cls-1" d="M93.4,73.67s.85,1.19,9.42,1.19c-1.53,.8-3.68,2.36-3.68,6.52v8.59c0,2.01,.93,3.57,3.68,1.16-2.6,7.29-4.95,8.15-6.59,8.15-2.91,0-2.83-3.57-2.83-4.66v-20.96Z"/><rect class="cls-1" x="80.7" y="101.17" width="23.29" height="1.33"/><path class="cls-1" d="M101.02,101.17c4.5,0,7.7-.99,8.07-2.2,.61,1.48,2.59,1.81,3.92,2.2,1.25,.37,2.62,.93,2.62,2.15,0,2.91-6.44,5.75-13.97,5.75,9.31-1.58,11.64-6.56-.64-6.56v-1.33Z"/><path class="cls-1" d="M100.5,120.02c0,4.88-2.78,7.21-7.43,7.21-5.82,0-9.92-3.49-11.09-6.99,3.83,4.82,12.7,5.78,12.7-.22v-11.99c0-2.58-1.77-3.92-1.77-3.92,5.32,0,7.59,1.72,7.59,4.96v10.95Z"/><path class="cls-1" d="M103.99,83.08c3.49,4.55,11.85,7.91,20.96,7.91-3.49,0-2.61,4.8-7.13,4.8s-13.83-6.99-13.83-12.7Z"/><rect class="cls-1" x="71.39" y="114.2" width="48.05" height="1.33"/><path class="cls-1" d="M113.1,114.2c3.36,0,6.36-3.26,6.36-4.44,.59,1.48,1.96,2.88,4.09,2.88,.8,0,1.44,.65,1.44,1.42,0,.82-.65,1.47-1.44,1.47h-10.45v-1.33Z"/><rect class="cls-1" x="76.05" y="81.95" width="38.37" height="1.33"/><path class="cls-1" d="M112.59,83.28h3.86c.85,0,1.52-.76,1.52-1.57,0-1.04-.99-2.39-3.95-2.39,1.04,1.32,.82,2.62-1.43,2.62v1.33Z"/></g></g><g><path class="cls-3" d="M87.12,53.62l.14-3.49c1.49,.1,3.1-.28,4.13-1.06,1.14-.87,1.35-1.71,.82-2.41-.57-.75-1.47-.45-2.93-.07l-2.18,.56c-1.76,.5-3.89,.33-5.32-1.54-1.66-2.18-1.03-5.39,1.71-7.48,1.5-1.14,3.51-1.77,5.5-1.5l-.07,3.12c-1.34,0-2.4,.26-3.41,1.03-.95,.73-1.24,1.54-.72,2.22,.56,.73,1.56,.4,3.06-.03l2.1-.59c2.09-.57,3.86-.23,5.25,1.6,1.64,2.15,1.27,5.42-1.85,7.8-1.68,1.28-3.97,2.03-6.24,1.82Z"/><path class="cls-3" d="M103.09,25.48l3.4-1.92,7.96,14.16-3.4,1.91-7.96-14.16Z"/><path class="cls-3" d="M123.16,15.34l3.7-1.43,6.57,5.81,2.78,2.79,.1-.04c-.8-1.53-1.95-3.59-2.65-5.41l-1.94-5.02,3.46-1.33,5.84,15.16-3.7,1.43-6.56-5.87-2.76-2.74-.1,.04c.82,1.63,1.92,3.59,2.63,5.42l1.94,5.02-3.46,1.33-5.84-15.16Z"/><path class="cls-3" d="M154.28,13.64c-1.1-5.29,1.82-9.06,5.85-9.89,2.07-.43,3.94,.18,5.26,1.07l-1.48,2.84c-.96-.55-1.9-.9-3.03-.66-2.05,.43-3.36,2.61-2.71,5.7,.66,3.16,2.49,4.7,4.73,4.24,1.28-.27,2.15-1.12,2.73-2.09l2.51,1.98c-1.02,1.84-2.63,2.99-4.7,3.42-4.04,.84-8.03-1.23-9.14-6.61Z"/><path class="cls-3" d="M182.57,.89l10.28-.52,.16,3.25-6.38,.33,.15,3.01,5.42-.28,.16,3.27-5.42,.27,.17,3.44,6.62-.34,.17,3.27-10.52,.54-.82-16.23Z"/><path class="cls-3" d="M226.66,16.9c4.59-2.79,7.93-4.86,8.38-7.04,.31-1.48-.33-2.4-1.61-2.67-1.09-.23-2.08,.37-3.01,.98l-1.64-2.48c1.9-1.32,3.51-1.83,5.78-1.36,3.08,.63,4.81,3.04,4.18,6.07-.53,2.58-3.51,4.84-6.42,6.82,.81,.06,1.92,.18,2.65,.33l2.93,.6-.66,3.21-11.02-2.28,.45-2.18Z"/><path class="cls-3" d="M253.87,17.85c1.89-5.07,5.01-6.84,8.24-5.64,3.21,1.2,4.42,4.6,2.54,9.65-1.88,5.07-5.05,6.97-8.26,5.77-3.23-1.2-4.4-4.7-2.52-9.78Zm7.35,2.73c1.49-4.01,.93-5.15-.15-5.55-1.08-.4-2.27,.09-3.76,4.1-1.49,4.01-.96,5.28,.13,5.68,1.08,.4,2.29-.22,3.78-4.23Z"/><path class="cls-3" d="M278.79,28.39c2.63-4.73,5.99-6,9-4.32,2.99,1.67,3.66,5.21,1.04,9.92-2.63,4.72-6.06,6.11-9.04,4.44-3.01-1.68-3.63-5.32-.99-10.04Zm6.84,3.81c2.08-3.73,1.71-4.94,.7-5.51-1.01-.56-2.25-.26-4.33,3.48-2.08,3.73-1.75,5.07-.74,5.63,1.01,.56,2.3,.13,4.38-3.6Z"/><path class="cls-3" d="M310.29,43.3l-5.52-4.27,1.99-2.57,8.8,6.8-1.47,1.9c-5.55,1.19-7.72,3.21-11.72,7.91l-3.08-2.39c3.4-3.9,6.14-5.94,11-7.39Z"/></g></g></g></svg>