<svg xmlns="http://www.w3.org/2000/svg" viewBox="0 0 30.43 28.76"><defs><style>.cls-1{fill:#c4c3c3;}</style></defs><g id="圖層_2" data-name="圖層 2"><g id="圖層_1-2" data-name="圖層 1"><path class="cls-1" d="M30.43,11.9a10.81,10.81,0,0,1-1.5,5.32A26.88,26.88,0,0,1,19.71,26c-1.52.93-3.12,1.72-4.68,2.58-.35.19-.77.36-1,0a1.64,1.64,0,0,1-.3-1c0-.8.17-1.6.24-2.4s-.2-1-.92-1.11A16.06,16.06,0,0,1,3,19.31a10.09,10.09,0,0,1-3-8A10.68,10.68,0,0,1,4,3.89,16.49,16.49,0,0,1,13.86.05,17.47,17.47,0,0,1,24.62,2.61a11.58,11.58,0,0,1,5.47,7.16A18.73,18.73,0,0,1,30.43,11.9Zm-15.56-.48.11-.06.45.57c.83,1.07,1.64,2.17,2.51,3.21a1,1,0,0,0,.87.32c.25-.08.39-.48.57-.75,0-.06,0-.15,0-.23V9.13a1.94,1.94,0,0,0,0-.34.71.71,0,0,0-.8-.66.68.68,0,0,0-.73.72c0,.61,0,1.22,0,1.84v1.57a2,2,0,0,1-.56-.55L14.84,8.56A.82.82,0,0,0,13.29,9c0,1.86,0,3.72,0,5.58,0,.6.31.92.81.91s.75-.31.75-.94C14.87,13.53,14.87,12.48,14.87,11.42Zm7.26-1.76h2.2c.57,0,.89-.29.88-.77a.74.74,0,0,0-.8-.79c-1,0-2,0-3.05,0a.77.77,0,0,0-.83.84q0,2.88,0,5.76a.73.73,0,0,0,.77.82c1.05,0,2.11,0,3.16,0a.7.7,0,0,0,.75-.71.73.73,0,0,0-.65-.82,4.36,4.36,0,0,0-.63,0H22.14V12.62c.73,0,1.42,0,2.1,0s1-.33,1-.82-.36-.76-.95-.76H22.13ZM6.77,14V9.32a3.11,3.11,0,0,0-.06-.62.71.71,0,0,0-.86-.58.7.7,0,0,0-.66.74c0,2,0,4,0,5.92a.69.69,0,0,0,.72.74q1.61,0,3.21,0A.76.76,0,0,0,9.24,14a3.35,3.35,0,0,0-.63,0Zm3.82-2.15c0,1,0,2,0,3,0,.5.21.75.71.76s.86-.18.87-.74q0-3,0-6c0-.51-.3-.75-.82-.74s-.75.23-.76.79Z"/></g></g></svg>