<svg xmlns="http://www.w3.org/2000/svg" viewBox="0 0 88.33 86.2"><defs><style>.cls-1{fill:#9c9c9d;}</style></defs><g id="圖層_2" data-name="圖層 2"><g id="完稿"><path class="cls-1" d="M9.27,7.28a3.48,3.48,0,0,0-3.2-2,2.9,2.9,0,0,0-3,3c0,1.76,1.23,2.35,2.86,3.16a22.19,22.19,0,0,1,3.26,1.71,3.57,3.57,0,0,1,1.73,3.15A4.87,4.87,0,0,1,5.8,21.1,4.64,4.64,0,0,1,2,19.39,5.41,5.41,0,0,1,1,17.61l.93-.44a5.75,5.75,0,0,0,.88,1.56,4,4,0,0,0,3.06,1.4,3.8,3.8,0,0,0,3.94-3.77,2.87,2.87,0,0,0-1.59-2.57c-.46-.27-1.42-.76-2.76-1.42-1.62-.78-2.43-1.22-3-2.15a3.56,3.56,0,0,1-.51-1.86A4,4,0,0,1,6.09,4.3a4.36,4.36,0,0,1,4,2.32Z"/><path class="cls-1" d="M17,13.08v7.75H15.88V4.52H19C21.7,4.52,23.8,6,23.8,8.78s-1.93,4.3-4.74,4.3Zm0-1h2.16c2.12,0,3.57-1.25,3.57-3.3s-1.37-3.3-3.75-3.3H17Z"/><path class="cls-1" d="M34.66,15.48H27.72l-2.18,5.35H24.36L31.24,4,38,20.83H36.84Zm-.39-1L31.21,6.77l-3.1,7.73Z"/><path class="cls-1" d="M48.88,20.83l-5.29-7.7H43.1v7.7H42V4.52h2.34a5.72,5.72,0,0,1,3.45.83,4.08,4.08,0,0,1,1.69,3.5,3.92,3.92,0,0,1-2.74,4,6.37,6.37,0,0,1-2,.32l5.33,7.7ZM43.1,12.15h1.57c2.32,0,3.72-1.22,3.72-3.33A3,3,0,0,0,46.94,6a5.67,5.67,0,0,0-2.49-.49H43.1Z"/><path class="cls-1" d="M56,12.2l7.7-7.68h1.42l-7.9,7.8,8.37,8.51H64.14l-7.68-7.77-.44.41v7.36H54.94V4.52H56Z"/><path class="cls-1" d="M70.7,4.52V19.86h4.55v1H69.62V4.52Z"/><path class="cls-1" d="M81.75,13.86,76.4,4.52h1.22l4.7,8.24,4.79-8.24h1.22l-5.5,9.34v7H81.75Z"/><path class="cls-1" d="M1.85,64.89V81.21H.78V64.89Z"/><path class="cls-1" d="M6.26,81.21V64.89H9.49a8.21,8.21,0,0,1,6,2.28,8.53,8.53,0,0,1,0,11.76,8.21,8.21,0,0,1-6,2.28Zm1.07-1H9.46a7.18,7.18,0,1,0,0-14.36H7.33Z"/><path class="cls-1" d="M29.2,65.87H22.45v5.92h6.61v1H22.45v7.46H29.2v1H21.38V64.89H29.2Z"/><path class="cls-1" d="M32.73,81.21V64.72l13.7,14.33V64.89H47.5V81.62L33.8,67.29V81.21Z"/><path class="cls-1" d="M55.35,65.87V81.21H54.28V65.87H50.05v-1h9.54v1Z"/><path class="cls-1" d="M63.21,64.89V81.21H62.13V64.89Z"/><path class="cls-1" d="M71.06,65.87V81.21H70V65.87H65.75v-1h9.54v1Z"/><path class="cls-1" d="M81.58,74.24l-5.36-9.35h1.22l4.7,8.24,4.79-8.24h1.23l-5.51,9.35v7H81.58Z"/><rect class="cls-1" x="0.22" width="87.7" height="1.01"/><rect class="cls-1" x="46.28" y="31.27" width="43.74" height="1" transform="translate(-7.04 32.36) rotate(-25.44)"/><rect class="cls-1" x="19.54" y="9.86" width="1" height="43.89" transform="translate(-17.29 36.27) rotate(-64.61)"/><rect class="cls-1" x="0.22" y="85.19" width="87.7" height="1.01"/><rect class="cls-1" x="-1.91" y="53.77" width="43.91" height="1" transform="translate(-21.37 13.87) rotate(-25.44)"/><rect class="cls-1" x="67.65" y="32.43" width="1" height="43.76" transform="translate(-10.17 92.51) rotate(-64.55)"/></g></g></svg>