<svg xmlns="http://www.w3.org/2000/svg" viewBox="0 0 107.44 49.05"><defs><style>.cls-1{fill:#e24747;}</style></defs><g id="圖層_2" data-name="圖層 2"><g id="完稿"><path class="cls-1" d="M11,4A4.25,4.25,0,0,0,7.13,1.52a3.54,3.54,0,0,0-3.7,3.7c0,2.15,1.5,2.86,3.49,3.84a29,29,0,0,1,4,2.09A4.37,4.37,0,0,1,13,15a6,6,0,0,1-6.2,5.82,5.71,5.71,0,0,1-4.63-2.09A6.66,6.66,0,0,1,.9,16.55L2,16a6.76,6.76,0,0,0,1.08,1.9,4.74,4.74,0,0,0,3.72,1.7A4.63,4.63,0,0,0,11.64,15,3.5,3.5,0,0,0,9.7,11.9C9.13,11.57,8,11,6.33,10.17c-2-.95-3-1.49-3.64-2.62a4.29,4.29,0,0,1-.63-2.27A4.83,4.83,0,0,1,7.16.33,5.32,5.32,0,0,1,12,3.16Z"/><path class="cls-1" d="M20.41,11v9.46H19.09V.59h3.85c3.25,0,5.82,1.79,5.82,5.2S26.4,11,23,11Zm0-1.19H23c2.6,0,4.35-1.52,4.35-4s-1.67-4-4.56-4H20.41Z"/><path class="cls-1" d="M42,14H33.53l-2.66,6.53H29.44L37.82,0l8.27,20.49H44.65Zm-.48-1.19L37.79,3.34,34,12.77Z"/><path class="cls-1" d="M59.33,20.49,52.88,11.1h-.59v9.39H51V.59h2.87a6.91,6.91,0,0,1,4.2,1A5,5,0,0,1,60.1,5.88a4.78,4.78,0,0,1-3.34,4.83,7.85,7.85,0,0,1-2.44.39l6.5,9.39Zm-7-10.59H54.2c2.83,0,4.53-1.49,4.53-4.06A3.7,3.7,0,0,0,57,2.38a7.18,7.18,0,0,0-3-.59H52.29Z"/><path class="cls-1" d="M68,10,77.43.59h1.73l-9.63,9.52,10.2,10.38H77.94L68.57,11l-.53.5v9H66.72V.59H68Z"/><path class="cls-1" d="M85.93.59V19.3h5.55v1.19H84.62V.59Z"/><path class="cls-1" d="M99.41,12,92.88.59h1.49l5.73,10.05,5.84-10h1.5L100.73,12v8.5H99.41Z"/><rect class="cls-1" y="24.3" width="106.92" height="0.99"/><path class="cls-1" d="M2,28.64v19.9H.69V28.64Z"/><path class="cls-1" d="M7.37,48.54V28.64h3.94a10.07,10.07,0,0,1,7.33,2.78,10.4,10.4,0,0,1,0,14.35,10.05,10.05,0,0,1-7.33,2.77Zm1.31-1.19h2.59c5.25,0,8.86-3.58,8.86-8.74a8.47,8.47,0,0,0-8.86-8.77H8.68Z"/><path class="cls-1" d="M35.34,29.84H27.11v7.22h8v1.19h-8v9.1h8.23v1.19H25.8V28.64h9.54Z"/><path class="cls-1" d="M39.64,48.54V28.44l16.7,17.48V28.64h1.31V49.05L41,31.57v17Z"/><path class="cls-1" d="M67.23,29.84v18.7H65.91V29.84H60.75v-1.2H72.39v1.2Z"/><path class="cls-1" d="M76.8,28.64v19.9H75.49V28.64Z"/><path class="cls-1" d="M86.37,29.84v18.7H85.06V29.84H79.9v-1.2H91.53v1.2Z"/><path class="cls-1" d="M99.2,40l-6.53-11.4h1.49L99.89,38.7l5.84-10.06h1.49L100.51,40v8.5H99.2Z"/></g></g></svg>