<svg xmlns="http://www.w3.org/2000/svg" viewBox="0 0 114.44 52.24"><defs><style>.cls-1{fill:#fff;}</style></defs><g id="圖層_2" data-name="圖層 2"><g id="完稿"><path class="cls-1" d="M11.76,4.22A4.52,4.52,0,0,0,7.6,1.62,3.77,3.77,0,0,0,3.66,5.56c0,2.29,1.59,3.05,3.72,4.09a30.63,30.63,0,0,1,4.22,2.23A4.67,4.67,0,0,1,13.86,16a6.34,6.34,0,0,1-6.61,6.19A6.08,6.08,0,0,1,2.32,20,7,7,0,0,1,1,17.63l1.2-.57a7.41,7.41,0,0,0,1.15,2,5.08,5.08,0,0,0,4,1.81A4.92,4.92,0,0,0,12.39,16a3.74,3.74,0,0,0-2.06-3.34c-.6-.34-1.84-1-3.59-1.84C4.64,9.82,3.59,9.25,2.86,8A4.63,4.63,0,0,1,2.2,5.62,5.15,5.15,0,0,1,7.63.35a5.69,5.69,0,0,1,5.15,3Z"/><path class="cls-1" d="M21.74,11.75V21.82h-1.4V.63h4.1c3.46,0,6.19,1.91,6.19,5.53s-2.51,5.59-6.16,5.59Zm0-1.27h2.79c2.76,0,4.64-1.62,4.64-4.29s-1.78-4.28-4.86-4.28H21.74Z"/><path class="cls-1" d="M44.73,14.87h-9l-2.82,7H31.36L40.29,0l8.8,21.82H47.56Zm-.5-1.27-4-10-4,10Z"/><path class="cls-1" d="M63.19,21.82l-6.86-10h-.64v10H54.3V.63h3.05a7.38,7.38,0,0,1,4.48,1.09A5.26,5.26,0,0,1,64,6.26a5.07,5.07,0,0,1-3.56,5.14,7.91,7.91,0,0,1-2.6.42l6.92,10Zm-7.5-11.28h2c3,0,4.83-1.58,4.83-4.31a4,4,0,0,0-1.88-3.69,7.51,7.51,0,0,0-3.24-.63H55.69Z"/><path class="cls-1" d="M72.47,10.61l10-10h1.85L74.06,10.77,84.92,21.82H83L73,11.72l-.57.54v9.56h-1.4V.63h1.4Z"/><path class="cls-1" d="M91.53.63V20.55h5.91v1.27H90.13V.63Z"/><path class="cls-1" d="M105.89,12.77,98.93.63h1.59l6.1,10.71L112.85.63h1.59l-7.15,12.14v9.05h-1.4Z"/><rect class="cls-1" y="25.88" width="113.89" height="1.06"/><path class="cls-1" d="M2.13,30.51V51.7H.73V30.51Z"/><path class="cls-1" d="M7.85,51.7V30.51H12a10.7,10.7,0,0,1,7.82,3,11.09,11.09,0,0,1,0,15.28,10.69,10.69,0,0,1-7.82,3Zm1.4-1.27H12c5.59,0,9.43-3.81,9.43-9.31A9,9,0,0,0,12,31.79H9.25Z"/><path class="cls-1" d="M37.65,31.79H28.88v7.68h8.58v1.27H28.88v9.69h8.77V51.7H27.48V30.51H37.65Z"/><path class="cls-1" d="M42.22,51.7V30.29L60,48.91V30.51h1.4V52.24L43.62,33.63V51.7Z"/><path class="cls-1" d="M71.61,31.79V51.7h-1.4V31.79h-5.5V30.51H77.1v1.28Z"/><path class="cls-1" d="M81.81,30.51V51.7h-1.4V30.51Z"/><path class="cls-1" d="M92,31.79V51.7H90.6V31.79H85.11V30.51H97.5v1.28Z"/><path class="cls-1" d="M105.66,42.65l-7-12.14h1.58l6.1,10.71,6.23-10.71h1.59l-7.15,12.14V51.7h-1.4Z"/></g></g></svg>