<svg xmlns="http://www.w3.org/2000/svg" viewBox="0 0 100.74 47.5"><defs><style>.cls-1{fill:#fff;}</style></defs><g id="圖層_2" data-name="圖層 2"><g id="完稿"><path class="cls-1" d="M98.05,21.43c-1.73,0-3.18,1.78-6.4,1.78C70.53,23.21,51,12.54,51,0H49.79c0,12.54-19.58,23.21-40.7,23.21-3.22,0-4.67-1.78-6.4-1.78A2.47,2.47,0,0,0,0,23.75a2.47,2.47,0,0,0,2.69,2.32c1.73,0,3.18-1.78,6.4-1.78,21.12,0,40.7,10.66,40.7,23.21H51C51,35,70.53,24.29,91.65,24.29c3.22,0,4.67,1.78,6.4,1.78a2.46,2.46,0,0,0,2.69-2.32A2.46,2.46,0,0,0,98.05,21.43Z"/></g></g></svg>