<svg xmlns="http://www.w3.org/2000/svg" viewBox="0 0 258.15 23.43"><defs><style>.cls-1{fill:#d54735;}</style></defs><g id="圖層_2" data-name="圖層 2"><g id="完稿"><path class="cls-1" d="M11.42,4.46A4.8,4.8,0,0,0,7,1.71,4,4,0,0,0,2.85,5.88c0,2.41,1.68,3.22,3.93,4.32a31.31,31.31,0,0,1,4.47,2.36,4.92,4.92,0,0,1,2.38,4.33,6.69,6.69,0,0,1-7,6.54,6.39,6.39,0,0,1-5.21-2.35A7.39,7.39,0,0,1,0,18.63L1.28,18a7.73,7.73,0,0,0,1.21,2.15,5.38,5.38,0,0,0,4.19,1.91,5.21,5.21,0,0,0,5.41-5.17A4,4,0,0,0,9.9,13.39c-.63-.36-1.94-1-3.79-1.94C3.9,10.37,2.79,9.77,2,8.49a4.74,4.74,0,0,1-.71-2.55A5.44,5.44,0,0,1,7.05.37a6,6,0,0,1,5.44,3.19Z"/><path class="cls-1" d="M22,12.42V23.06H20.48V.67h4.33c3.66,0,6.55,2,6.55,5.84s-2.65,5.91-6.51,5.91Zm0-1.34h2.95c2.92,0,4.9-1.72,4.9-4.54S27.93,2,24.68,2H22Z"/><path class="cls-1" d="M46.27,15.71H36.73l-3,7.35H32.13L41.57,0l9.3,23.06H49.25Zm-.54-1.34L41.53,3.76,37.27,14.37Z"/><path class="cls-1" d="M65.77,23.06,58.52,12.49h-.67V23.06H56.37V.67h3.22a7.83,7.83,0,0,1,4.74,1.14,5.59,5.59,0,0,1,2.31,4.8,5.38,5.38,0,0,1-3.76,5.44,8.66,8.66,0,0,1-2.75.44l7.32,10.57ZM57.85,11.14H60c3.19,0,5.1-1.68,5.1-4.56a4.2,4.2,0,0,0-2-3.9A8.06,8.06,0,0,0,59.7,2H57.85Z"/><path class="cls-1" d="M75.57,11.21,86.15.67H88.1L77.25,11.38,88.74,23.06h-2L76.18,12.39l-.61.57v10.1H74.1V.67h1.47Z"/><path class="cls-1" d="M95.72.67v21H102v1.34H94.24V.67Z"/><path class="cls-1" d="M110.9,13.5,103.54.67h1.68L111.67,12,118.25.67h1.68L112.38,13.5v9.56H110.9Z"/><path class="cls-1" d="M139.7.35v22.4h-1.48V.35Z"/><path class="cls-1" d="M145.74,22.75V.35h4.43a11.31,11.31,0,0,1,8.26,3.13,11.7,11.7,0,0,1,0,16.14,11.31,11.31,0,0,1-8.26,3.13Zm1.48-1.35h2.92c5.91,0,10-4,10-9.84S156,1.7,150.14,1.7h-2.92Z"/><path class="cls-1" d="M177.23,1.7H168V9.82H177v1.34H168V21.4h9.26v1.35H166.49V.35h10.74Z"/><path class="cls-1" d="M182.07,22.75V.12l18.8,19.67V.35h1.48v23L183.55,3.64V22.75Z"/><path class="cls-1" d="M213.12,1.7V22.75h-1.47V1.7h-5.81V.35h13.09V1.7Z"/><path class="cls-1" d="M223.9.35v22.4h-1.48V.35Z"/><path class="cls-1" d="M234.68,1.7V22.75H233.2V1.7h-5.81V.35h13.1V1.7Z"/><path class="cls-1" d="M249.12,13.18,241.76.35h1.68l6.45,11.31L256.47.35h1.68l-7.56,12.83v9.57h-1.47Z"/></g></g></svg>