<svg xmlns="http://www.w3.org/2000/svg" viewBox="0 0 659.5 656.34"><defs><style>.cls-1{fill:#2b4f77;}</style></defs><g id="圖層_2" data-name="圖層 2"><g id="完稿"><path class="cls-1" d="M329.75,0C147.93,0,0,147.93,0,329.75A327.52,327.52,0,0,0,95,561.27l25.34-25.34A292,292,0,0,1,35.84,329.75c0-162.06,131.85-293.91,293.91-293.91S623.66,167.69,623.66,329.75c0,85.64-33.31,166.43-91.39,221.66-50.25,47.78-115.45,72.22-183.4,68.77-86.17-4.34-143.31-65.55-140.7-117.77s34-93.5,83.89-110.26c87.08-29.24,107.28-80.86,120.65-115,1.11-2.84,2.18-5.58,3.25-8.19,7.09-17.27,31.11-33.89,54.21-30.17,17.91,2.89,59.42,23,71.31,144.35h36c-13.39-143.81-69-174.45-101.62-179.73-42.07-6.8-80.41,21.06-93.08,51.94q-1.71,4.18-3.47,8.74c-12.24,31.28-27.46,70.2-98.68,94.1-64.42,21.63-104.9,74.89-108.27,142.45C168.84,571.22,238.19,650.5,347.06,656q7.24.36,14.45.36c72.65,0,141.58-27.73,195.45-79,65.17-62,102.54-152.22,102.54-247.63C659.5,147.93,511.57,0,329.75,0Z"/><rect class="cls-1" x="114.37" y="339.32" width="40.1" height="40.1" transform="translate(-214.75 200.31) rotate(-45)"/><rect class="cls-1" x="227.79" y="225.9" width="40.1" height="40.1" transform="translate(-101.33 247.29) rotate(-45)"/><rect class="cls-1" x="341.21" y="112.49" width="40.1" height="40.1" transform="translate(12.09 294.27) rotate(-45)"/><rect class="cls-1" x="114.37" y="225.9" width="40.1" height="40.1" transform="translate(-134.55 167.09) rotate(-45)"/><rect class="cls-1" x="227.79" y="112.49" width="40.1" height="40.1" transform="translate(-21.13 214.07) rotate(-45)"/></g></g></svg>