<svg xmlns="http://www.w3.org/2000/svg" viewBox="0 0 288.1 224.52"><defs><style>.cls-1{fill:#e50012;}</style></defs><g id="圖層_2" data-name="圖層 2"><g id="完稿"><path class="cls-1" d="M274.49,58.62c-4.72,0-8.7,4.88-17.5,4.88C199.21,63.5,145.63,34.32,145.63,0h-3.16c0,34.32-53.58,63.5-111.36,63.5-8.8,0-12.78-4.88-17.5-4.88-4.29,0-7.37,2.79-7.37,6.35s3.08,6.36,7.37,6.36c4.72,0,8.7-4.88,17.5-4.88,57.78,0,111.36,29.18,111.36,63.5h3.16c0-34.32,53.58-63.5,111.36-63.5,8.8,0,12.78,4.88,17.5,4.88,4.29,0,7.37-2.8,7.37-6.36S278.78,58.62,274.49,58.62Z"/><path class="cls-1" d="M276,209.11a49.58,49.58,0,0,1-9.62-13.9,68.23,68.23,0,0,1-5.15-16.48,111.81,111.81,0,0,1-1.74-17.48h-3a111.81,111.81,0,0,1-1.74,17.48,67.8,67.8,0,0,1-5.15,16.48,49.34,49.34,0,0,1-9.61,13.9A50.81,50.81,0,0,1,228.15,218a.44.44,0,0,0-.23.49l1.14,5.59a.56.56,0,0,0,0,.12h0a.46.46,0,0,0,.63.18A57.33,57.33,0,0,0,244,212.93a54.86,54.86,0,0,0,9.89-15.82,67.86,67.86,0,0,0,3.64-11.94.46.46,0,0,1,.89,0,68.71,68.71,0,0,0,3.64,11.94A54.86,54.86,0,0,0,272,212.93a57.33,57.33,0,0,0,14.3,11.41.46.46,0,0,0,.63-.18h0a.61.61,0,0,0,0-.12l1.13-5.59a.44.44,0,0,0-.23-.49A50.55,50.55,0,0,1,276,209.11Z"/><path class="cls-1" d="M82.62,208.76a47,47,0,0,1-1.6,5A24.28,24.28,0,0,1,79,217.94a.44.44,0,0,0,.11.6l1.71,1.31a.46.46,0,0,0,.64-.09,27.34,27.34,0,0,0,2.78-4.6,50.5,50.5,0,0,0,2.17-5.25,71.85,71.85,0,0,0,2.77-10.43.45.45,0,0,0-.38-.53l-3.82-.54a.45.45,0,0,0-.51.4A68.5,68.5,0,0,1,82.62,208.76Z"/><path class="cls-1" d="M101.44,198.86l1.37,12.73a.46.46,0,0,0,.53.4l3.78-.66a.44.44,0,0,0,.36-.55l-3-12.45A.46.46,0,0,0,104,198l-2.15.37A.46.46,0,0,0,101.44,198.86Z"/><path class="cls-1" d="M130.86,217.75V167.17a.47.47,0,0,1,.46-.46c4.27,0,8.55.15,12.82.42a.45.45,0,0,0,.48-.45v-2.24a.45.45,0,0,0-.48-.45c-5.5.34-11,.42-16.48.43-5.32,0-10.65-.09-16-.41a.46.46,0,0,0-.47.55l.44,2.16a.45.45,0,0,0,.47.36c4-.22,7.91-.32,11.87-.36a.45.45,0,0,1,.46.45v50.58a.46.46,0,0,1-.46.46q-3,0-6-.1-4.36-.11-8.75-.37a.45.45,0,0,0-.47.54l.55,2.7a.45.45,0,0,0,.47.36c2.73-.16,5.47-.28,8.2-.34,3.21-.09,6.41-.11,9.61-.12s6.41,0,9.61.12c3,.06,6.08.2,9.12.39a.46.46,0,0,0,.49-.45v-2.77a.46.46,0,0,0-.49-.45q-4.56.28-9.12.39c-2,0-4,.08-6,.1A.46.46,0,0,1,130.86,217.75Z"/><path class="cls-1" d="M104.75,190.71l.49,1.54a.45.45,0,0,0,.6.29l3-1.22a.45.45,0,0,0,.24-.62l-4.3-8.82a.45.45,0,0,0-.58-.22l-1.71.68a.45.45,0,0,0-.26.56l1.33,4.2a.3.3,0,0,1-.23.38c-1.48.29-2.94.6-4.4.9-2.35.49-4.69,1-7,1.42l-2,.39a.29.29,0,0,1-.26-.5h0a76.62,76.62,0,0,0,5.53-6.17c1.72-2.15,3.35-4.38,4.87-6.69a54.37,54.37,0,0,0,4-6.94.45.45,0,0,0-.24-.61l-3.58-1.46a.46.46,0,0,0-.6.25,50,50,0,0,1-3.24,6.46c-1.12,1.93-2.33,3.81-3.61,5.65a.3.3,0,0,1-.44.06l-5.61-4.75a.3.3,0,0,1,0-.42c.63-.71,1.23-1.44,1.81-2.18q1.5-1.92,2.85-3.95a55.15,55.15,0,0,0,4.59-8.19.46.46,0,0,0-.26-.61l-3.61-1.34a.46.46,0,0,0-.59.28A50.72,50.72,0,0,1,88,166.92c-.73,1.34-1.51,2.67-2.33,4-.53.82-1.08,1.63-1.65,2.4l0,0-1.75,1.8a.46.46,0,0,0,0,.62l7.4,8.25a.29.29,0,0,1,0,.38c-.8,1-1.62,2-2.48,2.93a38.89,38.89,0,0,1-4.13,4,.39.39,0,0,1-.15.06c-1.34.19-2.68.34-4,.45a.46.46,0,0,0-.41.55l.76,3.75a.47.47,0,0,0,.52.37c2-.31,4-.7,6-1.14s4-.93,6-1.44a.29.29,0,0,1,.37.29v29.88a.47.47,0,0,0,.46.46h5a.46.46,0,0,0,.45-.46V192.47a.29.29,0,0,1,.22-.29l1.55-.42c1.54-.42,3.08-.84,4.61-1.24A.29.29,0,0,1,104.75,190.71Z"/><path class="cls-1" d="M27.58,180.17A39.6,39.6,0,0,1,23,183.83a35.7,35.7,0,0,1-4.69,2.75.46.46,0,0,0-.22.58l.82,2a.46.46,0,0,0,.59.25,39.73,39.73,0,0,0,5.36-2.63,43,43,0,0,0,5.28-3.63,34.52,34.52,0,0,0,4.71-4.51,22.17,22.17,0,0,0,3.3-5l.29.06v10.78a.45.45,0,0,0,.45.45h4.43a.45.45,0,0,0,.45-.45V173.65l.29-.06a22.17,22.17,0,0,0,3.3,5,35.1,35.1,0,0,0,4.71,4.51,44.57,44.57,0,0,0,5.28,3.63,39.73,39.73,0,0,0,5.36,2.63.46.46,0,0,0,.59-.25l.82-2a.45.45,0,0,0-.22-.58,35.7,35.7,0,0,1-4.69-2.75,39.6,39.6,0,0,1-4.59-3.66,30.82,30.82,0,0,1-3.85-4.26,21.17,21.17,0,0,1-1.32-2,.46.46,0,0,1,.41-.68l2.38,0,5.36.13c1.63.06,3.26.1,4.89.18a.45.45,0,0,0,.47-.45v-2.25a.45.45,0,0,0-.47-.46c-1.63.08-3.26.12-4.89.18l-5.36.13c-2.67.06-5.34.09-8,.12a.47.47,0,0,1-.46-.46v-5.55a.45.45,0,0,1,.4-.45q1.88-.25,3.75-.54c2.37-.38,4.72-.78,7.13-1.34a.46.46,0,0,0,.35-.53l-.66-3.26a.46.46,0,0,0-.57-.35c-2.23.64-4.59,1.17-6.94,1.66-2.59.54-5.2,1-7.82,1.45-4.71.79-9.44,1.46-14.18,1.95a.45.45,0,0,0-.4.54l.38,1.84a.44.44,0,0,0,.47.36c4.1-.22,8.18-.57,12.25-1a.46.46,0,0,1,.51.45v4.82a.46.46,0,0,1-.46.45c-2.4,0-4.79,0-7.19,0l-5.36-.08-4.4-.13a.46.46,0,0,0-.46.55l.38,1.84a.45.45,0,0,0,.46.36l4-.12,5.36-.08h1.61a.45.45,0,0,1,.4.67,20.71,20.71,0,0,1-1.36,2.09A30.82,30.82,0,0,1,27.58,180.17Z"/><path class="cls-1" d="M15.32,169.1l-8.77-8.92a.45.45,0,0,0-.61,0l-1.69,1.4a.45.45,0,0,0-.09.61l7.11,10.29a.45.45,0,0,0,.66.09l3.35-2.76A.46.46,0,0,0,15.32,169.1Z"/><path class="cls-1" d="M28.3,218.18l-1.05,0c-.35,0-.63,0-.95,0s-.61,0-.91-.06h0l-.9-.11a11.28,11.28,0,0,1-3.4-1.09,10.51,10.51,0,0,1-2.83-2.14,15.22,15.22,0,0,1-3.3-6,.14.14,0,0,1,0-.06,52.65,52.65,0,0,1-.66-7.18c-.08-2.43,0-4.87,0-7.31l.08-3.66.13-3.66c.1-2.28.23-4.55.43-6.82a.45.45,0,0,0-.45-.5h-13a.45.45,0,0,0-.44.54l.47,2.3a.44.44,0,0,0,.44.36H8.36a.45.45,0,0,1,.45.43c.08,1.23.14,2.46.2,3.69l.13,3.66.08,3.66c0,2.44.07,4.88,0,7.31,0,1.12-.1,2.24-.19,3.36v0a23.17,23.17,0,0,1-1.71,5.47A20.75,20.75,0,0,1,.2,218.91a.46.46,0,0,0-.14.61l1.1,1.85a.46.46,0,0,0,.62.16,24.19,24.19,0,0,0,8.92-9.42c.21-.39.41-.78.59-1.18a.45.45,0,0,1,.84,0,18.07,18.07,0,0,0,3.46,6.2,14.1,14.1,0,0,0,3.72,3,15,15,0,0,0,4.49,1.6L25,222c.38,0,.77.08,1.16.1s.79,0,1.13,0l1.05,0,4.19.07,33,.59a.45.45,0,0,0,.46-.45V218a.46.46,0,0,0-.46-.46l-33,.59Z"/><path class="cls-1" d="M56.4,202.17a13,13,0,0,1-1,4.35,6.78,6.78,0,0,1-2.63,3.07,10,10,0,0,1-3.45,1.26.45.45,0,0,0-.36.53l.44,2.17a.47.47,0,0,0,.5.36,13.24,13.24,0,0,0,4.56-1.28,10.6,10.6,0,0,0,4.43-4.32,17.09,17.09,0,0,0,1.83-5.61,39.88,39.88,0,0,0,.43-5.37h0V196.1a.45.45,0,0,0-.45-.45H49.79a.46.46,0,0,1-.43-.6l1.38-4.13a.46.46,0,0,1,.46-.31l2.32.15a.45.45,0,0,0,.49-.45v-2.22a.46.46,0,0,0-.49-.45c-4.28.34-8.56.41-12.84.43s-8.29-.09-12.43-.4a.46.46,0,0,0-.48.54l.43,2.14a.46.46,0,0,0,.48.36c1.38-.1,2.76-.17,4.14-.22a.46.46,0,0,1,.47.49,21.76,21.76,0,0,1-1,4.67,30.22,30.22,0,0,1-2.48,5.52,34.89,34.89,0,0,1-3.51,5.06,30.85,30.85,0,0,1-4,4.05.46.46,0,0,0-.07.62l1.28,1.73a.46.46,0,0,0,.63.1,34.74,34.74,0,0,0,4.78-4.19,39.47,39.47,0,0,0,4.25-5.3,34.66,34.66,0,0,0,3.24-6.08,25.12,25.12,0,0,0,1.7-6.41.45.45,0,0,1,.44-.4h2.15c1.72,0,3.44,0,5.17.06a.45.45,0,0,1,.43.53l-1.84,10.6a.44.44,0,0,0,.33.52l1.67.42a.45.45,0,0,0,.54-.29l1-3a.44.44,0,0,1,.43-.31H56a.45.45,0,0,1,.45.44A27.44,27.44,0,0,1,56.4,202.17Z"/><path class="cls-1" d="M200.79,202.5c4.16,0,8.33.15,12.5.41a.45.45,0,0,0,.48-.45v-2.24a.45.45,0,0,0-.48-.45c-4.17.26-8.34.37-12.5.41a.44.44,0,0,1-.46-.45v-9.66a.46.46,0,0,0-.46-.46h-5.49a.45.45,0,0,0-.46.46v9.66a.45.45,0,0,1-.46.45c-4.05,0-8.11-.14-12.16-.39a.46.46,0,0,0-.48.54l.45,2.18a.45.45,0,0,0,.47.36c3.91-.23,7.81-.33,11.72-.37a.45.45,0,0,1,.46.45v15.61a.45.45,0,0,1-.46.45c-5.65,0-11.31-.14-17-.41a.46.46,0,0,0-.46.55l.44,2.19a.45.45,0,0,0,.47.36c6.73-.31,13.46-.39,20.18-.4,7,0,14.07.09,21.1.44a.46.46,0,0,0,.48-.45V219a.46.46,0,0,0-.48-.46c-5.81.29-11.62.4-17.44.43a.45.45,0,0,1-.45-.45V203A.44.44,0,0,1,200.79,202.5Z"/><path class="cls-1" d="M178.29,184l.45,2.19a.45.45,0,0,0,.46.37c6-.31,12-.39,17.92-.41,6.24,0,12.47.1,18.7.44a.45.45,0,0,0,.48-.45v-2.24a.46.46,0,0,0-.48-.46c-5,.28-10,.39-15,.42a.44.44,0,0,1-.45-.45V170.81a.45.45,0,0,1,.45-.45c4.25,0,8.5.15,12.75.41a.46.46,0,0,0,.49-.45v-2.24a.46.46,0,0,0-.49-.45c-4.25.27-8.5.37-12.75.42a.46.46,0,0,1-.45-.46v-8.82a.46.46,0,0,0-.46-.45h-5.49a.45.45,0,0,0-.46.45v8.82a.46.46,0,0,1-.46.46c-4.11-.05-8.21-.15-12.32-.4a.46.46,0,0,0-.47.55l.44,2.17a.45.45,0,0,0,.47.36c4-.23,7.92-.33,11.88-.37a.45.45,0,0,1,.46.45V183.4a.44.44,0,0,1-.46.45c-4.9,0-9.8-.14-14.7-.4A.45.45,0,0,0,178.29,184Z"/><path class="cls-1" d="M170.74,158.32h-5.12a.46.46,0,0,0-.45.41,113.24,113.24,0,0,1-3.92,20.39,115.29,115.29,0,0,1-7.9,20.42.46.46,0,0,0,.18.6l1.88,1.05A.46.46,0,0,0,156,201a113,113,0,0,0,6.29-12.3.45.45,0,0,1,.87.18v35.17a.45.45,0,0,0,.45.45h5.5a.45.45,0,0,0,.45-.45V179.74a.45.45,0,0,0-.45-.46h-2.49a.46.46,0,0,1-.43-.6q1.56-4.56,2.78-9.24a107.08,107.08,0,0,0,2.2-10.6A.46.46,0,0,0,170.74,158.32Z"/></g></g></svg>