<svg xmlns="http://www.w3.org/2000/svg" viewBox="0 0 267.13 294"><defs><style>.cls-1{fill:#247c47;}.cls-2{fill:#197d3b;}.cls-3{fill:#3a7e56;}.cls-4{fill:#3c855a;}.cls-5{fill:#b85687;}.cls-6{fill:#a85982;}.cls-7{fill:#863256;}.cls-8{fill:#922f5d;}.cls-9{fill:#922e5c;}.cls-10{fill:#822450;}.cls-11{fill:#792650;}.cls-12{fill:#73a34a;}.cls-13{fill:#db9fbb;}.cls-14{fill:#905c7a;}.cls-15{fill:#62a53c;}.cls-16{fill:#8f2657;}</style></defs><g id="圖層_2" data-name="圖層 2"><g id="完稿"><path class="cls-1" d="M142,70.42l-.45.07-.42-.17c-1.62-1.89-4.33-.24-6-1.86l-4.37.05a1.7,1.7,0,0,1-2.27-.29c.19-1.08.76-1.91,1.91-1.77,2.85.36,5.79-1.58,8.6.42.67.47,1.12-.44,1.34-1,.6-1.63-1-1.94-1.78-2.4-6.24-3.66-12.61-6.9-20.24-4.88-.41.11-.91-.15-1.39-.69l7.14-.49c-2.52-1.62-5.34.41-7.23-1.74,3.46-.91,7-.2,10.48-.44,3,1,5.71,2.75,8.68,3.86,2.85.11,3.71,2.6,5.17,4.35a.53.53,0,0,0,.61.24,7.49,7.49,0,0,1,2.76,5.1C144.41,70.47,143.61,71.08,142,70.42Z"/><path class="cls-2" d="M128.44,68.22l2.27.29c-2,3-5.19,2.33-8,2.85C124.49,70.09,126,68.34,128.44,68.22Z"/><path class="cls-3" d="M109.11,47.88c1.12.65,2.11,1.39,2,2.9C107.75,48.82,107.75,48.82,109.11,47.88Z"/><path class="cls-2" d="M117,73.32c-.14,2.11-1.61,2-3.08,1.84A2.49,2.49,0,0,1,117,73.32Z"/><path class="cls-4" d="M135.08,68.46c2.13.21,4.9-1.63,6,1.86C139.12,69.62,136.26,71.76,135.08,68.46Z"/><path class="cls-5" d="M135.23,77.28l1-.1a1.44,1.44,0,0,1,.05,2.08,5.33,5.33,0,0,1-3.81-.14l-6.07-.19A2.19,2.19,0,0,1,127.5,77l0,.44C130.11,77.54,132.68,77.91,135.23,77.28Z"/><path class="cls-1" d="M144,68.41q.42.09.84.15c.31,1,1.12,2.66.86,2.85-1.45,1-2.63-.1-3.75-1C143.1,70.2,144,69.75,144,68.41Z"/><path class="cls-6" d="M114.91,85.93c1.12,1.53-.47,1.88-1.14,2.63s-1.22.68-1.9.18c.47-.86,1.44-1.48,1.28-2.65Z"/><path class="cls-7" d="M111.87,88.74l1.9-.18c.12,1.54.15,3-2,3.09-1.37,0-2.65.17-2.8,1.94-.9,0-1.55-.12-1-1.25C107.77,89.53,110.47,89.85,111.87,88.74Z"/><path class="cls-8" d="M107.92,92.34l1,1.25c-.85,2.55-2.31,4.24-5.31,3.75A7.12,7.12,0,0,1,107.92,92.34Z"/><path class="cls-4" d="M139.45,62.85c-6.77-4.53-11.59-7-19.46-4.75,1.1-.56,3.15.77,5-1.06-4.09-3.12-10.07-.26-12.24-5.86-.7-1.86-3.75-1.49-3.38-3.82-12.14-9.8-13.48,15.87-31.64,3.58l.53-.26c-3.64-2.48-7.11-5.56-9.16-1.18C67,50.64,64.76,51.13,64,53.7c-4.41,3.36,1.63,14.24,5,18.57C72.38,82,83,90.66,93.41,87.6,96.47,86.13,120,85.89,109,82.07c-3.73-.45-9,.54-12,.13,11.08-3.35,21.94-7.53,31.83-13.44C131.66,65.62,146.38,69.7,139.45,62.85Z"/><path class="cls-9" d="M137.21,93.67l-3.88-.09c-2.91-.8-5.77.23-8.66.2a1.71,1.71,0,0,1,1.85-2.09,5.32,5.32,0,0,0,4.88,0A8.37,8.37,0,0,1,137.21,93.67Z"/><path class="cls-9" d="M124.7,93.73c-2.81.87-4.72,3.68-7.93,3.71l2-3.78,0-.06Z"/><path class="cls-10" d="M132.43,79.12l3.93-.2a3.61,3.61,0,0,1,4.68.23l1,1C138.72,81,135.57,80,132.43,79.12Z"/><path class="cls-9" d="M118.72,93.66c-.66.09-1.58.89-1.79-.42a1.16,1.16,0,0,1,1.42-1.42c1.32.21.51,1.13.42,1.79Z"/><path class="cls-11" d="M131.4,91.68a3.39,3.39,0,0,1-4.88,0Z"/><path class="cls-12" d="M178,84.91l-2,1-2.72-1.19c-.45-.87-.89-1.75-1.33-2.63a2,2,0,0,0,1.22-1.91C175.58,81,176.44,83.31,178,84.91Z"/><path class="cls-13" d="M141,79.15l-4.68-.23c-.05-.58-.11-1.16-.17-1.74l3.83,0Z"/><path class="cls-14" d="M135.23,77.28c-2.53,1.34-5.1,1-7.68.2A17.17,17.17,0,0,1,135.23,77.28Z"/><path class="cls-15" d="M180,87.82c.69-2.44-2.5-3.74-4-1.88C176.56,88.28,178.38,87.87,180,87.82Z"/><path class="cls-15" d="M241.17,85.89c-8-50.19-55.22-41-81.67-72h0c-2.53-3.34-5-6.77-7.58-9.86-18-18.56-13.53,31.85-7.34,41.31,6.08,11.48,14.4,31,28.34,36.79C167,70.1,153.11,56.87,148,42.94c3.38-2.53,3.28,7.32,7.42,8.26,6.7,15.59,26.38,23.3,31.24,39.4-11.62,10.2,2.69,33.76-7.21,47.09-.94,5.93-8.09,16-3.49,20.26,1,3.89,5.15,10.47,9,5.83h0C221.51,156.73,245.27,123.48,241.17,85.89ZM146.92,32.37c-.19,0-.23-.11-.08-.24C146.86,32.21,146.9,32.28,146.92,32.37Z"/><path class="cls-16" d="M264.78,267.82c-15.4-2.29-27.78-12.89-40.83-19.93,9.58-9.27,3.71-31.73-3.21-9.64,1.06,6-26.46,39.64-17.29,31.55,8.78-3.14,12.36-15.44,20.3-15.63C238,258.1,250.38,289,266.51,272.09,267.6,270,267.38,267.81,264.78,267.82Zm-43.95-26.93c0-.06,0-.79.19-1C221.13,240.21,220.9,240.54,220.83,240.89Z"/><path class="cls-16" d="M190.88,271.52c-4.07-6-9.54,2.58-13.65-1.22-1.44-6.44,11.09-3.35,7.9-9.51-13.87-3.66-6.42-3-2.47-14.18-17.41-2,14.78-14.88-2.95-13.89-3.67.22-3.2-18.28-6.76-4.57,4.24,11.8-25.23,18.55-13,19,17.1-6.58,10.71,4.94-.08,8.22,3.56,2.85,6.75-1.1,10.73-.2,9,6.54-13.72,10.35-3.66,12.62,6.5-1.73,7.42,4.94.55,5-20.37,8.92,33,6.77,23.36-1.32ZM180,235.65Z"/><path class="cls-16" d="M99.41,126.58c8-13.51,10,18.35,19.28-1.86,4.21,3.07,7.23,10,5.91-.4-5.37,1.37-3-8.62-7.81-5.32C119,112.88,97.15,120,99.41,126.58Z"/><path class="cls-16" d="M89.38,148.34C78,165.62,126.88,196.53,145,166.56,127.53,175.55,93.8,172,89.38,148.34Z"/><path class="cls-16" d="M8.53,249.06c.8-5.92-11.86-4.85-7.53,1.3C3.32,250.78,7.39,251.91,8.53,249.06Z"/><path class="cls-16" d="M152.68,133.69c5.86,8.79,3.15-15.51-13.41-9.06-3.33-3.72-.42,4.69-5.6.51.64,3.87-3.35,4.07-3.8,7.41,2.74,2.66,7.26-7.06,8.32-1C141,148.89,150.71,129.38,152.68,133.69Zm-15.62-7.13c.14-.17.34-.29.49-.44A.82.82,0,0,1,137.06,126.56Z"/><path class="cls-16" d="M132.24,204.39c-24.88,2.16-89.38-27.95-72.76-63,13.7-18.24,32.29-12.66,45.7-31,19.56-27.1,32.92-18.76,50.49,4.7,57.8-.77-26.1-71.58-52.59-15.84-.41-2.73-2.72,2.71-3.75,3.3.23,0,.41,0,.62.06-26.78,16.18-79.48,27.7-48.19,72.69l0,0C87.88,236.65,204.18,185.49,132.24,204.39ZM58,134.74l0,.16C57.85,134.81,57.82,134.76,58,134.74Z"/><path class="cls-16" d="M155.12,225c-6.72,4.37-8.37,16.61-14.89,22.41-1.21,4-17.48,17.28-8.08,15.36,17.65-13.27,10.24-14.72,13.87,4-5.86,43.92,11.3-6.12,4.82-20.72C149.57,238.93,158.2,231.57,155.12,225Z"/><path class="cls-16" d="M41.87,286.64c-4.19-.68,13.54-13.52,2.91-23.6,6.86-13.14-8.73-5.42-8.94-12,.56-5.87,11.63-1.71,12.69-6.55-3.61-4.55-8.19.65-12.51-2,.55-6.13,9.34-2.49,11.41-6.79.47-5.64-6.15-.57-9.08-2.1-.74-5.44,6-13.34-3.31-15.61.5,5.6-5.4,9.05-9.21,13.76-7.57,2.2-1.18,11.26,3.19,4.69,2.17-1.94,3.56-1.29,4.66,1-21,2.65-32.64,28.1-2.21,5.6C31,247.6,20,254.3,24.39,260c22.77-18.77-20.48,22.38,4.73,6.3-3.64,4.79-2.14,9.8-6.15,14.28,3.55,8.88,12.28-20.48,16-20.79-4,16,8.78,4.31,3.84,12.61-6.89,11.87-4.57,14.14-20.83,14.23-19.26-2-5.55,4-14.08-8.79-10.23-35.77-9.81-16.25-3,6.4C-9.94,306.2,103.58,283.79,41.87,286.64Z"/><path class="cls-16" d="M81.61,260c-6.7.43-7.26-2.3-3.75-7.21,12.61-16.25-7.54-6.44-1.56-16.85,3.78-9.79-8-14.27-6.6-1.42-1.62,11.82-8.6,11,1.25,19.31-.41,6.34-7.66,10.16-1.67,13.67,11.1-8.57-11.91,40.19,12.49,14.78C94.67,260.25,69.27,293.4,81.61,260Z"/><path class="cls-16" d="M116.68,268.79c-14,2.74-3.58-7.52-5.27-17,2.47-1.72,8.88-5.49,4.12-8.21-3.9,2.42-20.17,2.18-17,8.42,9.68-2.43,5.62,10,4.59,15.76-3,1.6-8.12,3.66-6.57,7.56C103.46,273.86,133.49,277.57,116.68,268.79Z"/></g></g></svg>