<svg xmlns="http://www.w3.org/2000/svg" xmlns:xlink="http://www.w3.org/1999/xlink" viewBox="0 0 303.99 303.99"><defs><style>.cls-1,.cls-4{fill:none;}.cls-2{clip-path:url(#clip-path);}.cls-3{fill:url(#未命名漸層_18);}.cls-4{stroke:#fff;stroke-miterlimit:10;}</style><clipPath id="clip-path" transform="translate(76.61 46.04)"><path class="cls-1" d="M.5,28.85H62.67a87.71,87.71,0,0,1,87.61,87.6v66.6H90.55A90.07,90.07,0,0,1,.5,93ZM111.6,144.39V116.45A49,49,0,0,0,62.67,67.52H39.17V93a51.37,51.37,0,0,0,51.38,51.38Z"/></clipPath><linearGradient id="未命名漸層_18" x1="-128.51" y1="3217.8" x2="-124.08" y2="3217.8" gradientTransform="matrix(0, 48.07, 48.07, 0, -154589.25, 6176.71)" gradientUnits="userSpaceOnUse"><stop offset="0" stop-color="#fff" stop-opacity="0"/><stop offset="1" stop-color="#fff"/></linearGradient></defs><g id="圖層_2" data-name="圖層 2"><g id="圖層_1-2" data-name="圖層 1"><g class="cls-2"><rect class="cls-3" x="-32.09" y="-1.52" width="214.95" height="214.95" transform="translate(23.77 130.38) rotate(-45)"/></g><circle class="cls-4" cx="168.29" cy="137.73" r="91.19"/><rect class="cls-4" x="77.11" y="74.38" width="148.81" height="154.72"/><path class="cls-4" d="M77.11,74.38h62.35a86.46,86.46,0,0,1,86.46,86.46V229.1a0,0,0,0,1,0,0H77.11a0,0,0,0,1,0,0V74.38A0,0,0,0,1,77.11,74.38Z"/></g></g></svg>