<svg xmlns="http://www.w3.org/2000/svg" viewBox="0 0 133.03 89.91"><defs><style>.cls-1{isolation:isolate;}.cls-2{fill:#fff;}.cls-3{mix-blend-mode:darken;}.cls-4{fill:none;stroke:#6cc72b;stroke-miterlimit:10;stroke-width:0.5px;}</style></defs><g class="cls-1"><g id="圖層_2" data-name="圖層 2"><g id="圖層_1-2" data-name="圖層 1"><path class="cls-2" d="M129.54,5a.94.94,0,0,0-.8,1V33.72a.94.94,0,0,0,.8,1l2.9.57v2.83a1,1,0,0,1-1,1h-7a1.05,1.05,0,0,1-1-.87l-.25-1.52c-.11-.45-.23-1.25-1.31-1.25a2.7,2.7,0,0,0-1.53.68l-4.73,3.08s-3.12.28-4.72.28C99,39.58,96.26,36,96.26,25.51V6a.93.93,0,0,0-.8-1L93.35,4.6a1,1,0,0,1-.84-1V.26h13.36V3.58a1,1,0,0,1-.84,1L103,5a.93.93,0,0,0-.79,1V24.77c0,7.91,1.3,9.8,9.15,9.8a50.59,50.59,0,0,0,11.49-1.3V6A.93.93,0,0,0,122,5l-2.12-.41a1,1,0,0,1-.84-1V.26h13.37V3.58a1,1,0,0,1-.84,1Z"/><path class="cls-2" d="M70.11,39.46V36A1,1,0,0,1,71,35l2.15-.41a1,1,0,0,0,.81-1V21.81H52.07v11.7a1,1,0,0,0,.81,1L55,35a1,1,0,0,1,.84,1v3.48H42.27V36a1,1,0,0,1,.84-1l2.16-.41a1,1,0,0,0,.81-1V6.19a1,1,0,0,0-.81-1l-2.16-.41a1,1,0,0,1-.84-1V.34H55.82V3.72a1.06,1.06,0,0,1-.84,1l-2.1.41a1,1,0,0,0-.81,1V17.08H73.92V6.19a1,1,0,0,0-.81-1L71,4.74a1.06,1.06,0,0,1-.85-1V.34H83.66V3.72a1,1,0,0,1-.84,1l-2.1.41a1,1,0,0,0-.81,1V33.51a1,1,0,0,0,.81,1l2.1.41a1,1,0,0,1,.84,1v3.48Z"/><path class="cls-2" d="M.21,89.79V86.68a1,1,0,0,1,.85-1l2.19-.43a1,1,0,0,0,.82-1V56.29a1,1,0,0,0-.82-1l-2.19-.42a1,1,0,0,1-.85-1V50.68H13.94V53.8a1,1,0,0,1-.84,1L11,55.24a1,1,0,0,0-.82,1V84.53h23.6a1,1,0,0,1,1,1v4.22Z"/><path class="cls-2" d="M89.45,55.08a1,1,0,0,0-.8,1V86.77a3,3,0,0,1-3,3h-7a3,3,0,0,1-2.74-1.74L63,56.12c-.34-.81-.58-1.1-1.33-1.1-1.1,0-1.21.58-1.21,1.56V84.25a1,1,0,0,0,.81,1l2.11.41a1,1,0,0,1,.84,1V89.8H51.06V86.72a1.06,1.06,0,0,1,.85-1l2.16-.41a1,1,0,0,0,.81-1V56.12a1,1,0,0,0-.81-1l-2.16-.42a1,1,0,0,1-.85-1V50.57H65a3,3,0,0,1,2.73,1.73L80.55,83.79c.35.75.64,1.09,1.33,1.09,1.1,0,1.22-.69,1.22-1.62V56.12a1,1,0,0,0-.81-1l-2.17-.42a1,1,0,0,1-.84-1V50.57H92.46v3.07a1,1,0,0,1-.84,1Z"/><path class="cls-2" d="M128.77,89.55a1,1,0,0,1-1-.88l-.27-1.77c-.12-.47-.24-1.28-1.34-1.28a2.74,2.74,0,0,0-1.57.7l-3.49,2.27a6.49,6.49,0,0,1-3,1c-.85.06-1.86.13-2.63.13-13.2,0-17-3.26-17-19.71,0-16.64,5-19.78,18.53-19.78a67.58,67.58,0,0,1,14.83,1.92l-.6,4.11a1,1,0,0,1-1.21.88,92.09,92.09,0,0,0-13.7-1.38c-8.84,0-11.63,1.22-11.63,14.25,0,13.2,2.09,14.48,11.22,14.48a48,48,0,0,0,10.71-1.11V68.29h6.1V89.55Z"/><path class="cls-2" d="M32.64,50.14c-9.95,0-11.83,2.16-11.83,13.61,0,10.64,1.48,13.52,11.87,13.52s11.75-2.72,11.75-13.52C44.43,53.46,43.52,50.14,32.64,50.14Zm0,22.82c-6.45,0-6.83-1-6.83-9.21,0-8.82.77-9.34,6.79-9.34,6.75,0,6.75,1.43,6.75,9.34C39.39,72.05,39.17,73,32.68,73Z"/><path class="cls-2" d="M.86,37.8l.58-3.89A1,1,0,0,1,2.63,33a93.45,93.45,0,0,0,13.29,1.23c4.74,0,10.89-.83,10.89-6.56s-3.2-5.33-9.9-5.72C7.69,21.42.31,21.59.31,11.43.31,2.67,5.41.31,16.3.31a87,87,0,0,1,14.76,1.4l-.69,3.88a1,1,0,0,1-1.18.84A72.27,72.27,0,0,0,18.28,5.31c-4.8,0-11.64-.23-11.64,5.39s4.18,5.27,9.84,5.5c9,.39,16.79.11,16.79,10.61,0,10.16-6.58,12.5-16.3,12.5A92.7,92.7,0,0,1,.86,37.8"/><g class="cls-3"><rect class="cls-4" x="92.24" y="0.25" width="40.55" height="39.4"/><rect class="cls-4" x="98.5" y="50.36" width="34.14" height="39.3"/><rect class="cls-4" x="0.25" y="0.25" width="33.02" height="39.4"/><rect class="cls-4" x="41.88" y="0.25" width="42.46" height="39.4"/><rect class="cls-4" x="0.25" y="50.36" width="34.25" height="39.3"/><rect class="cls-4" x="51" y="50.36" width="41.46" height="39.3"/><rect class="cls-4" x="92.46" y="50.36" width="6.04" height="9.55"/><rect class="cls-4" x="84.34" y="30.11" width="7.9" height="9.55"/><rect class="cls-4" x="33.27" y="30.11" width="8.61" height="9.55"/><rect class="cls-4" x="44.03" y="50.36" width="6.97" height="9.55"/><rect class="cls-4" x="13.94" y="50.36" width="6.97" height="9.55"/></g></g></g></g></svg>