<svg xmlns="http://www.w3.org/2000/svg" viewBox="0 0 512.92 153.14"><defs><style>.cls-1{fill:#fff;}.cls-2,.cls-3{fill:none;stroke:#004d43;stroke-miterlimit:10;}.cls-2{stroke-width:0.4px;}.cls-3{stroke-width:0.5px;}</style></defs><g id="圖層_2" data-name="圖層 2"><g id="圖層_1-2" data-name="圖層 1"><path class="cls-1" d="M501.65,18.68a3.67,3.67,0,0,0-3.09,4V130.15a3.66,3.66,0,0,0,3.09,4l11.27,2.21v11a4,4,0,0,1-4,4H481.66a4,4,0,0,1-4-3.38l-1-5.9c-.44-1.76-.88-4.86-5.07-4.86-2.44,0-4,1.33-6,2.65l-18.32,11.93s-12.15,1.1-18.34,1.1c-45.93,0-56.52-14-56.52-54.61V22.66a3.66,3.66,0,0,0-3.1-4l-8.2-1.58a4,4,0,0,1-3.28-4V.25h51.89v12.9a4,4,0,0,1-3.26,4l-8,1.57a3.66,3.66,0,0,0-3.09,4V95.41c0,30.69,5.08,38.05,35.55,38.05a195.53,195.53,0,0,0,44.61-5.08V22.66a3.67,3.67,0,0,0-3.09-4l-8.22-1.58a4,4,0,0,1-3.27-4V.25h51.9v12.9a4,4,0,0,1-3.26,4Z"/><path class="cls-1" d="M271,152.42V138.93a4,4,0,0,1,3.27-4l8.36-1.61a3.69,3.69,0,0,0,3.13-4V83.9h-84.8v45.43a3.69,3.69,0,0,0,3.13,4l8.15,1.6a4,4,0,0,1,3.26,4v13.5H162.89V138.93a4,4,0,0,1,3.27-4l8.36-1.61a3.7,3.7,0,0,0,3.14-4V23.26a3.71,3.71,0,0,0-3.14-4l-8.36-1.6a4,4,0,0,1-3.27-4V.57h52.58V13.68a4,4,0,0,1-3.26,4l-8.15,1.59a3.7,3.7,0,0,0-3.13,4V65.55h84.8V23.26a3.7,3.7,0,0,0-3.13-4l-8.36-1.6a4,4,0,0,1-3.27-4V.57h52.58V13.68a4,4,0,0,1-3.26,4l-8.15,1.59a3.72,3.72,0,0,0-3.14,4V129.33a3.71,3.71,0,0,0,3.14,4l8.15,1.6a4.06,4.06,0,0,1,3.26,4v13.5Z"/><path class="cls-1" d="M2.13,146l2.26-15.12A4,4,0,0,1,9,127.47c9.14,1.45,32.2,4.78,51.6,4.78,18.39,0,42.29-3.23,42.29-25.46,0-22.66-12.43-20.7-38.45-22.22C28.64,82.39,0,83,0,43.6,0,9.6,19.81.45,62.05.45A336.68,336.68,0,0,1,119.36,5.9l-2.65,15a4,4,0,0,1-4.61,3.29c-8.56-1.36-26.24-4.37-42.35-4.37-18.62,0-45.16-.88-45.16,20.91,0,21.58,16.22,20.49,38.18,21.36,34.85,1.53,65.18.44,65.18,41.19,0,39.44-25.55,48.55-63.27,48.55A358.73,358.73,0,0,1,2.13,146"/><path class="cls-2" d="M116.82,20.24a4.21,4.21,0,1,1-4.2-4.2A4.2,4.2,0,0,1,116.82,20.24Z"/><path class="cls-2" d="M366.13,12.87a4.2,4.2,0,1,1-4.2-4.2A4.2,4.2,0,0,1,366.13,12.87Z"/><path class="cls-2" d="M475.87,141.49a4.2,4.2,0,1,1-4.2-4.2A4.2,4.2,0,0,1,475.87,141.49Z"/><path class="cls-2" d="M409.81,12.87a4.2,4.2,0,1,1-4.2-4.2A4.2,4.2,0,0,1,409.81,12.87Z"/><path class="cls-2" d="M469.23,12.87a4.2,4.2,0,1,1-4.2-4.2A4.2,4.2,0,0,1,469.23,12.87Z"/><path class="cls-2" d="M12.66,131.62a4.2,4.2,0,1,1-4.2-4.2A4.2,4.2,0,0,1,12.66,131.62Z"/><path class="cls-2" d="M171.11,138.61a4.2,4.2,0,1,1-4.2-4.2A4.2,4.2,0,0,1,171.11,138.61Z"/><circle class="cls-2" cx="167.02" cy="13.6" r="4.2"/><path class="cls-2" d="M215.73,139a4.2,4.2,0,1,1-4.2-4.2A4.2,4.2,0,0,1,215.73,139Z"/><path class="cls-2" d="M215.61,13.6a4.2,4.2,0,1,1-4.2-4.2A4.2,4.2,0,0,1,215.61,13.6Z"/><path class="cls-2" d="M279.09,138.61a4.2,4.2,0,1,1-4.2-4.2A4.2,4.2,0,0,1,279.09,138.61Z"/><circle class="cls-2" cx="275.01" cy="13.6" r="4.2"/><path class="cls-2" d="M323.71,139a4.2,4.2,0,1,1-4.2-4.2A4.2,4.2,0,0,1,323.71,139Z"/><path class="cls-2" d="M323.6,13.6a4.2,4.2,0,1,1-4.2-4.2A4.2,4.2,0,0,1,323.6,13.6Z"/><line class="cls-3" y1="0.25" x2="482.51" y2="0.25"/><line class="cls-3" y1="152.89" x2="482.51" y2="152.89"/></g></g></svg>