<svg xmlns="http://www.w3.org/2000/svg" xmlns:xlink="http://www.w3.org/1999/xlink" viewBox="0 0 1331.27 1178.97"><defs><style>.cls-1{fill:none;}.cls-2{fill:#fff;}.cls-3{clip-path:url(#clip-path);}.cls-4{opacity:0.5;}.cls-5{clip-path:url(#clip-path-2);}.cls-6{clip-path:url(#clip-path-3);}.cls-7{fill:url(#未命名漸層_18);}.cls-8{clip-path:url(#clip-path-4);}.cls-9{clip-path:url(#clip-path-5);}.cls-10{fill:url(#未命名漸層_18-2);}.cls-11{clip-path:url(#clip-path-6);}.cls-12{clip-path:url(#clip-path-7);}.cls-13{fill:url(#未命名漸層_18-3);}.cls-14{clip-path:url(#clip-path-8);}.cls-15{clip-path:url(#clip-path-9);}.cls-16{fill:url(#未命名漸層_18-4);}.cls-17{clip-path:url(#clip-path-10);}.cls-18{clip-path:url(#clip-path-11);}.cls-19{fill:url(#未命名漸層_18-5);}</style><clipPath id="clip-path" transform="translate(193.29 504.66)"><rect class="cls-1" width="776.01" height="517.46"/></clipPath><clipPath id="clip-path-2" transform="translate(193.29 504.66)"><rect class="cls-1" x="230.99" y="-504.66" width="481.15" height="675.72"/></clipPath><clipPath id="clip-path-3" transform="translate(193.29 504.66)"><path class="cls-1" d="M472.85,171.06,298.69-3.1c-90.26-90.27-90.26-237.14,0-327.41L472.85-504.66,642.44-335.09a236.52,236.52,0,0,1,69.7,168.29A236.43,236.43,0,0,1,642.43,1.48Zm0-531.2L371-258.24c-50.42,50.41-50.42,132.46,0,182.87L472.85,26.54l97.32-97.31a135,135,0,0,0,39.77-96,134.92,134.92,0,0,0-39.77-96Z"/></clipPath><linearGradient id="未命名漸層_18" x1="305.84" y1="3859.35" x2="317.55" y2="3859.35" gradientTransform="matrix(0, -57.18, -57.18, 0, 221316.88, 18158.96)" gradientUnits="userSpaceOnUse"><stop offset="0" stop-color="#fff" stop-opacity="0"/><stop offset="1" stop-color="#fff"/></linearGradient><clipPath id="clip-path-4" transform="translate(193.29 504.66)"><rect class="cls-1" x="421.25" y="68.85" width="395.83" height="407.54"/></clipPath><clipPath id="clip-path-5" transform="translate(193.29 504.66)"><path class="cls-1" d="M421.25,68.85H585.56c127.66,0,231.5,103.87,231.52,231.52l0,176-157.83,0a238,238,0,0,1-238-238ZM714.87,374.2V300.37c0-71.3-58-129.32-129.31-129.31H523.44V238.4A135.78,135.78,0,0,0,659.23,374.19Z"/></clipPath><linearGradient id="未命名漸層_18-2" x1="193.4" y1="3895.48" x2="205.11" y2="3895.48" gradientTransform="matrix(0, 48.07, 48.07, 0, -186618.28, -9304.32)" xlink:href="#未命名漸層_18"/><clipPath id="clip-path-6" transform="translate(193.29 504.66)"><rect class="cls-1" x="127.63" y="68.85" width="395.81" height="407.54"/></clipPath><clipPath id="clip-path-7" transform="translate(193.29 504.66)"><path class="cls-1" d="M523.44,238.4a238,238,0,0,1-238,238l-157.82,0v-176c0-127.65,103.86-231.52,231.5-231.52H523.44Zm-238,135.79A135.78,135.78,0,0,0,421.25,238.4V171.05H359.13c-71.29,0-129.32,58-129.32,129.31V374.2Z"/></clipPath><linearGradient id="未命名漸層_18-3" x1="204.5" y1="3906.58" x2="216.21" y2="3906.58" gradientTransform="translate(10436.53 188043.52) rotate(180) scale(48.07)" xlink:href="#未命名漸層_18"/><clipPath id="clip-path-8" transform="translate(193.29 504.66)"><rect class="cls-1" x="45.63" y="-204.56" width="477.82" height="477.82"/></clipPath><clipPath id="clip-path-9" transform="translate(193.29 504.66)"><path class="cls-1" d="M523.45,273.26H277.14c-127.65,0-231.5-103.87-231.51-231.52v-246.3H285.45a236.46,236.46,0,0,1,168.3,69.72,236.43,236.43,0,0,1,69.7,168.27ZM147.83-102.35V41.75c0,71.3,58,129.31,129.31,129.31H421.25V33.43a134.93,134.93,0,0,0-39.76-96,135,135,0,0,0-96-39.76Z"/></clipPath><linearGradient id="未命名漸層_18-4" x1="292.09" y1="3817.52" x2="303.8" y2="3817.52" gradientTransform="matrix(0, -57.18, -57.18, 0, 218556.23, 17069.13)" xlink:href="#未命名漸層_18"/><clipPath id="clip-path-10" transform="translate(193.29 504.66)"><rect class="cls-1" x="421.25" y="-204.56" width="477.82" height="477.82"/></clipPath><clipPath id="clip-path-11" transform="translate(193.29 504.66)"><path class="cls-1" d="M421.25,33.43A236.36,236.36,0,0,1,491-134.84a236.45,236.45,0,0,1,168.28-69.72H899.06V41.75c0,127.65-103.86,231.51-231.52,231.52H421.25Zm238-135.78a134.91,134.91,0,0,0-96,39.76,134.86,134.86,0,0,0-39.77,96V171.06h144.1A129.45,129.45,0,0,0,796.86,41.75v-144.1Z"/></clipPath><linearGradient id="未命名漸層_18-5" x1="282.75" y1="3808.19" x2="294.47" y2="3808.19" gradientTransform="translate(-15841.13 -217703.86) scale(57.18)" xlink:href="#未命名漸層_18"/></defs><g id="圖層_2" data-name="圖層 2"><g id="圖層_1-2" data-name="圖層 1"><path class="cls-2" d="M547.87,137.23a2.22,2.22,0,0,0-1.88,2.41V205a2.23,2.23,0,0,0,1.88,2.42l6.85,1.34v6.69a2.45,2.45,0,0,1-2.45,2.45H535.71a2.45,2.45,0,0,1-2.42-2.05l-.6-3.59c-.27-1.08-.54-3-3.09-3-1.48,0-2.42.81-3.63,1.61l-12.87,7.26s-7.88.67-11.64.67c-27.95,0-34.39-8.51-34.39-33.23v-46a2.22,2.22,0,0,0-1.89-2.41l-5-1a2.44,2.44,0,0,1-2-2.41V126h31.57v7.85a2.46,2.46,0,0,1-2,2.41l-4.87,1a2.22,2.22,0,0,0-1.88,2.41v44.27c0,18.67,3.09,23.15,21.63,23.15A154.4,154.4,0,0,0,532,204V139.64a2.22,2.22,0,0,0-1.88-2.41l-5-1a2.44,2.44,0,0,1-2-2.41V126h31.57v7.85a2.46,2.46,0,0,1-2,2.41Z" transform="translate(193.29 504.66)"/><path class="cls-2" d="M406.78,218.6v-8.22a2.47,2.47,0,0,1,2-2.41l5.09-1a2.25,2.25,0,0,0,1.9-2.45V176.91H364.17v27.63a2.25,2.25,0,0,0,1.9,2.45l5,1a2.45,2.45,0,0,1,2,2.41v8.22H341v-8.22a2.47,2.47,0,0,1,2-2.41l5.09-1a2.26,2.26,0,0,0,1.91-2.45V140a2.26,2.26,0,0,0-1.91-2.45l-5.09-1a2.45,2.45,0,0,1-2-2.41v-8h32v8a2.46,2.46,0,0,1-2,2.41l-5,1a2.25,2.25,0,0,0-1.9,2.45v25.73h51.59V140a2.25,2.25,0,0,0-1.9-2.45l-5.09-1a2.45,2.45,0,0,1-2-2.41v-8h32v8a2.46,2.46,0,0,1-2,2.41l-5,1a2.26,2.26,0,0,0-1.91,2.45v64.53a2.26,2.26,0,0,0,1.91,2.45l5,1a2.45,2.45,0,0,1,2,2.41v8.22Z" transform="translate(193.29 504.66)"/><path class="cls-2" d="M240.46,337.47v-7.35a2.44,2.44,0,0,1,2-2.41l5.18-1a2.28,2.28,0,0,0,1.93-2.48V258.35a2.28,2.28,0,0,0-1.93-2.48l-5.18-1a2.47,2.47,0,0,1-2-2.42v-7.35h32.42v7.36a2.45,2.45,0,0,1-2,2.41l-5.05,1a2.28,2.28,0,0,0-1.93,2.48v66.71h55.73a2.46,2.46,0,0,1,2.46,2.45v10Z" transform="translate(193.29 504.66)"/><path class="cls-2" d="M450.74,255.48a2.26,2.26,0,0,0-1.91,2.46v72.4a7.15,7.15,0,0,1-7.15,7.15H425.25a7.15,7.15,0,0,1-6.48-4.11L388.2,257.94c-.82-1.91-1.37-2.59-3.15-2.59-2.59,0-2.86,1.36-2.86,3.68v65.35a2.26,2.26,0,0,0,1.91,2.46l5,1a2.46,2.46,0,0,1,2,2.41v7.27h-31v-7.26a2.44,2.44,0,0,1,2-2.41l5.11-1a2.26,2.26,0,0,0,1.91-2.46V257.94a2.26,2.26,0,0,0-1.91-2.46l-5.11-1a2.44,2.44,0,0,1-2-2.41v-7.26H393a7.16,7.16,0,0,1,6.47,4.1l30.29,74.36c.83,1.77,1.51,2.59,3.14,2.59,2.6,0,2.87-1.64,2.87-3.82V257.94a2.26,2.26,0,0,0-1.91-2.46l-5.11-1a2.45,2.45,0,0,1-2-2.41v-7.26h31.13v7.26a2.44,2.44,0,0,1-2,2.41Z" transform="translate(193.29 504.66)"/><path class="cls-2" d="M545.56,336.91a2.45,2.45,0,0,1-2.43-2.09l-.65-4.17c-.27-1.1-.54-3-3.15-3-1.51,0-2.47.83-3.71,1.65l-8.24,5.36a15.3,15.3,0,0,1-7.11,2.43c-2,.16-4.39.32-6.21.32-31.18,0-40.25-7.69-40.25-46.56,0-39.29,11.75-46.71,43.76-46.71,17.58,0,35,4.54,35,4.54l-1.41,9.71a2.45,2.45,0,0,1-2.85,2.06c-5.69-1-20.62-3.26-32.35-3.26-20.88,0-27.47,2.89-27.47,33.66C488.51,322,493.45,325,515,325a113.93,113.93,0,0,0,25.27-2.6V286.69h14.42v50.22Z" transform="translate(193.29 504.66)"/><path class="cls-2" d="M317.05,243.83c-23.51,0-27.95,5.1-27.95,32.13,0,25.13,3.49,31.94,28,31.94S344.9,301.48,344.9,276C344.9,251.68,342.74,243.83,317.05,243.83Zm.08,53.9c-15.22,0-16.12-2.47-16.12-21.77,0-20.82,1.81-22,16-22,15.94,0,15.94,3.37,15.94,22C333,295.57,332.48,297.73,317.13,297.73Z" transform="translate(193.29 504.66)"/><path class="cls-2" d="M242.23,214.68l1.37-9.2a2.71,2.71,0,0,1,3.06-2.07c5.56.89,20.32,2.91,32.13,2.91,11.18,0,26.46-2,26.46-15.49,0-13.79-8.3-12.59-24.13-13.52-21.13-1.28-40.43-1-40.43-24.92,0-20.69,13.44-26.26,38.49-26.26a214.15,214.15,0,0,1,35.35,3.32l-1.61,9.14a2.45,2.45,0,0,1-2.8,2c-5.21-.82-16.21-2.66-26-2.66-11.32,0-28.21-.53-28.21,12.73s10.86,12.46,24.22,13c21.2.93,40.39.27,40.39,25.07,0,24-16.28,29.53-39.23,29.53-19.94,0-19.95.05-39-3.57" transform="translate(193.29 504.66)"/><g class="cls-3"><g class="cls-4"><g class="cls-5"><g class="cls-6"><rect class="cls-7" x="401.71" width="503.72" height="675.72"/></g></g><g class="cls-8"><g class="cls-9"><rect class="cls-10" x="335.13" y="-11.41" width="568.07" height="568.07" transform="translate(181.86 1022.32) rotate(-45)"/></g></g><g class="cls-11"><g class="cls-12"><rect class="cls-13" x="41.5" y="-11.4" width="568.06" height="568.06" transform="translate(95.86 814.69) rotate(-45)"/></g></g><g class="cls-14"><g class="cls-15"><rect class="cls-16" x="-53.33" y="-303.52" width="675.75" height="675.75" transform="translate(252.33 715.92) rotate(-45)"/></g></g><g class="cls-17"><g class="cls-18"><rect class="cls-19" x="322.29" y="-303.52" width="675.75" height="675.75" transform="translate(362.35 981.52) rotate(-45)"/></g></g></g></g></g></g></svg>