<svg xmlns="http://www.w3.org/2000/svg" xmlns:xlink="http://www.w3.org/1999/xlink" viewBox="0 0 216.89 115.01"><defs><style>.cls-1{fill:none;}.cls-2{clip-path:url(#clip-path);}.cls-3{clip-path:url(#clip-path-2);}.cls-4{fill:url(#未命名漸層_18);}.cls-5{clip-path:url(#clip-path-3);}.cls-6{clip-path:url(#clip-path-4);}.cls-7{fill:url(#未命名漸層_18-2);}.cls-8{clip-path:url(#clip-path-5);}.cls-9{clip-path:url(#clip-path-6);}.cls-10{fill:url(#未命名漸層_18-3);}.cls-11{clip-path:url(#clip-path-7);}.cls-12{clip-path:url(#clip-path-8);}.cls-13{fill:url(#未命名漸層_18-4);}.cls-14{clip-path:url(#clip-path-9);}.cls-15{clip-path:url(#clip-path-10);}.cls-16{fill:url(#未命名漸層_18-5);}.cls-17{fill:#fff;}</style><clipPath id="clip-path" transform="translate(23.31)"><rect class="cls-1" x="18.08" width="46.94" height="65.92"/></clipPath><clipPath id="clip-path-2" transform="translate(23.31)"><path class="cls-1" d="M41.68,65.92l-17-17a22.6,22.6,0,0,1,0-31.94l17-17L58.22,16.54a23.22,23.22,0,0,1,0,32.84Zm0-51.82L31.74,24a12.63,12.63,0,0,0,0,17.84l9.94,9.94,9.49-9.49a13.25,13.25,0,0,0,0-18.74Z"/></clipPath><linearGradient id="未命名漸層_18" x1="296.78" y1="5841.17" x2="297.92" y2="5841.17" gradientTransform="matrix(0, -57.18, -57.18, 0, 334040.27, 17034.5)" gradientUnits="userSpaceOnUse"><stop offset="0" stop-color="#fff" stop-opacity="0"/><stop offset="1" stop-color="#fff"/></linearGradient><clipPath id="clip-path-3" transform="translate(23.31)"><rect class="cls-1" x="36.64" y="55.95" width="38.61" height="39.76"/></clipPath><clipPath id="clip-path-4" transform="translate(23.31)"><path class="cls-1" d="M36.64,56h16A22.61,22.61,0,0,1,75.26,78.53V95.7H59.86A23.22,23.22,0,0,1,36.64,72.49ZM65.29,85.74V78.53A12.63,12.63,0,0,0,52.67,65.92H46.61v6.57A13.25,13.25,0,0,0,59.86,85.74Z"/></clipPath><linearGradient id="未命名漸層_18-2" x1="113.72" y1="5895.09" x2="114.86" y2="5895.09" gradientTransform="matrix(0, 48.07, 48.07, 0, -283293.28, -5417.16)" xlink:href="#未命名漸層_18"/><clipPath id="clip-path-5" transform="translate(23.31)"><rect class="cls-1" x="8" y="55.95" width="38.61" height="39.76"/></clipPath><clipPath id="clip-path-6" transform="translate(23.31)"><path class="cls-1" d="M46.61,72.49A23.22,23.22,0,0,1,23.4,95.71H8V78.53A22.61,22.61,0,0,1,30.58,56h16ZM23.4,85.74A13.25,13.25,0,0,0,36.64,72.49V65.92H30.58A12.63,12.63,0,0,0,18,78.53v7.21Z"/></clipPath><linearGradient id="未命名漸層_18-3" x1="136.16" y1="5917.53" x2="137.3" y2="5917.53" gradientTransform="translate(6599.8 284503.46) rotate(180) scale(48.07)" xlink:href="#未命名漸層_18"/><clipPath id="clip-path-7" transform="translate(23.31)"><rect class="cls-1" y="29.28" width="46.61" height="46.61"/></clipPath><clipPath id="clip-path-8" transform="translate(23.31)"><path class="cls-1" d="M46.61,75.89h-24A22.61,22.61,0,0,1,0,53.3v-24H23.4A23.22,23.22,0,0,1,46.61,52.49ZM10,39.25v14A12.63,12.63,0,0,0,22.58,65.92H36.64V52.49A13.25,13.25,0,0,0,23.4,39.25Z"/></clipPath><linearGradient id="未命名漸層_18-4" x1="278.85" y1="5771.25" x2="279.99" y2="5771.25" gradientTransform="matrix(0, -57.18, -57.18, 0, 330002.68, 16028.74)" xlink:href="#未命名漸層_18"/><clipPath id="clip-path-9" transform="translate(23.31)"><rect class="cls-1" x="36.64" y="29.28" width="46.61" height="46.61"/></clipPath><clipPath id="clip-path-10" transform="translate(23.31)"><path class="cls-1" d="M36.64,52.49A23.22,23.22,0,0,1,59.86,29.28h23.4v24A22.62,22.62,0,0,1,60.67,75.89h-24ZM59.86,39.25A13.25,13.25,0,0,0,46.61,52.49V65.92H60.67A12.63,12.63,0,0,0,73.29,53.3v-14Z"/></clipPath><linearGradient id="未命名漸層_18-5" x1="259.99" y1="5752.39" x2="261.13" y2="5752.39" gradientTransform="translate(-14838.13 -328848.35) scale(57.18)" xlink:href="#未命名漸層_18"/></defs><g id="圖層_2" data-name="圖層 2"><g id="圖層_1-2" data-name="圖層 1"><g class="cls-2"><g class="cls-3"><rect class="cls-4" x="39.19" width="49.14" height="65.92"/></g></g><g class="cls-5"><g class="cls-6"><rect class="cls-7" x="28.24" y="48.12" width="55.42" height="55.42" transform="translate(-13.92 61.77) rotate(-45)"/></g></g><g class="cls-8"><g class="cls-9"><rect class="cls-10" x="-0.4" y="48.12" width="55.42" height="55.42" transform="translate(-22.31 41.52) rotate(-45)"/></g></g><g class="cls-11"><g class="cls-12"><rect class="cls-13" x="-9.65" y="19.62" width="65.92" height="65.92" transform="translate(-7.05 31.88) rotate(-45)"/></g></g><g class="cls-14"><g class="cls-15"><rect class="cls-16" x="26.99" y="19.62" width="65.92" height="65.92" transform="translate(3.68 57.79) rotate(-45)"/></g></g><path class="cls-17" d="M191.44,33.12a.69.69,0,0,0-.58.76V54.29a.7.7,0,0,0,.58.76l2.14.42v2.08a.76.76,0,0,1-.76.77h-5.17a.76.76,0,0,1-.76-.64l-.19-1.12c-.08-.34-.16-.93-1-.93a2,2,0,0,0-1.13.51l-4,2.26s-2.46.21-3.64.21c-8.72,0-10.73-2.65-10.73-10.37V33.88a.7.7,0,0,0-.59-.76l-1.56-.3a.76.76,0,0,1-.62-.75V29.62h9.85v2.45a.75.75,0,0,1-.61.75l-1.52.3a.7.7,0,0,0-.59.76V47.69c0,5.83,1,7.23,6.75,7.23a48.37,48.37,0,0,0,9.16-1V33.88a.69.69,0,0,0-.58-.76l-1.56-.3a.78.78,0,0,1-.63-.75V29.62h9.86v2.45a.76.76,0,0,1-.62.75Z" transform="translate(23.31)"/><path class="cls-17" d="M147.4,58.52V56a.76.76,0,0,1,.62-.75l1.59-.31a.7.7,0,0,0,.59-.76V45.51H134.09v8.63a.71.71,0,0,0,.6.76l1.55.3a.78.78,0,0,1,.62.76v2.56h-10V56a.76.76,0,0,1,.62-.75l1.59-.31a.7.7,0,0,0,.59-.76V34a.7.7,0,0,0-.59-.77l-1.59-.3a.77.77,0,0,1-.62-.75V29.68h10v2.49a.76.76,0,0,1-.62.75l-1.55.3a.71.71,0,0,0-.6.77v8H150.2V34a.7.7,0,0,0-.59-.77l-1.59-.3a.77.77,0,0,1-.62-.75V29.68h10v2.49a.76.76,0,0,1-.62.75l-1.54.3a.71.71,0,0,0-.6.77V54.14a.71.71,0,0,0,.6.76l1.54.3a.78.78,0,0,1,.62.76v2.56Z" transform="translate(23.31)"/><path class="cls-17" d="M95.47,95.63V93.34a.76.76,0,0,1,.63-.75l1.61-.31a.72.72,0,0,0,.61-.78V70.93a.71.71,0,0,0-.61-.77l-1.61-.31a.77.77,0,0,1-.63-.75V66.8h10.12v2.3a.77.77,0,0,1-.62.75l-1.57.31a.71.71,0,0,0-.61.77V91.76h17.4a.76.76,0,0,1,.77.77v3.1Z" transform="translate(23.31)"/><path class="cls-17" d="M161.12,70a.71.71,0,0,0-.6.77v22.6a2.23,2.23,0,0,1-2.23,2.23h-5.13a2.24,2.24,0,0,1-2-1.28L141.6,70.81c-.26-.6-.43-.81-1-.81-.81,0-.89.42-.89,1.15v20.4a.7.7,0,0,0,.6.76l1.55.31a.76.76,0,0,1,.62.75v2.27h-9.68V93.37a.77.77,0,0,1,.63-.75l1.59-.31a.7.7,0,0,0,.6-.76V70.81A.71.71,0,0,0,135,70l-1.59-.31a.76.76,0,0,1-.63-.75V66.71h10.27a2.24,2.24,0,0,1,2,1.28l9.46,23.22c.25.55.47.81,1,.81.81,0,.89-.52.89-1.2v-20a.7.7,0,0,0-.59-.77l-1.6-.31a.76.76,0,0,1-.62-.75V66.71h9.72V69a.76.76,0,0,1-.62.75Z" transform="translate(23.31)"/><path class="cls-17" d="M190.72,95.46a.77.77,0,0,1-.76-.65l-.2-1.31c-.08-.34-.17-.94-1-.94a2,2,0,0,0-1.16.51l-2.57,1.68a4.91,4.91,0,0,1-2.22.76c-.63,0-1.37.09-1.94.09-9.74,0-12.57-2.4-12.57-14.53S172,66.49,182,66.49a50,50,0,0,1,10.94,1.41l-.45,3a.76.76,0,0,1-.88.64,67.89,67.89,0,0,0-10.1-1c-6.52,0-8.58.9-8.58,10.51s1.54,10.67,8.28,10.67a35.49,35.49,0,0,0,7.89-.81V79.78h4.5V95.46Z" transform="translate(23.31)"/><path class="cls-17" d="M119.38,66.4c-7.33,0-8.72,1.59-8.72,10,0,7.85,1.09,10,8.75,10s8.67-2,8.67-10C128.08,68.85,127.4,66.4,119.38,66.4Zm0,16.83c-4.75,0-5-.77-5-6.8,0-6.5.56-6.88,5-6.88,5,0,5,1,5,6.88C124.36,82.55,124.2,83.23,119.41,83.23Z" transform="translate(23.31)"/><path class="cls-17" d="M96,57.3l.42-2.87a.87.87,0,0,1,1-.65,72.71,72.71,0,0,0,10,.91c3.49,0,8.26-.61,8.26-4.83s-2.59-3.94-7.53-4.22c-6.6-.41-12.63-.31-12.63-7.79,0-6.46,4.2-8.19,12-8.19a67.38,67.38,0,0,1,11,1l-.5,2.86a.77.77,0,0,1-.88.62,54.13,54.13,0,0,0-8.12-.83c-3.54,0-8.81-.16-8.81,4s3.39,3.9,7.56,4.06c6.62.29,12.61.08,12.61,7.82,0,7.5-5.08,9.23-12.25,9.23-6.22,0-6.22,0-12.18-1.12" transform="translate(23.31)"/></g></g></svg>