<svg xmlns="http://www.w3.org/2000/svg" viewBox="0 0 361.04 150.92"><defs><style>.cls-1{fill:#fff;}</style></defs><g id="圖層_2" data-name="圖層 2"><g id="圖層_1-2" data-name="圖層 1"><path class="cls-1" d="M159.85,101.1h2.44c1.52,0,2.68.44,2.68,1.82a1.68,1.68,0,0,1-1,1.6v0a1.68,1.68,0,0,1,1.39,1.75c0,1.49-1.24,2.18-2.87,2.18h-2.63Zm2.33,3c.94,0,1.35-.38,1.35-1s-.44-.91-1.33-.91h-.87v1.88Zm.17,3.25c1,0,1.56-.36,1.56-1.13s-.54-1-1.56-1h-1v2.15Z"/><path class="cls-1" d="M166.48,106.4v-3.5H168v3.31c0,.87.24,1.17.78,1.17a1.35,1.35,0,0,0,1.13-.7V102.9h1.47v5.6h-1.2l-.11-.8h0a2.25,2.25,0,0,1-1.78.94C167,108.64,166.48,107.8,166.48,106.4Z"/><path class="cls-1" d="M172.38,107.85l.67-.92a2.43,2.43,0,0,0,1.5.61c.55,0,.8-.24.8-.59s-.57-.61-1.16-.84-1.53-.7-1.53-1.63.82-1.72,2.08-1.72a3.13,3.13,0,0,1,1.9.69l-.66.89a2.15,2.15,0,0,0-1.2-.48c-.5,0-.74.22-.74.54s.55.56,1.13.78c.74.28,1.56.65,1.56,1.69s-.77,1.77-2.22,1.77A3.53,3.53,0,0,1,172.38,107.85Z"/><path class="cls-1" d="M177.72,101.2a.88.88,0,0,1,1.75,0,.88.88,0,0,1-1.75,0Zm.14,1.7h1.46v5.6h-1.46Z"/><path class="cls-1" d="M180.9,102.9h1.2l.1.74h0a2.58,2.58,0,0,1,1.81-.88c1.21,0,1.73.84,1.73,2.25v3.49h-1.47v-3.31c0-.86-.24-1.17-.79-1.17a1.61,1.61,0,0,0-1.16.63v3.85H180.9Z"/><path class="cls-1" d="M187,105.71a2.74,2.74,0,0,1,2.61-2.95c1.53,0,2.33,1.13,2.33,2.68a2.73,2.73,0,0,1-.07.67h-3.44a1.47,1.47,0,0,0,1.55,1.4,2.28,2.28,0,0,0,1.25-.39l.5.9a3.5,3.5,0,0,1-1.95.62A2.71,2.71,0,0,1,187,105.71Zm3.69-.57c0-.76-.34-1.24-1.06-1.24a1.26,1.26,0,0,0-1.22,1.24Z"/><path class="cls-1" d="M192.59,107.85l.67-.92a2.43,2.43,0,0,0,1.5.61c.56,0,.81-.24.81-.59s-.58-.61-1.17-.84-1.53-.7-1.53-1.63.82-1.72,2.08-1.72a3.1,3.1,0,0,1,1.9.69l-.66.89a2.1,2.1,0,0,0-1.2-.48c-.5,0-.74.22-.74.54s.55.56,1.14.78,1.55.65,1.55,1.69-.77,1.77-2.22,1.77A3.53,3.53,0,0,1,192.59,107.85Z"/><path class="cls-1" d="M197.54,107.85l.67-.92a2.43,2.43,0,0,0,1.5.61c.56,0,.81-.24.81-.59s-.58-.61-1.17-.84-1.53-.7-1.53-1.63.82-1.72,2.08-1.72a3.13,3.13,0,0,1,1.9.69l-.66.89a2.13,2.13,0,0,0-1.2-.48c-.5,0-.74.22-.74.54s.55.56,1.13.78c.74.28,1.56.65,1.56,1.69s-.77,1.77-2.22,1.77A3.53,3.53,0,0,1,197.54,107.85Z"/><path class="cls-1" d="M38.73,121.65c-.12,3.07-.23,4.08-.49,4.42a.76.76,0,0,1-.57.3,7.07,7.07,0,0,1-1,0,1.48,1.48,0,0,0-.16-.56l.29,0a1.41,1.41,0,0,0-.18-.27c-1.67.14-3.43.26-4.67.35l-.07-.6c.67,0,1.55-.08,2.51-.13v-.87H33v.32h-.59v-2.05h2V122H35v.61h2.06v1.73H35v.83l1.25-.07q-.2-.23-.39-.42l.42-.29a5.26,5.26,0,0,1,1,1.24l-.34.24h.41a.33.33,0,0,0,.3-.12c.19-.24.3-1.18.4-3.78H32.8a7.25,7.25,0,0,1-1.11.88,5.32,5.32,0,0,0-.47-.49,6.05,6.05,0,0,0,1.89-1.62h-1.3v-2.12h6.86v2.12H33.56l.24.09c-.12.17-.28.36-.42.54h5.35Zm-6.28-1.5h1.4v-1h-1.4Zm1.92,3.67v-.77H33v.77Zm.09-3.67h1.46v-1H34.46Zm.53,2.9v.77h1.45v-.77Zm1.53-2.9H38v-1H36.52Z"/><path class="cls-1" d="M43,118.86c-.27.73-.6,1.65-.9,2.37a2.76,2.76,0,0,1,.81,1.92,1.24,1.24,0,0,1-.34,1,1.06,1.06,0,0,1-.47.17,3,3,0,0,1-.6,0,1.42,1.42,0,0,0-.18-.59,3.4,3.4,0,0,0,.53,0,.71.71,0,0,0,.28-.08.77.77,0,0,0,.19-.62,2.63,2.63,0,0,0-.81-1.79c.26-.65.53-1.46.72-2.07H41v7.16h-.59v-7.77h2l.09,0Zm4.64.27a5,5,0,0,1-1.52,1.66,7.39,7.39,0,0,0,2.28.77,3.08,3.08,0,0,0-.37.52,7.62,7.62,0,0,1-2.44-1,9.66,9.66,0,0,1-2.53,1,2.48,2.48,0,0,0-.33-.51,9.16,9.16,0,0,0,2.36-.86,5,5,0,0,1-.89-1,7.36,7.36,0,0,1-1,.86,2,2,0,0,0-.45-.43,5.33,5.33,0,0,0,1.84-2.08l.63.1a5.26,5.26,0,0,1-.36.65h2.25l.1,0Zm-1.76,6.49H48.2v.54H42.69v-.54H45.2v-.73H43.6v-.5h1.6v-.62H43.86a6.51,6.51,0,0,1-.51.8,3.78,3.78,0,0,0-.49-.32,4.39,4.39,0,0,0,.91-1.71l.55.11c-.06.21-.13.4-.21.61H45.2v-.85H43.89v-.5h3.34v.5H45.84v.85h1.88v.51H45.84v.62H47.6v.5H45.84Zm-1.31-6.18a4.19,4.19,0,0,0,1,1,4.57,4.57,0,0,0,1.14-1Z"/><path class="cls-1" d="M51.94,120.82a9.43,9.43,0,0,1-.74,1.26v4.31h-.65v-3.45a7.9,7.9,0,0,1-1,1,4.19,4.19,0,0,0-.54-.46,8,8,0,0,0,2.33-2.89Zm0-1.69h.94v.63H52v.84H51.3v-.84H49.17v-.63H51.3v-.9H52Zm2.26.63h-1v-.63h1v-.9h.65v.9H57v.63H54.86v.88h-.65ZM56,125.64c.41,0,.48-.22.53-1.37a1.88,1.88,0,0,0,.61.28c-.1,1.33-.28,1.72-1.11,1.72H54.38c-.88,0-1.13-.22-1.13-1.07v-4.47h.65v1.49h3v.63h-3v2.36c0,.36.09.43.54.43Z"/><path class="cls-1" d="M66,123.08H64.2v3.29h-.68v-3.29H60.45a3.66,3.66,0,0,1-2,3.26,2.56,2.56,0,0,0-.48-.51,3.14,3.14,0,0,0,1.82-2.75H58v-.65h1.74v-1.34h.67v1.34h3.07v-1.34h.68v1.34H66Zm-4.3-3H58.52v-.64h3.13v-1.23h.67v1.23H65.5v.64H62.32v1.44h-.67Z"/><path class="cls-1" d="M161.67,120.82a8.4,8.4,0,0,1-.73,1.26v4.31h-.65v-3.45a8,8,0,0,1-1.06,1,4.07,4.07,0,0,0-.53-.46,8.11,8.11,0,0,0,2.33-2.89Zm0-1.69h.94v.63h-.94v.84H161v-.84H158.9v-.63H161v-.9h.65Zm2.26.63h-1v-.63h1v-.9h.65v.9h2.09v.63H164.6v.88H164Zm1.77,5.88c.41,0,.49-.22.54-1.37a1.79,1.79,0,0,0,.61.28c-.1,1.33-.29,1.72-1.11,1.72h-1.64c-.89,0-1.14-.22-1.14-1.07v-4.47h.66v1.49h3v.63h-3v2.36c0,.36.08.43.53.43Z"/><path class="cls-1" d="M169.85,119.76h-2v-.61h2v-.91h.65v.91h1.12v.61H170.5v1h-.65Zm-1.19,1.35h6.18v5.29h-.65V126H169.3v.39h-.64Zm.64.61v1.49h2.09v-1.49Zm2.09,3.67V123.8H169.3v1.59Zm4.25-6.24v.61h-2.06v1h-.65v-1h-1v-.61h1v-.91h.65v.91Zm-1.45,2.57H172v1.49h2.16Zm0,3.67V123.8H172v1.59Z"/><path class="cls-1" d="M178.33,122.93v2.69c0,.35-.08.54-.3.65a2.94,2.94,0,0,1-1.11.12,2.66,2.66,0,0,0-.19-.61c.38,0,.73,0,.83,0s.16,0,.16-.16v-2.49l-1.07.34-.17-.64,1.24-.36v-1.83H176.6V120h1.12v-1.79h.61V120h1v.61h-1v1.64l.89-.29.09.62Zm4.43.28a6.05,6.05,0,0,0,2.13,2.11,2.36,2.36,0,0,0-.44.5,7,7,0,0,1-2.11-2.25v2.76h-.62v-2.75a6.61,6.61,0,0,1-2.32,2.27,2.32,2.32,0,0,0-.46-.52,5.84,5.84,0,0,0,2.35-2.12h-1.83v-.6h2.26v-1h.62v1h2.29v.6Zm1.62-4.32a25.17,25.17,0,0,1-4.79.66,2.19,2.19,0,0,0-.17-.55,24.42,24.42,0,0,0,4.5-.62Zm-4.2,2.83a6.37,6.37,0,0,0-.63-1.68l.52-.15a5.61,5.61,0,0,1,.68,1.65Zm1.57-.28a5.31,5.31,0,0,0-.42-1.67l.57-.11a5.48,5.48,0,0,1,.45,1.64Zm1.14.31a13.82,13.82,0,0,0,1.13-2.2l.62.23A16.43,16.43,0,0,1,183.4,122Z"/><path class="cls-1" d="M186.93,124.47a5.2,5.2,0,0,1-1,1.92c-.11-.09-.36-.26-.5-.35a4,4,0,0,0,.89-1.7Zm1.47-.32h-2.5v-5.58h2.5Zm-.59-5h-1.33v1.13h1.33Zm0,1.65h-1.33v1.14h1.33Zm0,1.67h-1.33v1.16h1.33Zm.14,1.88a7.53,7.53,0,0,1,.74,1.38l-.53.25a6.9,6.9,0,0,0-.71-1.41Zm5.72.59h-.54v.78c0,.32-.07.49-.29.59a4.56,4.56,0,0,1-1.29.09,2.17,2.17,0,0,0-.19-.54h1c.1,0,.15,0,.15-.15v-.78h-2.82v1.47h-.6v-1.47h-.58v-.51h.58v-2.27h1.69v-.51h-2.24v-.5h1.29v-.59H189v-.49h.85v-.54h-1.08V119h1.08v-.77h.59V119h1.32v-.77h.6V119h1.09v.5h-1.09v.54h.94v.49h-.94v.59h1.27v.5h-2.24v.51h1.74v2.27h.54Zm-4-2.28v.64h1.09v-.64Zm0,1.77h1.09v-.67h-1.09Zm.73-4.36h1.32v-.54h-1.32Zm0,1.08h1.32v-.59h-1.32Zm.95,1.51v.64h1.14v-.64Zm1.14,1.77v-.67h-1.14v.67Z"/><path class="cls-1" d="M202.42,119.2v.57h-7.78v-.57h3.68c-.09-.27-.2-.59-.31-.84l.62-.16c.12.31.28.7.38,1Zm-.49,6.45c0,.35-.09.5-.35.6a6.21,6.21,0,0,1-1.47.09,1.89,1.89,0,0,0-.21-.51c.56,0,1.07,0,1.22,0s.19,0,.19-.19v-4h-1.8v.58c0,.2,0,.27.17.27h.8a2.56,2.56,0,0,0,.49,0c0,.15,0,.33.05.47a1.55,1.55,0,0,1-.52,0h-.94c-.54,0-.65-.23-.65-.76v-.57h-1c-.13.93-.55,1.42-1.78,1.69a1.59,1.59,0,0,0-.32-.46c1-.19,1.39-.54,1.51-1.23h-1.53v4.77h-.63v-5.32h4.12a8,8,0,0,0,.65-1.22l.67.15a11.53,11.53,0,0,1-.69,1.07h2Zm-4.84-5.85a8,8,0,0,1,.56,1l-.57.23c-.12-.26-.36-.71-.55-1Zm.36,5.45v.41h-.58v-2.44h3.26v2Zm0-1.53v1h2.12v-1Z"/><path class="cls-1" d="M299,122.6a9.19,9.19,0,0,0,3.38,2.7,2.79,2.79,0,0,0-.49.58A10.35,10.35,0,0,1,298.6,123v3.39h-.68v-3.34a10,10,0,0,1-3.27,2.84,4.39,4.39,0,0,0-.48-.57,8.58,8.58,0,0,0,3.35-2.72h-2.66V122h3.06v-1.56H294.4v-.65h3.52v-1.51h.68v1.51h3.58v.65H298.6V122h3.13v.65Z"/><path class="cls-1" d="M306.19,124.14l.07.61c-1,.27-2.12.55-3,.75l-.14-.64,1.65-.39a34.55,34.55,0,0,0,.53-3.6l.58.1c-.15,1.07-.38,2.43-.59,3.38Zm0-3.62h-3v-.62h3Zm-2.31,3.7a22.46,22.46,0,0,0-.38-3.18L304,121a24.26,24.26,0,0,1,.41,3.19Zm.81-4.39a9.17,9.17,0,0,0-.59-1.32l.55-.18a6.53,6.53,0,0,1,.62,1.29ZM309,122c-.09.27-.17.56-.26.81h2.29v2.94c0,.27,0,.42-.23.51a1.74,1.74,0,0,1-.81.11,2,2,0,0,0-.2-.53,4.53,4.53,0,0,0,.54,0c.08,0,.1,0,.1-.1v-2.36h-.81v2.86h-.53v-2.86h-.82v2.88h-.52v-2.88H307v3h-.6v-3.54h1.72c.06-.25.11-.55.17-.81H306.1v-.59h5.14V122Zm1.92-1.24h-4.46v-2.12h.62v1.53h1.23v-2H309v2h1.35v-1.53h.63Z"/><path class="cls-1" d="M313.66,122.22c-.36-.25-1.1-.67-1.63-1l.35-.48a17.06,17.06,0,0,1,1.64.9Zm-1.34,3.6A28.31,28.31,0,0,0,314,123l.48.43a32.56,32.56,0,0,1-1.62,2.87Zm.57-7.46c.53.29,1.25.71,1.63,1l-.41.53c-.35-.27-1.07-.72-1.6-1Zm6.78,7.19c0,.38-.08.58-.35.68a4.42,4.42,0,0,1-1.39.11,2.22,2.22,0,0,0-.21-.63c.51,0,1,0,1.11,0s.18,0,.18-.17v-1.67l-3,.74-.23-.57c.82-.17,2.05-.44,3.23-.73v-1.94h-3.34v1.84a6.73,6.73,0,0,1-.62,3.21,2.16,2.16,0,0,0-.51-.39,6,6,0,0,0,.5-2.82v-2.45h2v-2.54h.65v2.54h2Zm-4-5.09a6.07,6.07,0,0,0-.89-1.67l.55-.26a5.9,5.9,0,0,1,.94,1.63Zm.49,1.51a10.06,10.06,0,0,1,2.32.74l-.26.48a9.71,9.71,0,0,0-2.31-.8Zm3.79-3.23a13.39,13.39,0,0,1-1,1.67l-.57-.24a10.34,10.34,0,0,0,1-1.69Z"/><path class="cls-1" d="M324.34,125.35a12.73,12.73,0,0,1-2.76,1,4.37,4.37,0,0,0-.47-.5,10.73,10.73,0,0,0,2.63-.81Zm2.14-.28a24.5,24.5,0,0,1,2.51.87l-.5.41a22.31,22.31,0,0,0-2.63-1l.33-.32h-3.95v-2.83c-.23.07-.5.14-.79.2a2.8,2.8,0,0,0-.32-.52,4.26,4.26,0,0,0,2.15-.83h-1.51c.08-.39.17-1,.22-1.41h1.78v-.51h-2.18v-.44h2.18v-.49h.6v.49h1.38v-.49h.62v.49h2v1.39h-2v.53h2.55s0,.14,0,.22c0,.48-.11.74-.23.85a.64.64,0,0,1-.43.17H328v3.18Zm-4-4.95c0,.19-.06.36-.08.53h1.17a1.6,1.6,0,0,0,.14-.53Zm4.83,2h-4.47v.56h4.47Zm0,1h-4.47v.54h4.47Zm-4.47,1.52h4.47v-.56h-4.47Zm1.21-3.55a1.84,1.84,0,0,1-.64.63h4a.94.94,0,0,0-.1-.28,5.35,5.35,0,0,0,.6,0c.1,0,.16,0,.21-.06a.61.61,0,0,0,.11-.32h-1.89v.62h-.62v-.62Zm1.66-1h-1.4a1.84,1.84,0,0,1-.08.53h1.48Zm-1.38-.44h1.38v-.51h-1.38Zm2-.51v.51h1.39v-.51Z"/><path class="cls-1" d="M334.6,121.69q-.71.5-1.44.93h3.69v3.73h-.68v-.25h-3.62v.29h-.65V123.3c-.54.25-1.09.5-1.63.7a4.14,4.14,0,0,0-.42-.54,18.28,18.28,0,0,0,3.67-1.77H330v-.6h3.06V120h-2.28v-.59h2.28v-1.12h.65v1.12H336v.37a10.13,10.13,0,0,0,1-1.18l.56.3a13.12,13.12,0,0,1-2.17,2.24h2.57v.6Zm1.57,1.49h-3.62v.88h3.62Zm0,2.34v-.93h-3.62v.93Zm-1.8-4.43a15.18,15.18,0,0,0,1.36-1.14h-2v1.14Z"/><path class="cls-1" d="M44.18,71.82h4.17c2.58,0,4.55.75,4.55,3.09a2.85,2.85,0,0,1-1.72,2.72v.09a2.86,2.86,0,0,1,2.37,3c0,2.54-2.11,3.71-4.88,3.71H44.18Zm4,5.12c1.6,0,2.29-.65,2.29-1.65s-.74-1.55-2.26-1.55H46.7v3.2Zm.29,5.52c1.71,0,2.65-.61,2.65-1.92s-.92-1.73-2.65-1.73H46.7v3.65Z"/><path class="cls-1" d="M27.69,101.1h2.45c1.52,0,2.67.44,2.67,1.82a1.69,1.69,0,0,1-1,1.6v0a1.68,1.68,0,0,1,1.38,1.75c0,1.49-1.23,2.18-2.86,2.18H27.69Zm2.34,3c.94,0,1.35-.38,1.35-1s-.44-.91-1.33-.91h-.88v1.88Zm.17,3.25c1,0,1.55-.36,1.55-1.13s-.53-1-1.55-1h-1v2.15Z"/><path class="cls-1" d="M34.32,106.4v-3.5h1.47v3.31c0,.87.24,1.17.78,1.17a1.35,1.35,0,0,0,1.14-.7V102.9h1.46v5.6H38l-.11-.8h0a2.25,2.25,0,0,1-1.79.94C34.84,108.64,34.32,107.8,34.32,106.4Z"/><path class="cls-1" d="M40.22,107.85l.67-.92a2.43,2.43,0,0,0,1.5.61c.56,0,.81-.24.81-.59s-.58-.61-1.17-.84-1.53-.7-1.53-1.63.82-1.72,2.08-1.72a3.13,3.13,0,0,1,1.91.69l-.66.89a2.16,2.16,0,0,0-1.21-.48c-.5,0-.74.22-.74.54s.55.56,1.14.78,1.56.65,1.56,1.69-.77,1.77-2.23,1.77A3.53,3.53,0,0,1,40.22,107.85Z"/><path class="cls-1" d="M45.56,101.2a.88.88,0,0,1,1.75,0,.88.88,0,0,1-1.75,0Zm.14,1.7h1.46v5.6H45.7Z"/><path class="cls-1" d="M48.74,102.9h1.2l.1.74h0a2.58,2.58,0,0,1,1.82-.88c1.21,0,1.72.84,1.72,2.25v3.49H52.16v-3.31c0-.86-.24-1.17-.79-1.17a1.61,1.61,0,0,0-1.17.63v3.85H48.74Z"/><path class="cls-1" d="M54.8,105.71a2.74,2.74,0,0,1,2.61-2.95c1.54,0,2.34,1.13,2.34,2.68a2.73,2.73,0,0,1-.07.67H56.23a1.47,1.47,0,0,0,1.55,1.4,2.31,2.31,0,0,0,1.26-.39l.5.9a3.53,3.53,0,0,1-2,.62A2.71,2.71,0,0,1,54.8,105.71Zm3.69-.57c0-.76-.34-1.24-1.06-1.24a1.26,1.26,0,0,0-1.22,1.24Z"/><path class="cls-1" d="M60.43,107.85l.67-.92a2.43,2.43,0,0,0,1.5.61c.56,0,.81-.24.81-.59s-.58-.61-1.17-.84-1.53-.7-1.53-1.63.82-1.72,2.08-1.72a3.13,3.13,0,0,1,1.91.69l-.66.89a2.16,2.16,0,0,0-1.21-.48c-.5,0-.74.22-.74.54s.55.56,1.14.78c.74.28,1.56.65,1.56,1.69s-.77,1.77-2.23,1.77A3.53,3.53,0,0,1,60.43,107.85Z"/><path class="cls-1" d="M65.38,107.85l.67-.92a2.43,2.43,0,0,0,1.5.61c.56,0,.81-.24.81-.59s-.58-.61-1.17-.84-1.53-.7-1.53-1.63.82-1.72,2.08-1.72a3.13,3.13,0,0,1,1.91.69l-.66.89a2.16,2.16,0,0,0-1.21-.48c-.5,0-.74.22-.74.54s.55.56,1.14.78,1.56.65,1.56,1.69-.77,1.77-2.23,1.77A3.53,3.53,0,0,1,65.38,107.85Z"/><path class="cls-1" d="M292.2,104.83c0-2.44,1.57-3.87,3.44-3.87a3,3,0,0,1,2.17,1l-.78.94a1.91,1.91,0,0,0-1.36-.62c-1.12,0-2,1-2,2.55s.76,2.58,1.93,2.58a2.06,2.06,0,0,0,1.53-.73l.78.92a3,3,0,0,1-2.36,1.09C293.72,108.64,292.2,107.3,292.2,104.83Z"/><path class="cls-1" d="M299,106.4v-3.5h1.47v3.31c0,.87.24,1.17.78,1.17a1.35,1.35,0,0,0,1.14-.7V102.9h1.47v5.6h-1.2l-.11-.8h0a2.25,2.25,0,0,1-1.79.94C299.48,108.64,299,107.8,299,106.4Z"/><path class="cls-1" d="M304.86,107.85l.67-.92a2.43,2.43,0,0,0,1.5.61c.56,0,.81-.24.81-.59s-.58-.61-1.17-.84-1.53-.7-1.53-1.63.82-1.72,2.08-1.72a3.13,3.13,0,0,1,1.91.69l-.66.89a2.16,2.16,0,0,0-1.21-.48c-.5,0-.74.22-.74.54s.55.56,1.14.78,1.56.65,1.56,1.69-.77,1.77-2.23,1.77A3.53,3.53,0,0,1,304.86,107.85Z"/><path class="cls-1" d="M310.55,106.54v-2.48h-.79V103l.86-.07.17-1.5H312v1.5h1.38v1.16H312v2.48c0,.64.26.94.76.94a1.64,1.64,0,0,0,.55-.12l.24,1.07a3.62,3.62,0,0,1-1.18.21C311.06,108.64,310.55,107.8,310.55,106.54Z"/><path class="cls-1" d="M314.19,105.71a2.7,2.7,0,1,1,2.69,2.93A2.73,2.73,0,0,1,314.19,105.71Zm3.88,0c0-1.06-.43-1.75-1.19-1.75s-1.19.69-1.19,1.75.43,1.73,1.19,1.73S318.07,106.76,318.07,105.71Z"/><path class="cls-1" d="M320.8,102.9H322l.1.75h0a2.36,2.36,0,0,1,1.72-.89,1.52,1.52,0,0,1,1.54,1,2.48,2.48,0,0,1,1.78-1c1.19,0,1.74.84,1.74,2.25v3.49h-1.47v-3.31c0-.86-.25-1.17-.78-1.17a1.63,1.63,0,0,0-1.08.63v3.85h-1.47v-3.31c0-.86-.25-1.17-.78-1.17a1.63,1.63,0,0,0-1.08.63v3.85H320.8Z"/><path class="cls-1" d="M330.09,105.71a2.74,2.74,0,0,1,2.61-2.95c1.54,0,2.34,1.13,2.34,2.68a2.73,2.73,0,0,1-.07.67h-3.45a1.47,1.47,0,0,0,1.55,1.4,2.31,2.31,0,0,0,1.26-.39l.5.9a3.53,3.53,0,0,1-2,.62A2.71,2.71,0,0,1,330.09,105.71Zm3.69-.57c0-.76-.34-1.24-1.06-1.24a1.26,1.26,0,0,0-1.22,1.24Z"/><path class="cls-1" d="M336.25,102.9h1.2l.1,1h0a1.94,1.94,0,0,1,1.59-1.13,1.58,1.58,0,0,1,.66.12l-.26,1.27a1.76,1.76,0,0,0-.58-.09c-.44,0-1,.29-1.29,1.1v3.34h-1.46Z"/><path class="cls-1" d="M176.34,71.82h4.16c2.59,0,4.56.75,4.56,3.09a2.85,2.85,0,0,1-1.72,2.72v.09a2.86,2.86,0,0,1,2.37,3c0,2.54-2.11,3.71-4.88,3.71h-4.49Zm4,5.12c1.59,0,2.29-.65,2.29-1.65s-.75-1.55-2.26-1.55h-1.5v3.2Zm.29,5.52c1.71,0,2.65-.61,2.65-1.92s-.92-1.73-2.65-1.73h-1.76v3.65Z"/><path class="cls-1" d="M309.23,78.16c0-4.15,2.67-6.58,5.85-6.58a5.14,5.14,0,0,1,3.69,1.62l-1.33,1.6a3.22,3.22,0,0,0-2.31-1.06c-1.91,0-3.33,1.63-3.33,4.34s1.29,4.38,3.28,4.38a3.5,3.5,0,0,0,2.6-1.24L319,82.78a5.08,5.08,0,0,1-4,1.86C311.81,84.64,309.23,82.36,309.23,78.16Z"/><path class="cls-1" d="M121.44,19.05h-2.13v1.28c0,.33-.07.51-.35.6a5.13,5.13,0,0,1-1.44.1,2.45,2.45,0,0,0-.21-.57c.54,0,1,0,1.18,0s.18,0,.18-.16V19.05h-3.38a7.41,7.41,0,0,1,1.46,1.1l-.47.43a8.1,8.1,0,0,0-1.47-1.16l.43-.37H113.4V18.5h5.27V18l-4.9.11,0-.52,3.33,0V17h-2.73V14.6h2.73v-.5h-3.42v-.53h3.42V12.9h.65v.67h3.36v.53h-3.36v.5h2.82V17h-1a7.13,7.13,0,0,1,1.6.87l-.39.37c-.14-.1-.32-.23-.51-.35l-.89,0v.57h2.13ZM115,15.59h2.1v-.53H115Zm2.1,1V16H115v.56Zm.65-1.52v.53h2.17v-.53Zm2.17,1h-2.17v.56h2.17Zm-2.17,1.49,1.68,0a5.44,5.44,0,0,0-.68-.28l.22-.19h-1.22Z"/><path class="cls-1" d="M125.57,19.6a8.2,8.2,0,0,1-2.74,1.15,2.38,2.38,0,0,0-.4-.5,8,8,0,0,0,2.64-.88Zm4.66-1.24v.56h-3.58V21H126V18.92h-3.52v-.56H126v-.67h-2.69v-.51H126v-.64h-3.14V16h1.93a3.81,3.81,0,0,0-.46-.86l.48-.13H122.5v-.55h1.44a7,7,0,0,0-.71-1.29l.56-.2a5.64,5.64,0,0,1,.76,1.31l-.45.18h1.09V12.89h.62v1.58h1.07V12.89h.63v1.58h1.08l-.36-.12a7.16,7.16,0,0,0,.69-1.35l.68.18c-.25.46-.55,1-.78,1.29h1.38V15h-2.32l.58.16c-.21.3-.42.6-.62.83h2v.53h-3.23v.64h2.8v.51h-2.8v.67ZM125,15a3.86,3.86,0,0,1,.47.89l-.37.1h2.47l-.32-.1a6.32,6.32,0,0,0,.53-.89Zm2.65,4.31a26.3,26.3,0,0,1,2.59,1l-.42.42c-.58-.29-1.72-.75-2.57-1.06Z"/><path class="cls-1" d="M139.17,14.34h-2.36a12.64,12.64,0,0,1,2,1.67l-.57.39a8.56,8.56,0,0,0-.61-.64c-4.57.23-5,.24-5.33.34,0-.13-.13-.44-.2-.63a1.88,1.88,0,0,0,.75-.46,7.83,7.83,0,0,0,.78-.67h-2.24v-.59h2.84c.28-.31.58-.65.84-1l.66.28c-.21.23-.42.47-.64.7h4.09Zm-.93,5.92c0,.4-.1.57-.41.66a7.12,7.12,0,0,1-1.6.08,2,2,0,0,0-.18-.57c.55,0,1.15,0,1.28,0s.22-.05.22-.18V19.12c-1.41.29-2.88.59-4,.79l-.21-.6c1-.15,2.63-.41,4.19-.69V17h-4.43v1a4.22,4.22,0,0,1-1,3.07,1.89,1.89,0,0,0-.52-.41,3.59,3.59,0,0,0,.91-2.68V16.42h5.76Zm-1.2-5a10.63,10.63,0,0,0-.9-.68l.38-.24h-2c-.41.4-.83.75-1.24,1.08Zm-3.42,2.09a15.34,15.34,0,0,1,3.26.82l-.21.49a15.06,15.06,0,0,0-3.27-.88Z"/><path class="cls-1" d="M142.31,14.41h-2v-.62h2v-.9H143v.9h1.11v.62H143v1h-.66Zm-1.18,1.35h6.17v5.29h-.65v-.39h-4.89v.39h-.63Zm.63.61v1.48h2.09V16.37ZM143.85,20V18.45h-2.09V20Zm4.26-6.25v.62h-2.06v1h-.66v-1h-1v-.62h1v-.9h.66v.9Zm-1.46,2.58h-2.16v1.48h2.16Zm0,3.67V18.45h-2.16V20Z"/><path class="cls-1" d="M152.93,17V21h-.64V17h-1.45a6,6,0,0,1-1.32,4.12,2.32,2.32,0,0,0-.5-.44,5.36,5.36,0,0,0,1.2-3.68h-1.15v-.62h1.16V14.06h-1v-.63h4.57v.63h-.84v2.29h1V17Zm-.64-.62V14.06h-1.44v2.29Zm5,1.76A7.93,7.93,0,0,1,153.89,21a3.31,3.31,0,0,0-.47-.53,7,7,0,0,0,3.23-2.63Zm-.47-4.82a8.83,8.83,0,0,1-2.54,2.1,3.06,3.06,0,0,0-.48-.47A7.37,7.37,0,0,0,156.2,13Zm.25,2.44A10,10,0,0,1,154.35,18a3.46,3.46,0,0,0-.46-.48,8.26,8.26,0,0,0,2.57-2Z"/><path class="cls-1" d="M165.26,17.23c-.39.21-.84.44-1.29.64A4.3,4.3,0,0,0,166.09,20a2.42,2.42,0,0,0-.44.56,5,5,0,0,1-2.2-2.49l-.48.19c.56,1,.43,2-.22,2.45a1.47,1.47,0,0,1-.93.26h-.76a1.36,1.36,0,0,0-.19-.61c.32,0,.64,0,.84,0a1,1,0,0,0,.63-.15c.36-.24.47-.84.17-1.51a12.58,12.58,0,0,1-3.94,1.82,2.12,2.12,0,0,0-.38-.51,11.59,11.59,0,0,0,4.08-1.76,4.12,4.12,0,0,0-.32-.41,11.25,11.25,0,0,1-3.23,1.31,2.93,2.93,0,0,0-.39-.48,10.84,10.84,0,0,0,3.26-1.17,3,3,0,0,0-.51-.39,13.06,13.06,0,0,1-2.26.8,3.11,3.11,0,0,0-.37-.46,12.38,12.38,0,0,0,2.59-.82h-2V15.24l-.52.32a1.79,1.79,0,0,0-.45-.46,7.11,7.11,0,0,0,2.57-2.25l.69.15c-.11.17-.24.32-.37.49h1.94l.11,0,.46.3a7.63,7.63,0,0,1-.7.94h2.36v2h-3.2l-.32.2a4.39,4.39,0,0,1,1.06,1,14.89,14.89,0,0,0,2-1Zm-5.59-1.06h2.06v-1h-2.06ZM160.5,14a8,8,0,0,1-.73.68H162a4,4,0,0,0,.55-.68Zm4,1.2h-2.16v1h2.16Z"/><path class="cls-1" d="M125.28,31.61c-.15-.29-.53-.87-.83-1.33v4.14h-.65v-4a9.38,9.38,0,0,1-1.3,2.33,2.69,2.69,0,0,0-.33-.6,8.87,8.87,0,0,0,1.54-2.8H122.3v-.63h1.5V27.43c-.41.08-.83.15-1.23.2a3,3,0,0,0-.19-.52,13.82,13.82,0,0,0,2.84-.71l.4.53a8.65,8.65,0,0,1-1.17.35v1.49h1.31v.63h-1.31v.16c.28.31,1,1.29,1.23,1.53Zm4,.48v2.33h-.65V32.19l-2.91.48-.1-.63,3-.48V26.27h.65v5.18l1.05-.16.1.61Zm-1.72-1.19A7.89,7.89,0,0,0,126,29.59l.41-.39a8,8,0,0,1,1.6,1.26Zm.2-2.36a7.25,7.25,0,0,0-1.42-1.27l.42-.38a6.75,6.75,0,0,1,1.45,1.22Z"/><path class="cls-1" d="M134.15,30.78l-1.08.32v2.53c0,.37-.09.55-.33.66a2.93,2.93,0,0,1-1.2.12,2.65,2.65,0,0,0-.22-.61c.43,0,.82,0,.92,0s.18,0,.18-.17V31.3l-1.07.31-.19-.65c.36-.08.79-.19,1.26-.32V28.69h-1.14v-.62h1.14V26.28h.65v1.79h1v.62h-1v1.77l1-.28Zm4.74-1a6.4,6.4,0,0,1-1.81,2.94,6,6,0,0,0,2.31,1.15,2.44,2.44,0,0,0-.43.57,6.34,6.34,0,0,1-2.39-1.29A8,8,0,0,1,134,34.42a2.39,2.39,0,0,0-.36-.59,7.37,7.37,0,0,0,2.42-1.14,7.09,7.09,0,0,1-1.46-2.44h-.27v-.62h1.91V28.29h-2.09v-.61h2.09V26.27h.65v1.41h2.13v.61h-2.13v1.33h1.42l.11,0Zm-3.6.46a6.1,6.1,0,0,0,1.31,2.05A5.37,5.37,0,0,0,138,30.24Z"/><path class="cls-1" d="M143.15,26.51a13,13,0,0,1-.9,1.69v6.23h-.64V29.15a10.77,10.77,0,0,1-1.2,1.36,5.69,5.69,0,0,0-.38-.67,9.87,9.87,0,0,0,2.5-3.53Zm3.76,7c.5,0,.57-.39.65-1.92a1.76,1.76,0,0,0,.61.31c-.11,1.65-.28,2.22-1.22,2.22h-1.7c-.88,0-1.16-.26-1.16-1.21v-6.5h.64v2.42h3.17v.65h-3.17v3.45c0,.48.1.58.57.58Z"/><path class="cls-1" d="M150.47,27.45a6.2,6.2,0,0,1-.93,1.15,4.84,4.84,0,0,0-.46-.43,5.48,5.48,0,0,0,1.36-2l.59.16c-.08.18-.16.36-.26.54h2.3v.53h-1.68a8,8,0,0,1,.77.78l-.43.36c-.18-.23-.55-.6-.83-.88l.34-.26Zm2.72.64a3.7,3.7,0,0,1,.36.68h3.25v1.46h-.66V29.3h-5.9v.93h-.65V28.77h3.28a5.77,5.77,0,0,0-.27-.56Zm-1.95,4.15h4.94v2.18h-.65v-.29h-4.29v.3h-.67V29.84h5.15v1.78h-4.48Zm0-1.89v.76h3.82v-.76Zm0,2.4v.86h4.29v-.86Zm5.91-5.82v.52h-1.92a7.87,7.87,0,0,1,.92.83l-.44.4a9.39,9.39,0,0,0-1-.92l.39-.31h-1a4.27,4.27,0,0,1-.65.73,5.45,5.45,0,0,0-.5-.39,3.62,3.62,0,0,0,1.1-1.57l.61.15a4,4,0,0,1-.25.56Z"/><path class="cls-1" d="M160.86,32.59l-2.77.92-.15-.67c.33-.09.74-.22,1.2-.37v-2.4h-1v-.63h1V27.51H158v-.63h2.77v.63h-1v1.93h.9v.63h-.9v2.2l1-.32Zm5.33.94v.61h-5.75v-.61h2.71V32.31h-2V31.7h2v-1h-1.91v-4h4.53v4h-2v1h2.08v.61h-2.08v1.22Zm-4.35-5.14h1.36V27.26h-1.36Zm0,1.69h1.36V28.93h-1.36Zm3.3-2.82h-1.37v1.13h1.37Zm0,1.67h-1.37v1.15h1.37Z"/><path class="cls-1" d="M248.3,18.27a10.87,10.87,0,0,1,.49,2.23l-.46.1a5.13,5.13,0,0,0-.08-.61l-2.41.45-.09-.59,1.28-.19V17.81h-.49v.47h-.47v-3.8H247V12.9h.55v1.58h.93v3.33h-1v1.77l.67-.12a11,11,0,0,0-.3-1.1Zm-1.76-1h.52V15h-.52ZM248,15h-.52v2.21H248Zm1.47,4.79v.4H249V16.92h.8V15.37h-1V14.8h1V12.93h.55V14.8h1v.57h-1v1.55H251v2.91Zm0-2.38V19.3h1V17.45Zm4.18,2.88a.57.57,0,0,1-.27.58,2.68,2.68,0,0,1-1,.09,3.68,3.68,0,0,0-.18-.53c.34,0,.63,0,.72,0s.14,0,.14-.15V17.84c-.25.24-.51.46-.77.69L252,18c.28-.18.64-.45,1-.76V16.3l-.29.2a6.62,6.62,0,0,0-.75-1V16.9a7.19,7.19,0,0,1-1,4.17,2.39,2.39,0,0,0-.48-.33,6.28,6.28,0,0,0,.92-3.84V13.26h2.15Zm-1.28-5.16a8.74,8.74,0,0,1,.71.91V13.82h-1v1.57Z"/><path class="cls-1" d="M257.37,20.21c0-.15-.06-.34-.11-.53l-2.46.79-.12-.61c.36-.09.82-.21,1.31-.37V17.81h-.56v.46h-.49V14.48h1V12.9h.5v1.58h1.08v3.33h-1.07v1.53l.63-.18c-.08-.25-.16-.49-.24-.7l.45-.14a9.63,9.63,0,0,1,.5,1.73Zm-1.94-3H256V15h-.59ZM257.07,15h-.63v2.21h.63Zm2.42,4a11.49,11.49,0,0,1-1.37,1.83,5.64,5.64,0,0,0-.51-.34,9,9,0,0,0,1.31-1.66Zm3.35-1v.57H260.5V21h-.64V18.56h-2.08V18h2.08v-.78H258.2V14.63h-.58v-.56h.58v-.92h.61v.92h.87V13h.6v1.1h1.1V13H262v1.1h.83v.56H262V16h-2.31V14.63h-.87v2h3.78v.55H260.5V18Zm-2.56-3.36v.86h1.1v-.86Zm1.11,4.2a9.34,9.34,0,0,1,1.44,1.61l-.5.38a8.55,8.55,0,0,0-1.41-1.68Z"/><path class="cls-1" d="M265.59,14H263.8v-.56h1.79v-.51h.65v.51h1.23V14h-1.23v.46h-.65Zm-.77,2.66V21h-.63V14.58h3v2Zm0-1.6v.4h1.81V15Zm1.81,1.17v-.4h-1.81v.4Zm2.79,4.45a18.09,18.09,0,0,0-1.5-1v1.27h-.53V19.64a6.08,6.08,0,0,1-1.85,1,2.07,2.07,0,0,0-.37-.42,5.61,5.61,0,0,0,1.84-.83h-1.28V17.77h1.66v-.35h-1.94V17h1.94v-.48h.53V17h2v.41h-2v.35h1.75v1.64h-1.4c.48.25,1.23.68,1.44.83ZM266.19,19h1.24v-.85h-1.24Zm.59-.76a3.86,3.86,0,0,1,.38.54l-.3.14a5.12,5.12,0,0,0-.38-.57Zm4.85-4.86V14h-1.8v.47h-.65V14h-1.32v-.56h1.32v-.51h.65v.51Zm-2.45,4.77h-1.29V19h1.29Zm2.05,2.1c0,.33-.08.49-.3.59a2.62,2.62,0,0,1-1.06.11,2.27,2.27,0,0,0-.2-.55h.79c.1,0,.13,0,.13-.15V16.61h-2.51v-2h3.15Zm-3.07-1.43c.13-.17.31-.43.4-.58l.33.15a6.23,6.23,0,0,1-.47.57Zm.52-3.82v.4h1.91V15Zm1.91,1.17v-.4h-1.91v.4Z"/><path class="cls-1" d="M280.56,17c-1.24,2.63-4.29,3.66-7.43,4a2,2,0,0,0-.27-.65,13.48,13.48,0,0,0,4.17-1,9.32,9.32,0,0,0-1.25-1.1,13,13,0,0,1-1.4.65,1.77,1.77,0,0,0-.42-.49A8.07,8.07,0,0,0,277.68,16l.74.16a7.16,7.16,0,0,1-.59.66H280l.13,0Zm-1.32-3.12c-1.13,2-3.73,3.17-6,3.65a1.9,1.9,0,0,0-.31-.6,12.15,12.15,0,0,0,3-.95,7.89,7.89,0,0,0-1.2-1c-.32.19-.67.37-1,.55a2,2,0,0,0-.45-.46,7.87,7.87,0,0,0,3.06-2.2L277,13a8.39,8.39,0,0,1-.58.64h2.31l.12,0Zm-3.54.36c-.16.14-.34.26-.53.4a7.31,7.31,0,0,1,1.28,1,6.1,6.1,0,0,0,1.77-1.44Zm1.46,3.13c-.25.21-.54.41-.83.61a10.17,10.17,0,0,1,1.32,1.12,5.37,5.37,0,0,0,1.92-1.73Z"/><path class="cls-1" d="M284.15,18.06c-.13-.29-.44-.84-.71-1.29V21h-.6V16.85a9.4,9.4,0,0,1-1.09,2.49,3.3,3.3,0,0,0-.34-.57,9.54,9.54,0,0,0,1.35-3.35h-1.17v-.61h1.25V12.88h.6v1.93h1v.61h-1V16c.25.33.92,1.34,1.07,1.58Zm2.24.55a3.54,3.54,0,0,1-1.93,2.22,1.65,1.65,0,0,0-.36-.43A3.06,3.06,0,0,0,285.66,19h-1.28v-.48h1.54l.1,0Zm.31-4.21h-2v-.49h1.15a7.09,7.09,0,0,0-.49-.82l.49-.21a6.55,6.55,0,0,1,.58.92l-.24.11h1.6l-.14-.06a7.18,7.18,0,0,0,.54-1l.59.19c-.2.3-.4.61-.57.84h1.3v.49h-2.13V15h1.85v.49h-1.85V16h2.24v.53h-3a9.41,9.41,0,0,1,1.73.69l-.35.43a11.07,11.07,0,0,0-2-.82l.25-.3h-1.82V16h2.27v-.58H285V15h1.69Zm2.76,3.73a15,15,0,0,1-1.37,1,4.12,4.12,0,0,0,1.65,1.11,2.24,2.24,0,0,0-.41.5,4.69,4.69,0,0,1-2-1.78v1.37c0,.31-.06.48-.29.57a3.37,3.37,0,0,1-1.15.1,3.2,3.2,0,0,0-.18-.55h.87c.09,0,.13,0,.13-.12V18h-1.62V17.5h2.24V18a4.3,4.3,0,0,0,.47.8A12.24,12.24,0,0,0,289,17.75Z"/><path class="cls-1" d="M293.42,13.12a12.39,12.39,0,0,1-.89,1.69V21h-.64V15.76a10,10,0,0,1-1.21,1.35,4.38,4.38,0,0,0-.37-.66,10.05,10.05,0,0,0,2.5-3.53Zm3.77,7c.5,0,.57-.39.64-1.92a1.78,1.78,0,0,0,.62.3c-.11,1.65-.28,2.23-1.22,2.23h-1.7c-.88,0-1.16-.26-1.16-1.21V13H295v2.43h3.17v.64H295v3.46c0,.47.1.58.57.58Z"/><path class="cls-1" d="M230.08,30.54a10.5,10.5,0,0,1-.73,2.3c.18.1.39.27.72.47a4.8,4.8,0,0,0,2.5.44c1.14,0,2.59-.08,3.58-.18a2.78,2.78,0,0,0-.2.68c-.66,0-2.35.1-3.41.1a4.92,4.92,0,0,1-2.61-.49c-.36-.21-.69-.52-.89-.52s-.5.57-.77,1.13l-.45-.6a4.08,4.08,0,0,1,.89-1,7.27,7.27,0,0,0,.64-1.86h-1.16c.24-.52.52-1.28.76-2h-1v-.6h1.83c-.22.65-.5,1.4-.73,2h.61l.11,0ZM228.88,28c-.11-.39-.3-1-.46-1.47l.59-.17c.16.46.36,1,.48,1.43Zm3.75,4.41h-2.4v-.56h2.4v-.65h-2V28.31h2v-.68h-2.4v-.56h2.4v-.79h.64v.79h2.54v.56h-2.54v.68h2.07v2.86h-2.07v.65h2.66v.56h-2.66v1.06h-.64Zm-1.37-2.88h1.37v-.7h-1.37Zm1.37,1.18V30h-1.37v.71Zm.64-1.88v.7h1.43v-.7ZM234.7,30h-1.43v.71h1.43Z"/><path class="cls-1" d="M239.58,29.63a11,11,0,0,1,.59,1.84l-.53.19c0-.15-.07-.33-.12-.52a11,11,0,0,0-2.47.45,4,4,0,0,0-.21-.61c.19,0,.41-.26.67-.58a12.07,12.07,0,0,0,.78-1,5.14,5.14,0,0,0-1.29.21c0-.13-.14-.43-.21-.59.15,0,.31-.23.51-.49a12.4,12.4,0,0,0,1.22-2.26l.6.26a15.76,15.76,0,0,1-1.42,2.38l1-.09a11.09,11.09,0,0,0,.67-1.15l.57.34a16.59,16.59,0,0,1-2,2.83l1.5-.2c-.09-.28-.2-.58-.3-.84Zm-1.8,2.45a15.83,15.83,0,0,1-.45,2.21l-.54-.19a9.42,9.42,0,0,0,.44-2.12Zm.94-.13c.12.64.23,1.47.27,2l-.53.11c0-.56-.13-1.39-.23-2Zm.87-.21a12.36,12.36,0,0,1,.54,1.72l-.5.18a14.85,14.85,0,0,0-.49-1.76Zm3.22-3.65v1.4h1.84v.61h-4.2v-.61h1.69v-1.4h-2v-.63h2V26.27h.67v1.19h2.09v.63ZM240.63,31h3.77v3.37h-.65v-.34h-2.5v.37h-.62Zm.62.61v1.81h2.5V31.63Z"/><path class="cls-1" d="M252.77,26.89v7.4h-.69v-.54h-4.43v.58H247V26.89Zm-5.12.65V30h4.43V27.54Zm4.43,5.55V30.6h-4.43v2.49Z"/><path class="cls-1" d="M262.49,29.57h-.65V28.24h-6.11v1.33h-.64V27.66h1.43a5.76,5.76,0,0,0-.69-1.06l.59-.24a5.43,5.43,0,0,1,.75,1.05l-.55.25h1.87V26.27h.67v1.39h3.33ZM262,33.34c0,.35-.07.53-.35.63a4.49,4.49,0,0,1-1.41.11,2.38,2.38,0,0,0-.23-.61c.54,0,1,0,1.14,0s.18,0,.18-.14V32.09h-2.07v2.34h-.67V32.09h-2.2V34h-.67V31.48h2.87v-.73h-2.07V28.87h4.66v1.88h-1.92v.73H262Zm-4.85-3.09h3.37v-.88H257.1Zm4.67-3.66a12,12,0,0,1-.89,1.07l-.54-.23a6.54,6.54,0,0,0,.74-1.09Z"/><path class="cls-1" d="M271.66,33.5v.65h-7.9V33.5h3.61V31.24h-2.65v-.65h2.65V28.65h-2.1a7.24,7.24,0,0,1-.93,1.45,4.79,4.79,0,0,0-.6-.39,8.18,8.18,0,0,0,1.65-3.28l.67.14a11.51,11.51,0,0,1-.5,1.43h1.81V26.28h.68V28h3.2v.65h-3.2v1.94h2.86v.65h-2.86V33.5Z"/><path class="cls-1" d="M274.2,30.26c-.36-.25-1.1-.67-1.64-1l.37-.48c.51.26,1.25.65,1.65.9Zm-1.43,3.6A25.59,25.59,0,0,0,274.46,31l.48.43a32.52,32.52,0,0,1-1.61,2.87Zm1.88-6c-.37-.25-1.11-.68-1.65-1l.36-.47a15.47,15.47,0,0,1,1.67.92Zm3.57,1.67V31h1.86v3.4h-.63v-.33h-3.18v.37h-.6V31h1.91V29.51H275v-.64h2.57V27.43c-.65.09-1.33.17-2,.24a4.17,4.17,0,0,0-.18-.57,21.64,21.64,0,0,0,4.32-.79l.53.52a16.17,16.17,0,0,1-2.07.5v1.54h2.44v.64Zm1.23,2.08h-3.18v1.84h3.18Z"/><path class="cls-1" d="M285.83,27.51c-.11.37-.24.77-.35,1.11h3.58v5.81h-.67V34h-5.71v.47H282V28.62h2.76c.1-.34.19-.75.26-1.11h-3.42v-.64h7.85v.64Zm-3.15,5.83H284v-4.1h-1.27Zm3.76-4.1h-1.88v1h1.88Zm0,1.52h-1.88v1h1.88Zm-1.88,2.58h1.88v-1h-1.88Zm3.83-4.1h-1.34v4.1h1.34Z"/><path class="cls-1" d="M293.58,26.72A9.49,9.49,0,0,1,290.67,28a2.16,2.16,0,0,0-.34-.47,9.94,9.94,0,0,0,2.85-1.18Zm.47,1.47a6.68,6.68,0,0,1-1.37,1.08c1.26,1.57,1.16,4.22.51,4.81a1.08,1.08,0,0,1-.86.35h-.72a1.25,1.25,0,0,0-.14-.59l.71,0a.6.6,0,0,0,.53-.19,2.53,2.53,0,0,0,.33-1.74,9.9,9.9,0,0,1-2.33,1.65,2.06,2.06,0,0,0-.36-.49,7.39,7.39,0,0,0,2.6-1.83,4.32,4.32,0,0,0-.19-.68,10.13,10.13,0,0,1-1.95,1.29,2.26,2.26,0,0,0-.35-.48,7.76,7.76,0,0,0,2.1-1.29,3.94,3.94,0,0,0-.35-.55,11.86,11.86,0,0,1-1.44.68,4.09,4.09,0,0,0-.34-.45c.33-.13.66-.27,1-.44a6.12,6.12,0,0,0-.68-1.09l.45-.22a5.25,5.25,0,0,1,.7,1.06l.65-.41a4.4,4.4,0,0,0-.54-.93l.43-.22a4.51,4.51,0,0,1,.54.85,5.17,5.17,0,0,0,.64-.57Zm3.76,5.54c.19,0,.21-.16.24-1.14a1.62,1.62,0,0,0,.53.25c0,1.14-.19,1.43-.7,1.43h-.7c-.6,0-.73-.19-.73-.8V31h-.77c-.09,1.7-.42,2.83-1.8,3.48a1.68,1.68,0,0,0-.4-.51c1.24-.54,1.5-1.5,1.58-3h-.89V27.34h1.47a7.53,7.53,0,0,0,.24-1.08l.76.11c-.12.33-.23.68-.34,1h1.87V31h-1.1v2.53c0,.22,0,.25.21.25Zm-3-4.86h2.71v-1H294.8Zm0,1.53h2.71v-1H294.8Z"/><path class="cls-1" d="M61.85,150.92H35a35,35,0,0,1-35-35V89.07a35,35,0,0,1,35-35H61.85a35,35,0,0,1,35,35v26.86A35,35,0,0,1,61.85,150.92ZM35,55.08a34,34,0,0,0-34,34v26.86a34,34,0,0,0,34,34H61.85a34,34,0,0,0,34-34V89.07a34,34,0,0,0-34-34Z"/><path class="cls-1" d="M194,150.92H167.15a35,35,0,0,1-35-35V89.07a35,35,0,0,1,35-35H194a35,35,0,0,1,35,35v26.86A35,35,0,0,1,194,150.92ZM167.15,55.08a34,34,0,0,0-34,34v26.86a34,34,0,0,0,34,34H194a34,34,0,0,0,34-34V89.07a34,34,0,0,0-34-34Z"/><path class="cls-1" d="M326,150.92H299.19a35,35,0,0,1-35-35V89.07a35,35,0,0,1,35-35H326a35,35,0,0,1,35,35v26.86A35,35,0,0,1,326,150.92ZM299.19,55.08a34,34,0,0,0-34,34v26.86a34,34,0,0,0,34,34H326a34,34,0,0,0,34-34V89.07a34,34,0,0,0-34-34Z"/><path class="cls-1" d="M48.42,55.08a.51.51,0,0,1-.5-.5V.5a.5.5,0,0,1,.5-.5H313.9a.5.5,0,0,1,.5.5V46.08a.5.5,0,0,1-.27.44.49.49,0,0,1-.51,0l-7.51-5a.5.5,0,0,1-.14-.69.49.49,0,0,1,.69-.14l6.74,4.45V1H48.92V54.58A.5.5,0,0,1,48.42,55.08Z"/><path class="cls-1" d="M48.42,55.08a.51.51,0,0,1-.5-.5V.5a.5.5,0,0,1,.5-.5h132.1a.5.5,0,0,1,.5.5V46.08a.5.5,0,0,1-.25.43.5.5,0,0,1-.5,0l-8.73-5a.49.49,0,0,1-.19-.68.49.49,0,0,1,.68-.19l8,4.54V1H48.92V54.58A.5.5,0,0,1,48.42,55.08Z"/></g></g></svg>