<svg xmlns="http://www.w3.org/2000/svg" viewBox="0 0 133.95 89.91"><defs><style>.cls-1{isolation:isolate;}.cls-2{fill:#fff;}.cls-3{mix-blend-mode:darken;}.cls-4{fill:none;stroke:#6cc72b;stroke-miterlimit:10;stroke-width:0.5px;}</style></defs><g class="cls-1"><g id="圖層_2" data-name="圖層 2"><g id="圖層_1-2" data-name="圖層 1"><path class="cls-2" d="M120.41.51V3.58a1,1,0,0,0,.84,1l2.1.41a1,1,0,0,1,.8,1V28.73a5.19,5.19,0,0,1-5.19,5.2H107.08a5.2,5.2,0,0,1-5.2-5.2V6.05a1,1,0,0,1,.81-1l2.1-.41a1,1,0,0,0,.84-1V.51H92.08V3.57a1.06,1.06,0,0,0,.85,1L95.08,5a1,1,0,0,1,.81,1V30.29A9.15,9.15,0,0,0,105,39.44H121.1a9,9,0,0,0,9.05-9V6.05A1,1,0,0,1,131,5l2.15-.41a1,1,0,0,0,.84-1V.51Z"/><path class="cls-2" d="M70.2,39.46V36a1,1,0,0,1,.85-1l2.15-.41a1,1,0,0,0,.81-1V21.81H52.16v11.7a1,1,0,0,0,.81,1l2.1.41a1,1,0,0,1,.84,1v3.48H42.36V36a1,1,0,0,1,.84-1l2.16-.41a1,1,0,0,0,.81-1V6.19a1,1,0,0,0-.81-1l-2.15-.41a1.06,1.06,0,0,1-.85-1V.34H55.91V3.72a1,1,0,0,1-.84,1L53,5.15a1,1,0,0,0-.81,1V17.08H74V6.19a1,1,0,0,0-.81-1l-2.15-.41a1.06,1.06,0,0,1-.85-1V.34H83.75V3.72a1,1,0,0,1-.84,1l-2.1.41a1,1,0,0,0-.81,1V33.51a1,1,0,0,0,.81,1l2.1.41a1,1,0,0,1,.84,1v3.48Z"/><path class="cls-2" d="M.3,89.79V86.68a1,1,0,0,1,.85-1l2.19-.43a1,1,0,0,0,.82-1V56.29a1,1,0,0,0-.82-1l-2.19-.42a1,1,0,0,1-.85-1V50.68H14V53.8a1,1,0,0,1-.84,1l-2.14.42a1,1,0,0,0-.82,1V84.53h23.6a1,1,0,0,1,1,1v4.22Z"/><path class="cls-2" d="M89.54,55.08a1,1,0,0,0-.8,1V86.77a3,3,0,0,1-3,3h-7A3,3,0,0,1,76,88.06l-13-31.94c-.34-.81-.57-1.1-1.33-1.1-1.09,0-1.21.58-1.21,1.56V84.25a1,1,0,0,0,.81,1l2.11.41a1,1,0,0,1,.84,1V89.8H51.16V86.72a1,1,0,0,1,.84-1l2.16-.41a1,1,0,0,0,.81-1V56.12a1,1,0,0,0-.81-1L52,54.66a1,1,0,0,1-.84-1V50.57H65.08a3,3,0,0,1,2.74,1.73L80.64,83.79c.35.75.64,1.09,1.33,1.09,1.1,0,1.22-.69,1.22-1.62V56.12a1,1,0,0,0-.81-1l-2.17-.42a1,1,0,0,1-.84-1V50.57H92.55v3.07a1,1,0,0,1-.84,1Z"/><path class="cls-2" d="M128.86,89.55a1,1,0,0,1-1-.88l-.27-1.77c-.12-.47-.24-1.28-1.34-1.28a2.74,2.74,0,0,0-1.57.7l-3.49,2.27a6.49,6.49,0,0,1-3,1c-.85.06-1.86.13-2.63.13-13.2,0-17-3.26-17-19.71,0-16.64,5-19.78,18.53-19.78a67.58,67.58,0,0,1,14.83,1.92l-.6,4.11a1,1,0,0,1-1.21.88,92.09,92.09,0,0,0-13.7-1.38C107.49,55.79,104.7,57,104.7,70c0,13.2,2.1,14.48,11.23,14.48a48,48,0,0,0,10.7-1.11V68.29h6.1V89.55Z"/><path class="cls-2" d="M32.73,50.14c-9.95,0-11.83,2.16-11.83,13.61,0,10.64,1.48,13.52,11.87,13.52s11.75-2.72,11.75-13.52C44.52,53.46,43.61,50.14,32.73,50.14Zm0,22.82c-6.45,0-6.83-1-6.83-9.21,0-8.82.77-9.34,6.79-9.34,6.75,0,6.75,1.43,6.75,9.34C39.48,72.05,39.26,73,32.77,73Z"/><path class="cls-2" d="M1,37.8l.58-3.89A1,1,0,0,1,2.72,33,93.45,93.45,0,0,0,16,34.26c4.74,0,10.9-.83,10.9-6.56S23.7,22.37,17,22C7.78,21.42.4,21.59.4,11.43.4,2.67,5.5.31,16.39.31a87,87,0,0,1,14.76,1.4l-.68,3.88a1,1,0,0,1-1.19.84A72.27,72.27,0,0,0,18.37,5.31c-4.8,0-11.63-.23-11.63,5.39s4.18,5.27,9.83,5.5c9,.39,16.79.11,16.79,10.61,0,10.16-6.58,12.5-16.3,12.5A92.7,92.7,0,0,1,1,37.8"/><g class="cls-3"><rect class="cls-4" x="92.24" y="0.25" width="41.44" height="39.4"/><rect class="cls-4" x="98.5" y="50.36" width="35.04" height="39.3"/><rect class="cls-4" x="0.25" y="0.25" width="33.02" height="39.4"/><rect class="cls-4" x="41.88" y="0.25" width="42.46" height="39.4"/><rect class="cls-4" x="0.25" y="50.36" width="34.36" height="39.3"/><rect class="cls-4" x="51" y="50.36" width="41.46" height="39.3"/><rect class="cls-4" x="92.46" y="50.36" width="6.04" height="9.55"/><rect class="cls-4" x="84.34" y="30.11" width="7.89" height="9.55"/><rect class="cls-4" x="33.27" y="30.11" width="8.61" height="9.55"/><rect class="cls-4" x="44.03" y="50.36" width="6.97" height="9.55"/><rect class="cls-4" x="13.94" y="50.36" width="6.97" height="9.55"/></g></g></g></g></svg>