<?xml version="1.0" encoding="UTF-8"?><svg id="_圖層_2" xmlns="http://www.w3.org/2000/svg" viewBox="0 0 100 100"><defs><style>.cls-1{fill:none;}.cls-2{fill:#c9a063;}</style></defs><g id="_02"><g><g><rect class="cls-2" x="10.37" y="57.53" width="64.25" height="10.27"/><g><path class="cls-2" d="M70.77,42.55h-9.25c-2.07,0-3.18-1.18-3.75-2.16-.97-1.71-.99-4.04-.03-5.67,.33-.54,.32-1.23-.01-1.77-.33-.55-.93-.85-1.57-.83-2.61,.16-4.81-.55-6.38-2.02-1.36-1.28-2.13-3.06-2.13-4.87,0-1.97,.77-3.92,2.06-5.21,1.15-1.15,2.69-1.74,4.54-1.8v-3.44c-6.59,.14-10.05,5.31-10.05,10.44,0,2.77,1.18,5.45,3.22,7.37,1.26,1.2,3.37,2.49,6.43,2.85-.49,2.21-.2,4.65,.94,6.64,1.41,2.48,3.87,3.9,6.74,3.9h9.25c2.01,0,3.58,.5,4.53,1.46,.82,.82,1.24,2,1.24,3.49v2.84h3.44v-2.84c0-2.41-.78-4.46-2.24-5.93-1.62-1.61-4.03-2.47-6.97-2.47Z"/><rect class="cls-2" x="76.54" y="57.37" width="3.44" height="10.4"/><path class="cls-2" d="M85.35,53.79v-4.45c0-4.13-1.62-8.12-4.43-10.93-2.65-2.64-6.1-4.05-9.99-4.05h-2.55c.7-1.63,1.13-3.32,1.13-4.94,0-2.99-1.14-5.79-3.21-7.86-2.18-2.17-5.23-3.36-8.61-3.42v3.44c2.46,.05,4.65,.89,6.17,2.42,1.41,1.41,2.2,3.34,2.2,5.42,0,1.82-.75,3.93-1.99,5.65-.38,.52-.44,1.21-.14,1.79,.3,.58,.89,.94,1.53,.94h5.46c2.95,0,5.57,1.05,7.55,3.04,2.17,2.17,3.42,5.27,3.42,8.5v4.45h3.45Z"/><rect class="cls-2" x="81.93" y="57.37" width="3.44" height="10.4"/></g><rect class="cls-2" x="49.52" y="7.58" width="5.31" height="92.5" transform="translate(-22.54 60.06) rotate(-50.66)"/></g><rect class="cls-1" width="100" height="100"/></g></g></svg>