<?xml version="1.0" encoding="UTF-8"?><svg id="_圖層_2" xmlns="http://www.w3.org/2000/svg" viewBox="0 0 100 100"><defs><style>.cls-1{fill:none;}.cls-2{fill:#c9a063;}</style></defs><g id="_02"><g><g><path class="cls-2" d="M80.99,43.58c-5.85,0-11.26-1.88-15.64-5.53-5.56-4.62-12.04-14.25-11.32-33.83,.03-.9,.66-1.6,1.69-1.6,.9,.02,1.63,.75,1.63,1.66,0,11.06,8.11,16.77,16.69,22.82,5.45,3.84,11.08,7.81,14.42,13.26,.28,.46,.32,1.02,.11,1.51-.21,.49-.64,.86-1.17,.97-2.18,.49-4.33,.73-6.42,.73Z"/><path class="cls-2" d="M48.88,98.37h-5.31V11.35L15.29,43.67l-4-3.5L44.23,2.54c.73-.83,1.9-1.12,2.93-.74,1.04,.39,1.72,1.38,1.72,2.49V98.37Z"/></g><rect class="cls-1" width="100" height="100"/></g></g></svg>