<?xml version="1.0" encoding="UTF-8"?><svg id="_圖層_2" xmlns="http://www.w3.org/2000/svg" viewBox="0 0 100 100"><defs><style>.cls-1{fill:none;}.cls-2{fill:#c9a063;}</style></defs><g id="_02"><g><g><path class="cls-2" d="M62.4,55.94c-1.55,5.51-3.66,11.05-6.51,14.49,4.96,2.36,9.41,4.71,12.69,6.6l-3.91,4.79c-3.32-2.14-7.86-4.75-12.99-7.36-4.5,3.36-10.34,5.59-17.99,7.1-.59-1.47-1.81-3.57-2.98-4.87,6.39-1.05,11.43-2.65,15.34-5-3.45-1.64-7.02-3.24-10.55-4.62,1.56-2.77,3.2-7.43,4.79-11.13h-8.87v-4.13h10.97c1.18-3.24,2.27-6.52,3.03-9.59l5.38,.76c-.67,2.82-1.56,5.89-2.61,8.83h9.88c.25-1.3,.5-2.65,.72-4.12l5.38,1.26c-.17,.97-.34,1.93-.51,2.86h5.17v4.13h-6.43Zm-16.18,0c-1.01,2.69-2.1,6.51-3.11,8.74,2.52,1.09,5.09,2.19,7.52,3.28,2.69-2.73,4.58-7.52,6.01-12.02h-10.42Z"/><path class="cls-2" d="M78.22,55.68H21.78c-.97,0-1.83-.65-2.09-1.59-.26-.94,.14-1.94,.98-2.44l20.81-12.42c6.75-3.93,10.83-6.61,10.83-10.8,0-1.34,.02-4.26-1.13-5.41-.22-.22-.61-.52-1.49-.52-.7,0-1.04,.26-1.26,.48-.66,.68-1.44,2.36-1.36,6.57v.35s-4.33,0-4.33,0v-.27c-.06-2.96,.15-7.19,2.6-9.68,1.14-1.17,2.65-1.78,4.35-1.78,1.81,0,3.39,.62,4.56,1.79,2.42,2.43,2.4,6.5,2.39,8.24,0,3.13-1.19,5.59-3.07,7.69l25.79,15.77c.83,.51,1.22,1.5,.96,2.44-.26,.93-1.11,1.58-2.09,1.58Zm-48.59-4.33h40.9l-20.36-12.45c-1.96,1.43-4.2,2.74-6.49,4.07l-14.05,8.39Z"/></g><rect class="cls-1" width="100" height="100"/></g></g></svg>