<?xml version="1.0" encoding="UTF-8"?><svg id="_圖層_2" xmlns="http://www.w3.org/2000/svg" viewBox="0 0 100 100"><defs><style>.cls-1{fill:none;}.cls-2{fill:#c9a063;}</style></defs><g id="_02"><g><g><path class="cls-2" d="M38.72,26.57c-4.45,0-8.06-3.62-8.06-8.06s3.62-8.06,8.06-8.06,8.06,3.62,8.06,8.06-3.61,8.06-8.06,8.06Zm0-10.81c-1.52,0-2.75,1.23-2.75,2.75s1.24,2.75,2.75,2.75,2.75-1.23,2.75-2.75-1.24-2.75-2.75-2.75Z"/><polygon class="cls-2" points="19.73 89.56 14.42 89.56 14.42 77.72 33.23 77.72 33.23 65.82 56.76 65.82 56.76 53.91 80.27 53.91 80.27 47.22 85.58 47.22 85.58 59.22 62.06 59.22 62.06 71.13 38.54 71.13 38.54 83.04 19.73 83.04 19.73 89.56"/><path class="cls-2" d="M19.55,77.75l-4.56-2.72c.69-1.16,1.35-2.24,1.97-3.25,4.76-7.77,6.54-10.68,3.63-18.28-5.13-13.43,3.38-24.99,8.6-29.22l3.34,4.12-1.67-2.06,1.68,2.06c-.49,.4-12.02,10.06-6.99,23.21,3.84,10.05,.86,14.91-4.06,22.95-.61,1-1.26,2.06-1.94,3.2Z"/><path class="cls-2" d="M38.54,66.04h-5.31c0-13.44-6.46-15-11.31-15v-5.31c6.21,0,16.62,2.64,16.62,20.31Z"/><polygon class="cls-2" points="45.56 65.81 36.05 39.25 23.09 39.25 23.09 33.94 39.79 33.94 50.56 64.02 45.56 65.81"/></g><rect class="cls-1" width="100" height="100"/></g></g></svg>