<?xml version="1.0" encoding="UTF-8"?><svg id="_圖層_2" xmlns="http://www.w3.org/2000/svg" viewBox="0 0 100 100"><defs><style>.cls-1{fill:none;}.cls-2{fill:#c9a063;}</style></defs><g id="_02"><g><g><path class="cls-2" d="M50.04,30.87c-6.27,0-11.37-5.1-11.37-11.36s5.1-11.37,11.37-11.37,11.36,5.1,11.36,11.37-5.1,11.36-11.36,11.36Zm0-17.42c-3.34,0-6.06,2.72-6.06,6.05s2.72,6.05,6.06,6.05,6.05-2.71,6.05-6.05-2.72-6.05-6.05-6.05Z"/><path class="cls-2" d="M67.42,91.86H32.58c-.92,0-1.77-.48-2.26-1.26-.48-.78-.53-1.76-.12-2.58l4.35-8.71,4.75,2.37-2.43,4.87h27.15l-7.89-31.55c-.15-.62-.08-1.26,.2-1.83l6.79-13.58h-26.63l15.97,39.92-4.93,1.97L30.11,37.92c-.33-.82-.23-1.74,.27-2.47,.49-.73,1.32-1.17,2.2-1.17h34.84c.92,0,1.77,.48,2.26,1.26,.48,.78,.53,1.76,.12,2.58l-8.27,16.54,8.47,33.89c.2,.79,.02,1.63-.48,2.28-.5,.64-1.27,1.02-2.09,1.02Z"/></g><rect class="cls-1" width="100" height="100"/></g></g></svg>