<?xml version="1.0" encoding="UTF-8"?><svg id="_圖層_2" xmlns="http://www.w3.org/2000/svg" viewBox="0 0 100 100"><defs><style>.cls-1{fill:none;}.cls-2{fill:#c9a063;}</style></defs><g id="_02"><g><g><rect class="cls-2" x="47.35" y="3.46" width="5.31" height="92.5" transform="translate(-20.14 56.87) rotate(-50.66)"/><g><path class="cls-2" d="M55.84,34.99c-5.67,0-10.28-4.61-10.28-10.27s4.61-10.28,10.28-10.28,10.28,4.61,10.28,10.28-4.61,10.27-10.28,10.27Zm0-15.24c-2.74,0-4.97,2.23-4.97,4.97s2.23,4.96,4.97,4.96,4.97-2.23,4.97-4.96-2.23-4.97-4.97-4.97Z"/><path class="cls-2" d="M67.98,48.34c-5.5,0-11.16-2.21-14.67-4.24-.07-.04-.14-.09-.21-.14-5.25-3.75-9.96-5.1-14-4.03-5.71,1.53-8.52,7.53-8.55,7.59l-4.84-2.18c.15-.34,3.81-8.32,11.96-10.53,5.63-1.53,11.82,.07,18.4,4.74,1.27,.7,14.74,7.86,19.89-.63l4.54,2.75c-3.01,4.97-7.71,6.66-12.52,6.66Z"/><path class="cls-2" d="M33.14,68.65c-7.9,0-15.08-5.01-15.43-5.26l3.06-4.34c.08,.06,8.07,5.61,15.01,3.99,3.04-.71,5.42-2.71,7.26-6.11l9.28-16.45,4.62,2.61-9.26,16.41c-2.56,4.71-6.17,7.66-10.72,8.72-1.28,.3-2.56,.43-3.83,.43Z"/><path class="cls-2" d="M59.08,85.56h-5.31c0-1.12,.07-2.35,.15-3.64,.45-7.32,.91-14.9-10.81-19.05l1.78-5.01c15.48,5.49,14.79,16.86,14.33,24.38-.07,1.17-.14,2.29-.14,3.31Z"/></g></g><rect class="cls-1" width="100" height="100"/></g></g></svg>