<?xml version="1.0" encoding="UTF-8"?><svg id="_圖層_2" xmlns="http://www.w3.org/2000/svg" viewBox="0 0 100 100"><defs><style>.cls-1{fill:none;}.cls-2{fill:#c9a063;}</style></defs><g id="_02"><g><g><path class="cls-2" d="M75.67,81.79h-.02l-16.15-.15c-1.36-.01-2.49-1.05-2.62-2.4l-4.39-44.7c-.07-.75,.17-1.49,.68-2.04,.5-.56,1.22-.87,1.97-.87h26.24c.76,0,1.49,.33,1.99,.9,.5,.57,.74,1.33,.64,2.09l-5.69,44.86c-.17,1.33-1.3,2.32-2.64,2.32Zm-13.74-5.44l11.41,.11,5.01-39.52h-20.29l3.87,39.41Z"/><path class="cls-2" d="M64.5,34.91l-3.17-12.92h-9.47v-5.31h11.55c1.22,0,2.29,.84,2.58,2.02l3.66,14.94-5.16,1.26Z"/><g><path class="cls-2" d="M48.61,46.35H13.94c-.65,0-1.26-.32-1.64-.85-.38-.53-.47-1.22-.25-1.83,2.64-7.5,10.37-12.54,19.23-12.54s16.59,5.04,19.23,12.55c.22,.62,.12,1.3-.26,1.83-.38,.53-.99,.85-1.64,.85Zm-31.45-4.02h28.23c-2.8-4.34-8.22-7.18-14.12-7.18s-11.31,2.84-14.12,7.18Z"/><path class="cls-2" d="M31.27,81.73c-8.86,0-16.59-5.04-19.23-12.55-.22-.62-.12-1.3,.26-1.83,.38-.53,.99-.85,1.64-.85H48.61c.65,0,1.26,.32,1.64,.85,.38,.53,.47,1.22,.26,1.83-2.64,7.51-10.37,12.55-19.23,12.55Zm-14.12-11.2c2.81,4.34,8.22,7.18,14.12,7.18s11.31-2.85,14.12-7.18H17.16Z"/></g><rect class="cls-2" x="48.2" y="5.7" width="5.31" height="92.5" transform="translate(-21.56 58.36) rotate(-50.66)"/><path class="cls-2" d="M50.86,63.14c-4.6,0-7.04-2.35-8.83-4.06-1.6-1.53-2.38-2.21-4.23-2.21s-2.64,.68-4.23,2.21c-1.79,1.71-4.23,4.06-8.83,4.06s-7.04-2.35-8.83-4.06c-1.6-1.53-2.38-2.21-4.23-2.21v-6.64c4.6,0,7.04,2.35,8.83,4.06,1.6,1.53,2.38,2.21,4.23,2.21s2.64-.68,4.23-2.21c1.79-1.71,4.23-4.06,8.83-4.06s7.04,2.35,8.83,4.06c1.6,1.53,2.38,2.21,4.23,2.21v6.64Z"/></g><rect class="cls-1" width="100" height="100"/></g></g></svg>