<?xml version="1.0" encoding="UTF-8"?><svg id="_圖層_2" xmlns="http://www.w3.org/2000/svg" viewBox="0 0 1670.81 252.65"><defs><style>.cls-1{fill:#c9a063;}</style></defs><g id="_01"><g><g><path class="cls-1" d="M0,162H5.11c0,13.41,1.86,25.05,5.59,34.95,3.72,9.89,8.72,18.09,15,24.58,6.27,6.49,13.67,11.33,22.18,14.52,8.51,3.19,17.55,4.79,27.13,4.79,7.66,0,14.73-1.17,21.22-3.51,6.49-2.34,12.02-5.64,16.6-9.89,4.57-4.25,8.19-9.31,10.85-15.16,2.66-5.85,3.99-12.39,3.99-19.63,0-8.3-1.07-15.21-3.19-20.75-2.13-5.53-5.43-10.16-9.89-13.88-4.47-3.72-10.11-6.65-16.92-8.78-6.81-2.12-14.79-3.93-23.94-5.43-12.56-1.92-23.46-4.15-32.71-6.7-9.26-2.55-16.92-6.27-22.98-11.17-6.06-4.89-10.59-11.44-13.56-19.63C1.49,98.12,0,87.32,0,73.91c0-9.15,1.44-17.55,4.31-25.21,2.87-7.66,6.91-14.25,12.13-19.79,5.21-5.53,11.49-9.89,18.83-13.09,7.34-3.19,15.48-4.79,24.42-4.79,8.3,0,15.37,1.01,21.22,3.03,5.85,2.02,10.9,4.26,15.16,6.7,4.25,2.45,7.92,4.68,11.01,6.7,3.08,2.02,6.01,3.03,8.78,3.03,3.62,0,5.95-1.49,7.02-4.47,1.06-2.98,1.81-5.53,2.23-7.66h5.11V85.4h-5.11c-.64-9.15-2.45-17.87-5.43-26.17-2.98-8.3-7.13-15.64-12.45-22.02-5.32-6.38-11.92-11.49-19.79-15.32-7.87-3.83-17.13-5.74-27.77-5.74-13.62,0-24.74,4.2-33.35,12.61-8.62,8.41-12.93,19.95-12.93,34.63,0,7.24,.85,13.2,2.55,17.87,1.7,4.68,4.89,8.62,9.57,11.81,4.68,3.19,11.17,5.91,19.47,8.14,8.3,2.23,19.04,4.52,32.24,6.86,11.7,2.13,21.7,4.74,30,7.82,8.3,3.09,15.11,7.13,20.43,12.13,5.32,5,9.2,11.12,11.65,18.35,2.44,7.24,3.67,16.07,3.67,26.49s-1.44,20.11-4.31,29.04c-2.87,8.94-7.18,16.65-12.93,23.14-5.74,6.49-12.98,11.6-21.7,15.32-8.73,3.72-18.83,5.58-30.32,5.58-8.09,0-15.22-.85-21.38-2.55-6.17-1.71-11.65-3.62-16.44-5.75-4.79-2.12-9.05-4.04-12.77-5.75-3.73-1.7-7.08-2.55-10.05-2.55-3.83,0-6.12,1.55-6.86,4.63-.75,3.09-1.12,6.01-1.12,8.78l-5.11-.32v-80.43Z"/><path class="cls-1" d="M401.83,199.03c-2.34,4.9-4.9,10-7.66,15.32-2.77,5.32-6.01,10.21-9.73,14.68-3.73,4.47-7.98,8.19-12.77,11.17-4.79,2.98-10.27,4.47-16.44,4.47-6.6,0-14.63-3.51-24.1-10.53-9.47-7.02-18.99-17.13-28.57-30.32-3.41,4.68-7.29,9.47-11.65,14.36-4.36,4.9-9.1,9.31-14.2,13.25-5.11,3.94-10.59,7.13-16.44,9.57-5.85,2.44-11.86,3.67-18.03,3.67-7.02,0-13.78-1.44-20.27-4.31-6.49-2.87-12.18-6.75-17.08-11.65-4.9-4.89-8.78-10.58-11.65-17.08-2.87-6.49-4.31-13.25-4.31-20.27,0-7.45,1.81-14.41,5.43-20.91,3.62-6.49,8.24-12.5,13.88-18.03,5.64-5.53,11.75-10.53,18.35-15,6.59-4.47,12.77-8.3,18.51-11.49-2.13-3.4-4.52-7.13-7.18-11.17-2.66-4.04-5.11-8.24-7.34-12.61-2.23-4.36-4.1-8.72-5.59-13.09-1.49-4.36-2.23-8.67-2.23-12.93,0-6.38,1.22-12.34,3.67-17.87,2.44-5.53,5.74-10.32,9.89-14.36,4.15-4.04,8.99-7.23,14.52-9.58,5.53-2.34,11.49-3.51,17.87-3.51,11.06,0,19.89,3.14,26.49,9.42,6.59,6.28,9.89,14.84,9.89,25.69s-3.09,20.59-9.26,27.93c-6.17,7.34-13.83,13.78-22.98,19.31,7.45,10.64,14.89,21.12,22.34,31.44,7.45,10.32,15.09,20.59,22.93,30.8,2.75-3.4,5.72-7.5,8.9-12.29,3.18-4.79,6.67-9.36,10.49-13.72,3.81-4.36,7.89-8.08,12.24-11.17,4.34-3.08,8.95-4.63,13.83-4.63,5.51,0,10.23,1.75,14.15,5.27,3.92,3.51,5.88,8.67,5.88,15.48,0,5.32-1.58,9.58-4.74,12.77-3.16,3.19-7.48,4.79-12.96,4.79-4.85,0-8.54-1.6-11.07-4.79-2.53-3.19-3.79-6.7-3.79-10.53,0-5.32-1.07-7.98-3.19-7.98-.64,0-1.92,.85-3.83,2.55-1.91,1.71-4.15,3.99-6.7,6.86-2.55,2.87-5.27,6.17-8.14,9.89-2.87,3.72-5.59,7.71-8.14,11.97,4.04,5.11,8.14,10.16,12.29,15.16,4.15,5,8.4,9.47,12.77,13.41,4.36,3.94,8.72,7.13,13.09,9.58,4.36,2.45,8.78,3.67,13.25,3.67,3.19,0,6.11-.96,8.78-2.87,2.66-1.92,5.11-4.15,7.34-6.7,2.23-2.55,4.15-5.21,5.75-7.98,1.6-2.76,2.71-5,3.35-6.7l4.15,1.6Zm-186.08-28.09c0,5.32,1.28,11.12,3.83,17.4,2.55,6.28,5.95,12.18,10.21,17.71,4.25,5.54,9.15,10.16,14.68,13.88,5.53,3.72,11.17,5.58,16.92,5.58,4.68,0,8.83-.69,12.45-2.07,3.62-1.38,6.86-3.24,9.73-5.59,2.87-2.34,5.59-5.11,8.14-8.3,2.55-3.19,5.11-6.59,7.66-10.21-9.15-11.49-17.93-23.09-26.33-34.79-8.41-11.7-16.87-23.4-25.37-35.11-4.47,2.98-8.67,5.7-12.61,8.14-3.94,2.45-7.34,5.16-10.21,8.14-2.87,2.98-5.11,6.44-6.7,10.37-1.6,3.94-2.39,8.89-2.39,14.84Zm84.26-104.69c0-9.79-2.77-17.29-8.3-22.5-5.54-5.21-12.34-7.82-20.43-7.82-7.24,0-12.98,2.23-17.24,6.7-4.26,4.47-6.38,10.43-6.38,17.87,0,3.62,.69,7.5,2.07,11.65,1.38,4.15,3.19,8.3,5.43,12.45,2.23,4.15,4.63,8.3,7.18,12.45,2.55,4.15,5.11,8.14,7.66,11.97,8.3-3.83,15.37-9.52,21.22-17.08,5.85-7.55,8.78-16.12,8.78-25.69Z"/><path class="cls-1" d="M448.43,21.25h-28.09v-5.11h61.6l67.03,169.8L614.72,16.14h60.64v5.11h-28.09V235.73h28.09v5.11h-90.64v-5.11h30V33.38h-.64l-77.88,202.35h-2.87L454.18,37.21h-.64V209.24c0,5.32,.21,9.68,.64,13.09,.42,3.41,1.38,6.12,2.87,8.14,1.49,2.02,3.51,3.41,6.06,4.15,2.55,.75,5.95,1.12,10.21,1.12h12.77v5.11h-65.75v-5.11h8.3c4.25,0,7.66-.37,10.21-1.12,2.55-.74,4.57-2.12,6.06-4.15,1.49-2.02,2.44-4.73,2.87-8.14,.42-3.4,.64-7.76,.64-13.09V21.25Z"/></g><g><path class="cls-1" d="M779.8,110.33h-10.07l-1.93,5.93c-.16,.47-.31,.96-.47,1.48-.16,.52-.23,.98-.23,1.39,0,.35,.16,.63,.47,.85,.31,.22,.85,.33,1.6,.33h2.45v.75h-9.69v-.75h1.51c.38,0,.7-.02,.96-.07,.27-.05,.51-.16,.73-.33,.22-.17,.43-.45,.64-.82,.2-.38,.42-.89,.64-1.55l10.12-30.35h.52l11.43,33.13h3.91v.75h-13.79v-.75h4.61l-3.39-9.98Zm-5.08-15.01h-.09l-4.61,14.26h9.55l-4.85-14.26Z"/><path class="cls-1" d="M800.13,88.68h-4.47v-.75h14.35c1.76,0,3.31,.2,4.66,.61,1.35,.41,2.49,.95,3.41,1.62,.92,.67,1.63,1.46,2.12,2.35,.49,.89,.73,1.81,.73,2.75,0,1.79-.34,3.21-1.01,4.26-.67,1.05-1.49,1.85-2.45,2.4-.96,.55-1.98,.92-3.08,1.11-1.1,.19-2.07,.33-2.92,.42v.09c1.29,.09,2.55,.32,3.79,.68,1.24,.36,2.34,.88,3.32,1.55,.97,.67,1.76,1.53,2.35,2.56,.6,1.04,.89,2.31,.89,3.81,0,1.6-.31,2.96-.94,4.07-.63,1.11-1.44,2.03-2.42,2.75-.99,.72-2.08,1.25-3.27,1.58-1.19,.33-2.34,.49-3.43,.49h-16.09v-.75h4.47v-31.62Zm4.8,14.4h3.11c1.07,0,2.09-.08,3.06-.24,.97-.16,1.83-.49,2.59-1.01,.75-.52,1.35-1.26,1.79-2.24,.44-.97,.66-2.26,.66-3.86,0-.63-.13-1.35-.4-2.17-.27-.82-.73-1.58-1.39-2.31-.66-.72-1.55-1.33-2.68-1.83-1.13-.5-2.56-.75-4.28-.75h-2.45v14.4Zm0,17.22h3.95c2.48,0,4.36-.74,5.65-2.21,1.29-1.47,1.93-3.59,1.93-6.35,0-1.32-.22-2.47-.66-3.46-.44-.99-1.05-1.81-1.84-2.47-.78-.66-1.73-1.15-2.82-1.48-1.1-.33-2.32-.49-3.67-.49h-2.54v16.47Z"/><path class="cls-1" d="M854.38,98.66h-.75c0-1.35-.27-2.67-.8-3.95-.53-1.29-1.27-2.43-2.21-3.44-.94-1-2.04-1.81-3.29-2.42-1.25-.61-2.6-.92-4.05-.92s-2.58,.27-3.6,.8c-1.02,.53-1.88,1.24-2.59,2.12-.71,.88-1.28,1.89-1.72,3.04-.44,1.15-.78,2.34-1.01,3.58-.24,1.24-.39,2.46-.47,3.67-.08,1.21-.12,2.33-.12,3.37s.04,2.16,.12,3.36c.08,1.21,.24,2.43,.47,3.67,.24,1.24,.57,2.43,1.01,3.58,.44,1.15,1.01,2.16,1.72,3.04,.71,.88,1.56,1.59,2.57,2.12,1,.53,2.21,.8,3.62,.8s2.85-.34,4.12-1.01c1.27-.67,2.37-1.56,3.29-2.66,.92-1.1,1.65-2.34,2.16-3.74s.78-2.83,.78-4.31h.75v11.15h-.75c0-.47-.13-.98-.38-1.53-.25-.55-.66-.82-1.22-.82-.35,0-.77,.19-1.27,.57-.5,.38-1.11,.8-1.81,1.27-.71,.47-1.52,.89-2.45,1.27-.93,.38-2,.56-3.22,.56-1.98,0-3.87-.45-5.67-1.34-1.8-.89-3.39-2.12-4.75-3.69-1.36-1.57-2.45-3.4-3.25-5.51-.8-2.1-1.2-4.36-1.2-6.78s.4-4.67,1.2-6.78c.8-2.1,1.88-3.94,3.25-5.51,1.36-1.57,2.95-2.8,4.75-3.69,1.8-.89,3.69-1.34,5.67-1.34,1.19,0,2.24,.18,3.13,.54,.89,.36,1.67,.75,2.33,1.18,.66,.42,1.24,.82,1.74,1.18,.5,.36,.97,.54,1.41,.54,.66,0,1.11-.2,1.36-.59,.25-.39,.38-.87,.38-1.43h.75v10.07Z"/><path class="cls-1" d="M864.97,88.68h-4.47v-.75h14.73c2.07,0,3.91,.27,5.53,.8,1.62,.53,3.02,1.24,4.21,2.12,1.19,.88,2.19,1.89,2.99,3.04,.8,1.15,1.44,2.33,1.93,3.55,.49,1.22,.84,2.45,1.06,3.67,.22,1.22,.33,2.35,.33,3.39,0,2.57-.38,4.88-1.15,6.92-.77,2.04-1.85,3.77-3.25,5.2-1.4,1.43-3.07,2.53-5.04,3.29-1.96,.77-4.15,1.15-6.56,1.15h-14.78v-.75h4.47v-31.62Zm4.8,31.62h4.05c1.07,0,2.29-.16,3.67-.47,1.38-.31,2.7-1.01,3.95-2.09,1.25-1.08,2.31-2.67,3.18-4.78,.86-2.1,1.29-4.92,1.29-8.47,0-2.01-.18-3.96-.54-5.86-.36-1.9-1.04-3.58-2.05-5.06-1-1.47-2.41-2.66-4.21-3.55-1.8-.89-4.15-1.34-7.04-1.34h-2.31v31.62Z"/><path class="cls-1" d="M901.3,88.68h-4.14v-.75h25.08l.56,8h-.75c0-1.35-.21-2.49-.64-3.41-.42-.92-1.01-1.67-1.76-2.24-.75-.56-1.65-.97-2.71-1.22-1.05-.25-2.2-.38-3.46-.38h-7.39v15.15h3.53c1.22,0,2.19-.17,2.89-.52,.71-.34,1.25-.8,1.62-1.37,.38-.56,.61-1.21,.71-1.93s.14-1.46,.14-2.21h.75v12.52h-.75c0-.88-.05-1.68-.14-2.4-.09-.72-.33-1.33-.71-1.81-.38-.49-.93-.86-1.65-1.13-.72-.27-1.69-.4-2.92-.4h-3.48v15.72h6.45c1.91,0,3.58-.09,4.99-.26,1.41-.17,2.59-.56,3.53-1.18,.94-.61,1.64-1.51,2.09-2.68,.45-1.18,.68-2.77,.68-4.78h.75v9.65h-27.43v-.75h4.14v-31.62Z"/><path class="cls-1" d="M935.56,88.68h-4.28v-.75h25.18l.66,8h-.8c-.06-1.38-.29-2.53-.68-3.46-.39-.92-.95-1.67-1.67-2.24-.72-.56-1.6-.96-2.64-1.2-1.04-.23-2.2-.35-3.48-.35h-7.48v15.15h3.53c1.22,0,2.19-.17,2.89-.52,.71-.34,1.25-.8,1.62-1.37,.38-.56,.61-1.21,.71-1.93,.09-.72,.14-1.46,.14-2.21h.75v12.52h-.75c0-.88-.05-1.68-.14-2.4-.09-.72-.33-1.33-.71-1.81-.38-.49-.93-.86-1.65-1.13-.72-.27-1.69-.4-2.92-.4h-3.48v15.72h4.42v.75h-13.51v-.75h4.28v-31.62Z"/><path class="cls-1" d="M985.76,111.18h-4.33v-.75h13.13v.75h-3.72v5.6c-.41,.31-.96,.75-1.67,1.32-.71,.57-1.58,1.12-2.61,1.67-1.04,.55-2.24,1.03-3.62,1.44-1.38,.41-2.96,.61-4.75,.61-2.1,0-4.06-.38-5.88-1.15-1.82-.77-3.4-1.88-4.73-3.34-1.33-1.46-2.38-3.26-3.13-5.41-.75-2.15-1.13-4.62-1.13-7.41,0-2.42,.4-4.67,1.2-6.78,.8-2.1,1.88-3.94,3.25-5.51,1.36-1.57,2.95-2.8,4.75-3.69,1.8-.89,3.69-1.34,5.67-1.34,1.29,0,2.41,.17,3.36,.49,.96,.33,1.79,.7,2.49,1.11,.71,.41,1.32,.78,1.83,1.11,.52,.33,.96,.49,1.34,.49,.72,0,1.18-.24,1.36-.73,.19-.49,.28-1.03,.28-1.62h.75v10.07h-.75c-.06-1.25-.38-2.49-.94-3.72-.56-1.22-1.33-2.31-2.28-3.27-.96-.96-2.07-1.73-3.34-2.31-1.27-.58-2.64-.87-4.12-.87-1.38,0-2.58,.27-3.6,.8-1.02,.53-1.88,1.24-2.59,2.12-.71,.88-1.28,1.89-1.72,3.04-.44,1.15-.78,2.34-1.01,3.58-.24,1.24-.39,2.46-.47,3.67-.08,1.21-.12,2.33-.12,3.37s.04,2.11,.12,3.32c.08,1.21,.24,2.43,.47,3.67,.24,1.24,.57,2.43,1.01,3.58,.44,1.15,1.01,2.16,1.72,3.06,.71,.89,1.56,1.61,2.56,2.14,1,.53,2.21,.8,3.62,.8,1.13,0,2.16-.1,3.08-.31,.92-.2,1.72-.53,2.4-.96,.67-.44,1.19-1.03,1.55-1.76,.36-.74,.54-1.64,.54-2.71v-4.14Z"/><path class="cls-1" d="M1002.47,88.68h-4.14v-.75h13.36v.75h-4.42v14.96h17.13v-14.96h-4.42v-.75h13.36v.75h-4.14v31.62h4.14v.75h-13.36v-.75h4.42v-15.91h-17.13v15.91h4.42v.75h-13.36v-.75h4.14v-31.62Z"/><path class="cls-1" d="M1041.95,88.68h-4.28v-.75h13.36v.75h-4.28v31.62h4.28v.75h-13.36v-.75h4.28v-31.62Z"/><path class="cls-1" d="M1062.89,88.68h-4.71v-.75h14.21v.75h-4.71v27.39c0,2.67-.68,4.76-2.05,6.28-1.36,1.52-3.18,2.28-5.44,2.28-1.63,0-2.87-.39-3.72-1.18-.85-.78-1.27-1.71-1.27-2.78,0-.94,.25-1.64,.75-2.09,.5-.45,1.1-.68,1.79-.68,.6,0,1.12,.18,1.58,.54,.45,.36,.68,.9,.68,1.62,0,.53-.13,.92-.38,1.15-.25,.24-.52,.42-.8,.56-.28,.14-.55,.26-.8,.35-.25,.09-.38,.25-.38,.47,0,.34,.22,.64,.66,.89,.44,.25,1.07,.38,1.88,.38,1,0,1.87-.19,2.59-.56,.72-.38,1.08-1.08,1.08-2.12,0-.6-.06-1.07-.17-1.44-.11-.36-.22-.66-.33-.89-.11-.24-.22-.44-.33-.61-.11-.17-.16-.38-.16-.64v-28.94Z"/><path class="cls-1" d="M1080.68,88.68h-4.28v-.75h13.83v.75h-4.75v15.43l8.89-8.56c.38-.34,.85-.8,1.41-1.36,.56-.56,1.11-1.14,1.65-1.74,.53-.6,1-1.14,1.39-1.65,.39-.5,.59-.88,.59-1.13,0-.31-.13-.56-.4-.73-.27-.17-.78-.26-1.53-.26h-2.64v-.75h12.33v.75h-1.6c-.69,0-1.36,.13-2,.4-.64,.27-1.25,.59-1.84,.96-.58,.38-1.11,.78-1.58,1.2-.47,.42-.89,.81-1.27,1.15l-9.27,8.89,13.6,17.36c.44,.53,.81,.94,1.11,1.22,.3,.28,.78,.42,1.43,.42h2.59v.75h-14.59v-.75h4.38l-12.05-15.58-.61,.47v15.11h4.75v.75h-13.83v-.75h4.28v-31.62Z"/><path class="cls-1" d="M1117.43,88.68h-4.71v-.75h14.21v.75h-4.71v31.62h5.88c2.26,0,4.15-.11,5.67-.33,1.52-.22,2.74-.68,3.65-1.39,.91-.71,1.56-1.72,1.95-3.04,.39-1.32,.59-3.09,.59-5.32h.75v10.82h-28v-.75h4.71v-31.62Z"/><path class="cls-1" d="M1150.22,88.68h-4.14v-.75h9.08l9.88,25.03,9.69-25.03h8.94v.75h-4.14v31.62h4.14v.75h-13.36v-.75h4.42v-29.83h-.09l-11.48,29.83h-.42l-11.67-29.27h-.09v25.36c0,.78,.03,1.43,.09,1.93,.06,.5,.2,.9,.42,1.2,.22,.3,.52,.5,.89,.61,.38,.11,.88,.17,1.51,.17h1.88v.75h-9.69v-.75h1.22c.63,0,1.13-.05,1.51-.17,.38-.11,.67-.31,.89-.61,.22-.3,.36-.7,.42-1.2,.06-.5,.09-1.14,.09-1.93v-27.72Z"/><path class="cls-1" d="M1192.67,90.19h-.09v27.43c0,1.13,.21,1.86,.64,2.19,.42,.33,1.18,.49,2.28,.49h1.88v.75h-10.07v-.75h1.6c1.1,0,1.86-.17,2.28-.49,.42-.33,.64-1.06,.64-2.19v-28.94h-4.52v-.75h9.88l17.79,24.56h.09v-21.27c0-.97-.15-1.64-.45-2-.3-.36-.96-.54-2-.54h-2.21v-.75h9.93v.75h-2.07c-1.04,0-1.7,.18-2,.54-.3,.36-.45,1.03-.45,2v30.12h-.61l-22.54-31.15Z"/><path class="cls-1" d="M1225.28,104.49c0-2.42,.4-4.67,1.2-6.78,.8-2.1,1.88-3.94,3.25-5.51,1.36-1.57,2.95-2.8,4.75-3.69,1.8-.89,3.69-1.34,5.67-1.34s3.87,.45,5.67,1.34c1.8,.89,3.39,2.13,4.75,3.69,1.36,1.57,2.45,3.4,3.25,5.51,.8,2.1,1.2,4.36,1.2,6.78s-.4,4.67-1.2,6.78c-.8,2.1-1.88,3.94-3.25,5.51-1.36,1.57-2.95,2.8-4.75,3.69-1.8,.89-3.69,1.34-5.67,1.34s-3.87-.45-5.67-1.34c-1.8-.89-3.39-2.12-4.75-3.69-1.36-1.57-2.45-3.4-3.25-5.51-.8-2.1-1.2-4.36-1.2-6.78Zm5.36,0c0,1.04,.04,2.16,.12,3.36,.08,1.21,.24,2.43,.47,3.67,.24,1.24,.57,2.43,1.01,3.58,.44,1.15,1.01,2.16,1.72,3.04,.71,.88,1.56,1.59,2.56,2.12,1,.53,2.21,.8,3.62,.8s2.62-.27,3.62-.8c1-.53,1.86-1.24,2.56-2.12,.71-.88,1.28-1.89,1.72-3.04,.44-1.14,.78-2.34,1.01-3.58,.24-1.24,.39-2.46,.47-3.67,.08-1.21,.12-2.33,.12-3.36s-.04-2.16-.12-3.37c-.08-1.21-.23-2.43-.47-3.67-.24-1.24-.57-2.43-1.01-3.58-.44-1.15-1.01-2.16-1.72-3.04-.71-.88-1.57-1.58-2.59-2.12-1.02-.53-2.22-.8-3.6-.8s-2.58,.27-3.6,.8c-1.02,.53-1.88,1.24-2.59,2.12-.71,.88-1.28,1.89-1.72,3.04-.44,1.15-.78,2.34-1.01,3.58-.24,1.24-.39,2.46-.47,3.67-.08,1.21-.12,2.33-.12,3.37Z"/><path class="cls-1" d="M1264.95,88.68h-4.66v-.75h13.41c1.76,0,3.39,.16,4.89,.47,1.51,.31,2.82,.84,3.93,1.58,1.11,.74,1.99,1.69,2.64,2.85,.64,1.16,.96,2.59,.96,4.28s-.35,3.08-1.06,4.24c-.71,1.16-1.63,2.11-2.78,2.85-1.15,.74-2.43,1.27-3.86,1.6-1.43,.33-2.85,.49-4.26,.49-.82,0-1.64-.07-2.47-.21-.83-.14-1.48-.34-1.95-.59v14.82h4.8v.75h-14.26v-.75h4.66v-31.62Zm4.8,15.86c.34,.25,.84,.48,1.48,.68,.64,.21,1.36,.31,2.14,.31s1.62-.12,2.52-.35c.89-.24,1.72-.66,2.49-1.27,.77-.61,1.4-1.43,1.91-2.45,.5-1.02,.75-2.33,.75-3.93,0-3.11-.7-5.36-2.09-6.75-1.4-1.4-3.51-2.09-6.33-2.09h-2.87v15.86Z"/><path class="cls-1" d="M1309.98,126.85c0,.53,.08,1,.24,1.41,.16,.41,.46,.77,.92,1.08,.45,.31,1.07,.55,1.86,.71,.78,.16,1.82,.23,3.11,.23,.38,0,.77-.02,1.18-.05,.41-.03,.75-.08,1.04-.14v.75c-.47,.06-.93,.11-1.39,.14-.46,.03-.92,.05-1.39,.05-1.22,0-2.45-.05-3.69-.16-1.24-.11-2.35-.34-3.34-.68-.99-.35-1.79-.84-2.4-1.48-.61-.64-.92-1.51-.92-2.61v-4.56c-1.73-.31-3.34-.97-4.85-1.98-1.51-1-2.82-2.26-3.95-3.76s-2.02-3.22-2.68-5.15c-.66-1.93-.99-3.98-.99-6.14,0-2.42,.4-4.67,1.2-6.78,.8-2.1,1.88-3.94,3.25-5.51,1.36-1.57,2.95-2.8,4.75-3.69,1.8-.89,3.69-1.34,5.67-1.34s3.87,.45,5.67,1.34c1.8,.89,3.39,2.13,4.75,3.69,1.36,1.57,2.45,3.4,3.25,5.51,.8,2.1,1.2,4.36,1.2,6.78,0,2.16-.32,4.21-.96,6.14-.64,1.93-1.53,3.65-2.66,5.15s-2.46,2.76-3.98,3.76c-1.52,1-3.15,1.66-4.87,1.98v5.32Zm-11.91-22.35c0,1.04,.04,2.16,.12,3.36,.08,1.21,.24,2.43,.47,3.67,.24,1.24,.57,2.43,1.01,3.58,.44,1.15,1.01,2.16,1.72,3.04,.71,.88,1.56,1.59,2.56,2.12,1,.53,2.21,.8,3.62,.8s2.62-.27,3.62-.8c1-.53,1.86-1.24,2.56-2.12,.71-.88,1.28-1.89,1.72-3.04,.44-1.14,.78-2.34,1.01-3.58,.24-1.24,.39-2.46,.47-3.67,.08-1.21,.12-2.33,.12-3.36s-.04-2.16-.12-3.37c-.08-1.21-.23-2.43-.47-3.67-.24-1.24-.57-2.43-1.01-3.58-.44-1.15-1.01-2.16-1.72-3.04-.71-.88-1.57-1.58-2.59-2.12-1.02-.53-2.22-.8-3.6-.8s-2.58,.27-3.6,.8c-1.02,.53-1.88,1.24-2.59,2.12-.71,.88-1.28,1.89-1.72,3.04-.44,1.15-.78,2.34-1.01,3.58-.24,1.24-.39,2.46-.47,3.67-.08,1.21-.12,2.33-.12,3.37Z"/><path class="cls-1" d="M1332.8,88.68h-4.71v-.75h14.45c1.35,0,2.7,.1,4.05,.31,1.35,.21,2.56,.6,3.62,1.2,1.07,.6,1.94,1.44,2.61,2.52,.67,1.08,1.01,2.52,1.01,4.31,0,1.44-.36,2.63-1.08,3.58-.72,.94-1.61,1.69-2.66,2.26-1.05,.56-2.16,.99-3.32,1.27-1.16,.28-2.16,.47-3.01,.56v.09c1.35,.12,2.54,.31,3.58,.56,1.04,.25,1.93,.66,2.68,1.22,.75,.56,1.35,1.33,1.79,2.31,.44,.97,.75,2.23,.94,3.76l.66,5.74c.09,.69,.24,1.23,.42,1.62,.19,.39,.4,.69,.64,.89,.24,.21,.48,.33,.73,.38,.25,.05,.47,.07,.66,.07,.44,0,.81-.05,1.11-.16,.3-.11,.57-.21,.82-.31l.28,.61c-.47,.16-1.01,.3-1.62,.42-.61,.12-1.36,.19-2.23,.19-1.44,0-2.57-.19-3.39-.56-.82-.38-1.44-.92-1.88-1.65-.44-.72-.75-1.61-.94-2.66-.19-1.05-.36-2.25-.52-3.6l-.33-2.82c-.09-.75-.24-1.47-.42-2.14-.19-.67-.51-1.27-.96-1.79-.45-.52-1.09-.93-1.91-1.25-.82-.31-1.88-.47-3.2-.47h-3.06v15.91h4.8v.75h-14.31v-.75h4.71v-31.62Zm4.8,14.96h2.35c1.38,0,2.62-.12,3.72-.38s2.02-.67,2.78-1.27c.75-.6,1.33-1.36,1.72-2.28,.39-.92,.59-2.08,.59-3.46,0-.94-.1-1.87-.31-2.78-.2-.91-.6-1.72-1.18-2.42-.58-.71-1.39-1.28-2.42-1.72-1.04-.44-2.38-.66-4.05-.66h-3.2v14.96Z"/><path class="cls-1" d="M1363.2,109.43h.75c0,1.98,.27,3.69,.82,5.15,.55,1.46,1.29,2.67,2.21,3.62,.92,.96,2.02,1.67,3.27,2.14,1.25,.47,2.59,.71,4,.71,1.13,0,2.17-.17,3.13-.52,.96-.34,1.77-.83,2.45-1.46,.67-.63,1.21-1.37,1.6-2.24,.39-.86,.59-1.83,.59-2.89,0-1.22-.16-2.24-.47-3.06-.31-.82-.8-1.5-1.46-2.05-.66-.55-1.49-.98-2.49-1.29-1-.31-2.18-.58-3.53-.8-1.85-.28-3.46-.61-4.82-.99-1.36-.38-2.49-.93-3.39-1.65-.89-.72-1.56-1.69-2-2.89-.44-1.21-.66-2.8-.66-4.78,0-1.35,.21-2.59,.64-3.72,.42-1.13,1.02-2.1,1.79-2.92,.77-.82,1.69-1.46,2.78-1.93,1.08-.47,2.28-.71,3.6-.71,1.22,0,2.27,.15,3.13,.45,.86,.3,1.61,.63,2.24,.99,.63,.36,1.17,.69,1.62,.99,.45,.3,.89,.45,1.29,.45,.53,0,.88-.22,1.04-.66,.16-.44,.27-.82,.33-1.13h.75v9.88h-.75c-.09-1.35-.36-2.63-.8-3.86-.44-1.22-1.05-2.31-1.84-3.25-.78-.94-1.76-1.69-2.92-2.26-1.16-.56-2.53-.85-4.09-.85-2.01,0-3.65,.62-4.92,1.86-1.27,1.24-1.91,2.94-1.91,5.11,0,1.07,.12,1.95,.38,2.63,.25,.69,.72,1.27,1.41,1.74,.69,.47,1.65,.87,2.87,1.2,1.22,.33,2.81,.67,4.75,1.01,1.73,.31,3.2,.7,4.42,1.15,1.22,.45,2.23,1.05,3.01,1.79,.78,.74,1.36,1.64,1.72,2.71,.36,1.07,.54,2.37,.54,3.91s-.21,2.96-.64,4.28c-.42,1.32-1.06,2.46-1.91,3.41-.85,.96-1.91,1.71-3.2,2.26-1.29,.55-2.78,.82-4.47,.82-1.19,0-2.24-.13-3.15-.38-.91-.25-1.72-.53-2.42-.85-.71-.31-1.33-.6-1.88-.85-.55-.25-1.04-.38-1.48-.38-.56,0-.9,.23-1.01,.68-.11,.46-.16,.89-.16,1.29l-.75-.05v-11.86Z"/><path class="cls-1" d="M1402.49,88.68h-.99c-2.1,0-3.82,.11-5.15,.33-1.33,.22-2.38,.64-3.13,1.27-.75,.63-1.27,1.54-1.55,2.73-.28,1.19-.42,2.75-.42,4.66h-.75v-9.74h28.8v9.74h-.75c0-1.91-.14-3.47-.42-4.66-.28-1.19-.8-2.1-1.55-2.73-.75-.63-1.8-1.05-3.13-1.27-1.33-.22-3.04-.33-5.11-.33h-1.04v31.62h4.85v.75h-14.49v-.75h4.85v-31.62Z"/><path class="cls-1" d="M1423.43,87.93h14.26v.75h-4.99v24.61c0,1.35,.24,2.51,.71,3.48,.47,.97,1.08,1.78,1.84,2.42s1.61,1.11,2.56,1.41c.96,.3,1.94,.45,2.94,.45,3.29,0,5.91-.82,7.84-2.45,1.93-1.63,2.89-4.2,2.89-7.72v-19.01c0-1.29-.22-2.14-.66-2.56-.44-.42-1.18-.64-2.21-.64h-2.64v-.75h10.92v.75h-2.12c-1,0-1.68,.24-2.02,.73-.35,.49-.52,1.33-.52,2.52v19.53c0,1.85-.31,3.43-.92,4.73-.61,1.3-1.44,2.37-2.49,3.2-1.05,.83-2.27,1.44-3.67,1.84-1.4,.39-2.88,.59-4.45,.59-1.95,0-3.7-.13-5.27-.4-1.57-.27-2.91-.75-4.02-1.46-1.11-.71-1.98-1.65-2.59-2.85-.61-1.19-.92-2.73-.92-4.61v-23.81h-4.47v-.75Z"/><path class="cls-1" d="M1477.97,114.42h.09l6.68-18.78c.56-1.57,.98-2.72,1.25-3.46,.27-.74,.4-1.31,.4-1.72,0-.25-.04-.49-.12-.71-.08-.22-.24-.41-.49-.56-.25-.16-.62-.28-1.11-.38-.49-.09-1.14-.14-1.95-.14h-.52v-.75h10.26v.75h-1.27c-.66,0-1.22,.08-1.67,.24-.46,.16-.84,.38-1.15,.66-.31,.28-.57,.63-.78,1.04-.2,.41-.4,.85-.59,1.32l-10.92,30.26h-.47l-11.72-33.5h-3.81v-.75h13.79v.75h-4.56l8.66,25.74Z"/><path class="cls-1" d="M1499.76,88.68h-3.34v-.75h10.92v.75h-2.49l8.94,26.07h.09l3.53-9.88-5.6-16.19h-2.82v-.75h19.15v.75h-1.27c-.94,0-1.71,.16-2.31,.47-.6,.31-1.07,1.02-1.41,2.12l-2.78,7.67,5.22,15.81h.09l8.05-22.63c.25-.69,.41-1.17,.47-1.44,.06-.27,.09-.49,.09-.68,0-.34-.14-.65-.42-.92-.28-.27-.83-.4-1.65-.4h-1.36v-.75h8.38v.75h-.42c-1.22,0-2.12,.26-2.68,.78-.56,.52-1.04,1.31-1.41,2.38l-10.87,30.35h-.61l-5.32-16.09h-.09l-5.79,16.09h-.61l-11.67-33.5Zm20.05,9.18h.09l2.16-6.07c.16-.44,.27-.82,.33-1.13,.06-.31,.09-.58,.09-.8,0-.28-.1-.55-.31-.8-.2-.25-.73-.38-1.58-.38h-3.91l3.11,9.18Z"/><path class="cls-1" d="M1560.79,100.26l5.6-8.85c.25-.41,.42-.71,.52-.92,.09-.2,.14-.4,.14-.59,0-.41-.17-.71-.52-.92-.35-.2-1.08-.31-2.21-.31h-1.46v-.75h10.21v.75h-1.55c-1,0-1.79,.22-2.35,.66-.57,.44-1.18,1.18-1.84,2.21l-6.02,9.51,10.78,19.25h3.81v.75h-13.69v-.75h4.28l-8.19-14.73-6.92,10.82c-.41,.63-.72,1.12-.94,1.48-.22,.36-.38,.64-.49,.85-.11,.2-.17,.35-.19,.45-.02,.09-.02,.19-.02,.28,0,.56,.61,.85,1.84,.85h2.35v.75h-11.06v-.75h1.18c1.13,0,2.11-.12,2.94-.38,.83-.25,1.61-.93,2.33-2.02l8.52-13.18-9.18-16.05h-4.09v-.75h13.79v.75h-3.95l6.4,11.58Z"/><path class="cls-1" d="M1592.27,108.92l-8.8-20.23h-4.28v-.75h13.69v.75h-3.91l7.86,18.21,5.83-13.18c.44-.94,.75-1.69,.94-2.26,.19-.56,.28-1.07,.28-1.51,0-.41-.16-.72-.47-.94-.31-.22-.86-.33-1.65-.33h-1.79v-.75h9.65v.75h-1.98c-.91,0-1.55,.26-1.93,.78-.38,.52-.72,1.12-1.04,1.81l-7.62,16.89v12.14h4.99v.75h-14.78v-.75h4.99v-11.39Z"/><path class="cls-1" d="M1634.29,88.68h-7.58c-2.42,0-4.27,.22-5.58,.66-1.3,.44-2.27,1.04-2.89,1.79-.63,.75-1,1.64-1.11,2.66-.11,1.02-.16,2.11-.16,3.27h-.75v-9.13h24.05l-20.14,32.38h5.6c1.57,0,3.18-.05,4.85-.14,1.66-.09,3.18-.36,4.54-.8,1.36-.44,2.49-1.11,3.36-2.02,.88-.91,1.32-2.18,1.32-3.81v-1.88h.75v9.41h-26.3l20.05-32.38Z"/><path class="cls-1" d="M780.13,178.41c0,.44,.08,.89,.24,1.36,.16,.47,.55,.71,1.18,.71,.53,0,.99-.19,1.36-.56,.38-.38,.74-.82,1.08-1.32l.52,.38c-.44,.79-.99,1.4-1.65,1.86-.66,.45-1.49,.68-2.49,.68-1.1,0-2.02-.28-2.78-.85-.75-.56-1.21-1.25-1.36-2.07h-.09c-.82,1.07-1.76,1.82-2.85,2.26-1.08,.44-2.41,.66-3.98,.66-1.85,0-3.29-.44-4.33-1.32-1.04-.88-1.55-2.12-1.55-3.72,0-1.32,.39-2.4,1.18-3.25,.78-.85,1.76-1.52,2.94-2.02,1.18-.5,2.45-.85,3.84-1.04,1.38-.19,2.68-.28,3.91-.28h.89v-5.79c0-.56-.12-1.02-.35-1.36-.24-.34-.54-.62-.92-.82-.38-.2-.79-.34-1.25-.42-.46-.08-.9-.12-1.34-.12-.35,0-.78,.04-1.29,.12-.52,.08-1.02,.2-1.51,.35-.49,.16-.9,.38-1.25,.68-.35,.3-.52,.65-.52,1.06,0,.28,.08,.49,.24,.61,.16,.13,.34,.26,.54,.4,.2,.14,.38,.33,.54,.57,.16,.24,.24,.62,.24,1.15,0,.56-.2,1.04-.61,1.41-.41,.38-.93,.56-1.55,.56-.66,0-1.17-.24-1.53-.71-.36-.47-.54-1.11-.54-1.93,0-.6,.16-1.19,.47-1.79,.31-.59,.78-1.14,1.39-1.62,.61-.49,1.36-.88,2.26-1.18,.89-.3,1.94-.45,3.13-.45,.88,0,1.78,.12,2.71,.35,.93,.24,1.76,.58,2.52,1.04,.75,.46,1.37,1.02,1.86,1.69,.49,.67,.73,1.47,.73,2.38v12.33Zm-4.75-7.76c-.85,0-1.73,.03-2.64,.09-.91,.06-1.74,.26-2.49,.59-.75,.33-1.37,.84-1.86,1.53-.49,.69-.73,1.66-.73,2.92,0,.66,.04,1.27,.12,1.83,.08,.56,.24,1.05,.47,1.46,.24,.41,.58,.73,1.04,.96,.45,.24,1.06,.35,1.81,.35,.88,0,1.64-.14,2.28-.42,.64-.28,1.17-.62,1.58-1.01,.41-.39,.71-.78,.92-1.18,.2-.39,.31-.71,.31-.96v-6.17h-.8Z"/><path class="cls-1" d="M791.05,148.29h-3.25v-.75h3.25c.75,0,1.48-.06,2.19-.19,.71-.12,1.29-.45,1.76-.99v19.06h.09c.22-.57,.52-1.13,.89-1.69,.38-.56,.84-1.07,1.39-1.53,.55-.45,1.18-.83,1.88-1.13,.71-.3,1.48-.45,2.33-.45,1.41,0,2.69,.33,3.84,.99,1.15,.66,2.13,1.5,2.96,2.52,.83,1.02,1.47,2.14,1.91,3.36,.44,1.22,.66,2.42,.66,3.58,0,1.38-.23,2.7-.68,3.95-.45,1.25-1.11,2.37-1.95,3.34-.85,.97-1.87,1.74-3.06,2.31-1.19,.56-2.53,.85-4,.85-.85,0-1.62-.14-2.31-.42-.69-.28-1.29-.62-1.81-1.01-.52-.39-.95-.82-1.29-1.29-.35-.47-.6-.89-.75-1.27h-.09v3.44h-7.2v-.75h3.25v-31.9Zm3.95,25.83c0,1.13,.2,2.11,.59,2.94,.39,.83,.89,1.52,1.51,2.07,.61,.55,1.29,.96,2.02,1.22,.74,.27,1.45,.4,2.14,.4,1.16,0,2.08-.17,2.75-.52,.67-.34,1.19-.91,1.55-1.69,.36-.78,.6-1.79,.71-3.01,.11-1.22,.16-2.71,.16-4.47,0-1.6-.06-3.01-.16-4.24-.11-1.22-.35-2.24-.71-3.04-.36-.8-.86-1.4-1.48-1.81-.63-.41-1.46-.61-2.49-.61-.97,0-1.87,.22-2.68,.66-.82,.44-1.51,1-2.09,1.69-.58,.69-1.03,1.47-1.34,2.35-.31,.88-.47,1.74-.47,2.59v5.46Z"/><path class="cls-1" d="M835.52,174.31c-.03,.91-.24,1.79-.64,2.63-.39,.85-.93,1.62-1.62,2.31s-1.51,1.24-2.47,1.65c-.96,.41-2.02,.61-3.18,.61-1.51,0-2.88-.25-4.12-.75-1.24-.5-2.29-1.19-3.15-2.07-.86-.88-1.53-1.91-2-3.08-.47-1.18-.71-2.42-.71-3.74,0-1.54,.27-2.99,.82-4.35,.55-1.36,1.29-2.56,2.23-3.58,.94-1.02,2.03-1.83,3.27-2.42,1.24-.6,2.55-.89,3.93-.89,.82,0,1.63,.09,2.45,.28,.82,.19,1.54,.46,2.19,.82,.64,.36,1.16,.82,1.55,1.36,.39,.55,.59,1.18,.59,1.91s-.23,1.29-.68,1.72c-.45,.42-.98,.63-1.58,.63-.72,0-1.28-.21-1.67-.63-.39-.42-.59-.89-.59-1.39,0-.47,.06-.83,.19-1.08,.12-.25,.26-.45,.4-.61,.14-.16,.27-.28,.4-.38,.12-.09,.19-.24,.19-.42,0-.25-.12-.47-.35-.66-.24-.19-.53-.34-.89-.45-.36-.11-.75-.2-1.15-.26-.41-.06-.78-.09-1.13-.09-1.13,0-2.06,.18-2.8,.54-.74,.36-1.32,.86-1.74,1.51-.42,.64-.71,1.42-.87,2.33-.16,.91-.24,1.93-.24,3.06v4.09c0,1.04,.04,2.02,.12,2.96,.08,.94,.29,1.77,.64,2.49,.34,.72,.89,1.3,1.62,1.74,.74,.44,1.76,.66,3.08,.66,1.19,0,2.22-.2,3.08-.61,.86-.41,1.58-.92,2.16-1.55,.58-.63,1.02-1.32,1.32-2.07,.3-.75,.49-1.49,.59-2.21h.75Z"/><path class="cls-1" d="M857.59,177.51h-.09c-.19,.41-.46,.85-.82,1.32-.36,.47-.8,.9-1.32,1.29-.52,.39-1.11,.72-1.79,.99-.67,.27-1.42,.4-2.23,.4-1.48,0-2.81-.28-4-.85-1.19-.56-2.21-1.33-3.06-2.31-.85-.97-1.5-2.09-1.95-3.34-.46-1.25-.68-2.57-.68-3.95,0-1.16,.22-2.35,.66-3.58,.44-1.22,1.07-2.34,1.91-3.36,.83-1.02,1.82-1.86,2.96-2.52,1.14-.66,2.42-.99,3.84-.99,.85,0,1.62,.15,2.33,.45,.71,.3,1.33,.68,1.88,1.13,.55,.46,1.01,.96,1.39,1.53,.38,.56,.67,1.13,.89,1.69h.09v-17.13h-3.76v-.75h3.76c.75,0,1.48-.06,2.19-.19,.71-.12,1.29-.45,1.76-.99v33.83h3.25v.75h-7.2v-3.44Zm0-8.85c0-.85-.16-1.71-.47-2.59-.31-.88-.76-1.66-1.34-2.35-.58-.69-1.28-1.25-2.09-1.69-.82-.44-1.71-.66-2.68-.66-1.04,0-1.87,.2-2.49,.61-.63,.41-1.12,1.01-1.48,1.81-.36,.8-.6,1.81-.71,3.04-.11,1.22-.16,2.64-.16,4.24,0,1.76,.05,3.25,.16,4.47,.11,1.22,.34,2.23,.71,3.01,.36,.78,.88,1.35,1.55,1.69,.67,.35,1.59,.52,2.75,.52,.78,0,1.56-.16,2.33-.47,.77-.31,1.44-.76,2.02-1.34,.58-.58,1.04-1.28,1.39-2.09,.34-.82,.52-1.71,.52-2.68v-5.51Z"/><path class="cls-1" d="M873.91,173.65c0,.85,.04,1.69,.12,2.52,.08,.83,.28,1.59,.61,2.28,.33,.69,.82,1.25,1.48,1.67,.66,.42,1.54,.63,2.64,.63,.97,0,1.88-.16,2.73-.47,.85-.31,1.6-.75,2.26-1.32,.66-.56,1.21-1.25,1.65-2.05,.44-.8,.74-1.69,.89-2.66h.75c-.38,2.16-1.31,3.91-2.8,5.25-1.49,1.33-3.32,2-5.48,2-1.38,0-2.64-.25-3.79-.75-1.15-.5-2.13-1.21-2.96-2.14-.83-.92-1.48-2.02-1.93-3.29-.46-1.27-.68-2.69-.68-4.26,0-1.13,.22-2.31,.66-3.55,.44-1.24,1.04-2.37,1.81-3.39,.77-1.02,1.69-1.86,2.78-2.52,1.08-.66,2.27-.99,3.55-.99,1.38,0,2.6,.34,3.65,1.01,1.05,.67,1.93,1.46,2.63,2.35,.71,.89,1.24,1.8,1.6,2.71,.36,.91,.54,1.62,.54,2.12,0,.28-.14,.42-.42,.42h-12.28v4.42Zm8.19-6.49c0-.75-.06-1.47-.17-2.16-.11-.69-.31-1.31-.61-1.86-.3-.55-.7-.98-1.2-1.29-.5-.31-1.15-.47-1.93-.47s-1.5,.16-2.05,.47c-.55,.31-.99,.75-1.32,1.29s-.56,1.17-.71,1.86c-.14,.69-.21,1.41-.21,2.16v1.32h7.86c.22,0,.33-.11,.33-.33v-.99Z"/><path class="cls-1" d="M896.12,162.41h-4.24v-.75h4.24v-3.25c0-1.47,.16-2.93,.49-4.38,.33-1.44,.81-2.73,1.44-3.86,.63-1.13,1.4-2.05,2.31-2.75,.91-.71,1.96-1.06,3.15-1.06,.72,0,1.35,.13,1.88,.38,.53,.25,.97,.57,1.32,.96,.35,.39,.6,.85,.78,1.36,.17,.52,.26,1.04,.26,1.58,0,.56-.2,1.08-.59,1.53-.39,.46-.95,.68-1.67,.68s-1.23-.2-1.53-.61c-.3-.41-.45-.83-.45-1.27,0-.53,.13-.93,.4-1.18,.27-.25,.56-.44,.87-.56,.31-.12,.6-.24,.87-.33,.27-.09,.4-.27,.4-.52,0-.34-.24-.64-.71-.89-.47-.25-1.02-.38-1.65-.38-.56,0-1.08,.09-1.53,.28-.46,.19-.83,.53-1.13,1.01-.3,.49-.53,1.15-.71,1.98-.17,.83-.26,1.91-.26,3.22v8.05h5.36v.75h-5.36v17.79h4.28v.75h-12.47v-.75h4.24v-17.79Z"/><path class="cls-1" d="M925.02,178.78c.66,0,1.3,.08,1.93,.24,.63,.16,1.18,.44,1.67,.85,.49,.41,.88,.96,1.18,1.67,.3,.71,.45,1.59,.45,2.66,0,1.6-.3,3.02-.89,4.26-.6,1.24-1.4,2.27-2.4,3.11-1,.83-2.16,1.47-3.48,1.91-1.32,.44-2.68,.66-4.09,.66-1.1,0-2.18-.1-3.25-.31-1.07-.2-2.04-.55-2.92-1.04-.88-.49-1.58-1.11-2.12-1.88-.53-.77-.8-1.72-.8-2.85,0-.66,.15-1.27,.45-1.84,.3-.56,.68-1.08,1.15-1.55s.98-.89,1.53-1.25c.55-.36,1.07-.65,1.58-.87v-.09c-1.32,0-2.28-.4-2.89-1.2-.61-.8-.92-1.86-.92-3.18,0-1.66,.39-2.85,1.18-3.55,.78-.71,1.93-1.07,3.44-1.11v-.09c-1.07-.69-1.92-1.44-2.57-2.24-.64-.8-.96-1.84-.96-3.13,0-1.04,.21-2,.64-2.89,.42-.89,.99-1.67,1.69-2.33,.71-.66,1.54-1.18,2.49-1.55,.96-.38,1.95-.56,2.99-.56,1.1,0,2.12,.16,3.08,.49,.96,.33,1.76,.84,2.42,1.53,.44-.47,.95-.92,1.53-1.37,.58-.44,1.28-.66,2.09-.66,.69,0,1.26,.18,1.72,.54,.45,.36,.68,.89,.68,1.58,0,.56-.19,.98-.56,1.25-.38,.27-.82,.4-1.32,.4-.44,0-.8-.16-1.08-.47-.28-.31-.42-.64-.42-.99,0-.5,.05-.85,.14-1.04,.09-.19,.22-.36,.38-.52-.47,.03-.96,.22-1.46,.56-.5,.35-.91,.74-1.22,1.18,.53,.56,.97,1.26,1.32,2.09,.34,.83,.52,1.7,.52,2.61,0,.97-.24,1.88-.71,2.73-.47,.85-1.08,1.58-1.84,2.19-.75,.61-1.59,1.1-2.52,1.46-.93,.36-1.84,.54-2.75,.54-1,0-1.78-.11-2.33-.33-.55-.22-.95-.39-1.2-.52-1.29,.03-2.38,.26-3.27,.68-.89,.42-1.34,1.18-1.34,2.28,0,.6,.2,1.07,.61,1.41,.41,.35,.89,.52,1.46,.52h11.01Zm-8.19,3.67c-1.41,.31-2.48,.89-3.2,1.74-.72,.85-1.08,2.07-1.08,3.67,0,1,.2,1.85,.59,2.54,.39,.69,.92,1.25,1.58,1.69,.66,.44,1.41,.76,2.26,.96,.85,.2,1.73,.31,2.64,.31,1.19,0,2.36-.18,3.51-.54,1.14-.36,2.16-.89,3.06-1.58,.89-.69,1.61-1.51,2.14-2.45,.53-.94,.8-2.01,.8-3.2s-.43-2.05-1.29-2.49c-.86-.44-1.91-.66-3.13-.66h-7.86Zm-.61-14.78c0,.75,.02,1.51,.07,2.26,.05,.75,.19,1.43,.42,2.02,.24,.6,.61,1.08,1.13,1.46,.52,.38,1.26,.56,2.24,.56s1.72-.17,2.23-.52c.52-.34,.89-.81,1.13-1.39,.24-.58,.38-1.25,.42-2,.05-.75,.07-1.55,.07-2.4,0-.94-.02-1.8-.07-2.57-.05-.77-.19-1.43-.42-2-.24-.57-.61-1-1.13-1.29-.52-.3-1.26-.45-2.23-.45s-1.72,.21-2.24,.63c-.52,.42-.89,.95-1.13,1.58-.24,.63-.38,1.31-.42,2.05-.05,.74-.07,1.42-.07,2.05Z"/><path class="cls-1" d="M939.09,148.29h-3.72v-.75h3.72c.75,0,1.48-.06,2.19-.19,.71-.12,1.29-.45,1.76-.99v19.06h.09c.31-.57,.69-1.13,1.13-1.69,.44-.56,.96-1.08,1.55-1.55,.6-.47,1.25-.85,1.98-1.13,.72-.28,1.51-.42,2.35-.42,1.25,0,2.3,.15,3.13,.45,.83,.3,1.49,.69,1.98,1.18,.49,.49,.83,1.05,1.04,1.69,.2,.64,.31,1.31,.31,2v14.26h3.72v.75h-11.39v-.75h3.72v-15.39c0-1.32-.27-2.22-.82-2.71-.55-.49-1.2-.73-1.95-.73-1,0-1.88,.21-2.63,.63-.75,.42-1.4,.93-1.95,1.53-.55,.6-1,1.21-1.36,1.84-.36,.63-.65,1.15-.87,1.55v13.27h3.58v.75h-11.25v-.75h3.72v-31.9Z"/><path class="cls-1" d="M967.84,162.41h-3.76v-.75h3.76c.75,0,1.48-.05,2.19-.17,.71-.11,1.29-.4,1.76-.87v19.58h3.76v.75h-11.48v-.75h3.76v-17.79Zm-.42-10.26c0-.66,.24-1.22,.71-1.69,.47-.47,1.04-.71,1.69-.71s1.22,.24,1.69,.71c.47,.47,.71,1.04,.71,1.69s-.24,1.22-.71,1.69-1.04,.71-1.69,.71-1.22-.24-1.69-.71c-.47-.47-.71-1.04-.71-1.69Z"/><path class="cls-1" d="M983.27,162.41h-4.42v-.75h4.42c.75,0,1.48-.05,2.19-.17,.71-.11,1.29-.4,1.76-.87v25.83c0,.88-.19,1.77-.56,2.68-.38,.91-.86,1.73-1.44,2.47-.58,.74-1.25,1.34-2,1.81s-1.51,.71-2.26,.71-1.29-.2-1.62-.59c-.33-.39-.49-.81-.49-1.25,0-.47,.16-.89,.47-1.27,.31-.38,.77-.56,1.36-.56,.63,0,1.09,.17,1.39,.52,.3,.34,.45,.74,.45,1.18,0,.22-.02,.39-.05,.52-.03,.12-.08,.24-.14,.33,.53,0,.94-.21,1.22-.61,.28-.41,.42-.86,.42-1.36,0-.44-.04-.83-.12-1.18-.08-.35-.16-.71-.24-1.08-.08-.38-.16-.8-.24-1.27-.08-.47-.12-1.05-.12-1.74v-23.34Zm-.42-10.26c0-.66,.24-1.22,.71-1.69,.47-.47,1.04-.71,1.69-.71s1.22,.24,1.69,.71c.47,.47,.71,1.04,.71,1.69s-.24,1.22-.71,1.69-1.04,.71-1.69,.71-1.22-.24-1.69-.71c-.47-.47-.71-1.04-.71-1.69Z"/><path class="cls-1" d="M998.47,148.29h-3.72v-.75h3.72c.75,0,1.48-.06,2.19-.19,.71-.12,1.29-.45,1.76-.99v26.21l7.53-7.25c1.1-1.04,1.65-1.76,1.65-2.16,0-.5-.71-.75-2.12-.75h-1.6v-.75h9.93v.75h-1.65c-.41,0-.77,.03-1.08,.09-.31,.06-.61,.17-.89,.31-.28,.14-.58,.33-.89,.57-.31,.23-.67,.54-1.08,.92l-5.22,4.94,7.39,9.18c.53,.63,.94,1.08,1.22,1.36,.28,.28,.64,.42,1.08,.42h2.4v.75h-11.81v-.75h3.39l-6.59-8.14-1.65,1.55v6.59h3.29v.75h-10.96v-.75h3.72v-31.9Z"/><path class="cls-1" d="M1027.22,148.29h-3.76v-.75h3.76c.75,0,1.48-.06,2.19-.19,.71-.12,1.29-.45,1.76-.99v33.83h3.76v.75h-11.48v-.75h3.76v-31.9Z"/><path class="cls-1" d="M1038.7,180.2h3.72v-17.79h-3.72v-.75h3.72c.56,0,1.05,0,1.46-.02,.41-.02,.76-.05,1.06-.12,.3-.06,.56-.16,.78-.31,.22-.14,.44-.34,.66-.59v4.61h.09c.31-.56,.68-1.13,1.11-1.69,.42-.56,.9-1.06,1.44-1.48,.53-.42,1.15-.77,1.86-1.04,.71-.27,1.5-.4,2.38-.4,.75,0,1.49,.06,2.21,.19,.72,.13,1.38,.38,1.98,.75,.6,.38,1.1,.89,1.51,1.55,.41,.66,.66,1.5,.75,2.54h.09c.22-.66,.54-1.29,.96-1.91s.92-1.15,1.48-1.62c.56-.47,1.22-.84,1.95-1.11,.74-.27,1.54-.4,2.42-.4,1.19,0,2.2,.16,3.01,.49,.82,.33,1.47,.76,1.98,1.29,.5,.53,.86,1.14,1.08,1.81,.22,.67,.33,1.39,.33,2.14v13.83h3.72v.75h-11.39v-.75h3.72v-14.68c0-.85-.09-1.54-.26-2.07-.17-.53-.41-.96-.71-1.27-.3-.31-.65-.53-1.06-.64-.41-.11-.83-.16-1.27-.16-.69,0-1.35,.17-1.98,.52-.63,.35-1.21,.81-1.74,1.39-.53,.58-1,1.25-1.41,2-.41,.75-.72,1.54-.94,2.35v12.56h3.58v.75h-11.25v-.75h3.72v-15.58c0-1.19-.27-2.03-.82-2.52-.55-.49-1.29-.73-2.24-.73-1.41,0-2.64,.5-3.69,1.51-1.05,1-1.92,2.35-2.61,4.05v13.27h3.58v.75h-11.25v-.75Z"/><path class="cls-1" d="M1084.02,162.41h-3.72v-.75h3.72c.56,0,1.05,0,1.46-.02,.41-.02,.76-.05,1.06-.12,.3-.06,.56-.16,.78-.31,.22-.14,.44-.34,.66-.59v4.8h.09c.31-.57,.69-1.13,1.13-1.69,.44-.56,.96-1.08,1.55-1.55,.6-.47,1.25-.85,1.98-1.13,.72-.28,1.51-.42,2.35-.42,1.25,0,2.3,.15,3.13,.45,.83,.3,1.49,.69,1.98,1.18,.49,.49,.83,1.05,1.04,1.69,.2,.64,.31,1.31,.31,2v14.26h3.72v.75h-11.39v-.75h3.72v-15.39c0-1.32-.27-2.22-.82-2.71-.55-.49-1.2-.73-1.95-.73-1,0-1.88,.21-2.63,.63-.75,.42-1.4,.93-1.95,1.53-.55,.6-1,1.21-1.36,1.84-.36,.63-.65,1.15-.87,1.55v13.27h3.58v.75h-11.25v-.75h3.72v-17.79Z"/><path class="cls-1" d="M1110,171.07c0-1.35,.24-2.65,.71-3.91,.47-1.25,1.14-2.37,2-3.34,.86-.97,1.91-1.75,3.15-2.33,1.24-.58,2.61-.87,4.12-.87s2.88,.29,4.12,.87c1.24,.58,2.29,1.36,3.15,2.33,.86,.97,1.53,2.09,2,3.34,.47,1.25,.71,2.56,.71,3.91s-.24,2.65-.71,3.91c-.47,1.26-1.14,2.37-2,3.34-.86,.97-1.91,1.75-3.15,2.33-1.24,.58-2.61,.87-4.12,.87s-2.88-.29-4.12-.87c-1.24-.58-2.29-1.36-3.15-2.33-.86-.97-1.53-2.09-2-3.34-.47-1.25-.71-2.56-.71-3.91Zm15.43-1.83c0-1.04-.04-2.02-.12-2.96-.08-.94-.29-1.77-.64-2.49-.35-.72-.89-1.3-1.62-1.74-.74-.44-1.76-.66-3.08-.66s-2.35,.22-3.08,.66c-.74,.44-1.28,1.02-1.62,1.74-.35,.72-.56,1.55-.64,2.49-.08,.94-.12,1.93-.12,2.96v3.67c0,1.04,.04,2.02,.12,2.96,.08,.94,.29,1.77,.64,2.49,.34,.72,.89,1.3,1.62,1.74,.74,.44,1.76,.66,3.08,.66s2.34-.22,3.08-.66c.74-.44,1.28-1.02,1.62-1.74,.34-.72,.56-1.55,.64-2.49,.08-.94,.12-1.93,.12-2.96v-3.67Z"/><path class="cls-1" d="M1137.81,162.41h-3.25v-.75h3.25c.75,0,1.48-.05,2.19-.17,.71-.11,1.29-.4,1.76-.87v4.8h.09c.22-.57,.52-1.13,.89-1.69,.38-.56,.84-1.07,1.39-1.53,.55-.45,1.18-.83,1.88-1.13,.71-.3,1.48-.45,2.33-.45,1.41,0,2.69,.33,3.84,.99,1.14,.66,2.13,1.5,2.96,2.52,.83,1.02,1.47,2.14,1.91,3.36,.44,1.22,.66,2.42,.66,3.58,0,1.38-.23,2.7-.68,3.95-.45,1.25-1.11,2.37-1.95,3.34-.85,.97-1.87,1.74-3.06,2.31-1.19,.56-2.53,.85-4,.85-.82,0-1.56-.13-2.24-.4-.67-.27-1.27-.6-1.79-.99-.52-.39-.96-.82-1.32-1.29-.36-.47-.64-.91-.82-1.32h-.09v15.39h3.62v.75h-10.82v-.75h3.25v-30.49Zm3.95,11.76c0,.91,.16,1.76,.49,2.56,.33,.8,.78,1.5,1.34,2.09,.56,.6,1.23,1.07,2,1.41,.77,.35,1.58,.52,2.42,.52,1.16,0,2.08-.17,2.75-.52,.67-.34,1.19-.91,1.55-1.69,.36-.78,.6-1.79,.71-3.01,.11-1.22,.16-2.71,.16-4.47,0-1.6-.06-3.01-.16-4.24-.11-1.22-.35-2.24-.71-3.04-.36-.8-.85-1.4-1.48-1.81-.63-.41-1.46-.61-2.49-.61-.97,0-1.87,.22-2.68,.66-.82,.44-1.51,1-2.09,1.69-.58,.69-1.03,1.47-1.34,2.35-.31,.88-.47,1.74-.47,2.59v5.51Z"/><path class="cls-1" d="M1181.1,177.51h-.09c-.19,.41-.46,.85-.82,1.32-.36,.47-.8,.9-1.32,1.29-.52,.39-1.12,.72-1.81,.99-.69,.27-1.43,.4-2.21,.4-1.48,0-2.81-.28-4-.85-1.19-.56-2.21-1.33-3.06-2.31-.85-.97-1.5-2.09-1.95-3.34-.46-1.25-.68-2.57-.68-3.95,0-1.16,.22-2.35,.66-3.58,.44-1.22,1.07-2.34,1.91-3.36,.83-1.02,1.82-1.86,2.96-2.52,1.14-.66,2.42-.99,3.84-.99,.85,0,1.62,.15,2.33,.45,.71,.3,1.33,.68,1.88,1.13,.55,.46,1.01,.96,1.39,1.53,.38,.56,.67,1.13,.89,1.69h.09v-4.8c.47,.47,1.06,.76,1.76,.87,.71,.11,1.44,.17,2.19,.17h3.25v.75h-3.25v30.49h3.25v.75h-10.82v-.75h3.62v-15.39Zm-11.48-6.45c0,1.76,.05,3.25,.17,4.47,.11,1.22,.34,2.23,.71,3.01,.36,.78,.88,1.35,1.55,1.69,.67,.35,1.59,.52,2.75,.52,.78,0,1.55-.16,2.31-.47,.75-.31,1.43-.76,2.02-1.34,.6-.58,1.07-1.28,1.41-2.09,.34-.82,.52-1.71,.52-2.68v-5.51c0-.85-.16-1.71-.47-2.59-.31-.88-.76-1.66-1.34-2.35-.58-.69-1.28-1.25-2.09-1.69-.82-.44-1.71-.66-2.68-.66-1.04,0-1.87,.2-2.49,.61-.63,.41-1.12,1.01-1.48,1.81-.36,.8-.6,1.81-.71,3.04-.11,1.22-.17,2.64-.17,4.24Z"/><path class="cls-1" d="M1195.69,162.41h-3.95v-.75h3.95c.75,0,1.48-.05,2.19-.17,.71-.11,1.29-.4,1.76-.87v5.55h.09c.12-.53,.34-1.12,.64-1.76,.3-.64,.69-1.25,1.18-1.81,.49-.56,1.07-1.04,1.76-1.41,.69-.38,1.52-.56,2.49-.56,.88,0,1.62,.26,2.21,.78,.6,.52,.89,1.18,.89,2,0,.63-.18,1.15-.54,1.58-.36,.42-.9,.63-1.62,.63-.78,0-1.33-.19-1.62-.56-.3-.38-.45-.88-.45-1.51,0-.53,.11-.96,.33-1.29,.22-.33,.45-.57,.71-.73-.13-.09-.35-.14-.66-.14-.47,0-1.02,.19-1.65,.56-.63,.38-1.22,.95-1.79,1.72-.56,.77-1.04,1.73-1.41,2.87-.38,1.15-.56,2.49-.56,4.02v9.65h4.28v.75h-12.19v-.75h3.95v-17.79Z"/><path class="cls-1" d="M1214.08,174.12h.61c.09,.6,.26,1.28,.49,2.05,.24,.77,.6,1.49,1.08,2.16,.49,.67,1.13,1.25,1.93,1.72,.8,.47,1.81,.71,3.04,.71,1.32,0,2.41-.39,3.27-1.18,.86-.78,1.29-1.85,1.29-3.2,0-.94-.16-1.66-.47-2.17-.31-.5-.73-.89-1.25-1.15s-1.09-.44-1.72-.52c-.63-.08-1.26-.15-1.88-.21-.75-.09-1.49-.21-2.21-.35-.72-.14-1.36-.4-1.93-.78-.56-.38-1.02-.92-1.36-1.62-.35-.71-.52-1.67-.52-2.89,0-.85,.13-1.64,.4-2.38,.27-.74,.65-1.38,1.15-1.93,.5-.55,1.12-.98,1.86-1.29,.74-.31,1.56-.47,2.47-.47,.63,0,1.21,.09,1.74,.26,.53,.17,1,.36,1.41,.56,.41,.2,.74,.39,1.01,.56,.27,.17,.46,.26,.59,.26,.22,0,.33-.33,.33-.99v-.38h.66l.19,5.6h-.61c-.09-.66-.25-1.3-.47-1.93-.22-.63-.55-1.18-.99-1.65-.44-.47-.98-.85-1.62-1.13-.64-.28-1.44-.42-2.38-.42-1.19,0-2.21,.32-3.06,.96-.85,.64-1.27,1.58-1.27,2.8s.43,2.09,1.29,2.59c.86,.5,2.08,.8,3.65,.89l1.6,.09c1.91,.12,3.29,.67,4.12,1.65,.83,.97,1.25,2.28,1.25,3.91,0,1.1-.17,2.09-.52,2.99-.35,.89-.81,1.66-1.39,2.28-.58,.63-1.27,1.11-2.07,1.46s-1.66,.52-2.56,.52-1.73-.1-2.35-.31c-.63-.2-1.15-.44-1.58-.71-.42-.27-.78-.5-1.08-.71-.3-.2-.56-.31-.78-.31-.31,0-.47,.17-.47,.52,0,.31-.03,.72-.09,1.22h-.71l-.09-7.11Z"/><path class="cls-1" d="M1237,162.41h-4.09v-.75c1.22,.03,2.27-.08,3.13-.33,.86-.25,1.58-.65,2.16-1.2,.58-.55,1.04-1.24,1.39-2.07,.34-.83,.61-1.83,.8-2.99h.56v6.59h6.49v.75h-6.49v15.81c0,.97,.2,1.64,.59,2,.39,.36,.96,.54,1.72,.54,.6,0,1.11-.12,1.53-.35,.42-.24,.78-.51,1.08-.82,.3-.31,.53-.64,.71-.99,.17-.34,.29-.61,.35-.8l.71,.14c-.09,.28-.25,.63-.47,1.04-.22,.41-.53,.8-.94,1.18-.41,.38-.92,.7-1.53,.96-.61,.27-1.36,.4-2.24,.4-1.66,0-2.99-.31-3.98-.92-.99-.61-1.48-1.7-1.48-3.27v-14.92Z"/><path class="cls-1" d="M1255.02,162.41h-3.76v-.75h3.76c.75,0,1.48-.05,2.19-.17,.71-.11,1.29-.4,1.76-.87v16.85c0,1,.26,1.8,.78,2.4,.52,.6,1.23,.89,2.14,.89,.82,0,1.6-.21,2.35-.63,.75-.42,1.41-.97,1.98-1.65,.56-.67,1.02-1.44,1.36-2.31,.35-.86,.52-1.73,.52-2.61v-11.15h-3.72v-.75h3.72c.75,0,1.48-.05,2.19-.17,.71-.11,1.29-.4,1.76-.87v19.58h3.76v.75h-7.72v-4.28h-.09c-.09,.28-.3,.69-.61,1.22-.31,.53-.74,1.07-1.27,1.6-.53,.53-1.19,1-1.98,1.41-.78,.41-1.69,.61-2.73,.61-1.19,0-2.19-.14-2.99-.42-.8-.28-1.46-.67-1.98-1.15-.52-.49-.89-1.04-1.11-1.67-.22-.63-.33-1.29-.33-1.98v-13.88Z"/><path class="cls-1" d="M1281.94,162.41h-2.73v-.75h10.78v.75h-3.48l5.93,14.3,4.61-10.49c.53-1.22,.8-2.09,.8-2.59,0-.53-.25-.87-.75-1.01-.5-.14-.96-.21-1.36-.21h-1.65v-.75h8.19v.75c-.53,0-.98,.02-1.34,.07-.36,.05-.68,.15-.94,.31-.27,.16-.51,.39-.73,.71-.22,.31-.46,.75-.71,1.32l-7.67,17.27h-.38l-8.56-19.67Z"/><path class="cls-1" d="M1307.63,162.41h-2.54v-.75h21.13v.75h-3.76l6.21,14.45,4.47-10.31c.28-.63,.48-1.15,.59-1.58,.11-.42,.16-.81,.16-1.15,0-.44-.16-.78-.49-1.04-.33-.25-.9-.38-1.72-.38h-1.27v-.75h8.19v.75c-.72,0-1.32,.08-1.79,.24-.47,.16-.86,.39-1.18,.71-.31,.31-.59,.71-.82,1.18-.24,.47-.48,1-.73,1.6l-6.92,15.95h-.33l-5.22-11.72-4.99,11.72h-.33l-8.66-19.67Zm10.59,14.12l3.01-7.06-3.11-7.06h-5.88l5.98,14.12Z"/><path class="cls-1" d="M1354.12,168.38l2.31-3.06c.28-.38,.55-.77,.8-1.18,.25-.41,.38-.71,.38-.89,0-.56-.69-.85-2.07-.85h-.99v-.75h8.71v.75h-1.41c-.91,0-1.63,.16-2.16,.49-.53,.33-1.11,.9-1.74,1.72l-3.44,4.38,6.87,11.2h3.11v.75h-11.53v-.75h3.67l-4.71-7.67-3.43,4.52c-.75,1-1.13,1.8-1.13,2.4,0,.22,.08,.4,.24,.54,.16,.14,.45,.21,.89,.21h2.12v.75h-9.18v-.75h1.18c.6,0,1.11-.06,1.53-.19,.42-.12,.82-.32,1.2-.59,.38-.27,.75-.61,1.13-1.04,.38-.42,.8-.95,1.27-1.58l3.81-4.94-5.74-9.46h-3.39v-.75h10.92v.75h-2.82l3.62,5.98Z"/><path class="cls-1" d="M1380.62,177.14l4.42-11.25c.19-.5,.34-.93,.45-1.29,.11-.36,.16-.68,.16-.96,0-.47-.21-.79-.64-.96-.42-.17-1.12-.26-2.09-.26h-1.93v-.75h9.18v.75c-.75,0-1.35,.05-1.79,.14-.44,.09-.8,.26-1.08,.49-.28,.24-.52,.56-.71,.99-.19,.42-.42,.96-.71,1.62l-4.19,10.54c-.35,.82-.67,1.62-.96,2.4-.3,.78-.56,1.49-.8,2.12-.24,.63-.44,1.17-.61,1.62-.17,.46-.27,.78-.31,.96-.47,1.85-.89,3.43-1.25,4.73-.36,1.3-.75,2.37-1.18,3.2-.42,.83-.92,1.44-1.48,1.83-.56,.39-1.26,.59-2.07,.59-.75,0-1.37-.21-1.86-.63-.49-.42-.73-1.03-.73-1.81,0-.66,.2-1.2,.61-1.62,.41-.42,.96-.63,1.65-.63,.6,0,1.07,.19,1.44,.56,.36,.38,.54,.78,.54,1.22,0,.16,0,.29-.02,.4-.02,.11-.02,.23-.02,.35,0,.31,.12,.47,.38,.47,.41,0,.81-.42,1.2-1.27,.39-.85,.75-1.82,1.06-2.92,.31-1.1,.58-2.17,.8-3.2,.22-1.04,.38-1.74,.47-2.12l-8.71-20.05h-2.54v-.75h10.49v.75h-3.39l6.21,14.73Z"/><path class="cls-1" d="M1407.25,162.41h-4.47c-1.38,0-2.49,.16-3.34,.47-.85,.31-1.51,.75-1.98,1.32-.47,.56-.78,1.25-.94,2.05-.16,.8-.24,1.69-.24,2.66h-.75v-7.25h17.08l-13.41,18.54h4.61c1.25,0,2.31-.09,3.18-.28,.86-.19,1.56-.53,2.09-1.01,.53-.49,.92-1.13,1.15-1.93,.24-.8,.35-1.81,.35-3.04h.75v7.01h-17.6l13.51-18.54Z"/><path class="cls-1" d="M763.94,224.41c0-2.23,.21-4.36,.64-6.4,.42-2.04,1.07-3.84,1.93-5.41,.86-1.57,1.96-2.82,3.29-3.76,1.33-.94,2.91-1.41,4.73-1.41s3.39,.47,4.71,1.41c1.32,.94,2.42,2.2,3.29,3.76,.88,1.57,1.53,3.37,1.95,5.41,.42,2.04,.64,4.17,.64,6.4s-.21,4.36-.64,6.4c-.42,2.04-1.07,3.84-1.95,5.41-.88,1.57-1.98,2.82-3.29,3.76-1.32,.94-2.89,1.41-4.71,1.41s-3.4-.47-4.73-1.41c-1.33-.94-2.43-2.2-3.29-3.76-.86-1.57-1.51-3.37-1.93-5.41-.42-2.04-.64-4.17-.64-6.4Zm4.52,0v2.92c0,1.1,.04,2.25,.12,3.46,.08,1.21,.23,2.4,.45,3.58,.22,1.18,.56,2.23,1.01,3.15,.45,.93,1.04,1.68,1.76,2.26,.72,.58,1.63,.87,2.73,.87s2.01-.29,2.73-.87c.72-.58,1.31-1.33,1.76-2.26,.45-.92,.79-1.98,1.01-3.15,.22-1.18,.37-2.37,.45-3.58,.08-1.21,.12-2.36,.12-3.46v-5.79c0-1.13-.04-2.3-.12-3.51-.08-1.21-.23-2.4-.45-3.58-.22-1.18-.56-2.23-1.01-3.15-.45-.92-1.04-1.68-1.76-2.26-.72-.58-1.63-.87-2.73-.87s-2.01,.29-2.73,.87c-.72,.58-1.31,1.33-1.76,2.26-.45,.93-.79,1.98-1.01,3.15-.22,1.18-.37,2.37-.45,3.58-.08,1.21-.12,2.38-.12,3.51v2.87Z"/><path class="cls-1" d="M802.01,214.11c0-.34-.02-.62-.07-.82-.05-.2-.2-.31-.45-.31-.19,0-.55,.11-1.08,.33-.53,.22-1.16,.51-1.88,.87-.72,.36-1.48,.75-2.28,1.15-.8,.41-1.55,.8-2.24,1.18v-.8c.78-.44,1.63-.93,2.54-1.48,.91-.55,1.84-1.15,2.78-1.81,.94-.66,1.87-1.36,2.78-2.09,.91-.74,1.74-1.51,2.49-2.33h1.93v32.09h4.33v.75h-13.27v-.75h4.42v-25.98Z"/><path class="cls-1" d="M840.88,240.84h-20.56c.5-1.47,1.25-2.82,2.26-4.02,1-1.21,2.11-2.37,3.32-3.48,1.21-1.11,2.44-2.23,3.69-3.36,1.25-1.13,2.39-2.34,3.41-3.65,1.02-1.3,1.86-2.75,2.52-4.33,.66-1.58,.99-3.41,.99-5.48,0-1.13-.14-2.2-.42-3.2-.28-1-.71-1.89-1.27-2.66-.56-.77-1.29-1.37-2.16-1.81-.88-.44-1.9-.66-3.06-.66-.82,0-1.65,.14-2.49,.42-.85,.28-1.62,.68-2.33,1.2-.71,.52-1.28,1.15-1.72,1.91-.44,.75-.66,1.6-.66,2.54,0,.56,.12,.93,.38,1.08,.25,.16,.64,.24,1.18,.24,.63,0,1.18,.17,1.65,.49s.71,.87,.71,1.62c.03,.44-.03,.82-.19,1.13-.16,.31-.36,.56-.61,.75-.25,.19-.53,.33-.82,.42-.3,.09-.59,.12-.87,.09-.44,0-.83-.12-1.18-.38-.35-.25-.65-.56-.92-.94-.27-.38-.46-.81-.59-1.29-.13-.49-.17-.96-.14-1.44,0-1.51,.27-2.8,.8-3.88,.53-1.08,1.25-1.98,2.16-2.68,.91-.71,1.95-1.22,3.13-1.55,1.18-.33,2.42-.49,3.74-.49s2.69,.21,3.93,.63c1.24,.42,2.32,1.04,3.25,1.86,.92,.82,1.66,1.82,2.21,3.01,.55,1.19,.82,2.56,.82,4.09,0,1.38-.25,2.61-.75,3.69-.5,1.08-1.18,2.09-2.02,3.04-.85,.94-1.84,1.87-2.99,2.78-1.15,.91-2.36,1.87-3.65,2.87-1.29,1-2.61,2.11-3.98,3.32-1.36,1.21-2.69,2.6-3.98,4.16h16.85l.71-5.13h.8l-1.13,9.08Z"/><path class="cls-1" d="M852.46,221.97h3.48c1.32,0,2.49-.06,3.51-.19,1.02-.12,1.88-.44,2.59-.94,.71-.5,1.25-1.25,1.62-2.24,.38-.99,.56-2.34,.56-4.07,0-1.98-.45-3.53-1.34-4.66-.89-1.13-2.39-1.69-4.49-1.69-.91,0-1.74,.13-2.49,.38-.75,.25-1.4,.56-1.95,.92-.55,.36-.98,.73-1.29,1.11-.31,.38-.47,.71-.47,.99,0,.22,.05,.33,.14,.33,.06,0,.16-.02,.28-.05,.12-.03,.28-.05,.47-.05,.63,0,1.15,.17,1.58,.52,.42,.35,.64,.93,.64,1.74,0,.66-.23,1.15-.68,1.48-.46,.33-.92,.49-1.39,.49-.82,0-1.43-.28-1.84-.85-.41-.57-.61-1.15-.61-1.74,0-1.07,.25-1.98,.75-2.73,.5-.75,1.15-1.37,1.95-1.86,.8-.49,1.69-.85,2.66-1.08,.97-.24,1.91-.35,2.82-.35,1.19,0,2.35,.15,3.48,.45,1.13,.3,2.14,.74,3.04,1.32,.89,.58,1.62,1.32,2.16,2.21,.55,.89,.82,1.94,.82,3.13,0,1.47-.3,2.67-.89,3.6-.6,.93-1.32,1.67-2.16,2.24-.85,.56-1.74,.99-2.68,1.27-.94,.28-1.76,.49-2.45,.61v.09c.82,.06,1.78,.25,2.89,.56,1.11,.31,2.16,.82,3.15,1.51,.99,.69,1.83,1.62,2.52,2.78,.69,1.16,1.04,2.62,1.04,4.38,0,1.63-.4,3.06-1.2,4.28-.8,1.22-1.8,2.25-3.01,3.08-1.21,.83-2.53,1.45-3.98,1.86-1.44,.41-2.81,.61-4.09,.61-1,0-2.04-.11-3.11-.33-1.07-.22-2.03-.6-2.89-1.13-.86-.53-1.58-1.23-2.14-2.09-.56-.86-.85-1.94-.85-3.22,0-.66,.25-1.32,.75-1.98,.5-.66,1.19-.99,2.07-.99,.72,0,1.32,.19,1.79,.56,.47,.38,.71,1.02,.71,1.93,0,.72-.25,1.29-.75,1.69-.5,.41-1.04,.61-1.6,.61-.22,0-.41-.02-.56-.07-.16-.05-.33-.07-.52-.07-.31,0-.47,.16-.47,.47,0,.56,.24,1.08,.71,1.55,.47,.47,1.06,.88,1.76,1.22,.71,.35,1.45,.61,2.24,.8,.78,.19,1.51,.28,2.16,.28,1.6,0,2.94-.2,4.02-.61,1.08-.41,1.95-1,2.61-1.79,.66-.78,1.13-1.74,1.41-2.87,.28-1.13,.42-2.42,.42-3.86,0-.88-.09-1.83-.28-2.87-.19-1.04-.55-1.99-1.08-2.87-.53-.88-1.29-1.61-2.28-2.19-.99-.58-2.28-.87-3.88-.87h-5.36v-.75Z"/><path class="cls-1" d="M890.2,229.21h-13.6l16.99-22.26h.89l-14.63,19.15h10.35v-11.58h4.24v11.58h4.71v3.11h-4.71v10.87h4.28v.75h-12.94v-.75h4.42v-10.87Z"/><path class="cls-1" d="M924.22,207.43c.03,.22,.05,.42,.05,.61v.52c0,.75-.16,1.37-.47,1.86-.31,.49-.71,.87-1.2,1.15-.49,.28-1.01,.49-1.58,.61-.56,.12-1.1,.19-1.6,.19-1.19,0-2.43-.12-3.72-.35-1.29-.24-2.34-.35-3.15-.35-.72,0-1.29,.07-1.72,.21-.42,.14-.76,.37-1.01,.68,.03,.5,.06,.98,.09,1.44,.03,.46,.05,1.14,.05,2.05,0,1.29-.07,2.47-.21,3.55s-.29,2.05-.45,2.89c1.04-.66,2.05-1.11,3.04-1.34,.99-.24,2.17-.35,3.55-.35,1.51,0,2.97,.23,4.4,.68,1.43,.46,2.68,1.11,3.76,1.95,1.08,.85,1.95,1.89,2.61,3.13,.66,1.24,.99,2.66,.99,4.26,0,1.76-.37,3.29-1.11,4.61-.74,1.32-1.7,2.42-2.89,3.32-1.19,.89-2.57,1.56-4.14,2-1.57,.44-3.17,.66-4.8,.66-1.13,0-2.21-.13-3.25-.38-1.04-.25-1.95-.64-2.73-1.18-.78-.53-1.41-1.21-1.88-2.02-.47-.82-.71-1.79-.71-2.92,0-.82,.23-1.54,.68-2.19,.45-.64,1.22-.96,2.28-.96,.63,0,1.15,.22,1.58,.66,.42,.44,.64,.96,.64,1.55,0,.66-.19,1.16-.56,1.51-.38,.35-.88,.52-1.51,.52-.44,0-.83,.05-1.18,.14-.35,.09-.52,.31-.52,.66,0,.5,.16,.99,.49,1.46,.33,.47,.8,.88,1.41,1.22,.61,.34,1.34,.63,2.19,.85,.85,.22,1.79,.33,2.82,.33,1.69,0,3.1-.25,4.21-.75,1.11-.5,2-1.19,2.66-2.07,.66-.88,1.12-1.9,1.39-3.06,.27-1.16,.4-2.38,.4-3.67s-.16-2.51-.49-3.67c-.33-1.16-.82-2.17-1.48-3.04-.66-.86-1.49-1.55-2.49-2.07-1-.52-2.2-.78-3.58-.78-1.47,0-2.71,.2-3.72,.61-1,.41-1.8,.89-2.4,1.46h-.71c.09-.22,.2-.63,.31-1.22,.11-.6,.21-1.27,.31-2.02,.09-.75,.17-1.55,.24-2.38,.06-.83,.09-1.61,.09-2.33,0-.63-.03-1.29-.09-1.98-.06-.69-.13-1.36-.21-2-.08-.64-.16-1.22-.26-1.72-.09-.5-.16-.88-.19-1.13,.53-.25,1.29-.5,2.26-.75,.97-.25,2.01-.38,3.11-.38,.97,0,1.88,.06,2.73,.17,.85,.11,1.64,.22,2.38,.33,.74,.11,1.4,.22,2,.33,.6,.11,1.14,.16,1.65,.16,.56,0,.91-.13,1.04-.4,.12-.27,.19-.56,.19-.87h.42Z"/><path class="cls-1" d="M954.33,207.71c-2.45,.41-4.54,1.03-6.28,1.86-1.74,.83-3.21,1.91-4.4,3.25-1.19,1.33-2.12,2.94-2.78,4.82-.66,1.88-1.13,4.08-1.41,6.59h.09c.31-.53,.71-1.06,1.18-1.58,.47-.52,1.01-.97,1.62-1.36,.61-.39,1.29-.71,2.05-.96,.75-.25,1.55-.38,2.4-.38,1.29,0,2.51,.24,3.67,.71,1.16,.47,2.17,1.15,3.04,2.02,.86,.88,1.54,1.97,2.05,3.27,.5,1.3,.75,2.77,.75,4.4,0,1.5-.26,2.92-.78,4.26-.52,1.33-1.24,2.5-2.16,3.51-.93,1-2.05,1.8-3.36,2.4s-2.78,.89-4.38,.89c-1.91,0-3.55-.36-4.89-1.08-1.35-.72-2.46-1.69-3.32-2.89-.86-1.21-1.49-2.61-1.88-4.21-.39-1.6-.59-3.29-.59-5.08,0-2.82,.51-5.44,1.53-7.83,1.02-2.4,2.4-4.52,4.14-6.35,1.74-1.84,3.77-3.35,6.09-4.54,2.32-1.19,4.8-2.01,7.44-2.45l.19,.75Zm-2.54,22.49c0-1.13-.07-2.27-.21-3.41-.14-1.14-.42-2.16-.82-3.06-.41-.89-.98-1.62-1.72-2.19-.74-.56-1.72-.85-2.94-.85-.72,0-1.43,.14-2.12,.42-.69,.28-1.33,.67-1.91,1.15-.58,.49-1.09,1.06-1.53,1.72-.44,.66-.75,1.35-.94,2.07-.03,.31-.06,.63-.09,.96-.03,.33-.05,.67-.05,1.01,0,1.57,.05,3.11,.14,4.61,.09,1.51,.34,2.85,.75,4.05,.41,1.19,1.02,2.15,1.84,2.87,.82,.72,1.96,1.08,3.43,1.08s2.52-.35,3.34-1.06c.82-.71,1.44-1.58,1.86-2.61,.42-1.04,.69-2.17,.8-3.39,.11-1.22,.16-2.35,.16-3.39Z"/><path class="cls-1" d="M964.22,207.99h21.18l-6.26,12.8c-.6,1.22-1.26,2.64-2,4.26-.74,1.62-1.42,3.18-2.05,4.7-.63,1.52-1.16,2.91-1.6,4.17-.44,1.25-.66,2.13-.66,2.63,0,.31,.16,.47,.47,.47,.19,0,.38-.02,.59-.07,.2-.05,.38-.07,.54-.07,.63,0,1.16,.17,1.6,.52,.44,.35,.66,.88,.66,1.6s-.23,1.29-.68,1.62c-.46,.33-.98,.49-1.58,.49-.72,0-1.29-.3-1.72-.89-.42-.6-.64-1.41-.64-2.45s.18-2.22,.54-3.55c.36-1.33,.85-2.85,1.48-4.54,.63-1.69,1.36-3.56,2.21-5.6,.85-2.04,1.76-4.27,2.73-6.68l2.16-5.46h-16.23c-.16,.47-.35,1.11-.56,1.93-.22,.82-.39,1.54-.52,2.17h-.75l1.08-8.05Z"/><path class="cls-1" d="M993.44,215.1c0-1.22,.27-2.31,.82-3.27,.55-.96,1.25-1.76,2.12-2.4,.86-.64,1.84-1.14,2.94-1.48,1.1-.34,2.21-.52,3.34-.52s2.24,.17,3.34,.52c1.1,.35,2.08,.84,2.94,1.48,.86,.64,1.57,1.44,2.12,2.4,.55,.96,.82,2.05,.82,3.27,0,1.32-.24,2.42-.73,3.29-.49,.88-1.11,1.62-1.88,2.24-.77,.61-1.63,1.11-2.59,1.48-.96,.38-1.91,.71-2.85,.99v.09c1.22,.41,2.41,.89,3.58,1.44,1.16,.55,2.2,1.2,3.11,1.95,.91,.75,1.64,1.63,2.19,2.63,.55,1,.82,2.15,.82,3.44,0,1.57-.33,2.91-.99,4.02-.66,1.11-1.51,2.02-2.57,2.73-1.05,.71-2.22,1.22-3.51,1.53-1.29,.31-2.56,.47-3.81,.47s-2.53-.16-3.81-.47c-1.29-.31-2.46-.82-3.51-1.53-1.05-.7-1.91-1.62-2.56-2.73s-.99-2.46-.99-4.02c0-1.29,.27-2.43,.82-3.44,.55-1,1.28-1.88,2.19-2.63,.91-.75,1.94-1.4,3.11-1.95,1.16-.55,2.35-1.03,3.58-1.44v-.09c-.94-.28-1.89-.61-2.85-.99-.96-.38-1.82-.87-2.59-1.48-.77-.61-1.4-1.36-1.88-2.24-.49-.88-.73-1.98-.73-3.29Zm2.87,17.69c0,1.04,.1,2.02,.31,2.96,.2,.94,.56,1.78,1.06,2.52,.5,.74,1.16,1.32,1.98,1.74,.82,.42,1.82,.63,3.01,.63s2.2-.21,3.01-.63c.82-.42,1.47-1,1.95-1.74,.49-.74,.84-1.58,1.06-2.52,.22-.94,.33-1.93,.33-2.96,0-1.57-.2-2.92-.59-4.07-.39-1.14-.79-1.98-1.2-2.52-.35-.47-.74-.87-1.18-1.2-.44-.33-.87-.6-1.29-.82-.42-.22-.82-.38-1.2-.49-.38-.11-.67-.16-.89-.16s-.52,.05-.89,.16c-.38,.11-.78,.28-1.2,.49-.42,.22-.85,.49-1.29,.82-.44,.33-.83,.73-1.18,1.2-.41,.53-.81,1.37-1.2,2.52-.39,1.15-.59,2.5-.59,4.07Zm1.36-17.69c0,1.79,.2,3.22,.61,4.31,.41,1.08,1.04,1.88,1.88,2.38,.44,.25,.9,.48,1.39,.68,.49,.21,.85,.31,1.11,.31s.62-.1,1.11-.31c.49-.2,.95-.43,1.39-.68,.85-.5,1.47-1.29,1.88-2.38,.41-1.08,.61-2.52,.61-4.31,0-.91-.04-1.78-.12-2.61-.08-.83-.28-1.57-.61-2.21-.33-.64-.83-1.15-1.51-1.53-.67-.38-1.59-.56-2.75-.56s-2.08,.19-2.75,.56c-.68,.38-1.18,.89-1.51,1.53-.33,.64-.53,1.38-.61,2.21-.08,.83-.12,1.7-.12,2.61Z"/><path class="cls-1" d="M1022.47,241.12c2.45-.41,4.54-1.03,6.28-1.86,1.74-.83,3.21-1.91,4.4-3.25,1.19-1.33,2.12-2.94,2.78-4.82,.66-1.88,1.13-4.08,1.41-6.59h-.09c-.31,.53-.71,1.06-1.18,1.58s-1.01,.98-1.62,1.39c-.61,.41-1.29,.73-2.05,.96-.75,.24-1.55,.35-2.4,.35-1.29,0-2.51-.24-3.67-.71-1.16-.47-2.17-1.14-3.04-2.02-.86-.88-1.55-1.96-2.05-3.25-.5-1.29-.75-2.76-.75-4.42,0-1.51,.26-2.92,.78-4.26,.52-1.33,1.24-2.5,2.16-3.51,.93-1,2.05-1.8,3.36-2.4,1.32-.59,2.78-.89,4.38-.89,1.91,0,3.54,.36,4.89,1.08,1.35,.72,2.45,1.69,3.32,2.89,.86,1.21,1.49,2.61,1.88,4.21,.39,1.6,.59,3.29,.59,5.08,0,2.82-.51,5.44-1.53,7.83-1.02,2.4-2.4,4.52-4.14,6.35-1.74,1.84-3.77,3.35-6.09,4.54-2.32,1.19-4.8,2.01-7.43,2.45l-.19-.75Zm2.54-22.49c0,1.13,.07,2.27,.21,3.41,.14,1.15,.42,2.16,.82,3.06,.41,.89,.98,1.62,1.72,2.19,.74,.57,1.72,.85,2.94,.85,.69,0,1.39-.14,2.09-.42,.71-.28,1.35-.67,1.93-1.15,.58-.49,1.09-1.06,1.53-1.72,.44-.66,.75-1.35,.94-2.07,.03-.31,.06-.64,.09-.96,.03-.33,.05-.67,.05-1.01,0-1.57-.05-3.11-.14-4.61-.09-1.51-.35-2.85-.75-4.05-.41-1.19-1.03-2.15-1.86-2.87-.83-.72-1.97-1.08-3.41-1.08s-2.53,.35-3.34,1.06c-.82,.71-1.44,1.58-1.86,2.61-.42,1.04-.69,2.16-.8,3.39-.11,1.22-.16,2.35-.16,3.39Z"/><path class="cls-1" d="M1087.83,229.03c-.06,.22-.1,.42-.12,.61-.02,.19-.02,.44-.02,.75,0,.35,.13,.74,.4,1.18,.27,.44,.81,.66,1.62,.66,1.1,0,2.08-.31,2.94-.94,.86-.63,1.58-1.44,2.16-2.45,.58-1,1.02-2.12,1.32-3.37,.3-1.24,.45-2.47,.45-3.69,0-1.44-.33-2.94-.99-4.49-.66-1.55-1.62-2.96-2.87-4.24-1.26-1.27-2.81-2.32-4.66-3.15-1.85-.83-3.95-1.25-6.31-1.25-2.1,0-4.03,.36-5.79,1.08-1.76,.72-3.27,1.79-4.54,3.2-1.27,1.41-2.26,3.18-2.96,5.29-.71,2.12-1.06,4.56-1.06,7.32,0,1.79,.35,3.54,1.04,5.27,.69,1.73,1.68,3.26,2.96,4.61,1.29,1.35,2.85,2.43,4.68,3.25,1.84,.82,3.9,1.22,6.19,1.22s4.38-.2,5.98-.61c1.6-.41,3.07-.96,4.42-1.65l.47,.99c-1.98,1.1-3.89,1.87-5.74,2.31-1.85,.44-3.55,.66-5.08,.66-2.2,0-4.18-.25-5.95-.75-1.77-.5-3.36-1.18-4.78-2.02-1.41-.85-2.63-1.83-3.65-2.96-1.02-1.13-1.86-2.31-2.52-3.53-.66-1.22-1.15-2.46-1.48-3.72-.33-1.25-.49-2.45-.49-3.58,0-2.7,.48-5.15,1.44-7.37,.96-2.21,2.26-4.11,3.91-5.69,1.65-1.58,3.58-2.82,5.81-3.69,2.23-.88,4.61-1.32,7.15-1.32,2.26,0,4.38,.38,6.35,1.13,1.98,.75,3.69,1.79,5.15,3.11,1.46,1.32,2.61,2.88,3.46,4.68,.85,1.8,1.27,3.76,1.27,5.86,0,1.57-.2,3.07-.61,4.49-.41,1.43-1,2.69-1.76,3.79-.77,1.1-1.72,1.98-2.85,2.64-1.13,.66-2.4,.99-3.81,.99-.63,0-1.22-.06-1.76-.19-.55-.12-1.04-.34-1.48-.64-.44-.3-.78-.69-1.04-1.18-.25-.49-.38-1.07-.38-1.76h-.09c-.09,.22-.31,.53-.66,.94-.35,.41-.78,.82-1.29,1.25-.52,.42-1.1,.79-1.74,1.11-.64,.31-1.29,.47-1.95,.47-.35,0-.78-.05-1.32-.14-.53-.09-1.06-.35-1.58-.78s-.96-1.04-1.34-1.86c-.38-.82-.56-1.96-.56-3.44,0-1.6,.26-3.12,.78-4.56,.52-1.44,1.21-2.71,2.07-3.81,.86-1.1,1.88-1.98,3.06-2.64,1.18-.66,2.42-.99,3.74-.99,.94,0,1.73,.29,2.38,.87,.64,.58,1.09,1.23,1.34,1.95h.09l.52-2.21h3.44l-3.34,12.99Zm-10.68-1.6c0,1.54,.29,2.63,.87,3.27,.58,.64,1.29,.96,2.14,.96,.72,0,1.45-.31,2.19-.92,.74-.61,1.41-1.45,2.02-2.52,.61-1.07,1.11-2.29,1.48-3.67,.38-1.38,.56-2.85,.56-4.42,0-.75-.18-1.4-.54-1.93-.36-.53-.95-.8-1.76-.8-.56,0-1.25,.23-2.05,.68-.8,.46-1.57,1.11-2.31,1.98-.74,.86-1.36,1.91-1.86,3.15-.5,1.24-.75,2.64-.75,4.21Z"/><path class="cls-1" d="M1117.53,240.08h4.99v.75h-14.21v-.75h4.99v-8h-7.48v-.75h7.48v-2.45l-.71-2.02h-6.78v-.75h6.49l-6.31-17.36h-4.14v-.75h12.99v.75h-3.91l6.07,17.36h.57l4.23-12.28c.34-.97,.6-1.74,.78-2.31,.17-.56,.26-1.07,.26-1.51,0-.41-.16-.72-.47-.94-.31-.22-.86-.33-1.65-.33h-1.79v-.75h9.46v.75h-1.79c-.91,0-1.57,.25-1.98,.75-.41,.5-.74,1.11-.99,1.83l-5.36,14.78h6.73v.75h-7.01l-.47,1.27v3.2h7.48v.75h-7.48v8Z"/><path class="cls-1" d="M1148.3,221.31c.69,.38,1.36,.75,2.02,1.11,.66,.36,1.25,.82,1.79,1.37,.53,.55,.96,1.23,1.29,2.05,.33,.82,.49,1.85,.49,3.11,0,.63-.14,1.31-.42,2.05-.28,.74-.66,1.47-1.13,2.21s-.99,1.44-1.55,2.12c-.56,.67-1.13,1.25-1.69,1.72,1.35,.78,2.24,1.69,2.68,2.71,.44,1.02,.66,2.28,.66,3.79,0,1.38-.24,2.61-.73,3.69-.49,1.08-1.16,1.99-2.02,2.73-.86,.74-1.88,1.3-3.06,1.69-1.18,.39-2.46,.59-3.84,.59-1,0-1.94-.13-2.8-.38-.86-.25-1.6-.62-2.21-1.11-.61-.49-1.09-1.07-1.44-1.74-.35-.67-.52-1.43-.52-2.28s.22-1.62,.66-2.33c.44-.71,1.13-1.06,2.07-1.06,.75,0,1.31,.24,1.67,.71,.36,.47,.54,.97,.54,1.51,0,.78-.22,1.36-.66,1.74-.44,.38-.93,.57-1.46,.57-.44,0-.77-.08-.99-.24-.22-.16-.39-.3-.52-.42-.13,.16-.19,.44-.19,.85,0,.53,.19,1,.56,1.41,.38,.41,.85,.77,1.44,1.08,.58,.31,1.22,.55,1.91,.71,.69,.16,1.33,.24,1.93,.24,.88,0,1.77-.1,2.68-.31,.91-.2,1.73-.54,2.47-1.01,.74-.47,1.34-1.08,1.81-1.83,.47-.75,.71-1.68,.71-2.78,0-.66-.08-1.22-.24-1.67-.16-.45-.42-.88-.8-1.27-.38-.39-.88-.78-1.51-1.15-.63-.38-1.41-.82-2.35-1.32l-5.65-2.96c-1.1-.56-2.06-1.11-2.87-1.62-.82-.52-1.49-1.04-2.02-1.58-.53-.53-.94-1.1-1.22-1.69-.28-.6-.42-1.25-.42-1.98,0-1.98,.45-3.7,1.36-5.18,.91-1.47,2.12-2.81,3.62-4-.82-.56-1.41-1.26-1.79-2.09-.38-.83-.56-1.73-.56-2.71,0-1.19,.19-2.35,.56-3.48,.38-1.13,.92-2.12,1.65-2.99,.72-.86,1.63-1.56,2.73-2.09,1.1-.53,2.35-.8,3.76-.8,.88,0,1.72,.12,2.52,.35,.8,.24,1.51,.58,2.12,1.04,.61,.46,1.11,1,1.48,1.65,.38,.64,.56,1.39,.56,2.24,0,.97-.23,1.74-.68,2.31-.46,.56-1.14,.85-2.05,.85-.6,0-1.11-.2-1.55-.59-.44-.39-.66-.9-.66-1.53,0-.69,.2-1.22,.61-1.58,.41-.36,.92-.54,1.55-.54,.44,0,.77,.06,.99,.19,.22,.13,.42,.27,.61,.42,.03-.09,.05-.28,.05-.56,0-.38-.11-.77-.33-1.18-.22-.41-.56-.78-1.01-1.13-.45-.34-1.03-.63-1.72-.85-.69-.22-1.52-.33-2.49-.33-.82,0-1.6,.12-2.35,.35-.75,.24-1.41,.59-1.98,1.06-.56,.47-1.01,1.04-1.34,1.72-.33,.68-.49,1.45-.49,2.33,0,.78,.09,1.43,.28,1.95,.19,.52,.47,.97,.85,1.37,.38,.39,.85,.75,1.41,1.06,.56,.31,1.22,.67,1.98,1.08l5.22,2.68Zm3.62,9.6c0-.69-.15-1.29-.45-1.81-.3-.52-.68-.98-1.15-1.39-.47-.41-.99-.77-1.55-1.08-.56-.31-1.11-.61-1.65-.89l-8.09-4.09c-.41,.25-.85,.59-1.32,1.01-.47,.42-.9,.89-1.29,1.41-.39,.52-.71,1.07-.96,1.67-.25,.6-.38,1.19-.38,1.79,0,.82,.24,1.48,.71,1.98,.47,.5,1.27,1.05,2.4,1.65l10.31,5.46c.41-.34,.82-.73,1.22-1.15,.41-.42,.78-.88,1.11-1.37,.33-.49,.6-1,.8-1.53,.2-.53,.31-1.08,.31-1.65Z"/><path class="cls-1" d="M1160.49,224.41h5.36c-.47-.6-.93-1.21-1.36-1.86-.44-.64-.84-1.31-1.2-2-.36-.69-.65-1.4-.87-2.12-.22-.72-.33-1.46-.33-2.21,0-1.54,.3-2.86,.89-3.98,.6-1.11,1.4-2.02,2.4-2.73,1-.71,2.15-1.23,3.44-1.58,1.29-.34,2.62-.52,4-.52,1.25,0,2.49,.14,3.69,.42,1.21,.28,2.27,.74,3.2,1.36,.92,.63,1.67,1.44,2.24,2.42,.56,.99,.85,2.17,.85,3.55,0,1-.23,1.83-.71,2.49-.47,.66-1.16,.99-2.07,.99-.63,0-1.17-.2-1.62-.59-.46-.39-.68-.95-.68-1.67s.22-1.32,.66-1.69c.44-.38,.93-.56,1.46-.56,.41,0,.67,.05,.78,.14,.11,.09,.29,.14,.54,.14,.35,0,.52-.31,.52-.94,0-.85-.24-1.6-.71-2.26-.47-.66-1.08-1.22-1.84-1.67-.75-.45-1.59-.8-2.52-1.04-.93-.24-1.83-.35-2.71-.35-2.51,0-4.35,.74-5.53,2.21-1.18,1.47-1.76,3.42-1.76,5.83,0,1.35,.21,2.7,.64,4.05,.42,1.35,.85,2.73,1.29,4.14h10.59v.75h-10.35c.22,.82,.42,1.7,.59,2.66,.17,.96,.26,1.91,.26,2.85,0,.53-.04,1.09-.12,1.67-.08,.58-.2,1.09-.35,1.53,.66,.03,1.52,.3,2.59,.8,1.07,.5,2.16,1.04,3.27,1.62,1.11,.58,2.16,1.11,3.13,1.58,.97,.47,1.71,.71,2.21,.71,.63,0,1.2-.27,1.72-.82,.52-.55,.98-1.06,1.39-1.53l.66,.33c-.41,.53-.82,1.08-1.22,1.65-.41,.56-.85,1.08-1.32,1.55-.47,.47-.99,.86-1.55,1.18-.56,.31-1.22,.47-1.98,.47-.82,0-1.66-.16-2.54-.49-.88-.33-1.75-.72-2.61-1.18-.86-.46-1.7-.93-2.52-1.44-.82-.5-1.6-.92-2.35-1.27-.47,1.04-1.13,1.98-1.98,2.82-.85,.85-1.83,1.27-2.96,1.27-.82,0-1.5-.24-2.05-.71-.55-.47-.82-1.13-.82-1.98,0-.78,.22-1.47,.66-2.07,.44-.6,.98-1.1,1.62-1.51,.64-.41,1.34-.71,2.09-.92,.75-.2,1.46-.31,2.12-.31h.99c.31,0,.6,.03,.85,.09,.22-.69,.33-1.35,.33-1.98,0-1.29-.26-2.43-.78-3.43s-1.09-2.05-1.72-3.15h-5.88v-.75Zm.47,14.02c0,.53,.17,.99,.52,1.36,.34,.38,.91,.56,1.69,.56,.94,0,1.76-.35,2.47-1.06,.71-.71,1.29-1.56,1.76-2.56-.41-.25-.91-.45-1.51-.61-.6-.16-1.16-.24-1.69-.24-.82,0-1.56,.17-2.24,.52-.67,.34-1.01,1.02-1.01,2.02Z"/><path class="cls-1" d="M1199.69,241.31c-.97-.09-1.84-.27-2.61-.52-.77-.25-1.46-.51-2.07-.78-.61-.27-1.16-.5-1.65-.71-.49-.2-.92-.31-1.29-.31-.56,0-.9,.23-1.01,.68-.11,.45-.16,.87-.16,1.25l-.75-.05v-11.67h.75c0,1.76,.23,3.31,.68,4.66,.45,1.35,1.07,2.49,1.86,3.41,.78,.93,1.72,1.66,2.8,2.19,1.08,.53,2.24,.86,3.46,.99v-14.14c-1.19-.16-2.34-.38-3.44-.68-1.1-.3-2.09-.79-2.96-1.48-.88-.69-1.58-1.64-2.09-2.84-.52-1.21-.78-2.81-.78-4.82,0-1.28,.2-2.47,.59-3.57,.39-1.1,.96-2.05,1.72-2.87,.75-.82,1.68-1.46,2.78-1.93,1.1-.47,2.34-.71,3.72-.71,.22,0,.38,.02,.47,.05v-3.06h.75v3.11c.94,.09,1.77,.29,2.49,.59,.72,.3,1.35,.6,1.88,.92,.53,.31,1,.6,1.39,.85,.39,.25,.73,.38,1.01,.38,.6,0,.98-.22,1.15-.66,.17-.44,.29-.8,.35-1.08h.75v9.69h-.75c-.09-1.25-.34-2.46-.73-3.6-.39-1.14-.93-2.16-1.6-3.06-.68-.89-1.51-1.62-2.49-2.19-.99-.57-2.14-.93-3.46-1.08v12.94c1.25,.22,2.52,.5,3.81,.85,1.29,.35,2.45,.87,3.48,1.58,1.04,.71,1.87,1.66,2.52,2.85,.64,1.19,.96,2.76,.96,4.71,0,1.38-.21,2.69-.64,3.93-.42,1.24-1.06,2.32-1.91,3.25-.85,.93-1.91,1.66-3.2,2.21-1.29,.55-2.78,.82-4.47,.82-.25,0-.44-.02-.56-.05v6.96h-.75v-7.01Zm0-33.08c-.13-.03-.3-.05-.52-.05-2.16,0-3.88,.6-5.15,1.81-1.27,1.21-1.91,2.85-1.91,4.92,0,1.13,.2,2.05,.61,2.78,.41,.72,.96,1.31,1.65,1.76,.69,.46,1.49,.8,2.4,1.04,.91,.23,1.88,.43,2.92,.59v-12.85Zm.75,32.33c.12,.06,.25,.09,.38,.09h.38c1.13,0,2.17-.16,3.13-.49,.96-.33,1.77-.8,2.45-1.41,.67-.61,1.21-1.35,1.6-2.21,.39-.86,.59-1.81,.59-2.85,0-1.51-.24-2.7-.73-3.58-.49-.88-1.12-1.56-1.91-2.05-.78-.49-1.69-.83-2.73-1.04-1.04-.2-2.09-.38-3.15-.54v14.07Z"/><path class="cls-1" d="M1251.26,234.67c-.35,.72-.72,1.47-1.13,2.26-.41,.78-.89,1.51-1.43,2.16-.55,.66-1.18,1.21-1.88,1.65-.71,.44-1.51,.66-2.42,.66-.97,0-2.16-.52-3.55-1.55-1.4-1.04-2.8-2.52-4.21-4.47-.5,.69-1.07,1.4-1.72,2.12-.64,.72-1.34,1.37-2.09,1.95-.75,.58-1.56,1.05-2.42,1.41-.86,.36-1.75,.54-2.66,.54-1.04,0-2.03-.21-2.99-.63-.96-.42-1.8-1-2.52-1.72-.72-.72-1.29-1.56-1.72-2.52-.42-.96-.64-1.95-.64-2.99,0-1.1,.27-2.12,.8-3.08,.53-.96,1.22-1.84,2.05-2.66,.83-.81,1.73-1.55,2.71-2.21,.97-.66,1.88-1.22,2.73-1.69-.31-.5-.67-1.05-1.06-1.65-.39-.6-.75-1.22-1.08-1.86-.33-.64-.6-1.29-.82-1.93-.22-.64-.33-1.28-.33-1.91,0-.94,.18-1.82,.54-2.63,.36-.82,.85-1.52,1.46-2.12,.61-.6,1.32-1.07,2.14-1.41,.82-.34,1.69-.52,2.64-.52,1.63,0,2.93,.46,3.91,1.39,.97,.93,1.46,2.19,1.46,3.79s-.45,3.04-1.36,4.12c-.91,1.08-2.04,2.03-3.39,2.85,1.1,1.57,2.2,3.11,3.29,4.63,1.1,1.52,2.23,3.04,3.38,4.54,.41-.5,.84-1.11,1.31-1.81,.47-.71,.98-1.38,1.55-2.02,.56-.64,1.16-1.19,1.8-1.65,.64-.45,1.32-.68,2.04-.68,.81,0,1.51,.26,2.09,.78,.58,.52,.87,1.28,.87,2.28,0,.78-.23,1.41-.7,1.88-.47,.47-1.1,.71-1.91,.71-.71,0-1.26-.24-1.63-.71-.37-.47-.56-.99-.56-1.55,0-.78-.16-1.18-.47-1.18-.09,0-.28,.13-.56,.38-.28,.25-.61,.59-.99,1.01-.38,.42-.78,.91-1.2,1.46-.42,.55-.82,1.14-1.2,1.76,.6,.75,1.2,1.5,1.81,2.24,.61,.74,1.24,1.4,1.88,1.98,.64,.58,1.29,1.05,1.93,1.41,.64,.36,1.29,.54,1.95,.54,.47,0,.9-.14,1.29-.42,.39-.28,.75-.61,1.08-.99,.33-.38,.61-.77,.85-1.18,.24-.41,.4-.74,.49-.99l.61,.24Zm-27.43-4.14c0,.79,.19,1.64,.56,2.56,.38,.93,.88,1.8,1.51,2.61,.63,.82,1.35,1.5,2.16,2.05,.82,.55,1.65,.82,2.49,.82,.69,0,1.3-.1,1.84-.31,.53-.2,1.01-.48,1.44-.82,.42-.35,.82-.75,1.2-1.22,.38-.47,.75-.97,1.13-1.51-1.35-1.69-2.64-3.4-3.88-5.13-1.24-1.73-2.49-3.45-3.74-5.18-.66,.44-1.28,.84-1.86,1.2-.58,.36-1.08,.76-1.51,1.2-.42,.44-.75,.95-.99,1.53-.24,.58-.35,1.31-.35,2.19Zm12.42-15.43c0-1.44-.41-2.55-1.22-3.32-.82-.77-1.82-1.15-3.01-1.15-1.07,0-1.91,.33-2.54,.99-.63,.66-.94,1.54-.94,2.63,0,.53,.1,1.11,.31,1.72,.2,.61,.47,1.22,.8,1.84s.68,1.22,1.06,1.83c.38,.61,.75,1.2,1.13,1.76,1.22-.56,2.27-1.4,3.13-2.52,.86-1.11,1.29-2.38,1.29-3.79Z"/><path class="cls-1" d="M1268.34,241.31c-1.41-.09-2.67-.41-3.79-.94-1.11-.53-2.07-1.22-2.87-2.07-.8-.85-1.41-1.84-1.84-2.96-.42-1.13-.64-2.32-.64-3.58,0-1.44,.24-2.81,.73-4.09,.49-1.29,1.14-2.42,1.95-3.41,.82-.99,1.78-1.8,2.89-2.45,1.11-.64,2.3-1.04,3.55-1.2v-3.44h.75v3.34h.38c.82,0,1.63,.09,2.45,.28,.82,.19,1.54,.46,2.19,.82,.64,.36,1.16,.82,1.55,1.36,.39,.55,.59,1.18,.59,1.91s-.23,1.29-.68,1.72c-.45,.42-.98,.63-1.58,.63-.72,0-1.28-.21-1.67-.63-.39-.42-.59-.89-.59-1.39,0-.47,.06-.83,.19-1.08,.12-.25,.26-.45,.4-.61,.14-.16,.27-.28,.4-.38,.12-.09,.19-.24,.19-.42,0-.25-.12-.47-.35-.66-.24-.19-.53-.34-.89-.45-.36-.11-.75-.2-1.15-.26-.41-.06-.78-.09-1.13-.09h-.28v19.39c1.22,0,2.27-.2,3.13-.61,.86-.41,1.59-.92,2.19-1.55,.6-.63,1.04-1.32,1.34-2.07,.3-.75,.49-1.49,.59-2.21h.75c-.03,.91-.24,1.79-.64,2.63-.39,.85-.93,1.62-1.62,2.31-.69,.69-1.52,1.24-2.49,1.65-.97,.41-2.06,.61-3.25,.61v5.41h-.75v-5.51Zm0-19.95c-.94,.09-1.71,.35-2.31,.75-.6,.41-1.07,.93-1.41,1.55-.35,.63-.58,1.37-.71,2.21-.13,.85-.19,1.79-.19,2.82v4.09c0,.94,.03,1.86,.09,2.75,.06,.89,.24,1.69,.54,2.4,.3,.71,.76,1.29,1.39,1.76,.63,.47,1.49,.75,2.59,.85v-19.2Z"/><path class="cls-1" d="M1290.08,230.25h-5.08v-2.26h5.36l1.04-7.15h-5.08v-2.26h5.36l1.51-10.59h2.64l-1.51,10.59h6.35l1.46-10.59h2.63l-1.51,10.59h5.08v2.26h-5.36l-1.04,7.15h5.08v2.26h-5.36l-1.51,10.59h-2.64l1.51-10.59h-6.31l-1.51,10.59h-2.64l1.51-10.59Zm10.26-9.41h-6.31l-1.04,7.15h6.35l.99-7.15Z"/><path class="cls-1" d="M1315.92,215.85c0-1.16,.15-2.26,.45-3.29,.3-1.04,.73-1.93,1.29-2.68,.56-.75,1.26-1.35,2.09-1.79,.83-.44,1.8-.66,2.89-.66s2.06,.22,2.89,.66c.83,.44,1.53,1.04,2.09,1.79,.56,.75,1,1.65,1.29,2.68,.3,1.04,.45,2.13,.45,3.29s-.15,2.3-.45,3.32c-.3,1.02-.73,1.91-1.29,2.66-.56,.75-1.26,1.35-2.09,1.79-.83,.44-1.8,.66-2.89,.66s-2.06-.22-2.89-.66c-.83-.44-1.53-1.04-2.09-1.79-.56-.75-1-1.64-1.29-2.66-.3-1.02-.45-2.12-.45-3.32Zm3.39,0c0,.72,.02,1.52,.05,2.4,.03,.88,.15,1.71,.35,2.49,.2,.78,.53,1.44,.99,1.98,.45,.53,1.11,.8,1.95,.8s1.5-.27,1.95-.8c.45-.53,.78-1.19,.99-1.98,.2-.78,.32-1.62,.35-2.49,.03-.88,.05-1.68,.05-2.4s-.02-1.48-.05-2.38c-.03-.89-.15-1.73-.35-2.52-.2-.78-.53-1.44-.99-1.98-.45-.53-1.11-.8-1.95-.8s-1.5,.27-1.95,.8c-.46,.53-.78,1.19-.99,1.98-.2,.78-.32,1.62-.35,2.52-.03,.89-.05,1.69-.05,2.38Zm21.55-8.89h2.02l-17.69,34.92h-2.02l17.69-34.92Zm-4.19,26.02c0-1.16,.15-2.26,.45-3.29,.3-1.04,.73-1.93,1.29-2.68,.56-.75,1.26-1.35,2.09-1.79,.83-.44,1.8-.66,2.89-.66s2.06,.22,2.89,.66c.83,.44,1.53,1.04,2.09,1.79,.56,.75,1,1.65,1.29,2.68,.3,1.04,.45,2.13,.45,3.29s-.15,2.3-.45,3.32c-.3,1.02-.73,1.91-1.29,2.66-.56,.75-1.26,1.35-2.09,1.79-.83,.44-1.8,.66-2.89,.66s-2.06-.22-2.89-.66c-.83-.44-1.53-1.04-2.09-1.79-.57-.75-1-1.64-1.29-2.66-.3-1.02-.45-2.12-.45-3.32Zm3.39,0c0,.72,.02,1.52,.05,2.4,.03,.88,.15,1.71,.35,2.49,.2,.79,.53,1.44,.99,1.98,.45,.53,1.11,.8,1.95,.8s1.5-.27,1.95-.8c.45-.53,.78-1.19,.99-1.98,.2-.78,.32-1.62,.35-2.49,.03-.88,.05-1.68,.05-2.4s-.02-1.48-.05-2.38c-.03-.89-.15-1.73-.35-2.52-.2-.78-.53-1.44-.99-1.98-.46-.53-1.11-.8-1.95-.8s-1.5,.27-1.95,.8c-.45,.53-.78,1.19-.99,1.98-.2,.78-.32,1.62-.35,2.52-.03,.89-.05,1.69-.05,2.38Z"/><path class="cls-1" d="M1364.9,233.97c-.25-.94-.45-1.89-.59-2.85-.14-.96-.21-1.94-.21-2.94,0-1.38,.23-2.57,.68-3.58,.45-1,1.04-1.9,1.74-2.68,.71-.78,1.46-1.5,2.26-2.14,.8-.64,1.55-1.31,2.26-2,.71-.69,1.29-1.42,1.74-2.19,.45-.77,.68-1.69,.68-2.75,0-.85-.17-1.59-.52-2.23-.35-.64-.8-1.18-1.36-1.6-.56-.42-1.21-.75-1.93-.96-.72-.22-1.46-.33-2.21-.33-.44,0-.93,.06-1.46,.19-.53,.13-1.03,.31-1.48,.54-.45,.24-.83,.53-1.13,.89-.3,.36-.45,.76-.45,1.2,0,.31,.16,.51,.49,.59,.33,.08,.68,.17,1.06,.28,.38,.11,.73,.31,1.06,.59,.33,.28,.49,.78,.49,1.51s-.23,1.25-.68,1.6c-.46,.35-1,.52-1.62,.52-.41,0-.77-.09-1.08-.28-.31-.19-.57-.44-.78-.75-.2-.31-.36-.65-.47-1.01-.11-.36-.16-.71-.16-1.06,0-.78,.16-1.52,.49-2.21,.33-.69,.78-1.28,1.34-1.76,.56-.49,1.22-.87,1.98-1.15,.75-.28,1.55-.42,2.4-.42,1.22,0,2.3,.2,3.22,.59,.92,.39,1.7,.94,2.33,1.65,.63,.71,1.1,1.55,1.41,2.54,.31,.99,.47,2.06,.47,3.22,0,1.04-.09,1.94-.26,2.71-.17,.77-.41,1.44-.71,2.02-.3,.58-.64,1.1-1.04,1.55-.39,.46-.79,.87-1.2,1.25-1.13,1.07-2.1,1.99-2.92,2.78-.82,.79-1.48,1.5-2,2.14-.52,.64-.9,1.25-1.15,1.84-.25,.58-.38,1.2-.38,1.86s.03,1.19,.09,1.6c.06,.41,.12,.78,.19,1.13l-.61,.14Zm.52,2.63c.63,0,1.18,.24,1.67,.71,.49,.47,.73,1.04,.73,1.69s-.24,1.22-.73,1.69c-.49,.47-1.04,.71-1.67,.71-.66,0-1.22-.24-1.69-.71-.47-.47-.71-1.04-.71-1.69s.24-1.22,.71-1.69c.47-.47,1.04-.71,1.69-.71Z"/><path class="cls-1" d="M1390.92,231.14c0-1.04-.03-2.37-.09-4-.06-1.63-.19-3.35-.38-5.15-.19-1.8-.44-3.58-.75-5.32-.31-1.74-.72-3.25-1.22-4.54,.53-.69,1.01-1.46,1.44-2.31,.42-.85,.81-1.68,1.15-2.49,.09-.25,.17-.38,.24-.38s.14,.13,.24,.38c.34,.82,.73,1.65,1.15,2.49,.42,.85,.9,1.62,1.43,2.31-.5,1.29-.91,2.8-1.22,4.54-.31,1.74-.56,3.51-.75,5.32-.19,1.8-.31,3.52-.38,5.15-.06,1.63-.09,2.96-.09,4v2.73h-.75v-2.73Zm.38,5.46c.63,0,1.18,.24,1.67,.71s.73,1.04,.73,1.69-.24,1.22-.73,1.69c-.49,.47-1.04,.71-1.67,.71-.66,0-1.22-.24-1.69-.71-.47-.47-.71-1.04-.71-1.69s.24-1.22,.71-1.69c.47-.47,1.04-.71,1.69-.71Z"/><path class="cls-1" d="M1421.61,206.96c2.38,0,4.63,.46,6.75,1.36,2.12,.91,3.95,2.15,5.51,3.72,1.55,1.57,2.78,3.4,3.69,5.51,.91,2.1,1.36,4.35,1.36,6.73s-.46,4.63-1.36,6.73c-.91,2.1-2.14,3.94-3.69,5.51-1.55,1.57-3.39,2.81-5.51,3.72-2.12,.91-4.37,1.36-6.75,1.36s-4.63-.46-6.73-1.36c-2.1-.91-3.94-2.15-5.51-3.72-1.57-1.57-2.81-3.4-3.72-5.51-.91-2.1-1.36-4.34-1.36-6.73s.45-4.63,1.36-6.73c.91-2.1,2.15-3.94,3.72-5.51,1.57-1.57,3.4-2.81,5.51-3.72,2.1-.91,4.34-1.36,6.73-1.36Zm0,2.26c-2.04,0-3.95,.41-5.74,1.22-1.79,.82-3.36,1.91-4.71,3.27-1.35,1.36-2.41,2.96-3.18,4.8-.77,1.83-1.15,3.76-1.15,5.76s.38,3.97,1.15,5.79c.77,1.82,1.83,3.42,3.18,4.8,1.35,1.38,2.92,2.47,4.71,3.27,1.79,.8,3.7,1.2,5.74,1.2s3.95-.4,5.74-1.2,3.36-1.89,4.71-3.27c1.35-1.38,2.41-2.98,3.18-4.8,.77-1.82,1.15-3.75,1.15-5.79s-.38-3.93-1.15-5.76c-.77-1.83-1.83-3.44-3.18-4.8-1.35-1.37-2.92-2.45-4.71-3.27-1.79-.82-3.7-1.22-5.74-1.22Zm7.81,22.82c-.06,.25-.21,.44-.45,.56-.24,.13-.54,.25-.92,.38-.5,.16-1.22,.34-2.16,.54-.94,.2-2.02,.31-3.25,.31-1.44,0-2.82-.18-4.12-.54-1.3-.36-2.44-.94-3.41-1.74-.97-.8-1.75-1.83-2.33-3.08-.58-1.25-.87-2.78-.87-4.56,0-1.04,.22-2.12,.66-3.27,.44-1.14,1.11-2.19,2.02-3.13,.91-.94,2.05-1.72,3.44-2.33,1.38-.61,3.03-.92,4.94-.92,1.35,0,2.4,.09,3.15,.28,.75,.19,1.46,.39,2.12,.61,.78,.25,1.18,.6,1.18,1.04v3.48h-.75c0-.53-.11-1.07-.33-1.62-.22-.55-.56-1.05-1.04-1.51-.47-.45-1.08-.82-1.84-1.11-.75-.28-1.65-.42-2.68-.42-1.25,0-2.35,.22-3.27,.66-.93,.44-1.7,1.05-2.33,1.83-.63,.78-1.1,1.7-1.41,2.75-.31,1.05-.47,2.19-.47,3.41,0,1.32,.15,2.55,.45,3.69,.3,1.15,.78,2.14,1.44,2.99,.66,.85,1.48,1.51,2.47,2,.99,.49,2.16,.73,3.51,.73,.88,0,1.66-.13,2.35-.4,.69-.27,1.29-.61,1.81-1.04,.52-.42,.95-.9,1.29-1.44,.34-.53,.64-1.08,.89-1.65h.71l-.8,3.48Z"/><path class="cls-1" d="M1461.6,206.96c2.38,0,4.63,.46,6.75,1.36,2.12,.91,3.95,2.15,5.51,3.72,1.55,1.57,2.78,3.4,3.69,5.51,.91,2.1,1.36,4.35,1.36,6.73s-.45,4.63-1.36,6.73c-.91,2.1-2.14,3.94-3.69,5.51-1.55,1.57-3.39,2.81-5.51,3.72-2.12,.91-4.37,1.36-6.75,1.36s-4.63-.46-6.73-1.36c-2.1-.91-3.94-2.15-5.51-3.72-1.57-1.57-2.81-3.4-3.72-5.51-.91-2.1-1.36-4.34-1.36-6.73s.45-4.63,1.36-6.73c.91-2.1,2.15-3.94,3.72-5.51,1.57-1.57,3.4-2.81,5.51-3.72,2.1-.91,4.34-1.36,6.73-1.36Zm0,2.26c-2.04,0-3.95,.41-5.74,1.22-1.79,.82-3.36,1.91-4.71,3.27-1.35,1.36-2.41,2.96-3.18,4.8-.77,1.83-1.15,3.76-1.15,5.76s.38,3.97,1.15,5.79c.77,1.82,1.83,3.42,3.18,4.8,1.35,1.38,2.92,2.47,4.71,3.27,1.79,.8,3.7,1.2,5.74,1.2s3.95-.4,5.74-1.2,3.36-1.89,4.71-3.27c1.35-1.38,2.41-2.98,3.18-4.8,.77-1.82,1.15-3.75,1.15-5.79s-.38-3.93-1.15-5.76c-.77-1.83-1.83-3.44-3.18-4.8-1.35-1.37-2.92-2.45-4.71-3.27-1.79-.82-3.7-1.22-5.74-1.22Zm-8.23,23.34h1.08c.28,0,.52-.02,.71-.07,.19-.05,.33-.16,.42-.33,.09-.17,.16-.42,.21-.75,.05-.33,.07-.76,.07-1.29v-12.09c0-1.07-.09-1.74-.28-2.02-.19-.28-.56-.42-1.13-.42h-1.08v-.75h8.89c.78,0,1.54,.09,2.26,.26,.72,.17,1.36,.46,1.93,.85,.56,.39,1.01,.89,1.34,1.48,.33,.6,.49,1.32,.49,2.17,0,1.35-.35,2.47-1.04,3.36-.69,.89-1.63,1.5-2.82,1.81l2.64,3.91c.34,.44,.7,.89,1.06,1.36,.36,.47,.72,.89,1.08,1.27,.36,.38,.71,.68,1.04,.92,.33,.24,.64,.35,.92,.35v.75h-3.06c-.44,0-.85-.2-1.25-.59-.39-.39-.83-.94-1.32-1.65-.49-.7-1.05-1.57-1.69-2.59-.64-1.02-1.44-2.16-2.38-3.41h-2.49v5.04c0,.53,.02,.96,.07,1.29,.05,.33,.12,.58,.21,.75,.09,.17,.24,.28,.42,.33,.19,.05,.42,.07,.71,.07h1.08v.75h-8.09v-.75Zm5.6-8.23h2.4c1.29,0,2.24-.44,2.87-1.32,.63-.88,.94-2.04,.94-3.48s-.4-2.46-1.2-3.06c-.8-.6-1.72-.89-2.75-.89h-2.26v8.75Z"/><path class="cls-1" d="M1493.93,223.19c0,1.1,.09,1.84,.26,2.21,.17,.38,.56,.56,1.15,.56h.94v.75h-7.81v-.75h1.22c.47,0,.78-.19,.92-.56s.21-1.11,.21-2.21v-14.73h-2.31c-.97,0-1.77,.35-2.4,1.04-.63,.69-.94,1.47-.94,2.35h-.75v-4.14h15.91v4.14h-.75c0-.88-.31-1.66-.94-2.35-.63-.69-1.43-1.04-2.4-1.04h-2.31v14.73Zm12.94-10.96h-.09v10.59c0,.97,.11,1.74,.33,2.31,.22,.56,.74,.85,1.55,.85h.66v.75h-6.12v-.75h.75c.78,0,1.26-.28,1.44-.85,.17-.56,.26-1.33,.26-2.31v-11.86c0-.6-.28-1.16-.85-1.69-.56-.53-1.15-.8-1.74-.8h-.61v-.75h5.41l7.39,14.82,7.72-14.82h4.75v.75h-1.04c-.63,0-1.06,.26-1.29,.78-.24,.52-.35,1.2-.35,2.05v11.91c0,1.1,.07,1.84,.21,2.21s.48,.56,1.01,.56h1.13v.75h-7.81v-.75h1.13c.53,0,.87-.19,1.01-.56s.21-1.11,.21-2.21v-10.96h-.09l-7.29,14.49h-.42l-7.25-14.49Z"/><path class="cls-1" d="M1546.35,206.96h3.01l-13.98,34.63h-3.01l13.98-34.63Z"/><path class="cls-1" d="M1567.01,206.96c-2.73,3.17-4.69,6.6-5.88,10.28-1.19,3.69-1.79,7.71-1.79,12.07s.6,8.38,1.79,12.07c1.19,3.69,3.15,7.11,5.88,10.28l-1.32,.99c-2.95-3.26-5.07-6.85-6.38-10.75-1.3-3.91-1.95-8.1-1.95-12.59s.65-8.68,1.95-12.59c1.3-3.91,3.43-7.49,6.38-10.75l1.32,.99Z"/><path class="cls-1" d="M1576.7,251.66c2.73-3.17,4.69-6.6,5.88-10.28,1.19-3.69,1.79-7.71,1.79-12.07s-.6-8.38-1.79-12.07c-1.19-3.69-3.15-7.11-5.88-10.28l1.32-.99c2.95,3.26,5.07,6.85,6.38,10.75,1.3,3.91,1.95,8.1,1.95,12.59s-.65,8.68-1.95,12.59c-1.3,3.91-3.43,7.49-6.38,10.75l-1.32-.99Z"/><path class="cls-1" d="M1600.04,206.53h8.99v1.98h-7.01v41.6h7.01v1.98h-8.99v-45.55Z"/><path class="cls-1" d="M1626.3,252.08h-8.99v-1.98h7.01v-41.6h-7.01v-1.98h8.99v45.55Z"/><path class="cls-1" d="M1649.03,252.08c-1.19,0-2.2-.09-3.04-.26-.83-.17-1.51-.49-2.02-.96-.52-.47-.89-1.14-1.13-2-.24-.86-.35-1.98-.35-3.37v-10.26c0-.85-.03-1.6-.09-2.26-.06-.66-.23-1.22-.52-1.69-.28-.47-.71-.86-1.29-1.18-.58-.31-1.39-.58-2.42-.8,1.04-.22,1.84-.49,2.42-.8,.58-.31,1.01-.71,1.29-1.18,.28-.47,.45-1.04,.52-1.69,.06-.66,.09-1.41,.09-2.26v-10.26c0-1.38,.12-2.5,.35-3.36,.24-.86,.61-1.53,1.13-2s1.19-.79,2.02-.96c.83-.17,1.84-.26,3.04-.26v1.6c-1.1,0-1.95,.12-2.56,.38-.61,.25-1.07,.61-1.36,1.08-.3,.47-.48,1.05-.54,1.74-.06,.69-.09,1.48-.09,2.35v8.94c0,.97-.03,1.83-.09,2.56-.06,.74-.2,1.37-.42,1.91-.22,.53-.55,.98-.99,1.34-.44,.36-1.02,.64-1.74,.82v.09c.72,.19,1.3,.46,1.74,.82,.44,.36,.77,.81,.99,1.34,.22,.53,.36,1.17,.42,1.91,.06,.74,.09,1.59,.09,2.56v8.94c0,.91,.02,1.71,.07,2.4,.05,.69,.21,1.27,.49,1.74,.28,.47,.74,.82,1.36,1.06,.63,.24,1.51,.35,2.64,.35v1.6Z"/><path class="cls-1" d="M1659.94,250.48c1.1,0,1.95-.13,2.56-.38,.61-.25,1.07-.61,1.36-1.08,.3-.47,.48-1.05,.54-1.74,.06-.69,.09-1.47,.09-2.35v-8.94c0-.97,.03-1.83,.09-2.56,.06-.74,.2-1.37,.42-1.91,.22-.53,.55-.98,.99-1.34,.44-.36,1.02-.64,1.74-.82v-.09c-.72-.19-1.3-.46-1.74-.82-.44-.36-.77-.81-.99-1.34-.22-.53-.36-1.17-.42-1.91-.06-.74-.09-1.59-.09-2.56v-8.94c0-.91-.02-1.71-.07-2.4-.05-.69-.21-1.27-.49-1.74-.28-.47-.74-.82-1.36-1.06-.63-.24-1.51-.35-2.64-.35v-1.6c1.19,0,2.2,.09,3.04,.26,.83,.17,1.51,.49,2.02,.96s.89,1.14,1.13,2c.24,.86,.35,1.98,.35,3.36v10.26c0,.85,.03,1.6,.09,2.26,.06,.66,.24,1.22,.52,1.69,.28,.47,.71,.86,1.29,1.18,.58,.31,1.39,.58,2.42,.8-1.04,.22-1.84,.49-2.42,.8-.58,.31-1.01,.7-1.29,1.18-.28,.47-.45,1.04-.52,1.69-.06,.66-.09,1.41-.09,2.26v10.26c0,1.38-.12,2.5-.35,3.37-.24,.86-.61,1.53-1.13,2-.52,.47-1.19,.79-2.02,.96-.83,.17-1.84,.26-3.04,.26v-1.6Z"/></g><g><path class="cls-1" d="M767.07,2.12h-4.5v-.72h13.59v.72h-4.5v30.24h5.62c2.16,0,3.97-.11,5.42-.32,1.45-.21,2.62-.65,3.49-1.33,.87-.68,1.49-1.64,1.87-2.9,.38-1.26,.56-2.95,.56-5.09h.72v10.35h-26.77v-.72h4.5V2.12Z"/><path class="cls-1" d="M798.08,15.35h-3.6v-.72h3.6c.72,0,1.42-.05,2.09-.16,.67-.1,1.24-.38,1.69-.83v18.72h3.6v.72h-10.98v-.72h3.6V15.35Zm-.41-9.81c0-.63,.22-1.17,.67-1.62,.45-.45,.99-.67,1.62-.67s1.17,.22,1.62,.67,.67,.99,.67,1.62-.22,1.17-.67,1.62-.99,.67-1.62,.67-1.17-.22-1.62-.67c-.45-.45-.67-.99-.67-1.62Z"/><path class="cls-1" d="M812.61,15.35h-3.55v-.72h3.55c.54,0,1,0,1.4-.02,.39-.01,.73-.05,1.01-.11,.29-.06,.53-.16,.74-.29,.21-.13,.42-.32,.63-.56v4.59h.09c.3-.54,.66-1.08,1.08-1.62,.42-.54,.91-1.04,1.49-1.49,.57-.45,1.2-.81,1.89-1.08,.69-.27,1.44-.41,2.25-.41,1.2,0,2.2,.14,2.99,.43,.79,.29,1.42,.66,1.89,1.12,.46,.47,.79,1.01,.99,1.62,.2,.62,.29,1.25,.29,1.91v13.63h3.55v.72h-10.89v-.72h3.55v-14.71c0-1.26-.26-2.12-.79-2.59-.53-.46-1.15-.7-1.87-.7-.96,0-1.8,.2-2.52,.61-.72,.4-1.34,.89-1.87,1.46-.53,.57-.96,1.15-1.31,1.75-.34,.6-.62,1.1-.83,1.49v12.69h3.42v.72h-10.75v-.72h3.55V15.35Z"/><path class="cls-1" d="M837.45,23.62c0-1.29,.23-2.54,.67-3.73,.45-1.2,1.09-2.27,1.91-3.2,.82-.93,1.83-1.67,3.01-2.23,1.18-.55,2.5-.83,3.94-.83s2.75,.28,3.94,.83c1.18,.56,2.19,1.3,3.02,2.23,.82,.93,1.46,2,1.91,3.2,.45,1.2,.67,2.45,.67,3.73s-.22,2.54-.67,3.74-1.09,2.26-1.91,3.19c-.83,.93-1.83,1.67-3.02,2.23-1.19,.55-2.5,.83-3.94,.83s-2.75-.28-3.94-.83c-1.19-.55-2.19-1.3-3.01-2.23-.83-.93-1.46-1.99-1.91-3.19-.45-1.2-.67-2.44-.67-3.74Zm14.76-1.75c0-.99-.04-1.93-.11-2.84-.08-.9-.28-1.69-.61-2.38-.33-.69-.85-1.24-1.55-1.67-.7-.42-1.69-.63-2.95-.63s-2.24,.21-2.95,.63c-.71,.42-1.22,.98-1.55,1.67-.33,.69-.53,1.48-.61,2.38-.08,.9-.11,1.85-.11,2.84v3.51c0,.99,.04,1.93,.11,2.83,.07,.9,.28,1.7,.61,2.38,.33,.69,.85,1.25,1.55,1.67,.7,.42,1.69,.63,2.95,.63s2.24-.21,2.95-.63c.71-.42,1.22-.97,1.55-1.67,.33-.69,.53-1.48,.61-2.38,.08-.9,.11-1.84,.11-2.83v-3.51Z"/><path class="cls-1" d="M864.86,15.35h-3.91v-.72c1.17,.03,2.17-.07,2.99-.31,.83-.24,1.51-.62,2.07-1.15,.55-.52,1-1.18,1.33-1.98,.33-.79,.58-1.75,.77-2.86h.54v6.3h6.21v.72h-6.21v15.12c0,.93,.19,1.57,.56,1.91,.37,.34,.92,.52,1.64,.52,.57,0,1.06-.11,1.46-.34,.41-.23,.75-.49,1.04-.79,.29-.3,.51-.61,.67-.94,.17-.33,.28-.58,.34-.76l.67,.13c-.09,.27-.24,.6-.45,.99-.21,.39-.51,.76-.9,1.12-.39,.36-.88,.67-1.46,.92-.58,.25-1.3,.38-2.14,.38-1.59,0-2.86-.29-3.8-.88-.95-.59-1.42-1.63-1.42-3.13V15.35Z"/><path class="cls-1" d="M890.69,29.43l4.23-10.75c.18-.48,.32-.89,.43-1.24,.1-.34,.16-.65,.16-.92,0-.45-.2-.76-.61-.92-.4-.17-1.07-.25-2-.25h-1.85v-.72h8.78v.72c-.72,0-1.29,.04-1.71,.13-.42,.09-.76,.25-1.04,.47-.27,.22-.5,.54-.67,.94-.18,.41-.41,.92-.67,1.55l-4,10.08c-.33,.78-.64,1.55-.92,2.29-.29,.75-.54,1.42-.76,2.02-.23,.6-.42,1.12-.58,1.55-.17,.44-.26,.74-.29,.92-.45,1.77-.85,3.28-1.19,4.52-.35,1.24-.72,2.26-1.12,3.06-.41,.79-.88,1.38-1.42,1.75-.54,.38-1.2,.56-1.98,.56-.72,0-1.31-.2-1.78-.61-.47-.4-.7-.98-.7-1.73,0-.63,.19-1.15,.58-1.55,.39-.4,.91-.61,1.57-.61,.57,0,1.03,.18,1.37,.54,.34,.36,.52,.75,.52,1.17,0,.15,0,.28-.02,.38-.02,.1-.02,.22-.02,.34,0,.3,.12,.45,.36,.45,.39,0,.77-.41,1.15-1.21,.38-.81,.71-1.74,1.01-2.79,.3-1.05,.55-2.07,.76-3.06,.21-.99,.36-1.66,.45-2.02l-8.33-19.17h-2.43v-.72h10.04v.72h-3.24l5.94,14.08Z"/><path class="cls-1" d="M906.03,15.35h-3.1v-.72h3.1c.72,0,1.42-.05,2.09-.16,.67-.1,1.24-.38,1.69-.83v4.59h.09c.21-.54,.5-1.08,.85-1.62,.36-.54,.8-1.03,1.33-1.46,.52-.43,1.12-.8,1.8-1.08,.67-.29,1.42-.43,2.23-.43,1.35,0,2.57,.32,3.67,.95,1.09,.63,2.04,1.43,2.83,2.41,.79,.97,1.4,2.05,1.82,3.22,.42,1.17,.63,2.31,.63,3.42,0,1.32-.22,2.58-.65,3.78-.44,1.2-1.06,2.27-1.87,3.19-.81,.93-1.79,1.67-2.92,2.21-1.14,.54-2.42,.81-3.83,.81-.78,0-1.49-.13-2.14-.38-.65-.25-1.22-.57-1.71-.95-.5-.37-.92-.79-1.26-1.24-.34-.45-.61-.87-.79-1.26h-.09v14.72h3.46v.72h-10.35v-.72h3.1V15.35Zm3.78,11.25c0,.87,.16,1.69,.47,2.45,.31,.76,.74,1.43,1.28,2,.54,.57,1.18,1.02,1.91,1.35,.74,.33,1.51,.49,2.32,.49,1.11,0,1.99-.16,2.63-.49,.64-.33,1.14-.87,1.49-1.62,.34-.75,.57-1.71,.67-2.88,.1-1.17,.16-2.59,.16-4.28,0-1.53-.05-2.88-.16-4.05-.11-1.17-.33-2.14-.67-2.9-.35-.76-.82-1.34-1.42-1.73-.6-.39-1.39-.58-2.38-.58-.93,0-1.79,.21-2.57,.63-.78,.42-1.45,.96-2,1.62-.56,.66-.98,1.41-1.28,2.25-.3,.84-.45,1.66-.45,2.47v5.27Z"/><path class="cls-1" d="M935.78,26.1c0,.81,.04,1.61,.11,2.41,.07,.79,.27,1.52,.59,2.18,.32,.66,.79,1.19,1.42,1.6,.63,.41,1.47,.61,2.52,.61,.93,0,1.8-.15,2.61-.45,.81-.3,1.53-.72,2.16-1.26,.63-.54,1.15-1.19,1.57-1.96,.42-.76,.71-1.61,.86-2.54h.72c-.36,2.07-1.25,3.74-2.68,5.02-1.43,1.28-3.17,1.91-5.24,1.91-1.32,0-2.53-.24-3.62-.72-1.1-.48-2.04-1.16-2.83-2.05-.8-.88-1.41-1.94-1.85-3.15-.43-1.21-.65-2.57-.65-4.07,0-1.08,.21-2.21,.63-3.4,.42-1.18,1-2.26,1.73-3.24,.74-.97,1.62-1.78,2.66-2.41,1.04-.63,2.17-.95,3.4-.95,1.32,0,2.48,.32,3.49,.97,1,.65,1.85,1.4,2.52,2.25s1.18,1.72,1.53,2.59c.34,.87,.52,1.55,.52,2.02,0,.27-.14,.41-.41,.41h-11.75v4.23Zm7.83-6.21c0-.72-.05-1.41-.16-2.07-.11-.66-.3-1.25-.58-1.78-.29-.53-.67-.94-1.15-1.24-.48-.3-1.1-.45-1.85-.45s-1.43,.15-1.96,.45c-.53,.3-.95,.71-1.26,1.24-.32,.53-.54,1.12-.68,1.78-.13,.66-.2,1.35-.2,2.07v1.26h7.51c.21,0,.32-.11,.32-.32v-.94Z"/><path class="cls-1" d="M971.46,2.12h-4.28v-.72h13.72c1.68,0,3.17,.2,4.46,.59,1.29,.39,2.38,.91,3.26,1.55,.88,.64,1.56,1.39,2.03,2.25,.46,.85,.7,1.73,.7,2.63,0,1.71-.32,3.07-.97,4.07-.65,1-1.42,1.77-2.34,2.29-.91,.53-1.9,.88-2.95,1.06-1.05,.18-1.98,.32-2.79,.41v.09c1.23,.09,2.44,.31,3.62,.65,1.19,.34,2.24,.84,3.17,1.48,.93,.65,1.68,1.46,2.25,2.45,.57,.99,.86,2.2,.86,3.64,0,1.53-.3,2.83-.9,3.89-.6,1.06-1.37,1.94-2.32,2.63-.95,.69-1.99,1.19-3.13,1.51-1.14,.32-2.24,.47-3.29,.47h-15.39v-.72h4.28V2.12Zm4.59,13.77h2.97c1.02,0,2-.07,2.92-.22,.93-.15,1.75-.47,2.48-.97,.72-.5,1.29-1.21,1.71-2.14,.42-.93,.63-2.16,.63-3.69,0-.6-.13-1.29-.38-2.07-.25-.78-.7-1.51-1.33-2.21-.63-.69-1.49-1.27-2.57-1.75-1.08-.48-2.45-.72-4.09-.72h-2.34V15.88Zm0,16.47h3.78c2.37,0,4.17-.71,5.4-2.12,1.23-1.41,1.84-3.43,1.84-6.08,0-1.26-.21-2.36-.63-3.31s-1-1.73-1.75-2.36-1.65-1.1-2.7-1.42c-1.05-.32-2.22-.47-3.51-.47h-2.43v15.75Z"/><path class="cls-1" d="M1014.35,30.64c0,.42,.07,.86,.22,1.31,.15,.45,.52,.67,1.12,.67,.51,0,.95-.18,1.3-.54,.36-.36,.7-.78,1.04-1.26l.5,.36c-.42,.75-.95,1.34-1.58,1.78-.63,.43-1.42,.65-2.38,.65-1.05,0-1.94-.27-2.66-.81-.72-.54-1.16-1.2-1.3-1.98h-.09c-.78,1.02-1.69,1.74-2.72,2.16-1.04,.42-2.3,.63-3.8,.63-1.77,0-3.15-.42-4.14-1.26-.99-.84-1.49-2.03-1.49-3.55,0-1.26,.38-2.3,1.12-3.11s1.69-1.46,2.81-1.94c1.12-.48,2.35-.81,3.67-.99,1.32-.18,2.56-.27,3.73-.27h.86v-5.54c0-.54-.11-.97-.34-1.3-.22-.33-.52-.59-.88-.79-.36-.2-.76-.33-1.19-.41-.44-.08-.86-.11-1.28-.11-.33,0-.74,.04-1.24,.11-.5,.08-.98,.19-1.44,.34-.46,.15-.86,.37-1.19,.65-.33,.29-.5,.62-.5,1.01,0,.27,.08,.46,.23,.58,.15,.12,.32,.25,.52,.38,.19,.13,.37,.32,.52,.54,.15,.23,.22,.59,.22,1.1,0,.54-.2,.99-.59,1.35-.39,.36-.88,.54-1.49,.54s-1.12-.23-1.46-.68c-.35-.45-.52-1.06-.52-1.84,0-.57,.15-1.14,.45-1.71,.3-.57,.74-1.09,1.33-1.55,.59-.46,1.3-.84,2.16-1.12,.85-.29,1.85-.43,2.99-.43,.84,0,1.7,.11,2.59,.34,.88,.22,1.69,.56,2.41,.99,.72,.44,1.31,.97,1.78,1.62,.46,.65,.7,1.4,.7,2.27v11.79Zm-4.55-7.42c-.81,0-1.65,.03-2.52,.09-.87,.06-1.66,.25-2.38,.56-.72,.31-1.31,.8-1.78,1.46-.47,.66-.7,1.59-.7,2.79,0,.63,.04,1.21,.11,1.76,.07,.54,.22,1,.45,1.39,.23,.39,.55,.7,.99,.92,.43,.23,1.01,.34,1.73,.34,.84,0,1.57-.13,2.18-.4,.61-.27,1.12-.59,1.51-.97,.39-.37,.68-.75,.88-1.12,.2-.37,.29-.68,.29-.92v-5.89h-.77Z"/><path class="cls-1" d="M1025.6,15.35h-3.6v-.72h3.6c.72,0,1.42-.05,2.09-.16,.67-.1,1.24-.38,1.69-.83V29.75c0,.96,.25,1.73,.74,2.29,.49,.57,1.18,.85,2.05,.85,.78,0,1.53-.2,2.25-.61,.72-.4,1.35-.93,1.89-1.57,.54-.64,.97-1.38,1.3-2.21,.33-.82,.5-1.66,.5-2.5V15.35h-3.56v-.72h3.56c.72,0,1.42-.05,2.09-.16,.68-.1,1.24-.38,1.69-.83v18.72h3.6v.72h-7.38v-4.09h-.09c-.09,.27-.29,.66-.59,1.17-.3,.51-.71,1.02-1.22,1.53-.51,.51-1.14,.96-1.89,1.35-.75,.39-1.62,.58-2.61,.58-1.14,0-2.09-.13-2.86-.41-.76-.27-1.39-.64-1.89-1.1-.5-.46-.85-1-1.06-1.6-.21-.6-.31-1.23-.31-1.89V15.35Z"/><path class="cls-1" d="M1054.53,26.1c0,.81,.04,1.61,.11,2.41,.07,.79,.27,1.52,.58,2.18,.32,.66,.79,1.19,1.42,1.6,.63,.41,1.47,.61,2.52,.61,.93,0,1.8-.15,2.61-.45,.81-.3,1.53-.72,2.16-1.26,.63-.54,1.15-1.19,1.57-1.96,.42-.76,.71-1.61,.86-2.54h.72c-.36,2.07-1.25,3.74-2.68,5.02-1.43,1.28-3.17,1.91-5.24,1.91-1.32,0-2.53-.24-3.62-.72-1.1-.48-2.04-1.16-2.83-2.05-.8-.88-1.41-1.94-1.85-3.15-.43-1.21-.65-2.57-.65-4.07,0-1.08,.21-2.21,.63-3.4,.42-1.18,1-2.26,1.73-3.24,.74-.97,1.62-1.78,2.66-2.41,1.04-.63,2.17-.95,3.4-.95,1.32,0,2.48,.32,3.49,.97,1,.65,1.85,1.4,2.52,2.25s1.18,1.72,1.53,2.59c.34,.87,.52,1.55,.52,2.02,0,.27-.14,.41-.41,.41h-11.75v4.23Zm7.83-6.21c0-.72-.05-1.41-.16-2.07-.11-.66-.3-1.25-.59-1.78-.29-.53-.67-.94-1.15-1.24-.48-.3-1.1-.45-1.85-.45s-1.43,.15-1.96,.45c-.53,.3-.95,.71-1.26,1.24-.32,.53-.54,1.12-.68,1.78-.13,.66-.2,1.35-.2,2.07v1.26h7.51c.21,0,.32-.11,.32-.32v-.94Z"/><path class="cls-1" d="M1075.1,15.35h-3.78v-.72h3.78c.72,0,1.42-.05,2.09-.16,.67-.1,1.24-.38,1.69-.83v5.31h.09c.12-.51,.32-1.07,.61-1.69,.29-.62,.66-1.19,1.12-1.73,.46-.54,1.03-.99,1.69-1.35,.66-.36,1.46-.54,2.38-.54,.84,0,1.54,.25,2.12,.74,.57,.5,.85,1.13,.85,1.91,0,.6-.17,1.1-.52,1.51-.35,.41-.86,.61-1.55,.61-.75,0-1.27-.18-1.55-.54-.29-.36-.43-.84-.43-1.44,0-.51,.11-.92,.32-1.24,.21-.31,.43-.55,.67-.7-.12-.09-.33-.13-.63-.13-.45,0-.98,.18-1.58,.54-.6,.36-1.17,.91-1.71,1.64-.54,.74-.99,1.65-1.35,2.75-.36,1.09-.54,2.38-.54,3.85v9.22h4.09v.72h-11.66v-.72h3.78V15.35Z"/><path class="cls-1" d="M1109.97,2.12h-4.28v-.72h13.72c1.68,0,3.17,.2,4.46,.59,1.29,.39,2.38,.91,3.26,1.55,.88,.64,1.56,1.39,2.03,2.25,.46,.85,.7,1.73,.7,2.63,0,1.71-.32,3.07-.97,4.07-.65,1-1.42,1.77-2.34,2.29-.92,.53-1.9,.88-2.95,1.06-1.05,.18-1.98,.32-2.79,.41v.09c1.23,.09,2.44,.31,3.62,.65,1.19,.34,2.24,.84,3.17,1.48,.93,.65,1.68,1.46,2.25,2.45,.57,.99,.86,2.2,.86,3.64,0,1.53-.3,2.83-.9,3.89-.6,1.06-1.37,1.94-2.32,2.63-.95,.69-1.99,1.19-3.13,1.51-1.14,.32-2.24,.47-3.29,.47h-15.39v-.72h4.28V2.12Zm4.59,13.77h2.97c1.02,0,2-.07,2.92-.22,.93-.15,1.75-.47,2.48-.97,.72-.5,1.29-1.21,1.71-2.14,.42-.93,.63-2.16,.63-3.69,0-.6-.13-1.29-.38-2.07-.25-.78-.7-1.51-1.33-2.21-.63-.69-1.49-1.27-2.57-1.75-1.08-.48-2.45-.72-4.09-.72h-2.34V15.88Zm0,16.47h3.78c2.37,0,4.17-.71,5.4-2.12,1.23-1.41,1.84-3.43,1.84-6.08,0-1.26-.21-2.36-.63-3.31-.42-.95-1-1.73-1.75-2.36s-1.65-1.1-2.7-1.42c-1.05-.32-2.22-.47-3.51-.47h-2.43v15.75Z"/><path class="cls-1" d="M1136.7,23.62c0-1.29,.22-2.54,.67-3.73,.45-1.2,1.09-2.27,1.91-3.2,.82-.93,1.83-1.67,3.01-2.23,1.18-.55,2.5-.83,3.94-.83s2.75,.28,3.94,.83c1.18,.56,2.19,1.3,3.01,2.23s1.46,2,1.91,3.2c.45,1.2,.67,2.45,.67,3.73s-.22,2.54-.67,3.74-1.09,2.26-1.91,3.19c-.83,.93-1.83,1.67-3.01,2.23-1.19,.55-2.5,.83-3.94,.83s-2.75-.28-3.94-.83c-1.19-.55-2.19-1.3-3.01-2.23-.83-.93-1.46-1.99-1.91-3.19s-.67-2.44-.67-3.74Zm14.76-1.75c0-.99-.04-1.93-.11-2.84-.08-.9-.28-1.69-.61-2.38-.33-.69-.85-1.24-1.55-1.67-.71-.42-1.69-.63-2.95-.63s-2.24,.21-2.95,.63c-.71,.42-1.22,.98-1.55,1.67-.33,.69-.53,1.48-.61,2.38-.08,.9-.11,1.85-.11,2.84v3.51c0,.99,.04,1.93,.11,2.83,.07,.9,.28,1.7,.61,2.38,.33,.69,.85,1.25,1.55,1.67,.7,.42,1.69,.63,2.95,.63s2.24-.21,2.95-.63,1.22-.97,1.55-1.67c.33-.69,.53-1.48,.61-2.38,.07-.9,.11-1.84,.11-2.83v-3.51Z"/><path class="cls-1" d="M1177.43,29.79h-.09c-.18,.39-.44,.81-.79,1.26-.35,.45-.76,.86-1.26,1.24-.5,.38-1.07,.69-1.71,.95-.65,.25-1.36,.38-2.14,.38-1.41,0-2.69-.27-3.83-.81-1.14-.54-2.12-1.27-2.92-2.21-.81-.93-1.43-1.99-1.87-3.19-.43-1.2-.65-2.46-.65-3.78,0-1.11,.21-2.25,.63-3.42,.42-1.17,1.03-2.24,1.82-3.22,.79-.97,1.74-1.78,2.84-2.41,1.09-.63,2.32-.95,3.67-.95,.81,0,1.55,.14,2.23,.43,.67,.29,1.28,.65,1.8,1.08,.53,.44,.97,.92,1.33,1.46,.36,.54,.64,1.08,.85,1.62h.09V1.85h-3.6v-.72h3.6c.72,0,1.42-.06,2.09-.18,.67-.12,1.24-.43,1.69-.95V32.36h3.11v.72h-6.89v-3.29Zm0-8.46c0-.81-.15-1.63-.45-2.47-.3-.84-.73-1.59-1.28-2.25-.55-.66-1.22-1.2-2-1.62-.78-.42-1.64-.63-2.57-.63-.99,0-1.79,.2-2.38,.58-.6,.39-1.07,.97-1.42,1.73-.34,.76-.57,1.73-.67,2.9-.11,1.17-.16,2.52-.16,4.05,0,1.68,.05,3.11,.16,4.28,.11,1.17,.33,2.13,.67,2.88,.34,.75,.84,1.29,1.49,1.62,.64,.33,1.52,.49,2.63,.49,.75,0,1.49-.15,2.23-.45,.73-.3,1.38-.73,1.93-1.28,.55-.55,1-1.22,1.33-2,.33-.78,.49-1.63,.49-2.56v-5.27Z"/><path class="cls-1" d="M1188.72,23.62c0-1.29,.22-2.54,.67-3.73,.45-1.2,1.09-2.27,1.91-3.2,.82-.93,1.83-1.67,3.01-2.23,1.18-.55,2.5-.83,3.94-.83s2.75,.28,3.94,.83c1.18,.56,2.19,1.3,3.01,2.23s1.46,2,1.91,3.2c.45,1.2,.67,2.45,.67,3.73s-.22,2.54-.67,3.74-1.09,2.26-1.91,3.19c-.83,.93-1.83,1.67-3.01,2.23-1.19,.55-2.5,.83-3.94,.83s-2.75-.28-3.94-.83c-1.19-.55-2.19-1.3-3.01-2.23-.83-.93-1.46-1.99-1.91-3.19s-.67-2.44-.67-3.74Zm14.76-1.75c0-.99-.04-1.93-.11-2.84-.08-.9-.28-1.69-.61-2.38-.33-.69-.85-1.24-1.55-1.67-.71-.42-1.69-.63-2.95-.63s-2.24,.21-2.95,.63c-.71,.42-1.22,.98-1.55,1.67-.33,.69-.53,1.48-.61,2.38-.08,.9-.11,1.85-.11,2.84v3.51c0,.99,.04,1.93,.11,2.83,.07,.9,.28,1.7,.61,2.38,.33,.69,.85,1.25,1.55,1.67,.7,.42,1.69,.63,2.95,.63s2.24-.21,2.95-.63,1.22-.97,1.55-1.67c.33-.69,.53-1.48,.61-2.38,.07-.9,.11-1.84,.11-2.83v-3.51Z"/><path class="cls-1" d="M1215.9,15.35h-3.55v-.72h3.55c.54,0,1,0,1.4-.02,.39-.01,.73-.05,1.01-.11,.28-.06,.53-.16,.74-.29,.21-.13,.42-.32,.63-.56v4.59h.09c.3-.54,.66-1.08,1.08-1.62,.42-.54,.91-1.04,1.49-1.49,.57-.45,1.2-.81,1.89-1.08,.69-.27,1.44-.41,2.25-.41,1.2,0,2.2,.14,2.99,.43,.79,.29,1.42,.66,1.89,1.12,.46,.47,.79,1.01,.99,1.62,.19,.62,.29,1.25,.29,1.91v13.63h3.55v.72h-10.89v-.72h3.55v-14.71c0-1.26-.26-2.12-.79-2.59-.53-.46-1.15-.7-1.87-.7-.96,0-1.8,.2-2.52,.61-.72,.4-1.34,.89-1.87,1.46-.53,.57-.96,1.15-1.3,1.75-.35,.6-.62,1.1-.83,1.49v12.69h3.42v.72h-10.75v-.72h3.55V15.35Z"/><path class="cls-1" d="M1243.4,15.35h-3.6v-.72h3.6c.72,0,1.42-.05,2.09-.16,.68-.1,1.24-.38,1.69-.83v18.72h3.6v.72h-10.98v-.72h3.6V15.35Zm-.41-9.81c0-.63,.22-1.17,.67-1.62s.99-.67,1.62-.67,1.17,.22,1.62,.67,.67,.99,.67,1.62-.22,1.17-.67,1.62-.99,.67-1.62,.67-1.17-.22-1.62-.67-.67-.99-.67-1.62Z"/></g></g></g></svg>