<?xml version="1.0" encoding="UTF-8"?><svg id="_圖層_2" xmlns="http://www.w3.org/2000/svg" viewBox="0 0 100 100"><defs><style>.cls-1{fill:none;}.cls-2{fill:#c9a063;}</style></defs><g id="_02"><g><g><path class="cls-2" d="M66.53,65.52s-.08,1.34-.17,2.02c-.67,7.65-1.51,11.1-2.86,12.44-1.18,1.18-2.44,1.51-4.16,1.64-1.47,.13-4.03,.08-6.68,.04-.09-1.43-.76-3.32-1.64-4.58,2.61,.21,5.25,.25,6.39,.25,.84,0,1.34-.04,1.85-.42,.76-.63,1.39-2.73,1.85-6.9h-11.05c-2.1,5.42-6.56,9.5-17.15,11.81-.38-1.31-1.59-3.28-2.61-4.37,8.2-1.6,12.11-4.08,14.08-7.44h-12.28v-4.5h13.91c.17-.92,.34-1.89,.46-2.9h-11.56v-17.95h30.22v17.95h-13.41c-.13,1.01-.29,1.93-.46,2.9h15.26Zm-26.61-13.83h7.4v-2.9h-7.4v2.9Zm0,6.81h7.4v-2.94h-7.4v2.94Zm19.97-9.71h-7.52v2.9h7.52v-2.9Zm0,6.77h-7.52v2.94h7.52v-2.94Z"/><path class="cls-2" d="M78.22,55.68H21.78c-.97,0-1.83-.65-2.09-1.59-.26-.94,.14-1.94,.98-2.44l20.81-12.42c6.75-3.93,10.83-6.61,10.83-10.8,0-1.34,.02-4.26-1.13-5.41-.22-.22-.62-.52-1.49-.52-.7,0-1.04,.26-1.26,.49-.66,.68-1.44,2.36-1.36,6.57v.35s-4.33,0-4.33,0v-.27c-.06-2.96,.15-7.19,2.6-9.68,1.14-1.17,2.65-1.78,4.35-1.78,1.81,0,3.39,.62,4.56,1.79,2.42,2.43,2.4,6.5,2.39,8.24,0,3.13-1.19,5.59-3.08,7.69l25.79,15.77c.83,.51,1.22,1.5,.96,2.44-.26,.93-1.11,1.58-2.09,1.58Zm-48.59-4.33h40.9l-20.36-12.45c-1.96,1.43-4.2,2.74-6.49,4.07l-14.05,8.39Z"/></g><rect class="cls-1" width="100" height="100"/></g></g></svg>