<?xml version="1.0" encoding="UTF-8"?><svg id="_圖層_2" xmlns="http://www.w3.org/2000/svg" viewBox="0 0 100 100"><defs><style>.cls-1{fill:none;}.cls-2,.cls-3{fill:#c9a063;}.cls-3{fill-rule:evenodd;}</style></defs><g id="_02"><g><g><g><path class="cls-3" d="M16.11,28.52c-1.3-1.29-2.57-2.56-3.84-3.83,19.95-19.57,53.85-20.83,75.47-.72-1.27,1.27-2.55,2.55-3.85,3.84-9.64-8.51-20.97-12.99-33.97-12.87-13.01,.12-24.26,4.81-33.81,13.57Z"/><path class="cls-3" d="M26.39,38.81c-1.3-1.3-2.57-2.57-3.84-3.84,14.49-14.11,39.26-14.97,54.9-.7-1.27,1.27-2.55,2.55-3.85,3.85-6.77-5.77-14.69-8.77-23.69-8.66-9.01,.12-16.84,3.34-23.52,9.34Z"/><path class="cls-3" d="M32.56,44.97c9.97-9.13,25.34-8.89,34.87-.63-1.27,1.27-2.55,2.55-3.87,3.87-3.96-3.09-8.54-4.69-13.65-4.58-5.12,.11-9.62,1.91-13.48,5.21-1.29-1.29-2.57-2.57-3.87-3.86Z"/><path class="cls-2" d="M58.74,53.54c-2.22-2.21-5.28-3.58-8.67-3.59-3.47,0-6.6,1.41-8.85,3.68l8.8,8.66,8.72-8.76Z"/></g><g><path class="cls-2" d="M28.85,75.82h3.01l1.18,7.19c.22,1.55,.46,3.13,.68,4.7h.08c.3-1.57,.62-3.17,.94-4.7l1.71-7.19h2.51l1.71,7.19c.32,1.51,.62,3.11,.93,4.7h.1c.22-1.59,.44-3.17,.66-4.7l1.15-7.19h2.81l-2.73,14.73h-3.66l-1.65-7.29c-.24-1.15-.46-2.29-.64-3.4h-.08c-.2,1.11-.4,2.25-.64,3.4l-1.61,7.29h-3.61l-2.85-14.73Z"/><path class="cls-2" d="M48.53,75.82h2.95v14.73h-2.95v-14.73Z"/><path class="cls-2" d="M55.1,75.82h9.08v2.45h-6.13v3.84h5.24v2.47h-5.24v5.97h-2.95v-14.73Z"/><path class="cls-2" d="M66.75,75.82h2.95v14.73h-2.95v-14.73Z"/></g></g><rect class="cls-1" width="100" height="100"/></g></g></svg>