<?xml version="1.0" encoding="UTF-8"?><svg id="_圖層_2" xmlns="http://www.w3.org/2000/svg" viewBox="0 0 100 100"><defs><style>.cls-1{fill:none;}.cls-2{fill:#c9a063;}</style></defs><g id="_02"><g><g><path class="cls-2" d="M32.61,30.87c-6.27,0-11.36-5.1-11.36-11.36s5.1-11.37,11.36-11.37,11.37,5.1,11.37,11.37-5.1,11.36-11.37,11.36Zm0-17.42c-3.34,0-6.05,2.72-6.05,6.05s2.72,6.05,6.05,6.05,6.06-2.71,6.06-6.05-2.72-6.05-6.06-6.05Z"/><path class="cls-2" d="M30.03,81.25l-13.07-43.56c-.24-.8-.09-1.67,.41-2.35,.5-.67,1.29-1.07,2.13-1.07h26.13c.83,0,1.61,.39,2.12,1.05,.5,.66,.66,1.52,.44,2.32l-7.35,26.13-5.11-1.44,6.4-22.76H23.08l12.04,40.14-5.09,1.53Z"/><rect class="cls-2" x="19.51" y="86.55" width="26.13" height="5.31"/><path class="cls-2" d="M67.46,30.87c-6.27,0-11.36-5.1-11.36-11.36s5.1-11.37,11.36-11.37,11.36,5.1,11.36,11.37-5.1,11.36-11.36,11.36Zm0-17.42c-3.34,0-6.05,2.72-6.05,6.05s2.72,6.05,6.05,6.05,6.05-2.71,6.05-6.05-2.72-6.05-6.05-6.05Z"/><path class="cls-2" d="M80.49,91.86h-26.13c-.87,0-1.69-.43-2.18-1.14-.5-.72-.61-1.63-.3-2.44l3.27-8.71,4.97,1.86-1.92,5.12h19.25l-4.47-31.82c-.05-.36-.02-.73,.07-1.09l3.95-14.05h-19.06l12.04,40.14-5.09,1.53-13.07-43.56c-.24-.8-.09-1.67,.41-2.35,.5-.67,1.29-1.07,2.13-1.07h26.13c.83,0,1.61,.39,2.12,1.05,.5,.66,.66,1.52,.44,2.32l-4.75,16.89,4.82,34.3c.11,.76-.12,1.53-.63,2.11-.5,.58-1.23,.91-2,.91Z"/></g><rect class="cls-1" width="100" height="100"/></g></g></svg>