<?xml version="1.0" encoding="UTF-8"?><svg id="_圖層_2" xmlns="http://www.w3.org/2000/svg" viewBox="0 0 100 100"><defs><style>.cls-1{fill:none;}.cls-2{fill:#c9a063;}</style></defs><g id="_02"><g><g><g><path class="cls-2" d="M9.78,87.05v-2.66c0-24.92,7.44-34.18,27.44-34.18h2.65v26.46h-5.31v-21.09c-14.2,.68-19.05,7.27-19.45,26.15l51.71-.02v5.31l-57.05,.02Z"/><rect class="cls-2" x="12.86" y="74.51" width="54.04" height="4.33"/></g><path class="cls-2" d="M79.07,35.4H40.97v-2.66c0-3.94,3.22-7.23,6.33-10.42,2.26-2.32,4.82-4.94,4.82-6.72v-2.66h38.1v2.66c0,3.94-3.22,7.24-6.33,10.42-2.26,2.32-4.82,4.94-4.82,6.72v2.66Zm-31.61-5.31h26.78c1.01-2.81,3.46-5.32,5.85-7.77,1.29-1.32,2.69-2.75,3.64-4.06h-26.78c-1.01,2.81-3.46,5.32-5.85,7.77-1.29,1.32-2.68,2.75-3.64,4.06Z"/><polygon class="cls-2" points="59.92 52.68 41.03 44.67 43.11 39.78 59.92 46.92 76.74 39.78 78.81 44.67 59.92 52.68"/></g><rect class="cls-1" width="100" height="100"/></g></g></svg>