<?xml version="1.0" encoding="UTF-8"?><svg id="_圖層_2" xmlns="http://www.w3.org/2000/svg" viewBox="0 0 100 100"><defs><style>.cls-1{fill:none;}.cls-2{fill:#c9a063;}</style></defs><g id="_02"><g><g><g><path class="cls-2" d="M53.11,92.13h-5.31v-10.14l2.31-.3c9.8-1.28,12.37-9.8,13.05-14.24H25.63v-27.34h-8.82v52.02h-5.31V34.81H30.94v27.34h37.77v2.66c0,6.47-3.33,18.81-15.6,21.74v5.6Z"/><polygon class="cls-2" points="68.71 64.8 63.4 64.8 63.4 59.46 28.28 59.46 28.28 54.15 68.71 54.15 68.71 64.8"/></g><path class="cls-2" d="M77.35,30.32H39.24v-2.66c0-3.94,3.22-7.23,6.33-10.42,2.26-2.32,4.82-4.94,4.82-6.72v-2.66h38.1v2.66c0,3.94-3.22,7.23-6.33,10.42-2.26,2.32-4.82,4.94-4.82,6.72v2.66Zm-31.61-5.31h26.79c1.01-2.81,3.46-5.32,5.85-7.77,1.29-1.32,2.68-2.75,3.64-4.06h-26.79c-1.01,2.81-3.46,5.32-5.85,7.77-1.29,1.32-2.68,2.75-3.64,4.06Z"/><polygon class="cls-2" points="58.2 47.6 39.3 39.59 41.38 34.7 58.2 41.83 75.01 34.7 77.09 39.59 58.2 47.6"/></g><rect class="cls-1" width="100" height="100"/></g></g></svg>