<?xml version="1.0" encoding="UTF-8"?><svg id="_圖層_2" xmlns="http://www.w3.org/2000/svg" viewBox="0 0 100 100"><defs><style>.cls-1{fill:none;}.cls-2{fill:#c9a063;}</style></defs><g id="_02"><g><g><path class="cls-2" d="M66.87,89.53h-5.31V15.78H16.43V89.53h-5.31V13.12c0-1.47,1.19-2.66,2.65-2.66h50.44c1.47,0,2.65,1.19,2.65,2.66V89.53Z"/><path class="cls-2" d="M34.36,45.41c-4.45,0-8.06-3.62-8.06-8.06s3.62-8.06,8.06-8.06,8.06,3.62,8.06,8.06-3.61,8.06-8.06,8.06Zm0-10.81c-1.52,0-2.75,1.23-2.75,2.75s1.24,2.75,2.75,2.75,2.75-1.23,2.75-2.75-1.24-2.75-2.75-2.75Z"/><path class="cls-2" d="M45.19,74.64c0,.06,.02,.12,.02,.19,0,5.1-4.15,9.24-9.24,9.24s-9.24-4.14-9.24-9.24c0-2.62,1.1-4.97,2.86-6.65v-6.4c-4.83,2.37-8.16,7.32-8.16,13.06,0,8.02,6.53,14.55,14.55,14.55s14.55-6.53,14.55-14.55c0-.06,0-.12,0-.19h-5.32Z"/><path class="cls-2" d="M57.53,89.53h-5.31v-16.97h-17.4c-1.47,0-2.65-1.19-2.65-2.66v-14.63l-10.74,5.37-2.37-4.75,14.58-7.29c.82-.41,1.8-.37,2.58,.12,.78,.48,1.26,1.34,1.26,2.26v16.27h17.4c1.47,0,2.65,1.19,2.65,2.66v19.63Z"/><g><path class="cls-2" d="M84.53,42.07l-4.41-6.29-4.41,6.29-4.35-3.05,6.58-9.38c.99-1.42,3.35-1.42,4.35,0l6.58,9.38-4.35,3.05Z"/><path class="cls-2" d="M80.12,74.59c-.87,0-1.68-.42-2.17-1.13l-6.58-9.38,4.35-3.05,4.41,6.29,4.41-6.29,4.35,3.05-6.58,9.38c-.5,.71-1.31,1.13-2.17,1.13Z"/></g></g><rect class="cls-1" width="100" height="100"/></g></g></svg>