<?xml version="1.0" encoding="UTF-8"?><svg id="_圖層_2" xmlns="http://www.w3.org/2000/svg" viewBox="0 0 312.28 241.85"><defs><style>.cls-1{fill:#c9a063;}</style></defs><g id="_圖層_1-2"><g><g><path class="cls-1" d="M53.38,46.77h1.58c0,4.15,.58,7.76,1.73,10.83,1.15,3.07,2.7,5.6,4.65,7.61,1.94,2.01,4.23,3.51,6.87,4.5,2.64,.99,5.44,1.48,8.4,1.48,2.37,0,4.56-.36,6.58-1.09,2.01-.72,3.72-1.75,5.14-3.07,1.42-1.32,2.54-2.88,3.36-4.7,.82-1.81,1.24-3.84,1.24-6.08,0-2.57-.33-4.71-.99-6.43-.66-1.71-1.68-3.15-3.06-4.3-1.38-1.15-3.13-2.06-5.24-2.72-2.11-.66-4.58-1.22-7.42-1.68-3.89-.59-7.27-1.29-10.14-2.08-2.87-.79-5.24-1.94-7.12-3.46-1.88-1.52-3.28-3.54-4.2-6.08-.92-2.54-1.38-5.88-1.38-10.04,0-2.83,.45-5.44,1.34-7.81,.89-2.37,2.14-4.42,3.76-6.13,1.61-1.71,3.56-3.07,5.83-4.05,2.27-.99,4.8-1.48,7.56-1.48,2.57,0,4.76,.31,6.58,.94,1.81,.63,3.38,1.32,4.7,2.08,1.32,.76,2.46,1.45,3.41,2.08,.95,.63,1.86,.94,2.72,.94,1.12,0,1.84-.46,2.18-1.38,.33-.92,.56-1.71,.69-2.37h1.58V23.04h-1.58c-.2-2.83-.76-5.54-1.68-8.11-.92-2.57-2.21-4.84-3.86-6.82-1.65-1.98-3.69-3.56-6.13-4.75-2.44-1.19-5.31-1.78-8.6-1.78-4.22,0-7.66,1.3-10.33,3.91-2.67,2.6-4,6.18-4,10.73,0,2.24,.26,4.09,.79,5.54,.53,1.45,1.52,2.67,2.97,3.66,1.45,.99,3.46,1.83,6.03,2.52,2.57,.69,5.9,1.4,9.99,2.13,3.62,.66,6.72,1.47,9.29,2.42,2.57,.96,4.68,2.21,6.33,3.76,1.65,1.55,2.85,3.45,3.61,5.69,.76,2.24,1.14,4.98,1.14,8.21s-.44,6.23-1.33,9c-.89,2.77-2.22,5.16-4,7.17-1.78,2.01-4.02,3.59-6.72,4.75-2.7,1.15-5.83,1.73-9.39,1.73-2.51,0-4.71-.26-6.62-.79-1.91-.53-3.61-1.12-5.09-1.78-1.48-.66-2.8-1.25-3.96-1.78-1.15-.53-2.19-.79-3.11-.79-1.19,0-1.9,.48-2.13,1.43-.23,.96-.35,1.86-.35,2.72l-1.58-.1v-24.92Z"/><path class="cls-1" d="M177.87,58.24c-.73,1.52-1.52,3.1-2.37,4.75-.86,1.65-1.86,3.16-3.02,4.55-1.15,1.38-2.47,2.54-3.96,3.46-1.48,.92-3.18,1.38-5.09,1.38-2.04,0-4.53-1.09-7.47-3.26-2.93-2.18-5.88-5.31-8.85-9.39-1.06,1.45-2.26,2.93-3.61,4.45-1.35,1.52-2.82,2.88-4.4,4.1-1.58,1.22-3.28,2.21-5.09,2.97-1.81,.76-3.68,1.14-5.59,1.14-2.18,0-4.27-.45-6.28-1.33-2.01-.89-3.77-2.09-5.29-3.61-1.52-1.52-2.72-3.28-3.61-5.29-.89-2.01-1.33-4.1-1.33-6.28,0-2.31,.56-4.46,1.68-6.48,1.12-2.01,2.55-3.87,4.3-5.59,1.75-1.71,3.64-3.26,5.69-4.65,2.04-1.38,3.96-2.57,5.73-3.56-.66-1.05-1.4-2.21-2.22-3.46-.83-1.25-1.58-2.55-2.27-3.91-.69-1.35-1.27-2.7-1.73-4.05-.46-1.35-.69-2.68-.69-4,0-1.98,.38-3.82,1.14-5.54,.76-1.71,1.78-3.2,3.07-4.45,1.29-1.25,2.78-2.24,4.5-2.97,1.71-.72,3.56-1.09,5.54-1.09,3.43,0,6.16,.97,8.21,2.92,2.04,1.94,3.06,4.6,3.06,7.96s-.96,6.38-2.87,8.65c-1.91,2.27-4.29,4.27-7.12,5.98,2.31,3.3,4.61,6.54,6.92,9.74,2.31,3.2,4.67,6.38,7.1,9.54,.85-1.05,1.77-2.32,2.76-3.81,.98-1.48,2.07-2.9,3.25-4.25,1.18-1.35,2.45-2.5,3.79-3.46,1.35-.95,2.77-1.43,4.28-1.43,1.71,0,3.17,.54,4.38,1.63,1.21,1.09,1.82,2.69,1.82,4.79,0,1.65-.49,2.97-1.47,3.96-.98,.99-2.32,1.48-4.01,1.48-1.5,0-2.65-.49-3.43-1.48-.78-.99-1.17-2.08-1.17-3.26,0-1.65-.33-2.47-.99-2.47-.2,0-.59,.26-1.19,.79-.59,.53-1.29,1.24-2.08,2.13-.79,.89-1.63,1.91-2.52,3.07-.89,1.15-1.73,2.39-2.52,3.71,1.25,1.58,2.52,3.15,3.81,4.7,1.29,1.55,2.6,2.93,3.96,4.15,1.35,1.22,2.7,2.21,4.05,2.97,1.35,.76,2.72,1.14,4.1,1.14,.99,0,1.89-.3,2.72-.89,.82-.59,1.58-1.29,2.27-2.08,.69-.79,1.29-1.61,1.78-2.47,.5-.86,.84-1.55,1.04-2.08l1.29,.49Zm-57.65-8.7c0,1.65,.4,3.45,1.19,5.39,.79,1.95,1.84,3.77,3.16,5.49,1.32,1.72,2.83,3.15,4.55,4.3,1.71,1.15,3.46,1.73,5.24,1.73,1.45,0,2.73-.21,3.86-.64,1.12-.43,2.13-1,3.02-1.73,.89-.72,1.73-1.58,2.52-2.57,.79-.99,1.58-2.04,2.37-3.16-2.83-3.56-5.55-7.15-8.16-10.78-2.61-3.62-5.23-7.25-7.86-10.88-1.38,.92-2.69,1.76-3.91,2.52-1.22,.76-2.27,1.6-3.16,2.52-.89,.92-1.58,1.99-2.08,3.21-.49,1.22-.74,2.75-.74,4.6Zm26.1-32.43c0-3.03-.86-5.36-2.57-6.97-1.71-1.61-3.82-2.42-6.33-2.42-2.24,0-4.02,.69-5.34,2.08-1.32,1.38-1.98,3.23-1.98,5.54,0,1.12,.21,2.32,.64,3.61,.43,1.29,.99,2.57,1.68,3.86,.69,1.29,1.43,2.57,2.23,3.86,.79,1.29,1.58,2.52,2.37,3.71,2.57-1.19,4.76-2.95,6.58-5.29,1.81-2.34,2.72-4.99,2.72-7.96Z"/><path class="cls-1" d="M192.31,3.16h-8.7V1.58h19.08l20.76,52.6L243.82,1.58h18.79v1.58h-8.7V69.61h8.7v1.58h-28.08v-1.58h9.29V6.92h-.2l-24.13,62.69h-.89l-24.52-61.5h-.2V61.4c0,1.65,.06,3,.2,4.05,.13,1.06,.43,1.9,.89,2.52,.46,.63,1.09,1.06,1.88,1.29,.79,.23,1.84,.35,3.16,.35h3.96v1.58h-20.37v-1.58h2.57c1.32,0,2.37-.11,3.16-.35,.79-.23,1.42-.66,1.88-1.29,.46-.62,.76-1.47,.89-2.52,.13-1.05,.2-2.41,.2-4.05V3.16Z"/></g><g><path class="cls-1" d="M10.65,184.09h-3.47l-.67,2.04c-.05,.16-.11,.33-.16,.51-.05,.18-.08,.34-.08,.48,0,.12,.05,.22,.16,.29,.11,.08,.29,.11,.55,.11h.84v.26h-3.34v-.26h.52c.13,0,.24,0,.33-.02,.09-.02,.18-.05,.25-.11,.08-.06,.15-.15,.22-.28s.14-.31,.22-.53l3.48-10.45h.18l3.94,11.41h1.35v.26h-4.75v-.26h1.59l-1.17-3.44Zm-1.75-5.17h-.03l-1.59,4.91h3.29l-1.67-4.91Z"/><path class="cls-1" d="M17.65,176.64h-1.54v-.26h4.94c.61,0,1.14,.07,1.6,.21,.46,.14,.86,.33,1.17,.56,.32,.23,.56,.5,.73,.81,.17,.31,.25,.62,.25,.95,0,.62-.12,1.1-.35,1.47-.23,.36-.51,.64-.84,.83-.33,.19-.68,.32-1.06,.38-.38,.06-.71,.11-1,.15v.03c.44,.03,.88,.11,1.3,.24,.43,.12,.81,.3,1.14,.54,.34,.23,.61,.53,.81,.88,.21,.36,.31,.79,.31,1.31,0,.55-.11,1.02-.32,1.4-.22,.38-.49,.7-.83,.95-.34,.25-.72,.43-1.13,.54-.41,.11-.81,.17-1.18,.17h-5.54v-.26h1.54v-10.89Zm1.65,4.96h1.07c.37,0,.72-.03,1.05-.08,.33-.05,.63-.17,.89-.35,.26-.18,.46-.43,.62-.77s.23-.78,.23-1.33c0-.22-.05-.46-.14-.75-.09-.28-.25-.55-.48-.79-.23-.25-.54-.46-.92-.63-.39-.17-.88-.26-1.47-.26h-.84v4.96Zm0,5.93h1.36c.85,0,1.5-.25,1.94-.76,.44-.51,.66-1.24,.66-2.19,0-.45-.08-.85-.23-1.19-.15-.34-.36-.62-.63-.85-.27-.23-.59-.4-.97-.51-.38-.11-.8-.17-1.26-.17h-.88v5.67Z"/><path class="cls-1" d="M36.33,180.07h-.26c0-.46-.09-.92-.28-1.36-.18-.44-.44-.84-.76-1.18s-.7-.62-1.13-.83c-.43-.21-.9-.32-1.39-.32s-.89,.09-1.24,.28c-.35,.18-.65,.43-.89,.73-.24,.3-.44,.65-.59,1.05-.15,.39-.27,.8-.35,1.23-.08,.43-.13,.85-.16,1.26-.03,.42-.04,.8-.04,1.16s.01,.74,.04,1.16c.03,.42,.08,.84,.16,1.26,.08,.43,.2,.84,.35,1.23,.15,.39,.35,.74,.59,1.04,.24,.3,.54,.55,.88,.73s.76,.28,1.25,.28,.98-.12,1.42-.35c.44-.23,.82-.54,1.13-.92,.32-.38,.57-.81,.75-1.29,.18-.48,.27-.98,.27-1.48h.26v3.84h-.26c0-.16-.04-.34-.13-.53-.09-.19-.23-.28-.42-.28-.12,0-.26,.07-.44,.19-.17,.13-.38,.28-.62,.44s-.52,.31-.84,.44c-.32,.13-.69,.19-1.11,.19-.68,0-1.33-.15-1.95-.46-.62-.31-1.17-.73-1.64-1.27-.47-.54-.84-1.17-1.12-1.9-.28-.72-.41-1.5-.41-2.33s.14-1.61,.41-2.33c.28-.72,.65-1.36,1.12-1.9,.47-.54,1.02-.96,1.64-1.27s1.27-.46,1.95-.46c.41,0,.77,.06,1.08,.19s.58,.26,.8,.41c.23,.15,.43,.28,.6,.41,.17,.12,.33,.19,.49,.19,.23,0,.38-.07,.47-.2,.09-.13,.13-.3,.13-.49h.26v3.47Z"/><path class="cls-1" d="M39.97,176.64h-1.54v-.26h5.07c.71,0,1.35,.09,1.9,.28,.56,.18,1.04,.43,1.45,.73,.41,.3,.75,.65,1.03,1.05,.28,.39,.5,.8,.66,1.22,.17,.42,.29,.84,.37,1.26,.08,.42,.11,.81,.11,1.17,0,.89-.13,1.68-.4,2.38-.26,.7-.64,1.3-1.12,1.79-.48,.49-1.06,.87-1.73,1.13-.67,.27-1.43,.4-2.26,.4h-5.09v-.26h1.54v-10.89Zm1.65,10.89h1.39c.37,0,.79-.05,1.26-.16,.48-.11,.93-.35,1.36-.72,.43-.37,.8-.92,1.09-1.64,.3-.72,.45-1.7,.45-2.92,0-.69-.06-1.36-.19-2.02-.12-.65-.36-1.23-.7-1.74s-.83-.92-1.45-1.22c-.62-.31-1.43-.46-2.42-.46h-.79v10.89Z"/><path class="cls-1" d="M52.48,176.64h-1.43v-.26h8.64l.19,2.75h-.26c0-.46-.07-.86-.22-1.17-.15-.32-.35-.58-.61-.77-.26-.19-.57-.33-.93-.42-.36-.09-.76-.13-1.19-.13h-2.54v5.22h1.21c.42,0,.75-.06,1-.18,.24-.12,.43-.28,.56-.47,.13-.19,.21-.42,.24-.66,.03-.25,.05-.5,.05-.76h.26v4.31h-.26c0-.3-.02-.58-.05-.83-.03-.25-.11-.46-.24-.62-.13-.17-.32-.3-.57-.39-.25-.09-.58-.14-1-.14h-1.2v5.41h2.22c.66,0,1.23-.03,1.72-.09,.49-.06,.89-.19,1.21-.41,.32-.21,.56-.52,.72-.92,.16-.41,.23-.95,.23-1.65h.26v3.32h-9.45v-.26h1.43v-10.89Z"/><path class="cls-1" d="M64.28,176.64h-1.47v-.26h8.67l.23,2.75h-.28c-.02-.47-.1-.87-.24-1.19-.13-.32-.33-.58-.58-.77-.25-.19-.55-.33-.91-.41-.36-.08-.76-.12-1.2-.12h-2.58v5.22h1.21c.42,0,.75-.06,1-.18,.24-.12,.43-.28,.56-.47,.13-.19,.21-.42,.24-.66,.03-.25,.05-.5,.05-.76h.26v4.31h-.26c0-.3-.02-.58-.05-.83-.03-.25-.11-.46-.24-.62-.13-.17-.32-.3-.57-.39-.25-.09-.58-.14-1-.14h-1.2v5.41h1.52v.26h-4.65v-.26h1.47v-10.89Z"/><path class="cls-1" d="M81.57,184.38h-1.49v-.26h4.52v.26h-1.28v1.93c-.14,.11-.33,.26-.58,.45-.24,.19-.54,.39-.9,.58-.36,.19-.77,.35-1.25,.49-.48,.14-1.02,.21-1.64,.21-.72,0-1.4-.13-2.03-.4-.63-.26-1.17-.65-1.63-1.15-.46-.5-.82-1.12-1.08-1.86-.26-.74-.39-1.59-.39-2.55,0-.83,.14-1.61,.41-2.33,.28-.72,.65-1.36,1.12-1.9,.47-.54,1.02-.96,1.64-1.27s1.27-.46,1.95-.46c.44,0,.83,.06,1.16,.17,.33,.11,.62,.24,.86,.38,.24,.14,.45,.27,.63,.38,.18,.11,.33,.17,.46,.17,.25,0,.4-.08,.47-.25,.06-.17,.1-.35,.1-.56h.26v3.47h-.26c-.02-.43-.13-.86-.32-1.28-.19-.42-.46-.8-.79-1.13-.33-.33-.71-.59-1.15-.79-.44-.2-.91-.3-1.42-.3-.48,0-.89,.09-1.24,.28-.35,.18-.65,.43-.89,.73-.24,.3-.44,.65-.59,1.05-.15,.39-.27,.8-.35,1.23-.08,.43-.13,.85-.16,1.26-.03,.42-.04,.8-.04,1.16s.01,.73,.04,1.14c.03,.42,.08,.84,.16,1.26,.08,.43,.2,.84,.35,1.23,.15,.39,.35,.75,.59,1.05,.24,.31,.54,.55,.88,.74,.35,.18,.76,.28,1.25,.28,.39,0,.74-.04,1.06-.11,.32-.07,.59-.18,.83-.33,.23-.15,.41-.35,.53-.61,.12-.25,.19-.56,.19-.93v-1.43Z"/><path class="cls-1" d="M87.32,176.64h-1.43v-.26h4.6v.26h-1.52v5.15h5.9v-5.15h-1.52v-.26h4.6v.26h-1.43v10.89h1.43v.26h-4.6v-.26h1.52v-5.48h-5.9v5.48h1.52v.26h-4.6v-.26h1.43v-10.89Z"/><path class="cls-1" d="M100.92,176.64h-1.47v-.26h4.6v.26h-1.47v10.89h1.47v.26h-4.6v-.26h1.47v-10.89Z"/><path class="cls-1" d="M108.13,176.64h-1.62v-.26h4.89v.26h-1.62v9.43c0,.92-.23,1.64-.71,2.16-.47,.52-1.09,.79-1.87,.79-.56,0-.99-.13-1.28-.41-.29-.27-.44-.59-.44-.96,0-.32,.09-.56,.26-.72,.17-.16,.38-.24,.62-.24,.21,0,.39,.06,.54,.19,.16,.12,.24,.31,.24,.56,0,.18-.04,.32-.13,.4-.09,.08-.18,.15-.28,.19-.1,.05-.19,.09-.28,.12-.09,.03-.13,.09-.13,.16,0,.12,.08,.22,.23,.31,.15,.09,.37,.13,.65,.13,.35,0,.64-.07,.89-.2,.25-.13,.37-.37,.37-.73,0-.21-.02-.37-.06-.49-.04-.12-.08-.23-.11-.31-.04-.08-.08-.15-.11-.21-.04-.06-.06-.13-.06-.22v-9.97Z"/><path class="cls-1" d="M114.25,176.64h-1.47v-.26h4.76v.26h-1.64v5.32l3.06-2.95c.13-.12,.29-.28,.49-.47,.19-.2,.38-.39,.57-.6s.34-.39,.48-.57c.13-.17,.2-.3,.2-.39,0-.11-.05-.19-.14-.25-.09-.06-.27-.09-.53-.09h-.91v-.26h4.25v.26h-.55c-.24,0-.47,.05-.69,.14-.22,.09-.43,.2-.63,.33-.2,.13-.38,.27-.54,.41-.16,.15-.31,.28-.44,.4l-3.19,3.06,4.68,5.98c.15,.18,.28,.32,.38,.42,.1,.1,.27,.15,.49,.15h.89v.26h-5.02v-.26h1.51l-4.15-5.36-.21,.16v5.2h1.64v.26h-4.76v-.26h1.47v-10.89Z"/><path class="cls-1" d="M126.91,176.64h-1.62v-.26h4.89v.26h-1.62v10.89h2.03c.78,0,1.43-.04,1.95-.11,.52-.08,.94-.23,1.26-.48,.31-.24,.54-.59,.67-1.04,.13-.45,.2-1.06,.2-1.83h.26v3.73h-9.64v-.26h1.62v-10.89Z"/><path class="cls-1" d="M138.2,176.64h-1.43v-.26h3.13l3.4,8.62,3.34-8.62h3.08v.26h-1.43v10.89h1.43v.26h-4.6v-.26h1.52v-10.27h-.03l-3.95,10.27h-.15l-4.02-10.08h-.03v8.73c0,.27,.01,.49,.03,.66,.02,.17,.07,.31,.15,.41,.08,.1,.18,.17,.31,.21,.13,.04,.3,.06,.52,.06h.65v.26h-3.34v-.26h.42c.22,0,.39-.02,.52-.06,.13-.04,.23-.11,.31-.21,.08-.1,.12-.24,.15-.41,.02-.17,.03-.39,.03-.66v-9.54Z"/><path class="cls-1" d="M152.82,177.16h-.03v9.45c0,.39,.07,.64,.22,.75,.15,.11,.41,.17,.79,.17h.65v.26h-3.47v-.26h.55c.38,0,.64-.06,.79-.17,.15-.11,.22-.36,.22-.75v-9.97h-1.56v-.26h3.4l6.12,8.46h.03v-7.32c0-.33-.05-.56-.15-.69-.1-.12-.33-.19-.69-.19h-.76v-.26h3.42v.26h-.71c-.36,0-.59,.06-.69,.19-.1,.12-.15,.35-.15,.69v10.37h-.21l-7.76-10.73Z"/><path class="cls-1" d="M164.04,182.08c0-.83,.14-1.61,.41-2.33,.28-.72,.65-1.36,1.12-1.9,.47-.54,1.02-.96,1.64-1.27s1.27-.46,1.95-.46,1.33,.15,1.95,.46c.62,.31,1.17,.73,1.64,1.27,.47,.54,.84,1.17,1.12,1.9,.28,.72,.41,1.5,.41,2.33s-.14,1.61-.41,2.33c-.28,.72-.65,1.36-1.12,1.9-.47,.54-1.02,.96-1.64,1.27-.62,.31-1.27,.46-1.95,.46s-1.33-.15-1.95-.46c-.62-.31-1.17-.73-1.64-1.27-.47-.54-.84-1.17-1.12-1.9-.28-.72-.41-1.5-.41-2.33Zm1.85,0c0,.36,.01,.74,.04,1.16,.03,.42,.08,.84,.16,1.26,.08,.43,.2,.84,.35,1.23,.15,.39,.35,.74,.59,1.04,.24,.3,.54,.55,.88,.73,.34,.18,.76,.28,1.25,.28s.9-.09,1.25-.28,.64-.43,.88-.73c.24-.3,.44-.65,.59-1.04,.15-.39,.27-.8,.35-1.23,.08-.43,.13-.85,.16-1.26,.03-.42,.04-.8,.04-1.16s-.01-.74-.04-1.16c-.03-.42-.08-.84-.16-1.26-.08-.43-.2-.84-.35-1.23-.15-.39-.35-.74-.59-1.05-.24-.3-.54-.55-.89-.73-.35-.18-.76-.28-1.24-.28s-.89,.09-1.24,.28c-.35,.18-.65,.43-.89,.73-.24,.3-.44,.65-.59,1.05-.15,.39-.27,.8-.35,1.23-.08,.43-.14,.85-.16,1.26-.03,.42-.04,.8-.04,1.16Z"/><path class="cls-1" d="M177.7,176.64h-1.6v-.26h4.62c.61,0,1.17,.05,1.69,.16,.52,.11,.97,.29,1.35,.54,.38,.25,.69,.58,.91,.98,.22,.4,.33,.89,.33,1.47s-.12,1.06-.37,1.46c-.24,.4-.56,.73-.96,.98-.39,.25-.84,.44-1.33,.55-.49,.11-.98,.17-1.47,.17-.28,0-.56-.02-.85-.07-.29-.05-.51-.12-.67-.2v5.1h1.65v.26h-4.91v-.26h1.6v-10.89Zm1.65,5.46c.12,.09,.29,.16,.51,.24,.22,.07,.47,.1,.74,.1s.56-.04,.87-.12c.31-.08,.59-.23,.86-.44,.26-.21,.48-.49,.66-.84,.17-.35,.26-.8,.26-1.35,0-1.07-.24-1.84-.72-2.33-.48-.48-1.21-.72-2.18-.72h-.99v5.46Z"/><path class="cls-1" d="M193.21,189.78c0,.18,.03,.35,.08,.49,.05,.14,.16,.26,.32,.37,.16,.11,.37,.19,.64,.24,.27,.05,.63,.08,1.07,.08,.13,0,.26,0,.41-.02,.14-.01,.26-.03,.36-.05v.26c-.16,.02-.32,.04-.48,.05-.16,.01-.32,.02-.48,.02-.42,0-.85-.02-1.27-.06-.43-.04-.81-.12-1.15-.24-.34-.12-.62-.29-.83-.51-.21-.22-.32-.52-.32-.9v-1.57c-.59-.11-1.15-.33-1.67-.68-.52-.35-.97-.78-1.36-1.3-.39-.52-.7-1.11-.92-1.77-.23-.66-.34-1.37-.34-2.12,0-.83,.14-1.61,.41-2.33,.28-.72,.65-1.36,1.12-1.9,.47-.54,1.02-.96,1.64-1.27s1.27-.46,1.95-.46,1.33,.15,1.95,.46,1.17,.73,1.64,1.27c.47,.54,.84,1.17,1.12,1.9,.28,.72,.41,1.5,.41,2.33,0,.75-.11,1.45-.33,2.12-.22,.66-.53,1.26-.92,1.77-.39,.52-.84,.95-1.37,1.3-.52,.35-1.08,.57-1.68,.68v1.83Zm-4.1-7.7c0,.36,.01,.74,.04,1.16,.03,.42,.08,.84,.16,1.26,.08,.43,.2,.84,.35,1.23,.15,.39,.35,.74,.59,1.04,.24,.3,.54,.55,.88,.73s.76,.28,1.25,.28,.9-.09,1.25-.28,.64-.43,.88-.73c.24-.3,.44-.65,.59-1.04,.15-.39,.27-.8,.35-1.23,.08-.43,.13-.85,.16-1.26,.03-.42,.04-.8,.04-1.16s-.01-.74-.04-1.16c-.03-.42-.08-.84-.16-1.26-.08-.43-.2-.84-.35-1.23-.15-.39-.35-.74-.59-1.05-.24-.3-.54-.55-.89-.73-.35-.18-.76-.28-1.24-.28s-.89,.09-1.24,.28c-.35,.18-.65,.43-.89,.73-.24,.3-.44,.65-.59,1.05-.15,.39-.27,.8-.35,1.23-.08,.43-.13,.85-.16,1.26-.03,.42-.04,.8-.04,1.16Z"/><path class="cls-1" d="M201.07,176.64h-1.62v-.26h4.97c.46,0,.93,.04,1.39,.11,.46,.07,.88,.21,1.25,.41,.37,.21,.67,.49,.9,.87,.23,.37,.35,.87,.35,1.48,0,.5-.12,.91-.37,1.23-.25,.32-.55,.58-.92,.78s-.74,.34-1.14,.44c-.4,.1-.75,.16-1.04,.19v.03c.46,.04,.87,.11,1.23,.2,.36,.09,.66,.23,.92,.42,.26,.19,.46,.46,.62,.79,.15,.34,.26,.77,.32,1.3l.23,1.98c.03,.24,.08,.42,.15,.56,.07,.14,.14,.24,.22,.31,.08,.07,.17,.11,.25,.13,.09,.02,.16,.02,.23,.02,.15,0,.28-.02,.38-.06,.1-.04,.2-.07,.28-.11l.1,.21c-.16,.05-.35,.1-.56,.15-.21,.04-.47,.07-.77,.07-.5,0-.89-.07-1.17-.2-.28-.13-.5-.32-.65-.57-.15-.25-.26-.55-.32-.92-.07-.36-.12-.77-.18-1.24l-.11-.97c-.03-.26-.08-.5-.15-.74-.07-.23-.18-.44-.33-.62-.16-.18-.38-.32-.66-.43-.28-.11-.65-.16-1.1-.16h-1.05v5.48h1.65v.26h-4.93v-.26h1.62v-10.89Zm1.65,5.15h.81c.48,0,.9-.04,1.28-.13,.38-.09,.7-.23,.96-.44,.26-.21,.46-.47,.59-.79,.13-.32,.2-.71,.2-1.19,0-.32-.04-.64-.11-.96-.07-.31-.2-.59-.4-.84-.2-.24-.48-.44-.83-.59-.36-.15-.82-.23-1.39-.23h-1.1v5.15Z"/><path class="cls-1" d="M211.54,183.78h.26c0,.68,.09,1.27,.28,1.77,.19,.5,.44,.92,.76,1.25,.32,.33,.69,.58,1.13,.74,.43,.16,.89,.24,1.38,.24,.39,0,.75-.06,1.08-.18,.33-.12,.61-.29,.84-.5,.23-.22,.42-.47,.55-.77,.14-.3,.2-.63,.2-1,0-.42-.05-.77-.16-1.05-.11-.28-.28-.52-.5-.71-.23-.19-.51-.34-.86-.45s-.75-.2-1.21-.28c-.64-.1-1.19-.21-1.66-.34-.47-.13-.86-.32-1.17-.57-.31-.25-.54-.58-.69-1-.15-.42-.23-.96-.23-1.64,0-.46,.07-.89,.22-1.28,.15-.39,.35-.72,.62-1,.26-.28,.58-.5,.96-.66,.37-.16,.79-.24,1.24-.24,.42,0,.78,.05,1.08,.15,.3,.1,.55,.22,.77,.34,.22,.12,.4,.24,.56,.34,.16,.1,.3,.15,.45,.15,.18,0,.3-.08,.36-.23,.05-.15,.09-.28,.11-.39h.26v3.4h-.26c-.03-.46-.12-.91-.28-1.33-.15-.42-.36-.79-.63-1.12-.27-.32-.61-.58-1-.78-.4-.19-.87-.29-1.41-.29-.69,0-1.26,.21-1.69,.64s-.66,1.01-.66,1.76c0,.37,.04,.67,.13,.91,.09,.24,.25,.44,.49,.6,.24,.16,.57,.3,.99,.41,.42,.11,.97,.23,1.64,.35,.59,.11,1.1,.24,1.52,.4,.42,.16,.77,.36,1.04,.62,.27,.25,.47,.57,.59,.93,.12,.37,.19,.82,.19,1.34s-.07,1.02-.22,1.47c-.15,.45-.36,.84-.66,1.17-.29,.33-.66,.59-1.1,.78-.44,.19-.96,.28-1.54,.28-.41,0-.77-.04-1.09-.13-.31-.09-.59-.18-.83-.29-.24-.11-.46-.21-.65-.29-.19-.09-.36-.13-.51-.13-.19,0-.31,.08-.35,.23-.04,.16-.06,.31-.06,.45l-.26-.02v-4.08Z"/><path class="cls-1" d="M225.07,176.64h-.34c-.72,0-1.32,.04-1.77,.11-.46,.08-.82,.22-1.08,.44-.26,.22-.44,.53-.54,.94-.1,.41-.15,.95-.15,1.6h-.26v-3.35h9.92v3.35h-.26c0-.66-.05-1.19-.15-1.6-.1-.41-.28-.72-.53-.94-.26-.22-.62-.36-1.08-.44-.46-.08-1.04-.11-1.76-.11h-.36v10.89h1.67v.26h-4.99v-.26h1.67v-10.89Z"/><path class="cls-1" d="M232.28,176.38h4.91v.26h-1.72v8.47c0,.46,.08,.86,.24,1.2,.16,.33,.37,.61,.63,.83,.26,.22,.55,.38,.88,.49,.33,.1,.67,.15,1.01,.15,1.13,0,2.03-.28,2.7-.84,.66-.56,1-1.45,1-2.66v-6.55c0-.44-.08-.74-.23-.88-.15-.15-.41-.22-.76-.22h-.91v-.26h3.76v.26h-.73c-.35,0-.58,.08-.7,.25-.12,.17-.18,.46-.18,.87v6.72c0,.64-.11,1.18-.32,1.63-.21,.45-.5,.82-.86,1.1-.36,.29-.78,.5-1.26,.63-.48,.13-.99,.2-1.53,.2-.67,0-1.28-.05-1.82-.14-.54-.09-1-.26-1.38-.5-.38-.24-.68-.57-.89-.98-.21-.41-.32-.94-.32-1.59v-8.2h-1.54v-.26Z"/><path class="cls-1" d="M251.06,185.5h.03l2.3-6.46c.2-.54,.34-.94,.43-1.19,.09-.25,.14-.45,.14-.59,0-.09-.01-.17-.04-.24-.03-.08-.08-.14-.17-.19-.09-.05-.21-.1-.38-.13-.17-.03-.39-.05-.67-.05h-.18v-.26h3.53v.26h-.44c-.23,0-.42,.03-.58,.08-.16,.05-.29,.13-.4,.23-.11,.1-.2,.22-.27,.36-.07,.14-.14,.29-.2,.45l-3.76,10.42h-.16l-4.03-11.54h-1.31v-.26h4.75v.26h-1.57l2.98,8.86Z"/><path class="cls-1" d="M258.56,176.64h-1.15v-.26h3.76v.26h-.86l3.08,8.98h.03l1.21-3.4-1.93-5.57h-.97v-.26h6.59v.26h-.44c-.32,0-.59,.05-.79,.16-.2,.11-.37,.35-.49,.73l-.96,2.64,1.8,5.45h.03l2.77-7.79c.09-.24,.14-.4,.16-.49,.02-.09,.03-.17,.03-.23,0-.12-.05-.22-.15-.32-.1-.09-.29-.14-.57-.14h-.47v-.26h2.88v.26h-.15c-.42,0-.73,.09-.92,.27-.19,.18-.36,.45-.49,.82l-3.74,10.45h-.21l-1.83-5.54h-.03l-1.99,5.54h-.21l-4.02-11.54Zm6.9,3.16h.03l.75-2.09c.05-.15,.09-.28,.11-.39,.02-.11,.03-.2,.03-.28,0-.1-.04-.19-.11-.28-.07-.09-.25-.13-.54-.13h-1.35l1.07,3.16Z"/><path class="cls-1" d="M279.58,180.62l1.93-3.05c.09-.14,.15-.25,.18-.32,.03-.07,.05-.14,.05-.2,0-.14-.06-.25-.18-.32-.12-.07-.37-.11-.76-.11h-.5v-.26h3.52v.26h-.53c-.35,0-.62,.08-.81,.23-.19,.15-.41,.41-.63,.76l-2.07,3.27,3.71,6.63h1.31v.26h-4.72v-.26h1.47l-2.82-5.07-2.38,3.73c-.14,.22-.25,.39-.32,.51s-.13,.22-.17,.29-.06,.12-.06,.15c0,.03,0,.07,0,.1,0,.19,.21,.29,.63,.29h.81v.26h-3.81v-.26h.4c.39,0,.73-.04,1.01-.13,.29-.09,.55-.32,.8-.7l2.93-4.54-3.16-5.53h-1.41v-.26h4.75v.26h-1.36l2.2,3.99Z"/><path class="cls-1" d="M290.41,183.6l-3.03-6.97h-1.47v-.26h4.71v.26h-1.34l2.71,6.27,2.01-4.54c.15-.32,.26-.58,.32-.78,.07-.19,.1-.37,.1-.52,0-.14-.05-.25-.16-.32-.11-.08-.3-.11-.57-.11h-.62v-.26h3.32v.26h-.68c-.31,0-.53,.09-.66,.27-.13,.18-.25,.39-.36,.62l-2.62,5.82v4.18h1.72v.26h-5.09v-.26h1.72v-3.92Z"/><path class="cls-1" d="M304.89,176.64h-2.61c-.83,0-1.47,.08-1.92,.23-.45,.15-.78,.36-1,.62-.22,.26-.34,.56-.38,.92-.04,.35-.06,.73-.06,1.13h-.26v-3.14h8.28l-6.94,11.15h1.93c.54,0,1.1-.02,1.67-.05,.57-.03,1.09-.12,1.56-.28,.47-.15,.86-.38,1.16-.7,.3-.31,.45-.75,.45-1.31v-.65h.26v3.24h-9.06l6.9-11.15Z"/><path class="cls-1" d="M50.36,211.91c0,.15,.03,.31,.08,.47s.19,.24,.41,.24c.18,0,.34-.06,.47-.19s.25-.28,.37-.45l.18,.13c-.15,.27-.34,.48-.57,.64-.23,.16-.51,.23-.86,.23-.38,0-.7-.1-.96-.29-.26-.19-.42-.43-.47-.71h-.03c-.28,.37-.61,.63-.98,.78-.37,.15-.83,.23-1.37,.23-.64,0-1.13-.15-1.49-.45-.36-.3-.53-.73-.53-1.28,0-.45,.13-.83,.4-1.12,.27-.29,.61-.52,1.01-.7,.4-.17,.84-.29,1.32-.36,.47-.06,.92-.1,1.34-.1h.31v-1.99c0-.19-.04-.35-.12-.47-.08-.12-.19-.21-.32-.28-.13-.07-.27-.12-.43-.15-.16-.03-.31-.04-.46-.04-.12,0-.27,.01-.45,.04-.18,.03-.35,.07-.52,.12-.17,.05-.31,.13-.43,.24-.12,.1-.18,.22-.18,.36,0,.1,.03,.17,.08,.21,.05,.04,.12,.09,.19,.14s.13,.11,.19,.19c.05,.08,.08,.21,.08,.4,0,.19-.07,.36-.21,.49-.14,.13-.32,.2-.54,.2s-.4-.08-.53-.24-.19-.38-.19-.67c0-.21,.05-.41,.16-.62,.11-.2,.27-.39,.48-.56,.21-.17,.47-.3,.78-.4,.31-.1,.67-.15,1.08-.15,.3,0,.61,.04,.93,.12,.32,.08,.61,.2,.87,.36,.26,.16,.47,.35,.64,.58,.17,.23,.25,.5,.25,.82v4.25Zm-1.64-2.67c-.29,0-.59,.01-.91,.03-.31,.02-.6,.09-.86,.2-.26,.11-.47,.29-.64,.53-.17,.24-.25,.57-.25,1,0,.23,.01,.44,.04,.63,.03,.19,.08,.36,.16,.5,.08,.14,.2,.25,.36,.33,.16,.08,.37,.12,.62,.12,.3,0,.56-.05,.79-.15,.22-.1,.4-.21,.54-.35s.25-.27,.32-.41c.07-.13,.11-.25,.11-.33v-2.12h-.28Z"/><path class="cls-1" d="M54.12,201.54h-1.12v-.26h1.12c.26,0,.51-.02,.75-.06,.24-.04,.45-.16,.61-.34v6.56h.03c.08-.19,.18-.39,.31-.58,.13-.19,.29-.37,.48-.53,.19-.16,.41-.29,.65-.39,.24-.1,.51-.15,.8-.15,.49,0,.93,.11,1.32,.34,.39,.23,.73,.52,1.02,.87,.29,.35,.5,.74,.66,1.16,.15,.42,.23,.83,.23,1.23,0,.47-.08,.93-.23,1.36-.16,.43-.38,.82-.67,1.15-.29,.33-.64,.6-1.05,.79-.41,.2-.87,.29-1.38,.29-.29,0-.56-.05-.79-.15-.24-.1-.45-.21-.62-.35-.18-.13-.33-.28-.45-.45-.12-.16-.2-.31-.26-.44h-.03v1.18h-2.48v-.26h1.12v-10.99Zm1.36,8.9c0,.39,.07,.73,.2,1.01,.13,.29,.31,.52,.52,.71,.21,.19,.44,.33,.7,.42s.5,.14,.74,.14c.4,0,.72-.06,.95-.18,.23-.12,.41-.31,.53-.58,.12-.27,.21-.62,.24-1.04,.04-.42,.06-.93,.06-1.54,0-.55-.02-1.04-.06-1.46-.04-.42-.12-.77-.24-1.04-.12-.28-.29-.48-.51-.62-.22-.14-.5-.21-.86-.21-.34,0-.64,.08-.92,.23-.28,.15-.52,.35-.72,.58s-.35,.51-.46,.81c-.11,.3-.16,.6-.16,.89v1.88Z"/><path class="cls-1" d="M69.43,210.5c-.01,.31-.08,.62-.22,.91-.13,.29-.32,.56-.56,.79-.24,.24-.52,.43-.85,.57-.33,.14-.69,.21-1.09,.21-.52,0-.99-.09-1.42-.26-.43-.17-.79-.41-1.09-.71-.3-.3-.53-.66-.69-1.06s-.24-.83-.24-1.29c0-.53,.09-1.03,.28-1.5,.19-.47,.45-.88,.77-1.23,.32-.35,.7-.63,1.13-.83,.43-.21,.88-.31,1.35-.31,.28,0,.56,.03,.84,.1,.28,.07,.53,.16,.75,.28,.22,.12,.4,.28,.54,.47,.13,.19,.2,.41,.2,.66s-.08,.45-.23,.59c-.16,.15-.34,.22-.54,.22-.25,0-.44-.07-.58-.22-.14-.15-.2-.31-.2-.48,0-.16,.02-.29,.07-.37,.04-.09,.09-.16,.14-.21,.05-.05,.09-.1,.14-.13,.04-.03,.06-.08,.06-.15,0-.09-.04-.16-.12-.23-.08-.06-.18-.12-.31-.15-.12-.04-.26-.07-.4-.09-.14-.02-.27-.03-.39-.03-.39,0-.71,.06-.96,.19-.25,.12-.45,.3-.6,.52-.15,.22-.25,.49-.3,.8-.05,.31-.08,.66-.08,1.05v1.41c0,.36,.01,.7,.04,1.02,.03,.32,.1,.61,.22,.86,.12,.25,.31,.45,.56,.6,.25,.15,.61,.23,1.06,.23,.41,0,.76-.07,1.06-.21,.3-.14,.55-.32,.75-.54,.2-.22,.35-.45,.45-.71,.1-.26,.17-.51,.2-.76h.26Z"/><path class="cls-1" d="M77.03,211.6h-.03c-.07,.14-.16,.29-.28,.45s-.28,.31-.45,.45c-.18,.13-.38,.25-.62,.34-.23,.09-.49,.14-.77,.14-.51,0-.97-.1-1.38-.29-.41-.19-.76-.46-1.05-.79-.29-.33-.52-.72-.67-1.15-.16-.43-.23-.89-.23-1.36,0-.4,.08-.81,.23-1.23,.15-.42,.37-.81,.66-1.16,.29-.35,.63-.64,1.02-.87,.39-.23,.83-.34,1.32-.34,.29,0,.56,.05,.8,.15,.24,.1,.46,.23,.65,.39,.19,.16,.35,.33,.48,.53,.13,.19,.23,.39,.31,.58h.03v-5.9h-1.3v-.26h1.3c.26,0,.51-.02,.75-.06,.24-.04,.45-.16,.61-.34v11.65h1.12v.26h-2.48v-1.18Zm0-3.05c0-.29-.05-.59-.16-.89-.11-.3-.26-.57-.46-.81-.2-.24-.44-.43-.72-.58-.28-.15-.59-.23-.92-.23-.36,0-.64,.07-.86,.21s-.39,.35-.51,.62c-.12,.28-.21,.62-.24,1.04-.04,.42-.06,.91-.06,1.46,0,.6,.02,1.12,.06,1.54,.04,.42,.12,.77,.24,1.04,.12,.27,.3,.46,.53,.58,.23,.12,.55,.18,.95,.18,.27,0,.54-.05,.8-.16,.26-.11,.5-.26,.7-.46,.2-.2,.36-.44,.48-.72,.12-.28,.18-.59,.18-.92v-1.9Z"/><path class="cls-1" d="M82.66,210.27c0,.29,.01,.58,.04,.87,.03,.29,.1,.55,.21,.79,.11,.24,.28,.43,.51,.58,.23,.15,.53,.22,.91,.22,.34,0,.65-.05,.94-.16,.29-.11,.55-.26,.78-.45s.42-.43,.57-.71c.15-.28,.25-.58,.31-.92h.26c-.13,.75-.45,1.35-.96,1.81-.51,.46-1.14,.69-1.89,.69-.48,0-.91-.09-1.3-.26-.39-.17-.74-.42-1.02-.74-.29-.32-.51-.7-.66-1.13-.16-.44-.24-.93-.24-1.47,0-.39,.08-.8,.23-1.22,.15-.43,.36-.82,.62-1.17,.26-.35,.58-.64,.96-.87,.37-.23,.78-.34,1.22-.34,.48,0,.89,.12,1.26,.35s.66,.5,.91,.81c.24,.31,.43,.62,.55,.93,.12,.31,.19,.56,.19,.73,0,.1-.05,.15-.15,.15h-4.23v1.52Zm2.82-2.24c0-.26-.02-.51-.06-.75s-.11-.45-.21-.64c-.1-.19-.24-.34-.41-.45-.17-.11-.39-.16-.66-.16s-.52,.05-.71,.16c-.19,.11-.34,.26-.45,.45-.11,.19-.19,.4-.24,.64s-.07,.49-.07,.75v.45h2.71c.08,0,.11-.04,.11-.11v-.34Z"/><path class="cls-1" d="M90.3,206.4h-1.46v-.26h1.46v-1.12c0-.51,.06-1.01,.17-1.51s.28-.94,.49-1.33c.22-.39,.48-.7,.79-.95,.31-.24,.67-.37,1.09-.37,.25,0,.46,.04,.65,.13,.18,.09,.33,.2,.45,.33,.12,.14,.21,.29,.27,.47,.06,.18,.09,.36,.09,.54,0,.19-.07,.37-.2,.53-.14,.16-.33,.23-.58,.23s-.42-.07-.53-.21c-.1-.14-.15-.29-.15-.44,0-.18,.05-.32,.14-.4,.09-.09,.19-.15,.3-.2,.11-.04,.21-.08,.3-.11,.09-.03,.14-.09,.14-.18,0-.12-.08-.22-.24-.31-.16-.09-.35-.13-.57-.13-.19,0-.37,.03-.53,.1-.16,.07-.29,.18-.39,.35-.1,.17-.18,.39-.24,.68-.06,.29-.09,.66-.09,1.11v2.77h1.85v.26h-1.85v6.13h1.47v.26h-4.29v-.26h1.46v-6.13Z"/><path class="cls-1" d="M100.25,212.04c.23,0,.45,.03,.66,.08,.22,.05,.41,.15,.58,.29,.17,.14,.3,.33,.41,.58,.1,.24,.15,.55,.15,.92,0,.55-.1,1.04-.31,1.47-.21,.43-.48,.78-.83,1.07-.35,.29-.75,.5-1.2,.66-.45,.15-.92,.23-1.41,.23-.38,0-.75-.04-1.12-.11-.37-.07-.7-.19-1-.36-.3-.17-.54-.38-.73-.65-.18-.26-.28-.59-.28-.98,0-.23,.05-.44,.15-.63,.1-.19,.24-.37,.4-.53,.16-.16,.34-.31,.53-.43,.19-.12,.37-.22,.54-.3v-.03c-.45,0-.79-.14-1-.41-.21-.28-.32-.64-.32-1.09,0-.57,.13-.98,.41-1.22,.27-.24,.66-.37,1.18-.38v-.03c-.37-.24-.66-.49-.88-.77-.22-.28-.33-.63-.33-1.08,0-.36,.07-.69,.22-1,.15-.31,.34-.58,.58-.8,.24-.23,.53-.41,.86-.54s.67-.19,1.03-.19c.38,0,.73,.06,1.06,.17,.33,.11,.61,.29,.83,.53,.15-.16,.33-.32,.53-.47,.2-.15,.44-.23,.72-.23,.24,0,.43,.06,.59,.19,.16,.12,.24,.3,.24,.54,0,.19-.06,.34-.19,.43-.13,.09-.28,.14-.45,.14-.15,0-.28-.05-.37-.16-.1-.11-.15-.22-.15-.34,0-.17,.02-.29,.05-.36,.03-.06,.08-.12,.13-.18-.16,.01-.33,.08-.5,.2-.17,.12-.31,.25-.42,.4,.18,.19,.33,.44,.45,.72,.12,.29,.18,.59,.18,.9,0,.33-.08,.65-.24,.94-.16,.29-.37,.54-.63,.75-.26,.21-.55,.38-.87,.5-.32,.12-.63,.19-.95,.19-.35,0-.61-.04-.8-.11-.19-.08-.33-.14-.41-.18-.44,.01-.82,.09-1.13,.24-.31,.15-.46,.41-.46,.79,0,.21,.07,.37,.21,.49,.14,.12,.31,.18,.5,.18h3.79Zm-2.82,1.26c-.49,.11-.85,.31-1.1,.6-.25,.29-.37,.71-.37,1.26,0,.35,.07,.64,.2,.88,.14,.24,.32,.43,.54,.58,.23,.15,.49,.26,.78,.33,.29,.07,.59,.1,.91,.1,.41,0,.81-.06,1.21-.19,.39-.12,.75-.31,1.05-.54,.31-.24,.55-.52,.74-.84,.18-.32,.28-.69,.28-1.1s-.15-.71-.45-.86-.66-.23-1.08-.23h-2.71Zm-.21-5.09c0,.26,0,.52,.02,.78,.02,.26,.06,.49,.15,.7,.08,.21,.21,.37,.39,.5,.18,.13,.43,.19,.77,.19s.59-.06,.77-.18,.31-.28,.39-.48c.08-.2,.13-.43,.15-.69,.02-.26,.02-.53,.02-.83,0-.32,0-.62-.02-.88-.02-.26-.07-.5-.15-.69-.08-.19-.21-.34-.39-.45-.18-.1-.43-.15-.77-.15s-.59,.07-.77,.22c-.18,.15-.31,.33-.39,.54-.08,.22-.13,.45-.15,.71-.02,.25-.02,.49-.02,.7Z"/><path class="cls-1" d="M105.1,201.54h-1.28v-.26h1.28c.26,0,.51-.02,.75-.06,.24-.04,.45-.16,.61-.34v6.56h.03c.11-.19,.24-.39,.39-.58,.15-.19,.33-.37,.54-.54,.21-.16,.43-.29,.68-.39,.25-.1,.52-.15,.81-.15,.43,0,.79,.05,1.08,.15,.29,.1,.51,.24,.68,.4,.17,.17,.29,.36,.36,.58,.07,.22,.11,.45,.11,.69v4.91h1.28v.26h-3.92v-.26h1.28v-5.3c0-.45-.09-.76-.28-.93-.19-.17-.41-.25-.67-.25-.35,0-.65,.07-.91,.22-.26,.15-.48,.32-.67,.53-.19,.2-.35,.42-.47,.63s-.22,.39-.3,.53v4.57h1.23v.26h-3.87v-.26h1.28v-10.99Z"/><path class="cls-1" d="M115,206.4h-1.3v-.26h1.3c.26,0,.51-.02,.75-.06,.24-.04,.45-.14,.61-.3v6.74h1.3v.26h-3.95v-.26h1.3v-6.13Zm-.15-3.53c0-.23,.08-.42,.24-.58s.36-.24,.58-.24,.42,.08,.58,.24c.16,.16,.24,.36,.24,.58s-.08,.42-.24,.58-.36,.24-.58,.24-.42-.08-.58-.24c-.16-.16-.24-.36-.24-.58Z"/><path class="cls-1" d="M120.31,206.4h-1.52v-.26h1.52c.26,0,.51-.02,.75-.06,.24-.04,.45-.14,.61-.3v8.9c0,.3-.07,.61-.2,.92-.13,.31-.29,.6-.49,.85-.2,.25-.43,.46-.69,.62-.26,.16-.52,.24-.78,.24s-.45-.07-.56-.2c-.11-.14-.17-.28-.17-.43,0-.16,.05-.31,.16-.44,.11-.13,.26-.19,.47-.19,.22,0,.37,.06,.48,.18,.1,.12,.15,.25,.15,.41,0,.08,0,.13-.02,.18-.01,.04-.03,.08-.05,.11,.18,0,.32-.07,.42-.21,.1-.14,.15-.3,.15-.47,0-.15-.01-.29-.04-.41-.03-.12-.05-.24-.08-.37-.03-.13-.05-.28-.08-.44-.03-.16-.04-.36-.04-.6v-8.04Zm-.15-3.53c0-.23,.08-.42,.24-.58,.16-.16,.36-.24,.58-.24s.42,.08,.58,.24c.16,.16,.24,.36,.24,.58s-.08,.42-.24,.58c-.16,.16-.36,.24-.58,.24s-.42-.08-.58-.24c-.16-.16-.24-.36-.24-.58Z"/><path class="cls-1" d="M125.55,201.54h-1.28v-.26h1.28c.26,0,.51-.02,.75-.06,.24-.04,.45-.16,.61-.34v9.03l2.59-2.5c.38-.36,.57-.6,.57-.75,0-.17-.24-.26-.73-.26h-.55v-.26h3.42v.26h-.57c-.14,0-.27,.01-.37,.03-.11,.02-.21,.06-.31,.1-.1,.05-.2,.11-.31,.2-.11,.08-.23,.19-.37,.32l-1.8,1.7,2.54,3.16c.18,.22,.32,.37,.42,.47,.1,.1,.22,.15,.37,.15h.83v.26h-4.07v-.26h1.17l-2.27-2.8-.57,.54v2.27h1.13v.26h-3.78v-.26h1.28v-10.99Z"/><path class="cls-1" d="M135.45,201.54h-1.3v-.26h1.3c.26,0,.51-.02,.75-.06,.24-.04,.45-.16,.61-.34v11.65h1.3v.26h-3.95v-.26h1.3v-10.99Z"/><path class="cls-1" d="M139.4,212.53h1.28v-6.13h-1.28v-.26h1.28c.19,0,.36,0,.5,0,.14,0,.26-.02,.36-.04,.1-.02,.19-.06,.27-.11,.08-.05,.15-.12,.23-.2v1.59h.03c.11-.19,.24-.39,.38-.58,.15-.19,.31-.37,.49-.51,.18-.15,.4-.26,.64-.36,.24-.09,.52-.14,.82-.14,.26,0,.51,.02,.76,.06,.25,.04,.48,.13,.68,.26s.38,.31,.52,.53c.14,.23,.23,.52,.26,.88h.03c.08-.23,.19-.45,.33-.66,.15-.21,.32-.4,.51-.56,.19-.16,.42-.29,.67-.38s.53-.14,.83-.14c.41,0,.76,.06,1.04,.17,.28,.11,.51,.26,.68,.45,.17,.18,.3,.39,.37,.62,.08,.23,.11,.48,.11,.74v4.76h1.28v.26h-3.92v-.26h1.28v-5.06c0-.29-.03-.53-.09-.71-.06-.18-.14-.33-.24-.44-.1-.11-.22-.18-.37-.22-.14-.04-.29-.06-.44-.06-.24,0-.46,.06-.68,.18-.22,.12-.42,.28-.6,.48-.18,.2-.35,.43-.49,.69-.14,.26-.25,.53-.32,.81v4.33h1.23v.26h-3.87v-.26h1.28v-5.36c0-.41-.09-.7-.28-.87-.19-.17-.45-.25-.77-.25-.49,0-.91,.17-1.27,.52-.36,.35-.66,.81-.9,1.39v4.57h1.23v.26h-3.87v-.26Z"/><path class="cls-1" d="M155.01,206.4h-1.28v-.26h1.28c.19,0,.36,0,.5,0,.14,0,.26-.02,.36-.04,.1-.02,.19-.06,.27-.11,.08-.05,.15-.12,.23-.2v1.65h.03c.11-.19,.24-.39,.39-.58,.15-.19,.33-.37,.54-.54,.21-.16,.43-.29,.68-.39,.25-.1,.52-.15,.81-.15,.43,0,.79,.05,1.08,.15,.29,.1,.51,.24,.68,.4,.17,.17,.29,.36,.36,.58,.07,.22,.11,.45,.11,.69v4.91h1.28v.26h-3.92v-.26h1.28v-5.3c0-.45-.09-.76-.28-.93-.19-.17-.41-.25-.67-.25-.35,0-.65,.07-.91,.22-.26,.15-.48,.32-.67,.53-.19,.2-.35,.42-.47,.63-.12,.22-.22,.39-.3,.53v4.57h1.23v.26h-3.87v-.26h1.28v-6.13Z"/><path class="cls-1" d="M163.95,209.38c0-.46,.08-.91,.24-1.35,.16-.43,.39-.82,.69-1.15,.3-.33,.66-.6,1.09-.8,.43-.2,.9-.3,1.42-.3s.99,.1,1.42,.3c.43,.2,.79,.47,1.09,.8,.3,.34,.53,.72,.69,1.15,.16,.43,.24,.88,.24,1.35s-.08,.91-.24,1.34c-.16,.43-.39,.82-.69,1.15-.3,.34-.66,.6-1.09,.8-.43,.2-.9,.3-1.42,.3s-.99-.1-1.42-.3c-.43-.2-.79-.47-1.09-.8-.3-.33-.53-.72-.69-1.15-.16-.43-.24-.88-.24-1.34Zm5.31-.63c0-.36-.01-.7-.04-1.02-.03-.32-.1-.61-.22-.86-.12-.25-.31-.45-.56-.6-.25-.15-.61-.23-1.06-.23s-.81,.08-1.06,.23c-.25,.15-.44,.35-.56,.6-.12,.25-.19,.53-.22,.86-.03,.32-.04,.66-.04,1.02v1.26c0,.36,.01,.7,.04,1.02,.03,.32,.1,.61,.22,.86,.12,.25,.31,.45,.56,.6,.25,.15,.61,.23,1.06,.23s.81-.08,1.06-.23c.25-.15,.44-.35,.56-.6,.12-.25,.19-.53,.22-.86,.03-.32,.04-.66,.04-1.02v-1.26Z"/><path class="cls-1" d="M173.53,206.4h-1.12v-.26h1.12c.26,0,.51-.02,.75-.06,.24-.04,.45-.14,.61-.3v1.65h.03c.08-.19,.18-.39,.31-.58,.13-.19,.29-.37,.48-.53,.19-.16,.41-.29,.65-.39,.24-.1,.51-.15,.8-.15,.49,0,.93,.11,1.32,.34,.39,.23,.73,.52,1.02,.87,.29,.35,.5,.74,.66,1.16,.15,.42,.23,.83,.23,1.23,0,.47-.08,.93-.24,1.36-.16,.43-.38,.82-.67,1.15-.29,.33-.64,.6-1.05,.79-.41,.2-.87,.29-1.38,.29-.28,0-.54-.05-.77-.14-.23-.09-.44-.21-.62-.34-.18-.14-.33-.28-.45-.45s-.22-.31-.28-.45h-.03v5.3h1.25v.26h-3.73v-.26h1.12v-10.5Zm1.36,4.05c0,.31,.06,.61,.17,.88s.27,.52,.46,.72c.19,.21,.42,.37,.69,.49,.26,.12,.54,.18,.83,.18,.4,0,.71-.06,.95-.18,.23-.12,.41-.31,.54-.58,.12-.27,.2-.62,.24-1.04,.04-.42,.06-.93,.06-1.54,0-.55-.02-1.04-.06-1.46-.04-.42-.12-.77-.24-1.04-.12-.28-.29-.48-.51-.62s-.5-.21-.86-.21c-.33,0-.64,.08-.92,.23-.28,.15-.52,.35-.72,.58-.2,.24-.35,.51-.46,.81-.11,.3-.16,.6-.16,.89v1.9Z"/><path class="cls-1" d="M188.43,211.6h-.03c-.06,.14-.16,.29-.28,.45-.12,.16-.28,.31-.45,.45-.18,.13-.39,.25-.62,.34s-.49,.14-.76,.14c-.51,0-.97-.1-1.38-.29-.41-.19-.76-.46-1.05-.79-.29-.33-.52-.72-.67-1.15-.16-.43-.24-.89-.24-1.36,0-.4,.08-.81,.23-1.23,.15-.42,.37-.81,.66-1.16,.29-.35,.63-.64,1.02-.87,.39-.23,.83-.34,1.32-.34,.29,0,.56,.05,.8,.15,.24,.1,.46,.23,.65,.39,.19,.16,.35,.33,.48,.53s.23,.39,.31,.58h.03v-1.65c.16,.16,.37,.26,.61,.3,.24,.04,.5,.06,.75,.06h1.12v.26h-1.12v10.5h1.12v.26h-3.73v-.26h1.25v-5.3Zm-3.95-2.22c0,.6,.02,1.12,.06,1.54,.04,.42,.12,.77,.24,1.04,.12,.27,.3,.46,.53,.58,.23,.12,.55,.18,.95,.18,.27,0,.53-.05,.79-.16,.26-.11,.49-.26,.7-.46s.37-.44,.49-.72c.12-.28,.18-.59,.18-.92v-1.9c0-.29-.05-.59-.16-.89-.11-.3-.26-.57-.46-.81-.2-.24-.44-.43-.72-.58-.28-.15-.59-.23-.92-.23-.36,0-.64,.07-.86,.21-.22,.14-.39,.35-.51,.62-.12,.28-.21,.62-.24,1.04-.04,.42-.06,.91-.06,1.46Z"/><path class="cls-1" d="M193.46,206.4h-1.36v-.26h1.36c.26,0,.51-.02,.75-.06s.45-.14,.61-.3v1.91h.03c.04-.18,.12-.39,.22-.61,.1-.22,.24-.43,.41-.62,.17-.19,.37-.36,.61-.49s.52-.19,.86-.19c.3,0,.56,.09,.76,.27,.21,.18,.31,.41,.31,.69,0,.22-.06,.4-.19,.54-.12,.15-.31,.22-.56,.22-.27,0-.46-.07-.56-.19-.1-.13-.15-.3-.15-.52,0-.18,.04-.33,.11-.45,.08-.11,.16-.2,.24-.25-.04-.03-.12-.05-.23-.05-.16,0-.35,.07-.57,.2-.22,.13-.42,.33-.62,.59-.19,.26-.36,.59-.49,.99-.13,.39-.19,.86-.19,1.39v3.32h1.47v.26h-4.2v-.26h1.36v-6.13Z"/><path class="cls-1" d="M199.79,210.44h.21c.03,.2,.09,.44,.17,.7,.08,.26,.21,.51,.37,.75,.17,.23,.39,.43,.66,.59,.28,.16,.62,.24,1.04,.24,.45,0,.83-.14,1.13-.41,.3-.27,.45-.64,.45-1.1,0-.32-.05-.57-.16-.75-.11-.17-.25-.3-.43-.4-.18-.09-.38-.15-.59-.18-.22-.03-.43-.05-.65-.07-.26-.03-.51-.07-.76-.12-.25-.05-.47-.14-.66-.27-.19-.13-.35-.32-.47-.56-.12-.24-.18-.58-.18-1,0-.29,.04-.56,.14-.82,.09-.25,.22-.47,.4-.66,.17-.19,.39-.34,.64-.45,.25-.11,.54-.16,.85-.16,.22,0,.42,.03,.6,.09,.18,.06,.34,.12,.49,.19,.14,.07,.26,.14,.35,.19,.09,.06,.16,.09,.2,.09,.08,0,.11-.11,.11-.34v-.13h.23l.06,1.93h-.21c-.03-.23-.09-.45-.16-.66-.08-.22-.19-.41-.34-.57-.15-.16-.34-.29-.56-.39-.22-.1-.49-.15-.82-.15-.41,0-.76,.11-1.05,.33-.29,.22-.44,.54-.44,.96s.15,.72,.45,.89c.3,.17,.71,.28,1.26,.31l.55,.03c.66,.04,1.13,.23,1.42,.57,.29,.33,.43,.78,.43,1.34,0,.38-.06,.72-.18,1.03-.12,.31-.28,.57-.48,.79-.2,.22-.44,.38-.71,.5-.28,.12-.57,.18-.88,.18s-.59-.04-.81-.11c-.22-.07-.4-.15-.54-.24-.15-.09-.27-.17-.37-.24-.1-.07-.19-.1-.27-.1-.11,0-.16,.06-.16,.18,0,.11-.01,.25-.03,.42h-.24l-.03-2.45Z"/><path class="cls-1" d="M207.68,206.4h-1.41v-.26c.42,.01,.78-.03,1.08-.11,.3-.09,.55-.22,.75-.41,.2-.19,.36-.43,.48-.71,.12-.29,.21-.63,.28-1.03h.19v2.27h2.24v.26h-2.24v5.45c0,.34,.07,.56,.2,.69,.14,.12,.33,.19,.59,.19,.21,0,.38-.04,.53-.12,.15-.08,.27-.17,.37-.28,.1-.11,.18-.22,.24-.34,.06-.12,.1-.21,.12-.28l.24,.05c-.03,.1-.09,.22-.16,.36-.08,.14-.18,.28-.32,.41-.14,.13-.32,.24-.53,.33-.21,.09-.47,.14-.77,.14-.57,0-1.03-.11-1.37-.32-.34-.21-.51-.59-.51-1.13v-5.14Z"/><path class="cls-1" d="M213.89,206.4h-1.3v-.26h1.3c.26,0,.51-.02,.75-.06,.24-.04,.45-.14,.61-.3v5.8c0,.35,.09,.62,.27,.83,.18,.21,.42,.31,.74,.31,.28,0,.55-.07,.81-.22,.26-.15,.49-.34,.68-.57,.19-.23,.35-.5,.47-.79,.12-.3,.18-.6,.18-.9v-3.84h-1.28v-.26h1.28c.26,0,.51-.02,.75-.06,.24-.04,.45-.14,.61-.3v6.74h1.3v.26h-2.66v-1.47h-.03c-.03,.1-.1,.24-.21,.42-.11,.18-.25,.37-.44,.55-.18,.18-.41,.35-.68,.49-.27,.14-.58,.21-.94,.21-.41,0-.75-.05-1.03-.15-.28-.1-.5-.23-.68-.4-.18-.17-.3-.36-.38-.58-.08-.22-.11-.44-.11-.68v-4.78Z"/><path class="cls-1" d="M223.16,206.4h-.94v-.26h3.71v.26h-1.2l2.04,4.93,1.59-3.61c.18-.42,.28-.72,.28-.89,0-.18-.09-.3-.26-.35-.17-.05-.33-.07-.47-.07h-.57v-.26h2.82v.26c-.18,0-.34,0-.46,.02-.12,.02-.23,.05-.32,.11-.09,.05-.18,.14-.25,.24-.08,.11-.16,.26-.24,.45l-2.64,5.95h-.13l-2.95-6.77Z"/><path class="cls-1" d="M232.01,206.4h-.87v-.26h7.28v.26h-1.3l2.14,4.97,1.54-3.55c.1-.22,.16-.4,.2-.54,.04-.15,.06-.28,.06-.4,0-.15-.06-.27-.17-.36-.11-.09-.31-.13-.59-.13h-.44v-.26h2.82v.26c-.25,0-.45,.03-.62,.08-.16,.05-.3,.14-.41,.24-.11,.11-.2,.24-.28,.41-.08,.16-.17,.35-.25,.55l-2.38,5.49h-.11l-1.8-4.03-1.72,4.03h-.11l-2.98-6.77Zm3.65,4.86l1.04-2.43-1.07-2.43h-2.03l2.06,4.86Z"/><path class="cls-1" d="M248.02,208.46l.79-1.05c.1-.13,.19-.26,.28-.41,.09-.14,.13-.24,.13-.31,0-.19-.24-.29-.71-.29h-.34v-.26h3v.26h-.49c-.31,0-.56,.06-.75,.17s-.38,.31-.6,.59l-1.18,1.51,2.37,3.86h1.07v.26h-3.97v-.26h1.26l-1.62-2.64-1.18,1.56c-.26,.35-.39,.62-.39,.83,0,.08,.03,.14,.08,.19,.05,.05,.16,.07,.31,.07h.73v.26h-3.16v-.26h.41c.21,0,.38-.02,.53-.07,.15-.04,.28-.11,.41-.2,.13-.09,.26-.21,.39-.36,.13-.15,.28-.33,.44-.54l1.31-1.7-1.98-3.26h-1.17v-.26h3.76v.26h-.97l1.25,2.06Z"/><path class="cls-1" d="M257.14,211.47l1.52-3.87c.06-.17,.12-.32,.15-.45s.06-.24,.06-.33c0-.16-.07-.27-.22-.33-.15-.06-.39-.09-.72-.09h-.66v-.26h3.16v.26c-.26,0-.46,.02-.62,.05-.15,.03-.28,.09-.37,.17-.1,.08-.18,.2-.24,.34-.06,.15-.15,.33-.24,.56l-1.44,3.63c-.12,.28-.23,.56-.33,.83-.1,.27-.19,.51-.28,.73-.08,.22-.15,.4-.21,.56-.06,.16-.09,.27-.11,.33-.16,.64-.31,1.18-.43,1.63-.12,.45-.26,.82-.41,1.1-.15,.29-.32,.5-.51,.63-.2,.13-.43,.2-.71,.2-.26,0-.47-.07-.64-.22-.17-.15-.25-.35-.25-.62,0-.23,.07-.41,.21-.56,.14-.15,.33-.22,.57-.22,.21,0,.37,.06,.49,.19,.12,.13,.19,.27,.19,.42,0,.05,0,.1,0,.14,0,.04,0,.08,0,.12,0,.11,.04,.16,.13,.16,.14,0,.28-.15,.41-.44,.13-.29,.26-.63,.36-1,.11-.38,.2-.75,.28-1.1,.08-.36,.13-.6,.16-.73l-3-6.9h-.87v-.26h3.61v.26h-1.17l2.14,5.07Z"/><path class="cls-1" d="M266.31,206.4h-1.54c-.48,0-.86,.05-1.15,.16-.29,.11-.52,.26-.68,.45-.16,.19-.27,.43-.32,.71-.05,.28-.08,.58-.08,.91h-.26v-2.5h5.88l-4.62,6.38h1.59c.43,0,.8-.03,1.09-.1,.3-.06,.54-.18,.72-.35,.18-.17,.32-.39,.4-.66,.08-.28,.12-.62,.12-1.04h.26v2.41h-6.06l4.65-6.38Z"/><path class="cls-1" d="M0,232.13c0-.77,.07-1.5,.22-2.2,.15-.7,.37-1.32,.66-1.86,.3-.54,.68-.97,1.13-1.3s1-.49,1.63-.49,1.17,.16,1.62,.49c.45,.32,.83,.76,1.13,1.3,.3,.54,.53,1.16,.67,1.86,.15,.7,.22,1.44,.22,2.2s-.07,1.5-.22,2.2c-.15,.7-.37,1.32-.67,1.86-.3,.54-.68,.97-1.13,1.3-.45,.32-.99,.49-1.62,.49s-1.17-.16-1.63-.49-.84-.76-1.13-1.3c-.3-.54-.52-1.16-.66-1.86-.15-.7-.22-1.44-.22-2.2Zm1.56,0v1c0,.38,.01,.78,.04,1.19,.03,.42,.08,.83,.15,1.23,.08,.41,.19,.77,.35,1.09,.16,.32,.36,.58,.61,.78,.25,.2,.56,.3,.94,.3s.69-.1,.94-.3c.25-.2,.45-.46,.61-.78,.16-.32,.27-.68,.35-1.09,.08-.4,.13-.82,.15-1.23,.03-.41,.04-.81,.04-1.19v-1.99c0-.39-.01-.79-.04-1.21-.03-.42-.08-.83-.15-1.23-.08-.41-.19-.77-.35-1.09-.16-.32-.36-.58-.61-.78-.25-.2-.56-.3-.94-.3s-.69,.1-.94,.3c-.25,.2-.45,.46-.61,.78-.16,.32-.27,.68-.35,1.09-.08,.41-.13,.82-.15,1.23-.03,.42-.04,.82-.04,1.21v.99Z"/><path class="cls-1" d="M13.11,228.58c0-.12,0-.21-.02-.28-.02-.07-.07-.11-.15-.11-.06,0-.19,.04-.37,.11-.18,.08-.4,.18-.65,.3-.25,.12-.51,.26-.79,.4-.28,.14-.53,.28-.77,.41v-.28c.27-.15,.56-.32,.88-.51,.31-.19,.63-.4,.96-.62,.32-.23,.64-.47,.96-.72,.31-.25,.6-.52,.86-.8h.66v11.05h1.49v.26h-4.57v-.26h1.52v-8.95Z"/><path class="cls-1" d="M26.49,237.79h-7.08c.17-.51,.43-.97,.78-1.39,.35-.41,.73-.82,1.14-1.2,.41-.38,.84-.77,1.27-1.16,.43-.39,.82-.81,1.17-1.26,.35-.45,.64-.95,.87-1.49,.23-.55,.34-1.17,.34-1.89,0-.39-.05-.76-.15-1.1-.1-.35-.24-.65-.44-.92-.19-.26-.44-.47-.75-.62-.3-.15-.65-.23-1.05-.23-.28,0-.57,.05-.86,.15-.29,.1-.56,.24-.8,.41-.24,.18-.44,.4-.59,.66-.15,.26-.23,.55-.23,.88,0,.19,.04,.32,.13,.37,.09,.05,.22,.08,.41,.08,.22,0,.41,.06,.57,.17s.24,.3,.24,.56c.01,.15-.01,.28-.07,.39-.05,.11-.12,.19-.21,.26-.09,.06-.18,.11-.28,.15-.1,.03-.2,.04-.3,.03-.15,0-.29-.04-.41-.13-.12-.09-.22-.19-.32-.32-.09-.13-.16-.28-.2-.45-.04-.17-.06-.33-.05-.49,0-.52,.09-.96,.28-1.34,.18-.37,.43-.68,.75-.92,.31-.24,.67-.42,1.08-.54,.41-.11,.84-.17,1.29-.17s.93,.07,1.35,.22,.8,.36,1.12,.64c.32,.28,.57,.63,.76,1.04,.19,.41,.28,.88,.28,1.41,0,.48-.09,.9-.26,1.27-.17,.37-.41,.72-.7,1.04-.29,.32-.63,.64-1.03,.96-.39,.31-.81,.64-1.26,.99-.44,.35-.9,.73-1.37,1.14-.47,.42-.93,.89-1.37,1.43h5.8l.24-1.77h.28l-.39,3.13Z"/><path class="cls-1" d="M30.48,231.29h1.2c.45,0,.86-.02,1.21-.06,.35-.04,.65-.15,.89-.32,.24-.17,.43-.43,.56-.77,.13-.34,.19-.81,.19-1.4,0-.68-.15-1.22-.46-1.6-.31-.39-.82-.58-1.55-.58-.31,0-.6,.04-.86,.13-.26,.09-.48,.19-.67,.32-.19,.12-.34,.25-.45,.38-.11,.13-.16,.24-.16,.34,0,.08,.02,.11,.05,.11,.02,0,.05,0,.1-.02,.04-.01,.1-.02,.16-.02,.22,0,.4,.06,.54,.18,.15,.12,.22,.32,.22,.6,0,.23-.08,.4-.24,.51-.16,.11-.32,.17-.48,.17-.28,0-.49-.1-.63-.29-.14-.19-.21-.39-.21-.6,0-.37,.09-.68,.26-.94,.17-.26,.4-.47,.67-.64,.28-.17,.58-.29,.92-.37,.33-.08,.66-.12,.97-.12,.41,0,.81,.05,1.2,.15,.39,.1,.74,.25,1.05,.45,.31,.2,.56,.45,.75,.76,.19,.31,.28,.67,.28,1.08,0,.51-.1,.92-.31,1.24-.21,.32-.45,.58-.75,.77-.29,.19-.6,.34-.92,.44-.32,.1-.6,.17-.84,.21v.03c.28,.02,.61,.09,1,.19,.38,.11,.75,.28,1.09,.52,.34,.24,.63,.56,.87,.96,.24,.4,.36,.9,.36,1.51,0,.56-.14,1.05-.41,1.47-.28,.42-.62,.78-1.04,1.06-.42,.29-.87,.5-1.37,.64-.5,.14-.97,.21-1.41,.21-.35,0-.7-.04-1.07-.11-.37-.08-.7-.21-1-.39s-.54-.42-.74-.72c-.19-.3-.29-.67-.29-1.11,0-.23,.09-.45,.26-.68,.17-.23,.41-.34,.71-.34,.25,0,.45,.07,.62,.2,.16,.13,.24,.35,.24,.66,0,.25-.09,.44-.26,.58-.17,.14-.36,.21-.55,.21-.08,0-.14,0-.19-.02-.05-.02-.11-.02-.18-.02-.11,0-.16,.05-.16,.16,0,.19,.08,.37,.24,.54s.36,.3,.61,.42c.24,.12,.5,.21,.77,.28,.27,.06,.52,.1,.75,.1,.55,0,1.01-.07,1.38-.21,.37-.14,.67-.35,.9-.62,.23-.27,.39-.6,.49-.99,.1-.39,.15-.83,.15-1.33,0-.3-.03-.63-.1-.99-.06-.36-.19-.69-.37-.99-.18-.3-.45-.55-.79-.75-.34-.2-.79-.3-1.34-.3h-1.85v-.26Z"/><path class="cls-1" d="M43.47,233.78h-4.68l5.85-7.66h.31l-5.04,6.59h3.56v-3.99h1.46v3.99h1.62v1.07h-1.62v3.74h1.47v.26h-4.46v-.26h1.52v-3.74Z"/><path class="cls-1" d="M55.19,226.28c0,.08,.02,.15,.02,.21v.18c0,.26-.05,.47-.16,.64-.11,.17-.25,.3-.41,.4-.17,.1-.35,.17-.54,.21s-.38,.06-.55,.06c-.41,0-.84-.04-1.28-.12-.44-.08-.8-.12-1.08-.12-.25,0-.45,.02-.59,.07-.15,.05-.26,.13-.35,.24,.01,.17,.02,.34,.03,.49,.01,.16,.02,.39,.02,.71,0,.44-.02,.85-.07,1.22-.05,.37-.1,.7-.15,1,.36-.23,.7-.38,1.04-.46,.34-.08,.75-.12,1.22-.12,.52,0,1.02,.08,1.51,.24,.49,.16,.92,.38,1.3,.67,.37,.29,.67,.65,.9,1.08,.23,.43,.34,.92,.34,1.47,0,.6-.13,1.13-.38,1.59-.25,.45-.59,.83-1,1.14-.41,.31-.89,.54-1.43,.69-.54,.15-1.09,.23-1.65,.23-.39,0-.76-.04-1.12-.13-.36-.09-.67-.22-.94-.4-.27-.18-.49-.42-.65-.7-.16-.28-.24-.62-.24-1,0-.28,.08-.53,.24-.75,.16-.22,.42-.33,.79-.33,.22,0,.4,.08,.54,.23,.15,.15,.22,.33,.22,.53,0,.23-.06,.4-.19,.52-.13,.12-.3,.18-.52,.18-.15,0-.29,.02-.41,.05-.12,.03-.18,.11-.18,.23,0,.17,.06,.34,.17,.5s.28,.3,.49,.42c.21,.12,.46,.22,.75,.29,.29,.08,.62,.11,.97,.11,.58,0,1.07-.09,1.45-.26,.38-.17,.69-.41,.92-.71,.23-.3,.39-.65,.48-1.05,.09-.4,.14-.82,.14-1.26s-.06-.86-.17-1.26c-.11-.4-.28-.75-.51-1.04-.23-.3-.51-.54-.86-.71-.35-.18-.76-.27-1.23-.27-.51,0-.93,.07-1.28,.21-.35,.14-.62,.31-.83,.5h-.24c.03-.08,.07-.22,.1-.42,.04-.21,.07-.44,.11-.7,.03-.26,.06-.53,.08-.82s.03-.55,.03-.8c0-.22-.01-.44-.03-.68s-.05-.47-.07-.69c-.03-.22-.06-.42-.09-.59-.03-.17-.05-.3-.06-.39,.18-.09,.44-.17,.78-.26,.33-.09,.69-.13,1.07-.13,.33,0,.65,.02,.94,.06s.56,.08,.82,.11,.48,.08,.69,.11c.2,.04,.39,.06,.57,.06,.19,0,.31-.05,.36-.14s.06-.19,.06-.3h.15Z"/><path class="cls-1" d="M65.56,226.38c-.84,.14-1.56,.35-2.16,.64-.6,.29-1.1,.66-1.51,1.12-.41,.46-.73,1.01-.96,1.66-.23,.65-.39,1.4-.49,2.27h.03c.11-.18,.24-.37,.41-.54,.16-.18,.35-.33,.56-.47,.21-.13,.45-.25,.71-.33,.26-.09,.54-.13,.83-.13,.44,0,.86,.08,1.26,.24,.4,.16,.75,.39,1.04,.7,.3,.3,.53,.68,.71,1.13,.17,.45,.26,.95,.26,1.52,0,.52-.09,1.01-.27,1.47-.18,.46-.43,.86-.75,1.21-.32,.35-.71,.62-1.16,.83-.45,.21-.96,.31-1.51,.31-.66,0-1.22-.12-1.69-.37-.46-.25-.85-.58-1.14-1-.3-.42-.51-.9-.65-1.45-.13-.55-.2-1.13-.2-1.75,0-.97,.18-1.87,.53-2.7,.35-.83,.83-1.56,1.43-2.19,.6-.63,1.3-1.15,2.1-1.56,.8-.41,1.65-.69,2.56-.84l.06,.26Zm-.88,7.75c0-.39-.02-.78-.07-1.17-.05-.39-.14-.75-.28-1.05-.14-.31-.34-.56-.59-.75-.25-.19-.59-.29-1.01-.29-.25,0-.49,.05-.73,.15-.24,.1-.46,.23-.66,.4-.2,.17-.38,.36-.53,.59-.15,.23-.26,.46-.32,.71-.01,.11-.02,.22-.03,.33-.01,.11-.02,.23-.02,.35,0,.54,.02,1.07,.05,1.59,.03,.52,.12,.98,.26,1.39,.14,.41,.35,.74,.63,.99,.28,.25,.67,.37,1.18,.37s.87-.12,1.15-.37c.28-.24,.49-.54,.64-.9,.15-.36,.24-.75,.28-1.17,.04-.42,.06-.81,.06-1.17Z"/><path class="cls-1" d="M68.96,226.47h7.29l-2.16,4.41c-.21,.42-.43,.91-.69,1.47-.25,.56-.49,1.1-.7,1.62-.22,.52-.4,1-.55,1.43-.15,.43-.23,.73-.23,.91,0,.11,.05,.16,.16,.16,.06,0,.13,0,.2-.02,.07-.02,.13-.02,.19-.02,.22,0,.4,.06,.55,.18,.15,.12,.23,.3,.23,.55s-.08,.45-.24,.56c-.16,.11-.34,.17-.54,.17-.25,0-.45-.1-.59-.31-.15-.2-.22-.49-.22-.84s.06-.76,.19-1.22c.12-.46,.29-.98,.51-1.56,.22-.58,.47-1.23,.76-1.93,.29-.7,.6-1.47,.94-2.3l.75-1.88h-5.59c-.05,.16-.12,.38-.19,.66-.08,.28-.14,.53-.18,.75h-.26l.37-2.77Z"/><path class="cls-1" d="M79.03,228.92c0-.42,.09-.8,.28-1.13,.19-.33,.43-.61,.73-.83,.3-.22,.63-.39,1.01-.51,.38-.12,.76-.18,1.15-.18s.77,.06,1.15,.18c.38,.12,.71,.29,1.01,.51,.3,.22,.54,.5,.73,.83,.19,.33,.28,.7,.28,1.13,0,.45-.08,.83-.25,1.13-.17,.3-.38,.56-.65,.77-.26,.21-.56,.38-.89,.51-.33,.13-.66,.24-.98,.34v.03c.42,.14,.83,.3,1.23,.49,.4,.19,.76,.41,1.07,.67,.31,.26,.56,.56,.75,.91,.19,.35,.28,.74,.28,1.18,0,.54-.11,1-.34,1.39-.23,.38-.52,.7-.88,.94-.36,.24-.76,.42-1.21,.53-.44,.11-.88,.16-1.31,.16s-.87-.05-1.31-.16c-.44-.11-.85-.28-1.21-.53-.36-.24-.66-.56-.88-.94-.23-.38-.34-.85-.34-1.39,0-.44,.09-.84,.28-1.18,.19-.35,.44-.65,.75-.91,.31-.26,.67-.48,1.07-.67,.4-.19,.81-.35,1.23-.49v-.03c-.32-.1-.65-.21-.98-.34-.33-.13-.63-.3-.89-.51-.26-.21-.48-.47-.65-.77-.17-.3-.25-.68-.25-1.13Zm.99,6.09c0,.36,.03,.7,.1,1.02,.07,.32,.19,.61,.37,.87,.17,.25,.4,.45,.68,.6,.28,.15,.63,.22,1.04,.22s.76-.07,1.04-.22c.28-.15,.5-.35,.67-.6,.17-.25,.29-.54,.36-.87,.08-.32,.11-.66,.11-1.02,0-.54-.07-1.01-.2-1.4-.13-.39-.27-.68-.41-.87-.12-.16-.25-.3-.41-.41-.15-.11-.3-.21-.45-.28-.15-.08-.28-.13-.41-.17-.13-.04-.23-.06-.31-.06s-.18,.02-.31,.06c-.13,.04-.27,.09-.41,.17-.15,.08-.29,.17-.45,.28-.15,.11-.29,.25-.41,.41-.14,.18-.28,.47-.41,.87-.14,.39-.2,.86-.2,1.4Zm.47-6.09c0,.62,.07,1.11,.21,1.48,.14,.37,.36,.65,.65,.82,.15,.09,.31,.16,.48,.24,.17,.07,.29,.1,.38,.1s.21-.03,.38-.1c.17-.07,.33-.15,.48-.24,.29-.17,.51-.45,.65-.82,.14-.37,.21-.87,.21-1.48,0-.31-.01-.61-.04-.9-.03-.29-.1-.54-.21-.76-.11-.22-.29-.4-.52-.53-.23-.13-.55-.19-.95-.19s-.72,.06-.95,.19c-.23,.13-.41,.3-.52,.53-.11,.22-.18,.48-.21,.76-.03,.29-.04,.59-.04,.9Z"/><path class="cls-1" d="M89.02,237.88c.84-.14,1.56-.35,2.16-.64s1.1-.66,1.51-1.12c.41-.46,.73-1.01,.96-1.66,.23-.65,.39-1.4,.49-2.27h-.03c-.11,.18-.24,.37-.41,.54-.16,.18-.35,.34-.56,.48-.21,.14-.45,.25-.71,.33-.26,.08-.54,.12-.83,.12-.44,0-.86-.08-1.26-.24-.4-.16-.75-.39-1.04-.7-.3-.3-.53-.67-.7-1.12-.17-.44-.26-.95-.26-1.52,0-.52,.09-1.01,.27-1.47,.18-.46,.43-.86,.75-1.21,.32-.35,.7-.62,1.16-.83,.45-.21,.96-.31,1.51-.31,.66,0,1.22,.12,1.68,.37,.46,.25,.85,.58,1.14,1,.3,.42,.51,.9,.65,1.45,.13,.55,.2,1.13,.2,1.75,0,.97-.18,1.87-.53,2.7-.35,.83-.83,1.56-1.43,2.19-.6,.63-1.3,1.15-2.1,1.56-.8,.41-1.65,.69-2.56,.84l-.06-.26Zm.87-7.75c0,.39,.02,.78,.07,1.17,.05,.39,.14,.75,.28,1.05,.14,.31,.34,.56,.59,.75,.25,.19,.59,.29,1.01,.29,.24,0,.48-.05,.72-.15,.24-.1,.46-.23,.66-.4,.2-.17,.38-.36,.53-.59,.15-.23,.26-.46,.32-.71,.01-.11,.02-.22,.03-.33,0-.11,.02-.23,.02-.35,0-.54-.02-1.07-.05-1.59-.03-.52-.12-.98-.26-1.39-.14-.41-.35-.74-.64-.99-.29-.25-.68-.37-1.17-.37s-.87,.12-1.15,.36c-.28,.24-.49,.54-.64,.9-.15,.36-.24,.75-.28,1.17-.04,.42-.06,.81-.06,1.17Z"/><path class="cls-1" d="M111.53,233.72c-.02,.08-.04,.15-.04,.21,0,.06,0,.15,0,.26,0,.12,.05,.25,.14,.41s.28,.23,.56,.23c.38,0,.72-.11,1.01-.32s.55-.5,.75-.84c.2-.35,.35-.73,.45-1.16,.1-.43,.15-.85,.15-1.27,0-.5-.11-1.01-.34-1.55-.23-.53-.56-1.02-.99-1.46-.43-.44-.97-.8-1.6-1.09-.64-.29-1.36-.43-2.17-.43-.72,0-1.39,.12-1.99,.37-.6,.25-1.13,.62-1.56,1.1-.44,.49-.78,1.09-1.02,1.82-.24,.73-.37,1.57-.37,2.52,0,.62,.12,1.22,.36,1.82,.24,.59,.58,1.12,1.02,1.59,.44,.46,.98,.84,1.61,1.12,.63,.28,1.34,.42,2.13,.42s1.51-.07,2.06-.21c.55-.14,1.06-.33,1.52-.57l.16,.34c-.68,.38-1.34,.64-1.98,.79s-1.22,.23-1.75,.23c-.76,0-1.44-.09-2.05-.26-.61-.17-1.16-.41-1.64-.7-.49-.29-.91-.63-1.26-1.02-.35-.39-.64-.79-.87-1.21-.23-.42-.4-.85-.51-1.28-.11-.43-.17-.84-.17-1.23,0-.93,.16-1.77,.49-2.54,.33-.76,.78-1.42,1.34-1.96,.57-.55,1.23-.97,2-1.27,.77-.3,1.59-.45,2.46-.45,.78,0,1.51,.13,2.19,.39,.68,.26,1.27,.62,1.77,1.07,.5,.45,.9,.99,1.19,1.61,.29,.62,.44,1.29,.44,2.02,0,.54-.07,1.06-.21,1.55s-.34,.93-.61,1.3c-.27,.38-.59,.68-.98,.91-.39,.23-.83,.34-1.31,.34-.22,0-.42-.02-.61-.06-.19-.04-.36-.12-.51-.22-.15-.1-.27-.24-.36-.41-.09-.17-.13-.37-.13-.61h-.03c-.03,.08-.11,.18-.23,.32-.12,.14-.27,.28-.45,.43-.18,.15-.38,.27-.6,.38-.22,.11-.45,.16-.67,.16-.12,0-.27-.02-.45-.05-.18-.03-.36-.12-.54-.27-.18-.15-.33-.36-.46-.64-.13-.28-.19-.67-.19-1.18,0-.55,.09-1.08,.27-1.57,.18-.5,.42-.93,.71-1.31,.3-.38,.65-.68,1.05-.91,.41-.23,.83-.34,1.29-.34,.32,0,.6,.1,.82,.3,.22,.2,.38,.42,.46,.67h.03l.18-.76h1.18l-1.15,4.47Zm-3.68-.55c0,.53,.1,.91,.3,1.13,.2,.22,.45,.33,.74,.33,.25,0,.5-.1,.75-.32,.25-.21,.49-.5,.7-.87,.21-.37,.38-.79,.51-1.26,.13-.48,.19-.98,.19-1.52,0-.26-.06-.48-.19-.66s-.33-.28-.61-.28c-.19,0-.43,.08-.71,.23-.28,.16-.54,.38-.79,.68-.25,.3-.47,.66-.64,1.09-.17,.43-.26,.91-.26,1.45Z"/><path class="cls-1" d="M121.75,237.53h1.72v.26h-4.89v-.26h1.72v-2.75h-2.58v-.26h2.58v-.84l-.24-.7h-2.33v-.26h2.24l-2.17-5.98h-1.43v-.26h4.47v.26h-1.34l2.09,5.98h.19l1.46-4.23c.12-.33,.21-.6,.27-.79,.06-.19,.09-.37,.09-.52,0-.14-.05-.25-.16-.32-.11-.08-.3-.11-.57-.11h-.62v-.26h3.26v.26h-.62c-.31,0-.54,.09-.68,.26-.14,.17-.25,.38-.34,.63l-1.85,5.09h2.32v.26h-2.41l-.16,.44v1.1h2.58v.26h-2.58v2.75Z"/><path class="cls-1" d="M132.35,231.06c.24,.13,.47,.26,.7,.38,.23,.12,.43,.28,.62,.47,.18,.19,.33,.42,.45,.7,.11,.28,.17,.64,.17,1.07,0,.22-.05,.45-.15,.7-.1,.25-.23,.51-.39,.76-.16,.25-.34,.5-.53,.73-.19,.23-.39,.43-.58,.59,.46,.27,.77,.58,.92,.93,.15,.35,.23,.79,.23,1.3,0,.47-.08,.9-.25,1.27-.17,.37-.4,.69-.7,.94-.3,.25-.65,.45-1.05,.58-.41,.13-.84,.2-1.32,.2-.35,0-.67-.04-.96-.13-.3-.09-.55-.21-.76-.38-.21-.17-.38-.37-.49-.6-.12-.23-.18-.49-.18-.79s.08-.56,.23-.8c.15-.24,.39-.37,.71-.37,.26,0,.45,.08,.58,.24,.12,.16,.19,.34,.19,.52,0,.27-.08,.47-.23,.6-.15,.13-.32,.19-.5,.19-.15,0-.26-.03-.34-.08-.08-.05-.13-.1-.18-.15-.04,.05-.07,.15-.07,.29,0,.18,.07,.35,.19,.49,.13,.14,.29,.26,.5,.37,.2,.11,.42,.19,.66,.24,.24,.05,.46,.08,.66,.08,.3,0,.61-.04,.92-.11,.31-.07,.6-.19,.85-.35s.46-.37,.62-.63c.16-.26,.24-.58,.24-.96,0-.23-.03-.42-.08-.58-.05-.16-.15-.3-.28-.44-.13-.13-.3-.27-.52-.4-.22-.13-.49-.28-.81-.45l-1.94-1.02c-.38-.19-.71-.38-.99-.56-.28-.18-.51-.36-.7-.54-.18-.18-.32-.38-.42-.58-.1-.21-.15-.43-.15-.68,0-.68,.16-1.27,.47-1.78,.31-.51,.73-.97,1.25-1.38-.28-.19-.49-.44-.62-.72-.13-.29-.19-.6-.19-.93,0-.41,.06-.81,.19-1.2,.13-.39,.32-.73,.57-1.03,.25-.3,.56-.54,.94-.72,.38-.18,.81-.28,1.3-.28,.3,0,.59,.04,.87,.12,.28,.08,.52,.2,.73,.36,.21,.16,.38,.35,.51,.57,.13,.22,.19,.48,.19,.77,0,.33-.08,.6-.23,.79-.16,.19-.39,.29-.71,.29-.21,0-.38-.07-.54-.2-.15-.13-.23-.31-.23-.53,0-.24,.07-.42,.21-.54,.14-.12,.32-.19,.53-.19,.15,0,.26,.02,.34,.06,.08,.04,.15,.09,.21,.15,0-.03,.02-.1,.02-.19,0-.13-.04-.26-.11-.41-.08-.14-.19-.27-.35-.39-.16-.12-.35-.22-.59-.29-.24-.08-.52-.11-.86-.11-.28,0-.55,.04-.81,.12-.26,.08-.49,.2-.68,.36-.19,.16-.35,.36-.46,.59-.11,.23-.17,.5-.17,.8,0,.27,.03,.5,.1,.67,.06,.18,.16,.33,.29,.47,.13,.14,.29,.26,.49,.37,.19,.11,.42,.23,.68,.37l1.8,.92Zm1.25,3.31c0-.24-.05-.45-.15-.62-.1-.18-.23-.34-.4-.48-.16-.14-.34-.26-.54-.37-.19-.11-.38-.21-.57-.31l-2.79-1.41c-.14,.09-.29,.2-.45,.35s-.31,.31-.45,.49c-.14,.18-.25,.37-.33,.58-.09,.21-.13,.41-.13,.62,0,.28,.08,.51,.24,.68,.16,.17,.44,.36,.83,.57l3.55,1.88c.14-.12,.28-.25,.42-.4,.14-.15,.27-.3,.38-.47,.11-.17,.21-.34,.28-.53s.11-.37,.11-.57Z"/><path class="cls-1" d="M136.55,232.13h1.85c-.16-.21-.32-.42-.47-.64-.15-.22-.29-.45-.41-.69-.12-.24-.22-.48-.3-.73-.08-.25-.11-.5-.11-.76,0-.53,.1-.99,.31-1.37,.21-.38,.48-.7,.83-.94,.35-.24,.74-.42,1.18-.54,.44-.12,.9-.18,1.38-.18,.43,0,.86,.05,1.27,.15,.42,.1,.78,.25,1.1,.47,.32,.22,.58,.49,.77,.83,.19,.34,.29,.75,.29,1.22,0,.35-.08,.63-.24,.86-.16,.23-.4,.34-.71,.34-.22,0-.4-.07-.56-.2-.16-.13-.24-.33-.24-.58s.08-.45,.23-.58c.15-.13,.32-.19,.5-.19,.14,0,.23,.02,.27,.05,.04,.03,.1,.05,.19,.05,.12,0,.18-.11,.18-.32,0-.29-.08-.55-.24-.78-.16-.23-.37-.42-.63-.58-.26-.16-.55-.28-.87-.36-.32-.08-.63-.12-.93-.12-.86,0-1.5,.25-1.9,.76-.41,.51-.61,1.18-.61,2.01,0,.46,.07,.93,.22,1.39,.15,.46,.29,.94,.45,1.43h3.65v.26h-3.56c.08,.28,.14,.59,.2,.92,.06,.33,.09,.66,.09,.98,0,.18-.01,.38-.04,.58-.03,.2-.07,.38-.12,.53,.23,.01,.52,.1,.89,.28,.37,.17,.74,.36,1.13,.56,.38,.2,.74,.38,1.08,.54,.33,.16,.59,.24,.76,.24,.22,0,.41-.09,.59-.28,.18-.19,.34-.36,.48-.53l.23,.11c-.14,.18-.28,.37-.42,.57-.14,.19-.29,.37-.45,.53s-.34,.3-.53,.41c-.2,.11-.42,.16-.68,.16-.28,0-.57-.06-.87-.17-.3-.11-.6-.25-.9-.41-.3-.16-.59-.32-.87-.49-.28-.17-.55-.32-.81-.44-.16,.36-.39,.68-.68,.97s-.63,.44-1.02,.44c-.28,0-.52-.08-.71-.24-.19-.16-.28-.39-.28-.68,0-.27,.08-.51,.23-.71s.34-.38,.56-.52c.22-.14,.46-.25,.72-.32,.26-.07,.5-.11,.73-.11h.34c.11,0,.21,.01,.29,.03,.08-.24,.11-.46,.11-.68,0-.44-.09-.84-.27-1.18-.18-.35-.37-.71-.59-1.08h-2.03v-.26Zm.16,4.83c0,.18,.06,.34,.18,.47,.12,.13,.31,.19,.58,.19,.32,0,.61-.12,.85-.36,.24-.24,.45-.54,.61-.88-.14-.09-.31-.16-.52-.21-.21-.05-.4-.08-.58-.08-.28,0-.54,.06-.77,.18-.23,.12-.35,.35-.35,.7Z"/><path class="cls-1" d="M150.05,237.95c-.33-.03-.63-.09-.9-.18-.26-.09-.5-.17-.71-.27-.21-.09-.4-.17-.57-.24-.17-.07-.32-.11-.45-.11-.19,0-.31,.08-.35,.23-.04,.16-.06,.3-.06,.43l-.26-.02v-4.02h.26c0,.6,.08,1.14,.24,1.6,.16,.46,.37,.86,.64,1.17,.27,.32,.59,.57,.96,.75,.37,.18,.77,.3,1.19,.34v-4.87c-.41-.05-.8-.13-1.18-.23-.38-.1-.72-.27-1.02-.51-.3-.24-.54-.56-.72-.98-.18-.42-.27-.97-.27-1.66,0-.44,.07-.85,.2-1.23,.13-.38,.33-.71,.59-.99,.26-.28,.58-.5,.96-.66,.38-.16,.8-.24,1.28-.24,.08,0,.13,0,.16,.02v-1.05h.26v1.07c.32,.03,.61,.1,.86,.2,.25,.1,.46,.21,.65,.32,.18,.11,.34,.21,.48,.29,.13,.09,.25,.13,.35,.13,.21,0,.34-.08,.4-.23,.06-.15,.1-.28,.12-.37h.26v3.34h-.26c-.03-.43-.12-.85-.25-1.24-.14-.39-.32-.75-.55-1.05-.23-.31-.52-.56-.86-.75-.34-.19-.74-.32-1.19-.37v4.46c.43,.08,.87,.17,1.31,.29,.44,.12,.84,.3,1.2,.54,.36,.24,.65,.57,.87,.98,.22,.41,.33,.95,.33,1.62,0,.48-.07,.93-.22,1.35-.15,.43-.36,.8-.66,1.12-.29,.32-.66,.57-1.1,.76-.44,.19-.96,.28-1.54,.28-.09,0-.15,0-.19-.02v2.4h-.26v-2.41Zm0-11.39s-.1-.02-.18-.02c-.75,0-1.34,.21-1.77,.62-.44,.42-.66,.98-.66,1.69,0,.39,.07,.71,.21,.96,.14,.25,.33,.45,.57,.61,.24,.16,.51,.28,.83,.36,.31,.08,.65,.15,1,.2v-4.42Zm.26,11.13s.09,.03,.13,.03h.13c.39,0,.75-.06,1.08-.17,.33-.11,.61-.28,.84-.49,.23-.21,.42-.46,.55-.76,.14-.3,.2-.62,.2-.98,0-.52-.08-.93-.25-1.23-.17-.3-.39-.54-.66-.7-.27-.17-.58-.29-.94-.36-.36-.07-.72-.13-1.08-.19v4.84Z"/><path class="cls-1" d="M167.81,235.66c-.12,.25-.25,.51-.39,.78-.14,.27-.3,.52-.49,.75-.19,.23-.41,.42-.65,.57-.24,.15-.52,.23-.83,.23-.33,0-.74-.18-1.22-.53-.48-.36-.96-.87-1.45-1.54-.17,.24-.37,.48-.59,.73-.22,.25-.46,.47-.72,.67-.26,.2-.54,.36-.83,.49-.3,.12-.6,.19-.92,.19-.36,0-.7-.07-1.03-.22-.33-.15-.62-.34-.87-.59-.25-.25-.45-.54-.59-.87-.15-.33-.22-.67-.22-1.03,0-.38,.09-.73,.28-1.06,.18-.33,.42-.63,.71-.92,.29-.28,.6-.54,.93-.76,.33-.23,.65-.42,.94-.58-.11-.17-.23-.36-.36-.57-.13-.21-.26-.42-.37-.64-.11-.22-.21-.44-.28-.66-.08-.22-.11-.44-.11-.66,0-.32,.06-.63,.19-.91,.12-.28,.29-.52,.5-.73,.21-.21,.46-.37,.74-.49,.28-.12,.58-.18,.91-.18,.56,0,1.01,.16,1.35,.48,.33,.32,.5,.75,.5,1.3s-.16,1.04-.47,1.42c-.31,.37-.7,.7-1.17,.98,.38,.54,.76,1.07,1.13,1.6,.38,.52,.77,1.05,1.16,1.56,.14-.17,.29-.38,.45-.62,.16-.24,.34-.48,.53-.7,.19-.22,.4-.41,.62-.57,.22-.16,.45-.23,.7-.23,.28,0,.52,.09,.72,.27,.2,.18,.3,.44,.3,.79,0,.27-.08,.49-.24,.65-.16,.16-.38,.24-.66,.24-.25,0-.43-.08-.56-.24-.13-.16-.19-.34-.19-.53,0-.27-.05-.41-.16-.41-.03,0-.1,.04-.19,.13-.1,.09-.21,.2-.34,.35-.13,.15-.27,.31-.41,.5-.15,.19-.28,.39-.41,.61,.21,.26,.41,.52,.62,.77,.21,.25,.43,.48,.65,.68,.22,.2,.44,.36,.66,.49,.22,.12,.45,.19,.67,.19,.16,0,.31-.05,.45-.15,.13-.1,.26-.21,.37-.34,.11-.13,.21-.26,.29-.41,.08-.14,.14-.25,.17-.34l.21,.08Zm-9.45-1.43c0,.27,.06,.56,.19,.88,.13,.32,.3,.62,.52,.9,.22,.28,.46,.52,.75,.71,.28,.19,.57,.28,.86,.28,.24,0,.45-.04,.63-.11,.18-.07,.35-.17,.49-.28,.15-.12,.28-.26,.41-.42s.26-.33,.39-.52c-.46-.58-.91-1.17-1.34-1.77-.43-.59-.86-1.19-1.29-1.78-.23,.15-.44,.29-.64,.41-.2,.12-.37,.26-.52,.41-.15,.15-.26,.33-.34,.53-.08,.2-.12,.45-.12,.75Zm4.28-5.31c0-.5-.14-.88-.42-1.14-.28-.26-.63-.4-1.04-.4-.37,0-.66,.11-.87,.34-.22,.23-.32,.53-.32,.91,0,.18,.04,.38,.11,.59,.07,.21,.16,.42,.28,.63,.11,.21,.24,.42,.37,.63,.13,.21,.26,.41,.39,.61,.42-.19,.78-.48,1.08-.87,.3-.38,.45-.82,.45-1.3Z"/><path class="cls-1" d="M173.69,237.95c-.49-.03-.92-.14-1.3-.32s-.71-.42-.99-.71-.49-.63-.63-1.02c-.15-.39-.22-.8-.22-1.23,0-.5,.08-.97,.25-1.41,.17-.44,.39-.84,.67-1.17,.28-.34,.61-.62,1-.84,.38-.22,.79-.36,1.22-.41v-1.18h.26v1.15h.13c.28,0,.56,.03,.84,.1,.28,.07,.53,.16,.75,.28,.22,.12,.4,.28,.53,.47,.13,.19,.2,.41,.2,.66s-.08,.45-.23,.59c-.16,.15-.34,.22-.54,.22-.25,0-.44-.07-.58-.22-.13-.15-.2-.31-.2-.48,0-.16,.02-.29,.06-.37,.04-.09,.09-.16,.14-.21s.09-.1,.14-.13,.06-.08,.06-.15c0-.09-.04-.16-.12-.23-.08-.06-.18-.12-.31-.15-.12-.04-.26-.07-.4-.09-.14-.02-.27-.03-.39-.03h-.1v6.68c.42,0,.78-.07,1.08-.21,.3-.14,.55-.32,.75-.54,.21-.22,.36-.45,.46-.71,.1-.26,.17-.51,.2-.76h.26c-.01,.31-.08,.62-.22,.91-.13,.29-.32,.56-.56,.79-.24,.24-.52,.43-.86,.57-.33,.14-.71,.21-1.12,.21v1.86h-.26v-1.9Zm0-6.87c-.32,.03-.59,.12-.79,.26-.2,.14-.37,.32-.49,.54-.12,.22-.2,.47-.24,.76-.04,.29-.06,.62-.06,.97v1.41c0,.32,.01,.64,.03,.95,.02,.31,.08,.58,.19,.83,.1,.24,.26,.45,.48,.61s.51,.26,.89,.29v-6.61Z"/><path class="cls-1" d="M181.17,234.14h-1.75v-.78h1.85l.36-2.46h-1.75v-.78h1.85l.52-3.65h.91l-.52,3.65h2.19l.5-3.65h.91l-.52,3.65h1.75v.78h-1.85l-.36,2.46h1.75v.78h-1.85l-.52,3.65h-.91l.52-3.65h-2.17l-.52,3.65h-.91l.52-3.65Zm3.53-3.24h-2.17l-.36,2.46h2.19l.34-2.46Z"/><path class="cls-1" d="M190.07,229.18c0-.4,.05-.78,.15-1.13,.1-.36,.25-.66,.45-.92,.19-.26,.43-.46,.72-.62,.29-.15,.62-.23,1-.23s.71,.08,1,.23c.29,.15,.53,.36,.72,.62,.19,.26,.34,.57,.45,.92,.1,.36,.15,.73,.15,1.13s-.05,.79-.15,1.14c-.1,.35-.25,.66-.45,.92-.19,.26-.43,.46-.72,.62s-.62,.23-1,.23-.71-.08-1-.23c-.29-.15-.53-.36-.72-.62-.19-.26-.34-.56-.45-.92-.1-.35-.15-.73-.15-1.14Zm1.17,0c0,.25,0,.52,.02,.83,.01,.3,.05,.59,.12,.86,.07,.27,.18,.5,.34,.68,.16,.18,.38,.28,.67,.28s.52-.09,.67-.28c.16-.18,.27-.41,.34-.68,.07-.27,.11-.56,.12-.86,.01-.3,.02-.58,.02-.83s0-.51-.02-.82c-.01-.31-.05-.6-.12-.87-.07-.27-.18-.5-.34-.68-.16-.18-.38-.28-.67-.28s-.52,.09-.67,.28c-.16,.18-.27,.41-.34,.68-.07,.27-.11,.56-.12,.87-.01,.31-.02,.58-.02,.82Zm7.42-3.06h.7l-6.09,12.02h-.7l6.09-12.02Zm-1.44,8.96c0-.4,.05-.78,.15-1.13,.1-.36,.25-.66,.45-.92,.19-.26,.43-.46,.72-.62,.29-.15,.62-.23,1-.23s.71,.08,1,.23c.29,.15,.53,.36,.72,.62,.19,.26,.34,.57,.45,.92,.1,.36,.15,.73,.15,1.13s-.05,.79-.15,1.14c-.1,.35-.25,.66-.45,.91-.19,.26-.44,.46-.72,.62-.29,.15-.62,.23-1,.23s-.71-.08-1-.23c-.29-.15-.53-.36-.72-.62-.19-.26-.34-.56-.45-.91-.1-.35-.15-.73-.15-1.14Zm1.17,0c0,.25,0,.52,.02,.83,.01,.3,.05,.59,.12,.86,.07,.27,.18,.5,.34,.68,.16,.18,.38,.28,.67,.28s.52-.09,.67-.28c.16-.18,.27-.41,.34-.68,.07-.27,.11-.56,.12-.86,.01-.3,.02-.58,.02-.83s0-.51-.02-.82c-.01-.31-.05-.6-.12-.87-.07-.27-.18-.5-.34-.68-.16-.18-.38-.28-.67-.28s-.52,.09-.67,.28c-.16,.18-.27,.41-.34,.68-.07,.27-.11,.56-.12,.87-.01,.31-.02,.58-.02,.82Z"/><path class="cls-1" d="M206.94,235.42c-.09-.32-.15-.65-.2-.98-.05-.33-.07-.67-.07-1.01,0-.48,.08-.89,.23-1.23,.16-.34,.36-.65,.6-.92,.24-.27,.5-.52,.78-.74s.53-.45,.78-.69c.24-.24,.44-.49,.6-.75,.16-.26,.24-.58,.24-.95,0-.29-.06-.55-.18-.77-.12-.22-.28-.41-.47-.55-.19-.15-.42-.26-.66-.33-.25-.08-.5-.11-.76-.11-.15,0-.32,.02-.5,.06-.18,.04-.35,.11-.51,.19-.16,.08-.29,.18-.39,.31-.1,.12-.15,.26-.15,.41,0,.11,.06,.18,.17,.2,.11,.03,.24,.06,.36,.1,.13,.04,.25,.11,.37,.2,.11,.1,.17,.27,.17,.52s-.08,.43-.24,.55c-.16,.12-.34,.18-.56,.18-.14,0-.26-.03-.37-.1-.11-.07-.2-.15-.27-.26-.07-.11-.12-.22-.16-.35-.04-.12-.06-.25-.06-.36,0-.27,.06-.52,.17-.76,.11-.24,.27-.44,.46-.61,.19-.17,.42-.3,.68-.4,.26-.1,.53-.15,.83-.15,.42,0,.79,.07,1.11,.2,.32,.13,.59,.32,.8,.57,.22,.24,.38,.54,.49,.88,.11,.34,.16,.71,.16,1.11,0,.36-.03,.67-.09,.93-.06,.26-.14,.5-.24,.7-.1,.2-.22,.38-.36,.53-.13,.16-.27,.3-.41,.43-.39,.37-.72,.69-1,.96-.28,.27-.51,.52-.69,.74-.18,.22-.31,.43-.4,.63-.09,.2-.13,.41-.13,.64s.01,.41,.03,.55c.02,.14,.04,.27,.06,.39l-.21,.05Zm.18,.91c.22,0,.41,.08,.58,.24,.17,.16,.25,.36,.25,.58s-.08,.42-.25,.58c-.17,.16-.36,.24-.58,.24-.23,0-.42-.08-.58-.24-.16-.16-.24-.36-.24-.58s.08-.42,.24-.58c.16-.16,.36-.24,.58-.24Z"/><path class="cls-1" d="M215.9,234.45c0-.36-.01-.82-.03-1.38-.02-.56-.07-1.15-.13-1.77s-.15-1.23-.26-1.83c-.11-.6-.25-1.12-.42-1.56,.18-.24,.35-.5,.49-.79,.15-.29,.28-.58,.4-.86,.03-.09,.06-.13,.08-.13s.05,.04,.08,.13c.12,.28,.25,.57,.4,.86,.15,.29,.31,.56,.49,.79-.17,.44-.31,.96-.42,1.56-.11,.6-.19,1.21-.26,1.83-.06,.62-.11,1.21-.13,1.77-.02,.56-.03,1.02-.03,1.38v.94h-.26v-.94Zm.13,1.88c.22,0,.41,.08,.58,.24,.17,.16,.25,.36,.25,.58s-.08,.42-.25,.58c-.17,.16-.36,.24-.58,.24-.23,0-.42-.08-.58-.24-.16-.16-.24-.36-.24-.58s.08-.42,.24-.58c.16-.16,.36-.24,.58-.24Z"/><path class="cls-1" d="M226.46,226.12c.82,0,1.6,.16,2.33,.47,.73,.31,1.36,.74,1.9,1.28,.54,.54,.96,1.17,1.27,1.9,.31,.72,.47,1.5,.47,2.32s-.16,1.59-.47,2.32c-.31,.72-.74,1.36-1.27,1.9-.53,.54-1.17,.97-1.9,1.28-.73,.31-1.5,.47-2.33,.47s-1.59-.16-2.32-.47c-.72-.31-1.36-.74-1.9-1.28-.54-.54-.97-1.17-1.28-1.9-.31-.72-.47-1.5-.47-2.32s.16-1.59,.47-2.32c.31-.72,.74-1.36,1.28-1.9,.54-.54,1.17-.97,1.9-1.28,.72-.31,1.5-.47,2.32-.47Zm0,.78c-.7,0-1.36,.14-1.98,.42-.62,.28-1.16,.66-1.62,1.13-.46,.47-.83,1.02-1.09,1.65-.26,.63-.4,1.29-.4,1.98s.13,1.37,.4,1.99c.26,.63,.63,1.18,1.09,1.65,.46,.48,1,.85,1.62,1.13,.62,.28,1.27,.41,1.98,.41s1.36-.14,1.98-.41c.62-.28,1.16-.65,1.62-1.13,.46-.48,.83-1.03,1.09-1.65,.26-.63,.4-1.29,.4-1.99s-.13-1.35-.4-1.98c-.26-.63-.63-1.18-1.09-1.65-.46-.47-1-.84-1.62-1.13-.62-.28-1.27-.42-1.98-.42Zm2.69,7.86c-.02,.09-.07,.15-.15,.19-.08,.04-.19,.09-.32,.13-.17,.05-.42,.12-.75,.19-.32,.07-.7,.11-1.12,.11-.5,0-.97-.06-1.42-.19-.45-.12-.84-.32-1.17-.6-.33-.28-.6-.63-.8-1.06-.2-.43-.3-.96-.3-1.57,0-.36,.08-.73,.23-1.13,.15-.39,.38-.75,.7-1.08,.31-.32,.71-.59,1.18-.8,.47-.21,1.04-.32,1.7-.32,.46,0,.83,.03,1.09,.1,.26,.06,.5,.13,.73,.21,.27,.09,.41,.21,.41,.36v1.2h-.26c0-.18-.04-.37-.11-.56-.08-.19-.19-.36-.36-.52-.16-.16-.37-.28-.63-.38-.26-.1-.57-.15-.92-.15-.43,0-.81,.08-1.13,.23-.32,.15-.59,.36-.8,.63-.22,.27-.38,.59-.49,.95-.11,.36-.16,.75-.16,1.17,0,.45,.05,.88,.15,1.27,.1,.39,.27,.74,.49,1.03,.23,.29,.51,.52,.85,.69,.34,.17,.74,.25,1.21,.25,.3,0,.57-.05,.81-.14,.24-.09,.45-.21,.62-.36,.18-.15,.33-.31,.45-.49,.12-.18,.22-.37,.31-.57h.24l-.28,1.2Z"/><path class="cls-1" d="M240.24,226.12c.82,0,1.6,.16,2.33,.47,.73,.31,1.36,.74,1.9,1.28,.53,.54,.96,1.17,1.27,1.9,.31,.72,.47,1.5,.47,2.32s-.16,1.59-.47,2.32c-.31,.72-.74,1.36-1.27,1.9-.54,.54-1.17,.97-1.9,1.28-.73,.31-1.5,.47-2.33,.47s-1.59-.16-2.32-.47c-.72-.31-1.36-.74-1.9-1.28-.54-.54-.97-1.17-1.28-1.9-.31-.72-.47-1.5-.47-2.32s.16-1.59,.47-2.32c.31-.72,.74-1.36,1.28-1.9s1.17-.97,1.9-1.28c.72-.31,1.5-.47,2.32-.47Zm0,.78c-.7,0-1.36,.14-1.98,.42-.62,.28-1.16,.66-1.62,1.13-.46,.47-.83,1.02-1.09,1.65-.26,.63-.4,1.29-.4,1.98s.13,1.37,.4,1.99c.26,.63,.63,1.18,1.09,1.65,.46,.48,1,.85,1.62,1.13,.62,.28,1.27,.41,1.98,.41s1.36-.14,1.98-.41c.62-.28,1.16-.65,1.62-1.13,.46-.48,.83-1.03,1.09-1.65,.26-.63,.4-1.29,.4-1.99s-.13-1.35-.4-1.98c-.26-.63-.63-1.18-1.09-1.65-.46-.47-1-.84-1.62-1.13-.62-.28-1.28-.42-1.98-.42Zm-2.83,8.04h.37c.1,0,.18,0,.24-.02,.07-.02,.11-.05,.15-.11,.03-.06,.06-.15,.07-.26,.02-.11,.02-.26,.02-.45v-4.16c0-.37-.03-.6-.1-.7-.06-.1-.19-.15-.39-.15h-.37v-.26h3.06c.27,0,.53,.03,.78,.09,.25,.06,.47,.16,.66,.29,.2,.14,.35,.31,.46,.51,.11,.21,.17,.45,.17,.75,0,.46-.12,.85-.36,1.16-.24,.31-.56,.52-.97,.62l.91,1.34c.12,.15,.24,.31,.36,.47,.12,.16,.25,.31,.37,.44,.12,.13,.24,.23,.36,.32,.11,.08,.22,.12,.32,.12v.26h-1.05c-.15,0-.29-.07-.43-.2-.13-.13-.29-.32-.45-.57-.17-.24-.36-.54-.58-.89-.22-.35-.5-.74-.82-1.17h-.86v1.73c0,.18,0,.33,.02,.45,.02,.11,.04,.2,.07,.26,.03,.06,.08,.1,.15,.11,.06,.02,.15,.02,.24,.02h.37v.26h-2.79v-.26Zm1.93-2.84h.83c.44,0,.77-.15,.99-.45,.22-.3,.32-.7,.32-1.2s-.14-.85-.41-1.05-.59-.31-.95-.31h-.78v3.01Z"/><path class="cls-1" d="M251.37,231.71c0,.38,.03,.63,.09,.76,.06,.13,.19,.19,.4,.19h.32v.26h-2.69v-.26h.42c.16,0,.27-.07,.32-.19,.05-.13,.07-.38,.07-.76v-5.07h-.79c-.33,0-.61,.12-.83,.36-.22,.24-.32,.51-.32,.81h-.26v-1.43h5.48v1.43h-.26c0-.3-.11-.57-.32-.81-.22-.24-.49-.36-.83-.36h-.79v5.07Zm4.46-3.78h-.03v3.65c0,.34,.04,.6,.11,.79,.08,.19,.25,.29,.54,.29h.23v.26h-2.11v-.26h.26c.27,0,.44-.1,.5-.29,.06-.19,.09-.46,.09-.79v-4.08c0-.21-.1-.4-.29-.58-.19-.18-.39-.28-.6-.28h-.21v-.26h1.86l2.54,5.1,2.66-5.1h1.64v.26h-.36c-.22,0-.37,.09-.45,.27-.08,.18-.12,.41-.12,.71v4.1c0,.38,.02,.63,.07,.76,.05,.13,.16,.19,.35,.19h.39v.26h-2.69v-.26h.39c.18,0,.3-.07,.35-.19,.05-.13,.07-.38,.07-.76v-3.78h-.03l-2.51,4.99h-.15l-2.5-4.99Z"/><path class="cls-1" d="M269.42,226.12h1.04l-4.81,11.93h-1.04l4.81-11.93Z"/><path class="cls-1" d="M276.53,226.12c-.94,1.09-1.62,2.27-2.03,3.54-.41,1.27-.62,2.65-.62,4.16s.21,2.89,.62,4.16c.41,1.27,1.08,2.45,2.03,3.54l-.45,.34c-1.02-1.12-1.75-2.36-2.2-3.7-.45-1.34-.67-2.79-.67-4.33s.22-2.99,.67-4.33c.45-1.34,1.18-2.58,2.2-3.7l.45,.34Z"/><path class="cls-1" d="M279.87,241.51c.94-1.09,1.62-2.27,2.03-3.54,.41-1.27,.62-2.66,.62-4.16s-.21-2.89-.62-4.16c-.41-1.27-1.09-2.45-2.03-3.54l.45-.34c1.02,1.12,1.75,2.36,2.2,3.7,.45,1.34,.67,2.79,.67,4.33s-.22,2.99-.67,4.33c-.45,1.35-1.18,2.58-2.2,3.7l-.45-.34Z"/><path class="cls-1" d="M287.91,225.97h3.09v.68h-2.41v14.32h2.41v.68h-3.09v-15.69Z"/><path class="cls-1" d="M296.95,241.66h-3.09v-.68h2.41v-14.32h-2.41v-.68h3.09v15.69Z"/><path class="cls-1" d="M304.78,241.66c-.41,0-.76-.03-1.04-.09-.29-.06-.52-.17-.7-.33-.18-.16-.31-.39-.39-.69-.08-.3-.12-.68-.12-1.16v-3.53c0-.29-.01-.55-.03-.78-.02-.23-.08-.42-.18-.58-.1-.16-.25-.3-.45-.41-.2-.11-.48-.2-.84-.28,.36-.08,.63-.17,.84-.28,.2-.11,.35-.24,.45-.41,.1-.16,.16-.36,.18-.58,.02-.23,.03-.49,.03-.78v-3.53c0-.48,.04-.86,.12-1.16,.08-.3,.21-.53,.39-.69,.18-.16,.41-.27,.7-.33,.29-.06,.63-.09,1.04-.09v.55c-.38,0-.67,.04-.88,.13-.21,.09-.37,.21-.47,.37-.1,.16-.16,.36-.19,.6-.02,.24-.03,.51-.03,.81v3.08c0,.33-.01,.63-.03,.88-.02,.25-.07,.47-.15,.66-.08,.18-.19,.34-.34,.46-.15,.12-.35,.22-.6,.28v.03c.25,.07,.45,.16,.6,.28,.15,.12,.26,.28,.34,.46,.08,.18,.12,.4,.15,.66,.02,.25,.03,.55,.03,.88v3.08c0,.31,0,.59,.02,.83,.02,.24,.07,.44,.17,.6,.1,.16,.25,.28,.47,.36,.22,.08,.52,.12,.91,.12v.55Z"/><path class="cls-1" d="M308.54,241.11c.38,0,.67-.04,.88-.13,.21-.09,.37-.21,.47-.37,.1-.16,.16-.36,.19-.6,.02-.24,.03-.51,.03-.81v-3.08c0-.33,.01-.63,.03-.88,.02-.25,.07-.47,.15-.66,.08-.18,.19-.34,.34-.46,.15-.12,.35-.22,.6-.28v-.03c-.25-.06-.45-.16-.6-.28-.15-.12-.26-.28-.34-.46-.08-.18-.12-.4-.15-.66-.02-.25-.03-.55-.03-.88v-3.08c0-.31,0-.59-.02-.83-.02-.24-.07-.44-.17-.6-.1-.16-.25-.28-.47-.37-.22-.08-.52-.12-.91-.12v-.55c.41,0,.76,.03,1.04,.09,.29,.06,.52,.17,.7,.33,.18,.16,.31,.39,.39,.69,.08,.3,.12,.68,.12,1.16v3.53c0,.29,.01,.55,.03,.78,.02,.23,.08,.42,.18,.58,.1,.16,.25,.3,.45,.41,.2,.11,.48,.2,.83,.28-.36,.08-.63,.17-.83,.28-.2,.11-.35,.24-.45,.41-.1,.16-.16,.36-.18,.58-.02,.23-.03,.49-.03,.78v3.53c0,.47-.04,.86-.12,1.16-.08,.3-.21,.53-.39,.69-.18,.16-.41,.27-.7,.33-.29,.06-.63,.09-1.04,.09v-.55Z"/></g><g><path class="cls-1" d="M60.44,140.1h-1.8v-.29h5.44v.29h-1.8v12.1h2.25c.86,0,1.59-.04,2.17-.13,.58-.08,1.05-.26,1.39-.53,.35-.27,.6-.66,.75-1.16,.15-.5,.23-1.18,.23-2.03h.29v4.14h-10.71v-.29h1.8v-12.1Z"/><path class="cls-1" d="M72.84,145.4h-1.44v-.29h1.44c.29,0,.57-.02,.84-.06,.27-.04,.5-.15,.67-.33v7.49h1.44v.29h-4.39v-.29h1.44v-6.8Zm-.16-3.92c0-.25,.09-.47,.27-.65s.4-.27,.65-.27,.47,.09,.65,.27c.18,.18,.27,.4,.27,.65s-.09,.47-.27,.65c-.18,.18-.4,.27-.65,.27s-.47-.09-.65-.27-.27-.4-.27-.65Z"/><path class="cls-1" d="M78.66,145.4h-1.42v-.29h1.42c.22,0,.4,0,.56,0,.16,0,.29-.02,.41-.04,.11-.02,.21-.06,.3-.12,.08-.05,.17-.13,.25-.23v1.84h.04c.12-.22,.26-.43,.43-.65,.17-.22,.37-.41,.59-.59,.23-.18,.48-.32,.76-.43,.28-.11,.58-.16,.9-.16,.48,0,.88,.06,1.2,.17,.32,.11,.57,.26,.76,.45,.19,.19,.32,.4,.4,.65,.08,.25,.12,.5,.12,.76v5.45h1.42v.29h-4.36v-.29h1.42v-5.89c0-.5-.1-.85-.31-1.04-.21-.19-.46-.28-.75-.28-.38,0-.72,.08-1.01,.24s-.54,.36-.75,.58c-.21,.23-.38,.46-.52,.7-.14,.24-.25,.44-.33,.59v5.08h1.37v.29h-4.3v-.29h1.42v-6.8Z"/><path class="cls-1" d="M88.59,148.71c0-.52,.09-1.01,.27-1.49,.18-.48,.43-.91,.77-1.28,.33-.37,.73-.67,1.21-.89,.47-.22,1-.33,1.58-.33s1.1,.11,1.58,.33c.47,.22,.88,.52,1.21,.89,.33,.37,.59,.8,.77,1.28,.18,.48,.27,.98,.27,1.49s-.09,1.01-.27,1.49c-.18,.48-.43,.91-.77,1.28s-.73,.67-1.21,.89c-.47,.22-1,.33-1.58,.33s-1.1-.11-1.58-.33-.88-.52-1.21-.89c-.33-.37-.59-.8-.77-1.28-.18-.48-.27-.98-.27-1.49Zm5.9-.7c0-.4-.02-.77-.04-1.13-.03-.36-.11-.68-.24-.95-.13-.28-.34-.5-.62-.67-.28-.17-.68-.25-1.18-.25s-.9,.08-1.18,.25c-.28,.17-.49,.39-.62,.67-.13,.28-.21,.59-.24,.95-.03,.36-.04,.74-.04,1.13v1.4c0,.4,.01,.77,.04,1.13,.03,.36,.11,.68,.24,.95,.13,.28,.34,.5,.62,.67,.28,.17,.68,.25,1.18,.25s.9-.08,1.18-.25c.28-.17,.49-.39,.62-.67,.13-.28,.21-.59,.24-.95,.03-.36,.04-.74,.04-1.13v-1.4Z"/><path class="cls-1" d="M99.55,145.4h-1.57v-.29c.47,.01,.87-.03,1.2-.13,.33-.1,.61-.25,.83-.46,.22-.21,.4-.47,.53-.79,.13-.32,.23-.7,.31-1.14h.22v2.52h2.48v.29h-2.48v6.05c0,.37,.08,.63,.23,.76,.15,.14,.37,.21,.66,.21,.23,0,.42-.04,.58-.13,.16-.09,.3-.2,.41-.32,.11-.12,.2-.25,.27-.38,.07-.13,.11-.23,.13-.31l.27,.05c-.04,.11-.1,.24-.18,.4-.08,.16-.2,.31-.36,.45-.16,.14-.35,.27-.58,.37-.23,.1-.52,.15-.85,.15-.64,0-1.14-.12-1.52-.35-.38-.23-.57-.65-.57-1.25v-5.71Z"/><path class="cls-1" d="M109.89,151.03l1.69-4.3c.07-.19,.13-.36,.17-.5,.04-.14,.06-.26,.06-.37,0-.18-.08-.3-.24-.37-.16-.07-.43-.1-.8-.1h-.74v-.29h3.51v.29c-.29,0-.52,.02-.68,.05-.17,.04-.31,.1-.41,.19-.11,.09-.2,.22-.27,.38-.07,.16-.16,.37-.27,.62l-1.6,4.03c-.13,.31-.26,.62-.37,.92-.11,.3-.22,.57-.31,.81-.09,.24-.17,.45-.23,.62-.07,.17-.1,.3-.12,.37-.18,.71-.34,1.31-.48,1.81-.14,.5-.29,.91-.45,1.22-.16,.32-.35,.55-.57,.7-.22,.15-.48,.23-.79,.23-.29,0-.53-.08-.71-.24-.19-.16-.28-.39-.28-.69,0-.25,.08-.46,.23-.62,.16-.16,.37-.24,.63-.24,.23,0,.41,.07,.55,.22,.14,.14,.21,.3,.21,.47,0,.06,0,.11,0,.15,0,.04,0,.09,0,.13,0,.12,.05,.18,.14,.18,.16,0,.31-.16,.46-.49,.15-.32,.29-.7,.4-1.12,.12-.42,.22-.83,.31-1.22,.08-.4,.14-.67,.18-.81l-3.33-7.67h-.97v-.29h4.01v.29h-1.3l2.38,5.63Z"/><path class="cls-1" d="M116.02,145.4h-1.24v-.29h1.24c.29,0,.57-.02,.84-.06,.27-.04,.5-.15,.68-.33v1.84h.04c.08-.22,.2-.43,.34-.65,.14-.22,.32-.41,.53-.59,.21-.17,.45-.32,.72-.43,.27-.11,.57-.17,.89-.17,.54,0,1.03,.13,1.47,.38,.44,.25,.82,.57,1.13,.96,.32,.39,.56,.82,.73,1.29,.17,.47,.25,.92,.25,1.37,0,.53-.09,1.03-.26,1.51-.17,.48-.42,.91-.75,1.28-.32,.37-.71,.67-1.17,.88-.46,.22-.97,.32-1.53,.32-.31,0-.6-.05-.85-.15-.26-.1-.49-.23-.68-.38-.2-.15-.37-.31-.5-.49-.14-.18-.24-.35-.31-.5h-.04v5.89h1.39v.29h-4.14v-.29h1.24v-11.66Zm1.51,4.5c0,.35,.06,.67,.19,.98,.13,.31,.3,.57,.51,.8,.22,.23,.47,.41,.76,.54,.29,.13,.6,.2,.93,.2,.44,0,.79-.07,1.05-.2,.26-.13,.46-.35,.59-.65,.14-.3,.23-.68,.27-1.15,.04-.47,.06-1.04,.06-1.71,0-.61-.02-1.15-.06-1.62-.04-.47-.13-.85-.27-1.16-.14-.31-.33-.54-.57-.69-.24-.16-.56-.23-.95-.23-.37,0-.71,.08-1.03,.25-.31,.17-.58,.38-.8,.65-.22,.26-.39,.56-.51,.9-.12,.34-.18,.67-.18,.99v2.11Z"/><path class="cls-1" d="M127.92,149.7c0,.32,.01,.65,.04,.96,.03,.32,.11,.61,.23,.87,.13,.26,.31,.48,.57,.64,.25,.16,.59,.24,1.01,.24,.37,0,.72-.06,1.04-.18,.32-.12,.61-.29,.86-.5,.25-.22,.46-.48,.63-.78,.17-.31,.28-.64,.34-1.02h.29c-.14,.83-.5,1.5-1.07,2.01-.57,.51-1.27,.76-2.1,.76-.53,0-1.01-.1-1.45-.29-.44-.19-.82-.46-1.13-.82-.32-.35-.56-.77-.74-1.26-.17-.49-.26-1.03-.26-1.63,0-.43,.08-.88,.25-1.36,.17-.47,.4-.91,.69-1.3,.29-.39,.65-.71,1.06-.96,.41-.25,.87-.38,1.36-.38,.53,0,.99,.13,1.39,.39,.4,.26,.74,.56,1.01,.9s.47,.69,.61,1.04c.14,.35,.21,.62,.21,.81,0,.11-.05,.16-.16,.16h-4.7v1.69Zm3.13-2.48c0-.29-.02-.56-.06-.83-.04-.26-.12-.5-.23-.71-.11-.21-.27-.37-.46-.49-.19-.12-.44-.18-.74-.18s-.57,.06-.78,.18c-.21,.12-.38,.29-.5,.49-.13,.21-.22,.45-.27,.71-.05,.26-.08,.54-.08,.83v.5h3.01c.08,0,.13-.04,.13-.13v-.38Z"/><path class="cls-1" d="M142.19,140.1h-1.71v-.29h5.49c.67,0,1.27,.08,1.78,.23,.52,.16,.95,.36,1.3,.62,.35,.26,.62,.56,.81,.9,.19,.34,.28,.69,.28,1.05,0,.68-.13,1.23-.39,1.63-.26,.4-.57,.71-.94,.92-.37,.21-.76,.35-1.18,.42-.42,.07-.79,.13-1.12,.16v.04c.49,.04,.97,.12,1.45,.26,.47,.14,.9,.34,1.27,.59s.67,.58,.9,.98c.23,.4,.34,.88,.34,1.46,0,.61-.12,1.13-.36,1.56-.24,.43-.55,.78-.93,1.05-.38,.28-.79,.48-1.25,.6-.46,.13-.89,.19-1.31,.19h-6.16v-.29h1.71v-12.1Zm1.84,5.51h1.19c.41,0,.8-.03,1.17-.09,.37-.06,.7-.19,.99-.39,.29-.2,.52-.48,.68-.86s.25-.86,.25-1.48c0-.24-.05-.52-.15-.83-.1-.31-.28-.61-.53-.88-.25-.28-.59-.51-1.03-.7-.43-.19-.98-.29-1.64-.29h-.94v5.51Zm0,6.59h1.51c.95,0,1.67-.28,2.16-.85,.49-.56,.74-1.37,.74-2.43,0-.5-.08-.94-.25-1.32-.17-.38-.4-.69-.7-.95-.3-.25-.66-.44-1.08-.57-.42-.13-.89-.19-1.4-.19h-.97v6.3Z"/><path class="cls-1" d="M159.35,151.52c0,.17,.03,.34,.09,.52,.06,.18,.21,.27,.45,.27,.2,0,.38-.07,.52-.22,.14-.14,.28-.31,.41-.5l.2,.14c-.17,.3-.38,.54-.63,.71-.25,.17-.57,.26-.95,.26-.42,0-.77-.11-1.06-.32-.29-.22-.46-.48-.52-.79h-.04c-.31,.41-.67,.7-1.09,.86-.41,.17-.92,.25-1.52,.25-.71,0-1.26-.17-1.66-.5-.4-.34-.59-.81-.59-1.42,0-.5,.15-.92,.45-1.24,.3-.32,.67-.58,1.12-.77,.45-.19,.94-.32,1.47-.4,.53-.07,1.03-.11,1.49-.11h.34v-2.21c0-.22-.04-.39-.13-.52-.09-.13-.21-.24-.35-.32-.14-.08-.3-.13-.48-.16-.17-.03-.35-.04-.51-.04-.13,0-.3,.02-.5,.04-.2,.03-.39,.08-.58,.14-.19,.06-.35,.15-.48,.26-.13,.11-.2,.25-.2,.41,0,.11,.03,.19,.09,.23,.06,.05,.13,.1,.21,.15s.15,.13,.21,.22c.06,.09,.09,.24,.09,.44,0,.22-.08,.4-.23,.54-.16,.14-.35,.22-.59,.22-.25,0-.45-.09-.59-.27-.14-.18-.21-.43-.21-.74,0-.23,.06-.46,.18-.68,.12-.23,.3-.43,.53-.62,.23-.19,.52-.34,.86-.45,.34-.11,.74-.17,1.2-.17,.34,0,.68,.05,1.03,.14,.35,.09,.67,.22,.96,.4s.52,.39,.71,.65c.19,.26,.28,.56,.28,.91v4.72Zm-1.82-2.97c-.32,0-.66,.01-1.01,.04-.35,.02-.67,.1-.95,.23-.29,.13-.53,.32-.71,.58-.19,.26-.28,.64-.28,1.12,0,.25,.02,.49,.04,.7,.03,.22,.09,.4,.18,.56,.09,.16,.22,.28,.4,.37,.17,.09,.4,.13,.69,.13,.34,0,.63-.05,.87-.16,.25-.11,.45-.24,.6-.39,.16-.15,.27-.3,.35-.45,.08-.15,.12-.27,.12-.37v-2.36h-.31Z"/><path class="cls-1" d="M163.85,145.4h-1.44v-.29h1.44c.29,0,.57-.02,.84-.06,.27-.04,.5-.15,.67-.33v6.44c0,.38,.1,.69,.3,.92,.2,.23,.47,.34,.82,.34,.31,0,.61-.08,.9-.24,.29-.16,.54-.37,.76-.63,.22-.26,.39-.55,.52-.88,.13-.33,.2-.66,.2-1v-4.27h-1.42v-.29h1.42c.29,0,.57-.02,.84-.06,.27-.04,.5-.15,.67-.33v7.49h1.44v.29h-2.95v-1.64h-.04c-.04,.11-.11,.26-.23,.47s-.28,.41-.49,.61c-.2,.2-.46,.38-.76,.54-.3,.16-.65,.23-1.04,.23-.46,0-.84-.05-1.14-.16-.31-.11-.56-.25-.76-.44-.2-.19-.34-.4-.42-.64-.08-.24-.13-.49-.13-.76v-5.31Z"/><path class="cls-1" d="M175.42,149.7c0,.32,.01,.65,.04,.96,.03,.32,.11,.61,.23,.87,.13,.26,.31,.48,.57,.64,.25,.16,.59,.24,1.01,.24,.37,0,.72-.06,1.04-.18,.32-.12,.61-.29,.86-.5,.25-.22,.46-.48,.63-.78,.17-.31,.28-.64,.34-1.02h.29c-.14,.83-.5,1.5-1.07,2.01-.57,.51-1.27,.76-2.1,.76-.53,0-1.01-.1-1.45-.29-.44-.19-.82-.46-1.13-.82-.32-.35-.56-.77-.74-1.26-.17-.49-.26-1.03-.26-1.63,0-.43,.08-.88,.25-1.36,.17-.47,.4-.91,.69-1.3,.29-.39,.65-.71,1.06-.96,.41-.25,.87-.38,1.36-.38,.53,0,.99,.13,1.4,.39,.4,.26,.74,.56,1.01,.9,.27,.34,.47,.69,.61,1.04,.14,.35,.21,.62,.21,.81,0,.11-.05,.16-.16,.16h-4.7v1.69Zm3.13-2.48c0-.29-.02-.56-.06-.83-.04-.26-.12-.5-.23-.71-.11-.21-.27-.37-.46-.49-.19-.12-.44-.18-.74-.18s-.57,.06-.78,.18c-.21,.12-.38,.29-.5,.49-.13,.21-.22,.45-.27,.71-.05,.26-.08,.54-.08,.83v.5h3.01c.08,0,.13-.04,.13-.13v-.38Z"/><path class="cls-1" d="M183.65,145.4h-1.51v-.29h1.51c.29,0,.57-.02,.84-.06,.27-.04,.5-.15,.67-.33v2.12h.04c.05-.2,.13-.43,.24-.67,.11-.25,.26-.48,.45-.69,.19-.22,.41-.4,.68-.54,.26-.14,.58-.22,.95-.22,.33,0,.62,.1,.85,.3,.23,.2,.34,.45,.34,.76,0,.24-.07,.44-.21,.6s-.34,.24-.62,.24c-.3,0-.51-.07-.62-.22-.11-.14-.17-.34-.17-.58,0-.2,.04-.37,.13-.5s.17-.22,.27-.28c-.05-.04-.13-.05-.25-.05-.18,0-.39,.07-.63,.22-.24,.14-.47,.36-.68,.66-.22,.29-.4,.66-.54,1.1-.14,.44-.22,.95-.22,1.54v3.69h1.64v.29h-4.66v-.29h1.51v-6.8Z"/><path class="cls-1" d="M197.6,140.1h-1.71v-.29h5.49c.67,0,1.27,.08,1.78,.23,.52,.16,.95,.36,1.3,.62,.35,.26,.62,.56,.81,.9,.19,.34,.28,.69,.28,1.05,0,.68-.13,1.23-.39,1.63-.26,.4-.57,.71-.94,.92-.37,.21-.76,.35-1.18,.42-.42,.07-.79,.13-1.12,.16v.04c.49,.04,.97,.12,1.45,.26,.47,.14,.9,.34,1.27,.59,.37,.26,.67,.58,.9,.98,.23,.4,.34,.88,.34,1.46,0,.61-.12,1.13-.36,1.56-.24,.43-.55,.78-.93,1.05s-.79,.48-1.25,.6c-.46,.13-.89,.19-1.31,.19h-6.16v-.29h1.71v-12.1Zm1.84,5.51h1.19c.41,0,.8-.03,1.17-.09,.37-.06,.7-.19,.99-.39,.29-.2,.52-.48,.68-.86s.25-.86,.25-1.48c0-.24-.05-.52-.15-.83-.1-.31-.28-.61-.53-.88-.25-.28-.59-.51-1.03-.7-.43-.19-.98-.29-1.64-.29h-.94v5.51Zm0,6.59h1.51c.95,0,1.67-.28,2.16-.85,.49-.56,.74-1.37,.74-2.43,0-.5-.08-.94-.25-1.32s-.4-.69-.7-.95c-.3-.25-.66-.44-1.08-.57-.42-.13-.89-.19-1.4-.19h-.97v6.3Z"/><path class="cls-1" d="M208.29,148.71c0-.52,.09-1.01,.27-1.49,.18-.48,.43-.91,.77-1.28,.33-.37,.73-.67,1.21-.89,.47-.22,1-.33,1.58-.33s1.1,.11,1.58,.33c.47,.22,.88,.52,1.21,.89,.33,.37,.58,.8,.76,1.28,.18,.48,.27,.98,.27,1.49s-.09,1.01-.27,1.49c-.18,.48-.43,.91-.76,1.28s-.73,.67-1.21,.89c-.47,.22-1,.33-1.58,.33s-1.1-.11-1.58-.33c-.47-.22-.88-.52-1.21-.89-.33-.37-.59-.8-.77-1.28-.18-.48-.27-.98-.27-1.49Zm5.9-.7c0-.4-.01-.77-.04-1.13-.03-.36-.11-.68-.24-.95-.13-.28-.34-.5-.62-.67-.28-.17-.68-.25-1.18-.25s-.9,.08-1.18,.25c-.28,.17-.49,.39-.62,.67-.13,.28-.21,.59-.24,.95-.03,.36-.04,.74-.04,1.13v1.4c0,.4,.01,.77,.04,1.13,.03,.36,.11,.68,.24,.95,.13,.28,.34,.5,.62,.67,.28,.17,.67,.25,1.18,.25s.9-.08,1.18-.25c.28-.17,.49-.39,.62-.67,.13-.28,.21-.59,.24-.95,.03-.36,.04-.74,.04-1.13v-1.4Z"/><path class="cls-1" d="M224.58,151.17h-.04c-.07,.16-.18,.32-.32,.5-.14,.18-.31,.34-.5,.49-.2,.15-.43,.28-.68,.38-.26,.1-.54,.15-.86,.15-.56,0-1.07-.11-1.53-.32-.46-.22-.85-.51-1.17-.88-.32-.37-.57-.8-.75-1.28-.17-.48-.26-.98-.26-1.51,0-.44,.08-.9,.25-1.37,.17-.47,.41-.9,.73-1.29,.32-.39,.7-.71,1.13-.96,.44-.25,.93-.38,1.47-.38,.32,0,.62,.06,.89,.17,.27,.11,.51,.26,.72,.43,.21,.17,.39,.37,.53,.59,.14,.22,.26,.43,.34,.65h.04v-6.55h-1.44v-.29h1.44c.29,0,.57-.02,.84-.07,.27-.05,.5-.17,.67-.38v12.94h1.24v.29h-2.75v-1.31Zm0-3.38c0-.32-.06-.65-.18-.99-.12-.33-.29-.64-.51-.9s-.49-.48-.8-.65c-.31-.17-.65-.25-1.03-.25-.4,0-.71,.08-.95,.23-.24,.16-.43,.39-.57,.69-.14,.31-.23,.69-.27,1.16-.04,.47-.06,1.01-.06,1.62,0,.67,.02,1.24,.06,1.71,.04,.47,.13,.85,.27,1.15,.14,.3,.34,.52,.59,.65,.26,.13,.61,.2,1.05,.2,.3,0,.6-.06,.89-.18,.29-.12,.55-.29,.77-.51,.22-.22,.4-.49,.53-.8,.13-.31,.2-.65,.2-1.03v-2.11Z"/><path class="cls-1" d="M229.1,148.71c0-.52,.09-1.01,.27-1.49,.18-.48,.43-.91,.76-1.28,.33-.37,.73-.67,1.21-.89,.47-.22,1-.33,1.58-.33s1.1,.11,1.58,.33c.47,.22,.88,.52,1.21,.89,.33,.37,.58,.8,.76,1.28,.18,.48,.27,.98,.27,1.49s-.09,1.01-.27,1.49c-.18,.48-.43,.91-.76,1.28-.33,.37-.73,.67-1.21,.89-.47,.22-1,.33-1.58,.33s-1.1-.11-1.58-.33c-.47-.22-.88-.52-1.21-.89s-.58-.8-.76-1.28c-.18-.48-.27-.98-.27-1.49Zm5.9-.7c0-.4-.01-.77-.04-1.13-.03-.36-.11-.68-.24-.95-.13-.28-.34-.5-.62-.67-.28-.17-.67-.25-1.18-.25s-.9,.08-1.18,.25c-.28,.17-.49,.39-.62,.67-.13,.28-.21,.59-.24,.95-.03,.36-.04,.74-.04,1.13v1.4c0,.4,.01,.77,.04,1.13,.03,.36,.11,.68,.24,.95,.13,.28,.34,.5,.62,.67,.28,.17,.67,.25,1.18,.25s.9-.08,1.18-.25c.28-.17,.49-.39,.62-.67,.13-.28,.21-.59,.24-.95,.03-.36,.04-.74,.04-1.13v-1.4Z"/><path class="cls-1" d="M239.97,145.4h-1.42v-.29h1.42c.22,0,.4,0,.56,0,.16,0,.29-.02,.41-.04,.11-.02,.21-.06,.3-.12,.08-.05,.17-.13,.25-.23v1.84h.04c.12-.22,.26-.43,.43-.65s.37-.41,.59-.59c.23-.18,.48-.32,.76-.43,.28-.11,.58-.16,.9-.16,.48,0,.88,.06,1.2,.17,.32,.11,.57,.26,.76,.45,.19,.19,.32,.4,.4,.65,.08,.25,.12,.5,.12,.76v5.45h1.42v.29h-4.36v-.29h1.42v-5.89c0-.5-.11-.85-.31-1.04-.21-.19-.46-.28-.75-.28-.38,0-.72,.08-1.01,.24-.29,.16-.54,.36-.75,.58-.21,.23-.38,.46-.52,.7-.14,.24-.25,.44-.33,.59v5.08h1.37v.29h-4.3v-.29h1.42v-6.8Z"/><path class="cls-1" d="M250.97,145.4h-1.44v-.29h1.44c.29,0,.57-.02,.84-.06,.27-.04,.5-.15,.67-.33v7.49h1.44v.29h-4.39v-.29h1.44v-6.8Zm-.16-3.92c0-.25,.09-.47,.27-.65,.18-.18,.4-.27,.65-.27s.47,.09,.65,.27c.18,.18,.27,.4,.27,.65s-.09,.47-.27,.65c-.18,.18-.4,.27-.65,.27s-.47-.09-.65-.27c-.18-.18-.27-.4-.27-.65Z"/></g></g></g></svg>