<?xml version="1.0" encoding="UTF-8"?><svg id="_圖層_2" xmlns="http://www.w3.org/2000/svg" viewBox="0 0 100 100"><defs><style>.cls-1{fill:none;}.cls-2{fill:#c9a063;}</style></defs><g id="_02"><g><g><path class="cls-2" d="M55.68,97.37c-.89,0-1.63-.7-1.66-1.6-.72-19.58,5.76-29.21,11.33-33.83,5.95-4.95,13.79-6.65,22.05-4.79,.52,.12,.96,.48,1.17,.97,.21,.49,.17,1.06-.11,1.51-3.34,5.45-8.97,9.42-14.42,13.26-8.58,6.05-16.69,11.76-16.69,22.82,0,.9-.73,1.64-1.63,1.66h-.03Z"/><path class="cls-2" d="M46.22,98.37c-.75,0-1.48-.32-2-.91L11.3,59.83l4-3.5,28.28,32.31V1.63h5.31V95.71c0,1.11-.69,2.1-1.72,2.49-.3,.11-.62,.17-.93,.17Z"/></g><rect class="cls-1" width="100" height="100"/></g></g></svg>