<?xml version="1.0" encoding="UTF-8"?><svg id="_圖層_2" xmlns="http://www.w3.org/2000/svg" viewBox="0 0 100 100"><defs><style>.cls-1{fill:none;}.cls-2{fill:#c9a063;}</style></defs><g id="_02"><g><g><path class="cls-2" d="M32.82,30.88c-6.27,0-11.37-5.1-11.37-11.37s5.1-11.36,11.37-11.36,11.36,5.1,11.36,11.36-5.1,11.37-11.36,11.37Zm0-17.42c-3.34,0-6.06,2.71-6.06,6.05s2.72,6.05,6.06,6.05,6.05-2.72,6.05-6.05-2.72-6.05-6.05-6.05Z"/><path class="cls-2" d="M63.35,30.87c-6.27,0-11.36-5.1-11.36-11.36s5.1-11.37,11.36-11.37,11.37,5.1,11.37,11.37-5.1,11.36-11.37,11.36Zm0-17.42c-3.34,0-6.05,2.72-6.05,6.05s2.72,6.05,6.05,6.05,6.06-2.71,6.06-6.05-2.72-6.05-6.06-6.05Z"/><path class="cls-2" d="M77.42,76.13c-1.86,6.02-7.48,10.41-14.11,10.41-8.14,0-14.77-6.62-14.77-14.77,0-4.88,2.39-9.21,6.06-11.9v-6.16c-6.71,3.25-11.37,10.11-11.37,18.06,0,11.07,9.01,20.08,20.08,20.08,9.57,0,17.59-6.74,19.59-15.72h-5.48Z"/><path class="cls-2" d="M82.48,70.08h-19.17c-1.47,0-2.65-1.19-2.65-2.66v-26.19l-8.33,4.16-2.37-4.75,12.17-6.09c.82-.41,1.8-.37,2.58,.12,.78,.48,1.26,1.34,1.26,2.26v27.83h16.51v5.31Z"/><rect class="cls-2" x="19.76" y="86.55" width="23.76" height="5.31"/><path class="cls-2" d="M30.28,81.25l-13.07-43.56c-.24-.8-.09-1.67,.41-2.35,.5-.67,1.29-1.07,2.13-1.07h23.76v5.31H23.32l12.04,40.14-5.09,1.53Z"/></g><rect class="cls-1" width="100" height="100"/></g></g></svg>