<?xml version="1.0" encoding="UTF-8"?><svg id="_圖層_2" xmlns="http://www.w3.org/2000/svg" viewBox="0 0 100 100"><defs><style>.cls-1{fill:none;}.cls-2{fill:#c9a063;}</style></defs><g id="_02"><g><g><path class="cls-2" d="M63.48,33.86c-4.73,0-8.58-3.85-8.58-8.58s3.85-8.58,8.58-8.58,8.58,3.85,8.58,8.58-3.85,8.58-8.58,8.58Zm0-11.85c-1.8,0-3.27,1.47-3.27,3.27s1.47,3.27,3.27,3.27,3.27-1.47,3.27-3.27-1.47-3.27-3.27-3.27Z"/><path class="cls-2" d="M53.89,52.58l-3.29-10.98c-.24-.8-.09-1.67,.41-2.35,.5-.67,1.29-1.07,2.13-1.07h20.68c.83,0,1.61,.39,2.12,1.05,.5,.66,.66,1.52,.44,2.32l-3.04,10.81-5.11-1.44,2.09-7.43h-13.61l2.27,7.56-5.09,1.53Z"/><path class="cls-2" d="M24.43,83.3h-5.31v-29.73c0-1.47,1.19-2.66,2.65-2.66h56.45c1.47,0,2.65,1.19,2.65,2.66v29.73h-5.31v-27.07H24.43v27.08Z"/><rect class="cls-2" x="23.91" y="26.54" width="4.33" height="21.68"/><rect class="cls-2" x="31.93" y="26.54" width="4.33" height="21.68"/><rect class="cls-2" x="39.45" y="31.09" width="4.33" height="16.5" transform="translate(-9.89 14.3) rotate(-17.47)"/></g><rect class="cls-1" width="100" height="100"/></g></g></svg>