<?xml version="1.0" encoding="UTF-8"?><svg id="_圖層_2" xmlns="http://www.w3.org/2000/svg" viewBox="0 0 100 100"><defs><style>.cls-1{fill:none;}.cls-2{fill:#c9a063;}</style></defs><g id="_02"><g><g><path class="cls-2" d="M43.01,12.1c-4.56-3.79-10.56-5.1-16.9-3.68-.52,.12-.96,.48-1.16,.97-.21,.49-.17,1.06,.11,1.51,2.55,4.16,6.81,7.17,10.93,10.07,3.87,2.72,7.59,5.36,9.92,8.83,.46-4.17,1.4-7.62,2.6-10.46-1.62-3.37-3.63-5.68-5.5-7.24Z"/><g><path class="cls-2" d="M76.66,92.15H23.34c-1.47,0-2.65-1.19-2.65-2.66V36.18c0-1.47,1.19-2.66,2.65-2.66h53.31c1.47,0,2.65,1.19,2.65,2.66v53.31c0,1.47-1.19,2.66-2.65,2.66Zm-50.66-5.31h48V38.83H26v48Z"/><rect class="cls-2" x="23.34" y="60.18" width="53.31" height="5.31"/><rect class="cls-2" x="47.35" y="36.18" width="5.31" height="53.31"/></g><path class="cls-2" d="M75.12,9.39c-.21-.49-.64-.86-1.16-.97-6.35-1.42-12.34-.11-16.9,3.68-4.24,3.53-9.19,10.85-8.64,25.71,.03,.89,.77,1.6,1.66,1.6h.03c.91-.02,1.63-.75,1.63-1.66,0-8.08,6-12.3,12.34-16.78,4.12-2.9,8.38-5.91,10.93-10.07,.28-.46,.32-1.02,.11-1.51Z"/></g><rect class="cls-1" width="100" height="100"/></g></g></svg>