<?xml version="1.0" encoding="UTF-8"?><svg id="_圖層_2" xmlns="http://www.w3.org/2000/svg" viewBox="0 0 100 100"><defs><style>.cls-1{fill:none;}.cls-2{fill:#c9a063;}</style></defs><g id="_02"><g><g><path class="cls-2" d="M41.24,88.7c-.3,0-.6-.08-.87-.24-5.45-3.34-9.42-8.97-13.26-14.42-6.05-8.58-11.76-16.69-22.82-16.69-.91,0-1.64-.72-1.66-1.63-.01-.9,.69-1.66,1.6-1.69,19.57-.73,29.21,5.76,33.83,11.32,4.95,5.95,6.65,13.78,4.8,22.06-.12,.52-.48,.96-.97,1.17-.21,.09-.43,.13-.65,.13Z"/><path class="cls-2" d="M98.37,48.88H4.29c-1.11,0-2.1-.69-2.49-1.72-.39-1.04-.1-2.2,.74-2.93L40.17,11.3l3.5,4L11.35,43.57H98.37v5.31Z"/></g><rect class="cls-1" width="100" height="100"/></g></g></svg>