<?xml version="1.0" encoding="UTF-8"?><svg id="_圖層_2" xmlns="http://www.w3.org/2000/svg" viewBox="0 0 100 100"><defs><style>.cls-1{fill:none;}.cls-2{fill:#c9a063;}</style></defs><g id="_02"><g><g><path class="cls-2" d="M90.01,71.49c-.31,0-.62-.09-.89-.26-7.16-4.54-11.49-11.28-12.2-18.98-.66-7.2,1.56-18.59,15.92-31.93,.66-.61,1.69-.59,2.32,.06,.63,.65,.62,1.69-.02,2.33-7.82,7.82-6.13,17.59-4.33,27.94,1.14,6.57,2.31,13.35,.82,19.57-.13,.52-.49,.95-.99,1.15-.2,.08-.41,.12-.62,.12Z"/><path class="cls-2" d="M8.13,94.6l-3.75-3.75L84.52,10.71H34.48V5.4h56.45c1.07,0,2.04,.65,2.45,1.64,.41,.99,.18,2.13-.58,2.89L8.13,94.6Z"/></g><rect class="cls-1" width="100" height="100"/></g></g></svg>