<?xml version="1.0" encoding="UTF-8"?><svg id="_圖層_2" xmlns="http://www.w3.org/2000/svg" viewBox="0 0 100 100"><defs><style>.cls-1{fill:none;}.cls-2{fill:#c9a063;}</style></defs><g id="_02"><g><g><path class="cls-2" d="M63.27,60.22c-4.95,0-8.97-4.03-8.97-8.97s4.03-8.97,8.97-8.97,8.97,4.03,8.97,8.97-4.03,8.97-8.97,8.97Zm0-12.64c-2.02,0-3.67,1.64-3.67,3.66s1.65,3.66,3.67,3.66,3.66-1.64,3.66-3.66-1.64-3.66-3.66-3.66Z"/><path class="cls-2" d="M43.66,32.3c-6.65,0-12.06-5.41-12.06-12.06s5.41-12.06,12.06-12.06,12.06,5.41,12.06,12.06-5.41,12.06-12.06,12.06Zm0-18.81c-3.72,0-6.75,3.03-6.75,6.75s3.03,6.75,6.75,6.75,6.75-3.03,6.75-6.75-3.03-6.75-6.75-6.75Z"/><path class="cls-2" d="M40.69,91.83l-15.05-50.18c-.24-.8-.09-1.67,.41-2.35,.5-.67,1.29-1.07,2.13-1.07h30.1v5.31H31.75l14.03,46.76-5.09,1.53Z"/><path class="cls-2" d="M42.93,81.19h-5.31c0-11.59,11.91-21.9,21.3-21.9v5.31c-6.69,0-15.99,8.36-15.99,16.59Z"/><path class="cls-2" d="M49,88.75l-1.57-5.08c11.89-3.67,21.73-8.11,21.73-25.28h5.31c0,20.76-12.58,26.38-25.47,30.36Z"/></g><rect class="cls-1" width="100" height="100"/></g></g></svg>