<?xml version="1.0" encoding="UTF-8"?><svg id="_圖層_2" xmlns="http://www.w3.org/2000/svg" viewBox="0 0 100 100"><defs><style>.cls-1{fill:none;}.cls-2{fill:#c9a063;}</style></defs><g id="_02"><g><g><g><path class="cls-2" d="M45.17,37.71c.66-22.53-9.11-30.38-18.79-27.67,4.92,10.03,18.79,13.15,18.79,27.67Z"/><path class="cls-2" d="M45.17,38.7h-.01c-.55,0-.98-.45-.98-1,0-8.48-4.9-12.79-10.08-17.36-3.25-2.87-6.62-5.83-8.6-9.87-.13-.27-.14-.58-.01-.84,.12-.27,.36-.47,.64-.55,4.27-1.19,8.46-.41,11.8,2.2,5.69,4.45,8.62,13.85,8.25,26.45-.01,.54-.46,.97-.99,.97ZM27.87,10.71c1.84,3.13,4.61,5.57,7.53,8.14,3.08,2.72,6.23,5.49,8.32,9.18-.97-7.07-3.37-12.32-7.04-15.19-2.55-1.99-5.58-2.73-8.81-2.14Z"/></g><rect class="cls-2" x="16.97" y="86.15" width="56.45" height="5.31"/><path class="cls-2" d="M45.2,81.76c-21.22,0-30.88-16.98-30.88-32.76,0-1.47,1.19-2.66,2.65-2.66h56.45c1.47,0,2.65,1.19,2.65,2.66,0,15.78-9.66,32.76-30.88,32.76Zm-25.47-30.11c.97,12.74,8.95,24.8,25.47,24.8s24.5-12.06,25.47-24.8H19.73Z"/><path class="cls-2" d="M72.42,72.83c-3.17,0-5.91-1.29-7.34-3.59l4.5-2.81c.61,.97,2.4,1.35,4.36,.93,2.55-.55,5.72-2.57,6.26-6.49,.26-1.9,.44-5.37-1.27-7.34-1.08-1.24-2.94-1.87-5.51-1.87v-5.31c4.18,0,7.38,1.24,9.51,3.69,2.33,2.67,3.2,6.67,2.53,11.56-.92,6.64-6.18,10.05-10.41,10.96-.9,.19-1.78,.28-2.63,.28Z"/></g><rect class="cls-1" width="100" height="100"/></g></g></svg>