<?xml version="1.0" encoding="UTF-8"?><svg id="_圖層_2" xmlns="http://www.w3.org/2000/svg" viewBox="0 0 100 100"><defs><style>.cls-1{fill:none;}.cls-2{fill:#c9a063;}</style></defs><g id="_02"><g><g><path class="cls-2" d="M50.03,30.87c-6.27,0-11.37-5.1-11.37-11.36s5.1-11.37,11.37-11.37,11.36,5.1,11.36,11.37-5.1,11.36-11.36,11.36Zm0-17.42c-3.34,0-6.06,2.72-6.06,6.05s2.72,6.05,6.06,6.05,6.05-2.71,6.05-6.05-2.72-6.05-6.05-6.05Z"/><path class="cls-2" d="M47.53,81.48L30.11,37.92c-.33-.82-.23-1.74,.27-2.47,.49-.73,1.32-1.17,2.2-1.17h34.85c.87,0,1.69,.43,2.18,1.14,.5,.72,.61,1.63,.3,2.44l-9.8,26.13-4.97-1.87,8.46-22.55h-27.09l15.97,39.92-4.93,1.97Z"/><rect class="cls-2" x="32.58" y="86.55" width="34.85" height="5.31"/></g><rect class="cls-1" width="100" height="100"/></g></g></svg>