<?xml version="1.0" encoding="UTF-8"?><svg id="_圖層_2" xmlns="http://www.w3.org/2000/svg" viewBox="0 0 100 100"><defs><style>.cls-1{fill:none;}.cls-2{fill:#c9a063;}</style></defs><g id="_02"><g><g><g><path class="cls-2" d="M50.01,38.31c-5.36,0-9.71-4.36-9.71-9.71s4.36-9.71,9.71-9.71,9.71,4.36,9.71,9.71-4.36,9.71-9.71,9.71Zm0-14.11c-2.43,0-4.4,1.97-4.4,4.4s1.98,4.4,4.4,4.4,4.4-1.97,4.4-4.4-1.97-4.4-4.4-4.4Z"/><path class="cls-2" d="M47.46,81.11l-10.58-35.28c-.24-.8-.09-1.67,.41-2.35,.5-.67,1.29-1.07,2.13-1.07h21.17c.82,0,1.59,.38,2.09,1.02,.5,.64,.68,1.48,.48,2.28l-5.29,21.17-5.15-1.29,4.46-17.87h-14.2l9.56,31.86-5.09,1.53Z"/></g><path class="cls-2" d="M71.64,46.08c-5.36,0-9.71-4.36-9.71-9.71s4.36-9.71,9.71-9.71,9.71,4.36,9.71,9.71-4.36,9.71-9.71,9.71Zm0-14.11c-2.43,0-4.4,1.97-4.4,4.4s1.98,4.4,4.4,4.4,4.4-1.97,4.4-4.4-1.97-4.4-4.4-4.4Z"/><path class="cls-2" d="M28.36,46.08c-5.36,0-9.71-4.36-9.71-9.71s4.36-9.71,9.71-9.71,9.71,4.36,9.71,9.71-4.36,9.71-9.71,9.71Zm0-14.11c-2.43,0-4.4,1.97-4.4,4.4s1.98,4.4,4.4,4.4,4.4-1.97,4.4-4.4-1.97-4.4-4.4-4.4Z"/><path class="cls-2" d="M37.46,55.48l-1.59-5.31h-14.32c-.86,0-1.67,.42-2.17,1.13-.5,.71-.62,1.61-.33,2.42l8.46,23.68,5-1.79-7.19-20.13h12.15Z"/><path class="cls-2" d="M80.81,51.21c-.5-.66-1.28-1.04-2.11-1.04h-14.37l-1.33,5.31h12.23l-4.5,16.54,5.13,1.39,5.41-19.89c.22-.8,.05-1.65-.45-2.31Z"/></g><rect class="cls-1" width="100" height="100"/></g></g></svg>