<?xml version="1.0" encoding="UTF-8"?><svg id="_圖層_2" xmlns="http://www.w3.org/2000/svg" viewBox="0 0 100 100"><defs><style>.cls-1{fill:none;}.cls-2{fill:#c9a063;}</style></defs><g id="_02"><g><g><path class="cls-2" d="M77.02,63.01h-23.88v3.57h-6.56v-30.96c-1.21,1.67-2.42,3.22-3.68,4.6-.35-.4-.81-.92-1.26-1.5l.63,4.55c-1.78,.57-3.68,1.15-5.58,1.67v13.75c0,3.28-.57,5.06-2.42,6.21-1.79,1.15-4.32,1.38-8.06,1.38-.17-1.84-.98-4.72-1.84-6.67,2.01,.06,4.03,.06,4.72,0,.69,0,.98-.17,.98-.98v-11.74l-5.52,1.5-1.55-6.5c2.01-.46,4.43-1.04,7.08-1.73v-10.47h-6.39v-6.27h6.39V12.84h6.62v10.59h5.7v6.27h-5.7v8.69l3.74-.98c-.86-.86-1.73-1.73-2.42-2.3,5.24-5.18,9.9-13.52,12.49-21.98l6.44,1.73c-.92,2.65-1.96,5.23-3.05,7.82h7.83c-.75-2.19-2.01-4.89-3.28-7.08l5.93-2.3c1.55,2.36,3.16,5.7,3.91,7.88l-3.45,1.49h10.93v6.27h-9.21v5.12h8.57v6.04h-8.57v5.18h8.46v6.04h-8.46v5.41h10.47v6.27ZM60.15,28.95h-7.02v5.12h7.02v-5.12Zm0,11.16h-7.02v5.18h7.02v-5.18Zm-7.02,16.63h7.02v-5.41h-7.02v5.41Z"/><g><path class="cls-2" d="M24.46,72.15h4.84c3.26,0,5.77,1.13,5.77,4.62s-2.53,4.88-5.7,4.88h-1.97v5.24h-2.95v-14.73Zm4.72,7.17c2.03,0,3.01-.86,3.01-2.55s-1.08-2.29-3.11-2.29h-1.67v4.84h1.77Z"/><path class="cls-2" d="M37.66,80.26v-8.1h2.95v8.36c0,3.07,1.05,4.1,2.79,4.1s2.87-1.03,2.87-4.1v-8.36h2.83v8.1c0,4.9-2.09,6.91-5.69,6.91s-5.73-2.01-5.73-6.91Z"/><path class="cls-2" d="M51.42,85.02l1.69-2.03c1.05,.97,2.45,1.63,3.74,1.63,1.53,0,2.35-.66,2.35-1.69,0-1.09-.9-1.43-2.21-1.99l-1.97-.84c-1.49-.62-2.99-1.81-2.99-3.96,0-2.41,2.11-4.26,5.1-4.26,1.71,0,3.42,.68,4.62,1.89l-1.49,1.85c-.94-.78-1.91-1.22-3.13-1.22-1.29,0-2.13,.58-2.13,1.55,0,1.05,1.05,1.43,2.31,1.93l1.93,.82c1.79,.74,2.97,1.87,2.97,4,0,2.41-2.01,4.46-5.42,4.46-1.97,0-3.94-.77-5.38-2.15Z"/><path class="cls-2" d="M64.82,72.15h2.95v5.79h5.57v-5.79h2.93v14.73h-2.93v-6.37h-5.57v6.37h-2.95v-14.73Z"/></g></g><rect class="cls-1" width="100" height="100"/></g></g></svg>