<?xml version="1.0" encoding="UTF-8"?><svg id="_圖層_2" xmlns="http://www.w3.org/2000/svg" viewBox="0 0 100 100"><defs><style>.cls-1{fill:none;}.cls-2{fill:#c9a063;}</style></defs><g id="_02"><g><g><path class="cls-2" d="M36.82,45.66v13.98c0,3.22-.52,4.83-2.36,5.87-1.78,1.04-4.31,1.32-8,1.27-.23-1.73-1.04-4.43-1.9-6.21,1.96,.11,3.97,.11,4.66,.06,.69,0,.92-.23,.92-.98v-12.2l-5.35,1.38-1.78-6.5c2.07-.4,4.49-.98,7.13-1.61v-10.24h-6.39v-6.33h6.39V13.27h6.67v10.88h5.41v6.33h-5.41v8.63l4.95-1.21,.8,6.21-5.75,1.55Zm40.16,12.43v6.45H41.25v-6.45h19.39c1.84-7.42,3.8-18.58,4.55-26.93l7.19,1.04c-1.38,8.69-3.57,18.7-5.52,25.89h10.13Zm-1.27-28.77h-31.88v-6.45h12.83c-.4-2.47-1.61-6.16-2.59-8.86l6.56-1.61c1.09,2.76,2.24,6.39,2.88,8.75l-6.04,1.73h18.24v6.45Zm-24.74,27.16c-.46-5.93-1.9-16.05-3.45-23.77l5.98-1.32c1.73,7.54,3.39,17.49,3.97,23.3l-6.5,1.78Z"/><g><path class="cls-2" d="M25.99,72.58h4.84c3.27,0,5.77,1.13,5.77,4.62s-2.53,4.88-5.69,4.88h-1.97v5.24h-2.95v-14.73Zm4.72,7.17c2.03,0,3.01-.86,3.01-2.55s-1.08-2.29-3.11-2.29h-1.67v4.84h1.77Z"/><path class="cls-2" d="M39.2,80.69v-8.1h2.95v8.36c0,3.07,1.05,4.1,2.79,4.1s2.87-1.03,2.87-4.1v-8.36h2.83v8.1c0,4.9-2.09,6.91-5.69,6.91s-5.73-2.01-5.73-6.91Z"/><path class="cls-2" d="M54.17,72.58h2.95v12.26h5.97v2.47h-8.92v-14.73Z"/><path class="cls-2" d="M65.67,72.58h2.95v12.26h5.97v2.47h-8.92v-14.73Z"/></g></g><rect class="cls-1" width="100" height="100"/></g></g></svg>