<?xml version="1.0" encoding="UTF-8"?><svg id="_圖層_2" xmlns="http://www.w3.org/2000/svg" viewBox="0 0 100 100"><defs><style>.cls-1{fill:none;}.cls-2{fill:#c9a063;}</style></defs><g id="_02"><g><g><path class="cls-2" d="M33.33,45.15c-4.45,0-8.06-3.62-8.06-8.06s3.62-8.06,8.06-8.06,8.06,3.62,8.06,8.06-3.61,8.06-8.06,8.06Zm0-10.81c-1.52,0-2.75,1.23-2.75,2.75s1.24,2.75,2.75,2.75,2.75-1.23,2.75-2.75-1.24-2.75-2.75-2.75Z"/><path class="cls-2" d="M44.16,74.38c0,.06,.02,.12,.02,.19,0,5.1-4.15,9.24-9.24,9.24s-9.24-4.14-9.24-9.24c0-2.62,1.1-4.97,2.86-6.65v-6.4c-4.83,2.37-8.17,7.32-8.17,13.06,0,8.02,6.53,14.55,14.55,14.55s14.55-6.53,14.55-14.55c0-.06,0-.12,0-.19h-5.32Z"/><path class="cls-2" d="M56.51,89.28h-5.31v-16.98h-17.4c-1.47,0-2.65-1.19-2.65-2.66v-14.63l-10.74,5.37-2.37-4.75,14.58-7.29c.82-.41,1.8-.37,2.58,.12,.78,.48,1.26,1.34,1.26,2.26v16.27h17.4c1.47,0,2.65,1.19,2.65,2.66v19.63Z"/><path class="cls-2" d="M81.97,76.4h-5.31V15.89H35.99v10.34h-5.31V13.23c0-1.47,1.19-2.66,2.65-2.66h45.98c1.47,0,2.65,1.19,2.65,2.66v63.17Z"/><path class="cls-2" d="M65.42,89.42c-.41,0-.81-.09-1.19-.28-.9-.45-1.46-1.37-1.46-2.37V21.41c0-.94,.5-1.81,1.31-2.29l13.9-8.17c.82-.48,1.84-.49,2.66-.02,.83,.47,1.34,1.35,1.34,2.3v63.17c0,.84-.4,1.63-1.07,2.13l-13.9,10.37c-.47,.35-1.03,.53-1.59,.53Zm2.65-66.5v58.55l8.59-6.4V17.88l-8.59,5.05Z"/></g><rect class="cls-1" width="100" height="100"/></g></g></svg>