<?xml version="1.0" encoding="UTF-8"?><svg id="_圖層_2" xmlns="http://www.w3.org/2000/svg" viewBox="0 0 100 100"><defs><style>.cls-1{fill:none;}.cls-2{fill:#c9a063;}</style></defs><g id="_02"><g><g><path class="cls-2" d="M61.93,45.6c-4.45,0-8.06-3.62-8.06-8.06s3.62-8.06,8.06-8.06,8.06,3.62,8.06,8.06-3.61,8.06-8.06,8.06Zm0-10.81c-1.52,0-2.75,1.23-2.75,2.75s1.24,2.75,2.75,2.75,2.75-1.23,2.75-2.75-1.24-2.75-2.75-2.75Z"/><path class="cls-2" d="M72.77,74.83c0,.06,.02,.12,.02,.19,0,5.1-4.15,9.24-9.24,9.24s-9.24-4.14-9.24-9.24c0-2.62,1.1-4.97,2.86-6.65v-6.4c-4.83,2.37-8.17,7.32-8.17,13.06,0,8.02,6.53,14.55,14.55,14.55s14.55-6.53,14.55-14.55c0-.06,0-.12,0-.19h-5.32Z"/><path class="cls-2" d="M85.11,89.72h-5.31v-16.97h-17.4c-1.47,0-2.65-1.19-2.65-2.66v-14.63l-10.74,5.37-2.37-4.75,14.58-7.29c.82-.41,1.8-.37,2.58,.12,.78,.48,1.26,1.34,1.26,2.26v16.27h17.4c1.47,0,2.65,1.19,2.65,2.66v19.63Z"/><path class="cls-2" d="M14.89,10.28h12.86c10.45,0,17.22,3.48,17.22,13.43s-6.78,14.19-16.97,14.19h-7.85v18.74h-5.26V10.28Zm12.35,23.3c8.49,0,12.54-2.98,12.54-9.88s-4.31-9.18-12.79-9.18h-6.84v19.06h7.09Z"/></g><rect class="cls-1" width="100" height="100"/></g></g></svg>