<?xml version="1.0" encoding="UTF-8"?><svg id="_圖層_2" xmlns="http://www.w3.org/2000/svg" viewBox="0 0 100 100"><defs><style>.cls-1{fill:none;}.cls-2{fill:#c9a063;}</style></defs><g id="_02"><g><g><path class="cls-2" d="M59.86,78.15h-5.31v-1.73c.05-5.52,.1-11.23-3.5-14.86-2.82-2.84-7.86-4.28-14.99-4.28s-12.17,1.44-14.99,4.28c-3.6,3.63-3.55,9.34-3.51,14.86v1.73s-5.3,0-5.3,0v-1.69c-.06-5.99-.12-13.45,5.04-18.64,3.9-3.93,10.04-5.85,18.76-5.85s14.86,1.91,18.76,5.85c5.16,5.2,5.1,12.65,5.05,18.64v1.69Z"/><rect class="cls-2" x="21.75" y="68.28" width="28.64" height="5.31"/><rect class="cls-2" x="57.23" y="68.28" width="17.87" height="5.31"/><rect class="cls-2" x="17.29" y="78.15" width="5.31" height="14.11"/><rect class="cls-2" x="27.91" y="78.15" width="5.31" height="14.11"/><rect class="cls-2" x="38.53" y="78.15" width="5.31" height="14.11"/><path class="cls-2" d="M85.09,92.41H51.64c-1.47,0-2.65-1.19-2.65-2.66v-11.6h5.31v8.95h27.7l-3.89-25.26h-25.26v-5.31h27.53c1.31,0,2.43,.96,2.63,2.25l4.7,30.57c.12,.77-.11,1.55-.61,2.13-.5,.59-1.24,.93-2.02,.93Z"/><rect class="cls-2" x="33.41" y="7.59" width="5.31" height="47.04"/><rect class="cls-2" x="59" y="7.59" width="5.31" height="51.59"/></g><rect class="cls-1" width="100" height="100"/></g></g></svg>