<?xml version="1.0" encoding="UTF-8"?><svg id="_圖層_2" xmlns="http://www.w3.org/2000/svg" viewBox="0 0 100 100"><defs><style>.cls-1{fill:none;}.cls-2{fill:#c9a063;}</style></defs><g id="_02"><g><g><path class="cls-2" d="M9.98,71.49c-.21,0-.42-.04-.62-.12-.5-.2-.87-.63-.99-1.15-1.49-6.22-.32-13.01,.82-19.57,1.8-10.35,3.49-20.12-4.33-27.94-.64-.64-.65-1.67-.02-2.33,.63-.65,1.66-.68,2.32-.06,14.36,13.34,16.58,24.73,15.91,31.93-.71,7.7-5.04,14.44-12.2,18.98-.27,.17-.58,.26-.89,.26Z"/><path class="cls-2" d="M91.87,94.6L7.2,9.93c-.76-.76-.99-1.9-.58-2.89,.41-.99,1.38-1.64,2.45-1.64h56.45v5.31H15.48L95.63,90.85l-3.75,3.75Z"/></g><rect class="cls-1" width="100" height="100"/></g></g></svg>