<?xml version="1.0" encoding="UTF-8"?><svg id="_圖層_2" xmlns="http://www.w3.org/2000/svg" viewBox="0 0 100 100"><defs><style>.cls-1{fill:none;}.cls-2{fill:#c9a063;}</style></defs><g id="_02"><g><g><path class="cls-2" d="M58.77,88.7c-.22,0-.44-.04-.65-.13-.49-.21-.86-.64-.97-1.17-1.85-8.27-.15-16.11,4.79-22.06,4.62-5.56,14.25-12.05,33.83-11.32,.9,.03,1.61,.78,1.6,1.69-.02,.9-.76,1.63-1.66,1.63-11.06,0-16.77,8.11-22.82,16.69-3.84,5.45-7.81,11.08-13.26,14.42-.26,.16-.56,.24-.87,.24Z"/><path class="cls-2" d="M95.71,48.88H1.63v-5.31H88.65L56.33,15.29l3.5-4,37.63,32.93c.83,.73,1.12,1.9,.74,2.93-.39,1.04-1.38,1.72-2.49,1.72Z"/></g><rect class="cls-1" width="100" height="100"/></g></g></svg>