<?xml version="1.0" encoding="UTF-8"?><svg id="_圖層_2" xmlns="http://www.w3.org/2000/svg" viewBox="0 0 100 100"><defs><style>.cls-1{fill:none;}.cls-2{fill:#c9a063;}</style></defs><g id="_02"><g><g><g><rect class="cls-2" x="47.39" y="31.18" width="5.31" height="19.96" transform="translate(-.11 .14) rotate(-.16)"/><g><rect class="cls-2" x="48.95" y="45.77" width="19.96" height="5.31" transform="translate(-11.34 18.77) rotate(-16.53)"/><path class="cls-2" d="M66.2,54.12l-6.66-4.81c-.61-.44-.85-1.23-.58-1.94l2.94-7.74,3.1,1.18-2.49,6.55,5.63,4.07-1.94,2.69Z"/><rect class="cls-2" x="53.55" y="49.55" width="5.31" height="19.96" transform="translate(-24.98 48.92) rotate(-39.2)"/><path class="cls-2" d="M56.97,69.2l-3.23-.76,1.87-8c.17-.73,.81-1.26,1.56-1.28l8.27-.27,.11,3.32-7,.22-1.58,6.76Z"/></g><g><rect class="cls-2" x="38.41" y="38.44" width="5.31" height="19.96" transform="translate(-17.04 74) rotate(-73.45)"/><path class="cls-2" d="M33.8,54.12l-1.94-2.69,5.63-4.07-2.49-6.55,3.1-1.18,2.94,7.74c.27,.7,.03,1.5-.58,1.93l-6.66,4.81Z"/><rect class="cls-2" x="33.82" y="56.88" width="19.96" height="5.31" transform="translate(-30.02 55.86) rotate(-50.81)"/><path class="cls-2" d="M43.03,69.2l-1.58-6.76-7-.22,.11-3.32,8.27,.27c.75,.02,1.39,.55,1.56,1.28l1.87,8-3.23,.76Z"/></g><path class="cls-2" d="M49.98,41.18c-.36,0-.71-.11-1.01-.34l-6.52-5,2.02-2.64,5.51,4.22,5.56-4.27,2.02,2.63-6.57,5.04c-.3,.23-.65,.34-1.01,.34Z"/></g><path class="cls-2" d="M82.63,85.28H17.37c-1.47,0-2.65-1.19-2.65-2.66V17.37c0-1.47,1.19-2.66,2.65-2.66H82.63c1.47,0,2.65,1.19,2.65,2.66V82.63c0,1.47-1.19,2.66-2.65,2.66Zm-62.6-5.31h59.94V20.03H20.03v59.94Z"/></g><rect class="cls-1" width="100" height="100"/></g></g></svg>