<?xml version="1.0" encoding="UTF-8"?><svg id="_圖層_2" xmlns="http://www.w3.org/2000/svg" viewBox="0 0 134.82 732.25"><defs><style>.cls-1{fill:none;stroke:#5c8d5f;stroke-miterlimit:10;stroke-width:12px;}.cls-2{fill:#5c8d5f;}</style></defs><g id="_圖層_1-2"><g><line class="cls-1" x1="67.41" x2="67.41" y2="720.31"/><g><path class="cls-2" d="M0,666.62c21.17,1.15,43.68,8.21,58.22,24.51,10.09,11.39,14.01,26.17,13.43,41.12,0,0-10,0-10,0l-.24-2.84c-.89-11.87-5.7-23.14-14.89-30.86-12.31-10.14-29.25-13.73-45.04-13.61-.4,.01-.93,.03-1.14,.05l-.35-18.37H0Z"/><path class="cls-2" d="M134.47,684.99c-18.1-.44-38.58,4.19-50.86,18.2-4.33,5.16-7.36,11.27-8.87,17.91-.95,3.56-1.29,7.46-1.57,11.15h-10c-.05-4.39-.03-8.89,.72-13.23,1.55-11.35,6.96-22.31,15.08-30.46,13.94-13.72,33.21-19.93,52.2-21.73,1.08-.06,2.45-.21,3.65-.21,0,0-.35,18.37-.35,18.37h0Z"/></g></g></g></svg>